<svg xmlns="http://www.w3.org/2000/svg" viewBox="0 0 760 960"><title>sk-hermit</title><path d="M574.34,628.67s-8.91,77.2-42.94,95.56H253.86c-34-18.36-42.93-95.56-42.93-95.56S134.28,581,136.47,601s16.21,48.89,33.69,52.57S188.55,713.21,195,759.4s19.32,65.85,35.87,75,11,16.52,63.47,38.57,98.29,16.53,98.29,16.53S438.51,895,490.93,873s46.91-29.38,63.47-38.57,29.44-28.85,35.87-75,7.36-102.19,24.84-105.86,31.5-32.59,33.69-52.57S574.34,628.67,574.34,628.67Z" style="fill:#f9efe1"/><path d="M303.65,845.11c9.53-10,16.74-22.06,9.5-29.91-8-8.65-21.19.08-26.79,6.51a50.09,50.09,0,0,0-3.73,4.9c.67-7.72,1.18-19.81-5.32-23.72-7.58-4.55-14.28,3-16.38,9.68-2,6.31-1.58,13.54-.23,20.71-8.14-11.28-19.37-21.73-28.4-19.09-8.68,2.54-9.83,12.76-5.37,19.43,7.39,11,22.22,13.72,32.88,20.13.84.51,1.83-.71,1.07-1.39-5.17-4.54-11.05-8-16.84-11.73a60.07,60.07,0,0,1-11.32-8.76c-5.11-5.29-2.21-15.26,5.76-11.76,10.39,4.57,22.94,19.77,27.13,31.47l.88,2.83a2.28,2.28,0,0,0,1.69,1.62,2.46,2.46,0,0,0,.92,2.2,29.65,29.65,0,0,0,3.73,2.6,2.91,2.91,0,0,0,3,1.66c19.38,9.88,60.29,16.59,64.27-7.14C343.76,833.53,322.32,837.72,303.65,845.11Zm-10.39-23.45c3.2-3.21,16.63-8.84,17.48-.1,1,10.68-16.32,26.31-27.09,32.88-1.56.83-2.86,1.55-3.81,2.08a3.21,3.21,0,0,0-.38.27l-1.06-.44c.86-4.73,1.68-9.46,2.4-14.21a86.39,86.39,0,0,1,3.73-8.52A46.42,46.42,0,0,1,293.26,821.66Zm-28,3.95c-.57-5.85-.9-15.78,5.79-18.51,5-2,5.83,5.29,6.18,8.4.87,7.75.17,15.68-1,23.56a56.1,56.1,0,0,0-3.46,14.47h0a2.63,2.63,0,0,0-1.5-.43c-.11-.45-.26-.93-.43-1.43A137.74,137.74,0,0,1,265.27,825.61Zm21.92,34c13.86-7.73,46.15-24.76,46.87-5.09C334.66,870.89,306,865.88,287.19,859.64Z" style="fill:#e6334b"/><path d="M446.41,855.36c4,23.73,44.9,17,64.28,7.14a2.91,2.91,0,0,0,3-1.66,29.7,29.7,0,0,0,3.73-2.6,2.46,2.46,0,0,0,.92-2.2,2.29,2.29,0,0,0,1.69-1.62l.88-2.83c4.19-11.7,16.74-26.91,27.13-31.47,8-3.5,10.87,6.47,5.76,11.76a59.94,59.94,0,0,1-11.31,8.76c-5.78,3.68-11.67,7.18-16.84,11.73-.76.67.22,1.89,1.07,1.39,10.65-6.41,25.49-9.08,32.87-20.13,4.47-6.68,3.32-16.89-5.36-19.43-9-2.64-20.25,7.81-28.4,19.09,1.36-7.17,1.74-14.4-.23-20.71-2.1-6.71-8.8-14.23-16.38-9.68-6.5,3.91-6,16-5.33,23.72a50,50,0,0,0-3.73-4.9c-5.6-6.43-18.81-15.16-26.79-6.51-7.24,7.85,0,19.87,9.5,29.91C464.18,837.72,442.74,833.53,446.41,855.36ZM502,833.62a84.88,84.88,0,0,1,3.73,8.52c.72,4.75,1.54,9.48,2.4,14.21l-1.06.44a3.49,3.49,0,0,0-.38-.27c-.94-.53-2.25-1.25-3.81-2.08-10.76-6.58-28.12-22.21-27.09-32.88.84-8.74,14.28-3.11,17.48.1A46.34,46.34,0,0,1,502,833.62Zm13.7,18c-.16.5-.31,1-.42,1.43a2.63,2.63,0,0,0-1.5.43h0a56.1,56.1,0,0,0-3.46-14.47c-1.18-7.88-1.88-15.81-1-23.56.35-3.11,1.19-10.44,6.18-8.4,6.69,2.73,6.36,12.66,5.79,18.51A137.25,137.25,0,0,1,515.67,851.65Zm-63.23,2.9c.73-19.67,33-2.64,46.87,5.09C480.52,865.88,451.85,870.89,452.44,854.55Z" style="fill:#e6334b"/><path d="M653,592.93c-2.19-2.43-5.35-3.67-9.39-3.67-17.94,0-63.88,28-72.92,33.62l-2.79,1.74-.38,3.27a262.13,262.13,0,0,1-8.35,39.27c-7.62,25.69-17.85,43-29.63,50.26H255.69c-24.37-15-35.67-69.55-38-89.53l-.38-3.27-2.8-1.74c-9-5.61-55-33.62-72.91-33.62-4,0-7.2,1.24-9.39,3.67a10.88,10.88,0,0,0-2.55,8.77c2.36,21.58,17.25,53.91,39.07,58.5,8.62,1.81,13,42.88,15.63,67.41,1.15,10.83,2.35,22,3.84,32.72,6.09,43.65,18.21,68.34,39.32,80a50.59,50.59,0,0,1,10.57,8c7.59,6.93,17,15.55,53.57,30.91a230.16,230.16,0,0,0,87.1,17.67c7.41,0,12.31-.42,13.85-.58,2,.2,6.73.57,13.83.58h0a230.19,230.19,0,0,0,87.11-17.67c36.54-15.36,46-24,53.57-30.91a50.42,50.42,0,0,1,10.57-8c21.1-11.7,33.23-36.39,39.32-80,1.5-10.75,2.69-21.91,3.84-32.73,2.63-24.53,7-65.6,15.64-67.41,21.82-4.59,36.71-36.92,39.06-58.5A10.86,10.86,0,0,0,653,592.93ZM391.64,828.39a1.19,1.19,0,0,0-.72-.73c.13-1.14.26-2.28.36-3.41.14,1.58.32,3.15.53,4.72C391.75,828.77,391.71,828.57,391.64,828.39ZM613.7,646.86c-18.34,3.85-21.9,37.16-26.41,79.33-1.14,10.71-2.33,21.79-3.79,32.27-5.44,39-15.44,60.59-32.42,70a64,64,0,0,0-13.16,9.84c-6.81,6.22-15.28,14-49.64,28.4a215,215,0,0,1-57.06,15c-12-8.43-22-16.21-28.66-29.69-6-12.1-7-25.38-10.54-38.19.06-1.33.11-2.65.16-3.95a.91.91,0,0,0-1.79-.24c-3.3,13.32-5,26.84-9.13,40-4.76,15-12.94,24.83-25.75,32.26A215.64,215.64,0,0,1,297,866.7c-34.35-14.44-42.83-22.18-49.65-28.4a63.52,63.52,0,0,0-13.15-9.84c-17-9.43-27-31-32.43-70-1.46-10.47-2.64-21.56-3.79-32.29-4.51-42.16-8.07-75.46-26.4-79.31-10.29-2.16-24.48-21.73-27.91-43.79,12,1.86,41.9,18.1,60.92,29.7,2.3,16.4,13.2,79.74,46,97.46l1.52.82h281l1.52-.82c32.83-17.71,43.74-81.07,46-97.46,19-11.61,48.91-27.86,60.94-29.7C638.26,625,624,644.69,613.7,646.86Z" style="fill:#3c3c3b"/><path d="M616.95,166.73c-66.22-79.88-164.3-85.4-224.31-85.4s-158.09,5.51-224.32,85.4-84.16,178-60.71,264.45c19.31,71.16,9.66,88.15,9.66,88.15s-27.59,78.51,67.61,97.79,74.5,73.46,73.12,101l134.64.91,134.63-.91c-1.38-27.54-22.08-81.72,73.13-101S668,519.33,668,519.33s-9.66-17,9.66-88.15C701.11,344.77,683.18,246.62,616.95,166.73Z" style="fill:#f9efe1"/><path d="M438.86,572.73c-4.93-9-5.42-22-7.79-37.88s-23.84-39.25-30.7-36.5-.73,20,0,44.07-7.7,35.82-7.7,35.82-8.39-11.71-7.7-35.82,6.82-41.32,0-44.07-28.33,20.66-30.71,36.5-2.86,28.93-7.79,37.88-19.85,22.73-7.22,46.83,50.11-2.06,53.45-13.77c3.34,11.71,40.81,37.88,53.45,13.77S443.79,581.69,438.86,572.73Z" style="fill:#3c3c3b"/><path d="M548.48,565.43c-10.52,0-21.56-1.36-31.93-2.82-53.46-7.56-86.52-40.09-98.27-96.69-5.82-28.05,2.24-47.37,10-58.63,18.38-26.57,50.4-32.34,54-32.91l.65-.09a145,145,0,0,1,18.55-1.14c21.87,0,43.69,4.35,52.2,7.44l2,.69c13.79,4.64,50.43,17,64.58,46.08,16,32.81,7.21,61.56-4.94,93.08-11.66,30.27-33.54,45-66.89,45Z" style="fill:#3aaa61"/><path d="M486,397.59s-56,8.9-44.67,63.57,42.54,73.11,78.53,78.2,60.82,5.72,73.56-27.34,16.56-52.13,5.73-74.38-46.49-32.42-53.49-35S510.4,394.4,486,397.59Z" style="fill:#3c3c3b"/><path d="M234.32,565.43c-33.35,0-55.23-14.71-66.9-45-12.14-31.52-20.9-60.27-4.93-93.08,14.16-29.09,50.79-41.43,64.58-46.08l2-.69c8.5-3.09,30.32-7.44,52.2-7.44a144.93,144.93,0,0,1,18.55,1.14l.66.09c3.59.57,35.6,6.34,54,32.91,7.79,11.26,15.86,30.58,10,58.63-11.75,56.6-44.81,89.13-98.27,96.69C255.88,564.08,244.83,565.43,234.32,565.43Z" style="fill:#3aaa61"/><path d="M296.81,397.59s56,8.9,44.67,63.57-42.54,73.11-78.52,78.2-60.82,5.72-73.56-27.34-16.56-52.13-5.73-74.38,46.49-32.42,53.49-35S272.4,394.4,296.81,397.59Z" style="fill:#3c3c3b"/><path d="M265.57,739.6s-12.87-8-16.51-2.5-3.39,29.49,4.64,28.57S265.57,739.6,265.57,739.6Z" style="fill:#f9efe1"/><path d="M253.26,767.76h0c-1.66,0-4-.71-5.83-4.08-3.83-7.11-3.32-22.83-.08-27.72.86-1.31,2.6-2.86,6-2.86,5.67,0,13.06,4.56,13.37,4.75l1.16.71-.21,1.34c-.68,4.46-4.53,26.76-13.67,27.81C253.71,767.74,253.48,767.76,253.26,767.76Zm0-30.53c-1.66,0-2.22.58-2.51,1-2.25,3.41-2.91,17.56.28,23.48.68,1.27,1.42,1.91,2.19,1.91h.21c4.2-.48,8.2-13.49,9.83-22.94C260.86,739.32,256.42,737.22,253.3,737.22Z" style="fill:#3c3c3b"/><path d="M299.39,744.9S295.1,741,286.82,742s-8.28,10.21-8.28,10.21-4.1,28.92,4.16,31.22,10.41-11.52,10.41-11.52Z" style="fill:#f9efe1"/><path d="M284.49,785.79h0a8.68,8.68,0,0,1-2.35-.33c-9.45-2.63-6.44-27.93-5.67-33.36.06-3.85,2.22-11.13,10.09-12.11a23.4,23.4,0,0,1,3-.19c7.2,0,11.06,3.44,11.22,3.58l.9.82-6.54,28.16C294.94,773.58,292.7,785.79,284.49,785.79Zm5.06-41.87a20.91,20.91,0,0,0-2.48.16c-6.33.8-6.46,7.88-6.46,8.18l0,.28c-2.37,16.75-.46,28.07,2.66,28.94a4.68,4.68,0,0,0,1.24.18c4.09,0,6.16-7.43,6.57-10l0-.15,6-25.7A14.62,14.62,0,0,0,289.56,743.92Z" style="fill:#3c3c3b"/><path d="M377.42,794.48s-15.64-9.18-14.72-39.94c0,0-2.3-9.64,14.72-9.64s15.17,7.35,15.17,7.35S392.14,795.86,377.42,794.48Z" style="fill:#f9efe1"/><path d="M378.1,796.58a7.8,7.8,0,0,1-.87,0l-.46,0-.4-.23c-.68-.4-16.6-10.12-15.74-41.55a8.93,8.93,0,0,1,1.83-6.83c2.65-3.35,7.69-5,15-5,8,0,13.39,1.6,15.87,4.78a6.32,6.32,0,0,1,1.37,4.82C394.59,757.71,393.57,796.58,378.1,796.58ZM377.42,747c-7.34,0-10.4,1.87-11.67,3.42a4.69,4.69,0,0,0-1,3.7l0,.24v.27c-.45,15.2,3.31,24.76,6.55,30.11a26.33,26.33,0,0,0,6.77,7.74c4.55,0,8.27-6.9,10.48-19.43a146,146,0,0,0,2-20.8l.06-.48a2.32,2.32,0,0,0-.64-1.69C389,748.91,386,747,377.42,747Z" style="fill:#3c3c3b"/><path d="M362.95,751.26s2-5.9-11.52-6.36-16.32-1.05-17.7,6.36-4.14,41.39,8.74,47.36S363.66,765.42,362.95,751.26Z" style="fill:#f9efe1"/><path d="M345.1,801.3h0a8.27,8.27,0,0,1-3.51-.81c-14.55-6.74-11.17-42.79-9.9-49.61,1.32-7.09,4.56-8.29,11.31-8.29,1.71,0,3.73.08,6.08.16l2.41.09c6.49.22,10.74,1.71,12.62,4.43a5.48,5.48,0,0,1,.91,4.18c.44,11-4.18,37.19-13,46.41C349.89,800.14,347.54,801.3,345.1,801.3ZM343,746.72c-5.86,0-6.46.74-7.24,4.91-1.51,8.11-3.45,40,7.58,45.1a4.07,4.07,0,0,0,1.76.42h0a5.75,5.75,0,0,0,4-2.15c7.68-8.06,12.32-33.49,11.82-43.66l0-.39.13-.38a1.49,1.49,0,0,0-.35-1.06c-.53-.69-2.49-2.33-9.29-2.57l-2.42-.08C346.63,746.8,344.64,746.72,343,746.72Z" style="fill:#3c3c3b"/><path d="M333,757.23s-2.93-10.06-6.15-12.57-12.75-7.11-13.74,8.5,1.06,45.3,8.31,46.07S334.06,782,333,757.23Z" style="fill:#f9efe1"/><path d="M321.86,801.32h0c-.22,0-.44,0-.66,0-4.41-.47-7.37-6.76-9.08-19.24A160,160,0,0,1,311,753c.72-11.37,6-13.07,9.12-13.07,3.74,0,7,2.34,8,3.06,3.57,2.78,6.34,11.84,6.86,13.63l.08.49c.85,19.42-2.24,35.78-7.89,41.66A7.29,7.29,0,0,1,321.86,801.32Zm-1.71-57.22c-3.65,0-4.73,5-5,9.2-1.34,21.29,2.63,43.48,6.47,43.88h.23a3.34,3.34,0,0,0,2.31-1.25c3.87-4,7.62-17.75,6.75-38.37-1.17-3.92-3.55-9.87-5.36-11.29A9.91,9.91,0,0,0,320.15,744.1Z" style="fill:#3c3c3b"/><path d="M313.1,753.16s-2.52-12.78-11.18-10.06-12.34,36.69-4.52,43.58,16.43-6.51,16.1-11S313.1,753.16,313.1,753.16Z" style="fill:#f9efe1"/><path d="M302.06,790.68h0a9,9,0,0,1-6-2.45c-5.65-5-6-20.12-3.55-31.85,1.06-5,3.63-13.62,8.82-15.25a9.67,9.67,0,0,1,2.95-.47c8.39,0,10.78,11.61,10.88,12.11l0,.39c0,.18.07,18,.39,22.35.21,2.86-2,7.52-5,10.84C307.87,789.18,305,790.68,302.06,790.68Zm2.19-45.89a5.78,5.78,0,0,0-1.71.28c-1.7.53-4.28,4-6,12.17-2.47,11.63-1.43,24.66,2.24,27.89a4.92,4.92,0,0,0,3.3,1.42h0c1.69,0,3.61-1.07,5.42-3,2.59-2.78,4-6.37,3.95-7.71-.32-4.31-.39-20.23-.4-22.42C310.74,752.18,308.78,744.79,304.25,744.79Z" style="fill:#3c3c3b"/><path d="M281.2,744.9s-.81-5-10-6.57S261.06,750,261.06,750s-2.92,19.31,7,22S277.41,754.08,281.2,744.9Z" style="fill:#f9efe1"/><path d="M269.76,774.25h0a8.74,8.74,0,0,1-2.23-.31c-11.34-3.07-8.76-22.61-8.52-24.22.1-1.27,1.36-13.59,10.7-13.59a11.39,11.39,0,0,1,1.83.16c10.54,1.8,11.66,8,11.71,8.28l.09.58-.22.54a58.91,58.91,0,0,0-2.55,10.17C278.81,764.9,277,774.25,269.76,774.25Zm-.05-34c-5.82,0-6.57,9.73-6.58,9.83l0,.17c-.73,4.86-1.17,17.88,5.49,19.69a4.48,4.48,0,0,0,1.15.17c3.83,0,5.38-8,6.75-15a69.14,69.14,0,0,1,2.5-10.24c-.46-1-2.2-3.45-8.17-4.47A6.9,6.9,0,0,0,269.7,740.26Z" style="fill:#3c3c3b"/><path d="M519.69,739.6s12.87-8,16.51-2.5,3.39,29.49-4.64,28.57S519.69,739.6,519.69,739.6Z" style="fill:#f9efe1"/><path d="M532,767.76c-.22,0-.45,0-.68,0-9.15-1.05-13-23.35-13.68-27.81l-.21-1.34,1.16-.71c.31-.2,7.7-4.75,13.37-4.75,3.37,0,5.1,1.56,6,2.86,3.23,4.89,3.75,20.61-.08,27.72C536,767.05,533.66,767.76,532,767.76Zm-10-27.09c1.63,9.45,5.64,22.46,9.83,22.94.88.1,1.66-.51,2.4-1.89,3.19-5.93,2.53-20.08.28-23.49-.29-.43-.85-1-2.51-1C528.85,737.22,524.4,739.32,522,740.67Z" style="fill:#3c3c3b"/><path d="M485.87,744.9s4.29-3.9,12.57-2.87,8.28,10.21,8.28,10.21,4.1,28.92-4.16,31.22-10.41-11.52-10.41-11.52Z" style="fill:#f9efe1"/><path d="M500.77,785.79c-8.21,0-10.44-12.22-10.64-13.45l-6.54-28.16.89-.82c.16-.15,4-3.58,11.22-3.58a23.4,23.4,0,0,1,3,.19c7.88,1,10,8.26,10.09,12.11.76,5.43,3.77,30.73-5.67,33.36A8.78,8.78,0,0,1,500.77,785.79Zm-12.56-40,6,25.83c.41,2.6,2.5,10,6.57,10a4.7,4.7,0,0,0,1.24-.18c3.12-.87,5-12.18,2.66-28.94l0-.29c0-.29-.13-7.37-6.47-8.17a20.87,20.87,0,0,0-2.48-.16A14.7,14.7,0,0,0,488.2,745.79Z" style="fill:#3c3c3b"/><path d="M407.84,794.48s15.64-9.18,14.72-39.94c0,0,2.3-9.64-14.72-9.64s-15.18,7.35-15.18,7.35S393.12,795.86,407.84,794.48Z" style="fill:#f9efe1"/><path d="M407.16,796.58h0c-15.47,0-16.5-38.87-16.57-44.14a6.34,6.34,0,0,1,1.38-4.82c2.48-3.18,7.83-4.78,15.87-4.78,7.28,0,12.31,1.7,15,5a8.93,8.93,0,0,1,1.83,6.83c.85,31.43-15.07,41.15-15.75,41.55l-.39.23-.46,0A7.84,7.84,0,0,1,407.16,796.58Zm.68-49.62c-8.62,0-11.55,1.94-12.53,3.1a2.27,2.27,0,0,0-.63,1.75l.06.23v.18c.17,15.55,3.69,40.22,12.43,40.23,2.27-1.64,14.12-11.5,13.33-37.85v-.27l.06-.27a4.71,4.71,0,0,0-1-3.68C418.24,748.83,415.18,747,407.84,747Z" style="fill:#3c3c3b"/><path d="M422.31,751.26s-2-5.9,11.53-6.36,16.32-1.05,17.7,6.36,4.13,41.39-8.74,47.36S421.6,765.42,422.31,751.26Z" style="fill:#f9efe1"/><path d="M440.16,801.3c-2.45,0-4.8-1.16-7-3.44-8.79-9.22-13.41-35.42-13-46.41a5.47,5.47,0,0,1,.92-4.18c1.87-2.72,6.12-4.21,12.62-4.43l2.41-.09c2.35-.08,4.38-.16,6.08-.16,6.75,0,10,1.2,11.31,8.29,1.27,6.82,4.65,42.87-9.9,49.61A8.25,8.25,0,0,1,440.16,801.3Zm2.09-54.58c-1.63,0-3.62.07-5.93.16l-2.42.08c-6.8.23-8.77,1.87-9.29,2.57a1.39,1.39,0,0,0-.32,1.13l.13.38,0,.32c-.51,10.17,4.14,35.6,11.82,43.65,2,2.07,3.76,2.64,5.73,1.73,11-5.11,9.09-37,7.58-45.11C448.72,747.47,448.11,746.72,442.25,746.72Z" style="fill:#3c3c3b"/><path d="M452.28,757.23s2.92-10.06,6.14-12.57,12.75-7.11,13.74,8.5-1.06,45.3-8.32,46.07S451.2,782,452.28,757.23Z" style="fill:#f9efe1"/><path d="M463.4,801.32a7.29,7.29,0,0,1-5.31-2.53c-5.64-5.88-8.73-22.23-7.88-41.65l.08-.49c.52-1.79,3.29-10.84,6.86-13.62.92-.72,4.22-3.07,8-3.07,3.1,0,8.4,1.7,9.12,13.07.58,9.3.62,47.11-10.17,48.25C463.84,801.31,463.62,801.32,463.4,801.32Zm-9.06-43.75c-.87,20.61,2.88,34.33,6.75,38.37a3.18,3.18,0,0,0,2.54,1.24c3.84-.4,7.81-22.59,6.47-43.88-.27-4.19-1.35-9.2-5-9.2a9.91,9.91,0,0,0-5.4,2.18C457.89,747.7,455.51,753.65,454.34,757.57Z" style="fill:#3c3c3b"/><path d="M472.16,753.16s2.52-12.78,11.18-10.06,12.34,36.69,4.52,43.58-16.43-6.51-16.1-11S472.16,753.16,472.16,753.16Z" style="fill:#f9efe1"/><path d="M483.2,790.68c-2.89,0-5.82-1.5-8.46-4.33-3.09-3.32-5.25-8-5-10.84.32-4.39.39-22.16.39-22.35l0-.39c.1-.5,2.48-12.11,10.88-12.11a9.71,9.71,0,0,1,3,.47c5.2,1.63,7.75,10.25,8.82,15.25,2.49,11.72,2.1,26.87-3.55,31.85A9,9,0,0,1,483.2,790.68Zm-9-37.28c0,2.18-.09,18.11-.4,22.42-.1,1.34,1.35,4.93,3.95,7.71,1.81,1.95,3.74,3,5.42,3a4.91,4.91,0,0,0,3.29-1.42c3.67-3.23,4.72-16.26,2.24-27.89-1.73-8.13-4.32-11.64-6-12.17a5.85,5.85,0,0,0-1.71-.28C476.45,744.79,474.52,752.17,474.23,753.4Z" style="fill:#3c3c3b"/><path d="M504.06,744.9s.81-5,10-6.57S524.2,750,524.2,750s2.92,19.31-7,22S507.85,754.08,504.06,744.9Z" style="fill:#f9efe1"/><path d="M515.51,774.25c-7.25,0-9.14-9.77-10.82-18.4a58.81,58.81,0,0,0-2.54-10.17l-.22-.54.09-.58c0-.26,1.17-6.47,11.7-8.28a11.41,11.41,0,0,1,1.82-.16c9.35,0,10.6,12.32,10.71,13.59.23,1.62,2.81,21.16-8.52,24.22A8.73,8.73,0,0,1,515.51,774.25Zm-9.25-29.4a68.45,68.45,0,0,1,2.49,10.22c1.37,7.06,2.92,15.06,6.76,15.06a4.48,4.48,0,0,0,1.14-.17c7.92-2.14,5.52-19.51,5.49-19.69l0-.17c0-.1-.79-9.83-6.58-9.83a6.86,6.86,0,0,0-1.12.1C508.49,741.38,506.74,743.83,506.26,744.85Z" style="fill:#3c3c3b"/><path d="M588.27,626.67c-4.66,14.27-8.17,28.94-12.53,43.32-5.14,16.91-12.13,32.82-19.64,48.79-.06.13.1.27.21.16,22.53-23.44,31.9-59.47,39.94-90.07C597.61,623.68,589.92,621.63,588.27,626.67Z" style="fill:#3c3c3b"/><path d="M606.68,622.27c-3.22,8.87-5.74,17.92-9,26.81-.07.18.17.28.29.18,7.5-6.42,12.35-16,15.87-25C615.63,619.8,608.31,617.75,606.68,622.27Z" style="fill:#3c3c3b"/><path d="M622.79,617.87c-1.85,6.48-3,14.42-6.95,20-.07.09.07.16.14.1a42.07,42.07,0,0,0,13.34-18.27C630.91,615.68,624,613.61,622.79,617.87Z" style="fill:#3c3c3b"/><path d="M226.72,720.79c-8.18-15.85-15.75-31-21-48.15-4.8-15.62-6.35-32.46-9.64-48.44-1.3-6.32-10.68-3.58-9.59,2.64,3.08,17.67,9.81,33.81,16.11,50.48,5.71,15.13,12.51,31.87,23.17,44.22C226.23,722.08,227,721.38,226.72,720.79Z" style="fill:#3c3c3b"/><path d="M183.73,646.68a87.43,87.43,0,0,1-4.84-15.38c-1-4.5-2.37-10.28-6.37-12.9a3.07,3.07,0,0,0-4.46,1.81c-1.61,4.8,2,9.84,4.71,13.67,1.38,2,3.35,3.25,4.89,5.07a60,60,0,0,1,5.38,8.13C183.31,647.53,183.92,647.14,183.73,646.68Z" style="fill:#3c3c3b"/><path d="M119.6,410.5a.49.49,0,0,0-.88.37c5.23,21.64,9.69,41.06,8.08,63.53a158.08,158.08,0,0,1-6.71,33.92c-3.2,10.67-8.61,20.76-10.36,31.8-.57,3.6,3.66,7,6.62,3.85,15.27-16.34,19.46-44.07,20.15-65.61C137.22,455.78,131.65,429.73,119.6,410.5Z" style="fill:#3c3c3b"/><path d="M674.57,533.17c-3.51-21.48-12.68-42.22-17.9-63.41-5.11-20.75,5.15-41.7,0-62.45-.06-.25-.41-.18-.43.06-1.91,23-9.31,44.25-8,67.54,1.16,20.56,9.07,43.36,17.63,61.92C668.31,542.1,675.37,538.06,674.57,533.17Z" style="fill:#3c3c3b"/><path d="M388,156.5a1.47,1.47,0,0,0,.8-1.25c.34-12.15-.31-24.31-.92-36.45-.29-5.66.83-13.15-.54-19.33a57.51,57.51,0,0,0-.74-8.14c0-.09,0-.19,0-.29s0-.1,0-.16h0a5.68,5.68,0,0,0-6.1-4.76h-.15a5.54,5.54,0,0,0-1.89.3,14,14,0,0,0-1.42.4c-8.55-4.16-19.83-2.79-29.62-2.32a30,30,0,0,0-3.95.13,7.54,7.54,0,0,0-6.73,6.19C326.16,86,315.22,84.11,307.86,90c-2,1.58-1.78,5.14,0,6.75,5.94,5.35,14,4.12,21.57,6.13,9.73,2.61,18.58,8.3,26.25,14.66,14.78,12.28,26.25,30,33.13,47.9,0,.09.19.08.18,0A87.87,87.87,0,0,0,388,156.5Z" style="fill:#e6334b"/><path d="M195.19,321.87c-11-4.52-21.47-7.58-30.76-15.31-7.65-6.37-13.44-14.74-18.44-23.24-10.15-17.24-16.63-35-13.94-55,.44-3.23-3.49-6.8-6.22-3.62-6.45,7.52-6.56,17.73-3.84,28.08-1.64,5.72-4.94,11.27-7.07,16.57-3.14,7.81-4.07,16.63-5.07,24.95-2.26,18.69-6.88,36.4-10.38,54.82-1.25,2.43-.34,5,1.47,6.75-5.82,10.55-8.51,22.58-5.49,33.88,1.09,4.07,6.78,3.82,8,0,2.85-9,4.19-18.4,8.35-27,4.48-9.23,12-16,20.18-21.93,15.91-11.45,34.89-14.07,53.49-18.16a34.8,34.8,0,0,0,9.73-.43C195.39,322.18,195.34,321.93,195.19,321.87Z" style="fill:#e6334b"/><path d="M396.26,156.5a1.47,1.47,0,0,1-.8-1.25c-.34-12.15.31-24.31.92-36.45.29-5.66-.83-13.15.54-19.33a57,57,0,0,1,.75-8.14c0-.09,0-.19,0-.29s0-.1,0-.16h0a5.67,5.67,0,0,1,6.1-4.76H404a5.52,5.52,0,0,1,1.89.3,14.3,14.3,0,0,1,1.42.4c8.55-4.16,19.83-2.79,29.61-2.32a30,30,0,0,1,3.95.13,7.54,7.54,0,0,1,6.73,6.19C458.11,86,469,84.11,476.4,90c2,1.58,1.78,5.14,0,6.75-5.94,5.35-14,4.12-21.57,6.13-9.74,2.61-18.58,8.3-26.25,14.66-14.78,12.28-26.25,30-33.13,47.9,0,.09-.19.08-.18,0A87.87,87.87,0,0,1,396.26,156.5Z" style="fill:#e6334b"/><path d="M589.07,322.22a34.8,34.8,0,0,0,9.73.43c18.6,4.09,37.58,6.71,53.49,18.16,8.19,5.89,15.7,12.71,20.18,21.93,4.16,8.57,5.5,17.95,8.35,27,1.2,3.82,6.89,4.07,8,0,3-11.3.34-23.33-5.49-33.88,1.81-1.8,2.71-4.32,1.47-6.75-3.49-18.42-8.12-36.13-10.38-54.82-1-8.32-1.93-17.14-5.07-24.95-2.13-5.3-5.43-10.85-7.07-16.57,2.72-10.35,2.61-20.56-3.84-28.08-2.73-3.18-6.66.38-6.22,3.62,2.7,20-3.79,37.8-13.94,55-5,8.5-10.79,16.87-18.44,23.24-9.29,7.74-19.8,10.79-30.76,15.31C588.92,321.93,588.87,322.18,589.07,322.22Z" style="fill:#e6334b"/><path d="M284.45,436.74c0,18-10.88,32.55-24.29,32.55s-24.28-14.57-24.28-32.55c0-9.92,3.31-18.8,8.52-24.76,4.24-4.86,9.75,5.17,15.76,5.17s11.77-9.89,16-4.84C281.26,418.27,284.45,427,284.45,436.74Z" style="fill:#f39200"/><path d="M244.07,432c15.6,9,22.8,25.67,16.09,37.27S235.38,483,219.78,474c-8.6-5-14.65-12.25-17.22-19.75-2.1-6.09,9.35-5.84,12.36-11s-2.7-15.12,3.83-16.29C226.45,425.54,235.62,427.15,244.07,432Z" style="fill:#f39200"/><path d="M219.78,464.57c15.6-9,33.67-6.87,40.38,4.72s-.5,28.28-16.1,37.27c-8.6,5-18,6.53-25.75,5-6.33-1.24-.38-11-3.4-16.21s-14.46-5.23-12.22-11.45C205.35,476.56,211.34,469.44,219.78,464.57Z" style="fill:#f39200"/><path d="M235.88,501.84c0-18,10.87-32.55,24.28-32.55s24.28,14.57,24.28,32.55c0,9.92-3.3,18.79-8.52,24.76-4.24,4.87-9.74-5.17-15.76-5.17s-11.77,9.89-16,4.84C239.06,520.31,235.88,511.57,235.88,501.84Z" style="fill:#f39200"/><path d="M276.26,506.56c-15.6-9-22.8-25.67-16.1-37.27s24.78-13.7,40.38-4.72c8.6,5,14.65,12.25,17.23,19.75,2.1,6.1-9.36,5.84-12.37,11s2.7,15.12-3.83,16.29C293.88,513,284.7,511.42,276.26,506.56Z" style="fill:#f39200"/><path d="M300.54,474c-15.59,9-33.67,6.87-40.38-4.72s.51-28.28,16.1-37.27c8.6-5,18-6.54,25.74-5,6.34,1.24.39,11,3.39,16.21s14.47,5.23,12.22,11.45C315,462,309,469.14,300.54,474Z" style="fill:#f39200"/><ellipse cx="260.17" cy="469.29" rx="20.03" ry="20" style="fill:#f39200"/><ellipse cx="260.17" cy="469.29" rx="9.35" ry="9.33" style="fill:#3c3c3b"/><path d="M253.25,436.23c-.76-3.58-1.08-7.24-1.7-10.85a.17.17,0,0,0-.32,0c-1,6.24-1.85,17.28,3.65,21.82a1,1,0,0,0,1.71-1C255.95,442.78,254,439.72,253.25,436.23Z" style="fill:#3c3c3b"/><path d="M266.84,423.43a.2.2,0,0,0-.39,0c-.74,3.23-.63,6.59-.83,9.88a33.39,33.39,0,0,1-3.27,12.37c-.85,1.83,1.69,3.39,2.75,1.6C268.85,440.94,268.48,430.35,266.84,423.43Z" style="fill:#3c3c3b"/><path d="M228,458.74c-3.49-1.14-6.82-2.69-10.26-4a.16.16,0,0,0-.16.27c4.88,4,14.07,10.24,20.76,7.75a1,1,0,0,0,0-2C235.06,459.68,231.42,459.85,228,458.74Z" style="fill:#3c3c3b"/><path d="M223.71,440.59a.2.2,0,0,0-.19.33c2.43,2.25,5.4,3.85,8.16,5.66a33.7,33.7,0,0,1,9.1,9c1.16,1.65,3.79.24,2.76-1.57C239.91,447.6,230.54,442.63,223.71,440.59Z" style="fill:#3c3c3b"/><path d="M234.93,491.8c-2.73,2.45-5.74,4.55-8.56,6.89-.12.1,0,.33.16.27,5.92-2.22,15.91-7,17.1-14.07a1,1,0,0,0-1.72-1C239.27,486.18,237.6,489.42,234.93,491.8Z" style="fill:#3c3c3b"/><path d="M217,486.45a.2.2,0,0,0,.19.34c3.17-1,6-2.75,9-4.23a33.69,33.69,0,0,1,12.36-3.35c2-.18,2.11-3.16,0-3.18C231.22,476,222.22,481.56,217,486.45Z" style="fill:#3c3c3b"/><path d="M267.08,502.35c.75,3.58,1.08,7.24,1.69,10.85a.17.17,0,0,0,.32,0c1-6.24,1.84-17.28-3.65-21.82a1,1,0,0,0-1.71,1C264.37,495.8,266.34,498.86,267.08,502.35Z" style="fill:#3c3c3b"/><path d="M253.48,515.15a.2.2,0,0,0,.38,0c.75-3.23.64-6.58.83-9.88A33.52,33.52,0,0,1,258,492.9c.84-1.83-1.68-3.4-2.75-1.6C251.47,497.64,251.83,508.23,253.48,515.15Z" style="fill:#3c3c3b"/><path d="M292.3,479.84c3.49,1.14,6.82,2.69,10.25,4,.15.05.28-.17.16-.27-4.89-4-14.07-10.24-20.76-7.76a1,1,0,0,0,0,2C285.26,478.9,288.91,478.73,292.3,479.84Z" style="fill:#3c3c3b"/><path d="M296.61,498a.2.2,0,0,0,.19-.34c-2.43-2.26-5.39-3.84-8.16-5.65a33.54,33.54,0,0,1-9.09-9c-1.16-1.65-3.79-.25-2.77,1.57C280.41,491,289.78,496,296.61,498Z" style="fill:#3c3c3b"/><path d="M285.38,446.78c2.74-2.45,5.75-4.55,8.56-6.89a.16.16,0,0,0-.16-.27c-5.92,2.22-15.91,7-17.11,14.06a1,1,0,0,0,1.72,1C281,452.4,282.72,449.16,285.38,446.78Z" style="fill:#3c3c3b"/><path d="M303.29,452.13a.2.2,0,0,0-.19-.34c-3.17,1-6,2.75-9,4.23a33.5,33.5,0,0,1-12.37,3.36c-2,.18-2.11,3.16,0,3.18C289.1,462.62,298.1,457,303.29,452.13Z" style="fill:#3c3c3b"/><path d="M546.92,436.74c0,18-10.88,32.55-24.28,32.55s-24.29-14.57-24.29-32.55c0-9.92,3.31-18.8,8.53-24.76,4.24-4.86,9.74,5.17,15.76,5.17s11.76-9.89,16-4.84C543.73,418.27,546.92,427,546.92,436.74Z" style="fill:#f39200"/><path d="M506.54,432c15.59,9,22.8,25.67,16.1,37.27S497.85,483,482.26,474c-8.6-5-14.65-12.25-17.23-19.75-2.09-6.09,9.36-5.84,12.37-11s-2.7-15.12,3.83-16.29C488.92,425.54,498.1,427.15,506.54,432Z" style="fill:#f39200"/><path d="M482.26,464.57c15.6-9,33.67-6.87,40.38,4.72s-.51,28.28-16.1,37.27c-8.6,5-18,6.53-25.74,5-6.34-1.24-.39-11-3.4-16.21s-14.46-5.23-12.22-11.45C467.82,476.56,473.81,469.44,482.26,464.57Z" style="fill:#f39200"/><path d="M498.35,501.84c0-18,10.87-32.55,24.29-32.55s24.28,14.57,24.28,32.55c0,9.92-3.31,18.79-8.52,24.76-4.24,4.87-9.74-5.17-15.76-5.17s-11.77,9.89-16,4.84C501.54,520.31,498.35,511.57,498.35,501.84Z" style="fill:#f39200"/><path d="M538.73,506.56c-15.59-9-22.8-25.67-16.09-37.27s24.78-13.7,40.38-4.72c8.6,5,14.65,12.25,17.22,19.75,2.09,6.1-9.36,5.84-12.37,11s2.69,15.12-3.83,16.29C556.35,513,547.18,511.42,538.73,506.56Z" style="fill:#f39200"/><path d="M563,474c-15.6,9-33.67,6.87-40.38-4.72s.5-28.28,16.1-37.27c8.6-5,18-6.54,25.74-5,6.34,1.24.39,11,3.4,16.21s14.47,5.23,12.22,11.45C577.45,462,571.45,469.14,563,474Z" style="fill:#f39200"/><ellipse cx="522.64" cy="469.29" rx="20.03" ry="20" style="fill:#f39200"/><ellipse cx="522.64" cy="469.29" rx="9.35" ry="9.33" style="fill:#3c3c3b"/><path d="M515.72,436.23c-.75-3.58-1.07-7.24-1.7-10.85a.16.16,0,0,0-.31,0c-1,6.24-1.85,17.28,3.65,21.82a1,1,0,0,0,1.71-1C518.43,442.78,516.46,439.72,515.72,436.23Z" style="fill:#3c3c3b"/><path d="M529.31,423.43a.2.2,0,0,0-.38,0c-.74,3.23-.63,6.59-.83,9.88a33.58,33.58,0,0,1-3.27,12.37c-.85,1.83,1.68,3.39,2.75,1.6C531.32,440.94,531,430.35,529.31,423.43Z" style="fill:#3c3c3b"/><path d="M490.49,458.74c-3.48-1.14-6.82-2.69-10.26-4a.16.16,0,0,0-.16.27c4.89,4,14.07,10.24,20.76,7.75a1,1,0,0,0,0-2C497.53,459.68,493.89,459.85,490.49,458.74Z" style="fill:#3c3c3b"/><path d="M486.19,440.59a.2.2,0,0,0-.19.33c2.43,2.25,5.4,3.85,8.16,5.66a33.68,33.68,0,0,1,9.09,9c1.16,1.65,3.79.24,2.77-1.57C502.38,447.6,493,442.63,486.19,440.59Z" style="fill:#3c3c3b"/><path d="M497.41,491.8c-2.73,2.45-5.75,4.55-8.56,6.89a.17.17,0,0,0,.16.27c5.93-2.22,15.91-7,17.11-14.07a1,1,0,0,0-1.72-1C501.75,486.18,500.07,489.42,497.41,491.8Z" style="fill:#3c3c3b"/><path d="M479.51,486.45a.2.2,0,0,0,.2.34c3.17-1,6-2.75,9-4.23a33.74,33.74,0,0,1,12.37-3.35c2-.18,2.11-3.16,0-3.18C493.69,476,484.69,481.56,479.51,486.45Z" style="fill:#3c3c3b"/><path d="M529.55,502.35c.76,3.58,1.07,7.24,1.7,10.85a.17.17,0,0,0,.32,0c1-6.24,1.84-17.28-3.66-21.82a1,1,0,0,0-1.71,1C526.84,495.8,528.81,498.86,529.55,502.35Z" style="fill:#3c3c3b"/><path d="M516,515.15a.2.2,0,0,0,.38,0c.74-3.23.64-6.58.83-9.88a33.52,33.52,0,0,1,3.27-12.37c.85-1.83-1.68-3.4-2.74-1.6C513.94,497.64,514.31,508.23,516,515.15Z" style="fill:#3c3c3b"/><path d="M554.77,479.84c3.49,1.14,6.82,2.69,10.26,4a.17.17,0,0,0,.16-.27c-4.89-4-14.07-10.24-20.76-7.76a1,1,0,0,0,0,2C547.73,478.9,551.38,478.73,554.77,479.84Z" style="fill:#3c3c3b"/><path d="M559.09,498a.2.2,0,0,0,.19-.34c-2.43-2.26-5.39-3.84-8.16-5.65a33.68,33.68,0,0,1-9.09-9c-1.16-1.65-3.79-.25-2.76,1.57C542.89,491,552.25,496,559.09,498Z" style="fill:#3c3c3b"/><path d="M547.86,446.78c2.73-2.45,5.74-4.55,8.56-6.89a.17.17,0,0,0-.17-.27c-5.92,2.22-15.91,7-17.1,14.06a1,1,0,0,0,1.72,1C543.52,452.4,545.2,449.16,547.86,446.78Z" style="fill:#3c3c3b"/><path d="M565.76,452.13a.2.2,0,0,0-.19-.34c-3.18,1-6,2.75-9,4.23a33.48,33.48,0,0,1-12.37,3.36c-2,.18-2.11,3.16,0,3.18C551.58,462.62,560.58,457,565.76,452.13Z" style="fill:#3c3c3b"/><path d="M687.6,299.18c-10.49-48.35-32.49-93-65.4-132.68-64.56-77.88-156.6-87.87-229.58-87.87s-165,10-229.58,87.87c-32.9,39.69-54.91,84.33-65.4,132.68A292.18,292.18,0,0,0,101,437.08c15,55.17,12.46,78.73,10.18,83.27l-.37.84c-.49,1.41-11.8,34.69,5.39,64.9,8.15,14.33,21.18,25.39,38.88,33.1,2,8.42,8.84,14.73,14.71,21,.07.07.2,0,.14-.11-2.56-3.31-4.29-7.29-6.27-11a23.42,23.42,0,0,1-2.36-7.41,149.51,149.51,0,0,0,22.2,6.21c77.05,15.61,72.51,52.4,68.87,82-.53,4.26-1,8.29-1.21,12l-.35,7.11,141.79,1h0l141.8-1-.35-7.11c-.19-3.7-.68-7.73-1.21-12-3.64-29.56-8.18-66.36,68.88-82,32.63-6.61,55.27-20.68,67.31-41.83,17.22-30.27,5.88-63.5,5.39-64.9l-.39-.89c-2.24-4.44-4.78-28.05,10.19-83.22A292.22,292.22,0,0,0,687.6,299.18ZM671.07,433.52c-17.83,65.71-11.88,87.21-9.4,92.52,1.22,3.82,8.77,30-4.49,53.32C651.67,589,643.24,597,632,603.12a82.17,82.17,0,0,1-10.15,3c-11.62,2.55-23.66,2.1-35.46,2.65-21.5,1-37.58,5.92-55.57,17.8-.1.07,0,.25.09.2a195.31,195.31,0,0,1,30-9.68c10.11-2.21,20.68-1.3,31-1-34.8,8.14-56.86,22-67.31,42.15-9.59,18.5-7.21,37.79-5.3,53.29l0,.32.43,3.6-127.15.86-127.19-.86q.23-1.89.48-3.92c1.91-15.5,4.29-34.79-5.3-53.29-9.21-17.77-27.43-30.6-55.4-39,16.43.12,33.42.73,47.86,9.09a.16.16,0,0,0,.2-.25c-10.2-11.15-29-15.19-43.29-17.47-11.11-1.78-22.54-.53-33.67-2.47-9.34-1.63-18-5.47-27.2-7.47-9.18-5.76-16.22-12.86-21-21.29-13.25-23.22-5.73-49.54-4.51-53.39,2.48-5.32,8.42-26.84-9.4-92.51A278.48,278.48,0,0,1,111,302.07c10-46.19,31.07-88.88,62.57-126.88C232.21,104.46,316,93.08,384.64,92.32c.15,0,.29,0,.45-.07-.43,16.67.1,33.41.24,50.07.15,17.7-1.26,36.75,2.72,54.15-7.6,7.5-13.62-4.45-17.52-10.63-4.43-7-8-14.55-11.61-22-10.67-22.17-33.43-35-56.88-39-29-4.89-91.28,5.35-83.8,45.76.1.52.88.38.89-.12.25-23.63,23.39-34.27,43.36-38.39,22.88-4.72,49.27-.28,68.52,13,18,12.4,22.8,34.25,34.29,51.51,4.86,7.3,14.44,14.87,21.38,12.53-.38,8.44.26,17.09.22,25.35a240.11,240.11,0,0,0,1.51,28.3c-6.34-1.35-11.83-3.07-17.51-9.12-7.95-8.46-12.75-20.41-17-31-8-19.63-13.09-42.83-29.63-57.32-17.79-15.57-57.63-25.89-73.68-1.93-5.5,8.21-7.15,18.52-2,27.32,3.82,6.48,11.05,4.52,14-1.27A.39.39,0,0,0,262,189c-8.13,3.59-10-3-10.06-9.56,0-8.53,5.53-14.61,12.46-18.77,13.49-8.09,31.93-3.46,44.54,3.82,17.36,10,23.37,29.74,29.89,47.4,5.81,15.75,11.39,32.75,22.26,45.87,6.47,7.82,17.6,16,28.43,15.73,0,.45,0,.9-.07,1.35-15,9.81-30.72-.08-40.67-13.14-8.6-11.28-8.94-26.12-12.33-39.36-4.43-17.28-18.24-28-35.7-30-14.29-1.63-24.74,12.85-16.86,25.44,4.75,7.59,24,11.65,23.15-1.4,0-.12-.18-.19-.24-.07-6.4,11.8-22.61.81-20.84-10.11,1.85-11.39,15-9.83,23-7.3,20.48,6.49,22.59,26.39,25.84,44.72,2.79,15.73,11.88,28.1,25.15,36.75,10.08,6.56,23.17,7.85,31.54-.38,8.38,8.22,21.48,6.94,31.55.38,13.28-8.66,22.36-21,25.15-36.75,3.25-18.34,5.36-38.24,25.84-44.72,8-2.52,21.14-4.09,23,7.3,1.77,10.92-14.43,21.91-20.84,10.11-.06-.12-.23-.06-.24.07-.86,13.05,18.41,9,23.15,1.4,7.89-12.59-2.56-27.08-16.86-25.44-17.46,2-31.28,12.76-35.7,30-3.39,13.24-3.74,28.08-12.33,39.36-9.94,13.06-25.71,22.95-40.66,13.14,0-.45,0-.9-.08-1.35,10.84.26,22-7.91,28.44-15.73,10.87-13.12,16.45-30.12,22.26-45.87,6.52-17.66,12.53-37.38,29.88-47.4,12.61-7.28,31-11.92,44.54-3.82,6.93,4.16,12.49,10.24,12.46,18.77,0,6.52-1.93,13.15-10.07,9.56a.39.39,0,0,0-.53.53c2.94,5.79,10.18,7.75,14,1.27,5.17-8.8,3.52-19.1-2-27.32-16-24-55.89-13.64-73.68,1.93-16.55,14.49-21.65,37.68-29.64,57.32-4.3,10.59-9.1,22.53-17,31-6.18,6.58-12.11,8-19.18,9.47,0-.56,0-1.13,0-1.68A212.4,212.4,0,0,0,394.79,239c.25-9.71,1.39-20,1-30,7,3,16.94-4.83,21.94-12.33C429.21,179.37,434,157.52,452,145.12c19.26-13.29,45.65-17.72,68.53-13,20,4.12,43.11,14.77,43.36,38.39,0,.5.79.64.88.12,7.47-40.41-54.84-50.65-83.8-45.76-23.45,4-46.22,16.78-56.88,39a218.15,218.15,0,0,1-11.6,22c-3.86,6.12-9.82,17.89-17.32,10.81,3.77-16,3.12-33.39,3.78-49.72.74-18.3,2-36.73,1.61-55.07.54.14,1.08.3,1.6.49,68.31.91,151.32,12.65,209.52,82.85,31.5,38,52.55,80.69,62.57,126.88A278.48,278.48,0,0,1,671.07,433.52Z" style="fill:#3c3c3b"/><path d="M385.2,298.8c-1,7.16-.26,12.7,1.22,19.68s2.66,14.31,4.78,21a.88.88,0,0,0,1.69,0c1.81-6,2-12.33,3.53-18.41s3.17-11.88,4-18.09C401.84,293.07,386.67,288.74,385.2,298.8Z" style="fill:#3c3c3b"/><path d="M269.8,713.49s-1.08-11.82-7.36-14-9.66,3.15-9.2,15.35,1.84,20.7,12.88,22S269.8,713.49,269.8,713.49Z" style="fill:#f9efe1"/><path d="M266.92,738.87h0a9.45,9.45,0,0,1-1-.06c-12.82-1.46-14.25-11.7-14.71-23.94-.29-7.73.91-13.05,3.57-15.81,2.08-2.16,5.06-2.73,8.38-1.56,7,2.48,8.49,13.52,8.71,15.59.73,2.48,4.81,17.28.4,23.18A6.39,6.39,0,0,1,266.92,738.87ZM259.86,701a2.77,2.77,0,0,0-2.12.9c-1,1.08-2.75,4.18-2.42,12.79.49,13,2.2,19,11,20a4.8,4.8,0,0,0,.56,0h0a2.27,2.27,0,0,0,2-.93c2.5-3.35.65-13.88-1.11-19.73l-.08-.4c-.27-2.93-1.88-10.83-6-12.28A5.74,5.74,0,0,0,259.86,701Z" style="fill:#3c3c3b"/><path d="M392.6,729.29s.39,7.81-6.43,7.81h-27.6s-7.82,0-5.51-12.87,8.23-33,19.76-33C393,691.18,392.6,729.29,392.6,729.29Z" style="fill:#f9efe1"/><path d="M386.16,739.16h-27.6a7.75,7.75,0,0,1-5.65-2.83c-2.26-2.7-2.9-6.9-1.91-12.47,1.87-10.45,7.74-34.75,21.8-34.75A15.87,15.87,0,0,1,384.43,694c10.37,10.46,10.25,34.28,10.24,35.28,0,.35.15,4.63-2.58,7.49A8,8,0,0,1,386.16,739.16Zm-13.35-45.91c-8.94,0-15,16.19-17.72,31.35-.76,4.25-.41,7.39,1,9.09a3.74,3.74,0,0,0,2.47,1.35h27.6a3.82,3.82,0,0,0,2.93-1.09,7.07,7.07,0,0,0,1.43-4.56c0-.35.11-23.22-9-32.46A11.7,11.7,0,0,0,372.81,693.25Z" style="fill:#3c3c3b"/><path d="M328.53,714.14s1.07-14.23-9.06-23-13.33,7.34-13.33,13.77-1.38,28.46,2.76,32.14S327.92,737.1,328.53,714.14Z" style="fill:#f9efe1"/><path d="M312.77,740.39h0a7.85,7.85,0,0,1-5.25-1.75c-3.5-3.1-3.94-13.16-3.53-29.48,0-1.71.08-3.16.08-4.2,0-4.77,1.84-18.38,10-18.38,2.13,0,4.4,1,6.74,3,10.79,9.29,9.81,24,9.77,24.67C330.05,734.92,318.69,740.39,312.77,740.39Zm1.32-49.68c-3.59,0-5.88,8.44-5.88,14.25,0,1.06,0,2.54-.08,4.3-.16,6.53-.6,23.85,2.15,26.29a3.93,3.93,0,0,0,2.5.71h0c5.27,0,13.26-5.91,13.69-22.18,0-.23.84-13.43-8.34-21.34C316.58,691.42,315.18,690.71,314.08,690.71Z" style="fill:#3c3c3b"/><path d="M354.63,716.83s3.93-23.36-4.35-28.86-27.59,28.92-24.37,45C325.91,733,352.08,748.45,354.63,716.83Z" style="fill:#f9efe1"/><path d="M339.1,738.82h0c-7.27,0-14-3.91-14.25-4.08l-.79-.47-.18-.9c-2.27-11.32,5.67-30.8,14.21-41.21,3.73-4.54,7.17-6.85,10.22-6.85a5.51,5.51,0,0,1,3.12.94c9,6,5.74,27.92,5.26,30.83C355.21,735,346.32,738.82,339.1,738.82Zm-11.32-7.2a26.9,26.9,0,0,0,11.32,3.07c8,0,12.51-6.07,13.47-18l0-.17c1.43-8.52,1.75-23.34-3.46-26.81a1.41,1.41,0,0,0-.82-.24c-.62,0-3,.38-7,5.33C333.6,704.15,326.41,721.55,327.78,731.62Z" style="fill:#3c3c3b"/><path d="M305.91,713.49l-6.68-14s-6.9-7.81-7.82,1.83-4.14,22.95-4.14,22.95S284.52,733,292.8,733,307.08,736.25,305.91,713.49Z" style="fill:#f9efe1"/><path d="M298,735.2h0c-.79,0-1.61,0-2.47-.08s-1.77-.08-2.7-.08c-3.73,0-5.65-1.56-6.61-2.86-2.35-3.2-1.15-7.69-.91-8.49a199.94,199.94,0,0,0,4.08-22.6c.56-5.82,3.38-6.69,5-6.69,3,0,5.87,3.07,6.42,3.68l.19.22L308,713l0,.41c.55,10.7-.4,16.5-3.18,19.42C302.79,734.91,300.22,735.2,298,735.2Zm-3.59-36.67s-.66.46-.89,3a203.58,203.58,0,0,1-4.19,23.24l0,.13c-.25.82-.75,3.5.28,4.88.57.77,1.66,1.16,3.26,1.16,1,0,2,0,2.9.09s1.55.07,2.27.07h0c2,0,3.08-.31,3.83-1.1,1.81-1.91,2.49-7.13,2.07-16l-6.37-13.39C296.53,699.6,295.08,698.53,294.37,698.53Z" style="fill:#3c3c3b"/><path d="M289.32,714.8s-3.42-8.46-8.94-13.05S270.26,700,269.8,713.49s.58,20.93,9.76,19.64S288.18,721.13,289.32,714.8Z" style="fill:#f9efe1"/><path d="M277.64,735.34h0a8.65,8.65,0,0,1-6.47-2.49c-3.31-3.41-3.76-9.71-3.43-19.43.44-13.05,4.67-15.78,8.14-15.78a9.29,9.29,0,0,1,5.82,2.52c5.85,4.87,9.39,13.5,9.53,13.87l.23.55-.11.59c-.18,1-.32,2.18-.47,3.42-.73,6.09-1.84,15.3-11,16.59A15.66,15.66,0,0,1,277.64,735.34Zm-1.76-33.58c-1.66,0-3.71,3.09-4,11.79-.28,8.17,0,14.08,2.27,16.43a4.42,4.42,0,0,0,3.49,1.22h0a12.5,12.5,0,0,0,1.64-.12c5.61-.79,6.65-5.88,7.5-13,.13-1.07.25-2.09.4-3-.82-1.84-3.83-8.15-8.12-11.72A5.63,5.63,0,0,0,275.88,701.76Z" style="fill:#3c3c3b"/><path d="M515.46,713.49s1.08-11.82,7.36-14,9.66,3.15,9.2,15.35-1.84,20.7-12.88,22S515.46,713.49,515.46,713.49Z" style="fill:#f9efe1"/><path d="M518.34,738.87a6.39,6.39,0,0,1-5.33-2.59c-4.4-5.91-.33-20.7.4-23.18.21-2.07,1.68-13.11,8.71-15.59,3.32-1.17,6.3-.59,8.38,1.56,2.66,2.77,3.86,8.08,3.57,15.81-.46,12.23-1.88,22.47-14.71,23.94A9.54,9.54,0,0,1,518.34,738.87ZM525.4,701a5.74,5.74,0,0,0-1.89.37c-4.11,1.44-5.74,9.55-6,12.28l-.08.4c-1.75,5.85-3.6,16.38-1.11,19.73a2.53,2.53,0,0,0,2.57.89c8.84-1,10.55-7,11-20,.33-8.61-1.38-11.71-2.42-12.79A2.78,2.78,0,0,0,525.4,701Z" style="fill:#3c3c3b"/><path d="M392.66,729.29s-.39,7.81,6.44,7.81h27.6s7.82,0,5.52-12.87-8.23-33-19.76-33C392.27,691.18,392.66,729.29,392.66,729.29Z" style="fill:#f9efe1"/><path d="M426.7,739.16H399.1a8,8,0,0,1-5.93-2.36c-2.73-2.86-2.6-7.14-2.58-7.61,0-.88-.13-24.7,10.24-35.16a15.89,15.89,0,0,1,11.63-4.91c14.05,0,19.92,24.3,21.8,34.75,1,5.57.36,9.76-1.91,12.47A7.74,7.74,0,0,1,426.7,739.16Zm-14.25-45.91a11.72,11.72,0,0,0-8.68,3.68c-9.16,9.23-9,32.1-9,32.33,0,.94.16,3.36,1.44,4.7A3.86,3.86,0,0,0,399.1,735h27.57a3.74,3.74,0,0,0,2.55-1.41c1.38-1.71,1.71-4.84,1-9C427.47,709.44,421.38,693.25,412.45,693.25Z" style="fill:#3c3c3b"/><path d="M456.73,714.14s-1.06-14.23,9.06-23,13.33,7.34,13.33,13.77,1.38,28.46-2.76,32.14S457.34,737.1,456.73,714.14Z" style="fill:#f9efe1"/><path d="M472.49,740.39c-5.93,0-17.29-5.48-17.83-26.2,0-.52-1-15.28,9.77-24.57,2.34-2,4.61-3,6.74-3,8.18,0,10,13.61,10,18.38,0,1,0,2.48.08,4.2.41,16.32,0,26.38-3.53,29.48A7.85,7.85,0,0,1,472.49,740.39Zm-1.32-49.68c-1.1,0-2.49.7-4,2-9.18,7.91-8.35,21.11-8.34,21.24.44,16.37,8.43,22.27,13.7,22.27a3.93,3.93,0,0,0,2.5-.71c2.74-2.44,2.31-19.76,2.15-26.29,0-1.76-.08-3.24-.08-4.3C477.06,699.15,474.77,690.71,471.18,690.71Z" style="fill:#3c3c3b"/><path d="M430.63,716.83S426.7,693.48,435,688s27.59,28.92,24.37,45C459.35,733,433.18,748.45,430.63,716.83Z" style="fill:#f9efe1"/><path d="M446.16,738.82c-7.21,0-16.11-3.77-17.59-21.74-.48-2.91-3.78-24.82,5.25-30.83a5.51,5.51,0,0,1,3.12-.94c3.05,0,6.49,2.31,10.22,6.85,8.54,10.4,16.48,29.89,14.21,41.21l-.18.9-.8.47C460.12,734.91,453.42,738.82,446.16,738.82Zm-9.21-49.38a1.41,1.41,0,0,0-.82.24c-5.21,3.47-4.88,18.28-3.46,26.81l0,.17c1,12,5.5,18,13.47,18a26.77,26.77,0,0,0,11.32-3.07c1.38-10.07-5.81-27.47-13.51-36.85C439.9,689.83,437.57,689.44,436.95,689.44Z" style="fill:#3c3c3b"/><path d="M479.34,713.49l6.68-14s6.9-7.81,7.82,1.83S498,724.23,498,724.23s2.76,8.73-5.52,8.73S478.19,736.25,479.34,713.49Z" style="fill:#f9efe1"/><path d="M487.29,735.2c-2.25,0-4.83-.28-6.84-2.39-2.78-2.92-3.72-8.73-3.18-19.42l0-.41,7-14.67.2-.22c.54-.61,3.4-3.68,6.41-3.68,1.63,0,4.45.87,5,6.69a201,201,0,0,0,4.07,22.6c.24.8,1.44,5.29-.91,8.49-1,1.3-2.88,2.86-6.61,2.86-.93,0-1.83,0-2.7.08S488.08,735.2,487.29,735.2ZM481.39,714c-.42,8.83.25,14,2.07,16,.76.79,1.83,1.1,3.83,1.1.72,0,1.48,0,2.27-.07s1.9-.09,2.9-.09c1.6,0,2.7-.39,3.27-1.17,1.05-1.43.49-4.21.27-4.88l0-.13a202.81,202.81,0,0,1-4.19-23.24c-.24-2.49-.85-2.94-.85-2.94-.78,0-2.29,1.15-3.17,2.08Z" style="fill:#3c3c3b"/><path d="M495.94,714.8s3.42-8.46,8.94-13.05S515,700,515.46,713.49s-.58,20.93-9.76,19.64S497.08,721.13,495.94,714.8Z" style="fill:#f9efe1"/><path d="M507.62,735.34a15.74,15.74,0,0,1-2.21-.17c-9.19-1.29-10.3-10.5-11-16.59-.15-1.24-.29-2.41-.47-3.42l-.1-.59L494,714c.15-.37,3.68-9,9.53-13.87a9.31,9.31,0,0,1,5.83-2.52c3.47,0,7.7,2.73,8.14,15.78.33,9.72-.12,16-3.43,19.43A8.61,8.61,0,0,1,507.62,735.34Zm-9.54-20.29c.15,1,.28,2,.4,3,.86,7.11,1.9,12.2,7.5,13a12.54,12.54,0,0,0,1.64.12,4.44,4.44,0,0,0,3.5-1.22c2.27-2.34,2.54-8.26,2.27-16.43-.3-8.7-2.35-11.79-4-11.79a5.66,5.66,0,0,0-3.18,1.57C501.91,706.9,498.9,713.21,498.08,715.05Z" style="fill:#3c3c3b"/><path d="M362.93,645.46c-20.95,7.52-37,22.15-60,24.94-14.28,1.74-29.92-3.85-31.93-19.87-1.57-12.51,9.78-29.44,23.62-23,6.2,2.88,17.63,19.59,4.13,19.35-7-.12-13.6-3.75-3.52-7.24.46-.16.41-.91-.12-.89-3.56.16-12.37,1.15-9.23,6.89,2.77,5,11.82,5.87,16.73,5.2,17.43-2.39-3.61-38.61-23-28.89-11.31,5.66-18.84,19.46-15.82,32.12,3.87,16.22,17.6,23.74,33.42,24.16,16.52.45,32.37-6.91,46.5-14.61,7.69-4.19,15.05-8.92,23.33-11.92,11.91-4.32,15.27,3.53,19.67,13a1.62,1.62,0,0,0,2.94-.38C392.24,646.38,378.1,640,362.93,645.46Z" style="fill:#3c3c3b"/><path d="M417.71,645.46c20.95,7.52,37,22.15,60,24.94,14.28,1.74,29.92-3.85,31.93-19.87,1.58-12.51-9.77-29.44-23.62-23-6.2,2.88-17.63,19.59-4.14,19.35,7-.12,13.6-3.75,3.52-7.24-.46-.16-.41-.91.12-.89,3.56.16,12.37,1.15,9.22,6.89-2.77,5-11.82,5.87-16.73,5.2-17.43-2.39,3.61-38.61,23-28.89,11.32,5.66,18.84,19.46,15.83,32.12-3.86,16.22-17.6,23.74-33.42,24.16-16.52.45-32.37-6.91-46.5-14.61-7.69-4.19-15.06-8.92-23.33-11.92-11.92-4.32-15.27,3.53-19.67,13a1.62,1.62,0,0,1-2.94-.38C388.41,646.38,402.55,640,417.71,645.46Z" style="fill:#3c3c3b"/><path d="M282.25,255.64c-2.21,1-5.09.74-7.42,1.09A66.1,66.1,0,0,0,264.26,259c-3.46,1.12-7.53,2.53-10.08,5.27s-2.59,5.6-2.75,9.22a1.37,1.37,0,0,1-.37.86c1.73.94,3.46,1.88,5.21,2.79l1.43.74c5.71-1.38,10.62-3.4,15.13-7.79A39.36,39.36,0,0,0,282.25,255.64Z" style="fill:#3aaa61"/><path d="M250.88,283.85c-.82-.4-1.66-.77-2.47-1.17-.74,15.93,3.53,35.09,19.56,40.47C273.51,308.55,263.1,292.82,250.88,283.85Z" style="fill:#3aaa61"/><path d="M253.58,238.7c-5.93.62-12.36-.34-18.14,0-8.65.58-17.47,3.08-23.81,9,2.47,2.21,5,4.29,7.64,6.32,7.71.87,15.32.27,22.31-3.87C246.79,247.13,249.92,242.82,253.58,238.7Z" style="fill:#3aaa61"/><path d="M162.59,253.51c-.43,10.45,4.2,18.66,5.68,28.27,16-11.31,17-39.13,11.22-56.7C169.64,231.64,163.11,240.76,162.59,253.51Z" style="fill:#3aaa61"/><path d="M311.75,288.3c3.85-3.85,5.61-8.17,7.56-12.82-3.27,2.7-10.44,4.09-13.08,5.16-7.17,2.93-13.64,6.69-13.92,14.46A23.79,23.79,0,0,0,311.75,288.3Z" style="fill:#3aaa61"/><path d="M238.78,214.79c-18.11-11.28-36.16-17-53-.67,1.13,2.27,2.34,4.49,3.62,6.69C206,229,222.34,220.92,238.78,214.79Z" style="fill:#3aaa61"/><path d="M203.31,270.43a39.26,39.26,0,0,0,0,16.71c1.47,6,3.68,12.67,8.22,17.12a77.19,77.19,0,0,0,6.19,5c10-14.95.08-33.77-10-47.42C205.82,264.39,204,266.9,203.31,270.43Z" style="fill:#3aaa61"/><path d="M354.9,347.28c.87,5.15.84,10.39,1.89,15.49A23.09,23.09,0,0,0,364.66,376c.4-1.88,1.13-3.61,1.09-5.68a23.61,23.61,0,0,0-2.42-10.42A78.55,78.55,0,0,0,354.9,347.28Z" style="fill:#3aaa61"/><path d="M294.74,303.11,289.83,301c2.48,6.53,1.24,14.18,4.5,20.82A29.3,29.3,0,0,0,309,336.3c4.49-8.34-2.94-24-10-31.3C297.56,304.37,296.16,303.72,294.74,303.11Z" style="fill:#3aaa61"/><path d="M333.3,321.32c9.08.08,15.43-4.89,20.56-12-7.39.68-22.32,1.93-21.2,11.49Z" style="fill:#3aaa61"/><path d="M333.27,326.72c-1.52,3.85-3.07,7.89-2.75,12.06a31.93,31.93,0,0,0,4.39,13.27,1.16,1.16,0,0,1,.15.45c3.81-3.57,5.79-8.11,4.7-13.6C338.73,333.74,336.17,330.61,333.27,326.72Z" style="fill:#3aaa61"/><path d="M368,362.25c-2.69-6.55-8-11.42-13.27-15.84,0-.13,0-.26-.06-.39a1.07,1.07,0,0,0-1.21-.81c-3.15-7.2-8.53-13.59-14.76-19.26,8.64-.58,15.64-9.36,19.39-17.19a1.62,1.62,0,0,0-1.07-2.33,1.75,1.75,0,0,0-1.35-1.21c-5.81-1.42-13.18,1.67-18.28,4.22-3.92,2-7,5.24-7.54,9.24-5.07-3.79-10.28-7.18-15.07-10.19-4.56-2.88-9.23-5.59-14-8.22a22.69,22.69,0,0,0,11.25-4.88c6.16-5,14-14.79,10.07-23.12a.87.87,0,0,0-1.39-.13.91.91,0,0,0-.38-.38c-2.79-1.27-6.35,1.45-8.9,2.47a107.29,107.29,0,0,0-13,5.77c-5.71,3.2-9.58,8.29-8.73,14.26-8.67-4.54-17.45-8.88-26.15-13.32,10-2.43,16.86-12.88,20.36-23a12.27,12.27,0,0,0-.61-5.26,1.19,1.19,0,0,1,0,.14c-.1-.09-.17-.22-.31-.28-3.13-1.35-7.28-.11-10.57.39a53.15,53.15,0,0,0-13.55,3.63c-6.34,2.8-13,9-10.54,16.31a244.35,244.35,0,0,1-22-13.56,26.54,26.54,0,0,0,14.16-2.22c7.53-3.44,16.42-11.65,18.86-20a2.08,2.08,0,0,0,.4-1.65v0a1.11,1.11,0,0,0-1.28-1.35l-.06,0c-8.74-2.13-19.75-.68-28.53,1s-14.34,5.83-18.92,12.16c-2.31-2.09-4.58-4.25-6.75-6.52a103.83,103.83,0,0,1-11.71-14.87c16.94,8,36.3-2.07,53.42-9a2.18,2.18,0,0,0,.43-.27,9,9,0,0,0-.48-.95c-.51-.85-1-1.68-1.49-2.53l-.11-.13-.44-.52a.57.57,0,0,1,0-.08c-14-12.93-50.73-23.06-58.85.15a127.84,127.84,0,0,1-11.71-43.16c-.38-4.09-7.07-5.77-7.76-1.05-2.54,17.28,3.45,35.23,12.1,50.95a2.25,2.25,0,0,0,.16,1.24l.07.17c-11,4.43-18.22,15.33-20.47,26.79-2,10.16-.42,28.84,9.49,35.32l-.08,0a14,14,0,0,0,3.62,1c9.53-4.62,13.62-18.67,15.72-28a81.87,81.87,0,0,0,2.07-20A117,117,0,0,0,203.68,253l-.08.08a1.39,1.39,0,0,1-.18,2.41,1.76,1.76,0,0,0-.52.29,1.65,1.65,0,0,1-.16.07c-8.31,6.23-9,22.38-7.68,31.05,1.36,8.89,10,27.26,21.45,27.26a1.21,1.21,0,0,0,1.25-.08,11.27,11.27,0,0,0,2.68-.65.79.79,0,0,0,.35-1.3c-.11-.12-.23-.22-.35-.33,11.38-11.61,5.44-34.77-5-49a193.78,193.78,0,0,0,16.48,11c3.66,2.19,7.39,4.23,11.17,6.21-6.2,15.44,9,49.57,23.23,46.93a14.31,14.31,0,0,0,4.17-3l-.18-.05c6.88-9.8,1-23.73-7.48-34.4,8.19,3.66,16.47,7.14,24.72,10.62-6.22,6.28-1,19.87,2.36,26.32,3.63,7,10,13,17.8,12.5a.41.41,0,0,0,.51.14c.15-.06.28-.14.41-.21a13.16,13.16,0,0,0,2.49-1.8c5.8-6.14-.09-20.22-6.62-29.45a189.37,189.37,0,0,1,22.61,12.62c1.05.69,2,1.43,3,2.17,0,0,0,.07,0,.1a.07.07,0,0,0,0,0,1.66,1.66,0,0,1,.43,1.41s0,.09.09.12-.14.22-.22.32a1.36,1.36,0,0,1-.27.41C324,334,324.32,346,333.24,353.33a1.1,1.1,0,0,0,.58.24l-.22.19a0,0,0,0,0,0,0s0,0,.08,0a4.14,4.14,0,0,0,2.51.54c7.82-2,8.72-13,5.42-21.24,3.69,4.13,7.15,8.48,10.91,12.85v0c-2.65,12.48-2.41,32.78,14.08,34.24a6.23,6.23,0,0,0,.62-.38l.37-.24a3.52,3.52,0,0,0,.4-.42.91.91,0,0,0,0-.23C371.52,374.39,370.14,367.34,368,362.25ZM168.27,281.78c-1.48-9.61-6.11-17.81-5.68-28.27.52-12.75,7.05-21.87,16.9-28.43C185.31,242.65,184.31,270.47,168.27,281.78Zm17.46-67.65c16.89-16.38,34.94-10.61,53,.67-16.45,6.13-32.82,14.24-49.43,6C188.08,218.62,186.86,216.4,185.73,214.13Zm31.94,95.16a77.19,77.19,0,0,1-6.19-5c-4.53-4.45-6.75-11.13-8.22-17.12a39.26,39.26,0,0,1,0-16.71c.68-3.53,2.5-6,4.38-8.56C217.74,275.52,227.69,294.35,217.67,309.29Zm1.59-55.19c-2.6-2-5.17-4.11-7.64-6.32,6.35-6,15.16-8.46,23.81-9,5.79-.38,12.22.58,18.14,0-3.65,4.12-6.79,8.43-12,11.53C234.58,254.38,227,255,219.26,254.11Zm48.71,69c-16-5.39-20.29-24.55-19.56-40.47.81.41,1.65.78,2.47,1.17C263.1,292.82,273.51,308.55,268,323.14ZM257.7,277.89l-1.43-.74c-1.75-.91-3.48-1.86-5.21-2.79a1.37,1.37,0,0,0,.37-.86c.16-3.62.1-6.38,2.75-9.22s6.63-4.15,10.08-5.27a66.1,66.1,0,0,1,10.57-2.27c2.33-.35,5.21-.12,7.42-1.09a39.36,39.36,0,0,1-9.41,14.46C268.32,274.49,263.41,276.5,257.7,277.89Zm48.53,2.76c2.64-1.07,9.81-2.46,13.08-5.16-1.94,4.65-3.7,9-7.56,12.82a23.79,23.79,0,0,1-19.44,6.8C292.59,287.33,299.06,283.57,306.23,280.64ZM309,336.3a29.3,29.3,0,0,1-14.65-14.46c-3.26-6.64-2-14.3-4.5-20.82l4.92,2.09c1.42.61,2.81,1.26,4.22,1.89C306,312.28,313.47,328,309,336.3Zm44.88-27c-5.12,7.12-11.48,12.1-20.56,12l-.64-.52C331.54,311.24,346.47,310,353.86,309.31ZM335,352.51a1.16,1.16,0,0,0-.15-.45,31.93,31.93,0,0,1-4.39-13.27c-.32-4.17,1.23-8.21,2.75-12.06,2.91,3.89,5.46,7,6.48,12.18C340.83,344.4,338.86,348.94,335,352.51ZM364.66,376a23.09,23.09,0,0,1-7.87-13.22c-1-5.1-1-10.34-1.89-15.49a78.55,78.55,0,0,1,8.43,12.62,23.61,23.61,0,0,1,2.42,10.42C365.79,372.38,365.07,374.12,364.66,376Z" style="fill:#3c3c3b"/><path d="M500.58,255.64c2.21,1,5.09.74,7.42,1.09A65.91,65.91,0,0,1,518.56,259c3.46,1.12,7.54,2.53,10.09,5.27s2.58,5.6,2.74,9.22a1.35,1.35,0,0,0,.38.86c-1.73.94-3.46,1.88-5.21,2.79l-1.44.74c-5.71-1.38-10.61-3.4-15.13-7.79A39.31,39.31,0,0,1,500.58,255.64Z" style="fill:#3aaa61"/><path d="M532,283.85c.82-.4,1.65-.77,2.47-1.17.73,15.93-3.54,35.09-19.56,40.47C509.32,308.55,519.73,292.82,532,283.85Z" style="fill:#3aaa61"/><path d="M529.25,238.7c5.93.62,12.36-.34,18.15,0,8.65.58,17.46,3.08,23.81,9-2.47,2.21-5,4.29-7.63,6.32-7.71.87-15.32.27-22.31-3.87C536,247.13,532.91,242.82,529.25,238.7Z" style="fill:#3aaa61"/><path d="M620.24,253.51c.43,10.45-4.2,18.66-5.68,28.27-16-11.31-17-39.13-11.22-56.7C613.19,231.64,619.71,240.76,620.24,253.51Z" style="fill:#3aaa61"/><path d="M471.08,288.3c-3.85-3.85-5.61-8.17-7.56-12.82,3.26,2.7,10.44,4.09,13.08,5.16,7.17,2.93,13.64,6.69,13.92,14.46A23.78,23.78,0,0,1,471.08,288.3Z" style="fill:#3aaa61"/><path d="M544,214.79c18.11-11.28,36.16-17,53-.67-1.13,2.27-2.34,4.49-3.62,6.69C576.86,229,560.49,220.92,544,214.79Z" style="fill:#3aaa61"/><path d="M579.51,270.43a39.32,39.32,0,0,1,.05,16.71c-1.47,6-3.69,12.67-8.22,17.12a76.62,76.62,0,0,1-6.19,5c-10-14.95-.08-33.77,10-47.42C577,264.39,578.83,266.9,579.51,270.43Z" style="fill:#3aaa61"/><path d="M427.92,347.28c-.87,5.15-.85,10.39-1.89,15.49A23.08,23.08,0,0,1,418.16,376c-.4-1.88-1.13-3.61-1.09-5.68a23.7,23.7,0,0,1,2.42-10.42A79,79,0,0,1,427.92,347.28Z" style="fill:#3aaa61"/><path d="M488.08,303.11,493,301c-2.49,6.53-1.24,14.18-4.5,20.82a29.29,29.29,0,0,1-14.65,14.46c-4.49-8.34,2.95-24,10-31.3C485.27,304.37,486.66,303.72,488.08,303.11Z" style="fill:#3aaa61"/><path d="M449.52,321.32c-9.08.08-15.43-4.89-20.55-12,7.38.68,22.31,1.93,21.19,11.49Z" style="fill:#3aaa61"/><path d="M449.56,326.72c1.53,3.85,3.08,7.89,2.76,12.06a31.89,31.89,0,0,1-4.39,13.27,1.09,1.09,0,0,0-.14.45c-3.81-3.57-5.79-8.11-4.7-13.6C444.1,333.74,446.65,330.61,449.56,326.72Z" style="fill:#3aaa61"/><path d="M414.88,379a1.09,1.09,0,0,0,0,.23,3.26,3.26,0,0,0,.4.42l.38.24a5.56,5.56,0,0,0,.62.38c16.49-1.46,16.73-21.76,14.07-34.24a0,0,0,0,0,0,0c3.76-4.38,7.22-8.74,10.91-12.86-3.29,8.2-2.4,19.24,5.42,21.24a4.13,4.13,0,0,0,2.5-.54l.09,0,0,0-.22-.19a1.09,1.09,0,0,0,.57-.24c8.93-7.3,9.2-19.35,3.05-28.57a1.42,1.42,0,0,1-.27-.41l-.21-.32s0-.09.08-.12a1.6,1.6,0,0,1,.43-1.39.26.26,0,0,0,0-.07.83.83,0,0,1,0-.1c1-.74,1.94-1.48,3-2.17a189.62,189.62,0,0,1,22.61-12.62c-6.53,9.23-12.43,23.31-6.62,29.45a13.24,13.24,0,0,0,2.49,1.8,4.52,4.52,0,0,0,.42.21.4.4,0,0,0,.5-.14c7.78.51,14.17-5.46,17.81-12.5,3.33-6.44,8.58-20,2.37-26.32,8.25-3.49,16.52-7,24.71-10.62-8.44,10.67-14.35,24.59-7.48,34.4l-.18.05a14.37,14.37,0,0,0,4.17,3c14.23,2.63,29.43-31.49,23.23-46.93,3.77-2,7.51-4,11.16-6.21a194.3,194.3,0,0,0,16.48-11c-10.41,14.26-16.36,37.41-5,49-.11.12-.24.21-.34.33a.79.79,0,0,0,.34,1.3,11.28,11.28,0,0,0,2.68.65,1.21,1.21,0,0,0,1.25.08c11.4,0,20.1-18.37,21.45-27.26,1.32-8.67.63-24.83-7.68-31.05a1.75,1.75,0,0,1-.17-.07,1.68,1.68,0,0,0-.52-.29,1.39,1.39,0,0,1-.18-2.41s0-.06-.08-.08a116.64,116.64,0,0,0,15.56-17.14,82,82,0,0,0,2.08,20c2.1,9.32,6.19,23.38,15.72,28a14,14,0,0,0,3.61-1l-.05,0c9.88-6.5,11.46-25.17,9.46-35.34C623.27,236,616,225.07,605,220.64l.07-.17a2.22,2.22,0,0,0,.17-1.24c8.64-15.71,14.64-33.67,12.1-50.95-.69-4.71-7.38-3-7.76,1.05a127.84,127.84,0,0,1-11.71,43.16c-8.13-23.2-44.9-13.08-58.85-.15a.6.6,0,0,1-.05.08c-.14.18-.29.35-.44.52l-.11.13c-.47.85-1,1.68-1.49,2.53a9.61,9.61,0,0,0-.48.95,2.25,2.25,0,0,0,.42.27c17.13,6.91,36.49,17,53.42,9a104.29,104.29,0,0,1-11.71,14.87c-2.18,2.28-4.44,4.43-6.75,6.52-4.59-6.33-10.12-10.47-18.92-12.16s-19.79-3.13-28.53-1l-.06,0a1.11,1.11,0,0,0-1.28,1.35v0a2.12,2.12,0,0,0,.4,1.66c2.44,8.38,11.34,16.59,18.86,20a26.54,26.54,0,0,0,14.16,2.22,245.27,245.27,0,0,1-22,13.56c2.45-7.35-4.2-13.5-10.55-16.31A53.15,53.15,0,0,0,510.39,253c-3.28-.5-7.43-1.73-10.57-.39-.14.07-.21.19-.31.28l-.06-.14a12.32,12.32,0,0,0-.6,5.26c3.5,10.09,10.34,20.54,20.36,23-8.7,4.44-17.49,8.79-26.15,13.32.85-6-3-11.06-8.73-14.26a107.12,107.12,0,0,0-13-5.77c-2.55-1-6.11-3.74-8.9-2.47a.93.93,0,0,0-.38.38.87.87,0,0,0-1.38.13c-4,8.34,3.9,18.14,10.06,23.12A22.71,22.71,0,0,0,482,300.27c-4.73,2.63-9.39,5.34-14,8.22-4.78,3-10,6.4-15.07,10.19-.55-4-3.61-7.29-7.54-9.24-5.09-2.55-12.46-5.63-18.27-4.22a1.74,1.74,0,0,0-1.35,1.21,1.62,1.62,0,0,0-1.07,2.33c3.75,7.83,10.75,16.61,19.39,17.19-6.24,5.67-11.61,12.07-14.76,19.26a1.08,1.08,0,0,0-1.21.81c0,.13,0,.26-.06.39-5.31,4.42-10.59,9.29-13.27,15.84C412.69,367.34,411.31,374.39,414.88,379Zm188.46-153.9c9.85,6.56,16.37,15.68,16.9,28.43.43,10.45-4.2,18.66-5.68,28.27C598.52,270.47,597.52,242.65,603.34,225.08Zm-9.86-4.27c-16.61,8.22-33,.11-49.43-6,18.11-11.28,36.16-17,53-.67C596,216.4,594.75,218.62,593.48,220.81Zm-18.34,41.05c1.88,2.52,3.69,5,4.38,8.56a39.32,39.32,0,0,1,.05,16.71c-1.47,6-3.69,12.67-8.22,17.12a76.62,76.62,0,0,1-6.19,5C555.14,294.35,565.08,275.52,575.14,261.87Zm-33.88-11.64c-5.22-3.1-8.35-7.41-12-11.53,5.93.62,12.36-.34,18.15,0,8.65.58,17.46,3.08,23.81,9-2.47,2.21-5,4.29-7.63,6.32C555.86,255,548.25,254.38,541.26,250.23ZM532,283.85c.82-.4,1.65-.77,2.47-1.17.73,15.93-3.54,35.09-19.56,40.47C509.32,308.55,519.73,292.82,532,283.85ZM510,270.1a39.31,39.31,0,0,1-9.41-14.46c2.21,1,5.09.74,7.42,1.09A65.91,65.91,0,0,1,518.56,259c3.46,1.12,7.54,2.53,10.09,5.27s2.58,5.6,2.74,9.22a1.35,1.35,0,0,0,.38.86c-1.73.94-3.46,1.88-5.21,2.79l-1.44.74C519.42,276.5,514.51,274.49,510,270.1Zm-19.47,25a23.78,23.78,0,0,1-19.44-6.8c-3.85-3.85-5.61-8.17-7.56-12.82,3.26,2.7,10.44,4.09,13.08,5.16C483.77,283.57,490.24,287.33,490.52,295.11Zm-6.66,9.9c1.41-.63,2.8-1.28,4.22-1.89L493,301c-2.49,6.53-1.24,14.18-4.5,20.82a29.29,29.29,0,0,1-14.65,14.46C469.36,328,476.8,312.28,483.86,305Zm-33.7,15.8-.64.52c-9.08.08-15.43-4.89-20.55-12C436.35,310,451.29,311.24,450.16,320.81Zm-7.08,18.1c1-5.17,3.57-8.29,6.48-12.18,1.53,3.85,3.08,7.89,2.76,12.06a31.89,31.89,0,0,1-4.39,13.27,1.09,1.09,0,0,0-.14.45C444,348.94,442,344.4,443.08,338.9Zm-26,31.41a23.7,23.7,0,0,1,2.42-10.42,79,79,0,0,1,8.43-12.62c-.87,5.15-.85,10.39-1.89,15.49A23.08,23.08,0,0,1,418.16,376C417.76,374.12,417,372.38,417.08,370.32Z" style="fill:#3c3c3b"/><path d="M148.08,526.39a4,4,0,0,0-3.88,3.53,3.34,3.34,0,0,0,1.43,4.07,4.45,4.45,0,0,0,5.88-1.63C153.26,529.82,150.91,526.39,148.08,526.39Z" style="fill:#e6334b"/><path d="M152,549.06c-11.24,0-11.24,17.4,0,17.4S163.24,549.06,152,549.06Z" style="fill:#e6334b"/><path d="M175.53,567a8.81,8.81,0,1,0,8.82,8.81A8.9,8.9,0,0,0,175.53,567Z" style="fill:#e6334b"/><path d="M206.13,575.63c-11.31,0-11.31,17.51,0,17.51S217.43,575.63,206.13,575.63Z" style="fill:#e6334b"/><path d="M238.29,576.07c-10.74,0-10.74,16.63,0,16.63S249,576.07,238.29,576.07Z" style="fill:#e6334b"/><path d="M270.45,571.4c-8.68,0-8.68,13.44,0,13.44S279.13,571.4,270.45,571.4Z" style="fill:#e6334b"/><path d="M300.68,568.31l-.4-.39a4.46,4.46,0,1,0,0,6.31l.4-.39A3.94,3.94,0,0,0,300.68,568.31Z" style="fill:#e6334b"/><path d="M320.83,554.31a3.61,3.61,0,0,0-4.54,3.45,3.49,3.49,0,0,0,2.38,3.3,3,3,0,0,0,2,.73,3.23,3.23,0,0,0,3.14-2.39C324.12,557,323.19,555.07,320.83,554.31Z" style="fill:#e6334b"/><path d="M336.34,542.78c-5.19,0-5.19,8,0,8S341.54,542.78,336.34,542.78Z" style="fill:#e6334b"/><path d="M391.26,372.87a11.82,11.82,0,1,0,11.84,11.82A11.94,11.94,0,0,0,391.26,372.87Z" style="fill:#3c3c3b"/><path d="M397.1,361.41a6.11,6.11,0,0,0,.47-.89h0a6.06,6.06,0,1,0-11,0h0a6.43,6.43,0,0,0,.46.89c0,.06.07.12.11.18a6.39,6.39,0,0,0,.62.79l.11.11a6,6,0,0,0,8.43,0l.11-.11a5.88,5.88,0,0,0,.63-.79C397,361.54,397.06,361.47,397.1,361.41Z" style="fill:#3c3c3b"/><path d="M392,406.24a4.68,4.68,0,1,0,4.68,4.68A4.73,4.73,0,0,0,392,406.24Z" style="fill:#3c3c3b"/><path d="M397.14,453.78c-1-6.26-3.76-12.19-5.39-18.32a.52.52,0,0,0-1,0c-1.62,6.13-4.36,12.06-5.39,18.32a155.58,155.58,0,0,0-1.65,18.62c-.42,9.69,15.48,9.69,15.06,0A157.63,157.63,0,0,0,397.14,453.78Z" style="fill:#3c3c3b"/><path d="M631.2,532.35a4.45,4.45,0,0,0,5.89,1.63,3.34,3.34,0,0,0,1.43-4.07,4,4,0,0,0-3.89-3.53C631.8,526.39,629.44,529.82,631.2,532.35Z" style="fill:#e6334b"/><path d="M630.71,549.06c11.24,0,11.24,17.4,0,17.4S619.47,549.06,630.71,549.06Z" style="fill:#e6334b"/><path d="M607.17,567a8.81,8.81,0,1,1-8.82,8.81A8.9,8.9,0,0,1,607.17,567Z" style="fill:#e6334b"/><path d="M576.58,575.63c11.31,0,11.31,17.51,0,17.51S565.27,575.63,576.58,575.63Z" style="fill:#e6334b"/><path d="M544.42,576.07c10.74,0,10.74,16.63,0,16.63S533.68,576.07,544.42,576.07Z" style="fill:#e6334b"/><path d="M512.25,571.4c8.68,0,8.68,13.44,0,13.44S503.58,571.4,512.25,571.4Z" style="fill:#e6334b"/><path d="M482,568.31l.39-.39a4.47,4.47,0,1,1,0,6.31l-.39-.39A3.93,3.93,0,0,1,482,568.31Z" style="fill:#e6334b"/><path d="M458.91,559.4a3.24,3.24,0,0,0,3.14,2.39,2.94,2.94,0,0,0,2-.73,3.48,3.48,0,0,0,2.38-3.3,3.61,3.61,0,0,0-4.54-3.45C459.52,555.07,458.58,557,458.91,559.4Z" style="fill:#e6334b"/><path d="M446.36,542.78c5.19,0,5.19,8,0,8S441.17,542.78,446.36,542.78Z" style="fill:#e6334b"/><path d="M336.76,813.26A6.49,6.49,0,0,0,330.3,815c-7.43,8.59,6.23,11.61,11.42,15.1,10,6.73,13.22,18.41,16,29.34a.6.6,0,0,0,1.15,0C365.76,842.47,353.09,819.2,336.76,813.26Z" style="fill:#3c3c3b"/><path d="M374.37,807.3c-3.15-8.31-16.69-4.43-13.3,3.66,2.08,5,3.23,10.27,5.42,15.17,3,6.77,2.64,12.65,2.67,19.81a.93.93,0,0,0,1.72.46c3-6.13,3.67-12.89,5.71-19.37S376.67,813.35,374.37,807.3Z" style="fill:#3c3c3b"/><path d="M446.46,813.26a6.49,6.49,0,0,1,6.47,1.71c7.43,8.59-6.23,11.61-11.41,15.1-10,6.73-13.22,18.41-16,29.34a.6.6,0,0,1-1.15,0C417.47,842.47,430.14,819.2,446.46,813.26Z" style="fill:#3c3c3b"/><path d="M408.85,807.3c3.16-8.31,16.69-4.43,13.3,3.66-2.09,5-3.23,10.27-5.42,15.17-3,6.77-2.64,12.65-2.66,19.81a.93.93,0,0,1-1.72.46c-3-6.13-3.67-12.89-5.71-19.37S406.56,813.35,408.85,807.3Z" style="fill:#3c3c3b"/><path d="M311.58,613.83c-2.17-6.95-9.42-15.74-16.17-18.72-9.81-4.33-27-3.92-27.24,10.42-.12,6.08,5.52,9,10.83,8.24,3.29-.48,5.37-2.58,7.88-4.53,1.86-1.44,4.73-1.09,6.88-1.53,5.9-1.21,12.41,2.77,15.88,7.25C310.37,615.9,311.9,614.88,311.58,613.83Z" style="fill:#3c3c3b"/><path d="M318.55,571.64c-4.56,2.79-7.84,7.68-7.37,13.15.4,4.62,2.59,8.59,3.31,13.1.12.74,1.16.6,1.36,0,2.4-7.06,7.75-11.1,11.91-17C331.7,575.2,324.09,568.25,318.55,571.64Z" style="fill:#3c3c3b"/><path d="M470.52,613.83c2.17-6.95,9.42-15.74,16.17-18.72,9.81-4.33,27-3.92,27.24,10.42.12,6.08-5.53,9-10.83,8.24-3.29-.48-5.37-2.58-7.88-4.53-1.86-1.44-4.73-1.09-6.88-1.53-5.9-1.21-12.41,2.77-15.88,7.25C471.73,615.9,470.19,614.88,470.52,613.83Z" style="fill:#3c3c3b"/><path d="M463.54,571.64c4.56,2.79,7.84,7.68,7.37,13.15-.4,4.62-2.59,8.59-3.31,13.1-.12.74-1.16.6-1.36,0-2.4-7.06-7.75-11.1-11.91-17C450.39,575.2,458,568.25,463.54,571.64Z" style="fill:#3c3c3b"/><path d="M253.42,774.49c-2.53-3-10-4.68-13.47-2.11-.37.28-.76.55-1.16.83a13.72,13.72,0,0,0-4.12-10.58c-4.64-4.44-10.64,2.06-6.87,6.85A14.2,14.2,0,0,1,230,773.7a14.69,14.69,0,0,0-9.09-1.34c-2.8.44-4.75,3.6-4.75,6.23,0,3.35,3,6.69,6.47,6.46a24.29,24.29,0,0,0,3.18-.42c-1,.2,1.12,0,1.08,0,1.08,0,2.11.07,3.15,0,.24,0,.5.07.75.11a26.37,26.37,0,0,1-3.4,3c-2.28,1.92-3.41,6-3.66,8.8-.54,5.91,8.76,6.93,10.18,1.38,1.2-4.69,2.69-9.25,1.82-14.1l.09-.18a7.16,7.16,0,0,0,.68.88c1,1,2.15,1.81,3,2.94,1.91,2.5.79,6.07,2.53,8.64,1.46,2.17,5.31,2.79,6.62,0,2.16-4.61-.87-8.48-3.74-11.91a17.24,17.24,0,0,0-1.72-1.73,15.41,15.41,0,0,1,2,.09,18.55,18.55,0,0,0,6,.43C255.33,782.45,255.6,777,253.42,774.49Z" style="fill:#f39200"/><path d="M234.37,737c-1.76-2.06-7-3.26-9.39-1.46l-.81.58a9.57,9.57,0,0,0-2.87-7.38c-3.23-3.1-7.43,1.43-4.79,4.77A9.87,9.87,0,0,1,218,736.5a10.23,10.23,0,0,0-6.34-.94c-2,.31-3.31,2.51-3.31,4.35a4.54,4.54,0,0,0,4.51,4.51,18.09,18.09,0,0,0,2.22-.29c-.7.14.78,0,.75,0,.75,0,1.47,0,2.2,0l.52.08a18.41,18.41,0,0,1-2.38,2.08c-1.58,1.35-2.37,4.21-2.55,6.14-.38,4.12,6.11,4.83,7.1,1,.83-3.27,1.88-6.46,1.27-9.83l.06-.12a5,5,0,0,0,.48.61,27.8,27.8,0,0,1,2.1,2.05c1.34,1.74.56,4.23,1.77,6,1,1.51,3.7,1.95,4.61,0,1.5-3.22-.61-5.92-2.61-8.31a12.27,12.27,0,0,0-1.19-1.21,10.25,10.25,0,0,1,1.39.07,13.06,13.06,0,0,0,4.17.3C235.7,742.61,235.89,738.83,234.37,737Z" style="fill:#f39200"/><path d="M530.62,774.49c2.53-3,10.05-4.68,13.47-2.11.37.28.76.55,1.17.83a13.72,13.72,0,0,1,4.12-10.58c4.64-4.44,10.64,2.06,6.87,6.85a14.19,14.19,0,0,0-2.17,4.22,14.68,14.68,0,0,1,9.09-1.34c2.8.44,4.75,3.6,4.75,6.23,0,3.35-2.94,6.69-6.47,6.46a24.33,24.33,0,0,1-3.18-.42c1,.2-1.12,0-1.08,0-1.09,0-2.11.07-3.15,0-.25,0-.5.07-.75.11a26.59,26.59,0,0,0,3.4,3c2.28,1.92,3.41,6,3.67,8.8.54,5.91-8.76,6.93-10.19,1.38-1.2-4.69-2.69-9.25-1.81-14.1l-.09-.18a7.13,7.13,0,0,1-.68.88c-1,1-2.16,1.81-3,2.94-1.91,2.5-.79,6.07-2.53,8.64-1.46,2.17-5.32,2.79-6.62,0-2.16-4.61.87-8.48,3.74-11.91a17.21,17.21,0,0,1,1.72-1.73,15.48,15.48,0,0,0-2,.09,18.52,18.52,0,0,1-6,.43C528.71,782.45,528.44,777,530.62,774.49Z" style="fill:#f39200"/><path d="M549.67,737c1.76-2.06,7-3.26,9.39-1.46l.82.58a9.58,9.58,0,0,1,2.87-7.38c3.23-3.1,7.43,1.43,4.79,4.77A9.94,9.94,0,0,0,566,736.5a10.22,10.22,0,0,1,6.34-.94c2,.31,3.31,2.51,3.31,4.35a4.53,4.53,0,0,1-4.51,4.51,18,18,0,0,1-2.21-.29c.7.14-.78,0-.75,0-.75,0-1.47,0-2.2,0l-.53.08a18.62,18.62,0,0,0,2.37,2.08c1.59,1.35,2.37,4.21,2.55,6.14.38,4.12-6.1,4.83-7.1,1-.84-3.27-1.88-6.46-1.27-9.83l-.07-.12a5,5,0,0,1-.47.61,29.17,29.17,0,0,0-2.11,2.05c-1.33,1.74-.55,4.23-1.76,6-1,1.51-3.71,1.95-4.62,0-1.5-3.22.61-5.92,2.61-8.31a12,12,0,0,1,1.2-1.21,10.3,10.3,0,0,0-1.39.07,13,13,0,0,1-4.17.3C548.34,742.61,548.15,738.83,549.67,737Z" style="fill:#f39200"/><path d="M566.29,330.27c-3.82.76-9,6.48-8.4,10.72.06.45.11.93.16,1.42a13.8,13.8,0,0,0-11.26-1.57c-6.15,1.88-3.38,10.28,2.64,9.33a14.21,14.21,0,0,1,4.75.17,14.64,14.64,0,0,0-5.6,7.26c-1,2.66.83,5.9,3.13,7.18,2.93,1.63,7.29.69,8.8-2.49a25.66,25.66,0,0,0,1.18-3c-.32,1,.58-1,.56-.92.52-.95,1.09-1.81,1.55-2.74.17-.19.31-.4.47-.6a26.26,26.26,0,0,1,1,4.43c.57,2.92,3.61,5.91,5.92,7.48,4.9,3.35,10.33-4.26,6.17-8.21-3.52-3.33-6.79-6.86-11.45-8.45,0-.06-.08-.11-.11-.17a7.37,7.37,0,0,0,1.1-.17c1.38-.34,2.63-1,4.06-1.2,3.11-.45,5.69,2.27,8.79,2,2.61-.22,5-3.28,3.23-5.78-3-4.13-7.85-3.38-12.24-2.54a17.61,17.61,0,0,0-2.35.65,15.21,15.21,0,0,1,1.05-1.69,18.38,18.38,0,0,0,3.28-5C574.19,332.49,569.59,329.62,566.29,330.27Z" style="fill:#f39200"/><path d="M635,349.34c-4.76-1.21-13.76,2.49-15.42,7.63-.17.55-.38,1.12-.59,1.7a17.36,17.36,0,0,0-12-7.91c-8-1.21-9.46,9.86-2.08,12.05a18,18,0,0,1,5.31,2.77,18.55,18.55,0,0,0-10.34,5.22c-2.56,2.49-2.27,7.17-.35,9.87,2.44,3.45,7.91,4.75,11.38,1.95a32.3,32.3,0,0,0,3-2.74c-.89.94,1.17-.78,1.13-.74,1.11-.8,2.22-1.47,3.27-2.28.29-.12.56-.29.85-.42a33.11,33.11,0,0,1-1.32,5.55c-.94,3.64.89,8.7,2.65,11.74,3.75,6.48,14.09.77,11.5-6-2.18-5.7-4-11.5-8.42-15.85,0-.08,0-.17,0-.25a8.73,8.73,0,0,0,1.34.41c1.75.36,3.54.3,5.27.83,3.79,1.18,5.24,5.67,8.91,7.06,3.08,1.17,7.51-1,6.82-4.82-1.14-6.31-7.09-8.11-12.54-9.54a20.48,20.48,0,0,0-3-.54,18.44,18.44,0,0,1,2.13-1.36c2.48-1.25,4.36-1.93,6.46-3.9C642.76,356.15,639.09,350.38,635,349.34Z" style="fill:#f39200"/><path d="M512.49,335.68c-2.67.53-6.26,4.53-5.86,7.47,0,.32.07.65.11,1a9.63,9.63,0,0,0-7.86-1.1c-4.28,1.31-2.36,7.18,1.85,6.51a9.91,9.91,0,0,1,3.31.11,10.23,10.23,0,0,0-3.91,5.07c-.68,1.85.58,4.11,2.19,5a4.54,4.54,0,0,0,6.14-1.74,18.28,18.28,0,0,0,.82-2.07c-.22.68.4-.67.39-.64.36-.66.76-1.26,1.08-1.91.12-.13.22-.28.33-.42a18.76,18.76,0,0,1,.67,3.08c.4,2,2.52,4.12,4.13,5.22,3.41,2.33,7.2-3,4.3-5.72-2.45-2.32-4.73-4.79-8-5.9l-.08-.11a4.68,4.68,0,0,0,.76-.12c1-.24,1.84-.69,2.83-.83,2.17-.32,4,1.58,6.13,1.4,1.82-.15,3.51-2.28,2.25-4-2.08-2.88-5.48-2.35-8.53-1.77a11.65,11.65,0,0,0-1.64.45,11.47,11.47,0,0,1,.74-1.18,13.07,13.07,0,0,0,2.29-3.49C518,337.23,514.79,335.22,512.49,335.68Z" style="fill:#f39200"/><path d="M218,330.27c3.82.76,9,6.48,8.41,10.72-.07.45-.11.93-.16,1.42a13.8,13.8,0,0,1,11.26-1.57c6.15,1.88,3.38,10.28-2.65,9.33a14.24,14.24,0,0,0-4.75.17,14.63,14.63,0,0,1,5.61,7.26c1,2.66-.84,5.9-3.14,7.18-2.93,1.63-7.29.69-8.8-2.49a25.66,25.66,0,0,1-1.18-3c.32,1-.57-1-.55-.92-.52-.95-1.09-1.81-1.55-2.74-.17-.19-.31-.4-.47-.6a26.26,26.26,0,0,0-1,4.43c-.58,2.92-3.61,5.91-5.92,7.48-4.9,3.35-10.33-4.26-6.17-8.21,3.52-3.33,6.78-6.86,11.45-8.45l.11-.17a7.59,7.59,0,0,1-1.1-.17c-1.37-.34-2.63-1-4.05-1.2-3.11-.45-5.69,2.27-8.79,2-2.61-.22-5-3.28-3.23-5.78,3-4.13,7.85-3.38,12.24-2.54a17.61,17.61,0,0,1,2.35.65,14.76,14.76,0,0,0-1.05-1.69,18.53,18.53,0,0,1-3.28-5C210.09,332.49,214.69,329.62,218,330.27Z" style="fill:#f39200"/><path d="M149.3,349.34c4.76-1.21,13.76,2.49,15.42,7.63.17.55.38,1.12.59,1.7a17.36,17.36,0,0,1,12-7.91c8-1.21,9.46,9.86,2.07,12.05a18.1,18.1,0,0,0-5.32,2.77,18.53,18.53,0,0,1,10.34,5.22c2.56,2.49,2.27,7.17.35,9.87-2.44,3.45-7.92,4.75-11.39,1.95a32.69,32.69,0,0,1-3-2.74c.89.94-1.17-.78-1.13-.74-1.11-.8-2.22-1.47-3.27-2.28-.29-.12-.57-.29-.86-.42a33.41,33.41,0,0,0,1.33,5.55c.94,3.64-.89,8.7-2.65,11.74-3.76,6.48-14.09.77-11.5-6,2.19-5.7,4-11.5,8.42-15.85,0-.08,0-.17,0-.25a8.85,8.85,0,0,1-1.34.41c-1.75.36-3.54.3-5.27.83-3.79,1.18-5.24,5.67-8.92,7.06-3.08,1.17-7.51-1-6.83-4.82,1.15-6.31,7.09-8.11,12.55-9.54a20.47,20.47,0,0,1,3-.54,18.1,18.1,0,0,0-2.12-1.36c-2.49-1.25-4.36-1.93-6.47-3.9C141.52,356.15,145.19,350.38,149.3,349.34Z" style="fill:#f39200"/><path d="M271.79,335.68c2.66.53,6.26,4.53,5.86,7.47,0,.32-.08.65-.11,1a9.61,9.61,0,0,1,7.86-1.1c4.29,1.31,2.36,7.18-1.84,6.51a9.93,9.93,0,0,0-3.31.11,10.24,10.24,0,0,1,3.91,5.07c.68,1.85-.58,4.11-2.19,5a4.54,4.54,0,0,1-6.14-1.74,17.73,17.73,0,0,1-.83-2.07c.22.68-.4-.67-.38-.64-.36-.66-.76-1.26-1.09-1.91-.11-.13-.21-.28-.33-.42a18.76,18.76,0,0,0-.67,3.08c-.4,2-2.52,4.12-4.13,5.22-3.41,2.33-7.2-3-4.3-5.72,2.45-2.32,4.73-4.79,8-5.9l.08-.11a4.77,4.77,0,0,1-.77-.12,28.88,28.88,0,0,0-2.82-.83c-2.18-.32-4,1.58-6.14,1.4-1.82-.15-3.51-2.28-2.25-4,2.08-2.88,5.47-2.35,8.53-1.77a11.37,11.37,0,0,1,1.64.45,10.89,10.89,0,0,0-.73-1.18,12.92,12.92,0,0,1-2.3-3.49C266.28,337.23,269.49,335.22,271.79,335.68Z" style="fill:#f39200"/></svg>