<svg xmlns="http://www.w3.org/2000/svg" xmlns:xlink="http://www.w3.org/1999/xlink" viewBox="0 0 760 960"><defs><clipPath id="a"><path d="M553.59,633.34s-8.65,75-41.71,92.82H242.31c-33.06-17.84-41.7-92.82-41.7-92.82s-74.44-46.31-72.32-26.9S144,653.92,161,657.49s17.87,58,24.12,102.83,18.76,64,34.84,72.87,10.72,16,61.65,37.46,95.46,16.05,95.48,16.05,44.56,5.35,95.48-16.05,45.57-28.54,61.65-37.46,28.59-28,34.84-72.87,7.15-99.26,24.12-102.83,30.6-31.65,32.72-51.06S553.59,633.34,553.59,633.34Z" style="fill:#f9efe1"/></clipPath><clipPath id="b"><path d="M595,188.66c-64.33-77.59-159.58-82.94-217.88-82.94s-153.55,5.35-217.88,82.94-81.75,172.93-59,256.86c18.76,69.12,9.38,85.62,9.38,85.62s-26.8,76.26,65.67,95,72.37,71.35,71,98.11l130.77.89,130.77-.89c-1.34-26.75-21.44-79.37,71-98.11s65.66-95,65.66-95-9.38-16.5,9.38-85.62C676.72,361.59,659.3,266.25,595,188.66Z" style="fill:#f9efe1"/></clipPath></defs><title>sk-hierophant</title><path d="M553.59,633.34s-8.65,75-41.71,92.82H242.31c-33.06-17.84-41.7-92.82-41.7-92.82s-74.44-46.31-72.32-26.9S144,653.92,161,657.49s17.87,58,24.12,102.83,18.76,64,34.84,72.87,10.72,16,61.65,37.46,95.46,16.05,95.48,16.05,44.56,5.35,95.48-16.05,45.57-28.54,61.65-37.46,28.59-28,34.84-72.87,7.15-99.26,24.12-102.83,30.6-31.65,32.72-51.06S553.59,633.34,553.59,633.34Z" style="fill:#f9efe1"/><g style="clip-path:url(#a)"><path d="M409.27,850.43c0,24-14.54,43.52-32.47,43.52s-32.47-19.49-32.47-43.52c0-13.26,4.43-25.13,11.4-33.12,5.67-6.5,13,6.91,21.07,6.91,8.23,0,15.73-13.23,21.45-6.47C405,825.73,409.27,837.41,409.27,850.43Z" style="fill:#fcd310"/><path d="M355.27,844.11c20.86,12,30.49,34.34,21.52,49.84s-33.14,18.33-54,6.31c-11.5-6.63-19.59-16.38-23-26.4-2.8-8.15,12.51-7.81,16.53-14.77,4.11-7.11-3.61-20.22,5.12-21.79C331.72,835.45,344,837.61,355.27,844.11Z" style="fill:#fcd310"/><path d="M322.8,887.64c20.85-12,45-9.19,54,6.31s-.67,37.81-21.53,49.83c-11.5,6.63-24,8.74-34.42,6.71-8.47-1.66-.52-14.73-4.54-21.68-4.11-7.11-19.34-7-16.34-15.31C303.51,903.67,311.51,894.15,322.8,887.64Z" style="fill:#fcd310"/><path d="M344.32,937.48c0-24,14.54-43.53,32.47-43.53s32.47,19.49,32.47,43.53c0,13.25-4.42,25.13-11.39,33.11-5.67,6.5-13-6.91-21.08-6.91-8.23,0-15.74,13.23-21.46,6.47C348.59,962.17,344.32,950.49,344.32,937.48Z" style="fill:#fcd310"/><path d="M398.32,943.78c-20.86-12-30.49-34.33-21.52-49.83s33.14-18.33,54-6.31c11.5,6.63,19.59,16.38,23,26.4,2.81,8.16-12.51,7.81-16.54,14.77-4.11,7.11,3.61,20.22-5.12,21.78C421.88,952.45,409.61,950.29,398.32,943.78Z" style="fill:#fcd310"/><path d="M430.79,900.26c-20.86,12-45,9.19-54-6.31s.67-37.82,21.53-49.84c11.5-6.62,24-8.74,34.42-6.71,8.48,1.66.52,14.72,4.55,21.68s19.34,7,16.34,15.31C450.09,884.23,442.08,893.75,430.79,900.26Z" style="fill:#fcd310"/><path d="M376.8,925.12A31.16,31.16,0,1,1,408,894,31.22,31.22,0,0,1,376.8,925.12Z" style="fill:#fcd310"/><path d="M376.8,867.22A26.74,26.74,0,1,1,350,894a26.76,26.76,0,0,1,26.78-26.74m0-8.85A35.59,35.59,0,1,0,412.46,894a35.66,35.66,0,0,0-35.65-35.59Z" style="fill:#3c3c3b"/><path d="M389.31,894a12.5,12.5,0,1,1-12.5-12.48A12.49,12.49,0,0,1,389.31,894Z" style="fill:#3c3c3b"/><path d="M367.55,849.74c-1-4.79-1.44-9.68-2.27-14.5a.22.22,0,0,0-.42,0c-1.38,8.33-2.47,23.11,4.88,29.18a1.38,1.38,0,0,0,2.29-1.33C371.16,858.51,368.54,854.41,367.55,849.74Z" style="fill:#3c3c3b"/><path d="M385.72,832.62a.27.27,0,0,0-.52,0c-1,4.32-.84,8.81-1.11,13.22a44.73,44.73,0,0,1-4.38,16.53c-1.13,2.45,2.25,4.55,3.67,2.15C388.41,856,387.92,841.89,385.72,832.62Z" style="fill:#3c3c3b"/><path d="M333.82,879.84c-4.66-1.52-9.12-3.6-13.71-5.29a.22.22,0,0,0-.21.36c6.54,5.36,18.82,13.69,27.76,10.37a1.38,1.38,0,0,0,0-2.65C343.23,881.1,338.36,881.32,333.82,879.84Z" style="fill:#3c3c3b"/><path d="M328.06,855.57a.27.27,0,0,0-.25.44c3.25,3,7.21,5.13,10.91,7.57a45,45,0,0,1,12.16,12.05c1.55,2.21,5.06.32,3.69-2.1C349.72,864.95,337.19,858.3,328.06,855.57Z" style="fill:#3c3c3b"/><path d="M343.06,924c-3.65,3.27-7.68,6.08-11.45,9.21a.22.22,0,0,0,.21.37c7.92-3,21.28-9.43,22.87-18.81a1.38,1.38,0,0,0-2.3-1.32C348.86,916.54,346.62,920.87,343.06,924Z" style="fill:#3c3c3b"/><path d="M319.13,916.9a.27.27,0,0,0,.26.44c4.24-1.3,8.07-3.67,12-5.65a45.06,45.06,0,0,1,16.53-4.49c2.69-.24,2.82-4.22,0-4.25C338.09,902.86,326.06,910.36,319.13,916.9Z" style="fill:#3c3c3b"/><path d="M386,938.17c1,4.79,1.44,9.68,2.27,14.5a.22.22,0,0,0,.42,0c1.38-8.34,2.46-23.11-4.88-29.18a1.38,1.38,0,0,0-2.28,1.33C382.42,929.39,385.06,933.49,386,938.17Z" style="fill:#3c3c3b"/><path d="M367.87,955.28a.27.27,0,0,0,.52,0c1-4.32.85-8.8,1.11-13.21a44.85,44.85,0,0,1,4.38-16.54c1.13-2.44-2.25-4.55-3.67-2.15C365.18,931.86,365.66,946,367.87,955.28Z" style="fill:#3c3c3b"/><path d="M419.77,908.06c4.67,1.52,9.12,3.6,13.72,5.29a.22.22,0,0,0,.21-.37c-6.54-5.36-18.82-13.69-27.76-10.37a1.38,1.38,0,0,0,0,2.65C410.36,906.81,415.23,906.58,419.77,908.06Z" style="fill:#3c3c3b"/><path d="M425.54,932.34a.27.27,0,0,0,.26-.45c-3.25-3-7.22-5.13-10.92-7.57a45,45,0,0,1-12.16-12.05c-1.55-2.2-5.07-.33-3.7,2.1C403.87,922.95,416.4,929.61,425.54,932.34Z" style="fill:#3c3c3b"/><path d="M410.53,863.85c3.65-3.27,7.68-6.08,11.45-9.21a.22.22,0,0,0-.22-.36c-7.91,3-21.28,9.42-22.87,18.81a1.38,1.38,0,0,0,2.3,1.31C404.73,871.36,407,867,410.53,863.85Z" style="fill:#3c3c3b"/><path d="M434.47,871a.27.27,0,0,0-.26-.45c-4.24,1.31-8.06,3.68-12,5.65a44.82,44.82,0,0,1-16.54,4.49c-2.68.25-2.82,4.22,0,4.25C415.49,885,427.53,877.54,434.47,871Z" style="fill:#3c3c3b"/></g><path d="M390.54,890.64h0c-7.2,0-11.89-.42-13.43-.58a133.6,133.6,0,0,1-13.45.58,220.14,220.14,0,0,1-83.34-16.91c-35-14.69-43.9-22.86-51.08-29.42a52.41,52.41,0,0,0-10.89-8.2c-19.51-10.82-30.78-34.05-36.54-75.33-1.44-10.32-2.6-21.18-3.72-31.68-3.31-31-7.07-66.09-17.77-68.34-19.42-4.08-33.24-34.5-35.37-54a7.4,7.4,0,0,1,1.66-6c1.48-1.64,3.72-2.47,6.68-2.47,16.9,0,63.79,28.87,69.09,32.16l1.37.85.18,1.6c.08.72,8.69,72.34,39.25,89.86H511c30.55-17.52,39.16-89.14,39.25-89.86l.19-1.6,1.37-.85c5.29-3.29,52.19-32.16,69.09-32.16,3,0,5.2.83,6.68,2.47a7.39,7.39,0,0,1,1.66,6c-2.12,19.46-15.94,49.88-35.36,54-10.71,2.25-14.47,37.37-17.78,68.35-1.12,10.5-2.28,21.35-3.72,31.67-5.76,41.28-17,64.51-36.53,75.33a52.41,52.41,0,0,0-10.89,8.2c-7.18,6.56-16.12,14.72-51.08,29.42A220.19,220.19,0,0,1,390.54,890.64Zm-13-7.26a125.27,125.27,0,0,0,13,.56h0a213.28,213.28,0,0,0,80.73-16.38c33.89-14.25,42.36-22,49.17-28.19a58.43,58.43,0,0,1,12.15-9.11c17.49-9.7,27.71-31.41,33.15-70.41,1.42-10.21,2.58-21,3.69-31.45,4.07-38.06,7.58-70.94,23.05-74.19,14.31-3,27.92-28.36,30.08-48.15a2.09,2.09,0,0,0,0-.83,4.79,4.79,0,0,0-1.65-.21c-12.29,0-49.24,21.12-64.18,30.31-1.51,11.44-11.41,76.59-43.24,93.77l-.74.4H241.46l-.74-.4c-31.84-17.18-41.73-82.32-43.24-93.77C182.54,626.15,145.59,605,133.29,605a3.38,3.38,0,0,0-1.71.27h0s0,.27,0,.77c2.17,19.8,15.78,45.15,30.08,48.15,15.47,3.25,19,36.12,23.05,74.18,1.12,10.45,2.27,21.25,3.69,31.46,5.44,39,15.66,60.71,33.15,70.41a58.38,58.38,0,0,1,12.16,9.11c6.81,6.21,15.27,13.94,49.16,28.19A213.3,213.3,0,0,0,363.66,884c7.48,0,12.15-.48,12.92-.55l.46-.1Z" style="fill:#3c3c3b"/><path d="M390.54,893.92h0c-6.89,0-11.48-.37-13.43-.56-1.5.15-6.25.56-13.45.56A223.54,223.54,0,0,1,279,876.75c-35.49-14.92-44.66-23.29-52-30A49.21,49.21,0,0,0,216.75,839c-20.5-11.36-32.28-35.35-38.19-77.74-1.45-10.38-2.61-21.26-3.73-31.78-2.55-23.83-6.81-63.72-15.18-65.48-21.2-4.46-35.66-35.86-38-56.82a10.56,10.56,0,0,1,2.47-8.52c2.13-2.37,5.2-3.57,9.13-3.57,17.44,0,62.06,27.2,70.82,32.66l2.72,1.69.36,3.18c2.25,19.41,13.22,72.44,36.89,87h266c11.44-7,21.38-23.87,28.79-48.82A254.53,254.53,0,0,0,547,632.58l.37-3.18,2.71-1.69c8.77-5.45,53.4-32.66,70.82-32.66,3.92,0,7,1.2,9.12,3.56a10.56,10.56,0,0,1,2.48,8.53c-2.29,21-16.75,52.36-37.94,56.82-8.38,1.76-12.64,41.65-15.19,65.48-1.12,10.5-2.28,21.35-3.73,31.79-5.91,42.4-17.69,66.38-38.19,77.74a49,49,0,0,0-10.27,7.75c-7.37,6.74-16.54,15.11-52,30A223.56,223.56,0,0,1,390.54,893.92Zm-13.45-7.15.35,0c1.24.13,5.86.56,13.09.56v0a216.77,216.77,0,0,0,82.06-16.66c34.44-14.47,43.15-22.43,50.14-28.81a55.8,55.8,0,0,1,11.51-8.65c18.52-10.27,29.28-32.76,34.88-72.92,1.44-10.33,2.59-21.12,3.71-31.56,4.42-41.37,8.23-68.66,20.37-71.21,17.24-3.63,30.71-32.21,32.77-51.11a4.47,4.47,0,0,0-.65-3.2l.32.91a5.18,5.18,0,0,1,.19,2.27c-2.33,21.32-16.79,47.66-32.67,51-13.14,2.76-16.7,36.07-20.47,71.33-1.12,10.46-2.28,21.28-3.71,31.56-5.59,40.12-16.33,62.58-34.81,72.82a55.28,55.28,0,0,0-11.53,8.66c-7,6.39-15.69,14.33-50.11,28.8a216.66,216.66,0,0,1-82,16.64,130.24,130.24,0,0,1-13.34-.59h-.1l-.18,0c-.89.09-5.73.58-13.27.58a216.69,216.69,0,0,1-82-16.64c-34.41-14.47-43.11-22.41-50.1-28.79A54.75,54.75,0,0,0,220,833.13c-18.48-10.24-29.21-32.71-34.81-72.82-1.44-10.28-2.59-21.1-3.71-31.57-3.77-35.26-7.33-68.56-20.47-71.32-15.87-3.34-30.34-29.68-32.67-51a7.18,7.18,0,0,1,0-1.07l3.18,0,.09-.08-1.88-2.69a6.32,6.32,0,0,1,3.59-.86c15.38,0,60.78,27.65,65.91,30.8l1.33.82.2,1.55c1,7.59,10.65,74.64,41.54,91.31H511.92c12.5-6.75,23.37-23.07,31.44-47.19a253.41,253.41,0,0,0,10.11-44.12l.2-1.55,1.33-.82c5.12-3.15,50.52-30.8,65.91-30.8a9.54,9.54,0,0,1,2.09.2h.45a8.38,8.38,0,0,0-2.54-.34c-13,0-48.44,19.9-67.35,31.67l0,.05c-.08.73-8.82,73.94-40.87,92.32l-.76.43H242.3l-.76-.43c-32.06-18.39-40.79-91.59-40.87-92.34l0,0c-18.91-11.76-54.37-31.67-67.35-31.67-2,0-3.41.47-4.24,1.39a4.26,4.26,0,0,0-.84,3.44c2.07,18.9,15.54,47.49,32.78,51.11,12.13,2.55,15.94,29.85,20.36,71.2,1.12,10.47,2.28,21.3,3.71,31.57,5.6,40.16,16.36,62.66,34.88,72.92a55.6,55.6,0,0,1,11.51,8.65c7,6.39,15.7,14.34,50.14,28.81a216.77,216.77,0,0,0,82.06,16.66,128.59,128.59,0,0,0,13.09-.56ZM377,880l1.12.19c.65.07,5.19.52,12.43.52A209.81,209.81,0,0,0,470,864.54c33.37-14,41.6-21.54,48.22-27.59A62.21,62.21,0,0,1,531,827.4c16.5-9.15,26.21-30.12,31.49-68,1.42-10.17,2.57-20.94,3.68-31.34,4.38-41,7.83-73.3,25.64-77,10-2.11,23.85-21.22,27.13-42.54-11.68,1.79-40.71,17.58-59.19,28.85C557.52,653.24,546.92,714.78,515,732l-1.48.8H240.63l-1.48-.8c-31.9-17.21-42.48-78.74-44.72-94.67-18.47-11.26-47.48-27-59.17-28.85,3.34,21.43,17.12,40.44,27.11,42.54,17.81,3.74,21.26,36.08,25.64,77,1.11,10.42,2.26,21.19,3.68,31.36,5.28,37.87,15,58.84,31.49,68A61.89,61.89,0,0,1,236,837c6.62,6,14.85,13.57,48.22,27.59a209.81,209.81,0,0,0,79.46,16.13c6.85,0,11.29-.41,12.42-.53Z" style="fill:#3c3c3b"/><path d="M595,188.66c-64.33-77.59-159.58-82.94-217.88-82.94s-153.55,5.35-217.88,82.94-81.75,172.93-59,256.86c18.76,69.12,9.38,85.62,9.38,85.62s-26.8,76.26,65.67,95,72.37,71.35,71,98.11l130.77.89,130.77-.89c-1.34-26.75-21.44-79.37,71-98.11s65.66-95,65.66-95-9.38-16.5,9.38-85.62C676.72,361.59,659.3,266.25,595,188.66Z" style="fill:#f9efe1"/><g style="clip-path:url(#b)"><path d="M418.11,84.82c0,30.58-18.5,55.37-41.31,55.37s-41.31-24.79-41.31-55.37c0-16.86,5.63-32,14.5-42.13,7.22-8.26,16.58,8.79,26.81,8.79,10.46,0,20-16.82,27.29-8.23C412.68,53.4,418.11,68.26,418.11,84.82Z" style="fill:#fcd310"/><path d="M349.42,76.79c26.53,15.29,38.79,43.68,27.38,63.4s-42.16,23.32-68.69,8c-14.63-8.44-24.92-20.85-29.3-33.6-3.56-10.37,15.92-9.94,21-18.78,5.23-9-4.59-25.72,6.51-27.71C319.45,65.77,335.05,68.51,349.42,76.79Z" style="fill:#fcd310"/><path d="M308.11,132.15c26.53-15.29,57.28-11.69,68.69,8s-.85,48.11-27.38,63.4c-14.63,8.43-30.54,11.12-43.8,8.54-10.77-2.11-.66-18.73-5.78-27.58-5.23-9-24.6-8.9-20.78-19.48C283.56,152.56,293.74,140.44,308.11,132.15Z" style="fill:#fcd310"/><path d="M335.48,195.56c0-30.58,18.49-55.37,41.31-55.37s41.3,24.79,41.3,55.37c0,16.86-5.62,32-14.49,42.13-7.22,8.27-16.58-8.79-26.82-8.79-10.46,0-20,16.83-27.29,8.23C340.91,227,335.48,212.11,335.48,195.56Z" style="fill:#fcd310"/><path d="M404.17,203.58c-26.53-15.29-38.79-43.67-27.38-63.4s42.16-23.31,68.69-8c14.63,8.43,24.92,20.84,29.3,33.59,3.57,10.38-15.92,9.94-21,18.79-5.23,9,4.58,25.72-6.51,27.71C434.15,214.61,418.54,211.86,404.17,203.58Z" style="fill:#fcd310"/><path d="M445.48,148.22c-26.53,15.29-57.28,11.69-68.69-8s.85-48.11,27.38-63.39c14.63-8.43,30.54-11.13,43.78-8.54,10.78,2.11.67,18.72,5.78,27.58,5.23,9,24.61,8.9,20.79,19.48C470,127.81,459.84,139.93,445.48,148.22Z" style="fill:#fcd310"/><path d="M376.81,178.64a38.44,38.44,0,1,1,38.5-38.44A38.52,38.52,0,0,1,376.81,178.64Z" style="fill:#fcd310"/><path d="M376.81,106.18a34,34,0,1,1-34.07,34,34,34,0,0,1,34.07-34m0-8.85a42.87,42.87,0,1,0,42.94,42.86,42.95,42.95,0,0,0-42.94-42.86Z" style="fill:#3c3c3b"/><ellipse cx="376.81" cy="140.19" rx="15.9" ry="15.87" style="fill:#3c3c3b"/><path d="M365,83.94c-1.28-6.09-1.83-12.32-2.88-18.45a.28.28,0,0,0-.54,0c-1.76,10.6-3.14,29.4,6.21,37.12a1.75,1.75,0,0,0,2.91-1.69C369.63,95.1,366.29,89.89,365,83.94Z" style="fill:#3c3c3b"/><path d="M388.15,62.17a.34.34,0,0,0-.66,0c-1.26,5.49-1.07,11.21-1.41,16.8a56.93,56.93,0,0,1-5.57,21c-1.44,3.11,2.87,5.78,4.68,2.73C391.58,92,391,74,388.15,62.17Z" style="fill:#3c3c3b"/><path d="M322.12,122.24c-5.93-1.93-11.6-4.58-17.45-6.73a.28.28,0,0,0-.27.47c8.32,6.82,23.94,17.41,35.31,13.19a1.76,1.76,0,0,0,0-3.37C334.1,123.83,327.9,124.12,322.12,122.24Z" style="fill:#3c3c3b"/><path d="M314.79,91.36a.34.34,0,0,0-.33.56c4.13,3.84,9.18,6.54,13.88,9.62a57.14,57.14,0,0,1,15.47,15.33c2,2.8,6.44.41,4.7-2.67C342.35,103.3,326.41,94.83,314.79,91.36Z" style="fill:#3c3c3b"/><path d="M333.89,178.48c-4.65,4.16-9.77,7.74-14.57,11.72a.29.29,0,0,0,.27.47c10.07-3.78,27.07-12,29.1-23.93a1.76,1.76,0,0,0-2.93-1.67C341.26,168.92,338.41,174.43,333.89,178.48Z" style="fill:#3c3c3b"/><path d="M303.44,169.38a.34.34,0,0,0,.33.57c5.4-1.66,10.26-4.67,15.29-7.19a57.28,57.28,0,0,1,21-5.71c3.43-.31,3.59-5.37,0-5.41C327.56,151.52,312.26,161.06,303.44,169.38Z" style="fill:#3c3c3b"/><path d="M388.56,196.43c1.29,6.1,1.83,12.32,2.88,18.45a.28.28,0,0,0,.54,0c1.76-10.6,3.14-29.4-6.21-37.12a1.75,1.75,0,0,0-2.91,1.69C384,185.28,387.31,190.49,388.56,196.43Z" style="fill:#3c3c3b"/><path d="M365.44,218.21a.34.34,0,0,0,.66,0c1.26-5.49,1.08-11.2,1.41-16.81a56.9,56.9,0,0,1,5.57-21c1.44-3.11-2.86-5.78-4.67-2.73C362,188.41,362.63,206.43,365.44,218.21Z" style="fill:#3c3c3b"/><path d="M431.47,158.14c5.93,1.93,11.6,4.58,17.45,6.74a.28.28,0,0,0,.27-.47c-8.32-6.81-23.94-17.41-35.31-13.2a1.76,1.76,0,0,0,0,3.37C419.49,156.54,425.69,156.25,431.47,158.14Z" style="fill:#3c3c3b"/><path d="M438.8,189a.34.34,0,0,0,.33-.57c-4.14-3.84-9.18-6.53-13.88-9.63a57.19,57.19,0,0,1-15.47-15.33c-2-2.8-6.45-.42-4.7,2.66C411.24,177.08,427.18,185.55,438.8,189Z" style="fill:#3c3c3b"/><path d="M419.71,101.89c4.65-4.16,9.77-7.73,14.57-11.71a.28.28,0,0,0-.28-.46c-10.06,3.78-27.07,12-29.1,23.93a1.76,1.76,0,0,0,2.93,1.67C412.33,111.45,415.17,105.95,419.71,101.89Z" style="fill:#3c3c3b"/><path d="M450.16,111a.34.34,0,0,0-.33-.57c-5.4,1.66-10.26,4.67-15.29,7.19a57.06,57.06,0,0,1-21,5.71c-3.41.31-3.59,5.37,0,5.4C426,128.85,441.34,119.31,450.16,111Z" style="fill:#3c3c3b"/><path d="M656.11,167.07c0,30.58-18.5,55.37-41.31,55.37s-41.31-24.79-41.31-55.37c0-16.86,5.63-32,14.5-42.13,7.21-8.26,16.58,8.79,26.81,8.79,10.46,0,20-16.83,27.29-8.23C650.69,135.66,656.11,150.52,656.11,167.07Z" style="fill:#fcd310"/><path d="M587.42,159c26.53,15.29,38.79,43.67,27.38,63.4s-42.16,23.32-68.69,8c-14.63-8.44-24.92-20.85-29.3-33.6-3.56-10.37,15.92-9.94,21-18.78,5.23-9-4.59-25.72,6.51-27.71C557.45,148,573.05,150.77,587.42,159Z" style="fill:#fcd310"/><path d="M546.11,214.41c26.53-15.29,57.28-11.69,68.69,8s-.86,48.11-27.38,63.4c-14.63,8.43-30.54,11.11-43.79,8.53-10.78-2.11-.66-18.73-5.78-27.58-5.23-9-24.6-8.9-20.79-19.48C521.56,234.81,531.74,222.69,546.11,214.41Z" style="fill:#fcd310"/><path d="M573.49,277.81c0-30.58,18.49-55.37,41.31-55.37s41.3,24.79,41.3,55.37c0,16.86-5.62,32-14.49,42.13-7.22,8.27-16.58-8.79-26.81-8.79-10.46,0-20,16.82-27.29,8.23C578.91,309.23,573.49,294.37,573.49,277.81Z" style="fill:#fcd310"/><path d="M642.18,285.84c-26.53-15.29-38.79-43.67-27.38-63.4s42.16-23.32,68.69-8c14.63,8.43,24.92,20.84,29.3,33.59,3.56,10.38-15.92,9.94-21,18.79-5.23,9,4.58,25.72-6.51,27.71C672.15,296.86,656.54,294.11,642.18,285.84Z" style="fill:#fcd310"/><path d="M683.49,230.47c-26.53,15.29-57.28,11.69-68.69-8s.85-48.11,27.38-63.39c14.63-8.43,30.54-11.12,43.78-8.54,10.78,2.11.67,18.72,5.78,27.58,5.23,9,24.6,8.9,20.79,19.48C708,210.07,697.85,222.19,683.49,230.47Z" style="fill:#fcd310"/><path d="M614.81,260.89a38.44,38.44,0,1,1,38.51-38.44A38.52,38.52,0,0,1,614.81,260.89Z" style="fill:#fcd310"/><path d="M614.81,188.44a34,34,0,1,1-34.07,34,34,34,0,0,1,34.07-34m0-8.85a42.87,42.87,0,1,0,42.94,42.86,42.95,42.95,0,0,0-42.94-42.86Z" style="fill:#3c3c3b"/><ellipse cx="614.81" cy="222.45" rx="15.9" ry="15.87" style="fill:#3c3c3b"/><path d="M603,166.2c-1.28-6.09-1.83-12.32-2.88-18.45a.28.28,0,0,0-.54,0c-1.76,10.6-3.14,29.4,6.21,37.12a1.76,1.76,0,0,0,2.91-1.69C607.64,177.35,604.29,172.14,603,166.2Z" style="fill:#3c3c3b"/><path d="M626.16,144.43a.34.34,0,0,0-.66,0c-1.26,5.49-1.07,11.21-1.41,16.81a57,57,0,0,1-5.57,21c-1.44,3.12,2.87,5.78,4.68,2.73C629.58,174.22,629,156.2,626.16,144.43Z" style="fill:#3c3c3b"/><path d="M560.13,204.49c-5.93-1.93-11.6-4.58-17.45-6.73a.28.28,0,0,0-.27.46c8.31,6.82,23.94,17.41,35.31,13.19a1.76,1.76,0,0,0,0-3.37C572.1,206.09,565.9,206.38,560.13,204.49Z" style="fill:#3c3c3b"/><path d="M552.79,173.62a.34.34,0,0,0-.32.57c4.13,3.83,9.18,6.53,13.88,9.62a57.25,57.25,0,0,1,15.47,15.33c2,2.8,6.44.41,4.7-2.67C580.35,185.55,564.42,177.09,552.79,173.62Z" style="fill:#3c3c3b"/><path d="M571.89,260.74c-4.65,4.16-9.77,7.74-14.57,11.72a.28.28,0,0,0,.27.47c10.08-3.78,27.07-12,29.1-23.93a1.76,1.76,0,0,0-2.93-1.68C579.27,251.18,576.41,256.68,571.89,260.74Z" style="fill:#3c3c3b"/><path d="M541.44,251.63a.34.34,0,0,0,.33.56c5.39-1.66,10.26-4.67,15.28-7.19a57.22,57.22,0,0,1,21-5.7c3.42-.31,3.59-5.37,0-5.41C565.57,233.77,550.26,243.32,541.44,251.63Z" style="fill:#3c3c3b"/><path d="M626.56,278.69c1.28,6.09,1.83,12.31,2.88,18.45a.28.28,0,0,0,.54,0c1.76-10.6,3.14-29.4-6.21-37.12a1.75,1.75,0,0,0-2.91,1.69C622,267.53,625.31,272.75,626.56,278.69Z" style="fill:#3c3c3b"/><path d="M603.44,300.46a.34.34,0,0,0,.65,0c1.26-5.49,1.08-11.2,1.41-16.81a57,57,0,0,1,5.57-21c1.44-3.11-2.86-5.78-4.67-2.73C600,270.67,600.64,288.68,603.44,300.46Z" style="fill:#3c3c3b"/><path d="M669.47,240.4c5.93,1.93,11.6,4.58,17.45,6.73a.28.28,0,0,0,.27-.47c-8.32-6.81-23.94-17.41-35.31-13.19a1.76,1.76,0,0,0,0,3.37C657.49,238.79,663.69,238.51,669.47,240.4Z" style="fill:#3c3c3b"/><path d="M676.8,271.27a.34.34,0,0,0,.33-.56c-4.14-3.84-9.18-6.54-13.88-9.63a57.2,57.2,0,0,1-15.47-15.33c-2-2.8-6.45-.42-4.7,2.67C649.24,259.33,665.18,267.8,676.8,271.27Z" style="fill:#3c3c3b"/><path d="M657.71,184.14c4.65-4.16,9.77-7.73,14.57-11.71A.28.28,0,0,0,672,172c-10.06,3.78-27.07,12-29.1,23.93a1.76,1.76,0,0,0,2.93,1.67C650.33,193.71,653.18,188.2,657.71,184.14Z" style="fill:#3c3c3b"/><path d="M688.16,193.25a.35.35,0,0,0-.33-.57c-5.4,1.66-10.26,4.68-15.29,7.19a57.06,57.06,0,0,1-21,5.71c-3.41.31-3.58,5.37,0,5.4C664,211.1,679.34,201.56,688.16,193.25Z" style="fill:#3c3c3b"/><path d="M182.54,167.07c0,30.58-18.5,55.37-41.31,55.37s-41.31-24.79-41.31-55.37c0-16.86,5.63-32,14.5-42.13,7.21-8.26,16.58,8.79,26.81,8.79,10.46,0,20-16.83,27.29-8.23C177.12,135.66,182.54,150.52,182.54,167.07Z" style="fill:#fcd310"/><path d="M113.85,159c26.53,15.29,38.79,43.67,27.38,63.4s-42.16,23.32-68.69,8c-14.63-8.44-24.92-20.85-29.3-33.6-3.56-10.37,15.92-9.94,21-18.78,5.23-9-4.59-25.72,6.51-27.71C83.88,148,99.49,150.77,113.85,159Z" style="fill:#fcd310"/><path d="M72.54,214.41c26.53-15.29,57.28-11.69,68.69,8s-.85,48.11-27.39,63.4C99.22,294.27,83.3,297,70.05,294.37c-10.77-2.11-.66-18.73-5.78-27.58-5.23-9-24.6-8.9-20.78-19.48C48,234.81,58.18,222.69,72.54,214.41Z" style="fill:#fcd310"/><path d="M99.92,277.81c0-30.58,18.49-55.37,41.31-55.37s41.3,24.79,41.3,55.37c0,16.86-5.62,32-14.49,42.13-7.22,8.27-16.58-8.79-26.82-8.79-10.46,0-20,16.82-27.29,8.23C105.34,309.23,99.92,294.37,99.92,277.81Z" style="fill:#fcd310"/><path d="M168.61,285.84c-26.53-15.29-38.79-43.67-27.38-63.4s42.16-23.32,68.69-8c14.63,8.43,24.92,20.84,29.3,33.59,3.56,10.38-15.92,9.94-21,18.79-5.23,9,4.59,25.72-6.51,27.71C198.58,296.86,183,294.11,168.61,285.84Z" style="fill:#fcd310"/><path d="M209.92,230.47c-26.53,15.29-57.28,11.69-68.69-8s.86-48.11,27.39-63.39c14.63-8.43,30.54-11.12,43.79-8.54,10.78,2.11.67,18.72,5.78,27.58,5.23,9,24.61,8.9,20.79,19.48C234.47,210.07,224.28,222.19,209.92,230.47Z" style="fill:#fcd310"/><path d="M141.24,260.89a38.44,38.44,0,1,1,38.51-38.44A38.52,38.52,0,0,1,141.24,260.89Z" style="fill:#fcd310"/><path d="M141.24,188.44a34,34,0,1,1-34.07,34,34,34,0,0,1,34.07-34m0-8.85a42.87,42.87,0,1,0,42.94,42.86,42.95,42.95,0,0,0-42.94-42.86Z" style="fill:#3c3c3b"/><ellipse cx="141.24" cy="222.45" rx="15.9" ry="15.87" style="fill:#3c3c3b"/><path d="M129.47,166.2c-1.29-6.09-1.83-12.32-2.88-18.45a.28.28,0,0,0-.54,0c-1.76,10.6-3.14,29.4,6.21,37.12a1.76,1.76,0,0,0,2.91-1.69C134.07,177.35,130.72,172.14,129.47,166.2Z" style="fill:#3c3c3b"/><path d="M152.59,144.43a.34.34,0,0,0-.66,0c-1.26,5.49-1.07,11.21-1.41,16.81a56.93,56.93,0,0,1-5.57,21c-1.44,3.12,2.87,5.78,4.68,2.73C156,174.22,155.39,156.2,152.59,144.43Z" style="fill:#3c3c3b"/><path d="M86.56,204.49c-5.93-1.93-11.6-4.58-17.45-6.73a.28.28,0,0,0-.27.46c8.31,6.82,23.94,17.41,35.31,13.19a1.76,1.76,0,0,0,0-3.37C98.53,206.09,92.34,206.38,86.56,204.49Z" style="fill:#3c3c3b"/><path d="M79.23,173.62a.34.34,0,0,0-.33.57c4.13,3.83,9.18,6.53,13.88,9.62a57.23,57.23,0,0,1,15.47,15.33c2,2.8,6.44.41,4.7-2.67C106.79,185.55,90.85,177.09,79.23,173.62Z" style="fill:#3c3c3b"/><path d="M98.32,260.74c-4.65,4.16-9.77,7.74-14.57,11.72a.28.28,0,0,0,.27.47c10.07-3.78,27.07-12,29.1-23.93a1.76,1.76,0,0,0-2.92-1.68C105.7,251.18,102.84,256.68,98.32,260.74Z" style="fill:#3c3c3b"/><path d="M67.87,251.63a.34.34,0,0,0,.33.56c5.4-1.66,10.26-4.67,15.29-7.19a57.21,57.21,0,0,1,21-5.7c3.42-.31,3.58-5.37,0-5.41C92,233.77,76.69,243.32,67.87,251.63Z" style="fill:#3c3c3b"/><path d="M153,278.69c1.29,6.09,1.83,12.31,2.88,18.45a.28.28,0,0,0,.54,0c1.76-10.6,3.14-29.4-6.21-37.12a1.75,1.75,0,0,0-2.91,1.69C148.39,267.53,151.74,272.75,153,278.69Z" style="fill:#3c3c3b"/><path d="M129.87,300.46a.34.34,0,0,0,.65,0c1.26-5.49,1.08-11.2,1.41-16.81a57,57,0,0,1,5.57-21c1.44-3.11-2.86-5.78-4.67-2.73C126.45,270.67,127.07,288.68,129.87,300.46Z" style="fill:#3c3c3b"/><path d="M195.91,240.4c5.93,1.93,11.6,4.58,17.45,6.73a.28.28,0,0,0,.27-.47c-8.32-6.81-23.94-17.41-35.31-13.19a1.76,1.76,0,0,0,0,3.37C183.93,238.79,190.13,238.51,195.91,240.4Z" style="fill:#3c3c3b"/><path d="M203.24,271.27a.34.34,0,0,0,.33-.56c-4.14-3.84-9.18-6.54-13.88-9.63a57.22,57.22,0,0,1-15.47-15.33c-2-2.8-6.45-.42-4.7,2.67C175.68,259.33,191.61,267.8,203.24,271.27Z" style="fill:#3c3c3b"/><path d="M184.14,184.14c4.65-4.16,9.77-7.73,14.57-11.71a.28.28,0,0,0-.28-.46c-10.07,3.78-27.07,12-29.1,23.93a1.76,1.76,0,0,0,2.93,1.67C176.76,193.71,179.61,188.2,184.14,184.14Z" style="fill:#3c3c3b"/><path d="M214.6,193.25a.34.34,0,0,0-.33-.57c-5.4,1.66-10.26,4.68-15.29,7.19a57.06,57.06,0,0,1-21,5.71c-3.41.31-3.58,5.37,0,5.4C190.46,211.1,205.78,201.56,214.6,193.25Z" style="fill:#3c3c3b"/></g><path d="M422,565.32c-4.79-8.7-42.81-56.54-44.91-56.54s-40.12,47.85-44.9,56.54-19.28,35.77-7,59.18,48.67-2,51.91-13.38c3.24,11.37,39.64,36.79,51.91,13.38S426.79,574,422,565.32Z" style="fill:#3c3c3b"/><path d="M363.53,438.38c-3.22-11.43-17.8-11.94-30-10.45,6.39-8.12,11.81-19.13,5.29-25.8-8.06-8.26-19.5-4.33-27.76,3,1.74-9.6-.22-20.32-7.6-24.57-11-6.34-20.77,6.54-27.48,18.32-.59-14-6.4-29-21.43-26.84-10,1.46-14.61,8.66-16.3,17.49-2.79-5.89-6.81-10.22-13-10.4-17.81-.53-17.26,16.91-11.11,29.74-8.41-8.62-19.85-16.24-30.14-6.75-7.89,7.28-4.28,17.34,1.61,25.28-11.2-2.46-24.29-2.77-31.15,5.67-11.16,13.72,6.28,21.62,17.06,27.74-13.71,3.2-33,9.65-30.94,25.56,1.67,12.61,15.32,14,27.28,11.86-8.7,6.77-17.21,15-13.3,25.41,3.38,9,14.8,7.91,24,4.52-4.69,9.86-7.61,22.63,1.16,28.84,10.34,7.32,19.52.94,25.34-7.93,1.94,11.11,7.23,20.85,20.9,21,8,.06,11.35-6.12,12.77-13.39,3.62,10.11,11.2,19,21,16.16,8-2.32,10-10.63,9.61-19,9,8.8,22.61,14.16,32.63,6.67s3.56-22-2.75-33c11.69,5.19,24.34,9.52,31.3-5.28,4.39-9.33-1.39-19.34-8.78-27.42a57.64,57.64,0,0,0,11-.55c7.2-.93,16.17-3.81,20.3-10.31,6.75-10.62.72-20-8.48-24.67C356.35,456.91,366.94,450.52,363.53,438.38Zm-19.26,12.75c-6.77,1.62-13.55-.22-20.32-.09-4.67.08-5.42,6.55-1.08,8a40.65,40.65,0,0,0,13.95,1.27c11,4.71,20.37,16.35,6.7,24.31-5,2.91-11.71,2.95-17.28,2.63-4.4-.25-8.77-2.55-13.1-2a2.37,2.37,0,0,0-1,.44c-1.14-.95-2.23-1.82-3.24-2.6-3.47-2.71-7.74,1.39-4.86,4.85,6.66,8,15.79,13.91,19.84,23.9,2.41,6-1,13.15-8.31,13.75-3.63.3-8.34-2-11.47-3.45-4.25-1.93-8.28-4.22-12.66-5.87-3-1.13-5.63,2.74-4.07,5.28,4.8,7.8,10.07,15.36,12.49,24.3,2.67,9.87-6.17,13.27-14.31,10.71-7.52-2.36-16.17-9.56-18.83-17.09-1.29-3.64-7.12-2.08-5.82,1.6,1.74,4.93,6,27-4.66,25.21-13.27-2.16-10.33-20.63-16.53-28.87-.6-3.78-6.73-3.6-6.72.57,0,6.72,2,21.52-5.83,24.78-14.7,6.13-16.41-18.32-16.44-26.3,0-3.74-5.42-4.42-6.46-.87a43,43,0,0,1-4.87,10.75c-4.82,7.79-17.29,10.11-18-1.58-.48-7.8,3.95-16.42,8.22-22.67,1.75-2.57-1.77-6.2-4.35-4.34-6.67,4.81-32.28,10.9-22.73-5.17,4.67-7.85,13.66-12.88,20.08-19.16,2.14-2.09-.59-5.51-3.15-4.07-8.38,4.7-36.28,8.11-33.17-8.06,2.06-10.72,22.31-16,31.43-17,1.9-.21,3.33-2.49,1.67-4-5.85-5.47-33-15.65-17-25.58,8.66-5.39,24-1,32.8,2.2,3.2,1.16,5.17-3.17,3.13-5.36-5-5.35-10.55-12.26-11.22-19.82-.94-10.57,15.78-4.53,19.28-2.33,4.68,2.94,8.63,7.6,12.53,11.48a2,2,0,0,0,3.48-1.15,1.19,1.19,0,0,0,1.18-2c-5.26-5.42-7.4-13.69-8.16-21-1.18-11.35,10.27-15.82,16.24-6.27,5.62,9,6.08,20.43,8.93,30.39,1,3.47,6.34,2,5.41-1.49-.1-.39-.21-.81-.31-1.21-.77-3.15-1.47-7.43-2.39-12-1.2-9.23-.73-19,4.83-25.67,8.22-9.8,18.43.37,21,8.74a40.5,40.5,0,0,1-.51,24c-1.09,3.23,3.77,5.15,5.42,2.28,5.82-10.17,9.21-23.06,19.57-29.77,12.14-7.86,12.88,10.24,11.69,16.83-1,5.46-3.62,10.29-5.66,15.37A2,2,0,0,0,301,420.7a1.64,1.64,0,0,0,2.78,1.32c4-4.31,7.25-8.94,12.07-12.53,3.94-2.93,19.49-8.62,17.84,1.57-1.26,7.84-8,15.26-14,20-3.39,2.63.39,7.25,3.82,6.56,9-1.83,21.16-4,29.9-.05C362.43,441.65,348.25,450.18,344.27,451.13Z" style="fill:#e516c1"/><path d="M284,408.89s54.41,8.64,43.39,61.74-41.32,71-76.27,76-59.08,5.55-71.45-26.56-16.08-50.63-5.57-72.24,45.16-31.49,52-34S260.32,405.8,284,408.89Z" style="fill:#3c3c3b"/><path d="M406,459.28c-9.2,4.65-15.23,14.06-8.48,24.67,4.13,6.5,13.1,9.38,20.3,10.31a57.62,57.62,0,0,0,11,.55c-7.39,8.08-13.17,18.09-8.78,27.42,7,14.8,19.61,10.47,31.3,5.28-6.3,11-12.78,25.52-2.75,33s23.61,2.12,32.63-6.67c-.38,8.33,1.64,16.65,9.61,19,9.79,2.84,17.37-6.05,21-16.16,1.43,7.28,4.82,13.45,12.78,13.39,13.67-.1,19-9.84,20.9-21,5.82,8.86,15,15.25,25.34,7.93,8.78-6.21,5.85-19,1.16-28.84,9.24,3.39,20.66,4.49,24-4.52,3.91-10.42-4.6-18.64-13.3-25.41,12,2.14,25.61.75,27.28-11.86,2.11-15.92-17.23-22.36-30.94-25.56,10.78-6.12,28.21-14,17.06-27.74-6.86-8.44-19.95-8.13-31.15-5.67,5.89-7.94,9.51-18,1.61-25.28-10.29-9.49-21.72-1.87-30.14,6.75,6.15-12.83,6.7-30.27-11.11-29.74-6.17.18-10.19,4.51-13,10.4-1.69-8.83-6.3-16-16.3-17.49-15-2.19-20.83,12.83-21.43,26.84-6.71-11.78-16.47-24.66-27.48-18.32-7.38,4.25-9.34,15-7.6,24.57-8.26-7.38-19.7-11.31-27.76-3-6.51,6.68-1.09,17.68,5.29,25.8-12.2-1.49-26.78-1-30,10.45C383.69,450.52,394.28,456.91,406,459.28Zm-8.77-21.76c8.73-4,20.86-1.78,29.89.05,3.44.7,7.22-3.93,3.83-6.56-6-4.69-12.78-12.11-14-20-1.64-10.2,13.9-4.51,17.84-1.57,4.82,3.59,8,8.22,12.07,12.53a1.64,1.64,0,0,0,2.78-1.32,2,2,0,0,0,1.47-2.76c-2-5.08-4.68-9.91-5.66-15.37-1.19-6.6-.45-24.7,11.69-16.83,10.36,6.71,13.75,19.6,19.57,29.77,1.64,2.87,6.51.95,5.41-2.28a40.53,40.53,0,0,1-.51-24c2.59-8.37,12.8-18.54,21-8.74,5.56,6.63,6,16.44,4.83,25.67-.92,4.57-1.62,8.85-2.39,12-.1.41-.21.82-.31,1.21-.93,3.5,4.42,5,5.41,1.49,2.85-10,3.31-21.41,8.93-30.39,6-9.54,17.42-5.07,16.24,6.27-.76,7.32-2.89,15.58-8.16,21a1.19,1.19,0,0,0,1.18,2,2,2,0,0,0,3.48,1.15c3.9-3.87,7.85-8.53,12.53-11.48,3.51-2.2,20.23-8.24,19.29,2.33-.67,7.56-6.25,14.47-11.22,19.82-2,2.19-.07,6.53,3.13,5.36,8.79-3.2,24.15-7.59,32.81-2.2,15.94,9.93-11.19,20.11-17,25.58-1.66,1.54-.23,3.83,1.67,4,9.12,1,29.37,6.29,31.43,17,3.11,16.17-24.79,12.75-33.17,8.06-2.55-1.43-5.29,2-3.15,4.07,6.42,6.27,15.41,11.3,20.08,19.16,9.55,16.07-16.06,10-22.73,5.17-2.58-1.86-6.11,1.78-4.35,4.34,4.27,6.25,8.7,14.88,8.22,22.67-.71,11.68-13.18,9.37-18,1.58a43.09,43.09,0,0,1-4.87-10.75c-1-3.55-6.44-2.87-6.46.87,0,8-1.74,32.43-16.44,26.3-7.82-3.26-5.84-18.07-5.83-24.78,0-4.17-6.12-4.35-6.72-.57-6.2,8.24-3.26,26.71-16.53,28.87-10.7,1.74-6.4-20.29-4.66-25.21,1.3-3.68-4.53-5.24-5.82-1.6-2.66,7.52-11.32,14.73-18.83,17.09-8.14,2.55-17-.85-14.31-10.71,2.42-8.94,7.69-16.5,12.49-24.3,1.56-2.54-1-6.41-4.07-5.28-4.38,1.64-8.41,3.93-12.66,5.87-3.13,1.42-7.84,3.75-11.47,3.45-7.3-.6-10.73-7.8-8.32-13.75,4.05-10,13.18-15.89,19.84-23.9,2.88-3.46-1.39-7.56-4.86-4.85-1,.78-2.1,1.65-3.24,2.6a2.35,2.35,0,0,0-1-.44c-4.33-.6-8.7,1.7-13.1,2-5.58.32-12.29.29-17.28-2.63-13.67-8-4.25-19.6,6.7-24.31A40.65,40.65,0,0,0,427.76,459c4.34-1.41,3.6-7.88-1.08-8-6.77-.13-13.54,1.71-20.32.09C402.38,450.18,388.21,441.65,397.26,437.52Z" style="fill:#e516c1"/><path d="M467.78,408.89s-54.41,8.64-43.39,61.74,41.32,71,76.27,76,59.08,5.55,71.45-26.56,16.08-50.63,5.57-72.24-45.15-31.49-52-34S491.48,405.8,467.78,408.89Z" style="fill:#3c3c3b"/><path d="M377.1,728.46h0l-134.27-.91.18-3.49c.17-3.48.65-7.34,1.15-11.43,3.51-28.47,8.31-67.46-69.5-83.23-30.72-6.22-52-19.36-63.17-39-16-28.14-5.45-59-5-60.34l.25-.54c2.87-5.68,4.59-30.47-9.7-83.1A280.53,280.53,0,0,1,93.8,314c10.07-46.43,31.21-89.33,62.84-127.47,61.84-74.59,150.3-84.16,220.46-84.16s158.62,9.57,220.46,84.16c31.63,38.14,52.77,81,62.84,127.47a280.55,280.55,0,0,1-3.22,132.39c-14.29,52.63-12.57,77.41-9.66,83.17l.21.47c.46,1.31,11,32.2-5,60.34-11.2,19.67-32.45,32.81-63.17,39-77.81,15.76-73,54.76-69.5,83.23.5,4.09,1,8,1.15,11.43l.18,3.49Zm-127.16-7.55,127.16.86,127.16-.86c-.22-2.34-.53-4.85-.85-7.46-1.8-14.61-4-32.79,4.81-49.86,10.35-20,33.25-33.3,70-40.75C607,617,626.71,605,636.9,587.07c13.89-24.41,5.41-52,4.56-54.62-1.56-3.18-8.51-22.41,9.24-87.8a273.77,273.77,0,0,0,3.14-129.22C644,270,623.33,228.11,592.39,190.8c-60.06-72.45-146.6-81.73-215.3-81.73s-155.24,9.29-215.3,81.73c-30.93,37.31-51.61,79.25-61.45,124.63a273.73,273.73,0,0,0,3.14,129.22c17.74,65.37,10.8,84.61,9.24,87.8-.84,2.59-9.3,30.33,4.59,54.68C127.53,605,147.26,617,176,622.85c36.77,7.45,59.67,20.77,70,40.75,8.84,17.07,6.61,35.25,4.8,49.86C250.46,716.06,250.15,718.57,249.93,720.91Z" style="fill:#3c3c3b"/><path d="M377.11,731.74h0l-137.72-.93.35-6.91c.18-3.59.66-7.5,1.17-11.64,3.54-28.74,7.95-64.48-66.89-79.65-31.69-6.42-53.68-20.08-65.37-40.62-16.69-29.34-5.71-61.67-5.24-63l.36-.82c2.22-4.41,4.66-27.29-9.88-80.88a283.8,283.8,0,0,1-3.26-133.94c10.19-47,31.56-90.32,63.52-128.87,62.71-75.64,152.11-85.34,223-85.34s160.28,9.7,223,85.34c32,38.55,53.33,81.91,63.52,128.87a283.84,283.84,0,0,1-3.26,133.94c-14.55,53.59-12.08,76.52-9.9,80.83l.37.86c.48,1.36,11.49,33.65-5.23,63-11.69,20.54-33.68,34.21-65.37,40.62-74.84,15.16-70.43,50.9-66.9,79.62.52,4.17,1,8.08,1.18,11.67l.35,6.9ZM246.25,724.3l130.83.89,130.85-.89v-.07c-.17-3.36-.64-7.15-1.13-11.17-3.46-28.09-8.69-70.5,72.11-86.86,29.75-6,50.26-18.63,61-37.44,14.94-26.26,5.61-55.11,4.79-57.52l-.15-.34c-3.26-6.45-5-31.88,9.49-85.36a277.23,277.23,0,0,0,3.18-130.84c-10-45.92-30.88-88.34-62.16-126.08-61-73.54-148.49-83-217.93-83s-157,9.43-217.93,83C127.88,226.35,107,268.78,97,314.7a277.19,277.19,0,0,0,3.19,130.84C114.7,499,113,524.4,109.65,531l-.12.27c-.83,2.47-10.1,31.34,4.79,57.51,10.71,18.82,31.22,31.41,61,37.44C256.08,642.56,250.85,685,247.39,713c-.5,4-1,7.84-1.14,11.2Zm130.86.75-130.79-.88.33-3.56c.22-2.34.53-4.85.85-7.45,1.76-14.27,3.93-31.88-4.45-48.06-9.86-19-32-31.8-67.75-39-29.67-6-50.14-18.57-60.84-37.32-14.52-25.45-5.89-54.12-4.86-57.31l.18-.43c.91-1.85,8.33-19.94-9.46-85.5a277,277,0,0,1-3.18-130.77c10-45.9,30.86-88.3,62.13-126,60.93-73.49,148.41-82.92,217.82-82.92S534,115.21,594.92,188.7c31.27,37.72,52.18,80.13,62.13,126a277.06,277.06,0,0,1-3.18,130.77c-17.8,65.58-10.37,83.65-9.46,85.5l.17.43c1,3.18,9.69,31.73-4.82,57.26-10.69,18.78-31.17,31.35-60.88,37.38-35.73,7.24-57.89,20-67.75,39-8.38,16.16-6.21,33.78-4.46,47.94l0,.32c.31,2.53.61,5,.82,7.24l.33,3.56Zm-123.54-7.39,123.54.84,123.49-.84c-.13-1.14-.28-2.3-.42-3.49l0-.31c-1.86-15.06-4.16-33.8,5.15-51.76,10.83-20.9,34.47-34.79,72.28-42.45,27.76-5.63,46.77-17.13,56.47-34.19,12.87-22.62,5.54-48.08,4.35-51.79-2.41-5.16-8.19-26.05,9.13-89.87a270.43,270.43,0,0,0,3.11-127.67c-9.73-44.86-30.18-86.33-60.77-123.23-59.18-71.39-144.8-80.54-212.77-80.54s-153.59,9.15-212.77,80.54c-30.6,36.91-51,78.37-60.78,123.23a270.48,270.48,0,0,0,3.11,127.67c17.31,63.79,11.54,84.7,9.13,89.86-1.18,3.74-8.48,29.3,4.38,51.85,9.72,17,28.71,28.51,56.44,34.14,37.8,7.66,61.44,21.54,72.28,42.45,9.31,18,7,36.71,5.15,51.77C253.88,715.16,253.72,716.43,253.58,717.66Z" style="fill:#3c3c3b"/><path d="M257.79,715.72s-1-11.48-7.15-13.64-9.38,3.06-8.93,14.91,1.79,20.11,12.51,21.33S257.79,715.72,257.79,715.72Z" style="fill:#f9efe1"/><path d="M255,740.38h0a8.24,8.24,0,0,1-1-.06c-12.46-1.42-13.84-11.36-14.29-23.25-.28-7.51.89-12.68,3.47-15.36,2-2.1,4.91-2.65,8.14-1.52,6.83,2.41,8.25,13.13,8.46,15.15.71,2.41,4.67,16.78.4,22.51A6.2,6.2,0,0,1,255,740.38Zm-6.86-36.76a2.69,2.69,0,0,0-2.06.88c-1,1-2.67,4.06-2.35,12.42.48,12.63,2.14,18.43,10.73,19.41a4.94,4.94,0,0,0,.54,0h0a2.22,2.22,0,0,0,2-.9c2.43-3.25.63-13.48-1.08-19.16l-.08-.39c-.26-2.84-1.82-10.52-5.82-11.92A5.61,5.61,0,0,0,248.14,703.62Z" style="fill:#3c3c3b"/><path d="M377.06,731.08s.38,7.58-6.25,7.58H344s-7.6,0-5.36-12.5,8-32.1,19.19-32.1C377.44,694.06,377.06,731.08,377.06,731.08Z" style="fill:#f9efe1"/><path d="M370.81,740.66H344a7.52,7.52,0,0,1-5.49-2.74c-2.2-2.63-2.82-6.7-1.85-12.11,1.82-10.15,7.52-33.75,21.17-33.75a15.43,15.43,0,0,1,11.29,4.77c10.07,10.16,10,33.29,9.94,34.27,0,.34.14,4.5-2.5,7.27A7.71,7.71,0,0,1,370.81,740.66Zm-13-44.59c-8.68,0-14.58,15.73-17.21,30.45-.74,4.13-.4,7.18,1,8.83a3.63,3.63,0,0,0,2.4,1.31h26.81a3.71,3.71,0,0,0,2.85-1.05,6.84,6.84,0,0,0,1.39-4.43c0-.34.11-22.56-8.79-31.53A11.37,11.37,0,0,0,357.84,696.07Z" style="fill:#3c3c3b"/><path d="M314.83,716.36s1-13.83-8.79-22.3-13,7.13-13,13.38-1.34,27.65,2.68,31.21S314.25,738.66,314.83,716.36Z" style="fill:#f9efe1"/><path d="M299.53,741.86h0a7.63,7.63,0,0,1-5.09-1.7c-3.4-3-3.83-12.79-3.43-28.64,0-1.66.08-3.07.08-4.08,0-4.63,1.79-17.85,9.73-17.85,2.07,0,4.28,1,6.55,3,10.48,9,9.53,23.36,9.49,24C316.31,736.54,305.28,741.86,299.53,741.86Zm1.28-48.26c-3.48,0-5.71,8.2-5.71,13.84,0,1,0,2.47-.08,4.18-.16,6.34-.58,23.17,2.08,25.54a3.81,3.81,0,0,0,2.42.69h0c5.12,0,12.88-5.73,13.3-21.54,0-.22.82-13-8.1-20.73A6.71,6.71,0,0,0,300.8,693.6Z" style="fill:#3c3c3b"/><path d="M340.19,719s3.82-22.68-4.22-28-26.81,28.09-23.68,43.7C312.29,734.64,337.71,749.69,340.19,719Z" style="fill:#f9efe1"/><path d="M325.11,740.33h0c-7.06,0-13.57-3.8-13.84-4l-.77-.46-.18-.88c-2.2-11,5.51-29.92,13.8-40,3.62-4.41,7-6.65,9.93-6.65a5.37,5.37,0,0,1,3,.91c8.77,5.84,5.57,27.12,5.1,30C340.75,736.67,332.11,740.33,325.11,740.33Zm-11-7a26.13,26.13,0,0,0,11,3c7.74,0,12.14-5.89,13.08-17.5l0-.17c1.39-8.28,1.71-22.67-3.35-26a1.37,1.37,0,0,0-.8-.24c-.6,0-2.87.37-6.82,5.18C319.76,706.66,312.78,723.56,314.11,733.34Z" style="fill:#3c3c3b"/><path d="M292.87,715.72l-6.49-13.64s-6.7-7.58-7.59,1.78a196.88,196.88,0,0,1-4,22.29s-2.68,8.48,5.36,8.48S294,737.83,292.87,715.72Z" style="fill:#f9efe1"/><path d="M285.15,736.81h0c-.76,0-1.56,0-2.4-.08s-1.72-.08-2.62-.08c-3.62,0-5.49-1.51-6.42-2.77-2.28-3.11-1.12-7.46-.89-8.24a195.23,195.23,0,0,0,4-22c.54-5.66,3.28-6.5,4.87-6.5,2.92,0,5.71,3,6.24,3.57l.19.21,6.78,14.25,0,.4c.53,10.39-.4,16-3.09,18.87C289.84,736.53,287.34,736.81,285.15,736.81Zm-3.49-35.61s-.64.45-.87,2.87a197.14,197.14,0,0,1-4.07,22.57l0,.13c-.25.8-.73,3.39.27,4.75.55.74,1.62,1.12,3.17,1.12,1,0,1.91,0,2.82.09s1.5.07,2.2.07h0c1.95,0,3-.3,3.72-1.07,1.76-1.85,2.42-6.92,2-15.5l-6.18-13C283.75,702.23,282.34,701.2,281.66,701.2Z" style="fill:#3c3c3b"/><path d="M276.75,717s-3.32-8.22-8.68-12.68-9.82-1.71-10.27,11.41.56,20.33,9.48,19.08S275.64,723.14,276.75,717Z" style="fill:#f9efe1"/><path d="M265.4,736.95h0a8.39,8.39,0,0,1-6.28-2.41c-3.21-3.32-3.65-9.44-3.33-18.87.43-12.68,4.54-15.33,7.91-15.33a9,9,0,0,1,5.66,2.45c5.68,4.73,9.12,13.11,9.26,13.47l.22.54-.1.57c-.18,1-.31,2.12-.46,3.33-.71,5.91-1.79,14.86-10.72,16.11A15.52,15.52,0,0,1,265.4,736.95Zm-1.71-32.61c-1.61,0-3.6,3-3.89,11.45-.27,7.93,0,13.68,2.21,16a4.3,4.3,0,0,0,3.39,1.19h0a12.47,12.47,0,0,0,1.59-.12c5.45-.77,6.45-5.71,7.29-12.62.12-1,.24-2,.39-3-.79-1.79-3.72-7.92-7.89-11.39A5.5,5.5,0,0,0,263.7,704.34Z" style="fill:#3c3c3b"/><path d="M496.4,715.72s1-11.48,7.15-13.64,9.38,3.06,8.94,14.91S510.7,737.11,500,738.33,496.4,715.72,496.4,715.72Z" style="fill:#f9efe1"/><path d="M499.2,740.38a6.21,6.21,0,0,1-5.18-2.52c-4.28-5.73-.32-20.1.39-22.51.21-2,1.63-12.74,8.46-15.15,3.23-1.13,6.12-.58,8.14,1.52,2.59,2.68,3.75,7.85,3.47,15.36C514,729,512.66,738.9,500.2,740.32A8.27,8.27,0,0,1,499.2,740.38Zm6.85-36.76a5.62,5.62,0,0,0-1.84.36c-4,1.4-5.57,9.28-5.82,11.92l-.07.39c-1.7,5.69-3.5,15.91-1.08,19.16a2.45,2.45,0,0,0,2.5.87c8.59-1,10.25-6.78,10.72-19.41.31-8.36-1.34-11.37-2.35-12.42A2.71,2.71,0,0,0,506.05,703.62Z" style="fill:#3c3c3b"/><path d="M377.12,731.08s-.37,7.58,6.26,7.58h26.8s7.59,0,5.36-12.5-8-32.1-19.19-32.1C376.75,694.06,377.12,731.08,377.12,731.08Z" style="fill:#f9efe1"/><path d="M410.19,740.66H383.38a7.73,7.73,0,0,1-5.77-2.29c-2.65-2.78-2.52-6.93-2.5-7.39,0-.86-.13-24,9.94-34.15a15.42,15.42,0,0,1,11.29-4.77c13.66,0,19.36,23.61,21.18,33.75,1,5.41.34,9.49-1.86,12.11A7.52,7.52,0,0,1,410.19,740.66Zm-13.83-44.59a11.38,11.38,0,0,0-8.43,3.58c-8.9,9-8.79,31.19-8.78,31.41a7,7,0,0,0,1.4,4.56,3.74,3.74,0,0,0,2.84,1h26.77a3.64,3.64,0,0,0,2.48-1.37c1.34-1.66,1.66-4.7.93-8.77C410.93,711.8,405,696.07,396.35,696.07Z" style="fill:#3c3c3b"/><path d="M439.36,716.36s-1-13.83,8.79-22.3,13,7.13,13,13.38,1.34,27.65-2.68,31.21S439.94,738.66,439.36,716.36Z" style="fill:#f9efe1"/><path d="M454.67,741.86c-5.76,0-16.79-5.32-17.32-25.45,0-.5-1-14.84,9.49-23.87,2.27-2,4.47-3,6.55-3,7.94,0,9.73,13.22,9.73,17.85,0,1,0,2.41.08,4.08.4,15.85,0,25.62-3.43,28.64A7.62,7.62,0,0,1,454.67,741.86Zm-1.28-48.26a6.72,6.72,0,0,0-3.92,2c-8.91,7.68-8.11,20.5-8.1,20.63.42,15.9,8.19,21.63,13.31,21.63a3.81,3.81,0,0,0,2.42-.69c2.66-2.37,2.24-19.2,2.09-25.54,0-1.7-.08-3.14-.08-4.18C459.1,701.8,456.87,693.6,453.39,693.6Z" style="fill:#3c3c3b"/><path d="M414,719s-3.81-22.68,4.22-28S445,719,441.9,734.64C441.9,734.64,416.48,749.69,414,719Z" style="fill:#f9efe1"/><path d="M429.09,740.33c-7,0-15.64-3.66-17.08-21.11-.47-2.83-3.67-24.11,5.1-30a5.36,5.36,0,0,1,3-.91c3,0,6.31,2.24,9.93,6.65,8.3,10.1,16,29,13.81,40l-.18.88-.77.46C442.65,736.53,436.14,740.33,429.09,740.33Zm-8.95-48a1.37,1.37,0,0,0-.8.24c-5.06,3.37-4.75,17.75-3.36,26l0,.17c.94,11.61,5.34,17.5,13.08,17.5a26.05,26.05,0,0,0,11-3c1.33-9.79-5.65-26.69-13.12-35.79C423,692.75,420.74,692.37,420.14,692.37Z" style="fill:#3c3c3b"/><path d="M461.32,715.72l6.49-13.64s6.7-7.58,7.59,1.78a197.71,197.71,0,0,0,4,22.29s2.68,8.48-5.36,8.48S460.2,737.83,461.32,715.72Z" style="fill:#f9efe1"/><path d="M469,736.81c-2.19,0-4.69-.28-6.64-2.32-2.7-2.83-3.62-8.48-3.09-18.87l0-.4L466.11,701l.19-.21c.53-.6,3.31-3.57,6.24-3.57,1.58,0,4.33.84,4.87,6.5a195.77,195.77,0,0,0,4,22c.24.78,1.39,5.14-.89,8.24-.93,1.26-2.79,2.77-6.42,2.77-.9,0-1.78,0-2.62.08S469.81,736.81,469,736.81Zm-5.73-20.58c-.41,8.58.25,13.65,2,15.5.73.77,1.78,1.07,3.72,1.07.7,0,1.44,0,2.21-.07s1.84-.09,2.81-.09c1.56,0,2.62-.38,3.17-1.13,1-1.39.47-4.09.27-4.74l0-.13a197.72,197.72,0,0,1-4.07-22.57c-.23-2.41-.83-2.86-.83-2.86-.76,0-2.22,1.12-3.08,2Z" style="fill:#3c3c3b"/><path d="M477.44,717s3.32-8.22,8.68-12.68,9.83-1.71,10.28,11.41-.56,20.33-9.48,19.08S478.55,723.14,477.44,717Z" style="fill:#f9efe1"/><path d="M488.79,736.95a15.51,15.51,0,0,1-2.15-.16c-8.93-1.25-10-10.2-10.72-16.11-.14-1.2-.28-2.34-.46-3.33l-.1-.57.22-.54c.14-.36,3.57-8.74,9.26-13.47a9,9,0,0,1,5.66-2.45c3.37,0,7.48,2.66,7.91,15.33.32,9.44-.12,15.56-3.33,18.87A8.36,8.36,0,0,1,488.79,736.95Zm-9.27-19.7c.15.93.27,1.92.39,3,.83,6.91,1.84,11.85,7.29,12.62a12.43,12.43,0,0,0,1.59.12,4.3,4.3,0,0,0,3.39-1.19c2.21-2.28,2.47-8,2.21-16-.29-8.45-2.28-11.45-3.89-11.45a5.5,5.5,0,0,0-3.09,1.52C483.24,709.33,480.32,715.46,479.52,717.25Z" style="fill:#3c3c3b"/><path d="M253.69,741.09s-12.5-7.79-16-2.43-3.3,28.65,4.51,27.75S253.69,741.09,253.69,741.09Z" style="fill:#f9efe1"/><path d="M241.73,768.44h0c-1.61,0-3.9-.69-5.67-4-3.72-6.9-3.22-22.17-.09-26.92a6.47,6.47,0,0,1,5.79-2.78c5.51,0,12.68,4.43,13,4.62l1.12.7-.2,1.31c-.66,4.33-4.4,26-13.28,27C242.16,768.42,241.94,768.44,241.73,768.44Zm0-29.65c-1.6,0-2.16.56-2.43,1-2.19,3.31-2.83,17.06.27,22.81.67,1.23,1.38,1.85,2.13,1.85h.2c4.08-.47,8-13.1,9.55-22.29C249.11,740.81,244.79,738.78,241.77,738.78Z" style="fill:#3c3c3b"/><path d="M286.53,746.24s-4.17-3.79-12.21-2.78-8,9.92-8,9.92-4,28.09,4,30.32,10.11-11.19,10.11-11.19Z" style="fill:#f9efe1"/><path d="M272.06,786h0a8.49,8.49,0,0,1-2.28-.32c-9.17-2.55-6.25-27.13-5.51-32.4.05-3.74,2.15-10.81,9.8-11.77a22.67,22.67,0,0,1,2.91-.19c7,0,10.75,3.34,10.9,3.48l.87.79-6.35,27.35C282.21,774.09,280,786,272.06,786ZM277,745.29a21,21,0,0,0-2.41.15c-6.15.77-6.28,7.65-6.28,7.94l0,.27c-2.31,16.28-.45,27.26,2.58,28.11a4.59,4.59,0,0,0,1.21.18c4,0,6-7.22,6.38-9.74l0-.15,5.8-25A14.19,14.19,0,0,0,277,745.29Z" style="fill:#3c3c3b"/><path d="M362.32,794.4S347.14,785.48,348,755.6c0,0-2.23-9.37,14.29-9.37s14.74,7.14,14.74,7.14S376.62,795.73,362.32,794.4Z" style="fill:#f9efe1"/><path d="M363,796.44a7.58,7.58,0,0,1-.84,0l-.45,0-.38-.23c-.66-.38-16.13-9.82-15.29-40.35a8.68,8.68,0,0,1,1.78-6.64c2.57-3.25,7.46-4.9,14.53-4.9,7.82,0,13,1.56,15.41,4.64a6.14,6.14,0,0,1,1.33,4.68C379,758.68,378,796.44,363,796.44Zm-.66-48.19c-7.13,0-10.1,1.81-11.34,3.32a4.55,4.55,0,0,0-1,3.6l0,.23v.26c-.44,14.76,3.21,24,6.36,29.24a25.63,25.63,0,0,0,6.58,7.52c4.41,0,8-6.7,10.18-18.87a142.07,142.07,0,0,0,1.89-20.2l.06-.46a2.28,2.28,0,0,0-.63-1.64C373.54,750.13,370.7,748.24,362.32,748.24Z" style="fill:#3c3c3b"/><path d="M348.27,752.41s2-5.73-11.19-6.18-15.85-1-17.19,6.18-4,40.2,8.48,46S349,766.17,348.27,752.41Z" style="fill:#f9efe1"/><path d="M330.93,801h0a8.06,8.06,0,0,1-3.4-.78c-14.13-6.55-10.85-41.56-9.62-48.19,1.28-6.88,4.43-8,11-8,1.66,0,3.63.07,5.91.15l2.34.08c6.31.22,10.43,1.66,12.26,4.31a5.33,5.33,0,0,1,.89,4.06c.43,10.67-4.06,36.13-12.59,45.08C335.58,799.89,333.31,801,330.93,801Zm-2-53c-5.69,0-6.28.72-7,4.77-1.46,7.88-3.35,38.85,7.36,43.81a4,4,0,0,0,1.71.41h0a5.58,5.58,0,0,0,3.85-2.09c7.46-7.83,12-32.53,11.48-42.41l0-.38.13-.37a1.48,1.48,0,0,0-.34-1c-.52-.67-2.42-2.27-9-2.49l-2.35-.08C332.41,748.08,330.48,748,328.89,748Z" style="fill:#3c3c3b"/><path d="M319.16,758.21s-2.85-9.78-6-12.21-12.39-6.9-13.34,8.26,1,44,8.07,44.75S320.21,782.22,319.16,758.21Z" style="fill:#f9efe1"/><path d="M308.35,801h0c-.21,0-.42,0-.64,0-4.28-.46-7.16-6.57-8.82-18.69a155.32,155.32,0,0,1-1.05-28.18c.7-11,5.85-12.7,8.86-12.7,3.63,0,6.83,2.28,7.73,3,3.46,2.7,6.16,11.5,6.67,13.24l.08.47c.83,18.87-2.18,34.75-7.66,40.46A7.07,7.07,0,0,1,308.35,801Zm-1.66-55.58c-3.54,0-4.59,4.86-4.84,8.93-1.3,20.68,2.55,42.23,6.28,42.63h.22a3.25,3.25,0,0,0,2.25-1.21c3.76-3.92,7.4-17.24,6.56-37.27-1.13-3.8-3.45-9.58-5.21-11A9.62,9.62,0,0,0,306.7,745.46Z" style="fill:#3c3c3b"/><path d="M299.85,754.26s-2.45-12.41-10.86-9.78-12,35.64-4.39,42.33,16-6.32,15.64-10.7S299.85,754.26,299.85,754.26Z" style="fill:#f9efe1"/><path d="M289.13,790.7h0a8.72,8.72,0,0,1-5.85-2.37c-5.49-4.83-5.87-19.55-3.45-30.93,1-4.85,3.52-13.23,8.57-14.81a9.51,9.51,0,0,1,2.86-.46c8.15,0,10.48,11.28,10.57,11.76l0,.38c0,.18.06,17.45.38,21.71.21,2.78-1.9,7.3-4.9,10.52C294.77,789.24,291.93,790.7,289.13,790.7Zm2.13-44.57a5.54,5.54,0,0,0-1.66.28c-1.65.52-4.16,3.92-5.84,11.82-2.4,11.3-1.38,24,2.18,27.09a4.77,4.77,0,0,0,3.2,1.38h0c1.64,0,3.51-1,5.27-2.93,2.52-2.71,3.93-6.19,3.83-7.49-.31-4.19-.38-19.65-.39-21.77C297.56,753.31,295.66,746.13,291.25,746.13Z" style="fill:#3c3c3b"/><path d="M268.86,746.24s-.79-4.86-9.73-6.38-9.83,11.29-9.83,11.29-2.84,18.75,6.8,21.36S265.19,755.15,268.86,746.24Z" style="fill:#f9efe1"/><path d="M257.75,774.74h0a8.43,8.43,0,0,1-2.17-.3c-11-3-8.5-22-8.28-23.53.1-1.23,1.32-13.19,10.4-13.19a11,11,0,0,1,1.77.15c10.23,1.75,11.33,7.78,11.37,8l.09.56-.22.53a57.21,57.21,0,0,0-2.47,9.88C266.54,765.66,264.78,774.74,257.75,774.74Zm0-33c-5.66,0-6.38,9.45-6.39,9.55l0,.16c-.71,4.73-1.13,17.37,5.34,19.13a4.39,4.39,0,0,0,1.11.16c3.72,0,5.23-7.76,6.56-14.61a67.13,67.13,0,0,1,2.43-9.95c-.45-.94-2.13-3.35-7.94-4.34A7,7,0,0,0,257.7,741.73Z" style="fill:#3c3c3b"/><path d="M500.5,741.09s12.5-7.79,16-2.43,3.3,28.65-4.51,27.75S500.5,741.09,500.5,741.09Z" style="fill:#f9efe1"/><path d="M512.47,768.44c-.22,0-.44,0-.66,0-8.89-1-12.63-22.68-13.29-27l-.2-1.31,1.12-.7c.3-.19,7.47-4.62,13-4.62a6.47,6.47,0,0,1,5.79,2.78c3.14,4.75,3.64,20-.09,26.92C516.36,767.75,514.08,768.44,512.47,768.44Zm-9.76-26.31c1.58,9.18,5.47,21.82,9.55,22.29.85.1,1.6-.5,2.33-1.84,3.1-5.75,2.46-19.5.27-22.81-.28-.42-.83-1-2.43-1C509.4,738.78,505.09,740.81,502.71,742.13Z" style="fill:#3c3c3b"/><path d="M467.66,746.24s4.17-3.79,12.21-2.78,8,9.92,8,9.92,4,28.09-4,30.32-10.11-11.19-10.11-11.19Z" style="fill:#f9efe1"/><path d="M482.13,786c-8,0-10.14-11.86-10.34-13.06l-6.35-27.35.87-.79c.16-.14,3.91-3.48,10.9-3.48a22.68,22.68,0,0,1,2.91.19c7.65,1,9.75,8,9.8,11.77.74,5.27,3.67,29.85-5.51,32.4A8.48,8.48,0,0,1,482.13,786Zm-12.2-38.85,5.82,25.09c.4,2.53,2.43,9.75,6.38,9.75a4.55,4.55,0,0,0,1.2-.18c3-.85,4.89-11.83,2.59-28.11l0-.28c0-.28-.13-7.16-6.28-7.93a20.9,20.9,0,0,0-2.41-.15A14.32,14.32,0,0,0,469.93,747.1Z" style="fill:#3c3c3b"/><path d="M391.87,794.4s15.19-8.92,14.3-38.79c0,0,2.23-9.37-14.3-9.37s-14.74,7.14-14.74,7.14S377.57,795.73,391.87,794.4Z" style="fill:#f9efe1"/><path d="M391.21,796.44h0c-15,0-16-37.76-16.09-42.88a6.16,6.16,0,0,1,1.33-4.68c2.41-3.08,7.6-4.64,15.41-4.64,7.07,0,12,1.65,14.54,4.9a8.71,8.71,0,0,1,1.78,6.64c.83,30.53-14.63,40-15.29,40.35l-.38.23-.45,0A7.58,7.58,0,0,1,391.21,796.44Zm.66-48.19c-8.37,0-11.22,1.88-12.16,3a2.2,2.2,0,0,0-.61,1.7l.06.23v.17c.16,15.1,3.58,39.06,12.07,39.07,2.2-1.59,13.71-11.17,12.94-36.76v-.26l.06-.26a4.56,4.56,0,0,0-1-3.57C402,750.05,399,748.24,391.87,748.24Z" style="fill:#3c3c3b"/><path d="M405.92,752.41s-2-5.73,11.2-6.18,15.85-1,17.19,6.18,4,40.2-8.49,46S405.24,766.17,405.92,752.41Z" style="fill:#f9efe1"/><path d="M423.26,801c-2.37,0-4.65-1.12-6.76-3.34-8.54-9-13-34.41-12.59-45.08a5.32,5.32,0,0,1,.89-4.06c1.82-2.64,5.94-4.09,12.26-4.31l2.34-.08c2.28-.08,4.25-.15,5.91-.15,6.56,0,9.7,1.16,11,8,1.23,6.62,4.51,41.63-9.62,48.19A8.08,8.08,0,0,1,423.26,801Zm2-53c-1.58,0-3.52.07-5.76.15l-2.35.08c-6.61.22-8.52,1.82-9,2.49a1.33,1.33,0,0,0-.31,1.1l.12.36,0,.31c-.49,9.88,4,34.58,11.48,42.4,1.92,2,3.65,2.57,5.56,1.68,10.71-5,8.83-35.94,7.36-43.82C431.58,748.73,431,748,425.3,748Z" style="fill:#3c3c3b"/><path d="M435,758.21s2.84-9.78,6-12.21,12.38-6.9,13.34,8.26-1,44-8.08,44.75S434,782.22,435,758.21Z" style="fill:#f9efe1"/><path d="M445.84,801a7.06,7.06,0,0,1-5.16-2.46c-5.48-5.71-8.48-21.6-7.65-40.46l.08-.47c.5-1.74,3.2-10.53,6.66-13.23.9-.7,4.1-3,7.73-3,3,0,8.16,1.65,8.85,12.7.57,9,.6,45.76-9.87,46.86C446.26,801,446,801,445.84,801Zm-8.8-42.5c-.85,20,2.8,33.35,6.55,37.27a3.1,3.1,0,0,0,2.47,1.2c3.73-.39,7.59-21.95,6.28-42.63-.26-4.07-1.31-8.93-4.84-8.93a9.61,9.61,0,0,0-5.25,2.12C440.48,749,438.17,754.74,437,758.54Z" style="fill:#3c3c3b"/><path d="M454.35,754.26s2.45-12.41,10.86-9.78,12,35.64,4.39,42.33-16-6.32-15.64-10.7S454.35,754.26,454.35,754.26Z" style="fill:#f9efe1"/><path d="M465.07,790.7c-2.81,0-5.65-1.46-8.22-4.21-3-3.22-5.1-7.75-4.9-10.52.31-4.26.38-21.53.38-21.71l0-.38c.1-.48,2.41-11.76,10.57-11.76a9.54,9.54,0,0,1,2.87.46c5,1.59,7.53,10,8.56,14.81,2.42,11.39,2,26.1-3.45,30.93A8.72,8.72,0,0,1,465.07,790.7Zm-8.71-36.21c0,2.11-.08,17.59-.39,21.78-.1,1.3,1.32,4.79,3.84,7.49,1.76,1.89,3.63,2.93,5.27,2.93a4.78,4.78,0,0,0,3.2-1.38c3.56-3.13,4.58-15.79,2.18-27.09-1.68-7.9-4.2-11.3-5.84-11.82a5.54,5.54,0,0,0-1.66-.28C458.51,746.13,456.63,753.3,456.35,754.49Z" style="fill:#3c3c3b"/><path d="M485.33,746.24s.79-4.86,9.73-6.38,9.83,11.29,9.83,11.29,2.84,18.75-6.8,21.36S489,755.15,485.33,746.24Z" style="fill:#f9efe1"/><path d="M496.45,774.74c-7,0-8.88-9.49-10.51-17.87a57.46,57.46,0,0,0-2.47-9.88l-.22-.53.09-.56c0-.25,1.14-6.29,11.37-8a11,11,0,0,1,1.77-.15c9.08,0,10.29,12,10.4,13.19.23,1.58,2.73,20.55-8.28,23.53A8.42,8.42,0,0,1,496.45,774.74Zm-9-28.56a66.67,66.67,0,0,1,2.42,9.93c1.33,6.85,2.84,14.62,6.56,14.62a4.43,4.43,0,0,0,1.12-.16c7.69-2.08,5.36-19,5.34-19.13l0-.16c0-.1-.76-9.55-6.39-9.55a7,7,0,0,0-1.09.1C489.63,742.81,487.93,745.2,487.46,746.18Z" style="fill:#3c3c3b"/><path d="M567.12,631.4c-4.52,13.87-7.93,28.11-12.17,42.08-5,16.43-11.79,31.88-19.07,47.39a.13.13,0,0,0,.2.15c21.88-22.77,31-57.76,38.79-87.49C576.19,628.5,568.72,626.51,567.12,631.4Z" style="fill:#3c3c3b"/><path d="M585,627.13c-3.12,8.62-5.58,17.4-8.7,26-.06.17.17.27.28.17,7.29-6.23,12-15.5,15.42-24.28C593.7,624.72,586.59,622.74,585,627.13Z" style="fill:#3c3c3b"/><path d="M600.65,622.85c-1.79,6.29-2.9,14-6.74,19.4-.06.09.06.16.13.1a40.87,40.87,0,0,0,13-17.75C608.54,620.72,601.83,618.71,600.65,622.85Z" style="fill:#3c3c3b"/><path d="M215.95,722.81C208,707.42,200.66,692.7,195.53,676c-4.67-15.16-6.17-31.52-9.36-47-1.26-6.14-10.37-3.48-9.31,2.56,3,17.16,9.53,32.84,15.65,49,5.55,14.7,12.15,31,22.5,42.94C215.47,724.07,216.24,723.39,215.95,722.81Z" style="fill:#3c3c3b"/><path d="M174.19,650.83a85,85,0,0,1-4.7-14.93c-1-4.37-2.3-10-6.18-12.53a3,3,0,0,0-4.33,1.76c-1.56,4.67,2,9.56,4.57,13.28,1.34,1.93,3.26,3.15,4.75,4.93a58.74,58.74,0,0,1,5.23,7.89C173.79,651.66,174.38,651.28,174.19,650.83Z" style="fill:#3c3c3b"/><path d="M154.71,633.78c-2.63-4.91-2.61-10.16-3.16-15.51-.37-3.62-5.54-3.74-5.73,0-.56,11.29,7.85,18.81,14.84,26.27.06.07.19,0,.13-.1C158.32,641.21,156.63,637.35,154.71,633.78Z" style="fill:#3c3c3b"/><path d="M111.9,421.44a.47.47,0,0,0-.86.36c5.08,21,9.41,39.88,7.85,61.71a153.55,153.55,0,0,1-6.52,32.95c-3.1,10.37-8.36,20.16-10.06,30.89-.55,3.49,3.55,6.81,6.43,3.74,14.83-15.87,18.9-42.8,19.57-63.73C129,465.42,123.61,440.11,111.9,421.44Z" style="fill:#3c3c3b"/><path d="M650.94,540.59c-3.41-20.86-12.32-41-17.38-61.59-5-20.16,5-40.51,0-60.66-.06-.24-.4-.17-.42.06-1.85,22.3-9,43-7.77,65.6,1.13,20,8.81,42.12,17.13,60.14C644.86,549.25,651.72,545.33,650.94,540.59Z" style="fill:#3c3c3b"/><path d="M376.52,409.56a22.09,22.09,0,0,1-16.34-37c.38-.42.8-.84,1.21-1.22a3.1,3.1,0,0,0,.44-.79l.07-.22a7.22,7.22,0,0,0,.18-2l.69-23.53c.12-6,.19-12.37.19-18.8,0-3.31,0-6.82-.09-10.61-2.81.35-5.59.84-8.12,1.41a56.36,56.36,0,0,0-6.78,1.94c-1.44.5-2.21.86-2.21.86a18.66,18.66,0,0,1-8.14,1.85,18.83,18.83,0,1,1,8.14-35.83h0s.77.36,2.08.82a57.07,57.07,0,0,0,6.89,2c2.33.53,4.87,1,7.46,1.32l-.18-5.78a9,9,0,0,0-.47-2.37,6.61,6.61,0,0,0-.7-1.48l.13.16-.44-.55a20.19,20.19,0,0,1,3.52-28.39,20.23,20.23,0,0,1,28.42,28.37l-.29.37a6.45,6.45,0,0,0-.68,1.38,9.53,9.53,0,0,0-.52,2.73l-.17,5.51c2.73-.36,5.37-.83,7.78-1.37a60,60,0,0,0,6.86-1.92l.32-.1c.36-.11.67-.24.92-.34l.6-.24.59-.25a18.64,18.64,0,1,1,7.33,35.77h0a18.75,18.75,0,0,1-7.29-1.47l-.62-.26-.6-.24c-.25-.1-.56-.23-.92-.34l-.31-.1a61.42,61.42,0,0,0-6.85-1.91c-2.64-.59-5.54-1.09-8.47-1.46-.05,3.76-.08,7.26-.09,10.57,0,6.41.06,12.76.19,18.85L391,368.3a7.28,7.28,0,0,0,.18,2,4.14,4.14,0,0,0,.49,1,22.07,22.07,0,0,1,1.24,31.05A22.23,22.23,0,0,1,376.52,409.56Z" style="fill:#fcd310"/><path d="M424,298.86a9.52,9.52,0,0,0-12.49-5l-.78.33c-.51.18-1.26.53-2.21.82a69.9,69.9,0,0,1-7.89,2.21A101.13,101.13,0,0,1,389.46,299c-2,.24-4.15.39-6.29.51-.59,0-1.19,0-1.78.05.1-3.31.19-6.45.28-9.3.08-2.43.15-4.66.21-6.64a18.64,18.64,0,0,1,1-5.12,15.32,15.32,0,0,1,1.58-3.29,7.76,7.76,0,0,1,.61-.87l.23-.3a11.1,11.1,0,1,0-17.52,0l.23.3a8.32,8.32,0,0,1,.61.87,15.32,15.32,0,0,1,1.58,3.29,18.38,18.38,0,0,1,1,5.12c.06,2,.13,4.21.21,6.64.08,2.85.18,6,.28,9.34-.49,0-1,0-1.49-.05-2.14-.08-4.25-.27-6.29-.47a94.89,94.89,0,0,1-11.15-1.81,65.55,65.55,0,0,1-7.89-2.27c-1.9-.66-3-1.18-3-1.18a9.72,9.72,0,1,0,0,17.49,31,31,0,0,1,3-1.19,66.89,66.89,0,0,1,7.89-2.27,96.43,96.43,0,0,1,11.15-1.81c2-.2,4.15-.39,6.29-.47.55,0,1.11,0,1.67-.06l0,1.38c.12,6.08.22,12.57.23,19.06s-.07,13-.19,19.06-.34,11.76-.48,16.62c-.07,2.43-.14,4.67-.2,6.64a15.17,15.17,0,0,1-.72,5.12,12.46,12.46,0,0,1-1.73,3.3,9.57,9.57,0,0,1-1,1.16c-.28.26-.57.54-.83.83a13,13,0,1,0,18.35-.83,9.77,9.77,0,0,1-1-1.16,12.36,12.36,0,0,1-1.73-3.3,15.26,15.26,0,0,1-.72-5.12c-.06-2-.13-4.21-.2-6.64-.14-4.87-.31-10.54-.48-16.62s-.19-12.57-.19-19.06.11-13,.23-19.06c0-.45,0-.88,0-1.33.65,0,1.32,0,2,.06,2.14.12,4.25.27,6.29.51A102,102,0,0,1,400.61,308a71.54,71.54,0,0,1,7.89,2.21c.95.3,1.7.64,2.21.82l.78.33A9.52,9.52,0,0,0,424,298.86Z" style="fill:#3c3c3b"/><path d="M330.4,249c-2.33-6.08-4.24-11.93-7.57-17.56-4.21-7.11-15.3-.15-10.84,6.81,3.28,5.11,7.22,9.42,10.91,14.21,3.4,4.41,6.71,9.73,11.11,13.2a.83.83,0,0,0,1.38-.64C334.91,259.53,332.36,254.06,330.4,249Z" style="fill:#e516c1"/><path d="M332.64,333.88c-9.23,7.81-22,12.12-30.1,21.29-4.65,5.29,2.58,12.67,7.78,7.76,4.58-4.31,8.92-9,13.26-13.57a83.52,83.52,0,0,0,5.6-6.69c2.29-3,2.66-5.27,3.64-8.69A.11.11,0,0,0,332.64,333.88Z" style="fill:#e516c1"/><path d="M306.34,320.53c-6.22,1.58-12.22,3.75-18.59,4.9-7,1.25-2.45,13,3.8,9,5.49-3.55,13.09-6.89,15.19-13.5A.32.32,0,0,0,306.34,320.53Z" style="fill:#e516c1"/><path d="M302.68,297.59c-2.86-1.66-6.27-2.44-9.24-4-3.27-1.7-7.46-2.46-11-3.42-5.86-1.58-10.1,7.5-4.25,10.05a26.35,26.35,0,0,0,14.14,1.93c3.17-.47,7.91-1.75,10.46-3.81A.5.5,0,0,0,302.68,297.59Z" style="fill:#e516c1"/><path d="M317.5,277.28c-6.54-9.12-14.84-16.19-22.93-23.85-5.57-5.28-13.29,4.26-7.46,9.38,8.68,7.63,18.3,13.8,30.08,15A.32.32,0,0,0,317.5,277.28Z" style="fill:#e516c1"/><path d="M425.17,249c2.33-6.08,4.24-11.93,7.57-17.56,4.2-7.11,15.3-.15,10.84,6.81-3.28,5.11-7.22,9.42-10.91,14.21-3.4,4.41-6.71,9.73-11.11,13.2a.83.83,0,0,1-1.38-.64C420.66,259.53,423.21,254.06,425.17,249Z" style="fill:#e516c1"/><path d="M422.94,333.88c9.23,7.81,22,12.12,30.1,21.29,4.65,5.29-2.58,12.67-7.78,7.76-4.58-4.31-8.91-9-13.26-13.57a83.81,83.81,0,0,1-5.6-6.69c-2.29-3-2.66-5.27-3.64-8.69A.11.11,0,0,1,422.94,333.88Z" style="fill:#e516c1"/><path d="M449.23,320.53c6.22,1.58,12.22,3.75,18.59,4.9,7,1.25,2.45,13-3.8,9-5.49-3.55-13.09-6.89-15.19-13.5A.32.32,0,0,1,449.23,320.53Z" style="fill:#e516c1"/><path d="M452.9,297.59c2.87-1.66,6.27-2.44,9.24-4,3.27-1.7,7.46-2.46,11-3.42,5.86-1.58,10.1,7.5,4.25,10.05a26.34,26.34,0,0,1-14.14,1.93c-3.18-.47-7.92-1.75-10.46-3.81A.49.49,0,0,1,452.9,297.59Z" style="fill:#e516c1"/><path d="M438.07,277.28c6.54-9.12,14.84-16.19,22.92-23.85,5.57-5.28,13.29,4.26,7.46,9.38-8.68,7.63-18.3,13.8-30.08,15A.32.32,0,0,1,438.07,277.28Z" style="fill:#e516c1"/><path d="M291.26,639c-8.09,14.8-34.11,31.31-25.68,50.83,1.65,3.82,6.66,1.94,7.83-1,1.63-4.12,1.49-8.48,2.52-12.79a56.3,56.3,0,0,1,6-14.12c4.11-7.42,8.11-14.27,10-22.62A.36.36,0,0,0,291.26,639Z" style="fill:#e516c1"/><path d="M308.21,645.43a.65.65,0,0,0-1.26-.17c-1.32,5.19-6.59,10.18-9.45,14.65s-4.82,10.12-3.14,15.52c.52,1.68,1.95,3.49,3.81,3.8l.8.13a4.57,4.57,0,0,0,5-2c1.53-2.59.64-4.27.44-7s.86-5.91,1.53-8.54C307.39,656.07,308.36,651.32,308.21,645.43Z" style="fill:#e516c1"/><path d="M326.64,648.86c0-.72-1.11-1.15-1.46-.4-3.93,8.19-7.36,15.59-7.64,24.93-.19,6.29,9.82,6.31,9.79,0C327.27,665.18,327,657,326.64,648.86Z" style="fill:#e516c1"/><path d="M348.56,663.91c-1.06-3.69-2.51-7.81-2.84-11.63a.43.43,0,0,0-.86,0c-.34,3.34-1.88,7-3.07,10.18a29.36,29.36,0,0,0-1.43,10.35c0,5.61,8.66,5.61,8.71,0C349.1,670,349.34,666.66,348.56,663.91Z" style="fill:#e516c1"/><path d="M368.86,670c-.73-5.87-1.48-12.64-4.25-18a.54.54,0,0,0-.92,0c-3.06,5.66-4.43,12.75-3,19.05C361.76,675.53,369.44,674.63,368.86,670Z" style="fill:#e516c1"/><path d="M460.65,639c8.09,14.8,34.11,31.31,25.68,50.83-1.65,3.82-6.66,1.94-7.83-1C476.87,684.67,477,680.3,476,676a56.26,56.26,0,0,0-6-14.12c-4.11-7.42-8.1-14.27-10-22.62A.36.36,0,0,1,460.65,639Z" style="fill:#e516c1"/><path d="M443.7,645.43a.65.65,0,0,1,1.26-.17c1.32,5.19,6.59,10.18,9.45,14.65s4.82,10.12,3.14,15.52c-.52,1.68-1.95,3.49-3.81,3.8l-.8.13a4.57,4.57,0,0,1-5-2c-1.53-2.59-.64-4.27-.44-7s-.85-5.91-1.53-8.54C444.52,656.07,443.55,651.32,443.7,645.43Z" style="fill:#e516c1"/><path d="M425.27,648.86c0-.72,1.1-1.15,1.46-.4,3.93,8.19,7.36,15.59,7.64,24.93.19,6.29-9.82,6.31-9.79,0C424.64,665.18,424.88,657,425.27,648.86Z" style="fill:#e516c1"/><path d="M403.36,663.91c1.06-3.69,2.51-7.81,2.84-11.63a.43.43,0,0,1,.86,0c.34,3.34,1.88,7,3.07,10.18a29.44,29.44,0,0,1,1.43,10.35c0,5.61-8.66,5.61-8.72,0C402.81,670,402.57,666.66,403.36,663.91Z" style="fill:#e516c1"/><path d="M383.05,670c.73-5.87,1.48-12.64,4.25-18a.54.54,0,0,1,.92,0c3.06,5.66,4.44,12.75,3,19.05C390.15,675.53,382.47,674.63,383.05,670Z" style="fill:#e516c1"/><path d="M295.81,846c-7.81-8.48-18-14.7-26.06-23.1a99.38,99.38,0,0,1-13.05-17.57c-3.43-5.69-2.31-11.16-4-17.06-.92-3.18-4.64-3.14-6.42-.83-7.45,9.66,3.77,24.85,10.74,31.46,10.94,10.36,25.29,20.27,38.4,27.66A.35.35,0,0,0,295.81,846Z" style="fill:#e516c1"/><path d="M299.74,832.38c-9-7.24-16.05-18.25-15.86-30.07.09-5.6-8.23-5.47-8.63,0-1.11,15.27,13.5,22.83,24.19,30.44C299.67,832.91,300,832.55,299.74,832.38Z" style="fill:#e516c1"/><path d="M311.84,827.82c-1.42-3.26-3.44-6.06-4.48-9.51-1-3.29-.76-6.77-1.65-10.05-1.05-3.88-6.38-2.79-6.68.9-.6,7.35,6.36,15.61,12.38,19.1C311.71,828.44,312,828.1,311.84,827.82Z" style="fill:#e516c1"/><path d="M325.9,817.06a49.56,49.56,0,0,1,1.08-7.94c1-6.12-8.27-6.9-8.1-1.1a17,17,0,0,0,3.14,9,65.65,65.65,0,0,0,5.41,7.7c.15.17.42,0,.36-.21C327.06,822,325.89,819.78,325.9,817.06Z" style="fill:#e516c1"/><path d="M347.87,798.92c-7.79,4.86-7.35,17-7.4,25.07a.24.24,0,0,0,.48.07,36.07,36.07,0,0,1,4.71-10.54c2.25-3.31,5.91-5.53,7.6-9.22C354.78,801,351.5,796.64,347.87,798.92Z" style="fill:#e516c1"/><path d="M377.28,798.57c-3.8,0-6.56,4.4-4.45,7.74a6.43,6.43,0,0,0,1.27,1.51,9.7,9.7,0,0,1,1,2.37c.38,1.45.29,2.93.71,4.35a1,1,0,0,0,1.76.23c.87-1.15,1.06-2.68,1.52-4a14,14,0,0,1,1.32-2.86,6.54,6.54,0,0,0,1.34-1.57C383.85,803,381.08,798.57,377.28,798.57Z" style="fill:#e516c1"/><path d="M456.85,846c7.81-8.48,18-14.7,26.06-23.1A99.46,99.46,0,0,0,496,805.32c3.43-5.69,2.31-11.16,4-17.06.92-3.18,4.64-3.14,6.42-.83,7.45,9.66-3.77,24.85-10.74,31.46-10.94,10.36-25.28,20.27-38.4,27.66A.35.35,0,0,1,456.85,846Z" style="fill:#e516c1"/><path d="M452.93,832.38c9-7.24,16.05-18.25,15.86-30.07-.09-5.6,8.23-5.47,8.63,0,1.1,15.27-13.5,22.83-24.19,30.44C453,832.91,452.71,832.55,452.93,832.38Z" style="fill:#e516c1"/><path d="M440.82,827.82c1.42-3.26,3.44-6.06,4.49-9.51,1-3.29.76-6.77,1.65-10.05,1.05-3.88,6.39-2.79,6.68.9.6,7.35-6.36,15.61-12.38,19.1C441,828.44,440.7,828.1,440.82,827.82Z" style="fill:#e516c1"/><path d="M426.76,817.06a49.36,49.36,0,0,0-1.08-7.94c-1-6.12,8.27-6.9,8.11-1.1a17.05,17.05,0,0,1-3.14,9,65.62,65.62,0,0,1-5.41,7.7c-.14.17-.41,0-.36-.21C425.6,822,426.77,819.78,426.76,817.06Z" style="fill:#e516c1"/><path d="M404.8,798.92c7.78,4.86,7.35,17,7.4,25.07a.24.24,0,0,1-.47.07A36.18,36.18,0,0,0,407,813.52c-2.24-3.31-5.91-5.53-7.6-9.22C397.89,801,401.16,796.64,404.8,798.92Z" style="fill:#e516c1"/><path d="M265.28,219.11a.19.19,0,0,0,0,.37A.19.19,0,0,0,265.28,219.11Z" style="fill:#3c3c3b"/><path d="M225.08,316.65c-13.44,10.66-32,14.67-48.48,17.72-14.28,2.65-30.32,5.23-42.7,13.34-13.38,8.77-17.76,21.31-20.12,36.12a37.17,37.17,0,0,1,4.23-4.57,90.48,90.48,0,0,1,38.15-32.61c22.27-9.88,46.89-9.48,67.87-22.57.2-.13.44.18.26.34C206.94,339.61,182,340,161.77,349.56a99.83,99.83,0,0,0-27.85,19.64c11.93-5.28,25.72-8.06,36.76-10.26,19.32-3.84,37.7-9.63,52.17-23.78,15.59-15.24,23.22-31.33,26.28-51.93C243.82,296.23,236.36,307.71,225.08,316.65Z" style="fill:#3aaa61"/><path d="M256.13,312.52a.67.67,0,0,0,1.05.81c4.5-4.33,6.38,1.78,3.58,5.32-3.13,4-8.25,2.57-12.28,1.36a18.27,18.27,0,0,0-6.35-.89c7.19-12.53,10.86-26.74,8.92-41l.07-.2c0-.21-.09-.42-.15-.63a3.46,3.46,0,0,0-.34-.28l-.49.06a.56.56,0,0,0-.29.42c0,.2-.05.4-.07.6C239.51,296.51,230.7,312.33,210.6,322c-17,8.2-36.29,8.37-54.45,12.25-26.39,5.63-48.08,23-45.27,52.18a1.32,1.32,0,0,0,.56.92A33.29,33.29,0,0,0,107,403.56c0,1.58,2.46,2.43,3.15.85,3-7,5.4-13.44,10-19.2,8.4,1.37,11.7,9.9,17.76,15.23,4.62,4.07,12.22,4.64,17.12.78,6.91-5.43-2-21.18-7.65-13.5-.6.82.66,1.67,1.35,1,4.5-4.15,7,3.52,6.34,7.11-1.23,6.7-10.38,6.06-14.73,3.2-7.45-4.91-10.27-14.34-19.47-14.76.62-.72,1.25-1.44,1.95-2.14,4.87-4.87,11.29-8,17.78-10.42a.74.74,0,0,0,.67.27c4.58-.44,7.05-1.71,11.09,1.56,3.18,2.57,5.65,6,8.55,8.84,4.79,4.72,11.18,5.75,17.11,2.31,4.22-2.45,4.78-8.37,1.92-12s-7.81-3.28-8.6,1.7a.22.22,0,0,0,.36.21c2.15-2,4.18-3.2,6.25-.38a6.81,6.81,0,0,1,.39,6.94c-1.76,3.47-7.07,4.37-10.4,3.37-2.64-.79-5-3.57-6.78-5.54-2.34-2.54-6.69-7.88-11.21-10.27,7.13-2,14.42-3.39,21.71-4.82a1,1,0,0,0,0,.14c1.38-.27,2.8-.37,4.16-.73l.59-.37c2.23-.46,4.45-.94,6.67-1.46a16.18,16.18,0,0,1,5.39,2.08c4.05,2.31,7.63,5.34,11.7,7.64,5.13,2.9,13.53,3.59,17.47-1.84,6.14-8.45-9.17-18.1-10.78-6.93,0,.14.16.24.25.1,4.76-8.28,15.76,3.66,4.32,8-6.67,2.54-12.8-2.95-17.8-6.61a39.18,39.18,0,0,0-5.88-3.62c2.75-.72,5.5-1.5,8.2-2.43A76.89,76.89,0,0,0,206,353.57l-.06.15a8.29,8.29,0,0,1,.85-.66,25.92,25.92,0,0,1,7.78-4.35,14.2,14.2,0,0,1,9.16-1.25c4.12.63,8.12,2.05,12.19,2.93,5.19,1.12,13.84,1.56,17.09-3.83,4.59-7.63-5.45-18-10.8-9.3a.24.24,0,0,0,.33.33c8.26-4.2,12.68,6.57,4.15,9.9-6.29,2.45-14.3-1.11-20.46-2.58a24,24,0,0,0-5.8-.69A90,90,0,0,0,240,322.58a6.29,6.29,0,0,1,4.93-1c2.65.45,5.17,1.48,7.83,1.9a10.26,10.26,0,0,0,10.71-5.08C266.63,312.78,259.27,305.37,256.13,312.52Zm-33.29,22.65c-14.47,14.15-32.84,19.94-52.17,23.78-11,2.2-24.83,5-36.76,10.26a99.83,99.83,0,0,1,27.85-19.64c20.25-9.53,45.18-9.94,62.52-25.14.18-.16-.06-.46-.26-.34-21,13.09-45.6,12.69-67.87,22.57A90.48,90.48,0,0,0,118,379.26a37.17,37.17,0,0,0-4.23,4.57c2.35-14.81,6.74-27.35,20.12-36.12,12.38-8.11,28.41-10.7,42.7-13.34,16.46-3,35-7.05,48.48-17.72,11.27-8.94,18.74-20.42,24-33.42C246.06,303.83,238.43,319.92,222.84,335.17Z" style="fill:#3c3c3b"/><path d="M526.1,316.65c13.43,10.66,32,14.67,48.48,17.72,14.28,2.65,30.32,5.23,42.7,13.34C630.66,356.48,635,369,637.4,383.83a37.1,37.1,0,0,0-4.22-4.57A90.48,90.48,0,0,0,595,346.65c-22.27-9.88-46.89-9.48-67.87-22.57-.2-.13-.44.18-.26.34,17.34,15.2,42.27,15.61,62.52,25.14a99.8,99.8,0,0,1,27.85,19.64c-11.93-5.28-25.72-8.06-36.76-10.26-19.32-3.84-37.7-9.63-52.17-23.78-15.59-15.24-23.21-31.33-26.28-51.93C507.36,296.23,514.83,307.71,526.1,316.65Z" style="fill:#3aaa61"/><path d="M487.69,318.44a10.26,10.26,0,0,0,10.71,5.08c2.67-.42,5.18-1.45,7.83-1.9a6.29,6.29,0,0,1,4.93,1,90.1,90.1,0,0,0,19.6,21.63,24,24,0,0,0-5.8.69c-6.16,1.47-14.18,5-20.46,2.58-8.54-3.33-4.11-14.1,4.14-9.9a.24.24,0,0,0,.33-.33c-5.35-8.74-15.4,1.67-10.8,9.3,3.25,5.39,11.9,5,17.09,3.83,4.07-.88,8.07-2.3,12.19-2.93a14.2,14.2,0,0,1,9.16,1.25,25.87,25.87,0,0,1,7.77,4.35,8.06,8.06,0,0,1,.85.66l-.06-.15a76.81,76.81,0,0,0,10.06,4.33c2.7.93,5.45,1.71,8.2,2.43a39.24,39.24,0,0,0-5.87,3.62c-5,3.66-11.13,9.15-17.8,6.61-11.43-4.35-.44-16.3,4.32-8a.14.14,0,0,0,.25-.1c-1.61-11.17-16.92-1.52-10.78,6.93,3.94,5.43,12.34,4.75,17.47,1.84,4.07-2.29,7.65-5.33,11.7-7.64a16.19,16.19,0,0,1,5.39-2.08c2.22.52,4.44,1,6.67,1.46l.59.37c1.37.36,2.78.46,4.16.73,0,0,0-.1,0-.14,7.28,1.43,14.57,2.81,21.71,4.82-4.53,2.39-8.88,7.73-11.21,10.27-1.81,2-4.14,4.75-6.78,5.54-3.33,1-8.64.1-10.4-3.37a6.82,6.82,0,0,1,.39-6.94c2.08-2.82,4.1-1.58,6.26.38a.22.22,0,0,0,.36-.21c-.79-5-5.82-5.25-8.6-1.7s-2.3,9.59,1.92,12c5.94,3.44,12.32,2.41,17.12-2.31,2.9-2.86,5.37-6.27,8.55-8.84,4-3.27,6.51-2,11.09-1.56a.74.74,0,0,0,.67-.27c6.49,2.41,12.91,5.55,17.78,10.42.7.7,1.33,1.42,1.94,2.14-9.2.42-12,9.85-19.47,14.76-4.34,2.86-13.5,3.5-14.73-3.2-.66-3.6,1.84-11.27,6.34-7.11.68.63,1.94-.22,1.35-1-5.6-7.68-14.56,8.07-7.65,13.5,4.9,3.86,12.5,3.29,17.12-.78,6.06-5.34,9.37-13.87,17.76-15.23,4.6,5.76,7,12.25,10,19.2.69,1.58,3.19.73,3.15-.85a33.32,33.32,0,0,0-4.42-16.19,1.32,1.32,0,0,0,.56-.92c2.8-29.15-18.88-46.55-45.28-52.18-18.17-3.87-37.43-4-54.45-12.25-20.1-9.69-28.91-25.51-39.19-43.93,0-.2-.05-.4-.07-.6a.56.56,0,0,0-.3-.42l-.49-.06a3.56,3.56,0,0,0-.34.28c-.06.21-.11.42-.16.63l.07.2c-1.94,14.26,1.74,28.46,8.92,41a18.28,18.28,0,0,0-6.35.89c-4,1.21-9.15,2.6-12.27-1.36-2.81-3.54-.92-9.65,3.58-5.32a.67.67,0,0,0,1.05-.81C491.91,305.37,484.56,312.78,487.69,318.44Zm14.38-35.21c5.3,13,12.76,24.48,24,33.42,13.43,10.66,32,14.67,48.48,17.72,14.28,2.65,30.32,5.23,42.7,13.34C630.66,356.48,635,369,637.4,383.83a37.1,37.1,0,0,0-4.22-4.57A90.48,90.48,0,0,0,595,346.65c-22.27-9.88-46.89-9.48-67.87-22.57-.2-.13-.44.18-.26.34,17.34,15.2,42.27,15.61,62.52,25.14a99.8,99.8,0,0,1,27.85,19.64c-11.93-5.28-25.72-8.06-36.76-10.26-19.32-3.84-37.7-9.63-52.17-23.78C512.75,319.92,505.13,303.83,502.07,283.23Z" style="fill:#3c3c3b"/><path d="M151.26,576.14c20.48,17,46.57,18.77,70.43,27.85,15.7,6,27.71,17,36.06,31.17,0-1.64,0-3.29.11-4.91-3-6.91-5.21-14.11-10.78-19.63a69.27,69.27,0,0,0-20.7-13.83c-15.06-6.69-31.2-9.87-46.41-16-17.23-6.91-44.47-20.34-49.57-40.71-1.1,10.26-2.95,20.53,1.08,30.51a43.81,43.81,0,0,0,20,22.45c15.81,8.56,33.38,10.93,50.51,15.51,13,3.49,27.56,8,38.92,15.49,5.52,3.62,13.2,8.16,16.93,14.37,0-.14,0-.28,0-.42-7.34-9.5-15.88-19.18-26.35-25.22-9.52-5.49-19.43-8.1-29.9-11-18.76-5.28-36.24-11.88-50.84-25.08C150.36,576.35,150.89,575.84,151.26,576.14Z" style="fill:#3aaa61"/><path d="M280.09,592c-11.14,11.19-14.86,23.86-17.18,37.77,6.46-13.69,19.49-26,28.05-36.31,0,0,.11,0,.08.06-4.73,9-11.51,16.22-17,24.7a68,68,0,0,0-5.89,11.39,145.15,145.15,0,0,1,11.52-10.89c6.59-5.82,13.58-11.55,17.91-19.37,4.67-8.44,6.45-17.32,9.44-26.15C301.18,582.7,288.14,583.93,280.09,592Z" style="fill:#3aaa61"/><path d="M308.94,569.06c.08-.26-.32-.43-.44-.19-4.81,9.84-14.71,10.81-23.66,14.9a39.8,39.8,0,0,0-15.46,13.3,63.37,63.37,0,0,0-10.78,26.51c-7.88-24-31.17-33.93-55.48-41.51s-64.22-18.84-72.29-46.82c.06-.92.12-1.85.14-2.77,0-1.36-1.77-1.4-2.21-.3-6.94,17.36-6.48,37.28,4.93,52.52,9.19,12.27,24.75,18.22,39,22.18s28.7,6.27,42.79,10.78c11.72,3.75,36.57,10.19,42.53,23.49.09,1,.2,2.09.33,3.14a1.36,1.36,0,0,0,.67,1,29.25,29.25,0,0,0,.1,3,1.38,1.38,0,0,0,.08.31,16.81,16.81,0,0,0,.15,2.35c.23,1.51,2.32,1.18,2.74,0,6.19-17.48,18.55-26.25,31-39.11,10.21-10.52,17.17-27.9,15.76-42.58C308.89,569.19,308.92,569.13,308.94,569.06Zm-158.22,7.62c14.6,13.2,32.08,19.8,50.84,25.08,10.46,2.94,20.38,5.55,29.9,11,10.47,6,19,15.72,26.35,25.22,0,.14,0,.28,0,.42-3.74-6.21-11.41-10.75-16.93-14.37-11.36-7.46-25.88-12-38.92-15.49-17.13-4.58-34.7-6.95-50.51-15.51a43.81,43.81,0,0,1-20-22.45c-4-10-2.17-20.25-1.08-30.51,5.1,20.37,32.34,33.8,49.57,40.71,15.22,6.11,31.35,9.28,46.41,16a69.27,69.27,0,0,1,20.7,13.83c5.57,5.52,7.77,12.72,10.78,19.63-.1,1.62-.13,3.27-.11,4.91C249.4,621,237.38,610,221.69,604c-23.86-9.08-50-10.83-70.43-27.85C150.89,575.84,150.36,576.35,150.72,576.68Zm146.86,22.7c-4.33,7.82-11.31,13.54-17.91,19.37a145.15,145.15,0,0,0-11.52,10.89,68,68,0,0,1,5.89-11.39c5.48-8.48,12.26-15.71,17-24.7,0,0,0-.11-.08-.06-8.57,10.3-21.59,22.62-28.05,36.31,2.32-13.92,6-26.58,17.18-37.77,8-8.09,21.09-9.32,26.94-18.79C304,582.06,302.26,590.93,297.59,599.38Z" style="fill:#3c3c3b"/><path d="M601.23,576.14c-20.48,17-46.57,18.77-70.43,27.85-15.7,6-27.71,17-36.06,31.17,0-1.64,0-3.29-.11-4.91,3-6.91,5.21-14.11,10.78-19.63a69.28,69.28,0,0,1,20.7-13.83c15.06-6.69,31.2-9.87,46.42-16,17.23-6.91,44.47-20.34,49.56-40.71,1.1,10.26,3,20.53-1.07,30.51a43.82,43.82,0,0,1-20,22.45c-15.81,8.56-33.38,10.93-50.51,15.51-13,3.49-27.56,8-38.92,15.49-5.52,3.62-13.2,8.16-16.93,14.37,0-.14,0-.28,0-.42,7.34-9.5,15.88-19.18,26.35-25.22,9.52-5.49,19.43-8.1,29.9-11,18.76-5.28,36.24-11.88,50.84-25.08C602.12,576.35,601.59,575.84,601.23,576.14Z" style="fill:#3aaa61"/><path d="M472.39,592c11.14,11.19,14.86,23.86,17.19,37.77-6.46-13.69-19.49-26-28.06-36.31,0,0-.11,0-.08.06,4.74,9,11.51,16.22,17,24.7a68.28,68.28,0,0,1,5.89,11.39,145.64,145.64,0,0,0-11.52-10.89c-6.6-5.82-13.58-11.55-17.91-19.37-4.67-8.44-6.45-17.32-9.44-26.15C451.3,582.7,464.34,583.93,472.39,592Z" style="fill:#3aaa61"/><path d="M443.62,569.26c-1.41,14.68,5.54,32.05,15.76,42.58,12.47,12.86,24.83,21.63,31,39.11.42,1.18,2.51,1.51,2.74,0a16.59,16.59,0,0,0,.15-2.35,1.26,1.26,0,0,0,.08-.31,29,29,0,0,0,.1-3,1.36,1.36,0,0,0,.67-1c.13-1.05.24-2.1.34-3.14,6-13.3,30.81-19.73,42.53-23.49,14.08-4.51,28.56-6.83,42.79-10.78s29.81-9.91,39-22.18c11.41-15.25,11.86-35.16,4.93-52.52-.44-1.1-2.25-1.06-2.21.3,0,.92.08,1.85.14,2.77-8.07,28-48.11,39.27-72.29,46.82s-47.6,17.46-55.48,41.51a63.34,63.34,0,0,0-10.78-26.51,39.79,39.79,0,0,0-15.46-13.3c-9-4.09-18.85-5.06-23.66-14.9a.24.24,0,0,0-.44.19C443.56,569.13,443.6,569.19,443.62,569.26Zm157.61,6.88c-20.48,17-46.57,18.77-70.43,27.85-15.7,6-27.71,17-36.06,31.17,0-1.64,0-3.29-.11-4.91,3-6.91,5.21-14.11,10.78-19.63a69.28,69.28,0,0,1,20.7-13.83c15.06-6.69,31.2-9.87,46.42-16,17.23-6.91,44.47-20.34,49.56-40.71,1.1,10.26,3,20.53-1.07,30.51a43.82,43.82,0,0,1-20,22.45c-15.81,8.56-33.38,10.93-50.51,15.51-13,3.49-27.56,8-38.92,15.49-5.52,3.62-13.2,8.16-16.93,14.37,0-.14,0-.28,0-.42,7.34-9.5,15.88-19.18,26.35-25.22,9.52-5.49,19.43-8.1,29.9-11,18.76-5.28,36.24-11.88,50.84-25.08C602.12,576.35,601.59,575.84,601.23,576.14Zm-155.77-2.91c5.85,9.47,18.89,10.7,26.94,18.79,11.14,11.19,14.86,23.86,17.19,37.77-6.46-13.69-19.49-26-28.06-36.31,0,0-.11,0-.08.06,4.74,9,11.51,16.22,17,24.7a68.28,68.28,0,0,1,5.89,11.39,145.64,145.64,0,0,0-11.52-10.89c-6.6-5.82-13.58-11.55-17.91-19.37C450.22,590.93,448.45,582.06,445.46,573.23Z" style="fill:#3c3c3b"/><path d="M210.11,762.88c3.34,13.8,8.35,27.77,16.45,39.55a173.83,173.83,0,0,0,13.18,16.44c-6.7-11.92-12.59-23.3-16.09-36.65-4.07-15.58-10.36-28.37-18-42.41A148.8,148.8,0,0,1,198,724.08c3.57,21.64,3.12,44.39,13.67,63.92a121.82,121.82,0,0,0,20.67,27.75A133.31,133.31,0,0,1,209.59,763C209.53,762.69,210,762.54,210.11,762.88Z" style="fill:#3aaa61"/><path d="M267.89,842.26A172.76,172.76,0,0,1,251,831.68c-13.24-16.35-20.86-39.41-25.55-58.42-6-24.14-24.42-42.45-31.32-66.31a.32.32,0,0,0-.32-.21c-.16-.48-.29-1-.46-1.44a.11.11,0,0,0-.21.06c.13.55.24,1.1.36,1.66v0a57.08,57.08,0,0,0,1.82,9.28c4.21,25.75,3.3,52.47,15.5,76.25,8.06,15.71,21.61,29.83,36.93,40.15l.63.52a19.6,19.6,0,0,1,4.56,2.83c1.56.91,3.13,1.81,4.68,2.72l-.2-.18a110,110,0,0,0,10,4.82C268.08,843.72,268.52,842.6,267.89,842.26Zm-35.57-26.51A121.82,121.82,0,0,1,211.65,788c-10.56-19.53-10.1-42.28-13.67-63.92a148.8,148.8,0,0,0,7.67,15.73c7.65,14,13.94,26.84,18,42.41,3.5,13.35,9.38,24.73,16.09,36.65a173.83,173.83,0,0,1-13.18-16.44c-8.09-11.78-13.11-25.75-16.45-39.55-.08-.34-.58-.19-.52.14A133.31,133.31,0,0,0,232.32,815.75Z" style="fill:#3c3c3b"/><path d="M541.32,762.88c-3.34,13.8-8.35,27.77-16.45,39.55a173.89,173.89,0,0,1-13.18,16.44c6.71-11.92,12.59-23.3,16.08-36.65,4.08-15.58,10.36-28.37,18-42.41a148.59,148.59,0,0,0,7.66-15.73c-3.57,21.64-3.12,44.39-13.67,63.92a121.83,121.83,0,0,1-20.67,27.75A133.25,133.25,0,0,0,541.84,763C541.9,762.69,541.4,762.54,541.32,762.88Z" style="fill:#3aaa61"/><path d="M484,843.43a109.94,109.94,0,0,0,10-4.82l-.2.18c1.55-.91,3.12-1.81,4.68-2.72a19.67,19.67,0,0,1,4.57-2.83l.63-.52c15.33-10.32,28.87-24.43,36.93-40.15,12.2-23.78,11.29-50.49,15.5-76.25A56.93,56.93,0,0,0,557.9,707v0c.12-.55.23-1.11.36-1.66a.11.11,0,0,0-.2-.06c-.17.48-.3,1-.46,1.44a.32.32,0,0,0-.32.21c-6.89,23.86-25.36,42.16-31.32,66.31-4.69,19-12.31,42.07-25.55,58.42a172.75,172.75,0,0,1-16.86,10.58C482.92,842.6,483.36,843.72,484,843.43ZM541.84,763c.06-.34-.43-.48-.52-.14-3.34,13.8-8.35,27.77-16.45,39.55a173.89,173.89,0,0,1-13.18,16.44c6.71-11.92,12.59-23.3,16.08-36.65,4.08-15.58,10.36-28.37,18-42.41a148.59,148.59,0,0,0,7.66-15.73c-3.57,21.64-3.12,44.39-13.67,63.92a121.83,121.83,0,0,1-20.67,27.75A133.25,133.25,0,0,0,541.84,763Z" style="fill:#3c3c3b"/><path d="M266.06,146.14c-5.25,2.79-14,3-19.24-.83a25.54,25.54,0,0,0-.55-3.15.43.43,0,0,0-.84.11,13.36,13.36,0,0,1-.18,1.61c-.16-.18-.33-.34-.48-.52s-.16,0-.13.1c.15.35.31.71.48,1.06-1.42,6.69-7.59,13.49-14.16,14.59-5.6.93-3.27,9.65,2.37,8.56,9.46-1.84,13.73-10.78,13.68-19.5,1.86,3.13,4.33,6,7.73,7.08,5.54,1.82,11.84,1.31,16.33-2.64C274.7,149.41,270.05,144,266.06,146.14Z" style="fill:#3c3c3b"/><path d="M268.2,171.48c-3.35.82-5.74,1.56-9.23.73a31,31,0,0,1-6.22-2.35,15.74,15.74,0,0,1-1.5-3.11c-.09-.28-.56-.24-.53.07a7.67,7.67,0,0,1,0,1.76l-.18-.13c-.09-.07-.23,0-.17.13s.18.37.28.56c-.41,2.45-1.53,5.3-2.05,7.28-.88,3.33-1.95,6-5.06,7.69-4.56,2.53-.5,9.44,4.08,7,4-2.18,5.87-6.61,6.56-10.93a20.85,20.85,0,0,0,.18-5,23,23,0,0,0,3.57,2.43,17.12,17.12,0,0,0,12.47,1.73C275.36,177.81,273.27,170.23,268.2,171.48Z" style="fill:#3c3c3b"/><path d="M278,196.59c-3.49,3.13-7.07,4.39-11.33,2s-6-6.54-8.76-10.16c0,0,0,0,0,0a18.7,18.7,0,0,0,1.23,6.37c.45,4.41-2.27,9-4.37,12.72-2.53,4.45-6.35,5.76-11.17,5.42-5.47-.39-6.59,8.33-1.29,9.5,7.72,1.7,14.46-2.65,18.22-9.17A16.69,16.69,0,0,0,262.37,201a21.73,21.73,0,0,0,2.85,3.23c5.58,5.12,12.8,4,18.43-.32C289.07,199.83,283,192.08,278,196.59Z" style="fill:#3c3c3b"/><path d="M289.36,226c-7.33,3.49-16.13-.74-22.74-4.1-.06-.54-.11-1.08-.18-1.61s-1.09-.59-1.19,0c-1.23,7.47-2.69,14.45-7.13,20.74-4.16,5.88-12,8.61-14.67,15.37-1.3,3.27,2.41,5.78,5.24,5.23,7.46-1.46,12.38-10.86,15.23-17.21a40.73,40.73,0,0,0,3-18.51c5.29,8.59,18.28,12.17,27.24,8.34C299.78,231.85,295,223.32,289.36,226Z" style="fill:#3c3c3b"/><path d="M272.45,243.17a.33.33,0,0,0-.62,0c-1.53,4.84-1.83,9.95-3.28,14.82-1.58,5.32-6.59,9.16-11.14,12-5.92,3.66-.48,13,5.46,9.33C274.72,271.94,276.41,255.72,272.45,243.17Z" style="fill:#3c3c3b"/><path d="M485.05,146.14c5.25,2.79,14,3,19.24-.83a26.29,26.29,0,0,1,.55-3.15.43.43,0,0,1,.84.11,13.35,13.35,0,0,0,.18,1.61c.16-.18.33-.34.48-.52s.16,0,.13.1l-.48,1.06c1.42,6.69,7.59,13.49,14.16,14.59,5.6.93,3.27,9.65-2.37,8.56-9.46-1.84-13.73-10.78-13.68-19.5-1.86,3.13-4.33,6-7.72,7.08-5.54,1.82-11.84,1.31-16.33-2.64C476.41,149.41,481.06,144,485.05,146.14Z" style="fill:#3c3c3b"/><path d="M482.91,171.48c3.35.82,5.74,1.56,9.23.73a30.93,30.93,0,0,0,6.23-2.35,15.54,15.54,0,0,0,1.5-3.11c.09-.28.56-.24.53.07a7.52,7.52,0,0,0,0,1.76l.18-.13c.09-.07.23,0,.17.13s-.18.37-.28.56c.41,2.45,1.53,5.3,2.05,7.28.88,3.33,1.95,6,5.06,7.69,4.56,2.53.5,9.44-4.08,7-4-2.18-5.87-6.61-6.56-10.93a20.8,20.8,0,0,1-.18-5,23.06,23.06,0,0,1-3.57,2.43,17.12,17.12,0,0,1-12.47,1.73C475.75,177.81,477.84,170.23,482.91,171.48Z" style="fill:#3c3c3b"/><path d="M473.14,196.59c3.49,3.13,7.07,4.39,11.33,2s6-6.54,8.76-10.16c0,0,0,0,0,0a18.62,18.62,0,0,1-1.24,6.37c-.45,4.41,2.27,9,4.37,12.72,2.53,4.45,6.36,5.76,11.17,5.42,5.47-.39,6.59,8.33,1.29,9.5-7.72,1.7-14.46-2.65-18.22-9.17A16.69,16.69,0,0,1,488.75,201a22,22,0,0,1-2.85,3.23c-5.58,5.12-12.8,4-18.43-.32C462,199.83,468.12,192.08,473.14,196.59Z" style="fill:#3c3c3b"/><path d="M461.75,226c7.33,3.49,16.13-.74,22.74-4.1.06-.54.11-1.08.18-1.61s1.09-.59,1.19,0c1.23,7.47,2.69,14.45,7.13,20.74,4.16,5.88,12,8.61,14.67,15.37,1.3,3.27-2.41,5.78-5.24,5.23C495,260.16,490,250.76,487.19,244.4a40.73,40.73,0,0,1-3-18.51c-5.29,8.59-18.28,12.17-27.24,8.34C451.34,231.85,456.14,223.32,461.75,226Z" style="fill:#3c3c3b"/><path d="M478.66,243.17a.33.33,0,0,1,.62,0c1.54,4.84,1.84,9.95,3.28,14.82,1.58,5.32,6.59,9.16,11.14,12,5.92,3.66.48,13-5.46,9.33C476.39,271.94,474.7,255.72,478.66,243.17Z" style="fill:#3c3c3b"/></svg>