<svg xmlns="http://www.w3.org/2000/svg" viewBox="0 0 760 960"><title>sk-temperance</title><path d="M543.27,626s-8.83,76.52-42.56,94.72H225.63C191.9,702.5,183.08,626,183.08,626s-76-47.26-73.79-27.45,16.07,48.46,33.39,52.1,18.23,59.15,24.61,104.92,19.15,65.26,35.56,74.36,10.94,16.38,62.9,38.22,97.41,16.38,97.41,16.38,45.48,5.46,97.44-16.38,46.5-29.12,62.9-38.22,29.18-28.59,35.55-74.36,7.3-101.28,24.62-104.92,31.22-32.3,33.39-52.1S543.27,626,543.27,626Z" style="fill:#f9efe1"/><path d="M376.89,888.53h0c-7.35,0-12.13-.42-13.71-.59a136.36,136.36,0,0,1-13.72.59,224.68,224.68,0,0,1-85-17.26c-35.67-15-44.8-23.33-52.13-30a53.83,53.83,0,0,0-11.11-8.37c-19.91-11-31.41-34.75-37.28-76.87-1.47-10.53-2.65-21.61-3.8-32.32C156.73,692.09,152.9,656.26,142,654c-19.82-4.17-33.92-35.2-36.09-55.07a7.52,7.52,0,0,1,1.69-6.1c1.51-1.67,3.8-2.53,6.82-2.53,17.24,0,65.09,29.46,70.49,32.82l1.4.87.19,1.63c.08.74,8.87,73.81,40,91.7h273.3c31.17-17.88,40-91,40.05-91.7l.19-1.63,1.39-.87c5.4-3.36,53.26-32.82,70.5-32.82,3,0,5.31.85,6.82,2.53a7.53,7.53,0,0,1,1.69,6.1c-2.17,19.86-16.27,50.9-36.08,55.07-10.93,2.3-14.76,38.13-18.14,69.75-1.14,10.71-2.33,21.79-3.8,32.31-5.88,42.12-17.37,65.83-37.28,76.87a53.73,53.73,0,0,0-11.12,8.37c-7.33,6.7-16.45,15-52.12,30A224.72,224.72,0,0,1,376.89,888.53Zm-13.24-7.4a127.86,127.86,0,0,0,13.24.58h0A217.63,217.63,0,0,0,459.28,865c34.58-14.54,43.22-22.43,50.17-28.77a59.46,59.46,0,0,1,12.41-9.29c17.84-9.9,28.27-32.06,33.82-71.85,1.45-10.41,2.63-21.43,3.77-32.09,4.16-38.84,7.74-72.38,23.53-75.7,14.6-3.07,28.49-28.93,30.69-49.13a2.34,2.34,0,0,0,0-.85,5,5,0,0,0-1.69-.21c-12.54,0-50.25,21.55-65.49,30.93-1.54,11.68-11.64,78.14-44.13,95.67l-.76.41H224.77l-.76-.41c-32.49-17.53-42.58-84-44.12-95.67-15.25-9.38-52.95-30.93-65.49-30.93a3.46,3.46,0,0,0-1.75.28h0s0,.27,0,.79c2.21,20.2,16.1,46.06,30.7,49.13,15.78,3.32,19.37,36.85,23.53,75.69,1.14,10.66,2.31,21.69,3.77,32.1,5.55,39.79,16,61.95,33.83,71.85a59.56,59.56,0,0,1,12.41,9.29c6.94,6.34,15.59,14.23,50.17,28.77a217.64,217.64,0,0,0,82.38,16.72,129.49,129.49,0,0,0,13.19-.57l.47-.09Z" style="fill:#3c3c3b"/><path d="M376.89,891.88h0c-7,0-11.72-.37-13.71-.57-1.53.15-6.38.57-13.73.57a228.1,228.1,0,0,1-86.33-17.52c-36.22-15.22-45.57-23.77-53.09-30.64a50,50,0,0,0-10.48-7.91c-20.92-11.6-32.94-36.07-39-79.33-1.48-10.59-2.66-21.69-3.81-32.43-2.6-24.32-7-65-15.49-66.82-21.63-4.54-36.39-36.59-38.73-58a10.8,10.8,0,0,1,2.52-8.7c2.17-2.41,5.31-3.64,9.31-3.64,17.8,0,63.32,27.76,72.26,33.32l2.78,1.72.37,3.24c2.29,19.8,13.49,73.91,37.64,88.74H498.91c11.67-7.16,21.81-24.36,29.37-49.82a259.72,259.72,0,0,0,8.27-38.92l.37-3.24,2.77-1.72c9-5.56,54.49-33.32,72.27-33.32,4,0,7.14,1.22,9.3,3.63a10.77,10.77,0,0,1,2.53,8.7c-2.34,21.38-17.09,53.43-38.72,58-8.55,1.79-12.9,42.5-15.5,66.81-1.15,10.72-2.32,21.78-3.81,32.43-6,43.27-18.05,67.73-39,79.33a49.86,49.86,0,0,0-10.48,7.91c-7.52,6.87-16.88,15.42-53.09,30.64A228.13,228.13,0,0,1,376.89,891.88Zm-13.72-7.3.36,0a132.07,132.07,0,0,0,13.35.57v0a221.2,221.2,0,0,0,83.74-17c35.14-14.77,44-22.88,51.16-29.4A56.68,56.68,0,0,1,523.54,830c18.9-10.48,29.87-33.43,35.59-74.41,1.47-10.54,2.64-21.56,3.78-32.2,4.51-42.21,8.39-70.06,20.78-72.66,17.59-3.7,31.33-32.87,33.44-52.16a4.54,4.54,0,0,0-.66-3.26l.33.93a5.38,5.38,0,0,1,.19,2.32c-2.38,21.76-17.14,48.63-33.33,52-13.41,2.82-17,36.8-20.89,72.78-1.14,10.68-2.32,21.71-3.78,32.2-5.71,40.94-16.67,63.85-35.51,74.31a56.09,56.09,0,0,0-11.77,8.84c-7.13,6.52-16,14.62-51.13,29.39a221.09,221.09,0,0,1-83.68,17,132.89,132.89,0,0,1-13.61-.6h-.1l-.18,0a134.29,134.29,0,0,1-13.55.59,221.1,221.1,0,0,1-83.68-17c-35.11-14.76-44-22.87-51.13-29.38a56.07,56.07,0,0,0-11.77-8.84c-18.85-10.46-29.81-33.37-35.52-74.31-1.46-10.49-2.64-21.53-3.78-32.21-3.85-36-7.48-70-20.88-72.77-16.2-3.41-31-30.28-33.35-52a7.65,7.65,0,0,1,0-1.1l3.25,0,.09-.08-1.91-2.75a6.44,6.44,0,0,1,3.66-.88c15.7,0,62,28.21,67.26,31.43L183,626l.2,1.58c1,7.75,10.87,76.16,42.39,93.18H500.75c12.75-6.89,23.85-23.54,32.08-48.15a258.79,258.79,0,0,0,10.31-45l.21-1.58,1.36-.83c5.23-3.22,51.56-31.43,67.25-31.43a9.76,9.76,0,0,1,2.13.21h.46a8.44,8.44,0,0,0-2.59-.35c-13.23,0-49.43,20.31-68.72,32.31l0,.05c-.08.75-9,75.45-41.71,94.21l-.77.44H225.63l-.77-.44c-32.71-18.76-41.62-93.46-41.71-94.22l0,0c-19.29-12-55.48-32.31-68.72-32.31-2,0-3.48.48-4.32,1.42a4.36,4.36,0,0,0-.85,3.51c2.11,19.29,15.85,48.46,33.45,52.16,12.38,2.6,16.26,30.45,20.77,72.65,1.14,10.69,2.32,21.74,3.78,32.22,5.71,41,16.69,63.93,35.59,74.41a56.81,56.81,0,0,1,11.74,8.82c7.14,6.52,16,14.63,51.17,29.4a221.15,221.15,0,0,0,83.73,17,131.87,131.87,0,0,0,13.36-.57Zm-.12-6.94,1.14.19c.67.07,5.3.53,12.69.53A214.2,214.2,0,0,0,458,861.9c34.05-14.31,42.46-22,49.2-28.15a63.26,63.26,0,0,1,13-9.75c16.83-9.34,26.75-30.74,32.14-69.38,1.45-10.38,2.62-21.36,3.76-32,4.47-41.79,8-74.8,26.17-78.62,10.22-2.15,24.34-21.65,27.68-43.41-11.92,1.83-41.54,17.94-60.4,29.44-2.29,16.25-13.1,79-45.64,96.6l-1.51.81H223.93l-1.51-.81c-32.55-17.57-43.35-80.35-45.63-96.6-18.85-11.49-48.45-27.59-60.38-29.43,3.41,21.87,17.47,41.26,27.67,43.4,18.17,3.82,21.7,36.82,26.16,78.61,1.13,10.63,2.31,21.62,3.76,32,5.39,38.65,15.3,60,32.14,69.38a63.11,63.11,0,0,1,13,9.75c6.76,6.17,15.16,13.84,49.2,28.15a214.21,214.21,0,0,0,81.08,16.46c7,0,11.52-.41,12.68-.54Z" style="fill:#3c3c3b"/><path d="M585.5,172.23C519.86,93,422.66,87.59,363.18,87.59S206.49,93,140.85,172.23,57.43,348.68,80.68,434.33c19.14,70.52,9.57,87.36,9.57,87.36s-27.35,77.81,67,96.92,73.84,72.8,72.48,100.11l133.44.9,133.44-.9c-1.37-27.3-21.88-81,72.48-100.11s67-96.92,67-96.92-9.57-16.84,9.57-87.36C668.91,348.68,651.14,251.4,585.5,172.23Z" style="fill:#f9efe1"/><path d="M517.65,558.65c-10.13,0-20.87-1.32-31-2.74-50.83-7.19-82.28-38.2-93.48-92.17-4.37-21-1.27-39.37,9.21-54.52,17.08-24.7,47-30.12,50.38-30.66l.33-.05a139.45,139.45,0,0,1,18-1.11c21.12,0,42,4.15,50.14,7.09l1.65.57.47.16c13.17,4.44,48.13,16.22,61.3,43.29,13.71,28.18,9.06,51.93-5.05,88.54C568.8,545,548.55,558.65,517.65,558.65Z" style="fill:none"/><path d="M517.64,547c-9.41,0-19.67-1.26-29.35-2.63-46.08-6.51-73.46-33.67-83.7-83-3.69-17.79-1.21-33.11,7.39-45.55,14.61-21.11,41.5-25.6,42.64-25.78a126.75,126.75,0,0,1,16.46-1c19.48,0,39.06,3.81,46.15,6.39.59.21,1.39.48,2.38.81,11.9,4,43.5,14.65,54.54,37.35,11.92,24.48,7.74,45.07-5.44,79.28-9.1,23.61-24.84,34.13-51.06,34.13Z" style="fill:#e516c1"/><path d="M455.71,397s-55.52,8.82-44.27,63,42.17,72.46,77.83,77.5,60.28,5.68,72.9-27.09,16.42-51.67,5.68-73.72-46.07-32.13-53-34.65S479.9,393.8,455.71,397Z" style="fill:#3c3c3b"/><path d="M206.27,558.65c-30.9,0-51.16-13.6-61.95-41.6-14.11-36.61-18.76-60.36-5-88.54,13.18-27.09,48.14-38.86,61.3-43.29l.23-.08,1.88-.65c8.11-2.95,29-7.09,50.15-7.09a138.3,138.3,0,0,1,17.78,1.09l.31,0c3.37.53,33.45,5.9,50.61,30.69,10.48,15.15,13.57,33.49,9.21,54.52-11.2,54-42.66,85-93.48,92.16C227.14,557.33,216.39,558.65,206.27,558.65Z" style="fill:none"/><path d="M206.27,547c-26.22,0-42-10.53-51.06-34.13-13.18-34.21-17.36-54.8-5.44-79.28,11-22.69,42.65-33.34,54.54-37.35,1-.33,1.79-.6,2.38-.82,7.1-2.58,26.68-6.39,46.16-6.39a126.49,126.49,0,0,1,16.27,1c1.33.21,28.22,4.7,42.83,25.81,8.6,12.43,11.08,27.75,7.39,45.55-10.24,49.33-37.62,76.48-83.7,83C225.94,545.74,215.68,547,206.27,547Z" style="fill:#e516c1"/><path d="M268.2,397s55.52,8.82,44.27,63-42.16,72.46-77.83,77.5-60.28,5.68-72.91-27.09-16.41-51.67-5.68-73.72,46.08-32.13,53-34.65S244,393.8,268.2,397Z" style="fill:#3c3c3b"/><path d="M363.18,723h0l-137-.93.18-3.56c.17-3.55.66-7.49,1.17-11.66C231.08,677.84,236,638,156.58,622c-31.35-6.35-53-19.75-64.46-39.83-16.34-28.71-5.56-60.24-5.1-61.57l.25-.55c2.93-5.8,4.68-31.09-9.9-84.79a286.18,286.18,0,0,1-3.29-135.09c10.28-47.38,31.85-91.15,64.12-130.08,63.1-76.11,153.37-85.87,225-85.87s161.86,9.76,225,85.87C620.41,209,642,252.74,652.26,300.13A286.27,286.27,0,0,1,649,435.22c-14.58,53.7-12.82,79-9.86,84.86l.21.48c.47,1.33,11.24,32.86-5.1,61.57-11.42,20.08-33.11,33.48-64.45,39.83-79.41,16.09-74.5,55.87-70.92,84.93.51,4.17,1,8.11,1.17,11.66l.18,3.56Zm-129.76-7.71,129.76.88,129.75-.88c-.22-2.39-.54-5-.87-7.61-1.84-14.91-4.12-33.46,4.9-50.87,10.55-20.38,33.92-34,71.44-41.57,29.33-5.94,49.47-18.23,59.87-36.51,14.17-24.91,5.52-53.07,4.66-55.74-1.59-3.24-8.68-22.87,9.43-89.59a279.41,279.41,0,0,0,3.21-131.86c-10-46.31-31.14-89.09-62.71-127.17C521.59,100.48,433.27,91,363.18,91s-158.41,9.48-219.69,83.4c-31.57,38.08-52.67,80.86-62.71,127.17A279.27,279.27,0,0,0,84,433.43c18.11,66.7,11,86.34,9.43,89.59-.86,2.65-9.5,30.95,4.68,55.8,10.42,18.25,30.55,30.51,59.84,36.45,37.51,7.6,60.89,21.2,71.44,41.57,9,17.42,6.74,36,4.9,50.87C234,710.39,233.64,712.95,233.42,715.34Z" style="fill:#3c3c3b"/><path d="M557.08,624c-4.61,14.15-8.09,28.69-12.42,42.93-5.1,16.76-12,32.53-19.46,48.36a.13.13,0,0,0,.21.15C547.73,692.22,557,656.51,565,626.17,566.34,621,558.71,619,557.08,624Z" style="fill:#3c3c3b"/><path d="M575.33,619.64c-3.19,8.79-5.69,17.76-8.88,26.57-.07.18.17.27.29.17,7.44-6.36,12.24-15.82,15.74-24.77C584.2,617.19,576.94,615.16,575.33,619.64Z" style="fill:#3c3c3b"/><path d="M591.29,615.28c-1.83,6.41-3,14.29-6.89,19.79-.06.09.06.16.14.1a41.72,41.72,0,0,0,13.23-18.12C599.34,613.11,592.49,611.06,591.29,615.28Z" style="fill:#3c3c3b"/><path d="M198.74,717.28c-8.11-15.7-15.61-30.73-20.83-47.72-4.76-15.48-6.3-32.17-9.55-48-1.29-6.26-10.58-3.55-9.5,2.62,3.06,17.51,9.73,33.51,16,50,5.66,15,12.39,31.58,23,43.82C198.25,718.56,199,717.87,198.74,717.28Z" style="fill:#3c3c3b"/><path d="M156.12,643.83a87,87,0,0,1-4.79-15.24c-1-4.46-2.34-10.19-6.31-12.79a3,3,0,0,0-4.42,1.79c-1.6,4.76,2,9.76,4.66,13.55,1.37,2,3.32,3.22,4.84,5a59.83,59.83,0,0,1,5.34,8.06C155.71,644.68,156.32,644.29,156.12,643.83Z" style="fill:#3c3c3b"/><path d="M136.25,626.43c-2.69-5-2.66-10.36-3.22-15.83-.37-3.69-5.65-3.82-5.84,0-.57,11.52,8,19.19,15.14,26.81.07.07.2,0,.14-.1C139.93,634,138.21,630.08,136.25,626.43Z" style="fill:#3c3c3b"/><path d="M92.57,409.75a.48.48,0,0,0-.88.37c5.18,21.45,9.6,40.69,8,63a156.75,156.75,0,0,1-6.65,33.62c-3.17,10.58-8.53,20.58-10.27,31.52-.56,3.56,3.62,6.95,6.56,3.81,15.13-16.19,19.29-43.68,20-65C110,454.63,104.51,428.81,92.57,409.75Z" style="fill:#3c3c3b"/><path d="M642.61,531.33C639.13,510,630,489.49,624.87,468.49c-5.07-20.57,5.11-41.33,0-61.9-.06-.25-.4-.18-.42.06-1.89,22.75-9.23,43.86-7.93,66.93,1.15,20.38,9,43,17.48,61.37C636.41,540.18,643.4,536.18,642.61,531.33Z" style="fill:#3c3c3b"/><path d="M395.8,642.29c-12.75,0-27.09-7.24-36.88-16.08-9.79,8.85-24.13,16.08-36.88,16.08-11.62,0-21-5.69-26.42-16-10.37-19.78-7.92-43.8,7.26-71.39,3.93-7.14,21.53-29.41,25-33.8,23.78-29.93,25-29.93,31-29.93s7.24,0,31,29.93c3.49,4.39,21.09,26.66,25,33.8,15.19,27.59,17.64,51.61,7.27,71.39-5.42,10.33-14.8,16-26.42,16Z" style="fill:#e516c1"/><path d="M404.73,560.49c-4.88-8.87-43.68-57.7-45.82-57.7s-40.94,48.83-45.82,57.7-19.68,36.49-7.15,60.38,49.66-2,53-13.65c3.31,11.6,40.45,37.54,53,13.65S409.62,569.36,404.73,560.49Z" style="fill:#3c3c3b"/><path d="M492.36,689.82c-2.54-9.78-14.06-10.41-21.15-5.47a13.18,13.18,0,0,0-2.77-1.88,19.32,19.32,0,0,0-6.82-1.72,10.84,10.84,0,0,0-3.84.24c-.06,0-.5.27-1.05.59a17.66,17.66,0,0,0-10.57-7.9c-5.6-1.54-12.48.63-16.94,4a14.48,14.48,0,0,0-2,1.88,34.61,34.61,0,0,0-15.82-8.42C404.87,669.8,397,670,391.36,674a31.17,31.17,0,0,0-15.67-1.84,26.32,26.32,0,0,0-13.24,6.15,26.15,26.15,0,0,0-10.2-4.91,23.44,23.44,0,0,0-19.45,4.2,26.74,26.74,0,0,0-10.8-6.87c-8.4-2.84-15.58-.17-21.1,5.07a32.31,32.31,0,0,0-9.73-4c-10-2.32-17.52.86-21.9,9a10.79,10.79,0,0,0-6.35-.86,10.27,10.27,0,0,0-7.45,5.71c-5-3.33-10.8-4.45-15.28-1.58a11.94,11.94,0,0,0-3.27-1.56c-5.14-1.59-8.18,5.92-3.62,8.56a3.43,3.43,0,0,1,.71,3.52c-.33,7,9,7,11.27,1.52q-1.14-2.41.57-1.33a11.34,11.34,0,0,1,3.35,2.81,21.19,21.19,0,0,1,3.81,6.31c3,7,12.35,2.55,12.9-3.49a28.3,28.3,0,0,1,.49-4c1.13,1.62,2.27,3.36,2.69,3.83,4.28,4.68,12.42-.19,10.58-6.15a26,26,0,0,0-2.1-4.9c2.12-.81,4.14-1.84,6-1.88,3.14,0,10.36,2.23,10.13,6-.68,11.18,16.8,11.15,17.4,0a17.34,17.34,0,0,0-.75-6.12A24.74,24.74,0,0,1,313,687c2.15-.09,6.17.57,7.1,3,.53,1.41-.49,3.78-.28,5.53.34,2.85,1.4,5.68,4,7.22,6,3.51,12.18-2.08,13.71-7.64a18.06,18.06,0,0,0,.6-3.77c3.55-.27,7-.87,10.64.19,7.27,2.15,7.89,13.13,9.59,18.88,2.93,9.9,16.1,7.11,17.08-2.31a32.86,32.86,0,0,0-3-16.78,35.91,35.91,0,0,1,3.71-1.24c2.24-.57,5.49-.88,7.66.1,3,1.37,3.49,5,5.31,7.45,3.83,5.19,13.66,5.82,15.2-2a18.91,18.91,0,0,0,0-7.75,17,17,0,0,1,2.37.34,16.71,16.71,0,0,1,8.61,4.73c2.15,2.21,2.34,6.66,3.68,9.39,2.63,5.39,11.19,5.1,13.9,0a15.75,15.75,0,0,0,1.74-10.29c3.29-1.72,6.51-3,8-1.53,1.26,1.25.32,5.3.14,6.81-.66,5.78,5.86,9.37,10.68,8.12a8.52,8.52,0,0,0,5.57-4.85,7.51,7.51,0,0,0-.05,1.31,8.13,8.13,0,0,0,13.74,5.68,13,13,0,0,0,3.9-7.13l2-.68c3.54,2.42,8.12,1.62,11.41-1.16C492.46,696.57,493.12,692.76,492.36,689.82Z" style="fill:#fcd310"/><path d="M515.78,728.35C513,722.27,504,719,499.27,724.92c-2.06,2.59-1.82,5.77,1,7.71-2-1.4-1.83-2.16-.09,1.11-.14-.26,1,2.54,1.35,3.74.93,3.67.63,8.27.27,12.18a25.06,25.06,0,0,1-2.5,8.75,7.51,7.51,0,0,0-3.23-1.82c-3.86-1.06-8.84,1.27-9.64,5.47-.13.66-.22,1.33-.3,2a4.4,4.4,0,0,0-.3.38,7.76,7.76,0,0,0-2.52-1.26c-3.85-1.06-9.19,1.27-9.86,5.59-.5,3.26-.67,5.34-2.13,7.14-1.89-6.4-12.84-8-14.64,0-.64,2.87-1.74,6.07-3.38,7.47a12,12,0,0,0-.26-6.09c-1.83-4.86-8.1-7.47-12.15-3.2-4.4,4.65-3.68,12.83-7,18.18,0,0-.33.2-.59.39a3.06,3.06,0,0,1-.81-.3c-1.41-.73-2.67-3.05-3.76-4.25a14.73,14.73,0,0,0-1.23-1.2c.92-5.51-.56-13.09-7.52-13.09-7.41,0-7.77,8.26-9.57,13.41-1.11,3.18-2.11,3.81-4.77,1.72a30.87,30.87,0,0,1-3.49-3.31,60.85,60.85,0,0,0,1.63-10.4c.77-11.47-17.12-11.42-17.86,0-.28,4.33-1.88,13-5.91,16-1.88,1.43-3-.37-4.29-2a32.48,32.48,0,0,0-5.13-5c1.57-5.85,1.58-11.76-.77-16.41-2.43-4.84-9.11-4-11.76,0-4.86,7.28-3.58,16.85-10.39,23.25-2.1,2-4.62-2.51-5.43-3.86-.5-.81-1-1.66-1.6-2.51,2.34-6.09,3.36-12.51,1.85-17.86-1.28-4.56-6.52-10.72-11.81-7.09s-4,10.38-5.24,15.77c-1.14,5-3.65,11.54-7.89,14.76-2.13,1.62-3.16.69-5.2-.82a16.49,16.49,0,0,0-2.79-1.61,5.39,5.39,0,0,0-2.74-2.79,11.47,11.47,0,0,0-2.11-.68,4.51,4.51,0,0,0-3-2.6,5,5,0,0,0-6.11,3.46,6.24,6.24,0,0,1-.19.76l-.12.23c-.1.17-.22.32-.33.49.14-.24-.56.57-.66.66l-.22.19c-.33.23-.67.45-1,.65a9.87,9.87,0,0,0-2.83,2,40.89,40.89,0,0,0-2.81-3.15,7.36,7.36,0,0,0-3.58-7.69c-3.32-1.94-8.19-1-10.23,2.38-1.22-.73-.1-.25-2.14-1.55a21.1,21.1,0,0,0-3.15-1.65,8.38,8.38,0,0,0-4.05-6.59c-4.14-2.42-8.52-.64-11.16,2.92l-.27.4c-.76-1.18-1.5-2.36-2.26-3.54a10.36,10.36,0,0,0-1.45-1.76,7.3,7.3,0,0,0-.16-1,8.08,8.08,0,0,0-9.85-5.58l-.63.15c.4,0-2.3-1.21-1.46-.55-.68-.54-1.35-1-2-1.51-.42-4.11-3.75-7.74-8.72-5.9a16.24,16.24,0,0,1-2.61.62c-.12,0-.22-.05-.18,0l-.06,0c-.2-.17-.11-.14-.66-1.17-1.08-2-1.25-6.52-1.15-9.63a41.89,41.89,0,0,1,1.8-10.79,10.24,10.24,0,0,1,1.38-2.7c.16-.25.27-.42.37-.59a3.49,3.49,0,0,0,1.91-4.1c-2.17-5.24-8.57-5.72-12.27-1.57-4.57,5.13-6.16,12.15-6.95,18.77-1.43,12,3.93,27.28,16.76,26.33a15.88,15.88,0,0,0,3.44,4.26,16.06,16.06,0,0,0,9.23,4.05c.08.28.14.57.23.83a23,23,0,0,0,6.58,10.59c5.82,5,12.44,4.14,17.38.26a25.74,25.74,0,0,0,6.16,4.91A13.65,13.65,0,0,0,279,796.94c1.5,4.42,5.71,8.35,9.86,10.11,6.35,2.69,12.14.6,16.16-3.67,6.68,5.26,16.09,5.94,23.74-.77a32.5,32.5,0,0,0,2.6-2.59c4.8,6.78,13.54,10.16,21.52,7a25.54,25.54,0,0,0,9.82-7.6,27.88,27.88,0,0,0,2.79,4c5.13,6.15,14.49,7.5,21.52,4.24a22.65,22.65,0,0,0,8.61-7.27,20.08,20.08,0,0,0,7.7,4.84c7,2.33,12.87,0,17.17-4.41,4.42,5.61,12.91,8.86,19.72,5.51,3.86-1.89,6.42-5.34,8.3-9.09a18.34,18.34,0,0,0,9.11.06,17.25,17.25,0,0,0,9.31-7.23A14.81,14.81,0,0,0,479.21,789a18.51,18.51,0,0,0,7.55-8.44,11.29,11.29,0,0,0,4.29-.43,13,13,0,0,0,2.17-.92c5.84,1.11,12.59-1.67,16.77-5.66,6-5.69,8.2-14.72,9.05-22.6A42.2,42.2,0,0,0,515.78,728.35Z" style="fill:#fcd310"/><path d="M429.64,137c-13.83,10.34-31.92,22.62-32.38,42-.09,3.7,5,6,7.54,3.12,11.42-13,15.94-30.53,24.9-45C429.72,137,429.67,137,429.64,137Z" style="fill:#3aaa61"/><path d="M306.82,131.15c2.06,17.13,3.67,38.9,20.21,49,3.17,1.93,7.73-1.28,6.48-5-5.57-16.37-18.52-29-26.59-44C306.89,131.09,306.82,131.1,306.82,131.15Z" style="fill:#3aaa61"/><path d="M240.33,234.39c15.89,6.79,35.59,16.28,52.59,7,3.26-1.77,2.75-7.32-1.07-8.08-17-3.37-34.45,1.49-51.49,1A0,0,0,0,0,240.33,234.39Z" style="fill:#3aaa61"/><path d="M296.65,343.5c13.83-10.34,31.91-22.63,32.38-42,.09-3.7-5-6-7.54-3.12-11.41,13-15.93,30.53-24.9,45C296.57,343.48,296.61,343.53,296.65,343.5Z" style="fill:#3aaa61"/><path d="M419.46,349.36c-2.06-17.13-3.68-38.9-20.2-49-3.17-1.93-7.72,1.28-6.48,5,5.56,16.36,18.52,29,26.59,44A0,0,0,0,0,419.46,349.36Z" style="fill:#3aaa61"/><path d="M486,246.12c-15.88-6.78-35.58-16.27-52.58-7-3.26,1.77-2.75,7.32,1.07,8.08,17,3.37,34.45-1.49,51.49-1A0,0,0,0,0,486,246.12Z" style="fill:#3aaa61"/><path d="M405.3,181.43c0,31.2-18.88,56.5-42.16,56.5S321,212.63,321,181.43c0-17.21,5.74-32.62,14.8-43,7.36-8.43,16.92,9,27.36,9,10.68,0,20.42-17.17,27.85-8.39C399.77,149.37,405.3,164.53,405.3,181.43Z" style="fill:#fcd310"/><path d="M335.21,173.23c27.07,15.6,39.58,44.57,27.94,64.69s-43,23.79-70.09,8.19c-14.93-8.61-25.43-21.27-29.9-34.28-3.63-10.58,16.24-10.14,21.47-19.17,5.34-9.23-4.68-26.24,6.64-28.28C304.63,162,320.55,164.79,335.21,173.23Z" style="fill:#fcd310"/><path d="M293.06,229.73c27.07-15.6,58.44-11.93,70.09,8.19s-.87,49.09-27.94,64.69c-14.93,8.6-31.17,11.34-44.69,8.71-11-2.15-.67-19.11-5.89-28.14-5.34-9.23-25.11-9.08-21.21-19.88C268,250.55,278.4,238.18,293.06,229.73Z" style="fill:#fcd310"/><path d="M321,294.43c0-31.21,18.87-56.5,42.15-56.5s42.15,25.3,42.15,56.5c0,17.21-5.73,32.62-14.78,43-7.36,8.44-16.91-9-27.36-9-10.67,0-20.43,17.17-27.85,8.4C326.53,326.48,321,311.32,321,294.43Z" style="fill:#fcd310"/><path d="M391.09,302.62C364,287,351.5,258.05,363.15,237.93s43-23.79,70.09-8.19c14.93,8.6,25.43,21.26,29.9,34.27,3.64,10.59-16.24,10.14-21.47,19.17-5.34,9.23,4.68,26.24-6.64,28.28C421.66,313.86,405.74,311.06,391.09,302.62Z" style="fill:#fcd310"/><path d="M433.24,246.12c-27.08,15.61-58.45,11.93-70.09-8.19s.88-49.09,27.94-64.69c14.93-8.6,31.16-11.35,44.68-8.71,11,2.15.68,19.11,5.9,28.14,5.34,9.23,25.11,9.08,21.21,19.88C458.28,225.3,447.89,237.67,433.24,246.12Z" style="fill:#fcd310"/><path d="M363.16,277.16a39.22,39.22,0,1,1,39.29-39.23A39.3,39.3,0,0,1,363.16,277.16Z" style="fill:#fcd310"/><path d="M363.16,203.23a34.71,34.71,0,1,1-34.76,34.71,34.74,34.74,0,0,1,34.76-34.71m0-9A43.74,43.74,0,1,0,407,237.93a43.83,43.83,0,0,0-43.81-43.74Z" style="fill:#3c3c3b"/><ellipse cx="363.16" cy="237.93" rx="16.22" ry="16.2" style="fill:#3c3c3b"/><path d="M351.14,180.53c-1.31-6.21-1.86-12.57-2.94-18.83a.29.29,0,0,0-.55,0c-1.79,10.82-3.2,30,6.34,37.88a1.79,1.79,0,0,0,3-1.72C355.84,191.92,352.42,186.6,351.14,180.53Z" style="fill:#3c3c3b"/><path d="M374.73,158.32a.35.35,0,0,0-.67,0c-1.28,5.6-1.09,11.44-1.43,17.15a58.21,58.21,0,0,1-5.68,21.47c-1.47,3.18,2.92,5.9,4.77,2.78C378.23,188.71,377.59,170.34,374.73,158.32Z" style="fill:#3c3c3b"/><path d="M307.36,219.61c-6-2-11.83-4.68-17.8-6.87a.29.29,0,0,0-.28.47c8.49,7,24.43,17.77,36,13.46a1.79,1.79,0,0,0,0-3.44C319.57,221.24,313.25,221.53,307.36,219.61Z" style="fill:#3c3c3b"/><path d="M299.88,188.1a.34.34,0,0,0-.33.58c4.22,3.91,9.37,6.67,14.16,9.82a58.29,58.29,0,0,1,15.78,15.64c2,2.86,6.58.42,4.8-2.72C328,200.28,311.73,191.65,299.88,188.1Z" style="fill:#3c3c3b"/><path d="M319.36,277c-4.74,4.25-10,7.9-14.86,12a.29.29,0,0,0,.28.48c10.28-3.86,27.62-12.24,29.69-24.42a1.79,1.79,0,0,0-3-1.71C326.89,267.24,324,272.87,319.36,277Z" style="fill:#3c3c3b"/><path d="M288.29,267.71a.35.35,0,0,0,.33.58c5.51-1.69,10.47-4.77,15.6-7.34a58.42,58.42,0,0,1,21.46-5.82c3.49-.32,3.66-5.48,0-5.52C312.91,249.49,297.29,259.23,288.29,267.71Z" style="fill:#3c3c3b"/><path d="M375.15,295.32c1.31,6.22,1.87,12.57,2.95,18.83a.28.28,0,0,0,.54,0c1.8-10.82,3.2-30-6.33-37.88a1.79,1.79,0,0,0-3,1.72C370.45,283.93,373.87,289.26,375.15,295.32Z" style="fill:#3c3c3b"/><path d="M351.55,317.54a.35.35,0,0,0,.67,0c1.29-5.61,1.1-11.43,1.44-17.15a58,58,0,0,1,5.68-21.47c1.47-3.17-2.92-5.9-4.77-2.79C348.06,287.14,348.69,305.52,351.55,317.54Z" style="fill:#3c3c3b"/><path d="M418.94,256.24c6.06,2,11.84,4.67,17.8,6.87a.29.29,0,0,0,.27-.48c-8.49-7-24.43-17.76-36-13.46a1.79,1.79,0,0,0,0,3.44C406.71,254.61,413,254.32,418.94,256.24Z" style="fill:#3c3c3b"/><path d="M426.42,287.75a.35.35,0,0,0,.33-.58c-4.22-3.92-9.37-6.66-14.16-9.82a58.37,58.37,0,0,1-15.79-15.64c-2-2.85-6.58-.43-4.8,2.72C398.29,275.57,414.55,284.21,426.42,287.75Z" style="fill:#3c3c3b"/><path d="M406.93,198.85c4.74-4.25,10-7.89,14.86-12a.29.29,0,0,0-.29-.47c-10.27,3.86-27.62,12.23-29.69,24.41a1.79,1.79,0,0,0,3,1.7C399.4,208.61,402.31,203,406.93,198.85Z" style="fill:#3c3c3b"/><path d="M438,208.14a.35.35,0,0,0-.33-.58c-5.51,1.69-10.47,4.77-15.6,7.34a58.22,58.22,0,0,1-21.47,5.82c-3.48.32-3.65,5.48,0,5.51C413.38,226.36,429,216.62,438,208.14Z" style="fill:#3c3c3b"/><path d="M214.3,366.48c-8.82,0-8.82,13.64,0,13.64S223.11,366.48,214.3,366.48Z" style="fill:#3aaa61"/><path d="M186.31,374.07a8.61,8.61,0,0,0-6.06,2.5c-1.94,1.94-3.34,5.61-2.2,8.32a9.45,9.45,0,0,0,2.19,3.79,8.76,8.76,0,0,0,3.8,2.18,8.55,8.55,0,1,0,2.28-16.79Z" style="fill:#3aaa61"/><path d="M159.87,386.22a8.82,8.82,0,1,0,8.84,8.82A8.91,8.91,0,0,0,159.87,386.22Z" style="fill:#3aaa61"/><path d="M135.77,408.63c-11.52,0-11.52,17.82,0,17.82S147.29,408.63,135.77,408.63Z" style="fill:#3aaa61"/><path d="M129.55,439.84c-6.29,0-6.29,9.73,0,9.73S135.84,439.84,129.55,439.84Z" style="fill:#3aaa61"/><path d="M129.55,465.68c-6,0-6,9.28,0,9.28S135.55,465.68,129.55,465.68Z" style="fill:#3aaa61"/><path d="M131.89,491.84c-5.29,0-5.29,8.19,0,8.19S137.17,491.84,131.89,491.84Z" style="fill:#3aaa61"/><path d="M147.13,523.1a6.84,6.84,0,0,0-1.45-4.14,7.21,7.21,0,0,0-6-3.23,7.37,7.37,0,1,0,0,14.74,7.21,7.21,0,0,0,6-3.23A6.84,6.84,0,0,0,147.13,523.1Z" style="fill:#3aaa61"/><path d="M157.54,537.56c-10.4,0-10.4,16.1,0,16.1S167.94,537.56,157.54,537.56Z" style="fill:#3aaa61"/><path d="M184,552.17c-10.58,0-10.58,16.37,0,16.37S194.55,552.17,184,552.17Z" style="fill:#3aaa61"/><path d="M225.8,557.32a9,9,0,0,0-5.34-4.1,8.3,8.3,0,0,0-5,.14l.12-.07a1.06,1.06,0,0,1-.32.09c-3.82.79-6.51,4.79-6.51,8.53a8.88,8.88,0,0,0,2.6,6.26,9.43,9.43,0,0,0,6.27,2.59,6,6,0,0,0,2.8-.35c2.26-1,4-1.89,5.34-4.1A9,9,0,0,0,225.8,557.32Z" style="fill:#3aaa61"/><path d="M256.29,546.65c-10.7,0-10.7,16.55,0,16.55S267,546.65,256.29,546.65Z" style="fill:#3aaa61"/><path d="M285,535.86c-5.58,0-5.58,8.64,0,8.64S290.63,535.86,285,535.86Z" style="fill:#3aaa61"/><path d="M304.49,519.78c-5.29,0-5.29,8.19,0,8.19S309.77,519.78,304.49,519.78Z" style="fill:#3aaa61"/><path d="M317.7,496.6c-6.17,0-6.17,9.55,0,9.55S323.88,496.6,317.7,496.6Z" style="fill:#3aaa61"/><path d="M327.81,472.71c-4.93,0-4.93,7.64,0,7.64S332.75,472.71,327.81,472.71Z" style="fill:#3aaa61"/><path d="M333.26,448.89A5.14,5.14,0,1,0,338.4,454,5.19,5.19,0,0,0,333.26,448.89Z" style="fill:#3aaa61"/><path d="M330.92,410.87c-10.64,0-10.64,16.46,0,16.46S341.56,410.87,330.92,410.87Z" style="fill:#3aaa61"/><path d="M311.49,382.79c-9.81,0-9.81,15.19,0,15.19S321.3,382.79,311.49,382.79Z" style="fill:#3aaa61"/><path d="M278.83,365.39c-10.22,0-10.22,15.83,0,15.83S289.05,365.39,278.83,365.39Z" style="fill:#3aaa61"/><path d="M247,362.83c-9.52,0-9.52,14.73,0,14.73S256.47,362.83,247,362.83Z" style="fill:#3aaa61"/><path d="M509,366.48c8.82,0,8.82,13.64,0,13.64S500.19,366.48,509,366.48Z" style="fill:#3aaa61"/><path d="M537,374.07a8.61,8.61,0,0,1,6.06,2.5c1.94,1.94,3.34,5.61,2.2,8.32a9.46,9.46,0,0,1-2.19,3.79,8.59,8.59,0,0,1-14.63-6.06A8.63,8.63,0,0,1,537,374.07Z" style="fill:#3aaa61"/><path d="M563.42,386.22a8.82,8.82,0,1,1-8.84,8.82A8.91,8.91,0,0,1,563.42,386.22Z" style="fill:#3aaa61"/><path d="M587.53,408.63c11.52,0,11.52,17.82,0,17.82S576,408.63,587.53,408.63Z" style="fill:#3aaa61"/><path d="M593.75,439.84c6.29,0,6.29,9.73,0,9.73S587.46,439.84,593.75,439.84Z" style="fill:#3aaa61"/><path d="M593.75,465.68c6,0,6,9.28,0,9.28S587.75,465.68,593.75,465.68Z" style="fill:#3aaa61"/><path d="M591.41,491.84c5.29,0,5.29,8.19,0,8.19S586.12,491.84,591.41,491.84Z" style="fill:#3aaa61"/><path d="M576.17,523.1a6.83,6.83,0,0,1,1.45-4.14,7.21,7.21,0,0,1,6-3.23,7.37,7.37,0,1,1,0,14.74,7.22,7.22,0,0,1-6-3.23A6.83,6.83,0,0,1,576.17,523.1Z" style="fill:#3aaa61"/><path d="M565.76,537.56c10.4,0,10.4,16.1,0,16.1S555.36,537.56,565.76,537.56Z" style="fill:#3aaa61"/><path d="M539.32,552.17c10.58,0,10.58,16.37,0,16.37S528.75,552.17,539.32,552.17Z" style="fill:#3aaa61"/><path d="M497.5,557.32a9,9,0,0,1,5.34-4.1,8.3,8.3,0,0,1,5,.14l-.12-.07a1.07,1.07,0,0,0,.31.09c3.83.79,6.51,4.79,6.51,8.53a8.89,8.89,0,0,1-2.6,6.26,9.43,9.43,0,0,1-6.27,2.59,6,6,0,0,1-2.79-.35c-2.26-1-4-1.89-5.34-4.1A9,9,0,0,1,497.5,557.32Z" style="fill:#3aaa61"/><path d="M467,546.65c10.7,0,10.7,16.55,0,16.55S456.32,546.65,467,546.65Z" style="fill:#3aaa61"/><path d="M438.25,535.86c5.58,0,5.58,8.64,0,8.64S432.67,535.86,438.25,535.86Z" style="fill:#3aaa61"/><path d="M418.81,519.78c5.29,0,5.29,8.19,0,8.19S413.52,519.78,418.81,519.78Z" style="fill:#3aaa61"/><path d="M405.6,496.6c6.17,0,6.17,9.55,0,9.55S399.42,496.6,405.6,496.6Z" style="fill:#3aaa61"/><path d="M395.49,472.71c4.93,0,4.93,7.64,0,7.64S390.55,472.71,395.49,472.71Z" style="fill:#3aaa61"/><path d="M390,448.89A5.14,5.14,0,1,1,384.9,454,5.19,5.19,0,0,1,390,448.89Z" style="fill:#3aaa61"/><path d="M392.38,410.87c10.64,0,10.64,16.46,0,16.46S381.74,410.87,392.38,410.87Z" style="fill:#3aaa61"/><path d="M411.82,382.79c9.81,0,9.81,15.19,0,15.19S402,382.79,411.82,382.79Z" style="fill:#3aaa61"/><path d="M444.47,365.39c10.22,0,10.22,15.83,0,15.83S434.25,365.39,444.47,365.39Z" style="fill:#3aaa61"/><path d="M476.35,362.83c9.52,0,9.52,14.73,0,14.73S466.83,362.83,476.35,362.83Z" style="fill:#3aaa61"/><path d="M354.72,90.63c-20.16-4.3-41.1,1.69-58.79,11.24-12.75,6.89-37.31,31.22-22.29,46.53,2.68,2.73,6.5,1,7.77-2,2.57-6.23,1.91-12.7,5.25-18.95,4.23-7.92,12-14.19,19.15-19.38,13-9.45,32.29-19.45,48.83-17.09C354.83,91,354.93,90.67,354.72,90.63Z" style="fill:#fcd310"/><path d="M360,92.36c-16.74,7.23-36,12.68-42.2,31.81-3.5,10.71,14.17,15.59,16.87,4.64,3.6-14.63,13.7-26.85,26.22-34.94A.88.88,0,0,0,360,92.36Z" style="fill:#fcd310"/><path d="M368.9,109.94a70.87,70.87,0,0,1-5.15-16.31c-.21-1-1.6-.85-1.9,0-1.58,4.65-2,9.35-3.66,14-1.93,5.48-2.75,10.32-1.46,16.1,1.51,6.7,12.34,6.89,13.71,0A21.22,21.22,0,0,0,368.9,109.94Z" style="fill:#fcd310"/><path d="M404.72,118.56c-3.79-8.21-12.17-10.71-18.69-16.19-5.38-4.52-13.68-9.11-20.91-8.69-.89.05-1.45,1.39-.49,1.83,6.68,3.1,12.22,5.38,17.76,10.49s5.4,14,8.46,20.65C395.18,136,409,127.89,404.72,118.56Z" style="fill:#fcd310"/><path d="M428,101c-13.09-6.72-31.37-11.6-46.08-11.38a.44.44,0,0,0-.22.81c10.67,6.92,23.66,8.52,34.61,15.11,5.85,3.52,10.12,9,13.16,14.88,3.17,6.16,3.67,13.5,7.75,19,3.61,4.89,11,4.54,13-1.7C455.08,122.31,440.52,107.4,428,101Z" style="fill:#fcd310"/><path d="M370.37,355.16c-3.13-6.19-13.15-6.1-16.3,0-4.56,8.81-1.66,19.33-.78,28.9,1.1,11.86,5.24,22.22,8.56,33.59.1.34.67.39.74,0,1.79-10.31,5.91-19.46,7.3-29.79S375.32,364.94,370.37,355.16Z" style="fill:#fcd310"/><path d="M337.08,377.07c0-2-.81-4.44-1.17-6.48a18.53,18.53,0,0,0-6-10.36c-3.72-2.92-10.33.89-7.14,5.5a58.45,58.45,0,0,0,6.8,8.54c2.79,2.71,6.12,5.68,8.08,9a.06.06,0,0,0,.12-.05A17.91,17.91,0,0,1,337.08,377.07Z" style="fill:#fcd310"/><path d="M365.46,429.44c-2.74-2.73-7.14.05-6.29,3.65l.1.4a3,3,0,0,0,2.14,2.14l.4.09C365.4,436.57,368.19,432.17,365.46,429.44Z" style="fill:#fcd310"/><path d="M362.8,446.79c-6.58,0-6.58,10.19,0,10.19S369.37,446.79,362.8,446.79Z" style="fill:#fcd310"/><path d="M363.38,465.9c-9,0-9,13.88,0,13.88S372.35,465.9,363.38,465.9Z" style="fill:#fcd310"/><path d="M388,377.07c0-2,.81-4.44,1.17-6.48a18.54,18.54,0,0,1,6-10.36c3.72-2.92,10.33.89,7.14,5.5a58,58,0,0,1-6.79,8.54c-2.79,2.71-6.12,5.68-8.08,9a.07.07,0,0,1-.12-.05A17.91,17.91,0,0,0,388,377.07Z" style="fill:#fcd310"/><path d="M363.18,726.38h0l-140.53-1,.35-7c.19-3.67.67-7.66,1.2-11.88,3.61-29.33,8.11-65.79-68.26-81.26-32.34-6.55-54.78-20.5-66.71-41.45-17-29.94-5.83-62.93-5.34-64.32l.37-.84c2.27-4.5,4.76-27.85-10.09-82.53a289.59,289.59,0,0,1-3.33-136.68c10.4-47.92,32.2-92.16,64.82-131.5,64-77.19,155.21-87.09,227.54-87.09s163.55,9.9,227.54,87.09c32.62,39.34,54.42,83.58,64.82,131.5a289.68,289.68,0,0,1-3.32,136.68c-14.85,54.68-12.33,78.08-10.1,82.48l.38.88c.49,1.39,11.72,34.33-5.34,64.33-11.93,21-34.37,34.9-66.71,41.45-76.37,15.47-71.87,51.94-68.26,81.24.53,4.25,1,8.24,1.2,11.91l.35,7Zm-133.52-7.59,133.5.91,133.52-.91v-.07c-.17-3.43-.65-7.3-1.16-11.4-3.53-28.66-8.86-71.94,73.58-88.63,30.35-6.15,51.28-19,62.21-38.2,15.24-26.79,5.73-56.24,4.89-58.69l-.15-.35c-3.33-6.58-5.13-32.53,9.69-87.1A282.86,282.86,0,0,0,649,300.84c-10.16-46.86-31.5-90.15-63.43-128.66C523.35,97.14,434,87.52,363.18,87.52S203,97.14,140.8,172.18C108.87,210.69,87.53,254,77.36,300.84a282.86,282.86,0,0,0,3.25,133.51c14.81,54.57,13,80.47,9.65,87.17l-.13.28c-.85,2.51-10.31,32,4.89,58.69,10.93,19.2,31.86,32.06,62.21,38.2,82.44,16.7,77.11,60,73.58,88.61-.51,4.12-1,8-1.16,11.42Zm133.54.76-133.46-.9.34-3.63c.23-2.38.54-4.94.86-7.6,1.8-14.56,4-32.53-4.54-49-10.07-19.42-32.68-32.45-69.14-39.84-30.28-6.13-51.17-18.94-62.09-38.07-14.81-26-6-55.23-5-58.48l.18-.44c.93-1.88,8.51-20.35-9.65-87.24A282.72,282.72,0,0,1,77.5,300.87C87.66,254,109,210.77,140.91,172.27c62.17-75,151.44-84.61,222.27-84.61s160.1,9.62,222.27,84.61c31.91,38.49,53.24,81.76,63.4,128.59a282.68,282.68,0,0,1-3.25,133.44c-18.16,66.92-10.58,85.36-9.65,87.24l.18.44c1.06,3.24,9.89,32.38-4.93,58.42-10.91,19.16-31.81,32-62.12,38.13C532.62,625.94,510,639,499.94,658.39c-8.55,16.5-6.33,34.47-4.56,48.92l0,.33c.31,2.58.62,5.07.84,7.39l.34,3.63ZM237.14,712l126.06.85,126-.85c-.14-1.16-.28-2.36-.43-3.57l0-.32c-1.89-15.37-4.25-34.49,5.25-52.82C505,634,529.17,619.81,567.75,612c28.33-5.74,47.72-17.48,57.63-34.89,13.13-23.08,5.65-49.06,4.45-52.84-2.46-5.27-8.36-26.58,9.32-91.71a276,276,0,0,0,3.17-130.28c-9.92-45.78-30.79-88.08-62-125.75C519.9,103.69,432.54,94.35,363.18,94.35s-156.73,9.34-217.11,82.19C114.84,214.2,94,256.5,84,302.28a276,276,0,0,0,3.17,130.28C104.88,497.65,99,519,96.54,524.26c-1.21,3.81-8.66,29.89,4.47,52.91,9.92,17.38,29.3,29.1,57.59,34.83,38.57,7.81,62.7,22,73.76,43.31,9.5,18.34,7.14,37.46,5.25,52.82C237.44,709.48,237.28,710.77,237.14,712Z" style="fill:#3c3c3b"/><path d="M241.44,710s-1.07-11.72-7.3-13.91-9.57,3.12-9.11,15.21,1.82,20.51,12.77,21.76S241.44,710,241.44,710Z" style="fill:#f9efe1"/><path d="M363.14,725.71s.39,7.73-6.38,7.73H329.41s-7.75,0-5.47-12.75,8.16-32.75,19.58-32.75C363.53,687.94,363.14,725.71,363.14,725.71Z" style="fill:#f9efe1"/><path d="M299.64,710.7s1.06-14.11-9-22.75-13.22,7.28-13.22,13.65-1.36,28.21,2.73,31.85S299,733.45,299.64,710.7Z" style="fill:#f9efe1"/><path d="M325.51,713.36s3.9-23.15-4.31-28.61S293.86,713.42,297,729.35C297,729.35,323,744.7,325.51,713.36Z" style="fill:#f9efe1"/><path d="M277.23,710l-6.62-13.91s-6.84-7.73-7.75,1.82a201,201,0,0,1-4.11,22.74s-2.73,8.66,5.47,8.66S278.38,732.61,277.23,710Z" style="fill:#f9efe1"/><path d="M260.78,711.35s-3.39-8.39-8.86-12.94-10-1.75-10.48,11.64.57,20.75,9.67,19.47S259.65,717.62,260.78,711.35Z" style="fill:#f9efe1"/><path d="M365.19,725.73c0-1,.13-24.6-10.15-35a15.71,15.71,0,0,0-11.52-4.87c-6.8,0-11.67,5.75-15.08,12.83-.32-6.31-1.79-12.81-6.09-15.68a5.5,5.5,0,0,0-3.09-.93c-3,0-6.43,2.29-10.13,6.78a66.34,66.34,0,0,0-8.18,13.27A28.22,28.22,0,0,0,292,686.4c-2.32-2-4.56-3-6.68-3-8,0-9.88,13.2-9.92,18L272.34,695l-.19-.22c-.54-.61-3.38-3.65-6.36-3.65-1.62,0-4.42.86-5,6.63-.21,2.27-.57,4.76-1,7.23a32.09,32.09,0,0,0-6.61-8.16,9.21,9.21,0,0,0-5.77-2.5c-2.31,0-4.95,1.24-6.57,5.95-1.3-2.65-3.21-5.08-6.06-6.09-3.29-1.16-6.24-.59-8.3,1.55-2.64,2.73-3.83,8-3.55,15.67.46,12.12,1.87,22.27,14.58,23.72a8.31,8.31,0,0,0,1,.06,6.32,6.32,0,0,0,5.28-2.57,8,8,0,0,0,1-1.91,9.46,9.46,0,0,0,4.33,1,15.85,15.85,0,0,0,2.19-.17,10.55,10.55,0,0,0,6.26-3l0,0c1,1.3,2.86,2.84,6.56,2.84.92,0,1.81,0,2.67.09s1.67.08,2.45.08c2.23,0,4.79-.28,6.77-2.37l.06-.08c.57,2.79,1.41,4.77,2.64,5.86a7.76,7.76,0,0,0,5.2,1.74h0c3.1,0,7.68-1.53,11.4-5.95l.58.35c.28.17,6.92,4,14.12,4a15,15,0,0,0,12.08-5.43,9.34,9.34,0,0,0,1.61,3,7.69,7.69,0,0,0,5.6,2.8h27.35a7.89,7.89,0,0,0,5.88-2.34C365.35,730.32,365.22,726.08,365.19,725.73Zm-126.61,5.38a5,5,0,0,1-.55,0c-8.76-1-10.46-6.92-10.95-19.81-.32-8.53,1.37-11.61,2.4-12.68a2.74,2.74,0,0,1,2.1-.89,5.77,5.77,0,0,1,1.88.36c4,1.42,5.63,9.11,5.92,12.08-.27,8.15,0,13.84,2.17,17.43a6.23,6.23,0,0,1-1,2.62A2.25,2.25,0,0,1,238.58,731.11Zm12.24-3.62a12.14,12.14,0,0,1-1.62.12,4.38,4.38,0,0,1-3.43-1.18c.5-6.48-1.67-14.56-2.27-16.61.34-8.38,2.33-11.39,4-11.39a5.6,5.6,0,0,1,3.15,1.55c4.24,3.53,7.21,9.73,8,11.58-.91,4.54-1.75,8.09-1.87,8.59a13.33,13.33,0,0,0-.51,3.31A6.64,6.64,0,0,1,250.82,727.49Zm22.33-1.11c-.75.79-1.81,1.09-3.8,1.09-.72,0-1.47,0-2.25-.07s-1.88-.09-2.87-.09c-1.58,0-2.67-.39-3.23-1.15a3.71,3.71,0,0,1-.61-2,36.23,36.23,0,0,0,1.94-9.1c.15-1.22.29-2.38.47-3.38.83-4.24,1.69-9.24,2.1-13.57.23-2.46.84-2.92.89-2.92.7,0,2.14,1.06,3.1,2.07l6.31,13.27c0,.15,0,.28,0,.42,0,2.63,0,5.06,0,7.29C275,722.44,274.33,725.13,273.15,726.37ZM284,732.62a3.89,3.89,0,0,1-2.47-.71c-1.54-1.37-2.07-7.5-2.21-13.72.1-2.08.09-4.46,0-7.18,0-2,.07-3.82.1-5.16,0-1.74.08-3.22.08-4.27,0-5.76,2.27-14.12,5.83-14.12,1.09,0,2.47.69,4,2,8.38,7.22,8.35,18.84,8.28,20.83a50.65,50.65,0,0,0-2.91,13.9C291.82,730.19,287.37,732.62,284,732.62Zm26.1-1.56a26.74,26.74,0,0,1-11.22-3,20.19,20.19,0,0,1-.14-2.65A37.74,37.74,0,0,0,301.68,711,68.49,68.49,0,0,1,312.3,691.5c4-4.9,6.34-5.28,7-5.28a1.39,1.39,0,0,1,.81.24c5.15,3.42,4.84,18,3.44,26.48-.7,2.81-1.22,5.37-1.58,7.4-.12.69-.22,1.36-.29,2C319.48,728.13,315.63,731.06,310.12,731.06Zm49.55-.73a3.81,3.81,0,0,1-2.91,1.07H329.41a3.7,3.7,0,0,1-2.46-1.33c-1.16-1.38-1.58-3.75-1.28-6.89a39.46,39.46,0,0,0,1.86-9.43c3.14-12.49,8.57-23.75,16-23.76a11.6,11.6,0,0,1,8.6,3.65c9.08,9.15,9,31.82,9,32.17A7,7,0,0,1,359.67,730.33Z" style="fill:#3c3c3b"/><path d="M484.91,710s1.07-11.72,7.29-13.91,9.57,3.12,9.11,15.21-1.82,20.51-12.76,21.76S484.91,710,484.91,710Z" style="fill:#f9efe1"/><path d="M363.2,725.71s-.38,7.73,6.38,7.73h27.35s7.75,0,5.47-12.75-8.16-32.75-19.59-32.75C362.82,687.94,363.2,725.71,363.2,725.71Z" style="fill:#f9efe1"/><path d="M426.7,710.7s-1.05-14.11,9-22.75,13.22,7.28,13.22,13.65,1.37,28.21-2.73,31.85S427.3,733.45,426.7,710.7Z" style="fill:#f9efe1"/><path d="M400.83,713.36s-3.9-23.15,4.31-28.61,27.35,28.67,24.16,44.59C429.3,729.35,403.36,744.7,400.83,713.36Z" style="fill:#f9efe1"/><path d="M449.12,710l6.62-13.91s6.84-7.73,7.75,1.82a201,201,0,0,0,4.11,22.74s2.73,8.66-5.47,8.66S448,732.61,449.12,710Z" style="fill:#f9efe1"/><path d="M465.57,711.35s3.39-8.39,8.85-12.94,10-1.75,10.49,11.64-.58,20.75-9.67,19.47S466.7,717.62,465.57,711.35Z" style="fill:#f9efe1"/><path d="M499.82,695.75c-2.06-2.14-5-2.71-8.3-1.55-2.85,1-4.76,3.43-6.06,6.09-1.63-4.71-4.27-5.95-6.58-5.95a9.23,9.23,0,0,0-5.78,2.5A32,32,0,0,0,466.5,705c-.4-2.47-.76-5-1-7.23-.56-5.77-3.35-6.63-5-6.63-3,0-5.82,3-6.36,3.65L454,695l-3.06,6.43c0-4.85-1.9-18-9.92-18-2.12,0-4.36,1-6.68,3a28.27,28.27,0,0,0-8.93,15.78,66.12,66.12,0,0,0-8.18-13.26c-3.69-4.5-7.1-6.78-10.13-6.78a5.5,5.5,0,0,0-3.09.93c-4.3,2.87-5.77,9.38-6.09,15.69-3.42-7.09-8.28-12.84-15.09-12.84a15.75,15.75,0,0,0-11.52,4.87c-10.28,10.37-10.16,34-10.14,34.85,0,.47-.15,4.71,2.55,7.54a7.89,7.89,0,0,0,5.88,2.34h27.36a7.67,7.67,0,0,0,5.59-2.8,9.24,9.24,0,0,0,1.62-3,15,15,0,0,0,12.08,5.43c7.2,0,13.84-3.88,14.12-4l.59-.35c3.73,4.42,8.3,6,11.39,6a7.76,7.76,0,0,0,5.2-1.74c1.23-1.09,2.07-3.06,2.64-5.86l.06.08c2,2.08,4.54,2.37,6.77,2.37.77,0,1.6,0,2.45-.08s1.75-.09,2.67-.09c3.69,0,5.6-1.54,6.55-2.82l0,0a10.56,10.56,0,0,0,6.26,3,15.94,15.94,0,0,0,2.2.17,9.46,9.46,0,0,0,4.33-1,8.23,8.23,0,0,0,1,1.91,6.33,6.33,0,0,0,5.29,2.57,8.39,8.39,0,0,0,1-.06c12.71-1.45,14.12-11.6,14.58-23.72C503.66,703.76,502.47,698.49,499.82,695.75ZM399.44,730a3.68,3.68,0,0,1-2.53,1.39H369.59a3.81,3.81,0,0,1-2.9-1.06c-1.27-1.32-1.46-3.72-1.43-4.65,0-.23-.12-22.9,9-32a11.62,11.62,0,0,1,8.61-3.65c7.41,0,12.84,11.28,16,23.77a39.69,39.69,0,0,0,1.82,9.3C400.95,726.2,400.57,728.6,399.44,730Zm28-2a26.54,26.54,0,0,1-11.21,3c-5.51,0-9.36-2.93-11.51-8.72-.07-.65-.17-1.32-.29-2-.36-2-.88-4.58-1.58-7.38-1.41-8.46-1.72-23.06,3.44-26.49a1.39,1.39,0,0,1,.81-.24c.62,0,2.93.38,7,5.28A68.54,68.54,0,0,1,424.67,711a38,38,0,0,0,2.92,14.29A19.49,19.49,0,0,1,427.44,728Zm17.36,3.89a3.89,3.89,0,0,1-2.47.71c-3.35,0-7.8-2.43-10.68-8.43a50.73,50.73,0,0,0-2.91-13.88c-.06-1.74-.17-13.53,8.28-20.82a6.81,6.81,0,0,1,4-2c3.56,0,5.83,8.36,5.83,14.12,0,1.06,0,2.53.08,4.27,0,1.33.08,3.13.11,5.14-.12,2.72-.13,5.1,0,7.19C446.87,724.42,446.35,730.54,444.8,731.92Zm17.31-4.61c-1,0-1.95,0-2.87.09s-1.53.07-2.25.07c-2,0-3-.31-3.8-1.09-1.18-1.24-1.87-3.94-2.08-8.11.05-2.22.05-4.63,0-7.25,0-.16,0-.3,0-.46l6.31-13.27c.88-.92,2.37-2.06,3.13-2.06,0,0,.62.46.85,2.92.41,4.32,1.27,9.3,2.1,13.53v0c.19,1,.32,2.16.47,3.39a36.57,36.57,0,0,0,1.94,9.09,3.7,3.7,0,0,1-.59,2C464.79,726.91,463.71,727.3,462.12,727.3Zm15,.31a12.14,12.14,0,0,1-1.62-.12,6.66,6.66,0,0,1-5.45-4,13,13,0,0,0-.51-3.31c-.12-.49-1-4-1.87-8.59.83-1.85,3.8-8.06,8-11.58a5.61,5.61,0,0,1,3.15-1.55c1.63,0,3.62,3,4,11.39-.6,2.05-2.77,10.13-2.27,16.61A4.36,4.36,0,0,1,477.15,727.61Zm22.12-16.34c-.48,12.89-2.18,18.81-10.94,19.81a2.51,2.51,0,0,1-2.55-.89,6.2,6.2,0,0,1-1-2.63c2.12-3.59,2.43-9.28,2.16-17.43.27-2.78,1.89-10.66,5.92-12.07a5.79,5.79,0,0,1,1.88-.36,2.77,2.77,0,0,1,2.11.89C497.91,699.66,499.59,702.73,499.27,711.27Z" style="fill:#3c3c3b"/><path d="M237.25,735.93s-12.76-7.94-16.37-2.48-3.36,29.23,4.6,28.31S237.25,735.93,237.25,735.93Z" style="fill:#f9efe1"/><path d="M270.76,741.18s-4.26-3.87-12.46-2.84-8.2,10.12-8.2,10.12-4.07,28.67,4.12,30.94S264.54,768,264.54,768Z" style="fill:#f9efe1"/><path d="M348.1,790.33s-15.5-9.1-14.59-39.59c0,0-2.28-9.56,14.59-9.56s15,7.28,15,7.28S362.69,791.69,348.1,790.33Z" style="fill:#f9efe1"/><path d="M333.76,747.48s2-5.85-11.42-6.3-16.17-1-17.54,6.3-4.11,41,8.66,46.94S334.46,761.52,333.76,747.48Z" style="fill:#f9efe1"/><path d="M304.05,753.4s-2.91-10-6.09-12.46-12.64-7-13.61,8.43,1,44.9,8.24,45.66S305.13,777.9,304.05,753.4Z" style="fill:#f9efe1"/><path d="M284.35,749.37s-2.5-12.66-11.08-10-12.23,36.37-4.48,43.19,16.28-6.45,16-10.92S284.35,749.37,284.35,749.37Z" style="fill:#f9efe1"/><path d="M252.73,741.18s-.81-5-9.93-6.51-10,11.52-10,11.52-2.9,19.14,6.94,21.8S249,750.28,252.73,741.18Z" style="fill:#f9efe1"/><path d="M363.83,743.87c-2.46-3.15-7.76-4.74-15.73-4.74-6.28,0-10.87,1.27-13.69,3.8-2-2.31-6.07-3.6-12-3.8L320,739c-2.33-.08-4.34-.15-6-.15-6,0-9.24,1-10.77,6.35-1.11-2.41-2.48-4.74-4-5.92-.91-.71-4.18-3-7.88-3-2.26,0-5.7.93-7.64,5.91-1.67-2.72-4.24-5.23-8.12-5.23a9.69,9.69,0,0,0-2.92.47,6.78,6.78,0,0,0-2.08,1.13,18.54,18.54,0,0,0-9.56-2.45,23.09,23.09,0,0,0-3,.19,11.05,11.05,0,0,0-4.68,1.65c-1.45-1.94-4.37-4.31-10.22-5.31a11.21,11.21,0,0,0-1.81-.15,8.66,8.66,0,0,0-4.17,1c-2.33-1.3-7.71-4-12.08-4a6.6,6.6,0,0,0-5.91,2.84c-3.2,4.85-3.71,20.43.09,27.47,1.8,3.34,4.14,4,5.78,4h0a6.2,6.2,0,0,0,.68,0c2.1-.24,3.9-1.63,5.46-3.65,1.06,4.46,3.32,8.55,8,9.82a8.62,8.62,0,0,0,2.21.31,7,7,0,0,0,5.77-3c.47,6.74,2.12,12.89,6.51,14.11a8.66,8.66,0,0,0,2.33.33c3.54,0,6-2.3,7.58-5,.8,3.2,2.06,5.83,3.85,7.41a8.89,8.89,0,0,0,6,2.42h0c2.87,0,5.76-1.49,8.38-4.3a22.32,22.32,0,0,0,1.87-2.34c1.72,11.09,4.58,16.72,8.71,17.16.22,0,.44,0,.65,0h0a7.22,7.22,0,0,0,5.26-2.5c2.22-2.31,4-6.28,5.37-11.4,1.63,6,4.41,11,8.93,13.08a8.25,8.25,0,0,0,3.47.8h0c2.42,0,4.75-1.15,6.9-3.4,4.65-4.88,8.11-14.55,10.27-24.17,4,16.56,13.31,22.29,13.82,22.59l.4.23.45,0a7.74,7.74,0,0,0,.86,0c15.34,0,16.35-38.53,16.42-43.75A6.27,6.27,0,0,0,363.83,743.87ZM225.25,759.73H225c-.76,0-1.49-.64-2.17-1.89-3.17-5.87-2.51-19.9-.28-23.28.28-.43.85-1,2.49-1,2.68,0,6.34,1.56,8.85,2.85-2.63,3.69-3.14,8.74-3.2,9.53a47,47,0,0,0-.39,7.52C228.8,757,227,759.52,225.25,759.73Zm16.14,6.45a4.5,4.5,0,0,1-1.14-.17c-4.13-1.12-5.51-6.59-5.79-11.71a81.48,81.48,0,0,0,4.66-17.13,4.49,4.49,0,0,1,2.21-.58,6.43,6.43,0,0,1,1.12.1c5.47.93,7.34,3.08,8,4.17a14.12,14.12,0,0,0-2.37,7.45c-.18,1.3-.49,3.76-.73,6.76C246.1,760.85,244.5,766.18,241.39,766.18ZM256,777.61a4.65,4.65,0,0,1-1.23-.18c-2.64-.73-4.39-9-3.4-21.67.26-1.23.5-2.47.74-3.72a62.23,62.23,0,0,1,2.4-9.72,6.57,6.57,0,0,1,4.05-2,19.87,19.87,0,0,1,2.46-.15,14.63,14.63,0,0,1,6.82,1.53,36,36,0,0,0-3.93,10.82,67.32,67.32,0,0,0-1.42,15.21C262.05,770.42,260,777.61,256,777.61Zm22.79,1.85c-1.8,1.93-3.71,3-5.38,3a4.89,4.89,0,0,1-3.27-1.4c-2.08-1.84-3.31-6.88-3.52-13l6-25.84a3.42,3.42,0,0,1,1.26-.85,5.73,5.73,0,0,1,1.69-.28c4.45,0,6.39,7.17,6.71,8.48a159.08,159.08,0,0,0,.4,22.18.52.52,0,0,0,0,.09C282.79,773.15,281.35,776.7,278.78,779.47Zm16.54,12.3A3.31,3.31,0,0,1,293,793h-.22c-2.42-.25-4.89-9.25-6-21.18,0-.09,0-.2,0-.29-.32-4.25-.39-21.16-.39-22.07.27-4.14,1.34-9.06,4.94-9.06a9.81,9.81,0,0,1,5.36,2.16c1.78,1.39,4.12,7.19,5.29,11.08a117.6,117.6,0,0,0-.29,16.28C300.67,781.33,298,788.94,295.32,791.77Zm24.68-.92a5.7,5.7,0,0,1-3.93,2.13h0a4.09,4.09,0,0,1-1.74-.42c-5.74-2.66-7.93-12.64-8.51-22.69a130.24,130.24,0,0,0,.29-16.42c.21-2.34.46-4.28.71-5.59.77-4.13,1.36-4.87,7.17-4.87,1.62,0,3.59.07,5.88.15l2.39.09c6.74.23,8.69,1.85,9.21,2.54a1.47,1.47,0,0,1,.34,1l-.13.37v.09a8.65,8.65,0,0,0-.24,3.63c0,1.26,0,2.43,0,3.63C330.4,766.41,326.2,784.34,320,790.85ZM361.15,748l-.06.48a144.29,144.29,0,0,1-1.93,20.61c-2.19,12.42-5.88,19.25-10.39,19.26a26.13,26.13,0,0,1-6.71-7.67c-2.92-4.82-6.23-13.14-6.48-25.92a58.59,58.59,0,0,0,.24-6.9,4.65,4.65,0,0,1,.71-1.2c1.26-1.54,4.29-3.39,11.57-3.39,8.55,0,11.44,1.92,12.41,3.07A2.31,2.31,0,0,1,361.15,748Z" style="fill:#3c3c3b"/><path d="M489.1,735.93s12.76-7.94,16.37-2.48,3.36,29.23-4.6,28.31S489.1,735.93,489.1,735.93Z" style="fill:#f9efe1"/><path d="M455.59,741.18s4.26-3.87,12.46-2.84,8.21,10.12,8.21,10.12,4.07,28.67-4.12,30.94S461.81,768,461.81,768Z" style="fill:#f9efe1"/><path d="M378.25,790.33s15.5-9.1,14.58-39.59c0,0,2.28-9.56-14.58-9.56s-15,7.28-15,7.28S363.66,791.69,378.25,790.33Z" style="fill:#f9efe1"/><path d="M392.59,747.48s-2-5.85,11.43-6.3,16.17-1,17.54,6.3,4.1,41-8.67,46.94S391.89,761.52,392.59,747.48Z" style="fill:#f9efe1"/><path d="M422.3,753.4s2.9-10,6.09-12.46,12.63-7,13.61,8.43-1.06,44.9-8.25,45.66S421.22,777.9,422.3,753.4Z" style="fill:#f9efe1"/><path d="M442,749.37s2.5-12.66,11.08-10,12.23,36.37,4.48,43.19-16.29-6.45-16-10.92S442,749.37,442,749.37Z" style="fill:#f9efe1"/><path d="M473.62,741.18s.81-5,9.92-6.51,10,11.52,10,11.52,2.9,19.14-6.94,21.8S477.37,750.28,473.62,741.18Z" style="fill:#f9efe1"/><path d="M507.17,732.32a6.6,6.6,0,0,0-5.91-2.84c-4.37,0-9.76,2.73-12.08,4a8.67,8.67,0,0,0-4.18-1,11.21,11.21,0,0,0-1.81.15c-5.85,1-8.77,3.37-10.22,5.31a11.05,11.05,0,0,0-4.68-1.65,23.09,23.09,0,0,0-3-.19,18.54,18.54,0,0,0-9.56,2.45,6.72,6.72,0,0,0-2.08-1.13,9.73,9.73,0,0,0-2.92-.47c-3.88,0-6.45,2.5-8.12,5.23-1.94-5-5.39-5.91-7.64-5.91-3.71,0-7,2.32-7.89,3-1.51,1.18-2.88,3.51-4,5.92-1.52-5.37-4.72-6.35-10.77-6.35-1.69,0-3.7.08-6,.15l-2.39.09c-5.94.2-10,1.49-12,3.8-2.82-2.52-7.41-3.8-13.69-3.8-8,0-13.27,1.59-15.73,4.74a6.29,6.29,0,0,0-1.36,4.78c.07,5.22,1.09,43.75,16.42,43.75a7.78,7.78,0,0,0,.86,0l.45,0,.39-.23c.51-.3,9.83-6,13.83-22.59,2.16,9.62,5.61,19.29,10.27,24.17,2.15,2.26,4.48,3.4,6.9,3.4a8.24,8.24,0,0,0,3.47-.8c4.53-2.1,7.3-7.05,8.94-13.08,1.34,5.12,3.15,9.08,5.37,11.39a7.22,7.22,0,0,0,5.26,2.51c.22,0,.44,0,.65,0,4.71-.5,7.34-8,8.75-17.12a21.48,21.48,0,0,0,1.84,2.3c2.61,2.81,5.52,4.3,8.38,4.3a8.91,8.91,0,0,0,6-2.42c1.79-1.58,3-4.21,3.85-7.41,1.62,2.69,4,5,7.58,5a8.7,8.7,0,0,0,2.33-.33c4.4-1.22,6.05-7.41,6.51-14.18a7,7,0,0,0,5.77,3.07,8.59,8.59,0,0,0,2.21-.31c4.67-1.26,6.94-5.36,8-9.82,1.56,2,3.36,3.41,5.46,3.65a6.25,6.25,0,0,0,.68,0c1.64,0,4-.7,5.78-4C510.89,752.75,510.37,737.17,507.17,732.32Zm-129.6,56c-8.66,0-12.15-24.46-12.32-39.87v-.18l-.06-.23a2.25,2.25,0,0,1,.62-1.74c1-1.15,3.87-3.07,12.42-3.07,7.28,0,10.31,1.85,11.57,3.39a4.7,4.7,0,0,1,.71,1.2,60.36,60.36,0,0,0,.26,7.15C390.28,778,379.7,786.77,377.57,788.31ZM412,792.56c-1.95.9-3.72.34-5.68-1.71-6.2-6.51-10.41-24.44-11.48-36.31,0-1.19.05-2.37,0-3.63a8.63,8.63,0,0,0-.22-3.58v-.07l-.13-.37a1.38,1.38,0,0,1,.32-1.12c.52-.69,2.47-2.32,9.21-2.54l2.4-.09c2.29-.08,4.26-.15,5.88-.15,5.81,0,6.4.73,7.17,4.86.24,1.31.5,3.26.71,5.61a129.35,129.35,0,0,0,.28,16.41C420,779.92,417.76,789.9,412,792.56Zm21.52.43a3.14,3.14,0,0,1-2.52-1.23c-2.71-2.82-5.34-10.44-6.37-21.84a117.26,117.26,0,0,0-.29-16.29c1.17-3.89,3.5-9.69,5.29-11.08a9.81,9.81,0,0,1,5.36-2.16c3.59,0,4.67,4.91,4.94,9.06,0,.91-.07,17.82-.39,22.07,0,.09,0,.19,0,.29C438.43,783.74,436,792.74,433.54,793Zm22.66-11.94a4.88,4.88,0,0,1-3.26,1.4c-1.67,0-3.58-1.07-5.38-3-2.5-2.68-3.91-6.09-3.9-7.5a176.93,176.93,0,0,0,.41-22.41c.31-1.33,2.23-8.48,6.71-8.48a5.77,5.77,0,0,1,1.69.28,3.49,3.49,0,0,1,1.26.85l6,25.84C459.51,774.17,458.29,779.21,456.2,781.05Zm15.38-3.62a4.67,4.67,0,0,1-1.23.18c-4,0-6.05-7.2-6.5-9.85a67.23,67.23,0,0,0-1.42-15.2,36.08,36.08,0,0,0-3.92-10.81,14.71,14.71,0,0,1,6.81-1.53,19.78,19.78,0,0,1,2.46.15,6.56,6.56,0,0,1,4.05,2,61.34,61.34,0,0,1,2.39,9.71c.24,1.23.49,2.49.75,3.73C476,768.45,474.22,776.7,471.58,777.43ZM486.09,766a4.45,4.45,0,0,1-1.13.17c-3.11,0-4.7-5.32-5.93-11.09-.24-3-.55-5.47-.73-6.77a14.12,14.12,0,0,0-2.36-7.45c.63-1.12,2.5-3.25,7.95-4.18a6.36,6.36,0,0,1,1.11-.1,4.47,4.47,0,0,1,2.22.59,81.66,81.66,0,0,0,4.62,17C491.62,759.16,490.4,764.85,486.09,766Zm17.38-8.16c-.74,1.36-1.51,2-2.38,1.88-1.79-.21-3.54-2.72-5.09-6.26a47,47,0,0,0-.39-7.51c-.06-.79-.57-5.84-3.2-9.53,2.51-1.29,6.18-2.85,8.85-2.85,1.64,0,2.2.57,2.49,1C506,738,506.64,752,503.48,757.85Z" style="fill:#3c3c3b"/><path d="M249.09,663.08a.12.12,0,0,0,0,.23A.12.12,0,0,0,249.09,663.08Z" style="fill:#1d1d1b"/><path d="M545.31,618.56c-7.22-.59-15.62,3.41-22.51,5.39A148.9,148.9,0,0,0,497,634c-12.48,6.27-26,20-24.57,35.06a0,0,0,0,0,.09,0c3.47-8.31,5.66-15,12.63-21.16,6.68-5.91,15.67-9.75,23.93-12.79,11.19-4.12,28.77-4.93,37.8-12.87C548.35,620.87,547,618.7,545.31,618.56Z" style="fill:#3c3c3b"/><path d="M631.86,568.84c-5.25,7.9-9.55,14.67-17.61,20.1-7.22,4.86-15.79,7.44-24.15,9.55-4.1,1-8.24,1.85-12.4,2.53-4.61.54-9.34,1-14.23,1.33-12.48,1-26.22.65-38.76,3.67-17.32.23-37.54,9-51,16.86-17.73,10.35-34.79,24.47-40.43,44.95,0,.1.12.17.17.07,8.64-18.43,24.7-31.91,42.82-40.64q6.91-3.33,14-6.09c-15.48,9.32-28,22.67-33,40.28,0,.05.05.07.08,0,14.48-19.24,29.2-33,52.15-41.52,17.12-6.33,35.24-7.16,53.2-9,24.07-2.48,71.83-8.69,73.71-40.89C636.51,567.51,633.1,567,631.86,568.84Z" style="fill:#3c3c3b"/><path d="M182,618.56c7.22-.59,15.62,3.41,22.51,5.39a149,149,0,0,1,25.86,10c12.48,6.27,26,20,24.57,35.06a0,0,0,0,1-.09,0c-3.46-8.31-5.66-15-12.63-21.16-6.68-5.91-15.67-9.75-23.93-12.79-11.19-4.12-28.78-4.93-37.8-12.87C179,620.87,180.34,618.7,182,618.56Z" style="fill:#3c3c3b"/><path d="M95.5,568.84c5.25,7.9,9.54,14.67,17.61,20.1,7.22,4.86,15.79,7.44,24.15,9.55,4.09,1,8.24,1.85,12.4,2.53,4.62.54,9.34,1,14.23,1.33,12.48,1,26.22.65,38.76,3.67,17.32.23,37.54,9,51,16.86,17.73,10.35,34.79,24.47,40.43,44.95,0,.1-.13.17-.17.07-8.64-18.43-24.7-31.91-42.82-40.64q-6.91-3.33-14-6.09c15.48,9.32,28,22.67,33,40.28,0,.05-.05.07-.08,0-14.48-19.24-29.2-33-52.15-41.52-17.12-6.33-35.24-7.16-53.2-9-24.07-2.48-71.83-8.69-73.71-40.89C90.85,567.51,94.25,567,95.5,568.84Z" style="fill:#3c3c3b"/><path d="M545.31,618.56c-7.22-.59-15.62,3.41-22.51,5.39A148.9,148.9,0,0,0,497,634c-12.48,6.27-26,20-24.57,35.06a0,0,0,0,0,.09,0c3.47-8.31,5.66-15,12.63-21.16,6.68-5.91,15.67-9.75,23.93-12.79,11.19-4.12,28.77-4.93,37.8-12.87C548.35,620.87,547,618.7,545.31,618.56Z" style="fill:#3c3c3b"/><path d="M631.86,568.84c-5.25,7.9-9.55,14.67-17.61,20.1-7.22,4.86-15.79,7.44-24.15,9.55-4.1,1-8.24,1.85-12.4,2.53-4.61.54-9.34,1-14.23,1.33-12.48,1-26.22.65-38.76,3.67-17.32.23-37.54,9-51,16.86-17.73,10.35-34.79,24.47-40.43,44.95,0,.1.12.17.17.07,8.64-18.43,24.7-31.91,42.82-40.64q6.91-3.33,14-6.09c-15.48,9.32-28,22.67-33,40.28,0,.05.05.07.08,0,14.48-19.24,29.2-33,52.15-41.52,17.12-6.33,35.24-7.16,53.2-9,24.07-2.48,71.83-8.69,73.71-40.89C636.51,567.51,633.1,567,631.86,568.84Z" style="fill:#3c3c3b"/><path d="M111.93,532.41c-1.12,8.85.57,18.8-6.63,25.46-.19.17.05.46.27.34,10-5.37,13.21-13.93,15-24.63C121.66,527.27,112.73,526.08,111.93,532.41Z" style="fill:#fcd310"/><path d="M130,559c-.8,3.77-4.22,4.9-7.55,6.1-2,.7-4,1-6,1.53s-5.24,1.77-7.11,1.6c-1.6-.14-1.89,2-.76,2.78,2.43,1.63,3.65,3.53,6.69,4.58a23.12,23.12,0,0,0,11.6.8c7.49-1.38,13.94-6.35,15.92-13.86C145,554.18,131.78,550.67,130,559Z" style="fill:#fcd310"/><path d="M165.23,573.53c-4.13,1.46-7,5-10.94,7-5.95,2.93-11.06,3.9-17.64,2.77a.37.37,0,0,0-.28.67,26.1,26.1,0,0,0,17.27,3.94c5.82-.86,13.74-4.37,15.59-10.37C169.92,575.26,167.57,572.71,165.23,573.53Z" style="fill:#fcd310"/><path d="M260.9,595.85c-6.43-4.8-18.85-12.58-27.17-11.67-4.22.46-8.87,5.35-5.57,9.69,4.62,6.07,13.47,7.74,20.6,9.72,9.91,2.74,19.84,4.26,25.8,13.64a.44.44,0,0,0,.8-.34A38.22,38.22,0,0,0,260.9,595.85Z" style="fill:#fcd310"/><path d="M277.19,584.09c-.62-4.64-1.88-8.22-5-11.72-4.2-4.66-11.5,2.59-6.89,6.87a91.85,91.85,0,0,1,7.18,6.81c2.16,2.49,3.47,6.25,4.4,9.35a.44.44,0,0,0,.84,0C278.66,591.41,277.71,588,277.19,584.09Z" style="fill:#fcd310"/><path d="M194.86,579.5c-9.35,0-9.35,14.48,0,14.48S204.22,579.5,194.86,579.5Z" style="fill:#fcd310"/><path d="M609.89,532.41c1.13,8.85-.57,18.8,6.63,25.46.19.17-.05.46-.27.34-10-5.37-13.21-13.93-15-24.63C600.15,527.27,609.08,526.08,609.89,532.41Z" style="fill:#fcd310"/><path d="M591.79,559c.8,3.77,4.22,4.9,7.55,6.1,2,.7,4,1,6,1.53,1.85.5,5.23,1.77,7.11,1.6,1.59-.14,1.88,2,.76,2.78-2.43,1.63-3.65,3.53-6.7,4.58a23.12,23.12,0,0,1-11.6.8C587.46,574.95,581,570,579,562.47,576.84,554.18,590,550.67,591.79,559Z" style="fill:#fcd310"/><path d="M556.58,573.53c4.13,1.46,7,5,10.94,7,5.95,2.93,11.06,3.9,17.64,2.77a.37.37,0,0,1,.28.67,26.1,26.1,0,0,1-17.27,3.94c-5.82-.86-13.74-4.37-15.59-10.37C551.9,575.26,554.25,572.71,556.58,573.53Z" style="fill:#fcd310"/><path d="M460.92,595.85c6.44-4.8,18.85-12.58,27.17-11.67,4.22.46,8.87,5.35,5.57,9.69-4.62,6.07-13.47,7.74-20.6,9.72-9.91,2.74-19.84,4.26-25.8,13.64a.44.44,0,0,1-.8-.34A38.22,38.22,0,0,1,460.92,595.85Z" style="fill:#fcd310"/><path d="M444.62,584.09c.62-4.64,1.88-8.22,5-11.72,4.2-4.66,11.51,2.59,6.89,6.87a92.49,92.49,0,0,0-7.18,6.81c-2.16,2.49-3.46,6.25-4.4,9.35a.44.44,0,0,1-.84,0C443.16,591.41,444.11,588,444.62,584.09Z" style="fill:#fcd310"/><path d="M527,579.5c9.35,0,9.35,14.48,0,14.48S517.6,579.5,527,579.5Z" style="fill:#fcd310"/><path d="M166,335.81c.25,4.08.57,8.12,3.81,11.21a21.14,21.14,0,0,0,10.28,5.33c7.64,1.62,13.83-.39,21.27-1h0c-1.23-16.72-21.3-15.6-34.48-16.39C166.59,335.22,166.31,335.54,166,335.81Z" style="fill:#3aaa61"/><path d="M118.25,282.92c8.79-5.24,20-16.16,10.8-26-.19-.1-.39-.18-.57-.28a1.31,1.31,0,0,1-.32.06C113.57,256.54,111.75,273.06,118.25,282.92Z" style="fill:#3aaa61"/><path d="M153.16,196.07c-4.32,3.83-9.57,8.28-8.25,14.72.74,3.58,2,6.72,4.57,8.85,4-3,7.64-6.91,7.87-12C157.55,203.31,157.12,198.54,153.16,196.07Z" style="fill:#3aaa61"/><path d="M229,255.2a1.08,1.08,0,0,1,.2,0c-3.14-7.88-8.44-11.79-17.37-11.91a23.77,23.77,0,0,0-7.79,1,8.86,8.86,0,0,0-1.13.9,10,10,0,0,1-1,.9,1.5,1.5,0,0,1-.08.31C208.81,255.48,218.23,256.61,229,255.2Z" style="fill:#3aaa61"/><path d="M243.44,162.6c-6.88-7.47-16.93-7.13-25.73-2.84-1.61,1-3.22,2-4.9,3,5.15,1.35,9.87,4.15,15,5.65,3.51,1,7.74,2.29,11.4,1.27a13,13,0,0,0,3.87-1.86,5.13,5.13,0,0,0,.66-4.3C243.66,163.17,243.54,162.89,243.44,162.6Z" style="fill:#3aaa61"/><path d="M113.75,351.13c-6.56,7.84-3.53,18.27,1.49,26,10.7-8.14,16-20,10.56-32.85C121.69,346.4,116.87,347.4,113.75,351.13Z" style="fill:#3aaa61"/><path d="M180.24,289.76a.32.32,0,0,1,0-.1,11.3,11.3,0,0,0-.49-5.64c-5.22-8-14.22-12.58-23.42-15.63-.57,7.19.27,16,7.5,19.64C168.72,290.47,175.13,292,180.24,289.76Z" style="fill:#3aaa61"/><path d="M213.83,296.35c-5.28,3.87-10.12,8.19-9.27,15.62.8,7,4.83,11.43,9.29,16.51a.9.9,0,0,1,.16.26c8.49-10,7.93-20.89,2.14-32.18C215.38,296.5,214.6,296.46,213.83,296.35Z" style="fill:#3aaa61"/><path d="M174.6,295.17c-.89,0-1.88.24-2.88.35-4.67,1.32-9.58,2.34-13.06,5.87-4.53,4.58-4.07,9.89-4.53,15.76,10.38-.61,22-8.13,25.87-18q.33-1.8.59-3.64a9.54,9.54,0,0,0-2.42-.45C177,295,175.8,295.11,174.6,295.17Z" style="fill:#3aaa61"/><path d="M235.21,289.55c6.68-8.65,8.15-23.08-5.9-20.41-.49.09-.51.93,0,1,8.19,1.19,7.39,7.74,3.82,13.48a15,15,0,0,1-7.84,6.19c-.39.1-.75.24-1.13.36A25.51,25.51,0,0,1,207.68,289a22.61,22.61,0,0,1-11.82-11.53c-3.19-10-.21-22,5.6-30.37a21.92,21.92,0,0,0,27.87,10.3c.07,0,.09-.09.15-.13a4.31,4.31,0,0,0,1-.29.73.73,0,0,0,.62-.41,6.11,6.11,0,0,0,0-3.45,7.46,7.46,0,0,0-.32-1.26c-.8-7.11-11.81-11.46-17.75-12a26.8,26.8,0,0,0-5.83.35c5.46-4.33,11.72-8,17.08-11.7,8.34-5.82,15-13.08,21.07-21.15,14.82-19.62,15.79-42.66,9.22-65.52-5.21-18.18-20-37.69-41.11-33.35-5.14,1.06-4.94,9,0,10.15,11.94,2.87,19.85,8,25.75,16.51,3.3,8.39,6.6,16.28,6.1,25.46l-.2-.18c-1.64-4-7.69-5.72-11.47-6.46a21.51,21.51,0,0,0-13.48,1.73,21.78,21.78,0,0,0-10.06,6.91.7.7,0,0,0,.65,1.16,6.12,6.12,0,0,0,2.25,1c7.76,4.21,20.9,10.56,29.48,7.57-4.67,10.51-14.5,18.64-24.11,24.24-12.82,7.46-29,9.26-40.19-1.85-7.48-7.44-5.34-19.3,3.21-24.81,8.25-5.32,19.71,1.18,16.8,11.44a.48.48,0,0,0,.79.46c10-8.93-5.64-19.18-14.72-17.76-20.84,3.24-18.38,28.21-5.22,38.77,18.27,14.66,43.68,1.86,58.34-11.56a43,43,0,0,0,12.91-20.82,56.94,56.94,0,0,1-8.92,30.43c-8.7,14-21.48,22.06-34.47,31.41-9,6.5-16.5,14.21-19.61,25.08,0,.1,0,.19-.07.29-3.49-18.27-16.24-34.69-34.4-36.7,4.22-3.95,7.37-8.09,7.49-14.53.06-3.21-.75-7.84-3.26-10.33v0c-.67-.93-2-2.29-3.23-2.09a.63.63,0,0,0-.21,0c-7.37,1.94-12.89,9.66-11.9,17.25a21.47,21.47,0,0,0,3.94,9.63,39.07,39.07,0,0,0-4.91.78c-13.89,3.16-23.71,20.21-14.93,32.7l0,.05c-10.82,1.3-16,12.75-12.73,22.15a16.37,16.37,0,0,0,1.65,4,11.92,11.92,0,0,0,2.44,3.51s.05,0,.08,0a.32.32,0,0,0,.32.15c.24,0,.48-.11.72-.16a.36.36,0,0,0,.31-.07c10.29-2.18,20.18-16.1,14.75-25.64,7.44,1.27,16.3-1.88,11.81-9,0,0-.1,0-.09,0q-2.31,8.73-10.57,6.17a12.22,12.22,0,0,1-6.75-7.43c-2.69-6.74,3.1-14.91,8.12-18.7,9.2-7,22.58-3.19,30.3,3.74,12.26,11,16.39,30.85,14.86,47.21a35.4,35.4,0,0,0-14.86-11.13,36.29,36.29,0,0,0-5.72-2.44c-1.16-.43-5.64-1.44-5.94.64a10.41,10.41,0,0,0-.82,4,15.74,15.74,0,0,0,.12,4.29,17.78,17.78,0,0,0,8.46,14.81,26.84,26.84,0,0,0,7.18,2.78A27.08,27.08,0,0,0,156,300.74a12.48,12.48,0,0,0-3.15,6.24c-1.34,3.3-1.17,7.54-.88,11a.84.84,0,0,0,.63,1.13c7,1.34,17.5-3.05,24.53-9.72a62,62,0,0,1-9.86,17c-8.59,10.72-19.95,15.86-33.44,13.56a27.14,27.14,0,0,1-14-6.86c-8.92-8.28,2.49-29.36,13.73-21,.41.3.85-.27.65-.65-5.59-10.49-20.68-1.89-22.75,7.42-2.42,10.87,2.61,18.42,10.77,22.94-5.34,2.08-10.85,6-12.71,10.84-3.24,8.38-.7,18.68,5,25.43a.59.59,0,0,0,.79.6c14.21-4.26,18.14-21.19,14-33.9,1,.3,2,.58,3,.81,12.07,2.82,22.58-.87,31.36-7.82-1.81,14.76,23,21.86,35.51,16.56.5-.15,1-.33,1.46-.49a6.78,6.78,0,0,0,2.52-1.3,1.1,1.1,0,0,0,.91-1.21c-1.06-17.12-21.09-19.43-35.53-18a67.92,67.92,0,0,0,5.15-5.67,65.48,65.48,0,0,0,12.42-26c2-8.35,1.69-16.12,2.66-24a33.06,33.06,0,0,0,22.19,18.06c-6.88,3-9.35,10.08-8.47,17.23a18.55,18.55,0,0,0,2.17,7.85c1.21,4,4.68,7.94,7.42,10.63a.62.62,0,0,0,.48.2.77.77,0,0,0,.67,0c11.58-4.94,12.47-22,6.85-32.8a3.41,3.41,0,0,0,.5,0c17.48-4.25,35.76,5,44.61,20.31,6.05,10.5,2.79,21.36-7.05,28.1-21.09,14.43-24.69-24-5.56-21.53.14,0,.16-.2,0-.24-11.91-3.4-18.79,9-15.43,19.63,1.73,5.49,7.72,8,12.92,8.37,7.35.58,13.15-6.19,16.87-11.5C279.85,323.6,256.95,293.38,235.21,289.55Zm7.87-121.78a13,13,0,0,1-3.87,1.86c-3.67,1-7.89-.23-11.4-1.27-5.11-1.51-9.84-4.3-15-5.65,1.67-.93,3.28-1.95,4.9-3,8.8-4.29,18.85-4.62,25.73,2.84.1.29.22.58.29.87A5.13,5.13,0,0,1,243.08,167.77ZM202,246.05a10,10,0,0,0,1-.9,8.86,8.86,0,0,1,1.13-.9,23.77,23.77,0,0,1,7.79-1c8.93.12,14.23,4,17.37,11.91a1.08,1.08,0,0,0-.2,0c-10.81,1.41-20.23.28-27.17-8.83A1.5,1.5,0,0,0,202,246.05Zm-73.79,10.68a1.31,1.31,0,0,0,.32-.06c.18.1.38.18.57.28,9.16,9.8-2,20.72-10.8,26C111.75,273.06,113.57,256.54,128.16,256.73Zm21.32-37.09c-2.54-2.14-3.84-5.27-4.57-8.85-1.33-6.44,3.93-10.89,8.25-14.72,4,2.47,4.39,7.24,4.2,11.54C157.13,212.73,153.48,216.68,149.49,219.64Zm-34.25,157.5c-5-7.74-8.05-18.17-1.49-26,3.12-3.72,7.94-4.73,12-6.83C131.26,357.19,125.93,369,115.24,377.14Zm86.13-25.8h0c-7.44.61-13.63,2.62-21.27,1A21.14,21.14,0,0,1,169.82,347c-3.24-3.08-3.56-7.13-3.81-11.21.3-.27.58-.58.88-.85C180.06,335.74,200.14,334.61,201.36,351.34ZM163.83,288c-7.23-3.61-8.08-12.46-7.5-19.64,9.2,3.06,18.2,7.6,23.42,15.63a11.3,11.3,0,0,1,.49,5.64.32.32,0,0,0,0,.1C175.13,292,168.72,290.47,163.83,288ZM180,299.11c-3.89,9.91-15.49,17.43-25.87,18,.46-5.87,0-11.18,4.53-15.76,3.49-3.53,8.39-4.55,13.06-5.87,1-.11,2-.3,2.88-.35,1.2-.06,2.38-.14,3.57-.15a9.54,9.54,0,0,1,2.42.45Q180.34,297.32,180,299.11Zm34,29.62a.9.9,0,0,0-.16-.26c-4.47-5.08-8.49-9.48-9.29-16.51-.85-7.43,4-11.75,9.27-15.62.77.11,1.54.16,2.33.22C222,307.84,222.51,318.75,214,328.74Z" style="fill:#3c3c3b"/><path d="M557.37,335.81c-.25,4.08-.57,8.12-3.81,11.21a21.13,21.13,0,0,1-10.28,5.33c-7.64,1.62-13.83-.39-21.27-1h0c1.22-16.72,21.3-15.6,34.48-16.39C556.79,335.22,557.06,335.54,557.37,335.81Z" style="fill:#3aaa61"/><path d="M605.12,282.92c-8.79-5.24-20-16.16-10.8-26,.19-.1.39-.18.57-.28a1.28,1.28,0,0,0,.32.06C609.81,256.54,611.62,273.06,605.12,282.92Z" style="fill:#3aaa61"/><path d="M570.22,196.07c4.32,3.83,9.57,8.28,8.24,14.72-.74,3.58-2,6.72-4.57,8.85-4-3-7.64-6.91-7.87-12C565.83,203.31,566.25,198.54,570.22,196.07Z" style="fill:#3aaa61"/><path d="M494.34,255.2a1,1,0,0,0-.19,0c3.14-7.88,8.44-11.79,17.37-11.91a23.76,23.76,0,0,1,7.79,1,8.86,8.86,0,0,1,1.13.9,10,10,0,0,0,1,.9,1.5,1.5,0,0,0,.08.31C514.57,255.48,505.15,256.61,494.34,255.2Z" style="fill:#3aaa61"/><path d="M479.93,162.6c6.88-7.47,16.93-7.13,25.73-2.84,1.61,1,3.23,2,4.9,3-5.15,1.35-9.87,4.15-15,5.65-3.51,1-7.73,2.29-11.4,1.27a13,13,0,0,1-3.87-1.86,5.13,5.13,0,0,1-.66-4.3C479.72,163.17,479.83,162.89,479.93,162.6Z" style="fill:#3aaa61"/><path d="M609.63,351.13c6.56,7.84,3.54,18.27-1.48,26-10.7-8.14-16-20-10.56-32.85C601.69,346.4,606.51,347.4,609.63,351.13Z" style="fill:#3aaa61"/><path d="M543.14,289.76a.49.49,0,0,0,0-.1,11.34,11.34,0,0,1,.49-5.64c5.22-8,14.22-12.58,23.42-15.63.58,7.19-.27,16-7.5,19.64C554.66,290.47,548.25,292,543.14,289.76Z" style="fill:#3aaa61"/><path d="M509.54,296.35c5.28,3.87,10.12,8.19,9.27,15.62-.8,7-4.83,11.43-9.29,16.51a.84.84,0,0,0-.16.26c-8.49-10-7.93-20.89-2.14-32.18C508,296.5,508.78,296.46,509.54,296.35Z" style="fill:#3aaa61"/><path d="M548.78,295.17c.89,0,1.89.24,2.88.35,4.67,1.32,9.58,2.34,13.07,5.87,4.52,4.58,4.06,9.89,4.53,15.76-10.38-.61-22-8.13-25.87-18q-.33-1.8-.59-3.64a9.6,9.6,0,0,1,2.42-.45C546.4,295,547.58,295.11,548.78,295.17Z" style="fill:#3aaa61"/><path d="M456.43,342c3.72,5.31,9.52,12.08,16.87,11.5,5.21-.41,11.19-2.88,12.92-8.37,3.36-10.61-3.51-23-15.43-19.63-.12,0-.1.26,0,.24,19.13-2.44,15.52,36-5.56,21.53-9.85-6.74-13.11-17.6-7.05-28.1,8.84-15.34,27.12-24.56,44.6-20.31a3.45,3.45,0,0,0,.5,0c-5.62,10.8-4.73,27.85,6.85,32.8a.77.77,0,0,0,.67,0,.61.61,0,0,0,.47-.2c2.74-2.68,6.21-6.6,7.42-10.63a18.5,18.5,0,0,0,2.17-7.85c.88-7.15-1.6-14.27-8.47-17.23a33.06,33.06,0,0,0,22.19-18.06c1,7.87.68,15.65,2.66,24a65.58,65.58,0,0,0,12.42,26,68.56,68.56,0,0,0,5.15,5.67c-14.44-1.45-34.47.85-35.53,18a1.09,1.09,0,0,0,.9,1.21,6.8,6.8,0,0,0,2.52,1.3c.47.17,1,.34,1.46.49,12.53,5.3,37.32-1.8,35.52-16.56,8.78,7,19.29,10.65,31.36,7.82,1-.24,2-.51,3-.81-4.18,12.71-.26,29.65,14,33.9a.59.59,0,0,0,.79-.6c5.74-6.74,8.28-17,5-25.43-1.86-4.8-7.36-8.76-12.7-10.84,8.16-4.52,13.18-12.07,10.76-22.94-2.07-9.3-17.17-17.91-22.75-7.42-.2.38.24,1,.65.65,11.25-8.35,22.65,12.73,13.73,21a27.13,27.13,0,0,1-14,6.86c-13.49,2.3-24.85-2.84-33.44-13.56a62,62,0,0,1-9.86-17c7,6.66,17.56,11.06,24.53,9.72a.85.85,0,0,0,.63-1.13c.3-3.45.47-7.69-.88-11a12.45,12.45,0,0,0-3.15-6.24,27.08,27.08,0,0,0-13.49-7.35A26.79,26.79,0,0,0,561,290.6a17.77,17.77,0,0,0,8.46-14.81,15.59,15.59,0,0,0,.12-4.29,10.34,10.34,0,0,0-.82-4c-.3-2.08-4.77-1.07-5.93-.64a36,36,0,0,0-5.72,2.44,35.36,35.36,0,0,0-14.86,11.13c-1.54-16.36,2.59-36.2,14.85-47.21,7.72-6.93,21.1-10.7,30.3-3.74,5,3.8,10.81,12,8.12,18.7a12.22,12.22,0,0,1-6.75,7.43q-8.26,2.56-10.57-6.17c0-.05-.06-.08-.09,0-4.49,7.09,4.36,10.23,11.81,9-5.43,9.54,4.46,23.46,14.75,25.64a.36.36,0,0,0,.31.07c.24,0,.48.13.72.16a.33.33,0,0,0,.32-.15.14.14,0,0,0,.08,0,12,12,0,0,0,2.45-3.51,16.66,16.66,0,0,0,1.65-4c3.26-9.4-1.91-20.85-12.73-22.15l0-.05c8.78-12.49-1-29.54-14.93-32.7a39.07,39.07,0,0,0-4.91-.78,21.52,21.52,0,0,0,3.95-9.63c1-7.59-4.53-15.3-11.9-17.25a.63.63,0,0,0-.21,0c-1.27-.2-2.56,1.16-3.22,2.08v0c-2.51,2.49-3.33,7.12-3.26,10.33.12,6.44,3.27,10.58,7.49,14.53-18.16,2-30.91,18.43-34.4,36.7,0-.1,0-.2-.07-.29-3.11-10.88-10.58-18.58-19.61-25.08-13-9.35-25.77-17.43-34.47-31.41a57,57,0,0,1-8.92-30.43A43.09,43.09,0,0,0,486,191.25c14.66,13.43,40.07,26.22,58.34,11.56,13.16-10.56,15.62-35.52-5.22-38.77-9.08-1.42-24.74,8.83-14.72,17.76a.48.48,0,0,0,.79-.46c-2.91-10.27,8.55-16.77,16.8-11.44,8.55,5.52,10.69,17.37,3.21,24.81C534,205.82,517.82,204,505,196.57c-9.61-5.6-19.43-13.72-24.11-24.24,8.58,3,21.72-3.36,29.48-7.57a6.12,6.12,0,0,0,2.25-1,.7.7,0,0,0,.65-1.16,21.79,21.79,0,0,0-10.06-6.91,21.52,21.52,0,0,0-13.48-1.73c-3.78.74-9.83,2.44-11.47,6.46l-.2.18c-.5-9.18,2.79-17.06,6.1-25.46,5.9-8.46,13.8-13.64,25.75-16.51,4.94-1.19,5.15-9.09,0-10.15-21.08-4.35-35.9,15.17-41.11,33.35-6.56,22.86-5.6,45.9,9.23,65.52,6.1,8.08,12.73,15.34,21.07,21.15,5.36,3.75,11.62,7.37,17.08,11.7a26.83,26.83,0,0,0-5.83-.35c-5.95.52-16.95,4.87-17.75,12a7.46,7.46,0,0,0-.32,1.26,6.18,6.18,0,0,0,0,3.45.73.73,0,0,0,.63.41,4.31,4.31,0,0,0,1,.29c.05,0,.08.11.14.13a21.92,21.92,0,0,0,27.87-10.3c5.81,8.37,8.8,20.39,5.6,30.37A22.61,22.61,0,0,1,515.7,289a25.51,25.51,0,0,1-16.48,1.23c-.38-.12-.75-.26-1.13-.36a15,15,0,0,1-7.85-6.19c-3.56-5.74-4.37-12.29,3.82-13.48.51-.07.49-.91,0-1-14-2.67-12.58,11.76-5.9,20.41C466.43,293.38,443.53,323.6,456.43,342Zm23.21-178.56c.08-.29.19-.58.29-.87,6.88-7.47,16.93-7.13,25.73-2.84,1.61,1,3.23,2,4.9,3-5.15,1.35-9.87,4.15-15,5.65-3.51,1-7.73,2.29-11.4,1.27a13,13,0,0,1-3.87-1.86A5.13,5.13,0,0,1,479.64,163.47Zm41.86,82.9c-6.93,9.12-16.36,10.25-27.17,8.83a1,1,0,0,0-.19,0c3.14-7.88,8.44-11.79,17.37-11.91a23.76,23.76,0,0,1,7.79,1,8.86,8.86,0,0,1,1.13.9,10,10,0,0,0,1,.9A1.5,1.5,0,0,0,521.51,246.36Zm83.62,36.55c-8.79-5.24-20-16.16-10.8-26,.19-.1.39-.18.57-.28a1.28,1.28,0,0,0,.32.06C609.81,256.54,611.62,273.06,605.12,282.92ZM566,207.61c-.19-4.3.24-9.07,4.2-11.54,4.32,3.83,9.57,8.28,8.24,14.72-.74,3.58-2,6.72-4.57,8.85C569.9,216.68,566.25,212.73,566,207.61Zm31.57,136.69c4.11,2.1,8.92,3.11,12,6.83,6.56,7.84,3.54,18.27-1.48,26C597.44,369,592.12,357.19,597.58,344.29ZM556.49,335c.3.27.57.58.88.85-.25,4.08-.57,8.12-3.81,11.21a21.13,21.13,0,0,1-10.28,5.33c-7.64,1.62-13.83-.39-21.27-1h0C523.24,334.61,543.31,335.74,556.49,335Zm-13.36-45.19a.49.49,0,0,0,0-.1,11.34,11.34,0,0,1,.49-5.64c5.22-8,14.22-12.58,23.42-15.63.58,7.19-.27,16-7.5,19.64C554.66,290.47,548.25,292,543.14,289.76Zm-.35,5.71a9.6,9.6,0,0,1,2.42-.45c1.2,0,2.38.09,3.57.15.89,0,1.89.24,2.88.35,4.67,1.32,9.58,2.34,13.07,5.87,4.52,4.58,4.06,9.89,4.53,15.76-10.38-.61-22-8.13-25.87-18Q543,297.32,542.79,295.47Zm-35.57,1.09c.78-.06,1.56-.1,2.32-.22,5.28,3.87,10.12,8.19,9.27,15.62-.8,7-4.83,11.43-9.29,16.51a.84.84,0,0,0-.16.26C500.87,318.75,501.43,307.84,507.22,296.56Z" style="fill:#3c3c3b"/><path d="M192.11,753.5c-2.49,5.75-6.5,11-2.5,17.37,3.31,5.24,7.1,7.22,12.68,8.37,2.27-6.52,1.39-13.86-3.68-19A86.12,86.12,0,0,1,192.11,753.5Z" style="fill:#3aaa61"/><path d="M288,821.94c-1.34,4-3.41,7.86-2.12,12.19,1.43,4.84,4.86,5.56,8.75,7.14,1-3.8,1.23-7-.66-11A38.55,38.55,0,0,0,288,821.94Z" style="fill:#3aaa61"/><path d="M322.82,851.77a27,27,0,0,0-8,2.11c-2.2,1-4.8,2.39-5.93,4.67s-.16,4.2,0,6.44c2.17.1,4.3.63,6.54.15a15.76,15.76,0,0,0,6.94-3.22c1.79-1.56,3.81-3.81,3.64-6.37a5.76,5.76,0,0,0-1.28-3.23C324.09,852.14,323.46,851.94,322.82,851.77Z" style="fill:#3aaa61"/><path d="M361.22,868.37c2.63-18.17-2.81-48.8-23.6-51.57-6.21-.82-18.62,3-14.92,12.06,2.68,6.58,9.7,8,14,2.06.1-.14-.11-.27-.23-.17-7.55,6.1-15.18-5.43-8.18-10.76,3.35-2.56,8.78-.74,12.08.7,7,3,11.09,10.59,13.55,17.36,3,8.32,2.78,16.92,3.27,25.49-11.07-11.19-29.62-16.88-43.54-18.7-5.36-.7-10.76-1.07-16.16-1.39,4.82-6-.59-19.41-7.44-22.81a11.1,11.1,0,0,0-2.18.37,4.76,4.76,0,0,0-.62.27c-6,6-4.32,19.47,3.84,21.79-5.84-.34-11.66-.73-17.43-1.52a32.72,32.72,0,0,1-18.73-9.07,10.84,10.84,0,0,1-1.05-1.25,1.42,1.42,0,0,1-.48-.56,10.68,10.68,0,0,1-1.13-2.72,2.25,2.25,0,0,1,0-.35h0c-.88-3.52.06-7.34,1.63-10.82,4.54-10,23-5,15.47,5.23-.18.23.2.51.4.31,7.68-7.76-1.89-15.51-10.43-14.5-9.47,1.11-12.39,10-11.12,18.21-12.43-5.73-14.49-16.22-20.24-28.84-3.94-8.64-9.54-16-19.49-17.14a15.74,15.74,0,0,0-3.52,0c4.52-11.5-2.68-21-12.17-28h0l-.06,0c-.15-.1-.31-.23-.47-.36l0,0a.65.65,0,0,0-.8.85c-5.11,5.68-7.44,12.27-3.68,19.5,2.14,4.12,7.44,9.11,12.59,9.4-10.45,6.31-2.11,29.81,9.38,20.54.24-.19,0-.55-.28-.48-13.48,3.42-14.22-20.41.7-18,5.16.83,8.35,5.44,10.88,9.5,3.63,5.83,5.38,12.65,7.81,19,3.78,9.92,10.58,16.72,20.76,19.21a18.36,18.36,0,0,0,3.85,6.18c11.85,12,33.13,9.37,48.27,10.72a127.2,127.2,0,0,1,15.76,2.38,38.47,38.47,0,0,0-5.12,2.29c-2.66,1.46-6.34,5.89-6,9.44a5.32,5.32,0,0,0,.72,3.24.43.43,0,0,0,.05.31c1.69,2.75,5.61,3,8.54,2.58a17.43,17.43,0,0,0,10-5.1,10.68,10.68,0,0,0,2.57-9.83,87.84,87.84,0,0,1,9.43,3.7c11.59,5.4,16.77,14.63,25,23.48,1.4,1.49,3.73-.07,3.29-1.91A30.13,30.13,0,0,0,361.22,868.37ZM202.29,779.25c-5.59-1.15-9.37-3.13-12.68-8.37-4-6.33,0-11.62,2.5-17.37a86.12,86.12,0,0,0,6.5,6.73C203.68,765.39,204.55,772.73,202.29,779.25Zm92.3,62c-3.9-1.59-7.32-2.3-8.75-7.14-1.29-4.33.79-8.22,2.12-12.19a38.55,38.55,0,0,1,6,8.38C295.81,834.25,295.56,837.47,294.58,841.27Zm27.77,20.66a15.76,15.76,0,0,1-6.94,3.22c-2.23.48-4.36-.05-6.54-.15-.14-2.24-1.15-4.1,0-6.44s3.73-3.64,5.93-4.67a27,27,0,0,1,8-2.11c.63.17,1.26.37,1.89.55a5.76,5.76,0,0,1,1.28,3.23C326.16,858.12,324.14,860.37,322.35,861.93Z" style="fill:#3c3c3b"/><path d="M534.68,753.5c2.49,5.75,6.5,11,2.5,17.37-3.31,5.24-7.1,7.22-12.68,8.37-2.26-6.52-1.39-13.86,3.68-19A86.78,86.78,0,0,0,534.68,753.5Z" style="fill:#3aaa61"/><path d="M438.83,821.94c1.34,4,3.41,7.86,2.13,12.19-1.43,4.84-4.86,5.56-8.75,7.14-1-3.8-1.23-7,.66-11A38.66,38.66,0,0,1,438.83,821.94Z" style="fill:#3aaa61"/><path d="M404,851.77a27,27,0,0,1,8,2.11c2.2,1,4.8,2.39,5.93,4.67s.16,4.2,0,6.44c-2.18.1-4.3.63-6.54.15a15.74,15.74,0,0,1-6.94-3.22c-1.8-1.56-3.81-3.81-3.64-6.37a5.78,5.78,0,0,1,1.28-3.23C402.71,852.14,403.33,851.94,404,851.77Z" style="fill:#3aaa61"/><path d="M360.93,878.63c-.44,1.84,1.89,3.41,3.29,1.91,8.28-8.84,13.46-18.08,25-23.48a87.55,87.55,0,0,1,9.43-3.7,10.67,10.67,0,0,0,2.57,9.83,17.42,17.42,0,0,0,10,5.1c2.93.45,6.85.17,8.54-2.58a.41.41,0,0,0,0-.31,5.32,5.32,0,0,0,.73-3.24c.3-3.55-3.38-8-6-9.44a38.47,38.47,0,0,0-5.12-2.29,127.2,127.2,0,0,1,15.76-2.38c15.13-1.34,36.42,1.24,48.26-10.72a18.3,18.3,0,0,0,3.85-6.18c10.18-2.5,17-9.3,20.76-19.21,2.43-6.37,4.18-13.19,7.81-19,2.53-4.06,5.72-8.67,10.88-9.5,14.92-2.38,14.18,21.45.7,18-.26-.07-.53.29-.28.48,11.49,9.27,19.83-14.23,9.38-20.54,5.15-.29,10.46-5.28,12.59-9.4,3.75-7.23,1.43-13.82-3.69-19.5a.64.64,0,0,0-.79-.84l0,0c-.16.13-.32.25-.47.36h-.06c-9.5,7-16.69,16.5-12.17,28a15.74,15.74,0,0,0-3.52,0c-9.95,1.13-15.55,8.5-19.49,17.14-5.75,12.62-7.81,23.12-20.24,28.84,1.27-8.22-1.65-17.1-11.12-18.21-8.53-1-18.11,6.74-10.43,14.5.19.2.57-.07.4-.31-7.54-10.21,10.93-15.24,15.47-5.23,1.58,3.48,2.52,7.3,1.65,10.82h0a2.25,2.25,0,0,1,0,.35,10.68,10.68,0,0,1-1.13,2.72,1.45,1.45,0,0,1-.48.56,10.84,10.84,0,0,1-1.05,1.25,32.72,32.72,0,0,1-18.73,9.07c-5.78.79-11.6,1.18-17.43,1.52,8.16-2.32,9.88-15.75,3.84-21.79a4.76,4.76,0,0,0-.62-.27,11.1,11.1,0,0,0-2.18-.37c-6.85,3.4-12.26,16.77-7.44,22.81-5.4.32-10.8.69-16.16,1.39-13.91,1.82-32.47,7.51-43.53,18.7.49-8.57.25-17.17,3.27-25.49,2.46-6.77,6.56-14.31,13.55-17.36,3.3-1.44,8.73-3.26,12.08-.7,7,5.33-.63,16.86-8.18,10.76-.12-.1-.33,0-.23.17,4.29,6,11.31,4.52,14-2.06,3.69-9.07-8.71-12.89-14.92-12.06-20.79,2.77-26.24,33.41-23.6,51.57A30.13,30.13,0,0,0,360.93,878.63Zm167.25-118.4a86.78,86.78,0,0,0,6.5-6.73c2.49,5.75,6.5,11,2.5,17.37-3.31,5.24-7.1,7.22-12.68,8.37C522.24,772.73,523.11,765.39,528.19,760.23Zm-95.32,70.09a38.66,38.66,0,0,1,6-8.38c1.34,4,3.41,7.86,2.13,12.19-1.43,4.84-4.86,5.56-8.75,7.14C431.23,837.47,431,834.25,432.87,830.32ZM400.8,855.56a5.78,5.78,0,0,1,1.28-3.23c.63-.18,1.26-.38,1.89-.55a27,27,0,0,1,8,2.11c2.2,1,4.8,2.39,5.93,4.67s.16,4.2,0,6.44c-2.18.1-4.3.63-6.54.15a15.74,15.74,0,0,1-6.94-3.22C402.64,860.37,400.63,858.12,400.8,855.56Z" style="fill:#3c3c3b"/></svg>