<svg xmlns="http://www.w3.org/2000/svg" viewBox="0 0 760 916"><title>sk1-temperance</title><path d="M596.5,102.64C530.86,21.52,433.66,15.92,374.18,15.92s-156.69,5.59-222.33,86.72S68.43,283.44,91.68,371.2c19.14,72.26,9.57,89.51,9.57,89.51s-16.09,46.92,19,77.61a7,7,0,0,0,0,1.11c2.16,20.29,16.07,49.65,33.39,53.38s18.23,60.61,24.61,107.5,19.15,66.87,35.56,76.19,10.94,16.78,62.9,39.16,97.41,16.79,97.41,16.79,45.48,5.59,97.44-16.79,46.5-29.84,62.9-39.16,29.17-29.29,35.55-76.19,7.3-103.78,24.62-107.5,31.22-33.1,33.39-53.38a7,7,0,0,0,0-1.12c35.09-30.69,19-77.61,19-77.61s-9.57-17.26,9.57-89.51C679.92,283.44,662.14,183.77,596.5,102.64Z" style="fill:#eee3cf"/><path d="M365.72,19c-20.16-4.4-41.1,1.73-58.79,11.52-12.75,7.06-37.31,32-22.29,47.68,2.68,2.8,6.5,1.06,7.77-2.1,2.57-6.39,1.91-13,5.25-19.41,4.23-8.12,12-14.54,19.15-19.85,13-9.68,32.29-19.93,48.83-17.51C365.83,19.39,365.93,19.08,365.72,19Z" style="fill:#fcd310"/><path d="M371,20.81c-16.74,7.41-36,13-42.2,32.59-3.5,11,14.17,16,16.87,4.76,3.6-15,13.7-27.52,26.22-35.8A.89.89,0,0,0,371,20.81Z" style="fill:#fcd310"/><path d="M379.9,38.82a73.91,73.91,0,0,1-5.15-16.71c-.21-1-1.6-.87-1.9,0-1.58,4.76-2,9.58-3.66,14.34-1.93,5.62-2.75,10.58-1.46,16.49,1.51,6.86,12.34,7.06,13.71,0A22.23,22.23,0,0,0,379.9,38.82Z" style="fill:#fcd310"/><path d="M415.72,47.66c-3.79-8.42-12.17-11-18.69-16.58-5.38-4.63-13.68-9.33-20.91-8.9-.89.05-1.45,1.42-.49,1.88,6.68,3.17,12.22,5.51,17.76,10.75s5.4,14.37,8.46,21.16C406.18,65.58,420,57.22,415.72,47.66Z" style="fill:#fcd310"/><path d="M439,29.62C425.88,22.73,407.59,17.73,392.88,18a.45.45,0,0,0-.22.83c10.67,7.09,23.66,8.73,34.61,15.48,5.85,3.61,10.12,9.19,13.16,15.24,3.17,6.31,3.67,13.83,7.75,19.48,3.61,5,11,4.65,13-1.74C466.08,51.49,451.52,36.22,439,29.62Z" style="fill:#fcd310"/><path d="M666.53,233c-10.4-49.1-32.2-94.43-64.82-134.74C537.73,19.14,446.5,9,374.18,9S210.63,19.14,146.64,98.23C114,138.54,92.21,183.87,81.82,233a303.8,303.8,0,0,0,3.33,140C100,429,97.5,453,95.23,457.56l-.37.86c-.49,1.43-11.69,35.23,5.34,65.91a71.39,71.39,0,0,0,13.53,17.34c2.82,21.88,17.39,53.36,38.55,57.91,8.54,1.84,12.89,43.54,15.49,68.46,1.15,11,2.33,22.38,3.81,33.23,6,44.33,18,69.4,39,81.28A50.12,50.12,0,0,1,221,790.66c7.52,7,16.88,15.8,53.09,31.39A223.3,223.3,0,0,0,360.46,840c7.35,0,12.2-.43,13.73-.59,2,.2,6.68.58,13.71.59h0a223.34,223.34,0,0,0,86.33-17.95c36.21-15.6,45.57-24.36,53.09-31.39a50,50,0,0,1,10.48-8.11c20.91-11.88,32.93-37,39-81.28,1.49-10.91,2.66-22.25,3.81-33.23,2.6-24.92,7-66.62,15.5-68.46,21.14-4.55,35.71-36,38.54-57.91a71.39,71.39,0,0,0,13.53-17.34c17.06-30.74,5.83-64.49,5.34-65.91l-.38-.9C650.88,453,648.36,429,663.21,373A303.9,303.9,0,0,0,666.53,233ZM593.28,586c-18.18,3.91-21.7,37.73-26.17,80.55-1.13,10.88-2.3,22.13-3.76,32.77-5.39,39.6-15.3,61.52-32.14,71.09a63.42,63.42,0,0,0-13,10c-6.74,6.32-15.15,14.18-49.2,28.85a209.69,209.69,0,0,1-81.09,16.87,127,127,0,0,1-12.69-.54l-1.14-.2-.92.19a125.36,125.36,0,0,1-12.68.55,209.7,209.7,0,0,1-81.08-16.87c-34-14.66-42.45-22.52-49.2-28.85a63.28,63.28,0,0,0-13-10C200.29,760.88,190.38,739,185,699.36c-1.44-10.63-2.62-21.89-3.76-32.79-4.46-42.81-8-76.63-26.16-80.54-8.29-1.79-19.14-15.27-24.74-32.29q4,2.25,8.41,4.2c2,8.55,8.76,15,14.58,21.31.07.07.2,0,.14-.11-2.53-3.36-4.25-7.4-6.21-11.14a24,24,0,0,1-2.35-7.55c2.08.79,4.2,1.54,6.39,2.25.49,3.66,3,7.24,5,10.14,1.37,2,3.32,3.3,4.84,5.15a61.45,61.45,0,0,1,5.34,8.26c.27.45.87.06.68-.41a90.68,90.68,0,0,1-4.79-15.61c-.33-1.5-.7-3.13-1.18-4.75,1.89.46,3.81.9,5.77,1.31l3.27.7c3.19,17.24,9.6,33.1,15.63,49.45,5.66,15.37,12.39,32.36,23,44.9.48.56,1.26-.15,1-.76-8.11-16.09-15.61-31.48-20.83-48.89-4.07-13.56-5.79-28-8.23-42.08q3.76,1.05,7.2,2.18c2.44,17.52,13.37,80.59,45.55,98.39l1.51.83h278.5l1.5-.83c32.18-17.79,43.11-80.89,45.56-98.39,1.95-.64,4-1.26,6.08-1.86-3.89,12.93-7.07,26.12-10.9,39.07-5.1,17.18-12,33.33-19.46,49.55-.06.13.09.27.21.16C558.67,635.5,568,599,575.92,568q2.69-.63,5.52-1.22c1.08-.22,2.13-.47,3.19-.71-2.43,7.39-4.58,14.84-7.17,22.2-.07.18.17.28.29.17,7.22-6.32,11.95-15.64,15.42-24.57,2.72-.79,5.37-1.62,7.93-2.53-1.3,5.42-2.67,11.18-5.68,15.51-.06.09.06.17.14.11a42.71,42.71,0,0,0,13.23-18.56s0-.08,0-.12c3.23-1.41,6.33-2.93,9.25-4.57C612.47,570.71,601.59,584.25,593.28,586Zm-358.11,64c-.2,1.63-.38,3.22-.56,4.78-18.09-15.38-28.13-53.59-32.15-76.77C241.58,596.7,238.09,625.77,235.17,650.07Zm310.65-72a275.21,275.21,0,0,1-6.55,28.54c-6.72,23.19-15.48,39.68-25.54,48.21-.17-1.57-.36-3.17-.56-4.82C510.26,625.78,506.77,596.73,545.83,578.11ZM650.13,369.38c-5.56,21-8.78,37.51-10.52,50.5-1.36-4.55-2.65-9.11-3.75-13.68-5.07-21.07,5.11-42.35,0-63.42-.06-.26-.4-.18-.42.06-1.89,23.31-9.23,44.94-7.93,68.58,1,18.18,7.07,38.08,14.23,55.36,2.12,8.77,5.68,30.79-5.38,50.71a54.39,54.39,0,0,1-3.32,5.22,44.12,44.12,0,0,1-5.79,5.42c-9.26,5.64-23.26,10.76-43.91,14.43-2.91.29-5.86.55-8.88.79-12.48,1-26.22.67-38.76,3.76-17.32.24-37.54,9.21-51,17.27C467,575,449.9,589.45,444.26,610.44c0,.1.12.17.17.07,8.64-18.88,24.7-32.7,42.82-41.64q6.91-3.41,14-6.24c-15.48,9.55-28,23.23-33,41.27,0,.05.05.07.08,0,14.48-19.71,29.2-33.84,52.15-42.54,14.3-5.42,29.31-6.9,44.33-8.35-4.66,2.76-8.59,5.19-11.35,6.92-6.5.44-13.64,3.77-19.63,5.53A146.74,146.74,0,0,0,508,575.73c-12.48,6.42-26,20.47-24.57,35.93,0,.06.07.06.09,0,3.47-8.51,5.66-15.36,12.63-21.68,6.68-6.05,15.67-10,23.93-13.11,1.08-.41,2.23-.78,3.42-1.13A64,64,0,0,0,505,597.62c-9.5,18.78-7.15,38.37-5.25,54.12l0,.33c.14,1.24.29,2.46.43,3.66l-126,.87-126.06-.87c.15-1.28.31-2.6.47-4,1.89-15.74,4.25-35.32-5.25-54.12a64.23,64.23,0,0,0-19.09-22.33c1.78.49,3.49,1,5.06,1.6,8.26,3.11,17.25,7.05,23.93,13.11,7,6.32,9.17,13.16,12.63,21.68a0,0,0,0,0,.09,0c1.38-15.46-12.09-29.5-24.57-35.93a146.85,146.85,0,0,0-25.85-10.24c-6.32-1.86-13.91-5.46-20.69-5.57-2.79-1.75-6.77-4.2-11.48-7,15.42,1.49,30.85,2.9,45.53,8.47,23,8.7,37.67,22.82,52.15,42.54,0,0,.1,0,.08,0-5-18-17.55-31.72-33-41.27q7.09,2.84,14,6.24c18.12,8.95,34.18,22.76,42.82,41.64,0,.1.19,0,.17-.07-5.64-21-22.7-35.45-40.43-46.05-13.48-8.06-33.7-17-51-17.27-12.53-3.1-26.28-2.78-38.76-3.76-3.44-.27-6.8-.57-10.1-.91-16.78-1.5-29.78-6.62-42.93-14.5a51.82,51.82,0,0,1-10.38-11.4c-7.76-14.64-7.81-30.34-6.46-41,11.35-16.84,14.7-41.22,15.3-60.65.72-22.93-4.8-49.39-16.75-68.92a.48.48,0,0,0-.88.38c5.18,22,9.6,41.7,8,64.52-.29,4.21-.82,8.41-1.52,12.58-1.6-13.49-4.89-31.14-11-54.1A289.5,289.5,0,0,1,95,235.9c9.93-46.9,30.8-90.25,62-128.84A207.53,207.53,0,0,1,230.17,49.4a38.55,38.55,0,0,1,20,15.21c3.3,8.6,6.6,16.68,6.1,26.08l-.2-.19c-1.64-4.12-7.69-5.86-11.47-6.62a21,21,0,0,0-13.48,1.77,21.77,21.77,0,0,0-10.06,7.08.71.71,0,0,0,.65,1.19A6.06,6.06,0,0,0,224,95c7.76,4.31,20.9,10.81,29.48,7.75-4.67,10.77-14.5,19.1-24.11,24.83-12.82,7.64-29,9.49-40.19-1.89-7.48-7.62-5.34-19.77,3.21-25.43,8.25-5.45,19.71,1.2,16.8,11.72a.48.48,0,0,0,.79.47c10-9.15-5.64-19.65-14.72-18.2-20.84,3.32-18.38,28.9-5.22,39.72,18.27,15,43.68,1.91,58.34-11.85A44.29,44.29,0,0,0,261.3,100.8,59.4,59.4,0,0,1,252.38,132c-8.7,14.32-21.48,22.6-34.47,32.18-9,6.66-16.5,14.56-19.61,25.7,0,.1,0,.2-.07.3-3.49-18.72-16.24-35.55-34.4-37.61,4.22-4,7.37-8.29,7.49-14.89.06-3.29-.75-8-3.26-10.59v0c-.67-1-2-2.35-3.23-2.14a.61.61,0,0,0-.21,0c-7.37,2-12.89,9.89-11.9,17.67a22.3,22.3,0,0,0,3.94,9.87,38.21,38.21,0,0,0-4.91.8c-13.89,3.24-23.71,20.7-14.93,33.5l0,.06c-10.82,1.33-16,13.07-12.73,22.69a17,17,0,0,0,1.65,4.09,12.22,12.22,0,0,0,2.44,3.6s.05,0,.08,0a.32.32,0,0,0,.32.16c.24,0,.48-.12.72-.16a.35.35,0,0,0,.31-.07c10.29-2.23,20.18-16.5,14.75-26.28,7.44,1.3,16.3-1.93,11.81-9.19,0,0-.1,0-.09,0q-2.31,8.95-10.57,6.32a12.42,12.42,0,0,1-6.75-7.61c-2.69-6.91,3.1-15.27,8.12-19.16,9.2-7.13,22.58-3.26,30.3,3.83,12.27,11.28,16.39,31.61,14.86,48.37a35.49,35.49,0,0,0-14.86-11.4,35.82,35.82,0,0,0-5.72-2.5c-1.16-.45-5.64-1.47-5.94.65a10.89,10.89,0,0,0-.82,4.12,16.51,16.51,0,0,0,.12,4.4,18.31,18.31,0,0,0,8.46,15.17,26.45,26.45,0,0,0,7.18,2.85A26.9,26.9,0,0,0,167,234.31a12.9,12.9,0,0,0-3.15,6.39c-1.34,3.38-1.17,7.72-.88,11.26a.87.87,0,0,0,.63,1.16c7,1.38,17.5-3.13,24.53-10a63.88,63.88,0,0,1-9.86,17.46c-8.59,11-19.95,16.25-33.44,13.89a26.89,26.89,0,0,1-14-7c-8.92-8.48,2.49-30.08,13.73-21.52.41.31.85-.27.65-.67-5.59-10.75-20.68-1.93-22.75,7.6-2.42,11.14,2.61,18.87,10.77,23.51-5.34,2.13-10.85,6.19-12.71,11.11-3.24,8.59-.7,19.14,5,26.05a.6.6,0,0,0,.79.61c14.21-4.36,18.14-21.71,14-34.74,1,.31,2,.59,3,.83,12.07,2.89,22.58-.89,31.36-8-1.81,15.13,23,22.39,35.51,17,.5-.16,1-.33,1.46-.5a6.71,6.71,0,0,0,2.52-1.33,1.12,1.12,0,0,0,.91-1.24C214,268.62,194,266.25,179.53,267.74a69,69,0,0,0,5.15-5.81,67.81,67.81,0,0,0,12.42-26.62c2-8.55,1.69-16.52,2.66-24.59a33.25,33.25,0,0,0,22.19,18.51c-6.88,3-9.35,10.33-8.47,17.66a19.37,19.37,0,0,0,2.17,8c1.21,4.13,4.68,8.14,7.42,10.89a.61.61,0,0,0,.48.2.75.75,0,0,0,.67,0c11.58-5.07,12.47-22.54,6.85-33.61a3.32,3.32,0,0,0,.5,0c17.48-4.36,35.76,5.09,44.61,20.81,6.05,10.76,2.79,21.89-7.05,28.79C248,296.82,244.41,257.47,263.54,260c.14,0,.16-.2,0-.24-11.91-3.49-18.79,9.24-15.43,20.11,1.73,5.62,7.72,8.15,12.92,8.57,7.35.59,13.15-6.34,16.87-11.78,12.91-18.89-10-49.85-31.73-53.78,6.68-8.86,8.15-23.65-5.9-20.91-.49.09-.51,1,0,1,8.19,1.22,7.39,7.93,3.82,13.81a15,15,0,0,1-7.84,6.35c-.39.1-.75.25-1.13.37a24.94,24.94,0,0,1-16.48-1.26,22.88,22.88,0,0,1-11.82-11.81c-3.19-10.22-.21-22.54,5.6-31.12,5.34,10.31,16.87,15,27.87,10.55.07,0,.09-.1.15-.14a4.23,4.23,0,0,0,1-.3.73.73,0,0,0,.62-.42,6.41,6.41,0,0,0,0-3.54,7.77,7.77,0,0,0-.32-1.29C241,176.89,230,172.43,224,171.9a26.16,26.16,0,0,0-5.83.36c5.46-4.44,11.72-8.15,17.08-12,8.34-6,15-13.4,21.07-21.67,14.82-20.1,15.79-43.71,9.22-67.13-3.09-11.05-9.57-22.58-18.72-29.2,42.75-16.33,87.94-19.42,127.32-19.42,38.79,0,83.21,3,125.4,18.7C489.86,48,483,60,479.8,71.47c-6.56,23.42-5.6,47,9.23,67.13,6.1,8.28,12.73,15.71,21.07,21.67,5.36,3.84,11.62,7.55,17.08,12a26.2,26.2,0,0,0-5.83-.36c-5.95.54-17,5-17.75,12.28a7.77,7.77,0,0,0-.32,1.29,6.48,6.48,0,0,0,0,3.54.73.73,0,0,0,.63.42,4.24,4.24,0,0,0,1,.3c.05,0,.08.11.14.14,11,4.45,22.53-.24,27.87-10.55,5.81,8.57,8.8,20.89,5.6,31.12a22.88,22.88,0,0,1-11.82,11.81,24.94,24.94,0,0,1-16.48,1.26c-.38-.12-.75-.27-1.13-.37a15,15,0,0,1-7.85-6.35c-3.57-5.88-4.37-12.59,3.82-13.81.51-.07.49-.94,0-1-14-2.74-12.58,12.05-5.9,20.91-21.74,3.93-44.64,34.89-31.73,53.78,3.72,5.44,9.52,12.38,16.87,11.78,5.21-.42,11.19-3,12.92-8.57,3.36-10.87-3.51-23.59-15.43-20.11-.12,0-.1.26,0,.24,19.13-2.5,15.52,36.85-5.56,22.06-9.85-6.9-13.11-18-7.05-28.79,8.84-15.72,27.12-25.17,44.6-20.81a3.36,3.36,0,0,0,.5,0c-5.62,11.07-4.73,28.54,6.85,33.61a.75.75,0,0,0,.67,0,.6.6,0,0,0,.47-.2c2.74-2.75,6.21-6.76,7.42-10.89a19.31,19.31,0,0,0,2.17-8c.88-7.33-1.6-14.62-8.47-17.66a33.25,33.25,0,0,0,22.19-18.51c1,8.07.68,16,2.66,24.59a67.91,67.91,0,0,0,12.42,26.62,69.62,69.62,0,0,0,5.15,5.81c-14.44-1.49-34.47.88-35.53,18.42a1.12,1.12,0,0,0,.9,1.24,6.75,6.75,0,0,0,2.52,1.33c.47.17,1,.35,1.46.5,12.53,5.43,37.32-1.84,35.52-17,8.78,7.13,19.29,10.91,31.36,8,1-.24,2-.52,3-.83-4.18,13-.26,30.38,14,34.74a.6.6,0,0,0,.79-.61c5.74-6.91,8.27-17.46,5-26.05-1.86-4.92-7.36-9-12.7-11.11,8.16-4.63,13.18-12.37,10.76-23.51-2.07-9.53-17.17-18.35-22.75-7.6-.2.39.25,1,.65.67,11.25-8.56,22.65,13,13.73,21.52a26.88,26.88,0,0,1-14,7c-13.49,2.35-24.85-2.91-33.44-13.89a63.88,63.88,0,0,1-9.86-17.46c7,6.83,17.56,11.33,24.53,10a.87.87,0,0,0,.63-1.16c.3-3.53.47-7.87-.88-11.26a12.88,12.88,0,0,0-3.15-6.39,26.9,26.9,0,0,0-13.49-7.53,26.42,26.42,0,0,0,7.18-2.85,18.3,18.3,0,0,0,8.46-15.17,16.37,16.37,0,0,0,.12-4.4,10.81,10.81,0,0,0-.82-4.12c-.3-2.13-4.77-1.1-5.93-.65a51.72,51.72,0,0,0-20.59,13.9c-1.54-16.76,2.59-37.09,14.85-48.37,7.72-7.1,21.1-11,30.3-3.83,5,3.89,10.81,12.25,8.12,19.16a12.42,12.42,0,0,1-6.75,7.61q-8.26,2.62-10.56-6.32c0-.05-.06-.08-.09,0-4.49,7.26,4.36,10.49,11.81,9.19-5.43,9.78,4.46,24,14.75,26.28a.35.35,0,0,0,.31.07c.24,0,.48.13.72.16a.33.33,0,0,0,.32-.16.14.14,0,0,0,.08,0,12.31,12.31,0,0,0,2.44-3.6,17.3,17.3,0,0,0,1.65-4.09c3.26-9.63-1.91-21.36-12.73-22.69l0-.06c8.78-12.8-1-30.27-14.93-33.5a38.23,38.23,0,0,0-4.91-.8,22.36,22.36,0,0,0,3.95-9.87c1-7.77-4.53-15.68-11.9-17.67a.61.61,0,0,0-.21,0c-1.27-.2-2.56,1.19-3.22,2.13v0c-2.51,2.55-3.33,7.3-3.26,10.59.12,6.6,3.27,10.85,7.49,14.89-18.16,2.06-30.91,18.88-34.4,37.61,0-.1,0-.2-.07-.3-3.11-11.14-10.58-19-19.61-25.7-13-9.58-25.77-17.86-34.47-32.18a59.44,59.44,0,0,1-8.92-31.18A44.34,44.34,0,0,0,497,122.14C511.65,135.9,537.06,149,555.32,134c13.16-10.82,15.62-36.4-5.22-39.72-9.08-1.45-24.74,9-14.72,18.2a.48.48,0,0,0,.79-.47c-2.91-10.52,8.55-17.18,16.8-11.72,8.55,5.65,10.7,17.8,3.21,25.43-11.17,11.38-27.36,9.54-40.18,1.89-9.61-5.73-19.43-14.06-24.11-24.83,8.58,3.06,21.72-3.44,29.48-7.75a6.05,6.05,0,0,0,2.25-1.07.71.71,0,0,0,.65-1.19,21.78,21.78,0,0,0-10.06-7.08,21.05,21.05,0,0,0-13.48-1.77c-3.78.76-9.83,2.5-11.47,6.62l-.2.19c-.5-9.41,2.79-17.48,6.1-26.08,5.22-7.67,12-12.7,21.77-15.79a207.6,207.6,0,0,1,74.35,58.24c31.22,38.59,52.09,81.94,62,128.84A289.5,289.5,0,0,1,650.13,369.38ZM254.08,98.08a12.91,12.91,0,0,1-3.87,1.9c-3.67,1.05-7.89-.24-11.4-1.3-5.11-1.54-9.84-4.41-15-5.79,1.67-1,3.28-2,4.9-3,8.8-4.39,18.85-4.73,25.73,2.91.1.3.22.59.29.89A5.37,5.37,0,0,1,254.08,98.08Zm-31.21,77.38c8.93.12,14.23,4.13,17.37,12.21a1.06,1.06,0,0,0-.2,0c-10.81,1.45-20.23.29-27.17-9a1.56,1.56,0,0,0,.08-.32,10.15,10.15,0,0,0,1-.92,8.89,8.89,0,0,1,1.13-.92A23.24,23.24,0,0,1,222.87,175.46Zm-62.38-24.23c-2.54-2.19-3.83-5.4-4.57-9.07-1.33-6.6,3.93-11.16,8.25-15.09,4,2.53,4.39,7.42,4.2,11.83C168.13,144.14,164.48,148.19,160.49,151.22Zm-21.33,38a1.28,1.28,0,0,0,.32-.06c.18.11.38.19.57.29,9.16,10-2,21.23-10.8,26.6C122.75,206,124.57,189,139.16,189.23Zm46.44,39.39c1.2-.06,2.38-.15,3.57-.16a9.34,9.34,0,0,1,2.42.47q-.25,1.89-.59,3.73c-3.89,10.15-15.49,17.86-25.87,18.48.46-6,0-11.45,4.53-16.15,3.49-3.62,8.39-4.66,13.06-6C183.72,228.86,184.72,228.66,185.6,228.62Zm-10.77-7.32c-7.23-3.7-8.08-12.76-7.5-20.13,9.2,3.13,18.2,7.79,23.42,16a11.85,11.85,0,0,1,.49,5.78.34.34,0,0,0,0,.1C186.13,225.38,179.72,223.79,174.83,221.3Zm37.53,64.86h0c-7.44.62-13.63,2.68-21.27,1a21,21,0,0,1-10.28-5.47c-3.24-3.16-3.56-7.3-3.81-11.48.3-.28.58-.6.88-.88C191.06,270.18,211.14,269,212.36,286.16ZM126.24,312.6c-5-7.94-8.05-18.62-1.49-26.66,3.12-3.81,7.94-4.85,12-7C142.26,292.15,136.93,304.26,126.24,312.6Zm98.6-82.78c.77.12,1.54.16,2.33.22,5.79,11.56,6.35,22.74-2.14,33a.93.93,0,0,0-.16-.27c-4.47-5.21-8.49-9.71-9.29-16.92C214.72,238.21,219.56,233.78,224.83,229.82Zm305.46-53.38a8.93,8.93,0,0,1,1.13.92,10.15,10.15,0,0,0,1,.92,1.56,1.56,0,0,0,.08.32c-6.93,9.34-16.36,10.5-27.17,9a1,1,0,0,0-.19,0c3.14-8.08,8.44-12.08,17.37-12.21A23.23,23.23,0,0,1,530.29,176.44Zm-9.75,53.38c5.28,4,10.12,8.39,9.27,16-.8,7.2-4.83,11.71-9.29,16.92a.86.86,0,0,0-.16.27c-8.49-10.23-7.93-21.41-2.14-33C519,230,519.78,229.93,520.54,229.82Zm34.08-12.63c5.22-8.23,14.22-12.89,23.42-16,.58,7.36-.27,16.43-7.5,20.13-4.88,2.49-11.3,4.08-16.41,1.77a.5.5,0,0,0,0-.1A11.89,11.89,0,0,1,554.63,217.19Zm1.58,11.27c1.2,0,2.38.1,3.57.16.89,0,1.89.24,2.88.35,4.67,1.35,9.58,2.4,13.07,6,4.52,4.7,4.06,10.13,4.53,16.15-10.38-.63-22-8.33-25.87-18.48q-.33-1.84-.59-3.73A9.4,9.4,0,0,1,556.2,228.46Zm11.29,40.91c.3.28.57.6.88.88-.25,4.18-.57,8.32-3.81,11.48a21,21,0,0,1-10.28,5.47c-7.64,1.66-13.83-.4-21.27-1h0C534.24,269,554.31,270.18,567.49,269.37Zm41.09,9.57c4.11,2.15,8.92,3.18,12,7,6.56,8,3.54,18.72-1.48,26.66C608.44,304.26,603.12,292.15,608.58,278.94ZM584.89,151.22c-4-3-7.64-7.08-7.87-12.33-.19-4.4.24-9.3,4.2-11.83,4.32,3.93,9.57,8.48,8.24,15.09C588.72,145.82,587.43,149,584.89,151.22Zm31.23,64.83c-8.79-5.37-20-16.56-10.8-26.6.19-.1.39-.18.57-.29a1.25,1.25,0,0,0,.32.06C620.81,189,622.62,206,616.12,216.06ZM490.64,93.67c.08-.3.19-.59.29-.89,6.88-7.65,16.93-7.31,25.73-2.91,1.61,1,3.23,2.07,4.9,3-5.15,1.38-9.87,4.25-15,5.79-3.51,1.06-7.74,2.35-11.4,1.3a12.91,12.91,0,0,1-3.87-1.9A5.37,5.37,0,0,1,490.64,93.67Z" style="fill:#333"/><path d="M528.65,498.57c-10.13,0-20.87-1.35-31-2.81-50.83-7.36-82.28-39.14-93.48-94.44-4.37-21.55-1.27-40.34,9.21-55.86,17.08-25.3,47-30.86,50.38-31.41l.33-.05a136.15,136.15,0,0,1,18-1.14c21.12,0,42,4.25,50.14,7.27l1.65.58.47.16c13.17,4.55,48.13,16.62,61.3,44.36,13.71,28.88,9.06,53.21-5.05,90.72C579.8,484.63,559.55,498.57,528.65,498.57Z" style="fill:none"/><path d="M528.64,486.64c-9.41,0-19.67-1.3-29.35-2.7-46.08-6.67-73.46-34.49-83.7-85-3.69-18.23-1.21-33.93,7.39-46.67,14.61-21.63,41.5-26.23,42.64-26.41a123.75,123.75,0,0,1,16.46-1c19.48,0,39.06,3.91,46.15,6.55.59.22,1.39.49,2.38.83,11.9,4.11,43.5,15,54.54,38.27,11.92,25.09,7.74,46.18-5.44,81.23-9.1,24.19-24.84,35-51.06,35Z" style="fill:#e516c1"/><path d="M466.71,332.9s-55.52,9-44.27,64.56,42.17,74.24,77.83,79.41,60.28,5.81,72.9-27.76,16.42-52.94,5.68-75.53-46.07-32.92-53-35.5S490.9,329.66,466.71,332.9Z" style="fill:#3c3c3b"/><path d="M217.27,498.57c-30.9,0-51.16-13.94-61.95-42.62-14.11-37.51-18.76-61.84-5-90.72,13.18-27.75,48.14-39.82,61.3-44.36l.23-.08c.77-.27,1.41-.48,1.88-.66,8.11-3,29-7.27,50.15-7.27A135,135,0,0,1,281.62,314l.31,0c3.37.54,33.45,6,50.61,31.45,10.48,15.52,13.57,34.32,9.21,55.86-11.2,55.3-42.66,87.07-93.48,94.43C238.14,497.22,227.39,498.57,217.27,498.57Z" style="fill:none"/><path d="M217.27,486.64c-26.22,0-42-10.78-51.06-35-13.18-35.05-17.36-56.15-5.44-81.23,11-23.25,42.65-34.16,54.54-38.27,1-.34,1.79-.62,2.38-.84,7.1-2.64,26.68-6.55,46.16-6.55a123.5,123.5,0,0,1,16.27,1c1.33.21,28.22,4.81,42.83,26.44,8.6,12.74,11.08,28.44,7.39,46.67-10.24,50.55-37.62,78.37-83.7,85C236.94,485.35,226.68,486.64,217.27,486.64Z" style="fill:#e516c1"/><path d="M279.2,332.9s55.52,9,44.27,64.56-42.16,74.24-77.83,79.41-60.28,5.81-72.91-27.76-16.41-52.94-5.68-75.53,46.08-32.92,53-35.5S255,329.66,279.2,332.9Z" style="fill:#3c3c3b"/><path d="M406.8,584.28c-12.75,0-27.09-7.42-36.88-16.48-9.79,9.07-24.13,16.48-36.88,16.48-11.62,0-21-5.83-26.42-16.42-10.37-20.26-7.92-44.87,7.26-73.15,3.93-7.31,21.53-30.13,25-34.63,23.78-30.67,25-30.67,31-30.67s7.24,0,31,30.67c3.49,4.5,21.09,27.32,25,34.63,15.19,28.27,17.64,52.88,7.27,73.15-5.42,10.59-14.8,16.42-26.42,16.42Z" style="fill:#e516c1"/><path d="M415.73,500.46c-4.88-9.09-43.68-59.12-45.82-59.12s-40.94,50-45.82,59.12-19.68,37.39-7.15,61.87,49.66-2.1,53-14c3.31,11.89,40.45,38.46,53,14S420.62,509.55,415.73,500.46Z" style="fill:#3c3c3b"/><path d="M503.36,633c-2.54-10-14.06-10.66-21.15-5.61a13.16,13.16,0,0,0-2.77-1.92,19,19,0,0,0-6.82-1.77,10.59,10.59,0,0,0-3.84.24c-.06,0-.5.27-1.05.6a17.72,17.72,0,0,0-10.57-8.1c-5.6-1.58-12.48.64-16.94,4.14a14.63,14.63,0,0,0-2,1.92,34.35,34.35,0,0,0-15.82-8.63c-6.55-1.39-14.47-1.22-20.06,3a30.48,30.48,0,0,0-15.67-1.89,26,26,0,0,0-13.24,6.3,25.89,25.89,0,0,0-10.2-5,23,23,0,0,0-19.45,4.31,26.67,26.67,0,0,0-10.8-7c-8.4-2.91-15.58-.18-21.1,5.19a31.88,31.88,0,0,0-9.73-4.12c-10-2.38-17.52.88-21.9,9.24a10.55,10.55,0,0,0-6.35-.89c-3.56.62-5.88,2.89-7.45,5.85-5-3.41-10.8-4.56-15.28-1.62a11.81,11.81,0,0,0-3.27-1.6c-5.14-1.63-8.18,6.07-3.62,8.77a3.57,3.57,0,0,1,.71,3.61c-.33,7.21,9,7.19,11.27,1.56q-1.14-2.47.57-1.37a11.42,11.42,0,0,1,3.35,2.88,21.82,21.82,0,0,1,3.81,6.46c3,7.12,12.35,2.61,12.9-3.57a29.68,29.68,0,0,1,.49-4.11c1.13,1.66,2.27,3.45,2.69,3.92,4.28,4.8,12.42-.19,10.58-6.3a27,27,0,0,0-2.1-5c2.12-.83,4.14-1.89,6-1.92,3.14,0,10.36,2.28,10.13,6.19-.68,11.45,16.8,11.43,17.4,0a18.18,18.18,0,0,0-.75-6.27,24.16,24.16,0,0,1,2.63-.29c2.15-.09,6.17.58,7.1,3.07.53,1.44-.49,3.87-.28,5.66.34,2.92,1.4,5.81,4,7.39,6,3.6,12.18-2.13,13.71-7.83a18.92,18.92,0,0,0,.6-3.86c3.55-.27,7-.89,10.64.2,7.27,2.2,7.89,13.45,9.59,19.35,2.93,10.15,16.1,7.28,17.08-2.37a34.4,34.4,0,0,0-3-17.19,35.31,35.31,0,0,1,3.71-1.27c2.24-.58,5.49-.9,7.66.11,3,1.4,3.49,5.11,5.31,7.63,3.83,5.31,13.66,6,15.2-2a19.84,19.84,0,0,0,0-7.94,17,17,0,0,1,11,5.2c2.15,2.27,2.34,6.83,3.68,9.62,2.63,5.52,11.19,5.22,13.9,0a16.49,16.49,0,0,0,1.74-10.54c3.29-1.76,6.51-3,8-1.57,1.26,1.28.32,5.43.14,7-.66,5.93,5.86,9.6,10.68,8.32a8.59,8.59,0,0,0,5.57-5,7.89,7.89,0,0,0-.05,1.35c.39,7.24,8.44,10.81,13.74,5.82a13.38,13.38,0,0,0,3.9-7.3l2-.7c3.54,2.48,8.12,1.66,11.41-1.19C503.46,639.89,504.12,636,503.36,633Z" style="fill:#fcd310"/><path d="M526.78,672.46c-2.81-6.24-11.82-9.57-16.51-3.52-2.06,2.66-1.82,5.91,1,7.9-2-1.43-1.83-2.21-.09,1.13-.14-.26,1,2.6,1.35,3.83.93,3.76.63,8.47.27,12.48a26.16,26.16,0,0,1-2.5,9,7.47,7.47,0,0,0-3.23-1.87c-3.86-1.08-8.84,1.3-9.64,5.6-.13.68-.22,1.37-.3,2.06a4.49,4.49,0,0,0-.3.39,7.68,7.68,0,0,0-2.52-1.3c-3.85-1.08-9.19,1.3-9.86,5.73-.5,3.34-.67,5.48-2.13,7.32-1.89-6.55-12.84-8.23-14.64,0-.64,2.94-1.74,6.22-3.38,7.66a12.63,12.63,0,0,0-.26-6.24c-1.83-5-8.1-7.66-12.15-3.28-4.4,4.76-3.68,13.15-7,18.63,0,0-.33.2-.59.4a3,3,0,0,1-.81-.3c-1.41-.75-2.67-3.13-3.76-4.36a14.91,14.91,0,0,0-1.23-1.23c.92-5.65-.56-13.41-7.52-13.41-7.41,0-7.77,8.46-9.57,13.74-1.11,3.26-2.11,3.91-4.77,1.77a31.2,31.2,0,0,1-3.49-3.39,63.77,63.77,0,0,0,1.63-10.66c.77-11.76-17.12-11.7-17.86,0-.28,4.43-1.88,13.29-5.91,16.44-1.88,1.47-3-.38-4.29-2a32.87,32.87,0,0,0-5.13-5.16c1.57-6,1.58-12-.77-16.81-2.43-5-9.11-4.07-11.76,0-4.86,7.46-3.58,17.26-10.39,23.82-2.1,2-4.62-2.58-5.43-4-.5-.83-1-1.7-1.6-2.57,2.34-6.24,3.36-12.81,1.85-18.3-1.28-4.67-6.52-11-11.81-7.27s-4,10.63-5.24,16.16c-1.14,5.11-3.65,11.83-7.89,15.12-2.13,1.66-3.16.7-5.2-.84a16.39,16.39,0,0,0-2.79-1.65,5.46,5.46,0,0,0-2.74-2.86,11.27,11.27,0,0,0-2.11-.7,4.55,4.55,0,0,0-3-2.67,5,5,0,0,0-6.11,3.55,6.52,6.52,0,0,1-.19.78l-.12.24c-.1.17-.22.33-.33.5.14-.25-.56.58-.66.67l-.22.2c-.33.24-.67.46-1,.67a9.88,9.88,0,0,0-2.83,2,41.58,41.58,0,0,0-2.81-3.22,7.56,7.56,0,0,0-13.8-5.44c-1.22-.75-.1-.25-2.14-1.59a20.92,20.92,0,0,0-3.15-1.69,8.61,8.61,0,0,0-4.05-6.76c-4.14-2.48-8.52-.66-11.16,3l-.27.41c-.76-1.21-1.5-2.42-2.26-3.62a10.56,10.56,0,0,0-1.45-1.8,7.65,7.65,0,0,0-.16-1,8.06,8.06,0,0,0-9.85-5.72l-.63.15c.4,0-2.3-1.24-1.46-.57-.68-.55-1.35-1.06-2-1.55-.42-4.21-3.75-7.93-8.72-6a15.92,15.92,0,0,1-2.61.64c-.12,0-.22-.05-.18,0l-.06,0c-.2-.18-.11-.15-.66-1.2-1.08-2-1.25-6.69-1.15-9.87a43.88,43.88,0,0,1,1.8-11.06,10.6,10.6,0,0,1,1.38-2.76c.16-.25.27-.44.37-.6a3.6,3.6,0,0,0,1.91-4.2c-2.17-5.37-8.57-5.86-12.27-1.61-4.57,5.26-6.16,12.45-6.95,19.23-1.43,12.31,3.93,28,16.76,27a16.21,16.21,0,0,0,3.44,4.37,15.87,15.87,0,0,0,9.23,4.15c.08.28.14.58.23.85a23.63,23.63,0,0,0,6.58,10.85c5.82,5.12,12.44,4.24,17.38.26a25.86,25.86,0,0,0,6.16,5,13.36,13.36,0,0,0,11.31,1.2c1.5,4.53,5.71,8.56,9.86,10.36,6.35,2.75,12.14.62,16.16-3.76,6.68,5.39,16.09,6.09,23.74-.79a32.91,32.91,0,0,0,2.6-2.65c4.8,6.95,13.54,10.41,21.52,7.21a25.63,25.63,0,0,0,9.82-7.79,28.58,28.58,0,0,0,2.79,4.07c5.13,6.3,14.49,7.68,21.52,4.35a22.8,22.8,0,0,0,8.61-7.45,20,20,0,0,0,7.7,5c7,2.38,12.87,0,17.17-4.52,4.42,5.75,12.91,9.08,19.72,5.64,3.86-1.94,6.42-5.47,8.3-9.31a17.91,17.91,0,0,0,9.11.07,17.32,17.32,0,0,0,9.31-7.41,14.5,14.5,0,0,0,12.32-1.11,18.81,18.81,0,0,0,7.55-8.65,11,11,0,0,0,4.29-.44,12.83,12.83,0,0,0,2.17-.94c5.84,1.14,12.59-1.71,16.77-5.8,6-5.83,8.2-15.08,9.05-23.15A44.2,44.2,0,0,0,526.78,672.46Z" style="fill:#fcd310"/><path d="M440.64,66.56c-13.83,10.6-31.92,23.18-32.38,43-.09,3.8,5,6.19,7.54,3.2,11.42-13.31,15.94-31.28,24.9-46.12C440.72,66.59,440.67,66.53,440.64,66.56Z" style="fill:#3aaa61"/><path d="M317.82,60.55c2.06,17.55,3.67,39.86,20.21,50.18,3.17,2,7.73-1.32,6.48-5.08C338.94,88.88,326,75.88,317.91,60.53,317.89,60.49,317.82,60.5,317.82,60.55Z" style="fill:#3aaa61"/><path d="M251.33,166.34c15.89,7,35.59,16.68,52.59,7.19,3.26-1.81,2.75-7.5-1.07-8.28-17-3.45-34.45,1.52-51.49,1A.05.05,0,0,0,251.33,166.34Z" style="fill:#3aaa61"/><path d="M307.65,278.13c13.83-10.6,31.91-23.18,32.38-43,.09-3.8-5-6.19-7.54-3.2-11.41,13.31-15.93,31.28-24.9,46.11C307.57,278.11,307.61,278.16,307.65,278.13Z" style="fill:#3aaa61"/><path d="M430.46,284.14c-2.06-17.55-3.68-39.86-20.2-50.18-3.17-2-7.72,1.32-6.48,5.09,5.56,16.77,18.52,29.76,26.59,45.11A0,0,0,0,0,430.46,284.14Z" style="fill:#3aaa61"/><path d="M497,178.35c-15.88-6.95-35.58-16.67-52.58-7.19-3.26,1.81-2.75,7.5,1.07,8.28,17,3.45,34.45-1.53,51.49-1A0,0,0,0,0,497,178.35Z" style="fill:#3aaa61"/><path d="M416.3,112.07c0,32-18.88,57.89-42.16,57.89S332,144,332,112.07c0-17.63,5.74-33.43,14.8-44,7.36-8.64,16.92,9.19,27.36,9.19,10.68,0,20.42-17.59,27.85-8.6C410.77,79.22,416.3,94.76,416.3,112.07Z" style="fill:#fcd310"/><path d="M346.21,103.67c27.07,16,39.58,45.66,27.94,66.29s-43,24.38-70.09,8.39c-14.93-8.82-25.43-21.8-29.9-35.12-3.63-10.84,16.24-10.39,21.47-19.64,5.34-9.46-4.68-26.89,6.64-29C315.63,92.15,331.55,95,346.21,103.67Z" style="fill:#fcd310"/><path d="M304.06,161.56c27.07-16,58.44-12.22,70.09,8.4s-.87,50.29-27.94,66.28c-14.93,8.81-31.17,11.62-44.69,8.92-11-2.2-.67-19.58-5.89-28.83-5.34-9.46-25.11-9.3-21.21-20.37C279,182.89,289.4,170.22,304.06,161.56Z" style="fill:#fcd310"/><path d="M332,227.85c0-32,18.87-57.89,42.15-57.89s42.15,25.92,42.15,57.89c0,17.63-5.73,33.42-14.78,44-7.36,8.65-16.91-9.19-27.36-9.19-10.67,0-20.43,17.59-27.85,8.6C337.53,260.69,332,245.16,332,227.85Z" style="fill:#fcd310"/><path d="M402.09,236.24c-27.08-16-39.59-45.66-27.94-66.28s43-24.38,70.09-8.39c14.93,8.81,25.43,21.79,29.9,35.11,3.64,10.85-16.24,10.39-21.47,19.64-5.34,9.46,4.68,26.89-6.64,29C432.66,247.76,416.74,244.89,402.09,236.24Z" style="fill:#fcd310"/><path d="M444.24,178.35c-27.08,16-58.45,12.23-70.09-8.39s.88-50.3,27.94-66.28c14.93-8.82,31.16-11.63,44.68-8.93,11,2.2.68,19.58,5.9,28.84,5.34,9.45,25.11,9.3,21.21,20.37C469.28,157,458.89,169.69,444.24,178.35Z" style="fill:#fcd310"/><path d="M374.16,210.16c-21.66,0-39.29-18-39.29-40.19s17.62-40.19,39.29-40.19,39.29,18,39.29,40.19S395.82,210.16,374.16,210.16Z" style="fill:#fcd310"/><path d="M374.16,134.41c19.2,0,34.77,15.92,34.77,35.56s-15.57,35.56-34.77,35.56S339.4,189.6,339.4,170s15.57-35.56,34.76-35.56m0-9.25c-24.16,0-43.81,20.1-43.81,44.81s19.65,44.82,43.81,44.82S418,194.68,418,170s-19.65-44.81-43.81-44.81Z" style="fill:#3c3c3b"/><ellipse cx="374.16" cy="169.96" rx="16.22" ry="16.6" style="fill:#3c3c3b"/><path d="M362.14,111.15c-1.31-6.37-1.86-12.88-2.94-19.29a.29.29,0,0,0-.55,0c-1.79,11.09-3.2,30.74,6.34,38.81a1.8,1.8,0,0,0,3-1.77C366.84,122.82,363.42,117.36,362.14,111.15Z" style="fill:#3c3c3b"/><path d="M385.73,88.39a.35.35,0,0,0-.67,0c-1.28,5.74-1.09,11.72-1.43,17.57a60.81,60.81,0,0,1-5.68,22c-1.47,3.26,2.92,6,4.77,2.85C389.23,119.54,388.59,100.71,385.73,88.39Z" style="fill:#3c3c3b"/><path d="M318.36,151.19c-6-2-11.83-4.79-17.8-7a.29.29,0,0,0-.28.48c8.49,7.13,24.43,18.2,36,13.79a1.85,1.85,0,0,0,0-3.52C330.57,152.86,324.25,153.16,318.36,151.19Z" style="fill:#3c3c3b"/><path d="M310.88,118.91a.35.35,0,0,0-.33.59c4.22,4,9.37,6.83,14.16,10.06a59,59,0,0,1,15.78,16c2,2.93,6.58.43,4.8-2.79C339,131.39,322.73,122.54,310.88,118.91Z" style="fill:#3c3c3b"/><path d="M330.36,210c-4.74,4.35-10,8.09-14.86,12.25-.21.18,0,.58.28.49,10.28-4,27.62-12.54,29.69-25a1.8,1.8,0,0,0-3-1.75C337.89,200,335,205.76,330.36,210Z" style="fill:#3c3c3b"/><path d="M299.29,200.48a.36.36,0,0,0,.33.59c5.51-1.73,10.47-4.88,15.6-7.52a57.33,57.33,0,0,1,21.46-6c3.49-.32,3.66-5.61,0-5.65C323.91,181.81,308.29,191.79,299.29,200.48Z" style="fill:#3c3c3b"/><path d="M386.15,228.76c1.31,6.37,1.87,12.88,2.95,19.29a.28.28,0,0,0,.54,0c1.8-11.09,3.2-30.74-6.33-38.81a1.79,1.79,0,0,0-3,1.77C381.45,217.1,384.87,222.55,386.15,228.76Z" style="fill:#3c3c3b"/><path d="M362.55,251.53a.35.35,0,0,0,.67,0c1.29-5.74,1.1-11.71,1.44-17.57a60.6,60.6,0,0,1,5.68-22c1.47-3.25-2.92-6-4.77-2.86C359.06,220.38,359.69,239.21,362.55,251.53Z" style="fill:#3c3c3b"/><path d="M429.94,188.73c6.06,2,11.84,4.79,17.8,7a.29.29,0,0,0,.27-.49c-8.49-7.12-24.43-18.2-36-13.8a1.85,1.85,0,0,0,0,3.52C417.71,187.06,424,186.76,429.94,188.73Z" style="fill:#3c3c3b"/><path d="M437.42,221a.35.35,0,0,0,.33-.59c-4.22-4-9.37-6.83-14.16-10.06a59.09,59.09,0,0,1-15.79-16c-2-2.92-6.58-.44-4.8,2.79C409.29,208.53,425.55,217.39,437.42,221Z" style="fill:#3c3c3b"/><path d="M417.93,129.92c4.74-4.35,10-8.09,14.86-12.25a.29.29,0,0,0-.29-.48c-10.27,4-27.62,12.53-29.69,25a1.8,1.8,0,0,0,3,1.74C410.4,139.92,413.31,134.16,417.93,129.92Z" style="fill:#3c3c3b"/><path d="M449,139.44a.36.36,0,0,0-.33-.6c-5.51,1.74-10.47,4.89-15.6,7.52a57.13,57.13,0,0,1-21.47,6c-3.48.33-3.65,5.61,0,5.64C424.38,158.1,440,148.13,449,139.44Z" style="fill:#3c3c3b"/><path d="M225.3,301.68c-8.82,0-8.82,14,0,14S234.11,301.68,225.3,301.68Z" style="fill:#3aaa61"/><path d="M197.31,309.45a8.51,8.51,0,0,0-6.06,2.57c-1.94,2-3.34,5.75-2.2,8.52a9.74,9.74,0,0,0,2.19,3.88,8.67,8.67,0,1,0,6.07-15Z" style="fill:#3aaa61"/><path d="M170.87,321.9a9,9,0,1,0,8.84,9A9,9,0,0,0,170.87,321.9Z" style="fill:#3aaa61"/><path d="M146.77,344.87c-11.52,0-11.52,18.26,0,18.26S158.29,344.87,146.77,344.87Z" style="fill:#3aaa61"/><path d="M140.55,376.85c-6.29,0-6.29,10,0,10S146.84,376.85,140.55,376.85Z" style="fill:#3aaa61"/><path d="M140.55,403.32c-6,0-6,9.5,0,9.5S146.55,403.32,140.55,403.32Z" style="fill:#3aaa61"/><path d="M142.89,430.12c-5.29,0-5.29,8.39,0,8.39S148.17,430.12,142.89,430.12Z" style="fill:#3aaa61"/><path d="M158.13,462.15a7.9,7.9,0,0,0-7.47-7.55,7.55,7.55,0,0,0,0,15.1,7.9,7.9,0,0,0,7.47-7.55Z" style="fill:#3aaa61"/><path d="M168.54,477c-10.4,0-10.4,16.5,0,16.5S178.94,477,168.54,477Z" style="fill:#3aaa61"/><path d="M195,491.94c-10.58,0-10.58,16.78,0,16.78S205.55,491.94,195,491.94Z" style="fill:#3aaa61"/><path d="M236.8,497.21a9,9,0,0,0-5.34-4.2,8.11,8.11,0,0,0-5,.14l.12-.07a1,1,0,0,1-.32.09c-3.82.81-6.51,4.91-6.51,8.74a9.21,9.21,0,0,0,2.6,6.41,9.32,9.32,0,0,0,6.27,2.66,5.85,5.85,0,0,0,2.8-.36c2.26-1,4-1.94,5.34-4.2A9.4,9.4,0,0,0,236.8,497.21Z" style="fill:#3aaa61"/><path d="M267.29,486.28c-10.7,0-10.7,17,0,17S278,486.28,267.29,486.28Z" style="fill:#3aaa61"/><path d="M296,475.22c-5.58,0-5.58,8.85,0,8.85S301.63,475.22,296,475.22Z" style="fill:#3aaa61"/><path d="M315.49,458.75c-5.29,0-5.29,8.39,0,8.39S320.77,458.75,315.49,458.75Z" style="fill:#3aaa61"/><path d="M328.7,435c-6.17,0-6.17,9.78,0,9.78S334.88,435,328.7,435Z" style="fill:#3aaa61"/><path d="M338.81,410.52c-4.93,0-4.93,7.83,0,7.83S343.75,410.52,338.81,410.52Z" style="fill:#3aaa61"/><path d="M344.26,386.11a5.27,5.27,0,1,0,5.15,5.27A5.26,5.26,0,0,0,344.26,386.11Z" style="fill:#3aaa61"/><path d="M341.92,347.16c-10.64,0-10.64,16.87,0,16.87S352.56,347.16,341.92,347.16Z" style="fill:#3aaa61"/><path d="M322.49,318.38c-9.81,0-9.81,15.56,0,15.56S332.3,318.38,322.49,318.38Z" style="fill:#3aaa61"/><path d="M289.83,300.56c-10.22,0-10.22,16.22,0,16.22S300.05,300.56,289.83,300.56Z" style="fill:#3aaa61"/><path d="M258,297.94c-9.52,0-9.52,15.1,0,15.1S267.47,297.94,258,297.94Z" style="fill:#3aaa61"/><path d="M520,301.68c8.82,0,8.82,14,0,14S511.19,301.68,520,301.68Z" style="fill:#3aaa61"/><path d="M548,309.45A8.51,8.51,0,0,1,554,312c1.94,2,3.34,5.75,2.2,8.52a9.75,9.75,0,0,1-2.19,3.88,8.67,8.67,0,1,1-6.07-15Z" style="fill:#3aaa61"/><path d="M574.42,321.9a9,9,0,1,1-8.84,9A9,9,0,0,1,574.42,321.9Z" style="fill:#3aaa61"/><path d="M598.53,344.87c11.52,0,11.52,18.26,0,18.26S587,344.87,598.53,344.87Z" style="fill:#3aaa61"/><path d="M604.75,376.85c6.29,0,6.29,10,0,10S598.46,376.85,604.75,376.85Z" style="fill:#3aaa61"/><path d="M604.75,403.32c6,0,6,9.5,0,9.5S598.75,403.32,604.75,403.32Z" style="fill:#3aaa61"/><path d="M602.41,430.12c5.29,0,5.29,8.39,0,8.39S597.12,430.12,602.41,430.12Z" style="fill:#3aaa61"/><path d="M587.17,462.15a7.89,7.89,0,0,1,7.47-7.55,7.55,7.55,0,0,1,0,15.1,7.89,7.89,0,0,1-7.47-7.55Z" style="fill:#3aaa61"/><path d="M576.76,477c10.4,0,10.4,16.5,0,16.5S566.36,477,576.76,477Z" style="fill:#3aaa61"/><path d="M550.32,491.94c10.58,0,10.58,16.78,0,16.78S539.75,491.94,550.32,491.94Z" style="fill:#3aaa61"/><path d="M508.5,497.21a9,9,0,0,1,5.34-4.2,8.11,8.11,0,0,1,5,.14l-.12-.07a1,1,0,0,0,.31.09c3.83.81,6.51,4.91,6.51,8.74a9.22,9.22,0,0,1-2.6,6.41,9.32,9.32,0,0,1-6.27,2.66,5.83,5.83,0,0,1-2.79-.36c-2.26-1-4-1.94-5.34-4.2A9.38,9.38,0,0,1,508.5,497.21Z" style="fill:#3aaa61"/><path d="M478,486.28c10.7,0,10.7,17,0,17S467.32,486.28,478,486.28Z" style="fill:#3aaa61"/><path d="M449.25,475.22c5.58,0,5.58,8.85,0,8.85S443.67,475.22,449.25,475.22Z" style="fill:#3aaa61"/><path d="M429.81,458.75c5.29,0,5.29,8.39,0,8.39S424.52,458.75,429.81,458.75Z" style="fill:#3aaa61"/><path d="M416.6,435c6.17,0,6.17,9.78,0,9.78S410.42,435,416.6,435Z" style="fill:#3aaa61"/><path d="M406.49,410.52c4.93,0,4.93,7.83,0,7.83S401.55,410.52,406.49,410.52Z" style="fill:#3aaa61"/><path d="M401,386.11a5.27,5.27,0,1,1-5.15,5.27A5.26,5.26,0,0,1,401,386.11Z" style="fill:#3aaa61"/><path d="M403.38,347.16c10.64,0,10.64,16.87,0,16.87S392.74,347.16,403.38,347.16Z" style="fill:#3aaa61"/><path d="M422.82,318.38c9.81,0,9.81,15.56,0,15.56S413,318.38,422.82,318.38Z" style="fill:#3aaa61"/><path d="M455.47,300.56c10.22,0,10.22,16.22,0,16.22S445.25,300.56,455.47,300.56Z" style="fill:#3aaa61"/><path d="M487.35,297.94c9.52,0,9.52,15.1,0,15.1S477.83,297.94,487.35,297.94Z" style="fill:#3aaa61"/><path d="M381.37,290.08c-3.13-6.34-13.15-6.25-16.3,0-4.56,9-1.66,19.81-.78,29.61,1.1,12.16,5.24,22.76,8.56,34.42.1.35.67.4.74,0,1.79-10.56,5.91-19.93,7.3-30.52S386.32,300.1,381.37,290.08Z" style="fill:#fcd310"/><path d="M348.08,312.53c0-2.1-.81-4.55-1.17-6.64a19.09,19.09,0,0,0-6-10.62c-3.72-3-10.33.91-7.14,5.64a59.68,59.68,0,0,0,6.8,8.75c2.79,2.77,6.12,5.82,8.08,9.18a.06.06,0,0,0,.12-.05A18.78,18.78,0,0,1,348.08,312.53Z" style="fill:#fcd310"/><path d="M376.46,366.19c-2.74-2.8-7.14.06-6.29,3.74l.1.41a3.06,3.06,0,0,0,2.14,2.19l.4.1A3.87,3.87,0,0,0,376.46,366.19Z" style="fill:#fcd310"/><path d="M373.8,384c-6.58,0-6.58,10.44,0,10.44S380.37,384,373.8,384Z" style="fill:#fcd310"/><path d="M374.38,403.55c-9,0-9,14.22,0,14.22S383.35,403.55,374.38,403.55Z" style="fill:#fcd310"/><path d="M399,312.53c0-2.1.81-4.55,1.17-6.64a19.1,19.1,0,0,1,6-10.62c3.72-3,10.33.91,7.14,5.64a59.17,59.17,0,0,1-6.79,8.75c-2.79,2.77-6.12,5.82-8.08,9.18a.07.07,0,0,1-.12-.05A18.78,18.78,0,0,0,399,312.53Z" style="fill:#fcd310"/><path d="M252.44,653.7s-1.07-12-7.3-14.26-9.57,3.2-9.11,15.59,1.82,21,12.77,22.3S252.44,653.7,252.44,653.7Z" style="fill:#f9efe1"/><path d="M374.14,669.75s.39,7.93-6.38,7.93H340.41s-7.75,0-5.47-13.06,8.16-33.56,19.58-33.56C374.53,631,374.14,669.75,374.14,669.75Z" style="fill:#f9efe1"/><path d="M310.64,654.36s1.06-14.46-9-23.31-13.22,7.46-13.22,14-1.36,28.91,2.73,32.64S310,677.67,310.64,654.36Z" style="fill:#f9efe1"/><path d="M336.51,657.1s3.9-23.72-4.31-29.31S304.86,657.16,308,673.48C308,673.48,334,689.2,336.51,657.1Z" style="fill:#f9efe1"/><path d="M288.23,653.7l-6.62-14.26s-6.84-7.93-7.75,1.86a210.54,210.54,0,0,1-4.11,23.3s-2.73,8.87,5.47,8.87S289.38,676.81,288.23,653.7Z" style="fill:#f9efe1"/><path d="M271.78,655s-3.39-8.59-8.86-13.26-10-1.79-10.48,11.92.57,21.26,9.67,19.95S270.65,661.45,271.78,655Z" style="fill:#f9efe1"/><path d="M376.19,669.77c0-1,.13-25.2-10.15-35.83a15.53,15.53,0,0,0-11.52-5c-6.8,0-11.67,5.89-15.08,13.15-.32-6.46-1.79-13.13-6.09-16.06a5.4,5.4,0,0,0-3.09-1c-3,0-6.43,2.34-10.13,7a68.27,68.27,0,0,0-8.18,13.6A29.11,29.11,0,0,0,303,629.46c-2.32-2.05-4.56-3.09-6.68-3.09-8,0-9.88,13.52-9.92,18.49l-3.06-6.59-.19-.22c-.54-.62-3.38-3.74-6.36-3.74-1.62,0-4.42.89-5,6.8-.21,2.32-.57,4.88-1,7.41a32.74,32.74,0,0,0-6.61-8.36,9.1,9.1,0,0,0-5.77-2.56c-2.31,0-4.95,1.27-6.57,6.1-1.3-2.72-3.21-5.2-6.06-6.24-3.29-1.18-6.24-.61-8.3,1.59-2.64,2.8-3.83,8.21-3.55,16.06.46,12.42,1.87,22.82,14.58,24.3a8.11,8.11,0,0,0,1,.06,6.27,6.27,0,0,0,5.28-2.63,8.3,8.3,0,0,0,1-2,9.28,9.28,0,0,0,4.33,1,15.48,15.48,0,0,0,2.19-.17,10.45,10.45,0,0,0,6.26-3.08l0,0c1,1.33,2.86,2.91,6.56,2.91.92,0,1.81,0,2.67.09s1.67.08,2.45.08c2.23,0,4.79-.29,6.77-2.42l.06-.08c.57,2.86,1.41,4.89,2.64,6A7.64,7.64,0,0,0,295,681h0c3.1,0,7.68-1.57,11.4-6.1l.58.35c.28.17,6.92,4.14,14.12,4.14a14.82,14.82,0,0,0,12.08-5.57,9.64,9.64,0,0,0,1.61,3,7.61,7.61,0,0,0,5.6,2.87h27.35a7.79,7.79,0,0,0,5.88-2.4C376.35,674.47,376.22,670.12,376.19,669.77Zm-126.61,5.51a4.87,4.87,0,0,1-.55,0c-8.76-1-10.46-7.09-10.95-20.29-.32-8.74,1.37-11.89,2.4-13a2.71,2.71,0,0,1,2.1-.92,5.65,5.65,0,0,1,1.88.37c4,1.46,5.63,9.33,5.92,12.37-.27,8.35,0,14.18,2.17,17.86a6.48,6.48,0,0,1-1,2.68A2.23,2.23,0,0,1,249.58,675.28Zm12.24-3.71a11.86,11.86,0,0,1-1.62.13,4.33,4.33,0,0,1-3.43-1.21c.5-6.64-1.67-14.91-2.27-17,.34-8.59,2.33-11.67,4-11.67a5.54,5.54,0,0,1,3.15,1.59c4.24,3.61,7.21,10,8,11.87-.91,4.66-1.75,8.29-1.87,8.8a14,14,0,0,0-.51,3.39A6.66,6.66,0,0,1,261.82,671.57Zm22.33-1.14c-.75.8-1.81,1.12-3.8,1.12-.72,0-1.47,0-2.25-.07s-1.88-.09-2.87-.09c-1.58,0-2.67-.39-3.23-1.18a3.86,3.86,0,0,1-.61-2,37.91,37.91,0,0,0,1.94-9.32c.15-1.25.29-2.44.47-3.47.83-4.34,1.69-9.46,2.1-13.9.23-2.52.84-3,.89-3,.7,0,2.14,1.08,3.1,2.12l6.31,13.59c0,.15,0,.28,0,.43,0,2.7,0,5.19,0,7.47C286,666.39,285.33,669.15,284.15,670.43Zm10.87,6.4a3.83,3.83,0,0,1-2.47-.72c-1.54-1.41-2.07-7.68-2.21-14.06.1-2.13.09-4.57,0-7.35,0-2.07.07-3.92.1-5.28,0-1.79.08-3.29.08-4.38,0-5.9,2.27-14.46,5.83-14.46,1.09,0,2.47.71,4,2.07,8.38,7.39,8.35,19.3,8.28,21.34a53,53,0,0,0-2.91,14.24C302.82,674.34,298.37,676.83,295,676.83Zm26.1-1.6c-4.74,0-9.39-2.16-11.22-3.11a21.19,21.19,0,0,1-.14-2.72,39.48,39.48,0,0,0,2.92-14.68,70.72,70.72,0,0,1,10.62-20c4-5,6.34-5.41,7-5.41a1.36,1.36,0,0,1,.81.25c5.15,3.51,4.84,18.46,3.44,27.13-.7,2.87-1.22,5.5-1.58,7.58-.12.71-.22,1.4-.29,2.07C330.48,672.23,326.63,675.23,321.12,675.23Zm49.55-.75a3.76,3.76,0,0,1-2.91,1.1H340.41a3.67,3.67,0,0,1-2.46-1.37c-1.16-1.42-1.58-3.84-1.28-7.06a41.31,41.31,0,0,0,1.86-9.66c3.14-12.8,8.57-24.34,16-24.34a11.47,11.47,0,0,1,8.6,3.74c9.08,9.37,9,32.6,9,33A7.32,7.32,0,0,1,370.67,674.48Z" style="fill:#3c3c3b"/><path d="M495.91,653.7s1.07-12,7.29-14.26,9.57,3.2,9.11,15.59-1.82,21-12.76,22.3S495.91,653.7,495.91,653.7Z" style="fill:#f9efe1"/><path d="M374.2,669.75s-.38,7.93,6.38,7.93h27.35s7.75,0,5.47-13.06-8.16-33.56-19.59-33.56C373.82,631,374.2,669.75,374.2,669.75Z" style="fill:#f9efe1"/><path d="M437.7,654.36s-1.05-14.46,9-23.31,13.22,7.46,13.22,14,1.37,28.91-2.73,32.64S438.3,677.67,437.7,654.36Z" style="fill:#f9efe1"/><path d="M411.83,657.1s-3.9-23.72,4.31-29.31,27.35,29.37,24.16,45.69C440.3,673.48,414.36,689.2,411.83,657.1Z" style="fill:#f9efe1"/><path d="M460.12,653.7l6.62-14.26s6.84-7.93,7.75,1.86a210.54,210.54,0,0,0,4.11,23.3s2.73,8.87-5.47,8.87S459,676.81,460.12,653.7Z" style="fill:#f9efe1"/><path d="M476.57,655s3.39-8.59,8.85-13.26,10-1.79,10.49,11.92-.58,21.26-9.67,19.95S477.7,661.45,476.57,655Z" style="fill:#f9efe1"/><path d="M510.82,639.05c-2.06-2.19-5-2.77-8.3-1.59-2.85,1-4.76,3.52-6.06,6.24-1.63-4.83-4.27-6.1-6.58-6.1a9.12,9.12,0,0,0-5.78,2.56,32.68,32.68,0,0,0-6.61,8.36c-.4-2.53-.76-5.08-1-7.41-.56-5.91-3.35-6.8-5-6.8-3,0-5.82,3.12-6.36,3.74l-.19.22-3.06,6.59c0-5-1.9-18.49-9.92-18.49-2.12,0-4.36,1-6.68,3.08a29.16,29.16,0,0,0-8.93,16.16A68,68,0,0,0,428.22,632c-3.69-4.61-7.1-7-10.13-7a5.4,5.4,0,0,0-3.09,1c-4.3,2.94-5.77,9.61-6.09,16.07-3.42-7.26-8.28-13.16-15.09-13.16a15.57,15.57,0,0,0-11.52,5c-10.28,10.62-10.16,34.8-10.14,35.7,0,.48-.15,4.82,2.55,7.73a7.8,7.8,0,0,0,5.88,2.4h27.36a7.59,7.59,0,0,0,5.59-2.87,9.54,9.54,0,0,0,1.62-3,14.82,14.82,0,0,0,12.08,5.57c7.2,0,13.84-4,14.12-4.14l.59-.36c3.73,4.53,8.3,6.1,11.39,6.1a7.64,7.64,0,0,0,5.2-1.78c1.23-1.12,2.07-3.14,2.64-6l.06.08c2,2.14,4.54,2.42,6.77,2.42.77,0,1.6,0,2.45-.08s1.75-.09,2.67-.09c3.69,0,5.6-1.58,6.55-2.89l0,0a10.46,10.46,0,0,0,6.26,3.08,15.56,15.56,0,0,0,2.2.17,9.28,9.28,0,0,0,4.33-1,8.51,8.51,0,0,0,1,2,6.28,6.28,0,0,0,5.29,2.63,8.19,8.19,0,0,0,1-.06c12.71-1.48,14.12-11.88,14.58-24.3C514.66,647.26,513.47,641.85,510.82,639.05Zm-100.39,35.1a3.65,3.65,0,0,1-2.53,1.42H380.59a3.76,3.76,0,0,1-2.9-1.08c-1.27-1.35-1.46-3.82-1.43-4.76,0-.23-.12-23.46,9-32.84a11.48,11.48,0,0,1,8.61-3.74c7.41,0,12.84,11.56,16,24.35a41.55,41.55,0,0,0,1.82,9.53C411.95,670.25,411.57,672.71,410.44,674.15Zm28-2c-1.82,1-6.45,3.11-11.21,3.11-5.51,0-9.36-3-11.51-8.93-.07-.66-.17-1.35-.29-2.06-.36-2.08-.88-4.7-1.58-7.56-1.41-8.67-1.72-23.63,3.44-27.14a1.36,1.36,0,0,1,.81-.25c.62,0,2.93.39,7,5.41a70.77,70.77,0,0,1,10.62,20,39.76,39.76,0,0,0,2.92,14.64A20.45,20.45,0,0,1,438.44,672.12Zm17.36,4a3.83,3.83,0,0,1-2.47.72c-3.35,0-7.8-2.49-10.68-8.64A53.09,53.09,0,0,0,439.74,654c-.06-1.79-.17-13.87,8.28-21.33,1.53-1.35,2.91-2.07,4-2.07,3.56,0,5.83,8.56,5.83,14.46,0,1.08,0,2.59.08,4.38,0,1.36.08,3.2.11,5.27-.12,2.79-.13,5.23,0,7.37C457.87,668.42,457.35,674.7,455.8,676.1Zm17.31-4.73c-1,0-1.95,0-2.87.09s-1.53.07-2.25.07c-2,0-3-.31-3.8-1.12-1.18-1.27-1.87-4-2.08-8.31.05-2.27.05-4.74,0-7.42,0-.16,0-.31,0-.48l6.31-13.6c.88-.94,2.37-2.11,3.13-2.11,0,0,.62.47.85,3,.41,4.42,1.27,9.53,2.1,13.86v0c.19,1,.32,2.21.47,3.47a38.27,38.27,0,0,0,1.94,9.32,3.85,3.85,0,0,1-.59,2C475.79,671,474.71,671.38,473.12,671.38Zm15,.31a11.86,11.86,0,0,1-1.62-.13,6.68,6.68,0,0,1-5.45-4.12,13.63,13.63,0,0,0-.51-3.39c-.12-.51-1-4.14-1.87-8.8.83-1.9,3.8-8.26,8-11.87a5.56,5.56,0,0,1,3.15-1.59c1.63,0,3.62,3.08,4,11.67-.6,2.1-2.77,10.38-2.27,17A4.3,4.3,0,0,1,488.15,671.69Zm22.12-16.74c-.48,13.21-2.18,19.27-10.94,20.29a2.48,2.48,0,0,1-2.55-.91,6.45,6.45,0,0,1-1-2.69c2.12-3.67,2.43-9.51,2.16-17.85.27-2.85,1.89-10.92,5.92-12.37a5.66,5.66,0,0,1,1.88-.37,2.74,2.74,0,0,1,2.11.92C508.91,643.06,510.59,646.2,510.27,654.95Z" style="fill:#3c3c3b"/><path d="M248.25,680.21s-12.76-8.14-16.37-2.54-3.36,30,4.6,29S248.25,680.21,248.25,680.21Z" style="fill:#f9efe1"/><path d="M281.76,685.6s-4.26-4-12.46-2.91-8.2,10.37-8.2,10.37-4.07,29.37,4.12,31.7,10.32-11.7,10.32-11.7Z" style="fill:#f9efe1"/><path d="M359.1,736s-15.5-9.33-14.59-40.56c0,0-2.28-9.79,14.59-9.79s15,7.46,15,7.46S373.69,737.35,359.1,736Z" style="fill:#f9efe1"/><path d="M344.76,692.05s2-6-11.42-6.46-16.17-1.07-17.54,6.46-4.11,42,8.66,48.09S345.46,706.44,344.76,692.05Z" style="fill:#f9efe1"/><path d="M315.05,698.12s-2.91-10.22-6.09-12.77-12.64-7.21-13.61,8.64,1,46,8.24,46.78S316.13,723.22,315.05,698.12Z" style="fill:#f9efe1"/><path d="M295.35,694s-2.5-13-11.08-10.22S272,721,279.79,728s16.28-6.6,16-11.19S295.35,694,295.35,694Z" style="fill:#f9efe1"/><path d="M263.73,685.6s-.81-5.08-9.93-6.67-10,11.8-10,11.8-2.9,19.61,6.94,22.34S260,694.93,263.73,685.6Z" style="fill:#f9efe1"/><path d="M374.83,688.36c-2.46-3.22-7.76-4.86-15.73-4.86-6.28,0-10.87,1.31-13.69,3.89-2-2.37-6.07-3.69-12-3.89l-2.39-.09c-2.33-.08-4.34-.16-6-.16-6,0-9.24,1-10.77,6.5-1.11-2.47-2.48-4.85-4-6.07-.91-.73-4.18-3.11-7.88-3.11-2.26,0-5.7.95-7.64,6.05-1.67-2.79-4.24-5.35-8.12-5.35a9.48,9.48,0,0,0-2.92.48,6.73,6.73,0,0,0-2.08,1.15,18.2,18.2,0,0,0-9.56-2.51,22.54,22.54,0,0,0-3,.2,10.89,10.89,0,0,0-4.68,1.69c-1.45-2-4.37-4.42-10.22-5.44a11,11,0,0,0-1.81-.16,8.5,8.5,0,0,0-4.17,1c-2.33-1.34-7.71-4.13-12.08-4.13a6.56,6.56,0,0,0-5.91,2.91c-3.2,5-3.71,20.93.09,28.15,1.8,3.42,4.14,4.14,5.78,4.14h0a6.05,6.05,0,0,0,.68,0c2.1-.25,3.9-1.68,5.46-3.74,1.06,4.57,3.32,8.76,8,10.06a8.43,8.43,0,0,0,2.21.31,6.93,6.93,0,0,0,5.77-3.07c.47,6.9,2.12,13.21,6.51,14.46a8.47,8.47,0,0,0,2.33.34c3.54,0,6-2.35,7.58-5.11.8,3.28,2.06,6,3.85,7.59a8.78,8.78,0,0,0,6,2.48h0c2.87,0,5.76-1.52,8.38-4.4a22.79,22.79,0,0,0,1.87-2.4c1.72,11.37,4.58,17.13,8.71,17.58a6.43,6.43,0,0,0,.65,0h0a7.15,7.15,0,0,0,5.26-2.56c2.22-2.37,4-6.43,5.37-11.68,1.63,6.17,4.41,11.25,8.93,13.4a8.09,8.09,0,0,0,3.47.82h0c2.42,0,4.75-1.17,6.9-3.49,4.65-5,8.11-14.91,10.27-24.76,4,17,13.31,22.83,13.82,23.14l.4.24.45,0a7.55,7.55,0,0,0,.86,0c15.34,0,16.35-39.47,16.42-44.82A6.55,6.55,0,0,0,374.83,688.36ZM236.25,704.6H236c-.76,0-1.49-.65-2.17-1.94-3.17-6-2.51-20.38-.28-23.85.28-.44.85-1,2.49-1,2.68,0,6.34,1.6,8.85,2.92-2.63,3.78-3.14,9-3.2,9.77a49.37,49.37,0,0,0-.39,7.7C239.8,701.82,238,704.39,236.25,704.6Zm16.14,6.6a4.4,4.4,0,0,1-1.14-.17c-4.13-1.15-5.51-6.76-5.79-12a85.12,85.12,0,0,0,4.66-17.55,4.41,4.41,0,0,1,2.21-.59,6.28,6.28,0,0,1,1.12.1c5.47,1,7.34,3.16,8,4.27A14.72,14.72,0,0,0,259,692.9c-.18,1.33-.49,3.85-.73,6.93C257.1,705.75,255.5,711.21,252.39,711.21ZM267,722.93a4.55,4.55,0,0,1-1.23-.18c-2.64-.75-4.39-9.21-3.4-22.2.26-1.26.5-2.53.74-3.81a65.05,65.05,0,0,1,2.4-10,6.52,6.52,0,0,1,4.05-2,19.4,19.4,0,0,1,2.46-.16,14.35,14.35,0,0,1,6.82,1.56,37.48,37.48,0,0,0-3.93,11.08,70.62,70.62,0,0,0-1.42,15.58C273.05,715.56,271,722.93,267,722.93Zm22.79,1.9c-1.8,2-3.71,3.07-5.38,3.07a4.83,4.83,0,0,1-3.27-1.44c-2.08-1.89-3.31-7.05-3.52-13.34l6-26.47a3.41,3.41,0,0,1,1.26-.87,5.61,5.61,0,0,1,1.69-.29c4.45,0,6.39,7.34,6.71,8.69a167,167,0,0,0,.4,22.72.55.55,0,0,0,0,.09C293.79,718.36,292.35,722,289.78,724.83Zm16.54,12.6a3.29,3.29,0,0,1-2.29,1.27h-.22c-2.42-.26-4.89-9.47-6-21.71,0-.1,0-.21,0-.3-.32-4.36-.39-21.68-.39-22.61.27-4.25,1.34-9.28,4.94-9.28A9.68,9.68,0,0,1,307.7,687c1.78,1.43,4.12,7.37,5.29,11.35a123.45,123.45,0,0,0-.29,16.68C311.67,726.73,309,734.54,306.32,737.43Zm24.68-.94c-1.35,1.45-2.67,2.18-3.93,2.18h0a4,4,0,0,1-1.74-.43c-5.74-2.72-7.93-13-8.51-23.25a136.72,136.72,0,0,0,.29-16.83c.21-2.4.46-4.39.71-5.73.77-4.24,1.36-5,7.17-5,1.62,0,3.59.07,5.88.16l2.39.09c6.74.23,8.69,1.9,9.21,2.6a1.53,1.53,0,0,1,.34,1.07l-.13.38v.09a9.07,9.07,0,0,0-.24,3.72c0,1.29,0,2.49,0,3.72C341.4,711.45,337.2,729.82,331,736.49Zm41.16-43.94-.06.49a151.39,151.39,0,0,1-1.93,21.12c-2.19,12.72-5.88,19.73-10.39,19.73a26.55,26.55,0,0,1-6.71-7.86c-2.92-4.94-6.23-13.46-6.48-26.56a61.5,61.5,0,0,0,.24-7.07,4.79,4.79,0,0,1,.71-1.23c1.26-1.58,4.29-3.47,11.57-3.47,8.55,0,11.44,2,12.41,3.14A2.41,2.41,0,0,1,372.15,692.55Z" style="fill:#3c3c3b"/><path d="M500.1,680.21s12.76-8.14,16.37-2.54,3.36,30-4.6,29S500.1,680.21,500.1,680.21Z" style="fill:#f9efe1"/><path d="M466.59,685.6s4.26-4,12.46-2.91,8.21,10.37,8.21,10.37,4.07,29.37-4.12,31.7-10.32-11.7-10.32-11.7Z" style="fill:#f9efe1"/><path d="M389.25,736s15.5-9.33,14.58-40.56c0,0,2.28-9.79-14.58-9.79s-15,7.46-15,7.46S374.66,737.35,389.25,736Z" style="fill:#f9efe1"/><path d="M403.59,692.05s-2-6,11.43-6.46,16.17-1.07,17.54,6.46,4.1,42-8.67,48.09S402.89,706.44,403.59,692.05Z" style="fill:#f9efe1"/><path d="M433.3,698.12s2.9-10.22,6.09-12.77S452,678.14,453,694s-1.06,46-8.25,46.78S432.22,723.22,433.3,698.12Z" style="fill:#f9efe1"/><path d="M453,694s2.5-13,11.08-10.22S476.31,721,468.56,728s-16.29-6.6-16-11.19S453,694,453,694Z" style="fill:#f9efe1"/><path d="M484.62,685.6s.81-5.08,9.92-6.67,10,11.8,10,11.8,2.9,19.61-6.94,22.34S488.37,694.93,484.62,685.6Z" style="fill:#f9efe1"/><path d="M518.17,676.52a6.55,6.55,0,0,0-5.91-2.91c-4.37,0-9.76,2.8-12.08,4.13a8.5,8.5,0,0,0-4.18-1,11,11,0,0,0-1.81.16c-5.85,1-8.77,3.46-10.22,5.44a10.89,10.89,0,0,0-4.68-1.69,22.54,22.54,0,0,0-3-.2,18.2,18.2,0,0,0-9.56,2.51,6.67,6.67,0,0,0-2.08-1.15,9.52,9.52,0,0,0-2.92-.48c-3.88,0-6.45,2.56-8.12,5.35-1.94-5.11-5.39-6.05-7.64-6.05-3.71,0-7,2.38-7.89,3.11-1.51,1.21-2.88,3.59-4,6.06-1.52-5.5-4.72-6.5-10.77-6.5-1.69,0-3.7.08-6,.16l-2.39.09c-5.94.21-10,1.52-12,3.89-2.82-2.59-7.41-3.89-13.69-3.89-8,0-13.27,1.63-15.73,4.86a6.56,6.56,0,0,0-1.36,4.9c.07,5.35,1.09,44.82,16.42,44.82a7.6,7.6,0,0,0,.86,0l.45,0,.39-.24c.51-.31,9.83-6.18,13.83-23.14,2.16,9.85,5.61,19.77,10.27,24.76,2.15,2.31,4.48,3.49,6.9,3.49a8.07,8.07,0,0,0,3.47-.82c4.53-2.15,7.3-7.23,8.94-13.4,1.34,5.25,3.15,9.31,5.37,11.67a7.15,7.15,0,0,0,5.26,2.57,6.43,6.43,0,0,0,.65,0c4.71-.51,7.34-8.24,8.75-17.54a21.93,21.93,0,0,0,1.84,2.35c2.61,2.88,5.52,4.41,8.38,4.41a8.8,8.8,0,0,0,6-2.48c1.79-1.62,3-4.31,3.85-7.6,1.62,2.76,4,5.12,7.58,5.12a8.5,8.5,0,0,0,2.33-.34c4.4-1.25,6.05-7.59,6.51-14.53A6.93,6.93,0,0,0,496,715.4a8.4,8.4,0,0,0,2.21-.31c4.67-1.3,6.94-5.49,8-10.06,1.56,2.06,3.36,3.49,5.46,3.74a6.1,6.1,0,0,0,.68,0c1.64,0,4-.72,5.78-4.14C521.89,697.45,521.37,681.48,518.17,676.52Zm-129.6,57.37c-8.66,0-12.15-25.06-12.32-40.85v-.18l-.06-.24a2.34,2.34,0,0,1,.62-1.78c1-1.18,3.87-3.14,12.42-3.14,7.28,0,10.31,1.89,11.57,3.48a4.84,4.84,0,0,1,.71,1.22,63.36,63.36,0,0,0,.26,7.33C401.28,723.27,390.7,732.31,388.57,733.89ZM423,738.24c-1.95.93-3.72.35-5.68-1.76-6.2-6.67-10.41-25-11.48-37.2,0-1.22.05-2.42,0-3.72a9.06,9.06,0,0,0-.22-3.66v-.07l-.13-.38a1.44,1.44,0,0,1,.32-1.15c.52-.7,2.47-2.37,9.21-2.6l2.4-.09c2.29-.08,4.26-.16,5.88-.16,5.81,0,6.4.75,7.17,5,.24,1.35.5,3.34.71,5.75a135.78,135.78,0,0,0,.28,16.81C431,725.29,428.76,735.52,423,738.24Zm21.52.44a3.11,3.11,0,0,1-2.52-1.26c-2.71-2.89-5.34-10.7-6.37-22.38a123.09,123.09,0,0,0-.29-16.7c1.17-4,3.5-9.92,5.29-11.35a9.68,9.68,0,0,1,5.36-2.22c3.59,0,4.67,5,4.94,9.28,0,.94-.07,18.26-.39,22.61,0,.09,0,.2,0,.3C449.43,729.21,447,738.43,444.54,738.68Zm22.66-12.23a4.82,4.82,0,0,1-3.26,1.44c-1.67,0-3.58-1.09-5.38-3.07-2.5-2.75-3.91-6.24-3.9-7.69a185.74,185.74,0,0,0,.41-23c.31-1.36,2.23-8.69,6.71-8.69a5.65,5.65,0,0,1,1.69.29,3.48,3.48,0,0,1,1.26.87l6,26.47C470.51,719.4,469.29,724.57,467.2,726.45Zm15.38-3.71a4.57,4.57,0,0,1-1.23.18c-4,0-6.05-7.38-6.5-10.09a70.52,70.52,0,0,0-1.42-15.57,37.56,37.56,0,0,0-3.92-11.08,14.42,14.42,0,0,1,6.81-1.57,19.31,19.31,0,0,1,2.46.16,6.51,6.51,0,0,1,4.05,2,64.12,64.12,0,0,1,2.39,10c.24,1.26.49,2.55.75,3.83C487,713.54,485.22,722,482.58,722.74ZM497.09,711a4.35,4.35,0,0,1-1.13.17c-3.11,0-4.7-5.45-5.93-11.36-.24-3.08-.55-5.61-.73-6.94a14.72,14.72,0,0,0-2.36-7.63c.63-1.14,2.5-3.33,7.95-4.28a6.21,6.21,0,0,1,1.11-.1,4.39,4.39,0,0,1,2.22.6A85.31,85.31,0,0,0,502.85,699C502.62,704,501.4,709.85,497.09,711Zm17.38-8.36c-.74,1.4-1.51,2-2.38,1.92-1.79-.21-3.54-2.79-5.09-6.41a49.35,49.35,0,0,0-.39-7.7c-.06-.81-.57-6-3.2-9.77,2.51-1.32,6.18-2.92,8.85-2.92,1.64,0,2.2.58,2.49,1C517,682.29,517.64,696.66,514.48,702.68Z" style="fill:#3c3c3b"/><path d="M260.09,605.57a.12.12,0,0,0,0,.24A.12.12,0,0,0,260.09,605.57Z" style="fill:#1d1d1b"/><path d="M122.93,471.69c-1.12,9.07.57,19.26-6.63,26.09a.22.22,0,0,0,.27.35c10-5.5,13.21-14.27,15-25.24C132.66,466.42,123.73,465.2,122.93,471.69Z" style="fill:#fcd310"/><path d="M141,498.89c-.8,3.87-4.22,5-7.55,6.25-2,.72-4,1-6,1.56s-5.24,1.81-7.11,1.64c-1.6-.14-1.89,2.07-.76,2.84,2.43,1.67,3.65,3.62,6.69,4.69a22.59,22.59,0,0,0,11.6.82c7.49-1.42,13.94-6.5,15.92-14.2C156,494,142.78,490.4,141,498.89Z" style="fill:#fcd310"/><path d="M176.23,513.83c-4.13,1.49-7,5.15-10.94,7.16-5.95,3-11.06,4-17.64,2.83a.38.38,0,0,0-.28.68,25.6,25.6,0,0,0,17.27,4c5.82-.88,13.74-4.48,15.59-10.63C180.92,515.6,178.57,513,176.23,513.83Z" style="fill:#fcd310"/><path d="M271.9,536.69c-6.43-4.92-18.85-12.89-27.17-12-4.22.48-8.87,5.48-5.57,9.93,4.62,6.22,13.47,7.93,20.6,10,9.91,2.81,19.84,4.36,25.8,14a.44.44,0,0,0,.8-.35A39.19,39.19,0,0,0,271.9,536.69Z" style="fill:#fcd310"/><path d="M288.19,524.64c-.62-4.75-1.88-8.43-5-12-4.2-4.77-11.5,2.65-6.89,7a92.84,92.84,0,0,1,7.18,7c2.16,2.55,3.47,6.41,4.4,9.58a.44.44,0,0,0,.84,0C289.66,532.14,288.71,528.69,288.19,524.64Z" style="fill:#fcd310"/><path d="M205.86,519.94c-9.35,0-9.35,14.84,0,14.84S215.22,519.94,205.86,519.94Z" style="fill:#fcd310"/><path d="M620.89,471.69c1.13,9.07-.57,19.26,6.63,26.09a.22.22,0,0,1-.27.35c-10-5.5-13.21-14.27-15-25.24C611.15,466.42,620.08,465.2,620.89,471.69Z" style="fill:#fcd310"/><path d="M602.79,498.89c.8,3.87,4.22,5,7.55,6.25,2,.72,4,1,6,1.56,1.85.51,5.23,1.81,7.11,1.64,1.59-.14,1.88,2.07.76,2.84-2.43,1.67-3.65,3.62-6.7,4.69a22.59,22.59,0,0,1-11.6.82c-7.48-1.42-13.94-6.5-15.92-14.2C587.84,494,601,490.4,602.79,498.89Z" style="fill:#fcd310"/><path d="M567.58,513.83c4.13,1.49,7,5.15,10.94,7.16,5.95,3,11.06,4,17.64,2.83a.38.38,0,0,1,.28.68,25.6,25.6,0,0,1-17.27,4c-5.82-.88-13.74-4.48-15.59-10.63C562.9,515.6,565.25,513,567.58,513.83Z" style="fill:#fcd310"/><path d="M471.92,536.69c6.44-4.92,18.85-12.89,27.17-12,4.22.48,8.87,5.48,5.57,9.93-4.62,6.22-13.47,7.93-20.6,10-9.91,2.81-19.84,4.36-25.8,14a.44.44,0,0,1-.8-.35A39.19,39.19,0,0,1,471.92,536.69Z" style="fill:#fcd310"/><path d="M455.62,524.64c.62-4.75,1.88-8.43,5-12,4.2-4.77,11.51,2.65,6.89,7a93.49,93.49,0,0,0-7.18,7c-2.16,2.55-3.46,6.41-4.4,9.58a.44.44,0,0,1-.84,0C454.16,532.14,455.11,528.69,455.62,524.64Z" style="fill:#fcd310"/><path d="M538,519.94c9.35,0,9.35,14.84,0,14.84S528.6,519.94,538,519.94Z" style="fill:#fcd310"/><path d="M177,270.25c.25,4.18.57,8.32,3.81,11.48a21,21,0,0,0,10.28,5.47c7.64,1.66,13.83-.4,21.27-1h0c-1.23-17.14-21.3-16-34.48-16.79C177.59,269.65,177.31,270,177,270.25Z" style="fill:#3aaa61"/><path d="M129.25,216.06c8.79-5.37,20-16.56,10.8-26.6-.19-.1-.39-.18-.57-.29a1.28,1.28,0,0,1-.32.06C124.57,189,122.75,206,129.25,216.06Z" style="fill:#3aaa61"/><path d="M164.16,127.07c-4.32,3.93-9.57,8.48-8.25,15.09.74,3.67,2,6.88,4.57,9.07,4-3,7.64-7.08,7.87-12.33C168.55,134.49,168.12,129.6,164.16,127.07Z" style="fill:#3aaa61"/><path d="M240,187.65a1.06,1.06,0,0,1,.2,0c-3.14-8.08-8.44-12.08-17.37-12.21a23.24,23.24,0,0,0-7.79,1,8.9,8.9,0,0,0-1.13.92,10.11,10.11,0,0,1-1,.92,1.57,1.57,0,0,1-.08.32C219.81,187.94,229.23,189.1,240,187.65Z" style="fill:#3aaa61"/><path d="M254.44,92.78c-6.88-7.65-16.93-7.31-25.73-2.91-1.61,1-3.22,2.07-4.9,3,5.15,1.38,9.87,4.25,15,5.79,3.51,1.06,7.74,2.35,11.4,1.3a12.92,12.92,0,0,0,3.87-1.9,5.37,5.37,0,0,0,.66-4.41C254.66,93.37,254.54,93.08,254.44,92.78Z" style="fill:#3aaa61"/><path d="M124.75,285.94c-6.56,8-3.53,18.72,1.49,26.66,10.7-8.34,16-20.44,10.56-33.65C132.69,281.1,127.87,282.13,124.75,285.94Z" style="fill:#3aaa61"/><path d="M191.24,223.07a.34.34,0,0,1,0-.1,11.85,11.85,0,0,0-.49-5.78c-5.22-8.23-14.22-12.89-23.42-16-.57,7.36.27,16.43,7.5,20.13C179.72,223.79,186.13,225.38,191.24,223.07Z" style="fill:#3aaa61"/><path d="M224.83,229.82c-5.28,4-10.12,8.39-9.27,16,.8,7.2,4.83,11.71,9.29,16.92a.93.93,0,0,1,.16.27c8.49-10.23,7.93-21.41,2.14-33C226.38,230,225.6,229.93,224.83,229.82Z" style="fill:#3aaa61"/><path d="M185.6,228.62c-.89,0-1.88.24-2.88.35-4.67,1.35-9.58,2.4-13.06,6-4.53,4.7-4.07,10.13-4.53,16.15,10.38-.63,22-8.33,25.87-18.48q.33-1.84.59-3.73a9.34,9.34,0,0,0-2.42-.47C188,228.47,186.8,228.55,185.6,228.62Z" style="fill:#3aaa61"/><path d="M568.37,270.25c-.25,4.18-.57,8.32-3.81,11.48a21,21,0,0,1-10.28,5.47c-7.64,1.66-13.83-.4-21.27-1h0c1.22-17.14,21.3-16,34.48-16.79C567.79,269.65,568.06,270,568.37,270.25Z" style="fill:#3aaa61"/><path d="M616.12,216.06c-8.79-5.37-20-16.56-10.8-26.6.19-.1.39-.18.57-.29a1.26,1.26,0,0,0,.32.06C620.81,189,622.62,206,616.12,216.06Z" style="fill:#3aaa61"/><path d="M581.22,127.07c4.32,3.93,9.57,8.48,8.24,15.09-.74,3.67-2,6.88-4.57,9.07-4-3-7.64-7.08-7.87-12.33C576.83,134.49,577.25,129.6,581.22,127.07Z" style="fill:#3aaa61"/><path d="M505.34,187.65a1,1,0,0,0-.19,0c3.14-8.08,8.44-12.08,17.37-12.21a23.22,23.22,0,0,1,7.79,1,8.9,8.9,0,0,1,1.13.92,10.11,10.11,0,0,0,1,.92,1.57,1.57,0,0,0,.08.32C525.57,187.94,516.15,189.1,505.34,187.65Z" style="fill:#3aaa61"/><path d="M490.93,92.78c6.88-7.65,16.93-7.31,25.73-2.91,1.61,1,3.23,2.07,4.9,3-5.15,1.38-9.87,4.25-15,5.79-3.51,1.06-7.73,2.35-11.4,1.3a12.92,12.92,0,0,1-3.87-1.9,5.37,5.37,0,0,1-.66-4.41C490.72,93.37,490.83,93.08,490.93,92.78Z" style="fill:#3aaa61"/><path d="M620.63,285.94c6.56,8,3.54,18.72-1.48,26.66-10.7-8.34-16-20.44-10.56-33.65C612.69,281.1,617.51,282.13,620.63,285.94Z" style="fill:#3aaa61"/><path d="M554.14,223.07a.51.51,0,0,0,0-.1,11.89,11.89,0,0,1,.49-5.78c5.22-8.23,14.22-12.89,23.42-16,.58,7.36-.27,16.43-7.5,20.13C565.66,223.79,559.25,225.38,554.14,223.07Z" style="fill:#3aaa61"/><path d="M520.54,229.82c5.28,4,10.12,8.39,9.27,16-.8,7.2-4.83,11.71-9.29,16.92a.87.87,0,0,0-.16.27c-8.49-10.23-7.93-21.41-2.14-33C519,230,519.78,229.93,520.54,229.82Z" style="fill:#3aaa61"/><path d="M559.78,228.62c.89,0,1.89.24,2.88.35,4.67,1.35,9.58,2.4,13.07,6,4.52,4.7,4.06,10.13,4.53,16.15-10.38-.63-22-8.33-25.87-18.48q-.33-1.84-.59-3.73a9.4,9.4,0,0,1,2.42-.47C557.4,228.47,558.58,228.55,559.78,228.62Z" style="fill:#3aaa61"/><path d="M203.11,698.22c-2.49,5.89-6.5,11.32-2.5,17.8,3.31,5.37,7.1,7.4,12.68,8.58,2.27-6.68,1.39-14.2-3.68-19.48A87.32,87.32,0,0,1,203.11,698.22Z" style="fill:#3aaa61"/><path d="M299,768.34c-1.34,4.06-3.41,8.05-2.12,12.49,1.43,5,4.86,5.69,8.75,7.32,1-3.89,1.23-7.2-.66-11.22A39.5,39.5,0,0,0,299,768.34Z" style="fill:#3aaa61"/><path d="M333.82,798.91a26.45,26.45,0,0,0-8,2.17c-2.2,1.06-4.8,2.45-5.93,4.79s-.16,4.31,0,6.6c2.17.1,4.3.65,6.54.15a15.59,15.59,0,0,0,6.94-3.3c1.79-1.59,3.81-3.9,3.64-6.53a6,6,0,0,0-1.28-3.31C335.09,799.29,334.46,799.09,333.82,798.91Z" style="fill:#3aaa61"/><path d="M372.22,815.91c2.63-18.61-2.81-50-23.6-52.84-6.21-.84-18.62,3.07-14.92,12.36,2.68,6.74,9.7,8.23,14,2.11.1-.15-.11-.28-.23-.18-7.55,6.25-15.18-5.56-8.18-11,3.35-2.62,8.78-.76,12.08.72,7,3.12,11.09,10.85,13.55,17.79,3,8.52,2.78,17.34,3.27,26.12-11.07-11.46-29.62-17.29-43.54-19.16-5.36-.72-10.76-1.1-16.16-1.42,4.82-6.19-.59-19.89-7.44-23.37a10.86,10.86,0,0,0-2.18.38,4.7,4.7,0,0,0-.62.28c-6,6.19-4.32,19.95,3.84,22.33-5.84-.35-11.66-.75-17.43-1.56a32.42,32.42,0,0,1-18.73-9.29,11,11,0,0,1-1.05-1.28,1.45,1.45,0,0,1-.48-.58,11.1,11.1,0,0,1-1.13-2.79,2.36,2.36,0,0,1,0-.36h0c-.88-3.6.06-7.52,1.63-11.09,4.54-10.26,23-5.1,15.47,5.35-.18.24.2.52.4.31,7.68-8-1.89-15.89-10.43-14.86-9.47,1.14-12.39,10.23-11.12,18.66-12.43-5.87-14.49-16.62-20.24-29.55-3.94-8.86-9.54-16.4-19.49-17.56a15.37,15.37,0,0,0-3.52,0c4.52-11.78-2.68-21.56-12.17-28.69h0l-.06,0c-.15-.11-.31-.24-.47-.37l0,0a.66.66,0,0,0-.8.87c-5.11,5.82-7.44,12.57-3.68,20,2.14,4.22,7.44,9.33,12.59,9.63-10.45,6.46-2.11,30.54,9.38,21,.24-.2,0-.56-.28-.49-13.48,3.5-14.22-20.92.7-18.47,5.16.85,8.35,5.57,10.88,9.73,3.63,6,5.38,13,7.81,19.49,3.78,10.16,10.58,17.13,20.76,19.69a18.88,18.88,0,0,0,3.85,6.34c11.85,12.25,33.13,9.6,48.27,11a124.36,124.36,0,0,1,15.76,2.44,38,38,0,0,0-5.12,2.35c-2.66,1.49-6.34,6-6,9.67a5.56,5.56,0,0,0,.72,3.32.45.45,0,0,0,.05.31c1.69,2.82,5.61,3.1,8.54,2.64a17.29,17.29,0,0,0,10-5.22,11.13,11.13,0,0,0,2.57-10.07,86.59,86.59,0,0,1,9.43,3.79c11.59,5.53,16.77,15,25,24.06,1.4,1.53,3.73-.07,3.29-2A31.24,31.24,0,0,0,372.22,815.91ZM213.29,724.6c-5.59-1.18-9.37-3.21-12.68-8.58-4-6.48,0-11.91,2.5-17.8a87.32,87.32,0,0,0,6.5,6.9C214.68,710.4,215.55,717.92,213.29,724.6Zm92.3,63.55c-3.9-1.63-7.32-2.36-8.75-7.32-1.29-4.44.79-8.43,2.12-12.49a39.5,39.5,0,0,1,6,8.59C306.81,781,306.56,784.26,305.58,788.15Zm27.77,21.17a15.59,15.59,0,0,1-6.94,3.3c-2.23.49-4.36-.05-6.54-.15-.14-2.29-1.15-4.2,0-6.6s3.73-3.73,5.93-4.79a26.45,26.45,0,0,1,8-2.17c.63.18,1.26.38,1.89.56a6,6,0,0,1,1.28,3.31C337.16,805.42,335.14,807.72,333.35,809.32Z" style="fill:#3c3c3b"/><path d="M545.68,698.22c2.49,5.89,6.5,11.32,2.5,17.8-3.31,5.37-7.1,7.4-12.68,8.58-2.26-6.68-1.39-14.2,3.68-19.48A88,88,0,0,0,545.68,698.22Z" style="fill:#3aaa61"/><path d="M449.83,768.34c1.34,4.06,3.41,8.05,2.13,12.49-1.43,5-4.86,5.69-8.75,7.32-1-3.89-1.23-7.2.66-11.22A39.61,39.61,0,0,1,449.83,768.34Z" style="fill:#3aaa61"/><path d="M415,798.91a26.47,26.47,0,0,1,8,2.17c2.2,1.06,4.8,2.45,5.93,4.79s.16,4.31,0,6.6c-2.18.1-4.3.65-6.54.15a15.57,15.57,0,0,1-6.94-3.3c-1.8-1.59-3.81-3.9-3.64-6.53a6,6,0,0,1,1.28-3.31C413.71,799.29,414.33,799.09,415,798.91Z" style="fill:#3aaa61"/><path d="M371.93,826.43c-.44,1.89,1.89,3.49,3.29,2,8.28-9.06,13.46-18.52,25-24.06a86.3,86.3,0,0,1,9.43-3.79,11.12,11.12,0,0,0,2.57,10.07,17.27,17.27,0,0,0,10,5.22c2.93.46,6.85.17,8.54-2.64a.43.43,0,0,0,0-.31,5.56,5.56,0,0,0,.73-3.32c.3-3.63-3.38-8.18-6-9.67a38,38,0,0,0-5.12-2.35,124.36,124.36,0,0,1,15.76-2.44c15.13-1.38,36.42,1.27,48.26-11a18.82,18.82,0,0,0,3.85-6.34c10.18-2.56,17-9.53,20.76-19.69,2.43-6.52,4.18-13.51,7.81-19.49,2.53-4.16,5.72-8.88,10.88-9.73,14.92-2.44,14.18,22,.7,18.47-.26-.07-.53.3-.28.49,11.49,9.5,19.83-14.58,9.38-21,5.15-.3,10.46-5.41,12.59-9.63,3.75-7.41,1.43-14.16-3.69-20a.65.65,0,0,0-.79-.86l0,0c-.16.13-.32.26-.47.37h-.06c-9.5,7.12-16.69,16.91-12.17,28.69a15.37,15.37,0,0,0-3.52,0c-9.95,1.16-15.55,8.71-19.49,17.56-5.75,12.93-7.81,23.69-20.24,29.55,1.27-8.43-1.65-17.52-11.12-18.66-8.53-1-18.11,6.91-10.43,14.86.19.21.57-.07.4-.31C461,757.93,479.44,752.78,484,763c1.58,3.56,2.52,7.48,1.65,11.08h0a2.36,2.36,0,0,1,0,.36,11.1,11.1,0,0,1-1.13,2.79,1.48,1.48,0,0,1-.48.58,11,11,0,0,1-1.05,1.28,32.42,32.42,0,0,1-18.73,9.29c-5.78.8-11.6,1.21-17.43,1.56,8.16-2.38,9.88-16.13,3.84-22.33a4.7,4.7,0,0,0-.62-.28,10.86,10.86,0,0,0-2.18-.38c-6.85,3.48-12.26,17.18-7.44,23.37-5.4.32-10.8.71-16.16,1.42-13.91,1.86-32.47,7.69-43.53,19.16.49-8.78.25-17.6,3.27-26.12,2.46-6.94,6.56-14.67,13.55-17.79,3.3-1.47,8.73-3.34,12.08-.72,7,5.46-.63,17.27-8.18,11-.12-.1-.33,0-.23.18,4.29,6.12,11.31,4.63,14-2.11,3.69-9.29-8.71-13.21-14.92-12.36-20.79,2.84-26.24,34.23-23.6,52.84A31.24,31.24,0,0,0,371.93,826.43ZM539.19,705.12a88,88,0,0,0,6.5-6.9c2.49,5.89,6.5,11.32,2.5,17.8-3.31,5.37-7.1,7.4-12.68,8.58C533.24,717.92,534.11,710.4,539.19,705.12Zm-95.32,71.81a39.61,39.61,0,0,1,6-8.59c1.34,4.06,3.41,8.05,2.13,12.49-1.43,5-4.86,5.69-8.75,7.32C442.23,784.26,442,781,443.87,776.93ZM411.8,802.79a6,6,0,0,1,1.28-3.31c.63-.19,1.26-.39,1.89-.56a26.47,26.47,0,0,1,8,2.17c2.2,1.06,4.8,2.45,5.93,4.79s.16,4.31,0,6.6c-2.18.1-4.3.65-6.54.15a15.57,15.57,0,0,1-6.94-3.3C413.64,807.72,411.63,805.42,411.8,802.79Z" style="fill:#3c3c3b"/></svg>