<svg xmlns="http://www.w3.org/2000/svg" viewBox="0 0 760 916"><title>sk1-hermit</title><rect x="187.97" y="564.15" width="385.54" height="114.65" rx="50.73" ry="50.73" style="fill:#eee3cf"/><path d="M562.69,563.81s-9,78.33-43.56,97H237.54c-34.53-18.63-43.56-97-43.56-97s-77.76-48.37-75.54-28.11,16.45,49.6,34.18,53.33,18.66,60.55,25.2,107.41,19.6,66.81,36.4,76.12,11.2,16.76,64.39,39.13,99.72,16.77,99.72,16.77,46.56,5.59,99.75-16.77,47.59-29.81,64.39-39.13,29.87-29.27,36.39-76.12,7.47-103.68,25.2-107.41,32-33.06,34.18-53.33S562.69,563.81,562.69,563.81Z" style="fill:#eee3cf"/><path d="M288.06,783.41c9.67-10.18,17-22.38,9.63-30.34-8.1-8.77-21.5.08-27.18,6.61a50.82,50.82,0,0,0-3.79,5c.68-7.83,1.19-20.1-5.4-24.07-7.69-4.62-14.48,3-16.62,9.82-2,6.41-1.6,13.73-.23,21-8.26-11.44-19.66-22-28.81-19.37-8.81,2.58-10,12.94-5.45,19.72,7.5,11.21,22.55,13.92,33.36,20.42.86.52,1.86-.72,1.09-1.41-5.24-4.61-11.22-8.16-17.08-11.9A61,61,0,0,1,216.1,770c-5.18-5.36-2.24-15.48,5.84-11.93,10.54,4.63,23.28,20.06,27.53,31.93l.9,2.87a2.32,2.32,0,0,0,1.71,1.65,2.49,2.49,0,0,0,.93,2.24,30.08,30.08,0,0,0,3.78,2.63,3,3,0,0,0,3,1.69c19.66,10,61.16,16.83,65.21-7.25C328.75,771.66,307,775.91,288.06,783.41Zm-10.54-23.79c3.25-3.26,16.87-9,17.73-.11,1,10.83-16.56,26.69-27.48,33.36-1.58.84-2.9,1.57-3.86,2.11a3.26,3.26,0,0,0-.39.27l-1.07-.45c.87-4.8,1.71-9.6,2.44-14.42a87.65,87.65,0,0,1,3.78-8.65A47.09,47.09,0,0,1,277.52,759.62Zm-28.4,4c-.58-5.94-.91-16,5.87-18.78,5.07-2.07,5.92,5.36,6.27,8.52.88,7.86.17,15.91-1,23.9a56.91,56.91,0,0,0-3.51,14.68h0a2.66,2.66,0,0,0-1.53-.44c-.12-.45-.26-.94-.43-1.45A139.75,139.75,0,0,1,249.12,763.62Zm22.24,34.53c14.06-7.84,46.82-25.12,47.55-5.17C319.52,809.56,290.43,804.48,271.36,798.15Z" style="fill:#e6334b"/><path d="M432.9,793.81c4,24.08,45.55,17.27,65.21,7.25a3,3,0,0,0,3-1.69,30.13,30.13,0,0,0,3.78-2.63,2.49,2.49,0,0,0,.93-2.24,2.32,2.32,0,0,0,1.71-1.65l.9-2.87c4.25-11.87,17-27.3,27.52-31.93,8.09-3.55,11,6.57,5.84,11.93a60.82,60.82,0,0,1-11.48,8.89c-5.87,3.74-11.84,7.29-17.08,11.9-.77.68.22,1.92,1.09,1.41,10.81-6.5,25.86-9.21,33.35-20.42,4.53-6.77,3.37-17.13-5.44-19.72-9.16-2.68-20.55,7.92-28.81,19.37,1.38-7.28,1.77-14.61-.23-21-2.13-6.81-8.93-14.44-16.62-9.82-6.59,4-6.08,16.24-5.41,24.07a50.77,50.77,0,0,0-3.78-5c-5.68-6.53-19.08-15.38-27.18-6.61-7.34,8,0,20.16,9.64,30.34C450.93,775.91,429.18,771.66,432.9,793.81Zm56.37-22.06a86.12,86.12,0,0,1,3.78,8.65c.73,4.82,1.56,9.62,2.44,14.42l-1.07.45A3.54,3.54,0,0,0,494,795c-1-.54-2.28-1.27-3.86-2.11-10.92-6.67-28.53-22.53-27.49-33.36.86-8.86,14.48-3.15,17.73.11A47,47,0,0,1,489.27,771.75Zm13.9,18.3c-.16.51-.31,1-.43,1.45a2.66,2.66,0,0,0-1.53.44h0a56.91,56.91,0,0,0-3.51-14.68c-1.2-8-1.91-16-1-23.9.35-3.16,1.2-10.59,6.27-8.52,6.79,2.77,6.45,12.84,5.88,18.78A139.25,139.25,0,0,1,503.17,790ZM439,793c.74-20,33.5-2.68,47.56,5.17C467.5,804.48,438.42,809.56,439,793Z" style="fill:#e6334b"/><path d="M642.53,527.55c-2.22-2.46-5.43-3.72-9.53-3.72-18.2,0-64.81,28.42-74,34.11l-2.83,1.76-.38,3.32a266,266,0,0,1-8.47,39.84c-7.73,26.06-18.11,43.66-30.06,51H239.4c-24.73-15.17-36.19-70.56-38.53-90.84l-.38-3.32-2.84-1.76c-9.15-5.69-55.76-34.11-74-34.11-4.1,0-7.31,1.25-9.53,3.73a11,11,0,0,0-2.58,8.9c2.39,21.89,17.5,54.7,39.64,59.35,8.74,1.83,13.2,43.5,15.86,68.4,1.17,11,2.39,22.36,3.9,33.2,6.18,44.28,18.48,69.34,39.89,81.21a51.33,51.33,0,0,1,10.73,8.1c7.7,7,17.28,15.78,54.35,31.36A233.51,233.51,0,0,0,364.3,836c7.52,0,12.49-.43,14.05-.59,2,.2,6.83.58,14,.59h0a233.55,233.55,0,0,0,88.38-17.93c37.07-15.58,46.65-24.33,54.35-31.36a51.16,51.16,0,0,1,10.73-8.1c21.41-11.87,33.71-36.92,39.89-81.21,1.52-10.9,2.73-22.23,3.9-33.2,2.66-24.89,7.12-66.56,15.87-68.39,22.14-4.66,37.24-37.46,39.63-59.35A11,11,0,0,0,642.53,527.55ZM377.33,766.44a1.2,1.2,0,0,0-.73-.74c.14-1.16.26-2.31.37-3.46.15,1.6.33,3.2.54,4.78C377.44,766.83,377.4,766.63,377.33,766.44ZM602.63,582.27c-18.61,3.91-22.22,37.7-26.79,80.48-1.16,10.87-2.36,22.11-3.84,32.74-5.52,39.56-15.67,61.47-32.9,71a64.88,64.88,0,0,0-13.35,10c-6.91,6.31-15.51,14.17-50.37,28.82a218.17,218.17,0,0,1-57.9,15.26c-12.17-8.55-22.34-16.45-29.08-30.12-6-12.27-7.13-25.75-10.7-38.75.06-1.35.12-2.69.16-4a.93.93,0,0,0-1.81-.24c-3.34,13.51-5,27.23-9.27,40.57-4.83,15.2-13.13,25.19-26.12,32.73a218.78,218.78,0,0,1-59.37-15.44c-34.85-14.65-43.45-22.5-50.37-28.82a64.45,64.45,0,0,0-13.35-10c-17.23-9.56-27.38-31.47-32.9-71-1.48-10.62-2.68-21.88-3.84-32.76-4.57-42.77-8.19-76.56-26.78-80.47-10.44-2.19-24.83-22-28.32-44.43,12.22,1.89,42.51,18.37,61.81,30.13,2.33,16.64,13.39,80.9,46.71,98.88l1.55.83H520.88l1.55-.83c33.31-18,44.38-82.25,46.72-98.88,19.3-11.77,49.62-28.26,61.83-30.13C627.54,560.11,613.09,580.07,602.63,582.27Z" style="fill:#3c3c3b"/><path d="M605.92,95.15C538.73,14.1,439.23,8.51,378.34,8.51S217.94,14.1,150.75,95.15,65.36,275.78,89.16,363.46c19.6,72.2,9.8,89.43,9.8,89.43s-28,79.66,68.59,99.22,75.59,74.53,74.19,102.48l136.6.93,136.6-.93c-1.4-27.94-22.4-82.91,74.19-102.48s68.59-99.22,68.59-99.22-9.8-17.24,9.8-89.43C691.31,275.78,673.12,176.2,605.92,95.15Z" style="fill:#eee3cf"/><path d="M425.24,507.06c-5-9.09-5.5-22.36-7.9-38.43s-24.19-39.82-31.15-37-.74,20.26,0,44.71-7.81,36.34-7.81,36.34-8.51-11.88-7.81-36.34,6.92-41.92,0-44.71-28.75,21-31.15,37-2.9,29.35-7.9,38.43-20.14,23.06-7.32,47.51,50.84-2.09,54.23-14c3.39,11.88,41.41,38.43,54.23,14S430.24,516.15,425.24,507.06Z" style="fill:#3c3c3b"/><path d="M536.46,499.66c-10.67,0-21.87-1.38-32.39-2.86-54.24-7.67-87.78-40.67-99.7-98.1-5.91-28.46,2.27-48.06,10.17-59.49,18.65-27,51.13-32.81,54.77-33.39l.66-.09a147.1,147.1,0,0,1,18.82-1.15c22.19,0,44.33,4.41,53,7.55l2.06.7c14,4.71,51.16,17.23,65.53,46.75,16.19,33.28,7.31,62.46-5,94.43-11.83,30.71-34,45.64-67.86,45.64Z" style="fill:#3aaa61"/><path d="M473.06,329.36s-56.83,9-45.32,64.5S470.91,468,507.42,473.2,569.13,479,582,445.46s16.8-52.89,5.82-75.46-47.17-32.89-54.27-35.47S497.82,326.14,473.06,329.36Z" style="fill:#3c3c3b"/><path d="M217.72,499.66c-33.84,0-56-14.93-67.87-45.64-12.32-32-21.2-61.15-5-94.43,14.36-29.52,51.53-42,65.52-46.75l2.07-.7c8.63-3.14,30.76-7.55,53-7.55a147,147,0,0,1,18.82,1.15l.67.09c3.64.58,36.12,6.44,54.77,33.39,7.9,11.42,16.09,31,10.18,59.49-11.92,57.42-45.47,90.43-99.71,98.1C239.59,498.28,228.39,499.66,217.72,499.66Z" style="fill:#3aaa61"/><path d="M281.12,329.36s56.83,9,45.32,64.5S283.27,468,246.76,473.2s-61.71,5.81-74.63-27.74-16.8-52.89-5.82-75.46,47.17-32.89,54.27-35.47S256.36,326.14,281.12,329.36Z" style="fill:#3c3c3b"/><path d="M249.43,676.36s-13.06-8.13-16.75-2.54-3.44,29.92,4.71,29S249.43,676.36,249.43,676.36Z" style="fill:#f9efe1"/><path d="M236.93,704.93h0c-1.68,0-4.07-.72-5.92-4.14-3.89-7.21-3.36-23.16-.09-28.12.87-1.33,2.63-2.9,6-2.9,5.75,0,13.25,4.63,13.56,4.82l1.17.72-.21,1.36c-.69,4.53-4.59,27.15-13.87,28.22C237.39,704.92,237.16,704.93,236.93,704.93Zm0-31c-1.68,0-2.26.59-2.55,1-2.28,3.46-3,17.82.28,23.82.69,1.28,1.44,1.94,2.22,1.94h.22c4.26-.49,8.32-13.69,10-23.28C244.64,676.08,240.14,674,237,674Z" style="fill:#3c3c3b"/><path d="M283.74,681.74s-4.35-4-12.75-2.91-8.4,10.36-8.4,10.36-4.16,29.34,4.22,31.68,10.56-11.69,10.56-11.69Z" style="fill:#f9efe1"/><path d="M268.62,723.23h0a8.81,8.81,0,0,1-2.38-.34c-9.58-2.67-6.53-28.34-5.76-33.85.06-3.91,2.25-11.29,10.24-12.29a23.74,23.74,0,0,1,3-.2c7.31,0,11.23,3.49,11.39,3.64l.91.83-6.64,28.57C279.22,710.83,277,723.23,268.62,723.23Zm5.14-42.48a21.22,21.22,0,0,0-2.52.16c-6.43.81-6.56,8-6.56,8.3l0,.28c-2.41,17-.47,28.48,2.7,29.36a4.75,4.75,0,0,0,1.26.19c4.15,0,6.25-7.54,6.66-10.18l0-.15,6.05-26.07A14.83,14.83,0,0,0,273.76,680.75Z" style="fill:#3c3c3b"/><path d="M362.91,732S347,722.73,348,691.52c0,0-2.33-9.78,14.93-9.78s15.39,7.45,15.39,7.45S377.84,733.44,362.91,732Z" style="fill:#f9efe1"/><path d="M363.59,734.17a7.91,7.91,0,0,1-.88,0l-.47,0-.41-.24c-.68-.4-16.84-10.27-16-42.15a9.06,9.06,0,0,1,1.86-6.93c2.69-3.4,7.8-5.12,15.18-5.12,8.16,0,13.58,1.63,16.1,4.85a6.41,6.41,0,0,1,1.39,4.89C380.33,694.74,379.29,734.17,363.59,734.17Zm-.68-50.34c-7.45,0-10.55,1.89-11.84,3.47a4.75,4.75,0,0,0-1,3.76l0,.24v.28c-.46,15.42,3.36,25.12,6.65,30.54a26.71,26.71,0,0,0,6.87,7.85c4.61,0,8.39-7,10.63-19.71a148.1,148.1,0,0,0,2-21.1l.06-.48a2.36,2.36,0,0,0-.65-1.71C374.62,685.81,371.65,683.83,362.91,683.83Z" style="fill:#3c3c3b"/><path d="M348.22,688.19s2.06-6-11.69-6.45-16.56-1.07-18,6.45-4.2,42,8.87,48.05S348.94,702.56,348.22,688.19Z" style="fill:#f9efe1"/><path d="M330.12,739h0a8.39,8.39,0,0,1-3.56-.82c-14.76-6.84-11.33-43.41-10-50.33,1.34-7.19,4.63-8.41,11.48-8.41,1.73,0,3.78.08,6.17.16l2.45.09c6.59.22,10.9,1.74,12.8,4.5a5.56,5.56,0,0,1,.93,4.24c.45,11.15-4.24,37.74-13.15,47.09C335,737.79,332.59,739,330.12,739ZM328,683.59c-5.95,0-6.56.75-7.34,5-1.53,8.22-3.5,40.58,7.69,45.76a4.13,4.13,0,0,0,1.79.43h0a5.83,5.83,0,0,0,4-2.18c7.79-8.18,12.5-34,12-44.29l0-.4.14-.38a1.51,1.51,0,0,0-.35-1.07c-.54-.7-2.53-2.37-9.43-2.6l-2.45-.09C331.66,683.66,329.64,683.59,328,683.59Z" style="fill:#3c3c3b"/><path d="M317.82,694.25s-3-10.21-6.24-12.75-12.94-7.21-13.94,8.63,1.08,46,8.43,46.74S318.92,719.33,317.82,694.25Z" style="fill:#f9efe1"/><path d="M306.53,739h0c-.22,0-.44,0-.67,0-4.47-.48-7.48-6.86-9.21-19.52a162.3,162.3,0,0,1-1.1-29.43c.73-11.54,6.11-13.26,9.25-13.26,3.79,0,7.13,2.38,8.07,3.11,3.62,2.83,6.44,12,7,13.83l.08.49c.86,19.71-2.28,36.3-8,42.27A7.39,7.39,0,0,1,306.53,739Zm-1.73-58.06c-3.7,0-4.79,5.08-5.06,9.33-1.36,21.6,2.67,44.11,6.56,44.52h.23a3.39,3.39,0,0,0,2.35-1.27c3.92-4.09,7.74-18,6.85-38.93-1.18-4-3.6-10-5.44-11.45A10.06,10.06,0,0,0,304.8,680.93Z" style="fill:#3c3c3b"/><path d="M297.65,690.12s-2.56-13-11.34-10.21-12.52,37.22-4.58,44.21,16.66-6.6,16.33-11.18S297.65,690.12,297.65,690.12Z" style="fill:#f9efe1"/><path d="M286.45,728.18h0a9.09,9.09,0,0,1-6.11-2.48c-5.73-5-6.13-20.42-3.61-32.31,1.08-5.07,3.68-13.82,9-15.47a9.81,9.81,0,0,1,3-.48c8.52,0,10.94,11.78,11,12.28l0,.4c0,.19.07,18.22.4,22.67.21,2.9-2,7.63-5.12,11C292.35,726.66,289.38,728.18,286.45,728.18Zm2.22-46.56a5.86,5.86,0,0,0-1.73.29c-1.72.54-4.35,4.1-6.1,12.35-2.51,11.79-1.45,25,2.27,28.29a5,5,0,0,0,3.34,1.44h0c1.71,0,3.67-1.09,5.5-3.06,2.63-2.83,4.1-6.46,4-7.82-.33-4.38-.4-20.53-.41-22.74C295.25,689.13,293.27,681.62,288.67,681.62Z" style="fill:#3c3c3b"/><path d="M265.28,681.74s-.82-5.08-10.16-6.67-10.27,11.79-10.27,11.79-3,19.59,7.11,22.31S261.44,691.06,265.28,681.74Z" style="fill:#f9efe1"/><path d="M253.67,711.52h0a8.86,8.86,0,0,1-2.26-.31c-11.5-3.11-8.88-22.93-8.65-24.58.1-1.29,1.38-13.79,10.86-13.79a11.55,11.55,0,0,1,1.85.16c10.69,1.83,11.83,8.13,11.88,8.4l.1.59-.22.55a59.77,59.77,0,0,0-2.58,10.32C262.86,702,261,711.52,253.67,711.52ZM253.62,677c-5.91,0-6.67,9.87-6.67,10l0,.17c-.74,4.93-1.18,18.14,5.57,20a4.55,4.55,0,0,0,1.17.18c3.88,0,5.46-8.11,6.85-15.27a70.15,70.15,0,0,1,2.54-10.39c-.47-1-2.23-3.5-8.29-4.53A7,7,0,0,0,253.62,677Z" style="fill:#3c3c3b"/><path d="M507.24,676.36s13.06-8.13,16.75-2.54,3.44,29.92-4.71,29S507.24,676.36,507.24,676.36Z" style="fill:#f9efe1"/><path d="M519.74,704.93c-.22,0-.46,0-.69,0-9.28-1.07-13.19-23.69-13.88-28.22l-.21-1.36,1.17-.72c.32-.2,7.81-4.82,13.56-4.82,3.42,0,5.18,1.58,6,2.9,3.28,5,3.8,20.91-.09,28.12C523.81,704.21,521.42,704.93,519.74,704.93Zm-10.19-27.48c1.65,9.59,5.72,22.79,10,23.28.89.1,1.68-.52,2.44-1.92,3.24-6,2.57-20.37.28-23.83-.29-.44-.87-1-2.55-1C516.54,674,512,676.08,509.55,677.45Z" style="fill:#3c3c3b"/><path d="M472.93,681.74s4.36-4,12.75-2.91,8.4,10.36,8.4,10.36,4.16,29.34-4.22,31.68-10.56-11.69-10.56-11.69Z" style="fill:#f9efe1"/><path d="M488,723.23c-8.33,0-10.59-12.39-10.8-13.64L470.62,681l.9-.83c.16-.15,4.08-3.64,11.39-3.64a23.74,23.74,0,0,1,3,.2c8,1,10.18,8.38,10.24,12.29.77,5.51,3.83,31.18-5.75,33.85A8.91,8.91,0,0,1,488,723.23ZM475.3,682.64l6.08,26.21c.42,2.64,2.54,10.18,6.66,10.18a4.76,4.76,0,0,0,1.26-.19c3.17-.88,5.11-12.36,2.7-29.36l0-.29c0-.3-.14-7.48-6.56-8.29a21.17,21.17,0,0,0-2.52-.16A14.91,14.91,0,0,0,475.3,682.64Z" style="fill:#3c3c3b"/><path d="M393.76,732s15.86-9.31,14.93-40.53c0,0,2.34-9.78-14.93-9.78s-15.4,7.45-15.4,7.45S378.83,733.44,393.76,732Z" style="fill:#f9efe1"/><path d="M393.08,734.17h0c-15.7,0-16.74-39.43-16.81-44.78a6.44,6.44,0,0,1,1.4-4.89c2.52-3.22,7.94-4.85,16.1-4.85,7.39,0,12.49,1.72,15.18,5.12a9.06,9.06,0,0,1,1.86,6.93c.87,31.89-15.29,41.75-16,42.15l-.4.24-.47,0A8,8,0,0,1,393.08,734.17Zm.68-50.34c-8.75,0-11.72,2-12.71,3.14a2.3,2.3,0,0,0-.64,1.77l.06.24v.18c.17,15.77,3.75,40.8,12.61,40.81,2.3-1.66,14.32-11.67,13.53-38.4v-.28l.06-.27a4.77,4.77,0,0,0-1-3.73C404.32,685.73,401.22,683.83,393.76,683.83Z" style="fill:#3c3c3b"/><path d="M408.44,688.19s-2.06-6,11.7-6.45,16.56-1.07,18,6.45,4.2,42-8.87,48.05S407.73,702.56,408.44,688.19Z" style="fill:#f9efe1"/><path d="M426.56,739c-2.48,0-4.87-1.17-7.07-3.49-8.92-9.35-13.6-35.94-13.15-47.09a5.55,5.55,0,0,1,.93-4.24c1.9-2.76,6.21-4.27,12.8-4.5l2.44-.09c2.39-.08,4.44-.16,6.17-.16,6.85,0,10.14,1.22,11.48,8.41,1.28,6.92,4.71,43.49-10,50.33A8.37,8.37,0,0,1,426.56,739Zm2.12-55.37c-1.65,0-3.67.07-6,.16l-2.46.09c-6.9.23-8.89,1.9-9.43,2.6a1.41,1.41,0,0,0-.33,1.15l.13.38,0,.32c-.51,10.32,4.2,36.12,12,44.29,2,2.1,3.81,2.68,5.81,1.75,11.18-5.18,9.22-37.54,7.69-45.77C435.24,684.34,434.63,683.59,428.68,683.59Z" style="fill:#3c3c3b"/><path d="M438.86,694.25s3-10.21,6.23-12.75S458,674.29,459,690.12s-1.08,46-8.44,46.74S437.75,719.33,438.86,694.25Z" style="fill:#f9efe1"/><path d="M450.14,739a7.4,7.4,0,0,1-5.39-2.57c-5.72-6-8.86-22.56-8-42.26l.08-.49c.53-1.82,3.34-11,7-13.82.94-.73,4.28-3.11,8.07-3.11,3.14,0,8.53,1.72,9.25,13.26.59,9.44.63,47.8-10.32,49C450.58,739,450.36,739,450.14,739Zm-9.19-44.39c-.89,20.91,2.92,34.83,6.85,38.93a3.22,3.22,0,0,0,2.58,1.26c3.89-.41,7.92-22.92,6.56-44.52-.27-4.25-1.37-9.33-5.06-9.33a10.06,10.06,0,0,0-5.48,2.22C444.54,684.58,442.13,690.62,440.94,694.59Z" style="fill:#3c3c3b"/><path d="M459,690.12s2.55-13,11.34-10.21,12.52,37.22,4.58,44.21-16.67-6.6-16.33-11.18S459,690.12,459,690.12Z" style="fill:#f9efe1"/><path d="M470.22,728.18c-2.93,0-5.9-1.52-8.58-4.4-3.13-3.37-5.33-8.09-5.12-11,.33-4.45.4-22.49.4-22.67l0-.4c.1-.5,2.52-12.28,11-12.28a9.85,9.85,0,0,1,3,.48c5.27,1.65,7.87,10.4,8.95,15.47,2.53,11.89,2.13,27.27-3.6,32.31A9.12,9.12,0,0,1,470.22,728.18Zm-9.1-37.82c0,2.21-.09,18.37-.41,22.75-.1,1.36,1.37,5,4,7.82,1.84,2,3.79,3.06,5.5,3.06a5,5,0,0,0,3.34-1.44c3.72-3.27,4.79-16.5,2.28-28.29-1.76-8.25-4.38-11.81-6.1-12.35a5.94,5.94,0,0,0-1.74-.29C463.38,681.62,461.42,689.12,461.13,690.36Z" style="fill:#3c3c3b"/><path d="M491.39,681.74s.82-5.08,10.16-6.67,10.27,11.79,10.27,11.79,3,19.59-7.1,22.31S495.23,691.06,491.39,681.74Z" style="fill:#f9efe1"/><path d="M503,711.52c-7.35,0-9.28-9.92-11-18.66a59.67,59.67,0,0,0-2.58-10.32l-.22-.55.1-.59c0-.26,1.19-6.57,11.87-8.4a11.58,11.58,0,0,1,1.85-.16c9.49,0,10.76,12.5,10.86,13.79.24,1.65,2.86,21.47-8.65,24.58A8.85,8.85,0,0,1,503,711.52Zm-9.38-29.83a69.45,69.45,0,0,1,2.53,10.37c1.39,7.16,3,15.28,6.86,15.28a4.54,4.54,0,0,0,1.16-.18c8-2.17,5.6-19.8,5.57-20l0-.17c0-.1-.8-10-6.68-10a7,7,0,0,0-1.14.1C495.88,678.17,494.11,680.65,493.62,681.68Z" style="fill:#3c3c3b"/><path d="M576.83,561.78c-4.72,14.48-8.29,29.36-12.71,44-5.22,17.16-12.31,33.3-19.93,49.51-.06.13.1.27.21.16,22.86-23.78,32.36-60.33,40.52-91.38C586.31,558.76,578.5,556.68,576.83,561.78Z" style="fill:#3c3c3b"/><path d="M595.51,557.33c-3.26,9-5.83,18.18-9.09,27.2-.07.18.17.28.29.18,7.61-6.51,12.53-16.19,16.11-25.36C604.59,554.81,597.16,552.74,595.51,557.33Z" style="fill:#3c3c3b"/><path d="M611.85,552.86c-1.87,6.57-3,14.63-7,20.26-.07.09.07.17.14.11a42.68,42.68,0,0,0,13.54-18.54C620.09,550.63,613.08,548.53,611.85,552.86Z" style="fill:#3c3c3b"/><path d="M210,657.27c-8.3-16.08-16-31.46-21.33-48.85-4.87-15.84-6.44-32.93-9.78-49.14-1.32-6.41-10.83-3.64-9.73,2.68,3.13,17.93,10,34.3,16.34,51.21,5.8,15.35,12.69,32.33,23.51,44.86C209.51,658.59,210.32,657.87,210,657.27Z" style="fill:#3c3c3b"/><path d="M166.39,582.09a88.7,88.7,0,0,1-4.91-15.6c-1-4.56-2.4-10.43-6.46-13.09a3.11,3.11,0,0,0-4.52,1.84c-1.63,4.87,2.06,10,4.77,13.87,1.4,2,3.4,3.3,5,5.14a60.92,60.92,0,0,1,5.46,8.24C166,582.95,166.58,582.55,166.39,582.09Z" style="fill:#3c3c3b"/><path d="M101.33,342.47a.49.49,0,0,0-.9.38c5.31,22,9.83,41.66,8.2,64.46a160.38,160.38,0,0,1-6.81,34.42c-3.24,10.83-8.73,21.06-10.51,32.26-.58,3.65,3.71,7.12,6.72,3.9,15.49-16.58,19.75-44.71,20.44-66.57C119.2,388.41,113.55,362,101.33,342.47Z" style="fill:#3c3c3b"/><path d="M664.38,466.93c-3.56-21.79-12.87-42.83-18.16-64.33-5.18-21.06,5.23-42.31,0-63.36-.06-.25-.42-.18-.43.06-1.94,23.29-9.45,44.89-8.12,68.52,1.18,20.86,9.2,44,17.89,62.82C658,476,665.19,471.88,664.38,466.93Z" style="fill:#3c3c3b"/><path d="M373.64,84.76a1.49,1.49,0,0,0,.81-1.27c.34-12.33-.31-24.66-.94-37-.29-5.74.84-13.34-.55-19.61a58.35,58.35,0,0,0-.75-8.25c0-.1,0-.2,0-.3s0-.11,0-.16h0a5.76,5.76,0,0,0-6.19-4.83h-.15a5.62,5.62,0,0,0-1.92.31,14.2,14.2,0,0,0-1.44.4c-8.68-4.22-20.12-2.83-30-2.35a30.43,30.43,0,0,0-4,.14,7.65,7.65,0,0,0-6.83,6.28c-10.67-4.86-21.77-6.82-29.23-.83-2,1.6-1.81,5.22,0,6.85,6,5.43,14.25,4.18,21.89,6.22,9.88,2.64,18.85,8.42,26.63,14.88,15,12.46,26.64,30.45,33.61,48.6,0,.09.19.09.18,0A89.16,89.16,0,0,0,373.64,84.76Z" style="fill:#e6334b"/><path d="M178,252.54C166.9,248,156.24,244.85,146.81,237c-7.76-6.46-13.63-15-18.71-23.58-10.3-17.49-16.88-35.53-14.14-55.84.44-3.28-3.54-6.9-6.31-3.67-6.54,7.63-6.65,18-3.89,28.49-1.66,5.81-5,11.43-7.17,16.81-3.19,7.92-4.13,16.87-5.15,25.31-2.29,19-7,36.93-10.53,55.62-1.26,2.47-.34,5,1.49,6.85-5.91,10.7-8.63,22.9-5.57,34.37,1.11,4.13,6.88,3.87,8.1,0,2.89-9.14,4.25-18.66,8.47-27.35,4.54-9.36,12.17-16.28,20.48-22.25,16.15-11.62,35.4-14.27,54.27-18.42a35.31,35.31,0,0,0,9.88-.44C178.22,252.86,178.17,252.6,178,252.54Z" style="fill:#e6334b"/><path d="M382,84.76a1.49,1.49,0,0,1-.81-1.27c-.34-12.33.31-24.66.94-37,.29-5.74-.84-13.34.55-19.61a57.88,57.88,0,0,1,.76-8.25c0-.1,0-.2,0-.3s0-.11,0-.16h0a5.76,5.76,0,0,1,6.19-4.83h.15a5.6,5.6,0,0,1,1.92.31,14.51,14.51,0,0,1,1.44.4c8.68-4.22,20.12-2.83,30-2.35a30.41,30.41,0,0,1,4,.14,7.65,7.65,0,0,1,6.83,6.28c10.68-4.86,21.77-6.82,29.24-.83,2,1.6,1.81,5.22,0,6.85-6,5.43-14.25,4.18-21.89,6.22-9.88,2.64-18.86,8.42-26.63,14.88-15,12.46-26.64,30.45-33.61,48.6,0,.09-.19.09-.18,0A89.16,89.16,0,0,1,382,84.76Z" style="fill:#e6334b"/><path d="M577.64,252.9a35.31,35.31,0,0,0,9.88.44c18.87,4.15,38.13,6.81,54.27,18.42,8.3,6,15.93,12.89,20.48,22.25,4.22,8.69,5.58,18.21,8.47,27.35,1.22,3.87,7,4.13,8.1,0,3.06-11.47.34-23.67-5.57-34.37,1.83-1.83,2.75-4.38,1.49-6.85-3.54-18.69-8.24-36.65-10.53-55.62-1-8.44-2-17.39-5.15-25.31-2.16-5.38-5.51-11-7.17-16.81,2.76-10.5,2.65-20.86-3.89-28.49-2.77-3.23-6.76.39-6.31,3.67,2.74,20.31-3.84,38.35-14.14,55.84-5.08,8.63-10.95,17.11-18.71,23.58-9.42,7.85-20.09,10.95-31.21,15.54C577.49,252.6,577.44,252.86,577.64,252.9Z" style="fill:#e6334b"/><path d="M268.58,369.09c0,18.24-11,33-24.64,33s-24.64-14.78-24.64-33c0-10.06,3.36-19.07,8.65-25.12,4.3-4.93,9.89,5.24,16,5.24s11.94-10,16.28-4.91C265.34,350.35,268.58,359.21,268.58,369.09Z" style="fill:#f39200"/><path d="M227.61,364.3c15.82,9.12,23.13,26,16.33,37.81S218.79,416,203,406.9c-8.72-5-14.86-12.43-17.47-20-2.13-6.18,9.49-5.93,12.54-11.2s-2.74-15.34,3.88-16.53C209.73,357.73,219,359.36,227.61,364.3Z" style="fill:#f39200"/><path d="M203,397.32c15.82-9.12,34.16-7,41,4.79s-.51,28.69-16.33,37.81c-8.72,5-18.22,6.63-26.12,5.09-6.43-1.26-.39-11.17-3.45-16.45s-14.67-5.3-12.39-11.62C188.33,409.49,194.4,402.26,203,397.32Z" style="fill:#f39200"/><path d="M219.3,435.14c0-18.24,11-33,24.64-33s24.64,14.79,24.64,33c0,10.06-3.35,19.06-8.64,25.12-4.3,4.94-9.89-5.24-16-5.24s-11.94,10-16.27,4.91C222.53,453.88,219.3,445,219.3,435.14Z" style="fill:#f39200"/><path d="M260.27,439.92c-15.83-9.12-23.14-26-16.33-37.81s25.14-13.9,41-4.78c8.73,5,14.86,12.43,17.48,20,2.13,6.19-9.5,5.93-12.55,11.21s2.74,15.34-3.88,16.53C278.14,446.5,268.83,444.86,260.27,439.92Z" style="fill:#f39200"/><path d="M284.9,406.9c-15.82,9.12-34.16,7-41-4.79s.51-28.69,16.33-37.81c8.72-5,18.22-6.63,26.12-5.09,6.43,1.26.39,11.17,3.44,16.45s14.68,5.3,12.4,11.62C299.54,394.73,293.47,402,284.9,406.9Z" style="fill:#f39200"/><ellipse cx="243.94" cy="402.12" rx="20.32" ry="20.29" style="fill:#f39200"/><ellipse cx="243.95" cy="402.12" rx="9.49" ry="9.47" style="fill:#3c3c3b"/><path d="M236.92,368.57c-.77-3.63-1.09-7.34-1.72-11a.17.17,0,0,0-.32,0c-1.05,6.33-1.87,17.54,3.71,22.14a1,1,0,0,0,1.73-1C239.66,375.22,237.67,372.11,236.92,368.57Z" style="fill:#3c3c3b"/><path d="M250.71,355.58a.21.21,0,0,0-.4,0c-.75,3.27-.64,6.68-.84,10a33.88,33.88,0,0,1-3.32,12.55c-.86,1.86,1.71,3.44,2.79,1.62C252.75,373.35,252.38,362.61,250.71,355.58Z" style="fill:#3c3c3b"/><path d="M211.33,391.41c-3.54-1.15-6.92-2.73-10.41-4a.17.17,0,0,0-.16.27c5,4.07,14.27,10.39,21.06,7.87a1,1,0,0,0,0-2C218.47,392.36,214.77,392.53,211.33,391.41Z" style="fill:#3c3c3b"/><path d="M207,373a.2.2,0,0,0-.2.33c2.47,2.29,5.48,3.9,8.28,5.74a34.19,34.19,0,0,1,9.23,9.14c1.18,1.68,3.84.25,2.8-1.59C223.39,380.11,213.89,375.06,207,373Z" style="fill:#3c3c3b"/><path d="M218.34,425c-2.77,2.48-5.82,4.61-8.68,7-.12.1,0,.33.16.28,6-2.26,16.15-7.15,17.35-14.27a1,1,0,0,0-1.75-1C222.74,419.25,221,422.54,218.34,425Z" style="fill:#3c3c3b"/><path d="M200.18,419.52a.21.21,0,0,0,.2.34c3.22-1,6.12-2.79,9.12-4.29a34.18,34.18,0,0,1,12.54-3.4c2-.19,2.14-3.2,0-3.23C214.58,408.87,205.44,414.57,200.18,419.52Z" style="fill:#3c3c3b"/><path d="M251,435.66c.76,3.64,1.09,7.34,1.72,11a.17.17,0,0,0,.32,0c1-6.33,1.87-17.54-3.7-22.14a1,1,0,0,0-1.73,1C248.21,429,250.2,432.12,251,435.66Z" style="fill:#3c3c3b"/><path d="M237.16,448.64a.2.2,0,0,0,.39,0c.76-3.27.65-6.68.84-10a34,34,0,0,1,3.32-12.55c.86-1.85-1.71-3.45-2.79-1.63C235.12,430.88,235.49,441.62,237.16,448.64Z" style="fill:#3c3c3b"/><path d="M276.55,412.82c3.54,1.15,6.92,2.73,10.4,4,.15.05.28-.18.16-.28-5-4.07-14.28-10.39-21.06-7.87a1,1,0,0,0,0,2C269.4,411.87,273.1,411.69,276.55,412.82Z" style="fill:#3c3c3b"/><path d="M280.91,431.24a.2.2,0,0,0,.2-.34c-2.46-2.29-5.47-3.89-8.27-5.74a34,34,0,0,1-9.22-9.14c-1.18-1.67-3.85-.25-2.81,1.59C264.48,424.11,274,429.17,280.91,431.24Z" style="fill:#3c3c3b"/><path d="M269.53,379.27c2.78-2.48,5.83-4.61,8.69-7a.17.17,0,0,0-.16-.27c-6,2.25-16.15,7.15-17.36,14.27a1,1,0,0,0,1.75,1C265.13,385,266.83,381.69,269.53,379.27Z" style="fill:#3c3c3b"/><path d="M287.69,384.7a.21.21,0,0,0-.2-.34c-3.22,1-6.12,2.79-9.12,4.29a34,34,0,0,1-12.55,3.4c-2,.19-2.14,3.2,0,3.22C273.3,395.35,282.43,389.66,287.69,384.7Z" style="fill:#3c3c3b"/><path d="M534.87,369.09c0,18.24-11,33-24.64,33s-24.64-14.78-24.64-33C485.6,359,489,350,494.25,344c4.3-4.93,9.89,5.24,16,5.24s11.93-10,16.27-4.91C531.64,350.35,534.87,359.21,534.87,369.09Z" style="fill:#f39200"/><path d="M493.91,364.3c15.82,9.12,23.13,26,16.33,37.81s-25.14,13.91-41,4.79c-8.73-5-14.86-12.43-17.48-20-2.12-6.18,9.5-5.93,12.55-11.2s-2.74-15.34,3.88-16.53C476,357.73,485.34,359.36,493.91,364.3Z" style="fill:#f39200"/><path d="M469.27,397.32c15.82-9.12,34.16-7,41,4.79s-.51,28.69-16.34,37.81c-8.72,5-18.21,6.63-26.12,5.09-6.43-1.26-.39-11.17-3.45-16.45s-14.67-5.3-12.4-11.62C454.62,409.49,460.7,402.26,469.27,397.32Z" style="fill:#f39200"/><path d="M485.6,435.14c0-18.24,11-33,24.64-33s24.63,14.79,24.63,33c0,10.06-3.35,19.06-8.64,25.12-4.3,4.94-9.89-5.24-16-5.24s-11.94,10-16.28,4.91C488.83,453.88,485.6,445,485.6,435.14Z" style="fill:#f39200"/><path d="M526.56,439.92c-15.82-9.12-23.13-26-16.32-37.81s25.14-13.9,41-4.78c8.73,5,14.86,12.43,17.48,20,2.12,6.19-9.49,5.93-12.55,11.21s2.73,15.34-3.88,16.53C544.44,446.5,535.13,444.86,526.56,439.92Z" style="fill:#f39200"/><path d="M551.2,406.9c-15.83,9.12-34.16,7-41-4.79s.51-28.69,16.33-37.81c8.72-5,18.21-6.63,26.11-5.09,6.43,1.26.4,11.17,3.45,16.45s14.68,5.3,12.4,11.62C565.84,394.73,559.77,402,551.2,406.9Z" style="fill:#f39200"/><ellipse cx="510.24" cy="402.12" rx="20.32" ry="20.29" style="fill:#f39200"/><ellipse cx="510.24" cy="402.12" rx="9.48" ry="9.47" style="fill:#3c3c3b"/><path d="M503.22,368.57c-.76-3.63-1.09-7.34-1.72-11a.16.16,0,0,0-.31,0c-1.05,6.33-1.88,17.54,3.7,22.14a1,1,0,0,0,1.74-1C506,375.22,504,372.11,503.22,368.57Z" style="fill:#3c3c3b"/><path d="M517,355.58a.2.2,0,0,0-.39,0c-.75,3.27-.64,6.68-.84,10a34.07,34.07,0,0,1-3.32,12.55c-.86,1.86,1.71,3.44,2.79,1.62C519.05,373.35,518.68,362.61,517,355.58Z" style="fill:#3c3c3b"/><path d="M477.63,391.41c-3.53-1.15-6.91-2.73-10.41-4a.17.17,0,0,0-.16.27c5,4.07,14.28,10.39,21.06,7.87a1,1,0,0,0,0-2C484.77,392.36,481.07,392.53,477.63,391.41Z" style="fill:#3c3c3b"/><path d="M473.26,373a.2.2,0,0,0-.2.33c2.47,2.29,5.48,3.9,8.28,5.74a34.17,34.17,0,0,1,9.22,9.14c1.18,1.68,3.84.25,2.81-1.59C489.69,380.11,480.19,375.06,473.26,373Z" style="fill:#3c3c3b"/><path d="M484.64,425c-2.77,2.48-5.83,4.61-8.69,7a.17.17,0,0,0,.16.28c6-2.26,16.15-7.15,17.36-14.27a1,1,0,0,0-1.75-1C489,419.25,487.34,422.54,484.64,425Z" style="fill:#3c3c3b"/><path d="M466.48,419.52a.21.21,0,0,0,.2.34c3.22-1,6.12-2.79,9.11-4.29a34.23,34.23,0,0,1,12.55-3.4c2-.19,2.14-3.2,0-3.23C480.87,408.87,471.74,414.57,466.48,419.52Z" style="fill:#3c3c3b"/><path d="M517.25,435.66c.77,3.64,1.09,7.34,1.72,11a.17.17,0,0,0,.32,0c1-6.33,1.87-17.54-3.71-22.14a1,1,0,0,0-1.73,1C514.5,429,516.5,432.12,517.25,435.66Z" style="fill:#3c3c3b"/><path d="M503.46,448.64a.2.2,0,0,0,.39,0c.75-3.27.65-6.68.84-10A34,34,0,0,1,508,426.07c.86-1.85-1.7-3.45-2.78-1.63C501.42,430.88,501.79,441.62,503.46,448.64Z" style="fill:#3c3c3b"/><path d="M542.84,412.82c3.54,1.15,6.92,2.73,10.41,4a.17.17,0,0,0,.16-.28c-5-4.07-14.28-10.39-21.06-7.87a1,1,0,0,0,0,2C535.7,411.87,539.4,411.69,542.84,412.82Z" style="fill:#3c3c3b"/><path d="M547.22,431.24a.2.2,0,0,0,.2-.34c-2.46-2.29-5.47-3.89-8.28-5.74a34.17,34.17,0,0,1-9.22-9.14c-1.18-1.67-3.85-.25-2.8,1.59C530.78,424.11,540.28,429.17,547.22,431.24Z" style="fill:#3c3c3b"/><path d="M535.83,379.27c2.77-2.48,5.83-4.61,8.69-7a.17.17,0,0,0-.17-.27c-6,2.25-16.14,7.15-17.35,14.27a1,1,0,0,0,1.75,1C531.43,385,533.13,381.69,535.83,379.27Z" style="fill:#3c3c3b"/><path d="M554,384.7a.21.21,0,0,0-.2-.34c-3.22,1-6.12,2.79-9.12,4.29a34,34,0,0,1-12.55,3.4c-2,.19-2.14,3.2,0,3.22C539.6,395.35,548.73,389.66,554,384.7Z" style="fill:#3c3c3b"/><path d="M677.61,229.53c-10.64-49.06-33-94.34-66.35-134.61-65.5-79-158.88-89.15-232.92-89.15S210.92,15.9,145.41,94.91C112,135.18,89.7,180.47,79.06,229.53a296.43,296.43,0,0,0,3.41,139.91c15.19,56,12.64,79.87,10.33,84.49l-.38.85c-.5,1.43-12,35.2,5.47,65.85,8.27,14.53,21.49,25.76,39.45,33.58,2,8.55,9,14.94,14.93,21.3.07.07.2,0,.14-.11C149.81,572,148,568,146,564.27a23.76,23.76,0,0,1-2.39-7.52,151.69,151.69,0,0,0,22.52,6.3c78.17,15.84,73.57,53.17,69.87,83.19-.54,4.32-1,8.41-1.23,12.16l-.36,7.22,143.85,1h0l143.86-1-.36-7.21c-.19-3.76-.69-7.84-1.23-12.19-3.7-30-8.3-67.32,69.88-83.16,33.1-6.71,56.08-21,68.29-42.43,17.47-30.71,6-64.42,5.47-65.85l-.39-.9c-2.28-4.51-4.85-28.46,10.34-84.44A296.48,296.48,0,0,0,677.61,229.53ZM660.83,365.82c-18.09,66.66-12.05,88.48-9.54,93.87,1.24,3.88,8.89,30.46-4.55,54.1-5.58,9.82-14.14,17.87-25.53,24.1a83.37,83.37,0,0,1-10.3,3.05c-11.78,2.59-24,2.13-36,2.69-21.82,1-38.13,6-56.38,18.06-.1.07,0,.25.09.21a198.16,198.16,0,0,1,30.42-9.82c10.26-2.25,21-1.32,31.49-1-35.31,8.26-57.68,22.29-68.29,42.77-9.73,18.77-7.32,38.34-5.38,54.07l0,.33.44,3.65-129,.87-129-.87q.23-1.92.48-4c1.94-15.73,4.35-35.3-5.37-54.07-9.35-18-27.83-31-56.21-39.54,16.67.13,33.91.74,48.56,9.22a.17.17,0,0,0,.21-.26c-10.35-11.31-29.43-15.41-43.92-17.72-11.28-1.8-22.87-.53-34.16-2.5-9.48-1.65-18.24-5.55-27.6-7.58-9.31-5.84-16.46-13-21.35-21.6-13.44-23.56-5.81-50.26-4.58-54.17,2.51-5.39,8.55-27.23-9.54-93.86A282.54,282.54,0,0,1,92.6,232.45c10.16-46.86,31.52-90.17,63.48-128.72C215.58,32,300.63,20.42,370.23,19.65c.15,0,.3,0,.45-.07-.43,16.91.1,33.89.25,50.8.16,18-1.28,37.29,2.76,54.94-7.71,7.61-13.82-4.52-17.78-10.79-4.5-7.12-8.13-14.76-11.77-22.33-10.83-22.5-33.92-35.51-57.71-39.53-29.39-5-92.61,5.43-85,46.43.1.52.9.38.9-.12.26-24,23.73-34.77,44-39,23.22-4.78,50-.28,69.52,13.19C334.06,85.8,339,108,350.61,125.48c4.93,7.4,14.65,15.09,21.69,12.71-.38,8.56.26,17.34.22,25.72a243.61,243.61,0,0,0,1.54,28.71c-6.44-1.37-12-3.11-17.77-9.25-8.06-8.59-12.93-20.7-17.3-31.44-8.1-19.92-13.28-43.45-30.06-58.15-18-15.8-58.47-26.26-74.75-2-5.58,8.33-7.26,18.79-2,27.72,3.87,6.58,11.21,4.59,14.19-1.29a.39.39,0,0,0-.54-.53c-8.25,3.64-10.19-3.09-10.21-9.7,0-8.66,5.61-14.83,12.64-19,13.69-8.21,32.39-3.51,45.19,3.88C311,103,317.15,123,323.76,140.94c5.89,16,11.56,33.23,22.58,46.54,6.57,7.93,17.85,16.22,28.85,16,0,.46,0,.91-.07,1.37-15.17,10-31.17-.08-41.26-13.33-8.72-11.45-9.07-26.5-12.51-39.93-4.49-17.54-18.5-28.45-36.22-30.48-14.5-1.66-25.1,13-17.11,25.81,4.82,7.7,24.37,11.82,23.49-1.42,0-.12-.18-.19-.24-.07-6.5,12-22.93.82-21.14-10.26,1.87-11.56,15.24-10,23.33-7.41,20.77,6.58,22.92,26.77,26.22,45.38,2.83,16,12,28.51,25.52,37.29,10.22,6.66,23.5,8,32-.38,8.51,8.34,21.79,7,32,.38,13.47-8.78,22.69-21.33,25.52-37.29,3.3-18.6,5.44-38.79,26.22-45.38,8.08-2.56,21.45-4.15,23.33,7.41,1.79,11.08-14.64,22.23-21.14,10.26-.06-.12-.23-.06-.24.07-.88,13.24,18.67,9.12,23.48,1.42,8-12.78-2.6-27.47-17.11-25.81-17.72,2-31.73,12.94-36.22,30.48-3.44,13.43-3.79,28.49-12.51,39.93-10.09,13.25-26.08,23.28-41.26,13.33,0-.46,0-.91-.08-1.37,11,.26,22.28-8,28.85-16,11-13.31,16.69-30.56,22.58-46.54C437.26,123,443.36,103,461,92.85c12.79-7.39,31.49-12.09,45.19-3.88,7,4.22,12.67,10.39,12.65,19,0,6.62-2,13.35-10.21,9.7a.39.39,0,0,0-.54.53c3,5.87,10.33,7.86,14.19,1.29,5.25-8.93,3.57-19.38-2-27.72-16.27-24.31-56.7-13.84-74.75,2-16.79,14.7-22,38.23-30.07,58.15-4.36,10.74-9.23,22.86-17.3,31.44-6.27,6.67-12.29,8.16-19.46,9.61,0-.57,0-1.14,0-1.71a215.5,215.5,0,0,0,1.92-22.86c.25-9.85,1.41-20.32,1-30.43,7.07,3,17.19-4.9,22.26-12.51C415.45,108,420.35,85.8,438.58,73.22c19.54-13.48,46.31-18,69.53-13.19,20.26,4.18,43.74,15,44,39,0,.5.8.65.9.12,7.58-41-55.64-51.39-85-46.43-23.79,4-46.89,17-57.71,39.53a221.33,221.33,0,0,1-11.77,22.33c-3.92,6.21-10,18.15-17.57,11,3.82-16.25,3.17-33.87,3.84-50.45.75-18.57,2-37.27,1.63-55.87.55.15,1.1.3,1.62.49,69.31.93,153.53,12.84,212.57,84.06,32,38.55,53.32,81.86,63.48,128.72A282.54,282.54,0,0,1,660.83,365.82Z" style="fill:#3c3c3b"/><path d="M370.8,229.14c-1.05,7.26-.26,12.88,1.24,20s2.7,14.52,4.85,21.33a.9.9,0,0,0,1.71,0c1.83-6.06,2-12.51,3.58-18.68s3.21-12,4.09-18.36C387.68,223.33,372.29,218.93,370.8,229.14Z" style="fill:#3c3c3b"/><path d="M253.72,649.87s-1.09-12-7.47-14.24-9.8,3.2-9.33,15.57,1.87,21,13.07,22.28S253.72,649.87,253.72,649.87Z" style="fill:#f9efe1"/><path d="M250.79,675.62h0a9.59,9.59,0,0,1-1-.06c-13-1.48-14.46-11.87-14.92-24.28-.29-7.84.93-13.24,3.63-16,2.11-2.19,5.13-2.77,8.5-1.58,7.13,2.52,8.62,13.72,8.84,15.82.74,2.52,4.88,17.53.41,23.52A6.48,6.48,0,0,1,250.79,675.62Zm-7.16-38.39a2.81,2.81,0,0,0-2.15.92c-1.06,1.1-2.79,4.24-2.46,13,.5,13.19,2.23,19.26,11.21,20.27a4.87,4.87,0,0,0,.57,0h0a2.31,2.31,0,0,0,2-.94c2.54-3.4.66-14.08-1.12-20l-.08-.41c-.28-3-1.91-11-6.08-12.46A5.83,5.83,0,0,0,243.63,637.23Z" style="fill:#3c3c3b"/><path d="M378.3,665.9s.4,7.92-6.53,7.92h-28s-7.93,0-5.59-13.06,8.35-33.53,20-33.53C378.7,627.24,378.3,665.9,378.3,665.9Z" style="fill:#f9efe1"/><path d="M371.77,675.92h-28A7.86,7.86,0,0,1,338,673c-2.3-2.74-2.94-7-1.94-12.65,1.9-10.6,7.85-35.26,22.11-35.26a16.1,16.1,0,0,1,11.79,5c10.52,10.61,10.4,34.78,10.39,35.79,0,.36.15,4.7-2.61,7.6A8.07,8.07,0,0,1,371.77,675.92Zm-13.55-46.58c-9.07,0-15.23,16.43-18,31.8-.77,4.31-.42,7.5,1,9.22a3.79,3.79,0,0,0,2.5,1.37h28a3.87,3.87,0,0,0,3-1.1,7.18,7.18,0,0,0,1.46-4.62c0-.36.11-23.56-9.18-32.93A11.87,11.87,0,0,0,358.22,629.34Z" style="fill:#3c3c3b"/><path d="M313.3,650.53s1.08-14.44-9.19-23.29-13.53,7.45-13.53,14-1.4,28.88,2.8,32.61S312.69,673.82,313.3,650.53Z" style="fill:#f9efe1"/><path d="M297.31,677.17h0a8,8,0,0,1-5.32-1.78c-3.55-3.15-4-13.35-3.59-29.91,0-1.74.09-3.21.09-4.26,0-4.84,1.87-18.65,10.16-18.65,2.16,0,4.47,1,6.84,3.09,10.94,9.43,10,24.4,9.91,25C314.85,671.61,303.32,677.17,297.31,677.17Zm1.34-50.41c-3.64,0-6,8.56-6,14.45,0,1.08,0,2.58-.08,4.36-.16,6.62-.61,24.2,2.18,26.67a4,4,0,0,0,2.53.72h0c5.35,0,13.46-6,13.89-22.5,0-.23.85-13.62-8.46-21.65C301.17,627.48,299.76,626.76,298.65,626.76Z" style="fill:#3c3c3b"/><path d="M339.79,653.26s4-23.7-4.41-29.28-28,29.34-24.73,45.64C310.65,669.63,337.2,685.34,339.79,653.26Z" style="fill:#f9efe1"/><path d="M324,675.57h0c-7.37,0-14.17-4-14.45-4.14l-.8-.48-.19-.92c-2.3-11.48,5.75-31.25,14.42-41.81,3.79-4.61,7.28-6.95,10.37-6.95a5.59,5.59,0,0,1,3.17,1c9.16,6.1,5.82,28.33,5.33,31.28C340.37,671.75,331.35,675.57,324,675.57Zm-11.49-7.31c1.88,1,6.64,3.11,11.49,3.11,8.09,0,12.69-6.15,13.66-18.29l0-.18c1.45-8.65,1.78-23.68-3.51-27.2a1.43,1.43,0,0,0-.83-.25c-.63,0-3,.39-7.12,5.41C318.44,640.4,311.15,658.05,312.54,668.27Z" style="fill:#3c3c3b"/><path d="M290.36,649.87l-6.78-14.24s-7-7.92-7.93,1.86-4.2,23.28-4.2,23.28-2.8,8.86,5.6,8.86S291.54,673,290.36,649.87Z" style="fill:#f9efe1"/><path d="M282.29,671.89h0c-.8,0-1.63,0-2.5-.08s-1.8-.08-2.74-.08c-3.79,0-5.73-1.58-6.7-2.9-2.39-3.24-1.17-7.8-.93-8.61a202.85,202.85,0,0,0,4.14-22.93c.57-5.91,3.43-6.79,5.09-6.79,3.05,0,6,3.11,6.51,3.73l.2.22,7.08,14.89,0,.41c.56,10.85-.41,16.74-3.23,19.71C287.19,671.6,284.58,671.89,282.29,671.89Zm-3.65-37.2s-.67.47-.91,3c-.94,9.82-4.12,23-4.25,23.58l0,.14c-.26.83-.76,3.55.28,5,.58.78,1.69,1.17,3.31,1.17,1,0,2,0,2.94.09s1.57.07,2.3.07h0c2,0,3.12-.31,3.89-1.11,1.84-1.94,2.53-7.24,2.1-16.19l-6.46-13.58C280.84,635.78,279.36,634.69,278.65,634.69Z" style="fill:#3c3c3b"/><path d="M273.52,651.2S270,642.61,264.45,638s-10.26-1.79-10.73,11.92.59,21.23,9.9,19.93S272.36,657.62,273.52,651.2Z" style="fill:#f9efe1"/><path d="M261.67,672h0a8.77,8.77,0,0,1-6.57-2.52c-3.36-3.46-3.81-9.86-3.48-19.72.45-13.24,4.74-16,8.26-16a9.42,9.42,0,0,1,5.91,2.56c5.94,4.94,9.52,13.69,9.67,14.07l.23.56-.11.6c-.19,1-.33,2.22-.48,3.47-.74,6.18-1.87,15.52-11.2,16.83A15.89,15.89,0,0,1,261.67,672ZM259.88,638c-1.69,0-3.76,3.13-4.07,12-.28,8.28,0,14.29,2.31,16.67a4.49,4.49,0,0,0,3.54,1.24h0a12.68,12.68,0,0,0,1.66-.12c5.69-.8,6.74-6,7.61-13.18.13-1.09.25-2.12.41-3.09-.83-1.87-3.88-8.27-8.24-11.89A5.71,5.71,0,0,0,259.88,638Z" style="fill:#3c3c3b"/><path d="M503,649.87s1.09-12,7.47-14.24,9.8,3.2,9.33,15.57-1.87,21-13.07,22.28S503,649.87,503,649.87Z" style="fill:#f9efe1"/><path d="M505.88,675.62a6.48,6.48,0,0,1-5.41-2.63c-4.47-6-.33-21,.41-23.52.22-2.1,1.7-13.3,8.84-15.82,3.37-1.18,6.39-.6,8.5,1.58,2.7,2.81,3.92,8.2,3.63,16-.47,12.41-1.91,22.8-14.92,24.28A9.68,9.68,0,0,1,505.88,675.62ZM513,637.23a5.83,5.83,0,0,0-1.92.38c-4.17,1.47-5.82,9.69-6.07,12.46l-.08.41c-1.78,5.94-3.66,16.62-1.12,20a2.57,2.57,0,0,0,2.61.91c9-1,10.71-7.08,11.2-20.27.33-8.73-1.4-11.88-2.45-13A2.82,2.82,0,0,0,513,637.23Z" style="fill:#3c3c3b"/><path d="M378.37,665.9s-.39,7.92,6.53,7.92h28s7.93,0,5.6-13.06-8.35-33.53-20-33.53C378,627.24,378.37,665.9,378.37,665.9Z" style="fill:#f9efe1"/><path d="M412.9,675.92h-28a8.07,8.07,0,0,1-6-2.4c-2.77-2.9-2.64-7.24-2.61-7.72,0-.9-.13-25.06,10.39-35.67a16.13,16.13,0,0,1,11.79-5c14.26,0,20.22,24.66,22.12,35.26,1,5.65.36,9.91-1.94,12.66A7.85,7.85,0,0,1,412.9,675.92Zm-14.45-46.58a11.89,11.89,0,0,0-8.81,3.74c-9.29,9.37-9.18,32.57-9.18,32.8,0,.95.16,3.41,1.47,4.76a3.91,3.91,0,0,0,3,1.09h28a3.8,3.8,0,0,0,2.59-1.43c1.4-1.74,1.74-4.91,1-9.16C413.68,645.76,407.51,629.34,398.45,629.34Z" style="fill:#3c3c3b"/><path d="M443.37,650.53s-1.08-14.44,9.19-23.29,13.53,7.45,13.53,14,1.4,28.88-2.8,32.61S444,673.82,443.37,650.53Z" style="fill:#f9efe1"/><path d="M459.36,677.17c-6,0-17.54-5.56-18.09-26.58,0-.53-1-15.5,9.91-24.93,2.38-2,4.67-3.08,6.84-3.08,8.29,0,10.17,13.81,10.17,18.65,0,1.05,0,2.52.08,4.26.41,16.56,0,26.76-3.59,29.91A8,8,0,0,1,459.36,677.17ZM458,626.76c-1.11,0-2.53.71-4.1,2.06-9.31,8-8.47,21.42-8.47,21.55C445.91,667,454,673,459.36,673a4,4,0,0,0,2.53-.72c2.78-2.47,2.35-20.05,2.18-26.67,0-1.78-.08-3.29-.08-4.36C464,635.32,461.67,626.76,458,626.76Z" style="fill:#3c3c3b"/><path d="M416.88,653.26s-4-23.7,4.41-29.28,28,29.34,24.73,45.64C446,669.63,419.48,685.34,416.88,653.26Z" style="fill:#f9efe1"/><path d="M432.64,675.57c-7.32,0-16.34-3.83-17.84-22.05-.49-3-3.83-25.18,5.33-31.28a5.59,5.59,0,0,1,3.17-1c3.1,0,6.59,2.34,10.37,6.95,8.67,10.55,16.72,30.33,14.42,41.81l-.18.92-.81.48C446.81,671.6,440,675.57,432.64,675.57Zm-9.35-50.1a1.43,1.43,0,0,0-.83.25c-5.29,3.52-5,18.55-3.51,27.2l0,.18c1,12.13,5.58,18.29,13.66,18.29a27.16,27.16,0,0,0,11.48-3.11c1.4-10.22-5.89-27.87-13.7-37.39C426.3,625.87,423.93,625.48,423.3,625.48Z" style="fill:#3c3c3b"/><path d="M466.31,649.87l6.78-14.24s7-7.92,7.93,1.86,4.2,23.28,4.2,23.28,2.8,8.86-5.6,8.86S465.14,673,466.31,649.87Z" style="fill:#f9efe1"/><path d="M474.38,671.89c-2.29,0-4.9-.29-6.93-2.43-2.82-3-3.78-8.85-3.23-19.71l0-.41,7.08-14.89.2-.22c.55-.62,3.45-3.73,6.51-3.73,1.66,0,4.52.88,5.09,6.79.87,9.19,3.9,21.94,4.13,22.93.25.81,1.46,5.37-.92,8.61-1,1.32-2.92,2.9-6.7,2.9-.95,0-1.86,0-2.74.08S475.17,671.89,474.38,671.89Zm-6-21.5c-.43,9,.26,14.25,2.1,16.19.77.8,1.86,1.11,3.89,1.11.73,0,1.5,0,2.3-.07s1.93-.09,2.94-.09c1.62,0,2.74-.4,3.32-1.18,1.07-1.46.49-4.27.28-4.95l0-.14a205.76,205.76,0,0,1-4.25-23.58c-.24-2.52-.87-3-.87-3-.79,0-2.32,1.17-3.22,2.11Z" style="fill:#3c3c3b"/><path d="M483.15,651.2s3.47-8.58,9.07-13.24,10.27-1.79,10.74,11.92-.59,21.23-9.9,19.93S484.31,657.62,483.15,651.2Z" style="fill:#f9efe1"/><path d="M495,672a16,16,0,0,1-2.25-.17c-9.33-1.31-10.45-10.65-11.2-16.83-.15-1.26-.29-2.44-.48-3.47l-.1-.6.22-.56c.15-.37,3.74-9.13,9.67-14.07a9.45,9.45,0,0,1,5.92-2.56c3.52,0,7.81,2.77,8.26,16,.34,9.86-.13,16.25-3.48,19.72A8.73,8.73,0,0,1,495,672Zm-9.68-20.58c.16,1,.28,2,.41,3.09.87,7.21,1.93,12.38,7.61,13.18a12.72,12.72,0,0,0,1.66.12,4.51,4.51,0,0,0,3.55-1.24c2.3-2.38,2.58-8.38,2.3-16.67-.3-8.83-2.38-12-4.07-12a5.75,5.75,0,0,0-3.23,1.59C489.21,643.19,486.16,649.59,485.32,651.46Z" style="fill:#3c3c3b"/><path d="M348.21,580.85c-21.25,7.63-37.53,22.47-60.83,25.3C272.89,607.92,257,602.25,255,586c-1.59-12.69,9.92-29.87,24-23.35,6.29,2.92,17.88,19.88,4.2,19.63-7.1-.13-13.8-3.8-3.57-7.34.47-.16.42-.92-.12-.9-3.61.17-12.55,1.17-9.36,7,2.81,5.12,12,6,17,5.27,17.69-2.43-3.66-39.18-23.37-29.31-11.48,5.74-19.11,19.74-16.05,32.59,3.92,16.45,17.85,24.08,33.91,24.51,16.76.45,32.84-7,47.18-14.82,7.8-4.25,15.27-9,23.67-12.09,12.08-4.38,15.49,3.58,20,13.17.57,1.21,2.79,1,3-.39C377.94,581.78,363.59,575.34,348.21,580.85Z" style="fill:#3c3c3b"/><path d="M403.79,580.85c21.25,7.63,37.53,22.47,60.84,25.3C479.11,607.92,495,602.25,497,586c1.6-12.69-9.91-29.87-24-23.35-6.29,2.92-17.88,19.88-4.2,19.63,7.11-.13,13.8-3.8,3.57-7.34-.47-.16-.42-.92.12-.9,3.61.17,12.55,1.17,9.35,7-2.81,5.12-12,6-17,5.27-17.69-2.43,3.66-39.18,23.37-29.31,11.48,5.74,19.12,19.74,16.06,32.59-3.92,16.45-17.86,24.08-33.91,24.51-16.76.45-32.84-7-47.18-14.82-7.8-4.25-15.28-9-23.67-12.09-12.09-4.38-15.49,3.58-20,13.17a1.64,1.64,0,0,1-3-.39C374.05,581.78,388.41,575.34,403.79,580.85Z" style="fill:#3c3c3b"/><path d="M266.35,185.35c-2.25,1-5.16.75-7.53,1.11a67.06,67.06,0,0,0-10.72,2.31c-3.51,1.13-7.64,2.56-10.23,5.34s-2.62,5.68-2.79,9.35a1.39,1.39,0,0,1-.38.87c1.76.95,3.51,1.91,5.28,2.83l1.46.75c5.8-1.4,10.77-3.45,15.35-7.9A39.93,39.93,0,0,0,266.35,185.35Z" style="fill:#3aaa61"/><path d="M234.52,214c-.83-.4-1.68-.78-2.5-1.19-.75,16.16,3.59,35.6,19.84,41.06C257.48,239,246.92,223.07,234.52,214Z" style="fill:#3aaa61"/><path d="M237.26,168.16c-6,.63-12.54-.34-18.41,0-8.78.59-17.72,3.12-24.16,9.17,2.5,2.24,5.11,4.35,7.75,6.41,7.82.89,15.55.28,22.64-3.93C230.37,176.72,233.55,172.35,237.26,168.16Z" style="fill:#3aaa61"/><path d="M144.94,183.19c-.44,10.61,4.26,18.93,5.76,28.68C167,200.4,168,172.17,162.09,154.35,152.09,161,145.47,170.25,144.94,183.19Z" style="fill:#3aaa61"/><path d="M296.28,218.49c3.91-3.9,5.69-8.29,7.67-13-3.32,2.74-10.59,4.15-13.27,5.24-7.27,3-13.84,6.78-14.12,14.67A24.13,24.13,0,0,0,296.28,218.49Z" style="fill:#3aaa61"/><path d="M222.24,143.91c-18.37-11.44-36.69-17.3-53.82-.67,1.14,2.31,2.38,4.56,3.67,6.78C188.95,158.35,205.56,150.13,222.24,143.91Z" style="fill:#3aaa61"/><path d="M186.26,200.35a39.84,39.84,0,0,0,0,16.95c1.49,6.08,3.74,12.86,8.34,17.37a78.32,78.32,0,0,0,6.28,5.11c10.17-15.16.08-34.26-10.12-48.12C188.8,194.23,187,196.78,186.26,200.35Z" style="fill:#3aaa61"/><path d="M340.06,278.33c.89,5.22.86,10.54,1.92,15.72a23.42,23.42,0,0,0,8,13.42c.41-1.91,1.15-3.67,1.1-5.76a24,24,0,0,0-2.45-10.57A79.69,79.69,0,0,0,340.06,278.33Z" style="fill:#3aaa61"/><path d="M279,233.51l-5-2.12c2.52,6.62,1.25,14.39,4.57,21.12a29.73,29.73,0,0,0,14.87,14.67c4.56-8.46-3-24.37-10.16-31.76C281.88,234.79,280.46,234.13,279,233.51Z" style="fill:#3aaa61"/><path d="M318.14,252c9.21.09,15.66-5,20.86-12.19-7.49.69-22.64,2-21.51,11.66Z" style="fill:#3aaa61"/><path d="M318.11,257.47c-1.54,3.91-3.11,8-2.79,12.24a32.4,32.4,0,0,0,4.45,13.47,1.17,1.17,0,0,1,.15.46c3.86-3.62,5.87-8.23,4.77-13.8C323.65,264.59,321.06,261.41,318.11,257.47Z" style="fill:#3aaa61"/><path d="M353.39,293.51c-2.73-6.64-8.07-11.59-13.47-16.07,0-.14,0-.27-.06-.4a1.09,1.09,0,0,0-1.22-.82c-3.2-7.3-8.65-13.79-15-19.54,8.77-.59,15.86-9.49,19.67-17.44a1.64,1.64,0,0,0-1.08-2.36,1.77,1.77,0,0,0-1.37-1.22c-5.9-1.44-13.37,1.69-18.54,4.28-4,2-7.08,5.32-7.65,9.38-5.14-3.84-10.43-7.29-15.29-10.34-4.63-2.92-9.37-5.67-14.16-8.34a23,23,0,0,0,11.42-5c6.25-5.05,14.25-15,10.21-23.46a.89.89,0,0,0-1.41-.14.92.92,0,0,0-.39-.38c-2.83-1.29-6.44,1.48-9,2.5a108.86,108.86,0,0,0-13.22,5.86c-5.8,3.25-9.72,8.41-8.86,14.47-8.8-4.6-17.7-9-26.53-13.52,10.17-2.46,17.11-13.07,20.66-23.31a12.45,12.45,0,0,0-.62-5.34,1.21,1.21,0,0,1,0,.14c-.11-.1-.17-.22-.32-.28-3.18-1.37-7.39-.11-10.72.39a53.93,53.93,0,0,0-13.74,3.69c-6.44,2.85-13.19,9.09-10.69,16.55a247.91,247.91,0,0,1-22.34-13.75A26.93,26.93,0,0,0,224,186.85c7.64-3.49,16.66-11.82,19.13-20.32a2.11,2.11,0,0,0,.4-1.67v0a1.12,1.12,0,0,0-1.3-1.37l-.06,0c-8.87-2.16-20-.69-28.94,1s-14.55,5.91-19.2,12.34c-2.35-2.12-4.64-4.31-6.85-6.62a105.35,105.35,0,0,1-11.88-15.09c17.18,8.16,36.83-2.1,54.2-9.11a2.21,2.21,0,0,0,.43-.28,9.08,9.08,0,0,0-.49-1c-.52-.86-1-1.7-1.52-2.57l-.11-.13-.45-.52a.57.57,0,0,1,0-.09c-14.16-13.12-51.47-23.39-59.71.15a129.7,129.7,0,0,1-11.88-43.79c-.39-4.15-7.18-5.85-7.87-1.07-2.58,17.53,3.5,35.75,12.27,51.69a2.28,2.28,0,0,0,.17,1.26l.07.17c-11.14,4.49-18.48,15.55-20.77,27.18-2,10.31-.42,29.26,9.63,35.83l-.08,0a14.16,14.16,0,0,0,3.67,1c9.67-4.68,13.82-18.94,15.95-28.4a83.07,83.07,0,0,0,2.1-20.24,118.71,118.71,0,0,0,15.78,17.39l-.08.08a1.41,1.41,0,0,1-.19,2.45,1.78,1.78,0,0,0-.52.3,1.67,1.67,0,0,1-.16.07c-8.43,6.32-9.14,22.71-7.79,31.5,1.38,9,10.19,27.66,21.76,27.65a1.23,1.23,0,0,0,1.27-.08,11.43,11.43,0,0,0,2.72-.66.8.8,0,0,0,.35-1.32c-.11-.12-.24-.22-.35-.34,11.55-11.78,5.52-35.28-5-49.74a196.6,196.6,0,0,0,16.72,11.16c3.71,2.22,7.5,4.29,11.33,6.3-6.29,15.66,9.12,50.29,23.57,47.62a14.52,14.52,0,0,0,4.23-3l-.18-.05c7-9.95,1-24.07-7.59-34.9,8.31,3.71,16.71,7.24,25.08,10.78-6.31,6.37-1,20.16,2.4,26.7,3.69,7.14,10.17,13.2,18.06,12.68a.42.42,0,0,0,.52.14c.15-.06.28-.14.42-.21a13.35,13.35,0,0,0,2.53-1.83c5.89-6.23-.1-20.52-6.72-29.88a192.13,192.13,0,0,1,22.93,12.8c1.07.7,2,1.46,3,2.2,0,0,0,.07,0,.11a.07.07,0,0,0,0,0,1.68,1.68,0,0,1,.43,1.43s0,.09.09.13-.14.22-.22.32a1.38,1.38,0,0,1-.27.41c-6.23,9.36-6,21.58,3.1,29a1.11,1.11,0,0,0,.59.24l-.22.2a0,0,0,0,0,0,0s0,0,.08,0a4.2,4.2,0,0,0,2.54.55c7.94-2,8.84-13.23,5.5-21.55,3.74,4.19,7.25,8.61,11.07,13v0c-2.69,12.66-2.45,33.25,14.28,34.74a6.33,6.33,0,0,0,.63-.38l.38-.24a3.58,3.58,0,0,0,.41-.43.92.92,0,0,0,0-.23C356.91,305.83,355.52,298.68,353.39,293.51ZM150.7,211.87c-1.51-9.75-6.2-18.07-5.76-28.68.53-12.93,7.15-22.19,17.15-28.84C168,172.17,167,200.4,150.7,211.87Zm17.72-68.64c17.13-16.62,35.45-10.77,53.82.67-16.68,6.22-33.3,14.44-50.15,6.11C170.8,147.79,169.57,145.54,168.42,143.23Zm32.4,96.55a78.32,78.32,0,0,1-6.28-5.11c-4.6-4.52-6.85-11.3-8.34-17.37a39.84,39.84,0,0,1,0-16.95c.69-3.58,2.54-6.12,4.44-8.68C200.9,205.52,211,224.62,200.83,239.78Zm1.61-56c-2.64-2.06-5.24-4.17-7.75-6.41,6.44-6.05,15.38-8.59,24.16-9.17,5.87-.39,12.39.59,18.41,0-3.71,4.18-6.89,8.56-12.18,11.7C218,184.07,210.25,184.68,202.44,183.79Zm49.42,70c-16.25-5.47-20.59-24.9-19.84-41.06.82.41,1.67.79,2.5,1.19C246.92,223.07,257.48,239,251.85,253.84Zm-10.41-45.92-1.46-.75c-1.77-.93-3.53-1.88-5.28-2.83a1.39,1.39,0,0,0,.38-.87c.16-3.67.1-6.47,2.79-9.35s6.72-4.21,10.23-5.34a67.06,67.06,0,0,1,10.72-2.31c2.37-.35,5.28-.12,7.53-1.11A39.93,39.93,0,0,1,256.8,200C252.21,204.47,247.24,206.52,241.44,207.92Zm49.23,2.8c2.68-1.09,10-2.49,13.27-5.24-2,4.72-3.76,9.11-7.67,13a24.13,24.13,0,0,1-19.72,6.9C276.84,217.5,283.4,213.69,290.67,210.72Zm2.79,56.47a29.73,29.73,0,0,1-14.87-14.67c-3.31-6.74-2-14.5-4.57-21.12l5,2.12c1.44.62,2.86,1.28,4.28,1.92C290.48,242.82,298,258.72,293.46,267.19ZM339,239.81c-5.2,7.22-11.65,12.27-20.86,12.19l-.65-.53C316.36,241.76,331.51,240.5,339,239.81Zm-19.08,43.82a1.17,1.17,0,0,0-.15-.46,32.4,32.4,0,0,1-4.45-13.47c-.32-4.23,1.25-8.33,2.79-12.24,2.95,3.95,5.54,7.12,6.58,12.36C325.78,275.4,323.78,280,319.92,283.63Zm30,23.83A23.42,23.42,0,0,1,342,294c-1.06-5.17-1-10.49-1.92-15.72a79.69,79.69,0,0,1,8.55,12.8,24,24,0,0,1,2.45,10.57C351.11,303.8,350.37,305.56,350,307.46Z" style="fill:#3c3c3b"/><path d="M487.86,185.35c2.25,1,5.16.75,7.53,1.11a66.87,66.87,0,0,1,10.72,2.31c3.51,1.13,7.65,2.56,10.24,5.34s2.62,5.68,2.78,9.35a1.37,1.37,0,0,0,.38.87c-1.76.95-3.51,1.91-5.28,2.83l-1.46.75c-5.79-1.4-10.77-3.45-15.35-7.9A39.88,39.88,0,0,1,487.86,185.35Z" style="fill:#3aaa61"/><path d="M519.69,214c.83-.4,1.68-.78,2.5-1.19.74,16.16-3.59,35.6-19.84,41.06C496.72,239,507.29,223.07,519.69,214Z" style="fill:#3aaa61"/><path d="M516.95,168.16c6,.63,12.54-.34,18.41,0,8.77.59,17.72,3.12,24.16,9.17-2.51,2.24-5.11,4.35-7.75,6.41-7.82.89-15.55.28-22.64-3.93C523.83,176.72,520.66,172.35,516.95,168.16Z" style="fill:#3aaa61"/><path d="M609.26,183.19c.44,10.61-4.26,18.93-5.76,28.68-16.28-11.47-17.29-39.7-11.38-57.52C602.11,161,608.73,170.25,609.26,183.19Z" style="fill:#3aaa61"/><path d="M457.93,218.49c-3.91-3.9-5.69-8.29-7.67-13,3.31,2.74,10.59,4.15,13.27,5.24,7.27,3,13.84,6.78,14.12,14.67A24.13,24.13,0,0,1,457.93,218.49Z" style="fill:#3aaa61"/><path d="M532,143.91c18.37-11.44,36.69-17.3,53.82-.67-1.14,2.31-2.38,4.56-3.67,6.78C565.25,158.35,548.64,150.13,532,143.91Z" style="fill:#3aaa61"/><path d="M567.94,200.35A39.89,39.89,0,0,1,568,217.3c-1.5,6.08-3.75,12.86-8.34,17.37a77.73,77.73,0,0,1-6.28,5.11c-10.17-15.16-.08-34.26,10.12-48.12C565.4,194.23,567.25,196.78,567.94,200.35Z" style="fill:#3aaa61"/><path d="M414.14,278.33c-.88,5.22-.86,10.54-1.92,15.72a23.41,23.41,0,0,1-8,13.42c-.41-1.91-1.14-3.67-1.1-5.76a24,24,0,0,1,2.45-10.57A80.15,80.15,0,0,1,414.14,278.33Z" style="fill:#3aaa61"/><path d="M475.18,233.51l5-2.12c-2.53,6.62-1.26,14.39-4.57,21.12a29.72,29.72,0,0,1-14.87,14.67c-4.56-8.46,3-24.37,10.16-31.76C472.32,234.79,473.74,234.13,475.18,233.51Z" style="fill:#3aaa61"/><path d="M436.06,252c-9.21.09-15.66-5-20.85-12.19,7.49.69,22.64,2,21.5,11.66Z" style="fill:#3aaa61"/><path d="M436.09,257.47c1.55,3.91,3.12,8,2.8,12.24a32.36,32.36,0,0,1-4.45,13.47,1.1,1.1,0,0,0-.14.46c-3.87-3.62-5.87-8.23-4.77-13.8C430.55,264.59,433.15,261.41,436.09,257.47Z" style="fill:#3aaa61"/><path d="M400.91,310.49a1.11,1.11,0,0,0,0,.23,3.31,3.31,0,0,0,.4.43l.38.24a5.64,5.64,0,0,0,.63.38c16.73-1.49,17-22.08,14.28-34.74a0,0,0,0,0,0,0c3.81-4.45,7.33-8.87,11.07-13.05-3.34,8.32-2.44,19.52,5.5,21.55a4.19,4.19,0,0,0,2.54-.55l.09,0,0,0-.22-.2a1.1,1.1,0,0,0,.58-.24c9.06-7.41,9.34-19.63,3.1-29a1.44,1.44,0,0,1-.27-.41l-.22-.32s0-.09.09-.13a1.63,1.63,0,0,1,.44-1.41.27.27,0,0,0,0-.07.84.84,0,0,1,0-.11c1-.75,2-1.5,3-2.2A192.39,192.39,0,0,1,465.25,238c-6.62,9.36-12.61,23.65-6.72,29.88a13.43,13.43,0,0,0,2.52,1.83,4.58,4.58,0,0,0,.42.21.41.41,0,0,0,.51-.14c7.89.52,14.38-5.54,18.06-12.68,3.37-6.54,8.7-20.33,2.4-26.7,8.37-3.54,16.76-7.07,25.07-10.78-8.57,10.83-14.56,25-7.59,34.9l-.18.05a14.58,14.58,0,0,0,4.23,3c14.44,2.67,29.86-32,23.57-47.62,3.82-2,7.62-4.08,11.33-6.3a197.13,197.13,0,0,0,16.72-11.16c-10.56,14.46-16.6,38-5,49.74-.11.12-.24.22-.35.34a.8.8,0,0,0,.35,1.32,11.44,11.44,0,0,0,2.72.66,1.23,1.23,0,0,0,1.27.08c11.57,0,20.39-18.64,21.77-27.65,1.34-8.79.64-25.19-7.79-31.5a1.78,1.78,0,0,1-.17-.07,1.7,1.7,0,0,0-.52-.3,1.41,1.41,0,0,1-.18-2.45s0-.06-.08-.08a118.34,118.34,0,0,0,15.78-17.39,83.22,83.22,0,0,0,2.11,20.24c2.13,9.46,6.28,23.72,16,28.4a14.17,14.17,0,0,0,3.67-1l-.05,0c10-6.59,11.63-25.54,9.6-35.85-2.28-11.63-9.63-22.69-20.77-27.18l.07-.17a2.25,2.25,0,0,0,.17-1.26c8.77-15.94,14.85-34.16,12.27-51.69-.7-4.78-7.49-3.08-7.88,1.07a129.7,129.7,0,0,1-11.88,43.79c-8.24-23.54-45.55-13.27-59.71-.15a.6.6,0,0,1-.05.09c-.14.18-.3.35-.45.52l-.11.13c-.48.87-1,1.7-1.52,2.57a9.75,9.75,0,0,0-.49,1,2.28,2.28,0,0,0,.43.28c17.38,7,37,17.27,54.2,9.11A105.81,105.81,0,0,1,567,170.18c-2.21,2.31-4.51,4.49-6.85,6.62-4.66-6.43-10.26-10.62-19.2-12.34s-20.08-3.18-28.95-1l-.06,0a1.13,1.13,0,0,0-1.3,1.37v0a2.15,2.15,0,0,0,.4,1.68c2.47,8.5,11.5,16.83,19.14,20.32a26.93,26.93,0,0,0,14.37,2.25,248.84,248.84,0,0,1-22.34,13.75c2.49-7.46-4.26-13.7-10.7-16.55a53.93,53.93,0,0,0-13.74-3.69c-3.33-.51-7.54-1.76-10.72-.39-.15.07-.21.19-.31.28l-.06-.14a12.5,12.5,0,0,0-.61,5.34c3.55,10.23,10.49,20.84,20.66,23.31-8.83,4.51-17.74,8.92-26.53,13.52.86-6.06-3.06-11.22-8.86-14.47a108.68,108.68,0,0,0-13.22-5.86c-2.58-1-6.2-3.79-9-2.5a.94.94,0,0,0-.39.38.88.88,0,0,0-1.4.14c-4,8.46,4,18.41,10.21,23.46a23,23,0,0,0,11.42,5c-4.79,2.67-9.53,5.42-14.16,8.34-4.85,3.05-10.14,6.5-15.29,10.34-.56-4.06-3.66-7.39-7.65-9.38-5.17-2.58-12.65-5.71-18.54-4.28a1.77,1.77,0,0,0-1.37,1.22,1.64,1.64,0,0,0-1.08,2.36c3.81,7.94,10.9,16.85,19.67,17.44-6.33,5.75-11.77,12.24-15,19.54a1.09,1.09,0,0,0-1.23.82c0,.13,0,.26-.06.4-5.39,4.49-10.74,9.43-13.47,16.07C398.69,298.68,397.29,305.83,400.91,310.49ZM592.12,154.35c10,6.65,16.61,15.91,17.15,28.84.44,10.61-4.26,18.93-5.76,28.68C587.22,200.4,586.21,172.17,592.12,154.35Zm-10-4.33c-16.85,8.34-33.47.11-50.15-6.11,18.37-11.44,36.69-17.3,53.82-.67C584.64,145.54,583.4,147.79,582.11,150ZM563.5,191.67c1.9,2.56,3.75,5.11,4.44,8.68A39.89,39.89,0,0,1,568,217.3c-1.5,6.08-3.75,12.86-8.34,17.37a77.73,77.73,0,0,1-6.28,5.11C543.21,224.62,553.3,205.52,563.5,191.67Zm-34.37-11.8c-5.3-3.14-8.47-7.52-12.18-11.7,6,.63,12.54-.34,18.41,0,8.77.59,17.72,3.12,24.16,9.17-2.51,2.24-5.11,4.35-7.75,6.41C543.95,184.68,536.22,184.07,529.13,179.86ZM519.69,214c.83-.4,1.68-.78,2.5-1.19.74,16.16-3.59,35.6-19.84,41.06C496.72,239,507.29,223.07,519.69,214ZM497.41,200a39.88,39.88,0,0,1-9.55-14.67c2.25,1,5.16.75,7.53,1.11a66.87,66.87,0,0,1,10.72,2.31c3.51,1.13,7.65,2.56,10.24,5.34s2.62,5.68,2.78,9.35a1.37,1.37,0,0,0,.38.87c-1.76.95-3.51,1.91-5.28,2.83l-1.46.75C507,206.52,502,204.47,497.41,200Zm-19.76,25.37a24.13,24.13,0,0,1-19.72-6.9c-3.91-3.9-5.69-8.29-7.67-13,3.31,2.74,10.59,4.15,13.27,5.24C470.8,213.69,477.36,217.5,477.65,225.39Zm-6.75,10c1.43-.64,2.84-1.3,4.28-1.92l5-2.12c-2.53,6.62-1.26,14.39-4.57,21.12a29.72,29.72,0,0,1-14.87,14.67C456.18,258.72,463.73,242.82,470.9,235.43Zm-34.19,16-.65.53c-9.21.09-15.66-5-20.85-12.19C422.69,240.5,437.85,241.76,436.71,251.47Zm-7.19,18.36c1-5.24,3.63-8.41,6.57-12.36,1.55,3.91,3.12,8,2.8,12.24a32.36,32.36,0,0,1-4.45,13.47,1.1,1.1,0,0,0-.14.46C430.42,280,428.42,275.4,429.52,269.83ZM403.14,301.7a24,24,0,0,1,2.45-10.57,80.15,80.15,0,0,1,8.55-12.8c-.88,5.22-.86,10.54-1.92,15.72a23.41,23.41,0,0,1-8,13.42C403.83,305.56,403.09,303.8,403.14,301.7Z" style="fill:#3c3c3b"/><path d="M130.22,460a4,4,0,0,0-3.94,3.58,3.39,3.39,0,0,0,1.45,4.13,4.51,4.51,0,0,0,6-1.66C135.48,463.52,133.1,460,130.22,460Z" style="fill:#e6334b"/><path d="M134.2,483c-11.4,0-11.4,17.65,0,17.65S145.6,483,134.2,483Z" style="fill:#e6334b"/><path d="M158.07,501.2a8.94,8.94,0,1,0,9,8.94A9,9,0,0,0,158.07,501.2Z" style="fill:#e6334b"/><path d="M189.11,510c-11.48,0-11.48,17.76,0,17.76S200.59,510,189.11,510Z" style="fill:#e6334b"/><path d="M221.75,510.45c-10.9,0-10.9,16.87,0,16.87S232.64,510.45,221.75,510.45Z" style="fill:#e6334b"/><path d="M254.38,505.71c-8.8,0-8.8,13.63,0,13.63S263.18,505.71,254.38,505.71Z" style="fill:#e6334b"/><path d="M285,502.57l-.4-.4a4.53,4.53,0,1,0,0,6.4l.4-.4A4,4,0,0,0,285,502.57Z" style="fill:#e6334b"/><path d="M305.49,488.37a3.66,3.66,0,0,0-4.61,3.5,3.54,3.54,0,0,0,2.41,3.35,3,3,0,0,0,2,.74,3.28,3.28,0,0,0,3.18-2.42C308.83,491.14,307.88,489.15,305.49,488.37Z" style="fill:#e6334b"/><path d="M321.23,476.67c-5.26,0-5.26,8.16,0,8.16S326.5,476.67,321.23,476.67Z" style="fill:#e6334b"/><path d="M376.94,304.29a12,12,0,1,0,12,12A12.11,12.11,0,0,0,376.94,304.29Z" style="fill:#3c3c3b"/><path d="M382.87,292.66a6.2,6.2,0,0,0,.47-.9h0a6.15,6.15,0,1,0-11.21,0h0a6.52,6.52,0,0,0,.47.9c0,.06.07.13.11.19a6.49,6.49,0,0,0,.63.8l.11.12a6.1,6.1,0,0,0,8.56,0l.11-.12a6,6,0,0,0,.64-.8C382.81,292.79,382.83,292.72,382.87,292.66Z" style="fill:#3c3c3b"/><path d="M377.74,338.15a4.75,4.75,0,1,0,4.75,4.74A4.8,4.8,0,0,0,377.74,338.15Z" style="fill:#3c3c3b"/><path d="M382.91,386.37c-1-6.35-3.82-12.37-5.47-18.59a.52.52,0,0,0-1,0C374.79,374,372,380,371,386.37a157.85,157.85,0,0,0-1.67,18.89c-.43,9.84,15.71,9.84,15.28,0A159.92,159.92,0,0,0,382.91,386.37Z" style="fill:#3c3c3b"/><path d="M620.38,466.09a4.52,4.52,0,0,0,6,1.66,3.39,3.39,0,0,0,1.45-4.13,4,4,0,0,0-3.95-3.58C621,460,618.6,463.52,620.38,466.09Z" style="fill:#e6334b"/><path d="M619.88,483c11.41,0,11.41,17.65,0,17.65S608.48,483,619.88,483Z" style="fill:#e6334b"/><path d="M596,501.2a8.94,8.94,0,1,1-9,8.94A9,9,0,0,1,596,501.2Z" style="fill:#e6334b"/><path d="M565,510c11.48,0,11.48,17.76,0,17.76S553.49,510,565,510Z" style="fill:#e6334b"/><path d="M532.34,510.45c10.9,0,10.9,16.87,0,16.87S521.44,510.45,532.34,510.45Z" style="fill:#e6334b"/><path d="M499.7,505.71c8.8,0,8.8,13.63,0,13.63S490.9,505.71,499.7,505.71Z" style="fill:#e6334b"/><path d="M469,502.57l.4-.4a4.53,4.53,0,1,1,0,6.4l-.4-.4A4,4,0,0,1,469,502.57Z" style="fill:#e6334b"/><path d="M445.58,493.54a3.28,3.28,0,0,0,3.19,2.42,3,3,0,0,0,2-.74,3.53,3.53,0,0,0,2.41-3.35,3.66,3.66,0,0,0-4.6-3.5C446.2,489.15,445.25,491.14,445.58,493.54Z" style="fill:#e6334b"/><path d="M432.85,476.67c5.27,0,5.27,8.16,0,8.16S427.58,476.67,432.85,476.67Z" style="fill:#e6334b"/><path d="M321.66,751.1a6.59,6.59,0,0,0-6.56,1.73c-7.53,8.71,6.32,11.78,11.58,15.32,10.15,6.83,13.42,18.67,16.25,29.77a.61.61,0,0,0,1.17,0C351.07,780.73,338.21,757.12,321.66,751.1Z" style="fill:#3c3c3b"/><path d="M359.81,745c-3.2-8.43-16.94-4.49-13.49,3.71,2.11,5,3.28,10.42,5.5,15.39,3.07,6.87,2.68,12.84,2.71,20.1a.94.94,0,0,0,1.74.47c3-6.22,3.72-13.08,5.79-19.66S362.14,751.19,359.81,745Z" style="fill:#3c3c3b"/><path d="M432.95,751.1a6.58,6.58,0,0,1,6.56,1.73c7.54,8.71-6.32,11.78-11.58,15.32-10.15,6.83-13.42,18.67-16.26,29.77a.61.61,0,0,1-1.17,0C403.53,780.73,416.39,757.12,432.95,751.1Z" style="fill:#3c3c3b"/><path d="M394.79,745c3.2-8.43,16.94-4.49,13.49,3.71-2.12,5-3.28,10.42-5.5,15.39-3.06,6.87-2.68,12.84-2.7,20.1a.94.94,0,0,1-1.74.47c-3-6.22-3.72-13.08-5.79-19.66S392.46,751.19,394.79,745Z" style="fill:#3c3c3b"/><path d="M296.1,548.76c-2.2-7-9.55-16-16.41-19-10-4.39-27.34-4-27.64,10.57-.12,6.17,5.6,9.14,11,8.36,3.34-.48,5.45-2.62,8-4.59,1.89-1.47,4.79-1.11,7-1.56,6-1.22,12.6,2.81,16.12,7.36C294.87,550.86,296.43,549.82,296.1,548.76Z" style="fill:#3c3c3b"/><path d="M303.17,506c-4.62,2.84-8,7.79-7.48,13.34.4,4.69,2.62,8.71,3.35,13.29.12.75,1.17.61,1.38,0,2.44-7.16,7.87-11.27,12.08-17.29C316.52,509.57,308.79,502.51,303.17,506Z" style="fill:#3c3c3b"/><path d="M457.36,548.76c2.2-7,9.55-16,16.41-19,10-4.39,27.34-4,27.64,10.57.12,6.17-5.61,9.14-11,8.36-3.34-.48-5.45-2.62-8-4.59-1.89-1.47-4.79-1.11-7-1.56-6-1.22-12.6,2.81-16.12,7.36C458.59,550.86,457,549.82,457.36,548.76Z" style="fill:#3c3c3b"/><path d="M450.28,506c4.62,2.84,8,7.79,7.48,13.34-.4,4.69-2.62,8.71-3.35,13.29-.12.75-1.17.61-1.38,0-2.44-7.16-7.87-11.27-12.09-17.29C436.94,509.57,444.67,502.51,450.28,506Z" style="fill:#3c3c3b"/><path d="M237.09,711.76c-2.56-3-10.19-4.74-13.67-2.14-.37.28-.77.56-1.18.84a13.92,13.92,0,0,0-4.18-10.73c-4.7-4.51-10.8,2.09-7,6.95a14.41,14.41,0,0,1,2.2,4.28,14.9,14.9,0,0,0-9.22-1.36c-2.84.45-4.82,3.65-4.82,6.32,0,3.4,3,6.79,6.56,6.55a24.64,24.64,0,0,0,3.23-.42c-1,.2,1.13,0,1.09,0,1.1,0,2.14.07,3.2,0,.25,0,.51.07.76.12a26.76,26.76,0,0,1-3.45,3c-2.31,2-3.46,6.12-3.72,8.93-.55,6,8.89,7,10.33,1.4,1.22-4.75,2.73-9.39,1.84-14.31l.09-.18a7.26,7.26,0,0,0,.69.89c1,1,2.18,1.84,3.07,3,1.94,2.53.8,6.16,2.57,8.77,1.48,2.2,5.39,2.83,6.72,0,2.19-4.68-.88-8.61-3.79-12.08a17.49,17.49,0,0,0-1.74-1.76,15.63,15.63,0,0,1,2,.09c2.22.33,3.77.75,6.06.43C239,719.84,239.31,714.35,237.09,711.76Z" style="fill:#f39200"/><path d="M217.77,673.77c-1.79-2.09-7.11-3.31-9.53-1.49l-.82.59a9.71,9.71,0,0,0-2.91-7.49c-3.28-3.15-7.53,1.46-4.86,4.84a10,10,0,0,1,1.54,3,10.38,10.38,0,0,0-6.43-1c-2,.32-3.36,2.55-3.36,4.41a4.6,4.6,0,0,0,4.58,4.57,18.36,18.36,0,0,0,2.25-.29c-.71.14.79,0,.76,0,.76,0,1.49,0,2.23,0l.53.09a18.68,18.68,0,0,1-2.41,2.11c-1.61,1.37-2.41,4.27-2.59,6.23-.38,4.18,6.2,4.9,7.21,1,.85-3.32,1.91-6.55,1.28-10l.06-.13a5.1,5.1,0,0,0,.49.62,28.2,28.2,0,0,1,2.13,2.08c1.36,1.77.57,4.29,1.8,6.12,1,1.53,3.76,2,4.68,0,1.53-3.26-.62-6-2.64-8.43a12.45,12.45,0,0,0-1.21-1.22,10.4,10.4,0,0,1,1.41.07,13.25,13.25,0,0,0,4.23.3C219.12,679.41,219.31,675.58,217.77,673.77Z" style="fill:#f39200"/><path d="M518.34,711.76c2.57-3,10.2-4.74,13.66-2.14.37.28.77.56,1.18.84a13.92,13.92,0,0,1,4.18-10.73c4.7-4.51,10.8,2.09,7,6.95a14.4,14.4,0,0,0-2.2,4.28,14.89,14.89,0,0,1,9.22-1.36c2.84.45,4.82,3.65,4.82,6.32,0,3.4-3,6.79-6.56,6.55a24.69,24.69,0,0,1-3.22-.42c1,.2-1.13,0-1.09,0-1.1,0-2.14.07-3.2,0-.25,0-.51.07-.76.12a27,27,0,0,0,3.45,3c2.31,2,3.46,6.12,3.72,8.93.55,6-8.89,7-10.34,1.4-1.22-4.75-2.73-9.39-1.84-14.31l-.1-.18a7.23,7.23,0,0,1-.69.89c-1,1-2.19,1.84-3.07,3-1.94,2.53-.8,6.16-2.56,8.77-1.48,2.2-5.4,2.83-6.72,0-2.19-4.68.88-8.61,3.79-12.08a17.46,17.46,0,0,1,1.74-1.76,15.71,15.71,0,0,0-2,.09c-2.22.33-3.76.75-6.06.43C516.4,719.84,516.13,714.35,518.34,711.76Z" style="fill:#f39200"/><path d="M537.67,673.77c1.79-2.09,7.11-3.31,9.53-1.49l.83.59a9.72,9.72,0,0,1,2.91-7.49c3.28-3.15,7.53,1.46,4.86,4.84a10.09,10.09,0,0,0-1.53,3,10.37,10.37,0,0,1,6.43-1c2,.32,3.36,2.55,3.36,4.41a4.6,4.6,0,0,1-4.58,4.57,18.3,18.3,0,0,1-2.25-.29c.71.14-.79,0-.76,0-.76,0-1.49,0-2.23,0l-.53.09a18.89,18.89,0,0,0,2.41,2.11c1.61,1.37,2.41,4.27,2.59,6.23.39,4.18-6.19,4.9-7.2,1-.85-3.32-1.91-6.55-1.29-10l-.07-.13a5,5,0,0,1-.48.62,29.59,29.59,0,0,0-2.14,2.08c-1.35,1.77-.56,4.29-1.79,6.12-1,1.53-3.76,2-4.69,0-1.53-3.26.62-6,2.64-8.43a12.15,12.15,0,0,1,1.22-1.22,10.45,10.45,0,0,0-1.41.07,13.21,13.21,0,0,1-4.23.3C536.32,679.41,536.12,675.58,537.67,673.77Z" style="fill:#f39200"/><path d="M554.53,261.07c-3.87.77-9.11,6.58-8.53,10.88.06.46.11.95.16,1.44a14,14,0,0,0-11.43-1.59c-6.24,1.91-3.43,10.43,2.68,9.46a14.42,14.42,0,0,1,4.82.17,14.85,14.85,0,0,0-5.68,7.37c-1,2.7.84,6,3.18,7.28,3,1.66,7.39.7,8.93-2.53a26,26,0,0,0,1.2-3c-.32,1,.59-1,.57-.94.53-1,1.1-1.83,1.57-2.78.17-.19.31-.4.48-.61a26.64,26.64,0,0,1,1,4.49c.58,3,3.67,6,6,7.59,5,3.4,10.48-4.32,6.26-8.33-3.57-3.38-6.89-7-11.62-8.58,0-.06-.09-.12-.12-.17a7.48,7.48,0,0,0,1.11-.17c1.4-.34,2.67-1,4.12-1.22,3.16-.46,5.77,2.3,8.92,2,2.64-.22,5.11-3.33,3.28-5.86-3-4.19-8-3.43-12.41-2.58a17.87,17.87,0,0,0-2.39.66,15.43,15.43,0,0,1,1.07-1.72c1.37-1.77,2.49-2.91,3.33-5.08C562.54,263.32,557.87,260.4,554.53,261.07Z" style="fill:#f39200"/><path d="M624.22,280.41c-4.83-1.22-14,2.53-15.64,7.74-.18.56-.39,1.13-.6,1.73a17.61,17.61,0,0,0-12.14-8c-8.14-1.22-9.6,10-2.11,12.23a18.23,18.23,0,0,1,5.39,2.81,18.82,18.82,0,0,0-10.49,5.3c-2.6,2.53-2.3,7.27-.35,10,2.47,3.5,8,4.82,11.55,2a32.77,32.77,0,0,0,3-2.78c-.9.95,1.19-.79,1.15-.75,1.13-.81,2.25-1.49,3.32-2.31.29-.13.57-.29.87-.43a33.59,33.59,0,0,1-1.34,5.63c-1,3.7.9,8.82,2.69,11.91,3.8,6.57,14.29.78,11.67-6.07-2.22-5.79-4-11.67-8.54-16.08,0-.09,0-.17,0-.26a8.86,8.86,0,0,0,1.36.42c1.78.36,3.59.3,5.35.85,3.84,1.2,5.32,5.75,9,7.17,3.13,1.18,7.62-1,6.92-4.89-1.16-6.41-7.19-8.22-12.72-9.68a20.78,20.78,0,0,0-3.08-.55,18.71,18.71,0,0,1,2.16-1.38c2.52-1.27,4.42-2,6.56-4C632.11,287.33,628.38,281.47,624.22,280.41Z" style="fill:#f39200"/><path d="M499.94,266.56c-2.71.54-6.36,4.59-5.95,7.58,0,.32.07.66.11,1a9.77,9.77,0,0,0-8-1.11c-4.34,1.33-2.39,7.28,1.88,6.6a10.05,10.05,0,0,1,3.36.12,10.38,10.38,0,0,0-4,5.14c-.69,1.88.59,4.17,2.22,5.08a4.61,4.61,0,0,0,6.23-1.76,18.55,18.55,0,0,0,.83-2.1c-.22.69.41-.67.4-.65.37-.67.77-1.28,1.1-1.94.12-.14.22-.28.34-.42a19,19,0,0,1,.67,3.13c.41,2.07,2.55,4.18,4.19,5.29,3.46,2.37,7.3-3,4.36-5.81-2.49-2.36-4.8-4.86-8.11-6l-.08-.12a4.75,4.75,0,0,0,.77-.12c1-.24,1.87-.7,2.87-.85,2.2-.32,4,1.6,6.22,1.42,1.85-.15,3.56-2.31,2.29-4.09-2.11-2.92-5.55-2.39-8.66-1.8a11.82,11.82,0,0,0-1.67.46,11.64,11.64,0,0,1,.75-1.2,13.26,13.26,0,0,0,2.33-3.54C505.54,268.13,502.28,266.09,499.94,266.56Z" style="fill:#f39200"/><path d="M201.15,261.07c3.87.77,9.11,6.58,8.53,10.88-.07.46-.11.95-.16,1.44a14,14,0,0,1,11.43-1.59c6.24,1.91,3.43,10.43-2.69,9.46a14.44,14.44,0,0,0-4.82.17,14.84,14.84,0,0,1,5.69,7.37c1,2.7-.85,6-3.18,7.28-3,1.66-7.39.7-8.93-2.53a26,26,0,0,1-1.2-3c.32,1-.58-1-.56-.94-.53-1-1.1-1.83-1.57-2.78-.17-.19-.31-.4-.48-.61a26.64,26.64,0,0,0-1,4.49c-.59,3-3.67,6-6,7.59-5,3.4-10.48-4.32-6.26-8.33,3.57-3.38,6.88-7,11.62-8.58l.12-.17a7.7,7.7,0,0,1-1.12-.17c-1.39-.34-2.67-1-4.11-1.22-3.16-.46-5.77,2.3-8.92,2-2.64-.22-5.11-3.33-3.28-5.86,3-4.19,8-3.43,12.42-2.58a17.87,17.87,0,0,1,2.39.66,15,15,0,0,0-1.07-1.72c-1.37-1.77-2.49-2.91-3.33-5.08C193.13,263.32,197.8,260.4,201.15,261.07Z" style="fill:#f39200"/><path d="M131.46,280.41c4.83-1.22,14,2.53,15.64,7.74.18.56.39,1.13.6,1.73a17.61,17.61,0,0,1,12.14-8c8.14-1.22,9.6,10,2.1,12.23a18.37,18.37,0,0,0-5.39,2.81,18.8,18.8,0,0,1,10.49,5.3c2.6,2.53,2.3,7.27.35,10-2.48,3.5-8,4.82-11.55,2a33.17,33.17,0,0,1-3-2.78c.9.95-1.19-.79-1.15-.75-1.13-.81-2.26-1.49-3.32-2.31-.29-.13-.58-.29-.87-.43a33.89,33.89,0,0,0,1.35,5.63c1,3.7-.9,8.82-2.69,11.91-3.81,6.57-14.3.78-11.67-6.07,2.22-5.79,4-11.67,8.54-16.08,0-.09,0-.17,0-.26a9,9,0,0,1-1.36.42c-1.78.36-3.59.3-5.35.85-3.85,1.2-5.32,5.75-9,7.17-3.13,1.18-7.62-1-6.92-4.89,1.17-6.41,7.2-8.22,12.73-9.68a20.77,20.77,0,0,1,3.08-.55,18.36,18.36,0,0,0-2.15-1.38c-2.52-1.27-4.42-2-6.56-4C123.57,287.33,127.29,281.47,131.46,280.41Z" style="fill:#f39200"/><path d="M255.73,266.56c2.7.54,6.36,4.59,5.95,7.58,0,.32-.08.66-.11,1a9.75,9.75,0,0,1,8-1.11c4.35,1.33,2.4,7.28-1.87,6.6a10.07,10.07,0,0,0-3.36.12,10.39,10.39,0,0,1,4,5.14c.69,1.88-.59,4.17-2.22,5.08a4.61,4.61,0,0,1-6.23-1.76,18,18,0,0,1-.84-2.1c.22.69-.4-.67-.39-.65-.37-.67-.77-1.28-1.1-1.94-.12-.14-.22-.28-.33-.42a19,19,0,0,0-.67,3.13c-.41,2.07-2.56,4.18-4.19,5.29-3.46,2.37-7.31-3-4.36-5.81,2.48-2.36,4.8-4.86,8.1-6l.08-.12a4.84,4.84,0,0,1-.78-.12,29.3,29.3,0,0,0-2.86-.85c-2.21-.32-4,1.6-6.23,1.42-1.84-.15-3.56-2.31-2.28-4.09,2.11-2.92,5.55-2.39,8.66-1.8a11.54,11.54,0,0,1,1.66.46,11.05,11.05,0,0,0-.74-1.2,13.11,13.11,0,0,1-2.33-3.54C250.14,268.13,253.4,266.09,255.73,266.56Z" style="fill:#f39200"/></svg>