<svg xmlns="http://www.w3.org/2000/svg" viewBox="0 0 760 916"><title>sk1-judgement</title><path d="M359.25,485.52c.71-24.71,7-42.37,0-45.19s-29,21.18-31.48,37.42-2.93,29.66-8,38.83-20.36,23.3-7.4,48,51.38-2.12,54.8-14.12c3.42,12,41.84,38.84,54.8,14.12s-2.35-38.83-7.4-48-5.55-22.59-8-38.83-24.44-40.25-31.48-37.42-.75,20.48,0,45.19-7.89,36.72-7.89,36.72S358.54,510.24,359.25,485.52Z"/><path d="M226.7,332.46c5.07,0,5.07-7.84,0-7.84S221.63,332.46,226.7,332.46Z"/><path d="M252.16,329.93c5.45,0,5.45-8.44,0-8.44S246.71,329.93,252.16,329.93Z"/><path d="M279.51,332.66c4.1,0,4.1-6.35,0-6.35S275.41,332.66,279.51,332.66Z"/><path d="M303.09,345.84a5.06,5.06,0,1,0-5.07-5.06A5.11,5.11,0,0,0,303.09,345.84Z"/><path d="M322,362.28a12.07,12.07,0,0,0,.26-1.73,3.75,3.75,0,0,0-.9-2.25,2.63,2.63,0,0,0-4.47,0,4.43,4.43,0,0,0-.79,1.42,6.06,6.06,0,0,0,.14,2.57C316.7,365.13,321.54,365.13,322,362.28Z"/><path d="M325.72,392.61c6.16,0,6.16-9.53,0-9.53S319.56,392.61,325.72,392.61Z"/><path d="M322.89,405.83a4.61,4.61,0,0,0-3.9,2.12,4.83,4.83,0,0,0,2.13,8.09,5.25,5.25,0,0,0,2.87,0,5.33,5.33,0,0,0,3-2.32c1.3-1.78.63-3.84-.16-5.61A4.54,4.54,0,0,0,322.89,405.83Z"/><path d="M313.46,432.54c-4.3,0-4.3,6.65,0,6.65S317.76,432.54,313.46,432.54Z"/><path d="M301.2,453.64c-5,0-5,7.74,0,7.74S306.21,453.64,301.2,453.64Z"/><path d="M283.31,468.82a3.76,3.76,0,1,0,3.76,3.76A3.79,3.79,0,0,0,283.31,468.82Z"/><path d="M256.88,484.17c-3.27,0-3.27,5.06,0,5.06S260.15,484.17,256.88,484.17Z"/><path d="M234,489.48l-.69-.43a3.83,3.83,0,1,0,0,6.6l.69-.43A3.36,3.36,0,0,0,234,489.48Z"/><path d="M206,490.26c-3.91,0-3.91,6.05,0,6.05S209.87,490.26,206,490.26Z"/><path d="M185.21,487.68a4.67,4.67,0,1,0,4.67,4.67A4.72,4.72,0,0,0,185.21,487.68Z"/><path d="M165.4,475.1c-4,0-4,6.25,0,6.25S169.44,475.1,165.4,475.1Z"/><path d="M151.25,457.36c-6.28,0-6.28,9.73,0,9.73S157.54,457.36,151.25,457.36Z"/><path d="M144.65,439.22c-5.39,0-5.39,8.34,0,8.34S150,439.22,144.65,439.22Z"/><path d="M137.11,417.24c3.91,0,3.91-6.06,0-6.06S133.2,417.24,137.11,417.24Z"/><path d="M139,393.9c4.17,0,4.17-6.46,0-6.46S134.82,393.9,139,393.9Z"/><path d="M147.48,372.54c5.77,0,5.77-8.93,0-8.93S141.71,372.54,147.48,372.54Z"/><path d="M164.46,355.5c4.43,0,4.43-6.85,0-6.85S160,355.5,164.46,355.5Z"/><path d="M186.63,345.14a12,12,0,0,0,.66-1.55,4.78,4.78,0,0,0-5.85-5.84,11.77,11.77,0,0,0-1.55.66c-2.89,1.4-3.11,5.61-1,7.72S185.22,348,186.63,345.14Z"/><path d="M205,339.4a4.27,4.27,0,0,0,3-7.29l-.46-.49a3.66,3.66,0,0,0-5.13,0l-.46.49a4.27,4.27,0,0,0,3,7.29Z"/><path d="M431.35,341.38c3.21,0,3.21-5,0-5S428.14,341.38,431.35,341.38Z"/><path d="M454,331.72c5.32,0,5.32-8.24,0-8.24S448.66,331.72,454,331.72Z"/><path d="M478.29,329.29a4.09,4.09,0,0,0,1.64-.93,3.43,3.43,0,0,0,.88-3.27,2.38,2.38,0,0,0-2.3-1.75,2.32,2.32,0,0,0-1.68.75,2.65,2.65,0,0,0-2,2.58A2.76,2.76,0,0,0,478.29,329.29Z"/><path d="M502.08,332.66c6.54,0,6.54-10.13,0-10.13S495.54,332.66,502.08,332.66Z"/><path d="M527.54,337.07c4.94,0,4.94-7.65,0-7.65S522.6,337.07,527.54,337.07Z"/><path d="M549.53,347.43a3.77,3.77,0,0,0,2.53,1,3.87,3.87,0,0,0,3.74-2.84,5.09,5.09,0,0,0-1.19-4.65,5.24,5.24,0,0,0-2.37-1.39,4.27,4.27,0,0,0-5.35,4.07A4.06,4.06,0,0,0,549.53,347.43Z"/><path d="M572.81,360.15c4.36,0,4.36-6.75,0-6.75S568.45,360.15,572.81,360.15Z"/><path d="M589.78,383.4c5.2,0,5.2-8,0-8S584.59,383.4,589.78,383.4Z"/><path d="M595.44,402.11c-5.9,0-5.9,9.13,0,9.13S601.34,402.11,595.44,402.11Z"/><path d="M591.67,429.71c-3.08,0-3.08,4.76,0,4.76S594.75,429.71,591.67,429.71Z"/><path d="M584.12,450.42c-6.74,0-6.74,10.43,0,10.43S590.86,450.42,584.12,450.42Z"/><path d="M572.35,474.89l-1.14.6a3.18,3.18,0,1,0,4.35,4.35l.6-1.14A2.8,2.8,0,0,0,572.35,474.89Z"/><path d="M552.06,483.72c-5.07,0-5.07,7.85,0,7.85S557.13,483.72,552.06,483.72Z"/><path d="M527.54,488.28c-4,0-4,6.25,0,6.25S531.58,488.28,527.54,488.28Z"/><path d="M503,488.88c-3.27,0-3.27,5.06,0,5.06S506.29,488.88,503,488.88Z"/><path d="M481.33,481.34c-5.71,0-5.71,8.84,0,8.84S487,481.34,481.33,481.34Z"/><path d="M460,474.47a3.73,3.73,0,0,0-7,1.88,3.73,3.73,0,0,0,7,1.88l.26-.4a2.88,2.88,0,0,0,0-3Z"/><path d="M438.89,460c-5.32,0-5.32,8.24,0,8.24S444.22,460,438.89,460Z"/><path d="M423.8,443.93c-4.17,0-4.17,6.46,0,6.46S428,443.93,423.8,443.93Z"/><path d="M414.37,422.83c-4.68,0-4.68,7.25,0,7.25S419.05,422.83,414.37,422.83Z"/><path d="M406.83,399.63c-5.45,0-5.45,8.44,0,8.44S412.28,399.63,406.83,399.63Z"/><path d="M405.89,384.34c5.19,0,5.19-8,0-8S400.69,384.34,405.89,384.34Z"/><path d="M413.43,358.57c3.53,0,3.53-5.46,0-5.46S409.9,358.57,413.43,358.57Z"/><path d="M158.76,454.34c13.06,33.9,38.52,33.24,75.42,28s68.88-24.12,80.51-80.17S268.9,337,268.9,337c-25-3.26-54,2.61-61.16,5.21s-43.74,13-54.85,35.85S145.71,420.45,158.76,454.34Zm25.35-71.68c3.15-5.45-2.77-15.5,3.92-16.7a36.72,36.72,0,0,1,18.35,1.75,36.37,36.37,0,0,1,8-17.08c4.35-5,10,5.3,16.16,5.3s12.06-10.14,16.45-5a36.56,36.56,0,0,1,7.66,16.74A36.53,36.53,0,0,1,273.4,366c6.5,1.27.4,11.29,3.49,16.63s14.83,5.36,12.53,11.74a36.56,36.56,0,0,1-10.69,15,36.42,36.42,0,0,1,10.84,15.41c2.15,6.25-9.59,6-12.68,11.32s2.76,15.5-3.92,16.7a36.72,36.72,0,0,1-18.35-1.75,36.39,36.39,0,0,1-7.94,17.08c-4.35,5-10-5.3-16.16-5.3s-12.07,10.14-16.45,5a36.55,36.55,0,0,1-7.66-16.74,36.6,36.6,0,0,1-18.79,1.67c-6.49-1.27-.4-11.29-3.48-16.63s-14.83-5.36-12.53-11.74a36.56,36.56,0,0,1,10.69-15A36.44,36.44,0,0,1,171.44,394C169.29,387.73,181,388,184.12,382.66Z"/><path d="M579,378.08c-11.1-22.81-47.67-33.24-54.85-35.85S488,333.75,463,337c0,0-57.43,9.12-45.8,65.18s43.62,75,80.51,80.17,62.36,5.87,75.42-28S590.13,400.89,579,378.08Zm-18.7,46.31c2.3,6.38-9.37,6.29-12.53,11.74s3,15.35-3.48,16.63a36.6,36.6,0,0,1-18.79-1.67,36.55,36.55,0,0,1-7.66,16.74c-4.38,5.18-10.14-5-16.45-5s-11.81,10.28-16.16,5.3a36.39,36.39,0,0,1-7.94-17.08A36.72,36.72,0,0,1,459,452.82c-6.69-1.2-.77-11.25-3.92-16.7s-14.83-5.07-12.68-11.32a36.42,36.42,0,0,1,10.84-15.41,36.56,36.56,0,0,1-10.69-15c-2.3-6.38,9.38-6.29,12.53-11.74s-3-15.35,3.49-16.63a36.53,36.53,0,0,1,18.79,1.67A36.56,36.56,0,0,1,485,351c4.39-5.18,10.14,5,16.45,5s11.81-10.28,16.16-5.3a36.37,36.37,0,0,1,8,17.08A36.72,36.72,0,0,1,543.88,366c6.69,1.2.77,11.25,3.92,16.7s14.82,5.07,12.68,11.32a36.44,36.44,0,0,1-10.84,15.41A36.56,36.56,0,0,1,560.33,424.38Z"/><path d="M439.63,140.48c-21.91,12.78-44.22,18.45-69.26,11.73a99.6,99.6,0,0,1-55.75-39C304,98.2,295,82,281.21,69.42,267.92,57.33,254,55.53,237.59,60.74c-.29.09-.25.57.08.56C283,58.81,294.82,112.78,322,137.93c28.79,26.65,89.21,32.58,119.35,4.77C442.54,141.59,441,139.68,439.63,140.48Z"/><path d="M338.3,168.81c1.7-.46,1.9-3.3,0-3.63-10.86-1.88-20-4.31-28.36-11.95-7.82-7.18-12.77-16.92-18.81-25.51-10.93-15.52-22.34-27.91-42.61-28.32-.18,0-.18.27,0,.28C290.42,103.44,290.13,181.92,338.3,168.81Z"/><path d="M360.42,575c-14.57,13.74-30.7,22.1-51,23a52.89,52.89,0,0,1-30-7.89c-14.27-8.82-11.34-27.95.32-37.47.85-.69-.24-2-1.14-1.48a21.76,21.76,0,0,0-2.58,1.77c-24.68,11.35-43.27,52.18-12.8,67.29,14.7,7.29,34.13,2,48.52-3.32,17.45-6.43,29.52-17.21,41.47-30.14a49,49,0,0,0,6.29-7l1-1.14a.83.83,0,0,0,.22-.68c.41-.61.86-1.19,1.24-1.83A1,1,0,0,0,360.42,575Zm-37.79,31c-12.68,6.44-27.18,10.84-41.42,11.46-18.24.8-33.83-10.72-29.35-30.15,2.52-10.94,10.09-20.7,18.72-28.35a23.61,23.61,0,0,0-3.35,18.38c2.79,10.86,12.36,17.3,22.5,21.15,14.38,5.45,31.62,4.94,46.34-1A89.63,89.63,0,0,1,322.63,606Z"/><path d="M423.5,598c-20.31-.94-36.44-9.3-51-23a1,1,0,0,0-1.56,1.2c.38.64.83,1.22,1.24,1.83a.83.83,0,0,0,.22.68l1,1.14a49,49,0,0,0,6.29,7c11.95,12.92,24,23.71,41.47,30.14,14.39,5.3,33.82,10.61,48.52,3.32,30.48-15.11,11.88-55.94-12.8-67.29a21.8,21.8,0,0,0-2.58-1.77c-.91-.52-2,.79-1.14,1.48,11.65,9.52,14.58,28.65.32,37.47A52.9,52.9,0,0,1,423.5,598Zm42.18-20.67A23.61,23.61,0,0,0,462.33,559c8.63,7.65,16.2,17.41,18.72,28.35,4.48,19.43-11.11,30.94-29.35,30.15-14.24-.62-28.74-5-41.42-11.46a89.69,89.69,0,0,1-13.44-8.51c14.72,5.95,32,6.46,46.34,1C453.32,594.64,462.89,588.2,465.68,577.34Z"/><path d="M177.34,658.68c-4.26,0-4.26,6.59,0,6.59S181.6,658.68,177.34,658.68Z"/><path d="M182.77,675.23c-5.45,0-5.45,8.43,0,8.43S188.22,675.23,182.77,675.23Z"/><path d="M190,698.6c-7.15,0-7.15,11.06,0,11.06S197.16,698.6,190,698.6Z"/><path d="M203.88,717.23c-9.53,0-9.53,14.76,0,14.76S213.42,717.23,203.88,717.23Z"/><path d="M229.93,729.62l-.49-.41c-2.24-1.87-4.83-2.86-7.77-2a8,8,0,0,0-1.91,14.57c3.31,1.93,6.89,1.07,9.67-1.25l.49-.41C232.83,737.65,232.83,732,229.93,729.62Z"/><path d="M246.71,750.88c6.72,0,6.72-10.41,0-10.41S240,750.88,246.71,750.88Z"/><path d="M270.73,759.07c2.36-.65,3.57-2.33,4.47-4.46a4.49,4.49,0,0,0,.06-3.25,7.56,7.56,0,0,0-1.71-3,6.39,6.39,0,1,0-2.82,10.68Z"/><path d="M287.3,765.69a5.88,5.88,0,0,0,4.58-.79,3.45,3.45,0,0,0,0-5.92,5.88,5.88,0,0,0-4.58-.79C283.57,759.09,283.57,764.79,287.3,765.69Z"/><path d="M316.69,771c9.36,0,9.36-14.49,0-14.49S307.33,771,316.69,771Z"/><path d="M345,753.39a9.15,9.15,0,1,0,9.17,9.16A9.25,9.25,0,0,0,345,753.39Z"/><path d="M556,658.68c-4.26,0-4.26,6.59,0,6.59S560.27,658.68,556,658.68Z"/><path d="M550.59,675.23c-5.44,0-5.44,8.43,0,8.43S556,675.23,550.59,675.23Z"/><path d="M543.35,698.6c-7.15,0-7.15,11.06,0,11.06S550.5,698.6,543.35,698.6Z"/><path d="M529.48,717.23c-9.53,0-9.53,14.76,0,14.76S539,717.23,529.48,717.23Z"/><path d="M511.69,727.16c-2.94-.81-5.52.18-7.77,2l-.49.41c-2.91,2.42-2.91,8,0,10.45l.49.41c2.79,2.32,6.37,3.18,9.68,1.25a8,8,0,0,0-1.91-14.57Z"/><path d="M486.65,750.88c6.72,0,6.72-10.41,0-10.41S479.93,750.88,486.65,750.88Z"/><path d="M462.63,759.07a6.39,6.39,0,1,0-2.82-10.68,7.55,7.55,0,0,0-1.71,3,4.52,4.52,0,0,0,.06,3.25C459.05,756.74,460.26,758.42,462.63,759.07Z"/><path d="M441.48,764.9a5.89,5.89,0,0,0,4.58.79c3.72-.9,3.72-6.6,0-7.49a5.89,5.89,0,0,0-4.58.79A3.45,3.45,0,0,0,441.48,764.9Z"/><path d="M416.67,771c9.36,0,9.36-14.49,0-14.49S407.32,771,416.67,771Z"/><path d="M397.5,762.54a9.17,9.17,0,1,0-9.17,9.15A9.25,9.25,0,0,0,397.5,762.54Z"/><path d="M534.7,213.52s.09,0,.14.07a.14.14,0,0,1,0,.06.45.45,0,0,0,0-.1S534.75,213.54,534.7,213.52Z"/><path d="M608.17,179.43l.89-.72A8.62,8.62,0,0,0,608.17,179.43Z"/><path d="M608.17,179.43l-1.78,1.44C608.58,179.79,607.38,180.19,608.17,179.43Z"/><path d="M171.67,213.62c-1-1.46-3.8-1.56-4.16.54-1.35,8-1.2,16.07-2.44,24.08-1.09,7-6.46,12.68-7.35,19.88a69.08,69.08,0,0,0,0,17.61c-7.17-6.52-17.1-10.21-26.65-11.67-15.26-2.33-31.13-7.33-46.65-4.86-1.68.27-2.48,2.27-2.13,3.74,2.9,12.21,8.64,25.91,21.33,30.75a39.57,39.57,0,0,0,21.42,1.94c9.22-1.72,17.87-6.2,26.72-6.73a20.63,20.63,0,0,1,8.58,7.38,2.58,2.58,0,0,0,.27.32c.68,2,3.8,3,5,.64l.73-1.46c16-4.49,30.1-13.41,29.44-31.59C195.15,245.82,181.5,228.18,171.67,213.62Zm-14.12,72.94c-14.28-9.86-37.81-6-52.87-13.4a.25.25,0,0,0-.25.44c7.13,5.11,15.53,7,24,8.94,5,1.13,11.15,2.07,16.87,3.82-5.92.9-12,2.8-18,4-20.42,3.9-32.85-7.72-38.12-25.54,11.72-1,23.93,2.21,35.33,4.26,15.41,2.77,25.61,7.06,35.67,18.31A22.31,22.31,0,0,0,157.55,286.56Zm11.72,3.27c6.55-13.93,11.1-27.9,7.92-43.82a.26.26,0,0,0-.5.07c1.1,14.35-4.34,27.86-11.14,40.32-2.09-10.31-4.93-19.92-2.54-30.87,1.19-5.47,4.77-10.66,6.51-16.06,1.81-5.63,1.52-12.1,1.82-18.24,6.91,10.26,13.57,20.77,17.76,32.44C195.88,272.6,186,284.22,169.27,289.83Z"/><path d="M105.27,241.83c14.34,0,32.15,5,42.51,15.69a.28.28,0,0,0,.45-.34c-8.9-16.8-23.4-34.2-44.94-30-2.26.44-4.88,2.86-5.21,5.2s-.36,3.71.75,5.74A7.46,7.46,0,0,0,105.27,241.83Z"/><path d="M117,204.31a10.61,10.61,0,0,0,5.19.2c.08,0-1,.2-.88.29,2.56,1.4,4.66,4.49,6.36,6.78,7.56,10.26,16.89,20.3,20.1,33a.29.29,0,0,0,.55,0c1.39-4.35.68-8-.43-12.45-1.76-7.12-2.22-14.32-4.57-21.34-3.13-9.33-14.83-29.13-27.62-21.65C109.51,192.69,109.79,202.24,117,204.31Z"/><path d="M131.72,305.64c-8.23,3.38-17.17,4.42-25,8.93-9,5.17-14,13.42-14.74,23.66-.23,3,2.26,5.89,5,6.6a5.89,5.89,0,0,0,3.64,0c2.83-1,5.13-3.37,5-6.6-.23-7.64,4-12.73,9.68-17.42s11.38-9.29,17-14C132.88,306.35,132.35,305.39,131.72,305.64Z"/><path d="M649.63,259.2c-15.52-2.46-31.4,2.53-46.65,4.86-9.56,1.46-19.49,5.15-26.66,11.67a69.1,69.1,0,0,0,0-17.61c-.89-7.2-6.26-12.85-7.35-19.88-1.24-8-1.1-16.09-2.44-24.08-.36-2.1-3.17-2-4.16-.54-9.83,14.56-23.48,32.2-24.14,50.57-.66,18.17,13.44,27.09,29.44,31.59.24.49.48,1,.73,1.46,1.2,2.37,4.32,1.33,5-.64a2.8,2.8,0,0,0,.27-.32,20.6,20.6,0,0,1,8.58-7.38c8.85.53,17.5,5,26.72,6.73a39.58,39.58,0,0,0,21.42-1.94c12.7-4.84,18.43-18.54,21.33-30.75C652.11,261.47,651.31,259.47,649.63,259.2Zm-81.1,27.2c-6.81-12.45-12.24-26-11.14-40.32a.26.26,0,0,0-.5-.07c-3.18,15.91,1.37,29.88,7.92,43.82C548,284.22,538.19,272.6,545,253.66c4.19-11.67,10.85-22.19,17.76-32.44.29,6.14,0,12.62,1.81,18.24,1.74,5.4,5.32,10.59,6.52,16.06C573.45,266.48,570.61,276.09,568.52,286.4Zm38.31,3.91c-6.05-1.16-12.11-3.05-18-4,5.72-1.75,11.86-2.68,16.87-3.82,8.43-1.91,16.83-3.83,24-8.94a.25.25,0,0,0-.26-.44c-15,7.39-38.58,3.54-52.86,13.4a22.12,22.12,0,0,0-2.56.78C584,276.08,594.22,271.8,609.63,269c11.4-2.05,23.61-5.3,35.33-4.26C639.68,282.58,627.26,294.21,606.84,290.3Z"/><path d="M585.84,257.18a.29.29,0,0,0,.45.34c10.36-10.66,28.18-15.65,42.51-15.69a7.47,7.47,0,0,0,6.44-3.69c1.11-2,1.06-3.5.75-5.74s-3-4.76-5.21-5.2C609.24,223,594.74,240.38,585.84,257.18Z"/><path d="M586.36,244.55c3.21-12.67,12.54-22.71,20.1-33,1.69-2.3,3.8-5.38,6.36-6.78.17-.09-1-.3-.88-.29a10.61,10.61,0,0,0,5.19-.2c7.16-2.07,7.44-11.62,1.31-15.2-12.79-7.48-24.49,12.32-27.62,21.65-2.35,7-2.81,14.22-4.57,21.34-1.11,4.49-1.82,8.11-.42,12.45A.28.28,0,0,0,586.36,244.55Z"/><path d="M627.35,314.57c-7.83-4.51-16.77-5.56-25-8.93-.63-.26-1.16.71-.66,1.13,5.62,4.75,11.36,9.35,17,14s9.91,9.78,9.68,17.42c-.1,3.23,2.2,5.56,5,6.6a5.89,5.89,0,0,0,3.65,0c2.78-.72,5.26-3.64,5-6.6C641.3,328,636.32,319.75,627.35,314.57Z"/><path d="M290.11,796.37c-14.06-7.41-30.23-16.83-46.54-11.4-8.93,3-3.55,16,5,11.9,27.07-13,63.57,14.83,83.92,30.49.81.62,1.88-.77,1.1-1.42A252.53,252.53,0,0,0,290.11,796.37Z"/><path d="M292.76,774c-4.78-.57-6.51,5.9-3.68,8.87,5.79,6,15.06,9.57,22,14.48,8.71,6.2,17.82,12.57,24.31,21.21a0,0,0,0,0,.07,0c-4.8-9.53-9.35-18.82-16.27-27C312.86,784,302.65,775.18,292.76,774Z"/><path d="M336.48,778.5a5.69,5.69,0,0,0-6.75-.87,4.74,4.74,0,0,0-2.56,3.32c-.34,1.83-.16,4.13,1.43,5.41,8.39,6.76,10.21,17.39,13.88,26.82a1,1,0,0,0,1.79.23C350,802.58,345.3,786.19,336.48,778.5Z"/><path d="M487.33,785c-16.31-5.43-32.48,4-46.54,11.4a252.55,252.55,0,0,0-43.51,29.56c-.79.65.28,2,1.1,1.42,20.35-15.66,56.85-43.53,83.92-30.49C490.88,801,496.26,787.94,487.33,785Z"/><path d="M419.86,797.36c6.9-4.91,16.17-8.43,22-14.48,2.83-3,1.1-9.43-3.68-8.87-9.89,1.17-20.1,10-26.39,17.48-6.92,8.21-11.47,17.51-16.27,27a0,0,0,0,0,.07,0C402,809.92,411.15,803.56,419.86,797.36Z"/><path d="M402.3,786.37c1.59-1.29,1.77-3.58,1.43-5.41a4.74,4.74,0,0,0-2.56-3.32,5.69,5.69,0,0,0-6.75.87c-8.82,7.69-13.48,24.08-7.79,34.92a1,1,0,0,0,1.79-.23C392.08,803.76,393.91,793.13,402.3,786.37Z"/><path d="M130.43,500.73a.19.19,0,0,0-.09-.31c-6.94-2.5-17.67-.56-19.55-10.11-2-10-19.25-2.83-11.47,6.66,3.93,4.79,9.62,6.57,15.59,7.23C120,504.76,126.84,504.69,130.43,500.73Z"/><path d="M134.71,511.26c.25-.33-.16-.76-.51-.66a54.58,54.58,0,0,1-20.9,1.62c-8.86-1-9,14.68,0,13.85C122.14,525.25,129.63,518,134.71,511.26Z"/><path d="M142.69,517.58c.37,1.8-.48,3.13-1.31,4.6.59-1.06-1,.61-1,.68-.51.5-1,1-1.53,1.47a12.75,12.75,0,0,1-2,1.8l-.34.23s-.2,0-.6.11l-.27.09a1.41,1.41,0,0,0-.59-.12c-3.48-.31-6.41,3.14-6.41,6.4,0,3.65,2.92,6.17,6.41,6.4,6.05.39,10.38-3.79,12.45-9.07,1.89-4.85-1.44-9.11-3.84-13A.49.49,0,0,0,142.69,517.58Z"/><path d="M156.26,524.29a.45.45,0,0,0-.68.39,37.51,37.51,0,0,0,1.49,7.13c1,3.14,0,5.75-.6,8.88-1.72,9.21,12.51,10.42,12.22,1.65C168.43,534.63,162,528.61,156.26,524.29Z"/><path d="M618,504.2c6-.67,11.66-2.44,15.59-7.23,7.79-9.5-9.48-16.7-11.47-6.66-1.89,9.55-12.62,7.61-19.55,10.11a.19.19,0,0,0-.09.31C606,504.69,612.9,504.76,618,504.2Z"/><path d="M619.57,526.06c9,.83,8.86-14.88,0-13.85a54.58,54.58,0,0,1-20.9-1.62c-.35-.1-.76.34-.51.66C603.24,518,610.74,525.25,619.57,526.06Z"/><path d="M597.89,539.23c3.48-.23,6.41-2.74,6.41-6.4,0-3.26-2.92-6.7-6.41-6.4a1.43,1.43,0,0,0-.59.12l-.27-.09c-.4-.12-.55-.13-.6-.11l-.34-.23a12.75,12.75,0,0,1-2-1.8c-.5-.5-1-1-1.53-1.47-.07-.07-1.64-1.74-1.05-.68-.82-1.48-1.68-2.8-1.31-4.6a.49.49,0,0,0-.9-.38c-2.4,3.84-5.73,8.1-3.84,13C587.51,535.44,591.84,539.62,597.89,539.23Z"/><path d="M576.4,540.7c-.58-3.13-1.62-5.74-.6-8.88a37.5,37.5,0,0,0,1.49-7.13.45.45,0,0,0-.68-.39c-5.78,4.32-12.17,10.34-12.43,18.05C563.9,551.11,578.13,549.9,576.4,540.7Z"/><path d="M669.58,236.12c-10.75-49.57-33.31-95.34-67.05-136C536.33,20.24,442,10,367.14,10a539.4,539.4,0,0,0-62.31,3.23c-12.26-2.06-25,.14-36.89,6.17-48.67,10.9-97.28,33.77-136.18,80.68-33.74,40.7-56.3,86.46-67.05,136a299.59,299.59,0,0,0,3.44,141.39c15.36,56.57,12.78,80.72,10.43,85.37l-.38.87c-.5,1.44-12.1,35.57,5.53,66.54a72.24,72.24,0,0,0,14,17.5c2.92,22.09,18,53.88,39.87,58.48,8.83,1.86,13.34,44,16,69.12,1.18,11.11,2.41,22.6,3.94,33.55,6.24,44.75,18.67,70.07,40.31,82.06a51.84,51.84,0,0,1,10.84,8.18c5.45,5,11.84,10.8,28,19.25a32.14,32.14,0,0,0,9.75,4.83c5,2.35,10.63,4.88,17.15,7.62A236,236,0,0,0,353,849c7.6,0,12.62-.43,14.2-.59,2.05.2,6.9.59,14.17.59h0a236,236,0,0,0,89.31-18.12c37.46-15.75,47.14-24.59,54.92-31.7A51.79,51.79,0,0,1,536.4,791c21.64-12,34.07-37.31,40.31-82.06,1.54-11,2.76-22.47,3.94-33.55,2.69-25.16,7.19-67.26,16-69.12,21.88-4.6,37-36.41,39.87-58.5a72.34,72.34,0,0,0,14-17.48c17.65-31,6-65.11,5.52-66.55l-.39-.91c-2.3-4.55-4.91-28.76,10.45-85.33A299.62,299.62,0,0,0,669.58,236.12ZM593.8,592.59c-18.8,4-22.45,38.1-27.07,81.33-1.17,11-2.39,22.35-3.89,33.09-5.57,40-15.83,62.12-33.24,71.78a58.9,58.9,0,0,0-10.71,7.59c.34-.79.68-1.56,1-2.37,2.39-6,3.7-12.62,5.25-18.9,2-8.2,7.16-14.07,11.48-21a.43.43,0,0,0-.67-.51c-8.05,8.3-14.78,15.37-18.76,26.34-4.74,13-9.71,22.84-19.56,32.52-7.29,4.22-17.46,9.26-32.42,15.56a222.29,222.29,0,0,1-72.81,16.7,4,4,0,0,0-.55-1c-4.88-6.36-10.87-11.73-15.58-18.22-5.85-8-6.31-18.12-9.28-27.39,0-1.87-.08-3.75-.2-5.66a0,0,0,0,0-.09,0c-.11,1.21-.25,2.41-.41,3.59h0a.14.14,0,0,0-.28,0v1.77c-1.91,12.12-6.33,22.75-11.91,33.17-1.78,2.17-3.45,4.46-5.14,6.74-.51.5-1,1-1.54,1.5a36.73,36.73,0,0,1-7.93,5.34A221.92,221.92,0,0,1,269.08,818c-17.65-7.42-28.64-13.12-36.09-17.75-4.47-6.75-7.79-14.56-11.45-21.71-4.56-8.93-13.6-25.2-25.49-24.11a.28.28,0,0,0,0,.57c13.82,1.76,18.87,20.33,23.22,34.87l-1.09-1a65.31,65.31,0,0,0-13.49-10.09C187.27,769.12,177,747,171.44,707c-1.5-10.74-2.71-22.1-3.89-33.1-4.62-43.22-8.27-77.37-27.06-81.32-8.58-1.81-19.82-15.43-25.6-32.64,2.77,1.52,5.67,2.95,8.71,4.27,2.06,8.64,9.07,15.11,15.09,21.53.07.07.2,0,.14-.11-2.62-3.4-4.4-7.47-6.43-11.25a23.81,23.81,0,0,1-2.42-7.6c2.14.79,4.35,1.53,6.6,2.24.5,3.7,3.09,7.32,5.14,10.25,1.42,2,3.44,3.33,5,5.2a62.26,62.26,0,0,1,5.52,8.33c.28.46.9.06.7-.41a89.79,89.79,0,0,1-5-15.76c-.34-1.51-.74-3.16-1.23-4.79q2.93.7,6,1.32c1.17.24,2.27.5,3.41.75,3.3,17.39,9.91,33.4,16.14,49.9,5.86,15.52,12.82,32.67,23.75,45.33.49.57,1.31-.16,1-.76-8.38-16.25-16.14-31.79-21.55-49.37-4.21-13.69-6-28.3-8.52-42.49,2.6.71,5.07,1.45,7.45,2.21,2.53,17.69,13.83,81.37,47.12,99.33l1.56.84h.57a15.1,15.1,0,0,0,1.28,2.12l-.65,0c-3.45,0-5.23,1.59-6.11,2.94-3.31,5-3.84,21.13.09,28.42,1.87,3.46,4.28,4.18,6,4.18h0a6.48,6.48,0,0,0,.7,0c2.16-.25,4-1.66,5.64-3.73,1.1,4.6,3.46,8.81,8.28,10.11a8.9,8.9,0,0,0,2.29.32,7.21,7.21,0,0,0,6-3.09c.48,7,2.22,13.32,6.75,14.58a9,9,0,0,0,2.41.34c3.66,0,6.17-2.37,7.84-5.16.83,3.32,2.13,6,4,7.66a9.21,9.21,0,0,0,6.18,2.51h0c3,0,6-1.54,8.67-4.44a21.94,21.94,0,0,0,1.93-2.43c1.79,11.48,4.74,17.3,9,17.75.23,0,.45,0,.67,0h0a7.47,7.47,0,0,0,5.44-2.59c2.29-2.39,4.18-6.48,5.56-11.77,1.7,6.22,4.56,11.34,9.24,13.51a8.51,8.51,0,0,0,3.59.82h0c2.51,0,4.91-1.18,7.14-3.52,4.8-5,8.38-15,10.62-24.93,4.14,17.09,13.77,23,14.3,23.3l.41.24.47,0a8,8,0,0,0,.89,0c8.54,0,12.79-11.56,14.9-23.07,2.11,11.51,6.36,23.07,14.9,23.07a8,8,0,0,0,.89,0l.47,0,.41-.24c.53-.31,10.16-6.2,14.3-23.3,2.24,9.92,5.82,19.9,10.62,24.93,2.23,2.34,4.63,3.52,7.14,3.52a8.51,8.51,0,0,0,3.59-.82c4.68-2.17,7.55-7.29,9.24-13.51,1.38,5.29,3.26,9.37,5.56,11.77A7.46,7.46,0,0,0,439.7,751c.22,0,.45,0,.68,0,4.87-.51,7.58-8.32,9.05-17.71a21.89,21.89,0,0,0,1.9,2.38C454,738.51,457,740,460,740a9.21,9.21,0,0,0,6.18-2.51c1.86-1.63,3.16-4.34,4-7.66,1.68,2.79,4.18,5.16,7.84,5.16a9,9,0,0,0,2.41-.34c4.55-1.26,6.28-7.65,6.75-14.65a7.21,7.21,0,0,0,5.95,3.16,8.89,8.89,0,0,0,2.28-.32c4.82-1.3,7.18-5.52,8.28-10.12,1.61,2.07,3.48,3.49,5.64,3.74a6.47,6.47,0,0,0,.7,0c1.7,0,4.11-.72,6-4.18,3.93-7.29,3.4-23.4.09-28.42-.89-1.34-2.66-2.94-6.11-2.94a13.49,13.49,0,0,0-2.09.18,15,15,0,0,0,1.39-2.28h1.9l1.56-.84c33.29-18,44.6-81.67,47.13-99.34,2-.65,4.12-1.27,6.29-1.88-4,13.06-7.31,26.37-11.28,39.45-5.27,17.34-12.44,33.65-20.13,50-.06.13.1.28.21.16,23-24,32.65-60.77,40.88-92.09q2.78-.63,5.7-1.23c1.13-.23,2.21-.48,3.32-.73-2.51,7.47-4.75,15-7.44,22.43-.07.18.18.28.3.18,7.46-6.38,12.34-15.77,15.93-24.78,2.83-.8,5.56-1.67,8.22-2.59-1.35,5.48-2.76,11.3-5.88,15.68-.06.09.07.17.14.11a43.16,43.16,0,0,0,13.68-18.74s0-.08,0-.13q5-2.15,9.58-4.64C613.67,577.09,602.4,590.78,593.8,592.59Zm-356,68.5.08.41c.39,1.32.79,2.87,1.15,4.52a35.58,35.58,0,0,0,1.21,10.54A16.94,16.94,0,0,1,240,679a9.53,9.53,0,0,0,1,1.35,4.94,4.94,0,0,1-.66,1.34,2.33,2.33,0,0,1-2.06,1,5.22,5.22,0,0,1-.58,0c-9.07-1-10.82-7.16-11.32-20.49-.33-8.83,1.41-12,2.48-13.11a2.84,2.84,0,0,1,2.18-.93,6,6,0,0,1,1.94.38c2.62.92,4.25,4.41,5.17,7.64-.18,1.4-.31,2.95-.37,4.69,0,.05,0,.1,0,.16Zm5.58-.45c.35-8.67,2.41-11.76,4.09-11.76a5.8,5.8,0,0,1,3.26,1.6c4.38,3.65,7.46,10.06,8.31,12-.94,4.7-1.81,8.37-1.93,8.88a13.6,13.6,0,0,0-.53,3.43,6.89,6.89,0,0,1-5.63,4.15,12.56,12.56,0,0,1-1.68.13,4.55,4.55,0,0,1-3.54-1.21C246.22,671.16,244,662.78,243.34,660.65Zm-2.23,27.71a7,7,0,0,1,1.15.1c5.63,1,7.59,3.18,8.23,4.31a14.58,14.58,0,0,0-2.45,7.72c-.19,1.35-.51,3.89-.76,7-1.26,6-2.91,11.47-6.13,11.47a4.63,4.63,0,0,1-1.18-.17c-4.27-1.16-5.7-6.8-6-12.09A84.09,84.09,0,0,0,238.82,689,4.67,4.67,0,0,1,241.11,688.36Zm-7.66-.17c-2.72,3.81-3.25,9-3.31,9.86a48.42,48.42,0,0,0-.4,7.78c-1.6,3.66-3.42,6.25-5.27,6.47h-.21c-.79,0-1.54-.66-2.25-2-3.27-6.07-2.59-20.58-.29-24.08.29-.44.88-1,2.57-1C227.06,685.24,230.86,686.86,233.45,688.19Zm-11.43-31c-.16,1.3-.31,2.55-.46,3.8-17.95-16.15-28-53.54-32.05-76.44,34.42,16,37,39.62,35.08,61.42l-.14.12a9.28,9.28,0,0,0-1.37,1.86C222.77,651.11,222.39,654.2,222,657.21Zm.78,19.62h-1.06l.17-3.34A27.16,27.16,0,0,0,222.8,676.83Zm61.09,48c.09,1.39-1.39,5-4,7.9-1.86,2-3.83,3.1-5.56,3.1a5,5,0,0,1-3.38-1.46c-2.16-1.9-3.43-7.11-3.64-13.45l6.22-26.76a3.46,3.46,0,0,1,1.3-.86,5.85,5.85,0,0,1,1.75-.29c4.6,0,6.61,7.39,6.94,8.77A165,165,0,0,0,283.89,724.82Zm-19.43-19.94A69.55,69.55,0,0,0,263,720.66c-.47,2.78-2.59,10.14-6.71,10.14a4.83,4.83,0,0,1-1.27-.19c-2.73-.76-4.55-9.27-3.53-22.36.27-1.29.53-2.6.78-3.91a64.89,64.89,0,0,1,2.46-10,6.81,6.81,0,0,1,4.21-2,21.35,21.35,0,0,1,2.55-.16,15.43,15.43,0,0,1,7.07,1.57A37.25,37.25,0,0,0,264.46,704.88Zm39.08,17.95c-1.06,11.81-3.79,19.69-6.59,22.61a3.44,3.44,0,0,1-2.37,1.28h-.23c-2.5-.26-5.05-9.55-6.23-21.88,0-.11,0-.23,0-.34-.32-4.35-.4-21.57-.4-22.84.28-4.29,1.39-9.36,5.11-9.36a10.13,10.13,0,0,1,5.54,2.24c1.85,1.44,4.26,7.44,5.47,11.46A122.58,122.58,0,0,0,303.54,722.83Zm4.57-17c.22-2.42.48-4.43.73-5.78.8-4.28,1.42-5,7.42-5,1.67,0,3.72.07,6.08.16l2.48.09c7,.23,9,1.92,9.53,2.63a1.53,1.53,0,0,1,.35,1.08l-.13.38v.09a9,9,0,0,0-.25,3.76c0,1.4,0,2.74,0,4.05-1.15,12.28-5.48,30.59-11.85,37.26-1.4,1.46-2.76,2.21-4.06,2.21h0a4.25,4.25,0,0,1-1.8-.43c-5.93-2.75-8.2-13.07-8.8-23.45A134.46,134.46,0,0,0,308.11,705.8ZM338.85,700a4.91,4.91,0,0,1,.73-1.24c1.3-1.59,4.44-3.51,12-3.51,8.84,0,11.84,2,12.84,3.17a2.78,2.78,0,0,1,.62,1.21,6.1,6.1,0,0,0,0,.83l0,.18a150.15,150.15,0,0,1-2,21.32c-2.27,12.84-6.08,19.92-10.75,19.92a27.07,27.07,0,0,1-6.94-7.94c-3-4.95-6.43-13.44-6.72-26.52A61.45,61.45,0,0,0,338.85,700Zm56.87,7.52c-.56,23.7-11.49,32.79-13.68,34.37-9,0-12.57-25.3-12.74-41.24v-.18l0-.12a6.08,6.08,0,0,0,0-.69,2.71,2.71,0,0,1,.62-1.22c1-1.19,4-3.17,12.84-3.17,7.53,0,10.66,1.91,12,3.51a4.89,4.89,0,0,1,.73,1.23A61.67,61.67,0,0,0,395.72,707.49Zm30.76,15.32c-.59,10.39-2.86,20.7-8.8,23.45-2,.94-3.84.35-5.87-1.77-6.36-6.68-10.69-25-11.84-37.26,0-1.31,0-2.66,0-4.05a9,9,0,0,0-.23-3.7v-.07l-.13-.39a1.41,1.41,0,0,1,.33-1.16c.54-.71,2.55-2.4,9.53-2.63l2.48-.09c2.37-.09,4.41-.16,6.08-.16,6,0,6.63.76,7.42,5,.25,1.36.52,3.37.73,5.8A134.24,134.24,0,0,0,426.47,722.81Zm19.69,2c-1.18,12.33-3.73,21.61-6.23,21.87a3.25,3.25,0,0,1-2.6-1.27c-2.8-2.92-5.53-10.8-6.58-22.59a122.5,122.5,0,0,0-.3-16.86c1.21-4,3.62-10,5.47-11.46a10.1,10.1,0,0,1,5.54-2.24c3.72,0,4.83,5.09,5.11,9.38,0,1.35-.08,18.48-.41,22.83C446.15,724.6,446.17,724.72,446.17,724.84Zm4.65-23.07c.33-1.38,2.31-8.77,6.94-8.77a5.85,5.85,0,0,1,1.75.29,3.46,3.46,0,0,1,1.3.86L467,720.91c-.22,6.34-1.49,11.55-3.64,13.45a5,5,0,0,1-3.37,1.46c-1.73,0-3.71-1.1-5.57-3.1-2.59-2.78-4.06-6.32-4-7.78A183.09,183.09,0,0,0,450.82,701.77ZM482,704.34c.25,1.29.51,2.61.79,3.92,1,13.09-.81,21.59-3.54,22.35a4.83,4.83,0,0,1-1.27.19c-4.1,0-6.24-7.36-6.71-10.14a69.5,69.5,0,0,0-1.48-15.78,37.27,37.27,0,0,0-4.06-11.2,15.47,15.47,0,0,1,7.06-1.57,21.31,21.31,0,0,1,2.54.16,6.81,6.81,0,0,1,4.21,2A64.82,64.82,0,0,1,482,704.34Zm29.48-42.27c-.18-1.59-.37-3.2-.58-4.86-.37-3-.75-6.11-1.06-9.24-2.18-22.32-.59-46.9,34.84-63.39a272,272,0,0,1-6.78,28.82c-6.8,22.9-15.62,39.31-25.74,48.08,0,.28,0,.56,0,.85-.05,1.42-.12,2.82-.22,4.17.09,1,.17,2.05.22,3l.36,7.29-2.39,0A40.41,40.41,0,0,0,512,666.5C511.83,665.06,511.69,663.59,511.51,662.08Zm141.1-288.23c-5.75,21.18-9.09,37.88-10.88,51-1.41-4.59-2.74-9.19-3.87-13.82-5.24-21.28,5.29-42.76,0-64-.06-.26-.42-.18-.44.06-1.28,15.43-5,30.14-7,45.16-.51-6.14-4.71-11.09-11.48-13.64a28.27,28.27,0,0,0,2.18-2.17c4.66-5.17,5.89-11,3.45-16.49-3-6.8-11.45-11.74-20-11.74h-.91c3.48-4.48,4.34-9,2.56-13.37-2.91-7.2-10.21-9.54-16.75-9.36a12.94,12.94,0,0,0,.21-4.67,8.77,8.77,0,0,0-2.21-6.42,16.45,16.45,0,0,0-6.74-7.19c-7.56-3.8-16.57-2-25.3,4.94,1-5.94-1.81-11.11-8.23-15.16a11.7,11.7,0,0,0-9.41-1.8c-3.88,1-7.56,4.21-11.19,9.76-.16-.88-.35-1.72-.58-2.54-1.52-5.39-4.68-9.65-8.87-12a16,16,0,0,0-12.43-1.24,14,14,0,0,0-5.51,3,18.4,18.4,0,0,0-13.87-10.06c-4.53-.7-8.23.85-10.13,4.25a31,31,0,0,0-3.09,7.81,29.63,29.63,0,0,0-17-8.93c-5.06-.84-9.35,1.63-10.67,6.16a33.66,33.66,0,0,0-1.34,11.08,92.65,92.65,0,0,0-14-6.84c-3.86-1.59-7.86.8-10.1,3.87-4.43,6-5.18,13-2.3,20.16A31.05,31.05,0,0,0,402,315.27a8.53,8.53,0,0,0-8.35,6.3c-1.64,6.23-.88,14.36,1.78,20.87a9.57,9.57,0,0,0-3-.43,34.3,34.3,0,0,0-4.61.5,26.88,26.88,0,0,1-3,.36c-5.53.16-9.5,4.08-10.11,10-.54,5.24,1.14,12.29,6.12,16.2q.83.65,1.66,1.23a19.37,19.37,0,0,0-9.15,5.08c-4.74,5-4.6,12.42.34,18.06,2.49,2.85,5.8,4.7,9,6.5l.91.51.45.25c-4,2.38-8.15,6.44-9.4,11.62-2.09,8.73,2.59,15.82,12.21,18.54a16.06,16.06,0,0,0,5.26,2.38,23.43,23.43,0,0,0-.86,12.41c.75,4.37,5.07,6.36,8.54,6.73,1.89.2,3.78.32,5.66.33a9.52,9.52,0,0,0-.17,8.9,10.2,10.2,0,0,0,11.37,5.53l.72-.16c-.94,6,.91,11.87,4.92,15.41a17.71,17.71,0,0,0,17.71,3.77l1.08-.42a28.46,28.46,0,0,0,3.22,22.78A7.78,7.78,0,0,0,453,512a22.14,22.14,0,0,0,6-2.5c.11,4.4,1.22,9.55,5,13.43a12.25,12.25,0,0,0,10.44,3.95c4.64-.54,9.3-3.75,12.26-8.43,2,4.66,5.57,11.21,12.73,11.79,5.43.44,9.93-3.76,12.1-8.27a19.32,19.32,0,0,0,6.73,9.24,11.77,11.77,0,0,0,6.93,2.25,13.17,13.17,0,0,0,9.69-4.45,22,22,0,0,0,5.54-11.36,24.55,24.55,0,0,0,10.83,7.61c6,2,10,.06,12.27-1.92,4.18-3.61,6-10.07,6-15.87,6.18,5.34,11.19,4.33,14.48,2.28,6.53-4.06,8.34-13.28,6.64-21.11,6.64,2.33,12.73,1,16.69-3.9,5.33-6.52,5.46-15,.55-23.27,4.41.62,8.55,0,11.55-1.69a11.4,11.4,0,0,0,5.46-7.57,18.2,18.2,0,0,0-2.36-14.76,11.13,11.13,0,0,0,8-8.95c0-.13,0-.25.06-.37,2.42,14.9,7.55,30.29,13.38,44,2.19,8.86,5.88,31.09-5.57,51.2a57.46,57.46,0,0,1-8.29,11.12,15.07,15.07,0,0,0-5.59-1c-12.17,0-36.92,12.58-55,22.76a126.54,126.54,0,0,0-29,1.05c-18.37,2.89-32.78,17.2-46.51,28.56-.77.64.21,1.77,1,1.33,16.41-8.89,32.06-19.49,51-21.93a81.08,81.08,0,0,1,9.06-.61l-3.35,2c-24.48,8.57-40.73,21-49.32,37.54-7.58,14.64-7.86,29.75-6.69,43.2.09,1.1.2,2.18.31,3.26a8.88,8.88,0,0,1,4.53-4.23c6.45-2.27,9.9,3.23,9.43,15.73,0,.34,0,.67,0,1-.23,5.38-.7,10-2.14,13.61a15,15,0,0,1-1,2.06,11.16,11.16,0,0,1-3,3.34,40.4,40.4,0,0,0-4.93,2.15,19.62,19.62,0,0,1-2.1.36h-.21a9.09,9.09,0,0,0-3.11-.63,5.47,5.47,0,0,1-2.22-3,7.87,7.87,0,0,1-1.8,1.25,8.33,8.33,0,0,0,1,1.92l.11.13c-5.63,1.09-8.5,3.44-9.95,5.38a11.41,11.41,0,0,0-4.84-1.71,23.87,23.87,0,0,0-3.07-.2,19.25,19.25,0,0,0-9.89,2.53,6.93,6.93,0,0,0-2.15-1.16,10.06,10.06,0,0,0-3-.48c-4,0-6.68,2.58-8.41,5.39-2-5.14-5.57-6.1-7.9-6.1-3.83,0-7.21,2.4-8.16,3.14-1.57,1.22-3,3.63-4.13,6.12-1.58-5.55-4.89-6.57-11.14-6.57-1.75,0-3.83.07-6.24.16l-2.47.09c-6.14.21-10.3,1.54-12.42,3.93-2.92-2.61-7.66-3.93-14.16-3.93-7.58,0-12.82,1.4-15.59,4.15-2.77-2.76-8-4.15-15.59-4.15-6.5,0-11.25,1.32-14.16,3.93-2.12-2.39-6.28-3.72-12.42-3.93l-2.47-.09c-2.41-.09-4.49-.16-6.24-.16-6.25,0-9.56,1-11.14,6.57-1.15-2.49-2.57-4.9-4.14-6.13-.95-.73-4.32-3.14-8.16-3.14-2.34,0-5.89,1-7.9,6.1-1.72-2.81-4.39-5.39-8.4-5.39a10,10,0,0,0-3,.48,6.93,6.93,0,0,0-2.15,1.16,19.25,19.25,0,0,0-9.89-2.53,23.91,23.91,0,0,0-3.07.2,11.41,11.41,0,0,0-4.84,1.71c-1.45-1.94-4.32-4.28-9.95-5.37l.11-.13a8,8,0,0,0,.85-1.47,10.56,10.56,0,0,0,3.34.51l.67,0,.66,0a16.41,16.41,0,0,0,2.27-.17A10.93,10.93,0,0,0,258,680l0,0c1,1.33,2.95,2.92,6.77,2.92,1,0,1.88,0,2.77.09s1.73.08,2.53.08a9.89,9.89,0,0,0,6-1.55,9.79,9.79,0,0,0,2.51,5.09,8,8,0,0,0,5.38,1.8l.68,0,.65,0h0a15.93,15.93,0,0,0,11.36-5.63c1.4.78,7.61,4,14.31,4l.82,0,.51,0a15.63,15.63,0,0,0,11.57-4.6,8.89,8.89,0,0,0,1.26,2.05,7.94,7.94,0,0,0,5.78,2.9h29.63a8.16,8.16,0,0,0,6.09-2.43,8,8,0,0,0,.55-.65,7.41,7.41,0,0,0,.54.65,8.17,8.17,0,0,0,6.09,2.43h28.3a7.94,7.94,0,0,0,5.78-2.9,9.57,9.57,0,0,0,1.67-3.07,18.32,18.32,0,0,1-1.59-2.28l0-.07c.07-.43.12-.89.16-1.38a20,20,0,0,0-.08-3.39,21.79,21.79,0,0,0,1.53,3.38c.18.33.38.62.58.92s.19.33.3.47h-.35a12.81,12.81,0,0,1-.57,2.35A15.5,15.5,0,0,0,422,686.88c7.45,0,14.32-4,14.61-4.18l.59-.35a21.6,21.6,0,0,1-1.58-2.14c.07-.43.14-.85.18-1.3s.07-1,.09-1.57q0-.56,0-1.14c.18.39.37.77.56,1.14.29.55.6,1.08.92,1.58.16.25.33.47.49.7-.06.57-.14,1.13-.25,1.67l-.18.93-.23.13c3.86,4.58,8.6,6.15,11.81,6.15a8,8,0,0,0,5.38-1.8c1.27-1.13,2.14-3.17,2.73-6.06a8.56,8.56,0,0,1-1.22-1.73h-.62c.05-.32.09-.66.14-1s.07-.47.1-.71c.27-2.27.41-4.83.48-7.44a22,22,0,0,0,1.42,7.43c.06.13.13.24.19.37a7.24,7.24,0,0,0,.84,1.35h-1c-.09.61-.19,1.18-.3,1.73l.06.07c2.06,2.16,4.69,2.45,7,2.45.8,0,1.65,0,2.53-.08s1.81-.09,2.76-.09c3.83,0,5.79-1.59,6.77-2.92l0,0a11.19,11.19,0,0,1-1-1.11h-.85a4.57,4.57,0,0,0,.4-.65,5.41,5.41,0,0,0,.49-1.19,7.71,7.71,0,0,0,.24-1.84,12.07,12.07,0,0,0,1,1.83,9.27,9.27,0,0,0,.71.92,9.91,9.91,0,0,0,.43-3.19c-1.12-2.32-1.62-5.48-2.06-9.17-.13-1.1-.26-2.14-.41-3.12l0,0c-.22-1.11-.45-2.28-.66-3.48-1,1.9-1.54,3.25-1.54,3.25-.23-1.15-.45-2.35-.67-3.58.44-.87,1-1.89,1.64-3-.42-2.56-.78-5.13-1-7.48-.57-6-3.47-6.86-5.14-6.86-3.09,0-6,3.14-6.58,3.78l-.2.22L457.94,652c0,.06,0,.12,0,.17,0,1.07,0,2.55.09,4.31v.26l-2,4.18c0,.25,0,.47,0,.71,0-1.94-.08-3.75-.12-5.34l2-4.29c0-5-2-18.67-10.27-18.67-2.19,0-4.51,1-6.91,3.11a29.26,29.26,0,0,0-9.24,16.29c.55,1.15,1.07,2.33,1.57,3.51a30.06,30.06,0,0,0-.23,5.32c-.59-1.68-1.25-3.35-2-5a37.29,37.29,0,0,1,.61-3.83A68.52,68.52,0,0,0,423.05,639c-3.82-4.65-7.35-7-10.48-7a5.7,5.7,0,0,0-3.2,1c-4.45,3-6,9.69-6.31,16.21.77,1.59,1.47,3.25,2.1,4.93a85.1,85.1,0,0,0,.81,9.45c.05.36.09.61.11.71l-.18-.71a85.84,85.84,0,0,0-2.88-9.15c-.05-1.67,0-3.44,0-5.23-3.53-7.32-8.57-13.26-15.6-13.26a16.28,16.28,0,0,0-11.92,5c-4.37,4.41-6.92,11.13-8.41,17.58-1.49-6.46-4-13.18-8.41-17.58a16.26,16.26,0,0,0-11.92-5c-.21,0-.41,0-.62,0s-.47,0-.71,0c-6.3,0-11,4.77-14.44,11-.56-5.77-2.21-11.34-6.15-14a5.69,5.69,0,0,0-3.2-1c-.19,0-.38,0-.57.05a6,6,0,0,0-.75-.05c-3.13,0-6.66,2.37-10.48,7a66.34,66.34,0,0,0-7.58,11.89,28.64,28.64,0,0,0-8.8-14.49c-2.4-2.07-4.72-3.11-6.91-3.11-.24,0-.47,0-.7,0s-.42,0-.62,0c-7.15,0-9.57,10.15-10.13,16.16l-2-4.15-.2-.22c-.56-.63-3.5-3.78-6.58-3.78a4.59,4.59,0,0,0-.67,0,4.83,4.83,0,0,0-.66,0c-1.67,0-4.57.89-5.14,6.86-.17,1.83-.43,3.79-.74,5.78a30.65,30.65,0,0,0-5.78-6.74,9.54,9.54,0,0,0-6-2.59,6.09,6.09,0,0,1-1.33,0c-2.14,0-4.55,1-6.24,4.74a14.45,14.45,0,0,0-1.36-1.91c1.17-13.44.89-28.56-6.69-43.2-8.12-15.68-23.11-27.6-45.4-36.09a94.65,94.65,0,0,1,21,3.88c9.91,3.07,17.28,9.73,25.7,15.39.13.09.28-.06.25-.19C229,568.45,206.74,561.58,190,558.89a176.18,176.18,0,0,0-23.9-1.86c-18.12-10.3-43.79-23.5-56.27-23.5a15.06,15.06,0,0,0-5.59,1,57.32,57.32,0,0,1-8.26-11.06c-8.6-15.07-8.66-31.41-7.24-42.37,9.9-14.34,13.91-34.1,15.3-51.71a11,11,0,0,0,7.75,8.09,18.19,18.19,0,0,0-2.36,14.76,11.4,11.4,0,0,0,5.46,7.57c3,1.73,7.13,2.31,11.55,1.69-4.91,8.25-4.78,16.75.55,23.27,4,4.87,10.06,6.23,16.7,3.9-1.7,7.82.11,17,6.64,21.11,3.29,2,8.29,3.06,14.48-2.28,0,5.8,1.84,12.26,6,15.87,2.29,2,6.28,3.92,12.27,1.92a24.54,24.54,0,0,0,10.82-7.61A21.94,21.94,0,0,0,199.42,529a13.16,13.16,0,0,0,9.68,4.45,11.76,11.76,0,0,0,6.93-2.25,19.3,19.3,0,0,0,6.73-9.24c2.17,4.51,6.64,8.7,12.1,8.27,7.15-.58,10.76-7.13,12.73-11.79,3,4.68,7.62,7.89,12.26,8.43a12.24,12.24,0,0,0,10.45-3.95c3.78-3.89,4.89-9,5-13.43a22.09,22.09,0,0,0,6,2.5,7.78,7.78,0,0,0,8.59-3.47,28.46,28.46,0,0,0,3.23-22.78l1.08.42a17.71,17.71,0,0,0,17.71-3.77c4-3.55,5.87-9.46,4.92-15.41l.73.16a10.19,10.19,0,0,0,11.36-5.53,9.52,9.52,0,0,0-.17-8.9c1.88,0,3.77-.13,5.66-.33,3.46-.37,7.78-2.36,8.54-6.73a23.42,23.42,0,0,0-.86-12.41,16.07,16.07,0,0,0,5.26-2.38c9.63-2.73,14.3-9.81,12.21-18.54-1.24-5.18-5.43-9.24-9.4-11.62l.45-.25.91-.51c3.2-1.8,6.5-3.65,9-6.5,4.95-5.65,5.09-13.08.34-18.07a19.38,19.38,0,0,0-9.15-5.08q.83-.58,1.66-1.23c5-3.91,6.66-11,6.12-16.2-.61-5.91-4.58-9.83-10.11-10a26.86,26.86,0,0,1-3-.36,34.28,34.28,0,0,0-4.61-.5,9.52,9.52,0,0,0-3,.43c2.67-6.51,3.42-14.64,1.78-20.87a8.57,8.57,0,0,0-8.35-6.3,31.07,31.07,0,0,0-14.58,4.34c2.88-7.17,2.14-14.11-2.3-20.16-2.25-3.07-6.25-5.46-10.1-3.88a92.34,92.34,0,0,0-14,6.84,33.66,33.66,0,0,0-1.34-11.08c-1.32-4.53-5.61-7-10.67-6.16a29.62,29.62,0,0,0-17,8.93,31.15,31.15,0,0,0-3.09-7.81c-1.9-3.4-5.59-4.95-10.13-4.25a18.4,18.4,0,0,0-13.87,10.06,14,14,0,0,0-5.51-3,16,16,0,0,0-12.43,1.24c-4.2,2.34-7.35,6.6-8.87,12-.23.82-.42,1.65-.58,2.53-3.63-5.55-7.32-8.75-11.19-9.76a11.7,11.7,0,0,0-9.41,1.8c-6.42,4.06-9.2,9.22-8.23,15.16-8.73-6.92-17.73-8.74-25.3-4.94a16.43,16.43,0,0,0-6.74,7.19,8.73,8.73,0,0,0-2.2,6.42,12.88,12.88,0,0,0,.2,4.67c-6.6-.19-13.84,2.16-16.76,9.36-1.78,4.41-.92,8.89,2.56,13.37-.31,0-.56,0-.91,0-8.57,0-17,4.94-20,11.74-2.43,5.46-1.21,11.32,3.45,16.49a28.68,28.68,0,0,0,2.18,2.17c-6.9,2.6-11.14,7.69-11.52,14-.41,6.91,5.4,11.69,11.63,14.21-5.43,3.07-9.15,7.15-10.9,11.79.5-22.85-5.22-49-17.35-68.31a.5.5,0,0,0-.9.38c5.36,22.19,9.93,42.1,8.29,65.14-.3,4.25-.85,8.48-1.57,12.69C91.36,414.84,88,397,81.67,373.85a285.52,285.52,0,0,1-3.28-134.77C88.66,191.73,110.25,148,142.55,109l118-73.33c24-.24,42.75,14.51,57.8,35.79,14,19.76,26.17,40.47,47.44,53.31,16.2,9.78,36.9,12.49,55.46,13.1,19.12.64,40.28-2.76,54.67-16.28,28.37-26.66,1.56-84.27-33.35-89.65-16.94-2.61-34.78,7.48-42.72,22.22-8.82,16.39,2.33,30.13,17.46,36.16.46.18.73-.54.33-.77C395.93,76.62,398.41,54.07,419.27,42c20.16-11.69,40.7.07,51.79,17.74,9.79,15.6,14.07,39.76,1,54.67-11.32,12.92-32,14.74-48,14.65a116.33,116.33,0,0,1-47.08-10c-19.41-8.83-31.65-28-43-45.12-10.89-16.37-21.78-31.86-39-42.16-1.46-.87-3-1.66-4.47-2.42,2.62-.42,5.24-.83,7.86-1.19,8.38.53,16.66,3.21,25.36,9.51,19.37,14,30.1,35.65,45.61,53.2,11.37,12.86,25.39,20.52,42.55,20.54,14.73,0,30.91-3.89,43.22-12.09,8.06-5.37,13.75-15,9.32-24.6-4.22-9.13-16.24-22.83-27.83-20.14-19.17,4.45-16.3,36.08,6.47,28.11a1.27,1.27,0,0,0-.68-2.45c-12.68,2.89-17-9-9.27-17.64,9.49-10.66,26.53,9.47,27.27,18.68.91,11.24-15.43,17-23.67,19.42-11.41,3.4-24.5,4.21-36.09,1.22-16-4.12-27.12-20.45-35.68-33.35-9.35-14.09-18-28-30.22-39.84q-2-2-4.18-3.72c12.54-.76,24.8-1,36.56-1,34.48,0,73.26,2.26,111.18,12.94,4.25,5,9.7,9.16,13.57,14.44,5.67,7.71,9.57,17,12.06,26.14,6.4,23.65-1.68,45.89-21.46,60.06a.14.14,0,0,0,.14.24c21-10.5,30.29-33.45,30-56-.14-9.79-3.29-24.54-9.54-36.61C535.2,57.87,565.86,77.79,591.74,109L612,150.13c-1.69.8-3.36,1.64-5,2.52l-6.13,12.47c5.11-1.7,10.32-4.49,15.57-6l39.44,80A285.52,285.52,0,0,1,652.61,373.85Zm-34,63.66c3.41,3.87,4.5,8.57,3.22,14a8.41,8.41,0,0,1-4,5.6c-3.14,1.82-8,2-13,.54l-4.58-1.36,2.91,3.79c3,3.85,9,13.77,1.75,22.71-5.17,6.34-12.9,3.34-16,1.75l-3.54-1.82,1.37,3.73c2.58,7,1.62,16.91-4.42,20.66-4.12,2.56-8.56,1-13.59-4.8l-3.41-3.92.7,5.15c0,.08,0,.16,0,.24,1,5.56-.31,13.48-4.63,17.21-2.45,2.11-5.56,2.56-9.26,1.33a22.4,22.4,0,0,1-11.68-9.82l-2.9-4.83,0,5.63a19.47,19.47,0,0,1-5.08,13.62c-3.45,3.78-8.71,4.52-12.51,1.77-3.43-2.48-5.6-6.26-6.81-11.89L512,511.16l-1.78,5.49a37.67,37.67,0,0,1-1.34,3.54c-1.57,3.58-5.14,7.28-9.25,6.95-5.76-.47-8.7-6.13-11-12.18-.05-.14-.1-.29-.15-.44l-1.3-4-1.66,3.5c-.44.93-.84,1.67-1.24,2.35-2.46,4.1-6.38,6.93-10.23,7.38a9.15,9.15,0,0,1-7.86-3c-3-3.14-4.48-8.16-4-14.13l.25-3.46-2.75,2.12a20.23,20.23,0,0,1-7.42,3.69,4.7,4.7,0,0,1-5.24-2.14c-4.46-6.9-5.06-17.11-1.38-23.74l3.08-5.56L443.42,481a20.89,20.89,0,0,1-4.38,2.2,14.61,14.61,0,0,1-14.59-3.18c-3.53-3.12-5-8.61-3.63-14,.07-.29.16-.58.26-.86l1-3-2.94,1a23.41,23.41,0,0,1-2.95.82,7.05,7.05,0,0,1-8-3.83,6.53,6.53,0,0,1,1.71-8l3.52-3-4.6.24a53.67,53.67,0,0,1-8.58-.25c-2.39-.26-5.35-1.51-5.81-4.18-.82-4.75-.36-8.9,1.39-12.33l1-1.95-2.17-.29a13.32,13.32,0,0,1-6.08-2.37l-.23-.16-.27-.07c-3.91-1.06-12.73-4.65-10.28-14.9,1.15-4.8,5.54-8.52,9.26-10.39l.42-.19,1.17-.52-.17-1.34c0-.12,0-.24,0-.36l-.08-.85-.92-.47c-.74-.38-1.47-.76-2.19-1.17l-.92-.52c-3-1.67-6-3.39-8.18-5.84-3.25-3.71-4.64-9.45-.43-13.88,2.55-2.68,6.73-4.45,11.48-4.87l5.66-.5-5.13-2.45a26.22,26.22,0,0,1-4.86-3.07c-4-3.17-5.39-9.19-5-13.44.35-3.39,2.4-7.07,7.12-7.21a28.88,28.88,0,0,0,3.34-.39,31.45,31.45,0,0,1,4.18-.46,6.47,6.47,0,0,1,4,1.33l.7.51.8-.32.38-.16.41-.17,1.75-.61-.91-1.62c-3.5-6.21-4.73-15.14-3-21.71a5.51,5.51,0,0,1,5.19-4,27.89,27.89,0,0,1,13.28,4l.14.07.17.08a14.75,14.75,0,0,1,4.35,3.62,22.65,22.65,0,0,1,2.06,2.54l1,1.14,1.25-.79,1.57-.91-1.15-1.41c-4.27-5.25-10.35-15.52-3.1-25.41,1.14-1.56,3.78-3.92,6.42-2.84,5.53,2.28,11.34,4.81,16.18,8.37l3,2.23-.57-3.72a30.17,30.17,0,0,1,.91-13.12c1.06-3.63,4.4-4.43,7.18-4a26.08,26.08,0,0,1,17.16,10.32l2.25,3.14.55-3.82a28.47,28.47,0,0,1,3.37-10.06c1.69-3,5.08-3,6.95-2.7,5.82.9,10,4.37,12.48,10.3l1,2.44L500,295.8a10.7,10.7,0,0,1,5.58-3.67,13,13,0,0,1,10.07,1c3.47,1.94,6.1,5.53,7.4,10.12a28.64,28.64,0,0,1,1,6.55l.25,5.52,2.66-4.84c4-7.27,7.8-11.29,11.66-12.29a8.61,8.61,0,0,1,7,1.41c7.09,4.48,8.74,10,5.06,17l-4.91,9.3,7.39-7.49c4.3-4.35,15.45-13.89,26.26-8.46a13.45,13.45,0,0,1,5.47,6l.1.2.15.16a5.67,5.67,0,0,1,1.51,4.38l0,.19,0,.19a10.54,10.54,0,0,1-.7,5.53l-.94,2.41,2.57-.31c2.89-.34,12.56-.84,15.84,7.27,1.64,4.05.17,8.36-4.39,12.81l-3,2.94,4.19-.28c1.63-.11,3.08-.16,4.42-.16h0c7.4,0,14.63,4.16,17.19,9.9,1.93,4.34.92,8.88-2.93,13.15a27.89,27.89,0,0,1-4,3.62l-2.58,1.94,3.13.8c3.45.88,11.52,3.83,12,12.06.37,6.33-6.6,10.51-12.76,12.19h-.17l-3.29,1.65,3,1.33c9.94,4.34,14.91,11.81,13.28,20-.81,4.06-3.39,6.37-7.87,7l-2.81.43Zm.19-30.74c4.83-2,9.42-5.3,11-9.94a118.1,118.1,0,0,0-.64,19.45c0,.42.06.84.09,1.26C627.43,413.33,623.87,409.62,618.85,406.78ZM276.17,669.52a23,23,0,0,1-1,6.24c-.16-1.87-.26-4-.32-6.25-.23,4.27-.94,7-2.16,8.28a4.29,4.29,0,0,1-3.16,1.11l-1.76-.06c-1,0-1.95-.09-3-.09-1.64,0-2.76-.4-3.35-1.19a3.83,3.83,0,0,1-.62-2,37.64,37.64,0,0,0,2-9.41c.15-1.27.29-2.46.48-3.49.86-4.38,1.75-9.56,2.18-14,.24-2.55.87-3,.91-3,.73,0,2.22,1.09,3.21,2.14l6.53,13.72c0,.13,0,.25,0,.38Q276.1,666,276.17,669.52ZM295,678c-2.91,4.44-6.73,6.28-9.7,6.28a4,4,0,0,1-2.56-.73c-1.57-1.4-2.13-7.57-2.28-13.91.12-2.26.11-4.88,0-7.88,0-2,.07-3.82.11-5.16,0-1.8.08-3.32.08-4.41,0-6,2.35-14.61,6-14.61,1.13,0,2.56.72,4.14,2.09,6.42,5.53,8.07,13.59,8.46,18.22-.43,1.08-.84,2.17-1.22,3.26,0,.17,0,.28,0,.29a34.57,34.57,0,0,1-3,14.19C294.92,676.42,294.93,677.2,295,678Zm5.54-1.18a39.08,39.08,0,0,0,3-14.88,70.87,70.87,0,0,1,11-20.2c4.17-5.07,6.56-5.46,7.2-5.46a1.44,1.44,0,0,1,.84.25c4,2.67,4.83,11.94,4.35,20.08-.84,2.49-1.54,5-2.12,7.3l0,.1,0,.18a35.52,35.52,0,0,1-1.91,9.46,22.69,22.69,0,0,0-.14,3.12,11.43,11.43,0,0,1-10.43,5.89c-4.9,0-9.72-2.18-11.61-3.14A20.54,20.54,0,0,1,300.5,676.79Zm27.84-2.21a40.85,40.85,0,0,0,1.95-9.93c3.17-12.55,8.58-23.89,15.94-24.47a12,12,0,0,1,8.16,3.74c9.39,9.47,9.28,32.92,9.28,33.15,0,1-.17,3.44-1.48,4.81a4,4,0,0,1-3,1.1h-27a3.81,3.81,0,0,1-2.53-1.38C328.49,680.2,328.05,677.78,328.34,674.59Zm39.82-10.76h.13l-.06.41Zm10.41-19.89a12,12,0,0,1,8.9-3.78c7.65,0,13.27,11.61,16.53,24.5.64,2.52,1.19,5.1,1.64,7.64.14.81.24,1.57.3,2.3.29,3.15-.14,5.54-1.29,7A3.8,3.8,0,0,1,402,683H373.78a4,4,0,0,1-3-1.1c-1.31-1.37-1.51-3.85-1.48-4.81C369.29,676.85,369.18,653.4,378.57,643.93Zm33.16-7.43a1.44,1.44,0,0,1,.84-.25c.64,0,3,.39,7.2,5.46a70.85,70.85,0,0,1,11,20.2,46.42,46.42,0,0,1,3,14.84,20.66,20.66,0,0,1-.15,2.75,27.48,27.48,0,0,1-11.6,3.14c-5.7,0-9.68-3-11.9-9a35.52,35.52,0,0,1-1.91-9.46l0-.18,0-.1C406.73,655.14,406.41,640,411.73,636.5Zm31.8,3.14c1.58-1.37,3-2.09,4.14-2.09,3.68,0,6,8.65,6,14.61,0,1.09,0,2.62.08,4.41,0,1.35.08,3.15.11,5.18,0,2.41,0,5.15,0,7.86-.15,6.34-.71,12.51-2.28,13.91a4,4,0,0,1-2.56.73c-3.45,0-8-2.48-11-8.65a34.57,34.57,0,0,1-3-14.19s0-.12,0-.29C434.9,659.13,434.88,647.1,443.54,639.64Zm14.6,22.2c0-.14,0-.27,0-.42l6.53-13.72c.9-1,2.44-2.14,3.24-2.13,0,0,.63.47.88,3,.43,4.49,1.32,9.67,2.18,14.06,1,5.32,2,9.46,2.12,9.77l0,.13a9.39,9.39,0,0,1,.33,3,3.85,3.85,0,0,1-.62,2c-.58.79-1.71,1.2-3.35,1.2-1,0-2,0-3,.09s-1.58.07-2.32.07c-2.05,0-3.16-.32-3.93-1.13-1.22-1.28-1.93-4-2.16-8.28C458,667.35,458,664.8,458.13,661.84ZM119.86,405c-6.21-1.65-13.32-5.85-12.95-12.24.49-8.23,8.55-11.17,12-12.06l3.12-.8-2.57-1.94a28.27,28.27,0,0,1-4-3.63c-3.84-4.27-4.85-8.81-2.92-13.15,2.56-5.74,9.78-9.9,17.19-9.9h0c1.34,0,2.78.05,4.41.16l4.19.28-3-2.94c-4.55-4.44-6-8.75-4.39-12.81,3.28-8.11,13-7.61,15.84-7.27l2.57.31-.94-2.41a10.52,10.52,0,0,1-.7-5.53l0-.19,0-.19a5.63,5.63,0,0,1,1.51-4.37l.15-.16.1-.2a13.43,13.43,0,0,1,5.47-6c10.81-5.43,22,4.11,26.26,8.46l7.39,7.49-4.92-9.3c-3.68-7-2-12.54,5.06-17a8.62,8.62,0,0,1,7-1.42c3.86,1,7.68,5,11.66,12.29l2.66,4.85.25-5.53a28.42,28.42,0,0,1,1-6.55c1.3-4.59,3.92-8.19,7.4-10.13a13,13,0,0,1,10.07-1,10.54,10.54,0,0,1,5.58,3.67l1.64,2.07,1-2.44c2.46-5.93,6.66-9.4,12.48-10.3,1.87-.29,5.26-.32,6.95,2.7a28.6,28.6,0,0,1,3.37,10.06l.55,3.82,2.25-3.14a26.07,26.07,0,0,1,17.16-10.32c2.77-.46,6.12.33,7.18,4a30.22,30.22,0,0,1,.91,13.13l-.57,3.71,3-2.23c4.85-3.57,10.65-6.09,16.18-8.37,2.63-1.08,5.27,1.27,6.41,2.84,7.25,9.89,1.17,20.16-3.1,25.41l-1.15,1.41,1.57.91,1.36.86.85-1.21a23,23,0,0,1,2.13-2.61,14.45,14.45,0,0,1,4.26-3.54l.33-.16a27.9,27.9,0,0,1,13.28-4,5.55,5.55,0,0,1,5.19,4c1.73,6.57.49,15.49-3,21.71l-.91,1.62,1.75.61.4.17.38.16.8.32.7-.51a6.5,6.5,0,0,1,4-1.33,31.49,31.49,0,0,1,4.18.46,28.79,28.79,0,0,0,3.34.39c4.71.14,6.77,3.81,7.12,7.21.44,4.26-.92,10.28-5,13.44a26.09,26.09,0,0,1-4.86,3.07l-5.14,2.45,5.67.5c4.75.42,8.93,2.2,11.48,4.87,4.22,4.43,2.82,10.17-.43,13.88-2.14,2.45-5.21,4.17-8.18,5.84l-.92.52c-.71.4-1.44.78-2.17,1.15l-.94.48-.08.84c0,.09,0,.19,0,.28l-.16,1.44,1.16.52.41.19c3.73,1.88,8.12,5.59,9.26,10.39,2.46,10.25-6.36,13.84-10.27,14.9L346,428l-.23.16a13.32,13.32,0,0,1-6.08,2.37l-2.17.29,1,2c1.75,3.43,2.21,7.57,1.39,12.32-.46,2.67-3.42,3.92-5.81,4.18a53.87,53.87,0,0,1-8.58.25l-4.6-.24,3.52,3a6.53,6.53,0,0,1,1.71,8,7,7,0,0,1-8,3.83,23.4,23.4,0,0,1-3-.83l-2.92-1,.94,2.94c.09.29.18.57.26.87,1.32,5.38-.1,10.87-3.63,14a14.61,14.61,0,0,1-14.59,3.18,20.91,20.91,0,0,1-4.38-2.2l-5.29-3.51,3.08,5.55c3.68,6.63,3.08,16.84-1.38,23.74A4.7,4.7,0,0,1,282,509a20.22,20.22,0,0,1-7.42-3.69l-2.75-2.12.26,3.46c.44,6-1,11-4,14.13a9.12,9.12,0,0,1-7.86,3c-3.85-.45-7.77-3.28-10.23-7.38-.4-.67-.8-1.41-1.24-2.34l-1.65-3.49-1.32,4c0,.14-.09.29-.14.43-2.32,6.05-5.27,11.71-11,12.18-4.14.34-7.68-3.37-9.25-7-.47-1.06-.92-2.25-1.34-3.54l-1.78-5.47L221,516.8c-1.21,5.63-3.38,9.41-6.81,11.89-3.8,2.75-9.06,2-12.51-1.77a19.45,19.45,0,0,1-5.08-13.62l0-5.64-2.9,4.84a22.38,22.38,0,0,1-11.68,9.82c-3.7,1.23-6.82.79-9.26-1.33-4.32-3.73-5.61-11.65-4.63-17.23l1.2-5.9-3.87,4.45c-5,5.79-9.47,7.36-13.59,4.8-6-3.76-7-13.65-4.42-20.66l1.37-3.73-3.54,1.82c-3.09,1.58-10.82,4.58-16-1.75-7.3-8.94-1.21-18.86,1.75-22.71l2.91-3.79-4.58,1.36c-5,1.48-9.88,1.28-13-.54a8.41,8.41,0,0,1-4-5.6c-1.28-5.41-.2-10.11,3.21-14l1.88-2.13-2.81-.43c-4.49-.68-7.06-3-7.87-7-1.63-8.18,3.34-15.65,13.29-20l4.05-1.79Z"/><path d="M493,679c-.83-4.69.69-12.68,2.14-17.53l.08-.41V661c0-.05,0-.1,0-.16a44.94,44.94,0,0,0-.66-6.58,32.48,32.48,0,0,0-1.46,6.65,41.44,41.44,0,0,0-.73-6.85A33.63,33.63,0,0,0,491,660.5l0,.16c0,.11,0,.21,0,.32.29,8.37,0,14.44-2.33,16.84l0,0a19.17,19.17,0,0,0,.33,2.39,5.92,5.92,0,0,0,1.58-1.34c.1-.12.18-.26.27-.39,0,.13,0,.26,0,.39a12.16,12.16,0,0,0,.51,2.19c.12-.11.25-.22.36-.34A9.16,9.16,0,0,0,493,679Z"/><path d="M483.07,681a9.08,9.08,0,0,1-4.85-2.13h-1.27a6.86,6.86,0,0,1-.65,1.11,10.93,10.93,0,0,0,6.48,3.12,16.4,16.4,0,0,0,2.27.17,9.87,9.87,0,0,0,4.47-1,12.73,12.73,0,0,1-.61-2.09A8.82,8.82,0,0,1,483.07,681Z"/><path d="M482.23,648.86c4.56-3.79,8.51-2.64,10.11,5.2a24.34,24.34,0,0,1,1.31-3.26c-1.68-4.87-4.42-6.14-6.8-6.14a9.54,9.54,0,0,0-6,2.59,33,33,0,0,0-6.84,8.43c.18,1.12.38,2.23.58,3.32C476.15,656,478.79,651.72,482.23,648.86Z"/><path d="M367.7,300.5a23.3,23.3,0,0,1-14.48-4.88,17.69,17.69,0,0,1-7-13,17.19,17.19,0,0,1,5.6-13.44c.37-.35.77-.71,1.17-1a2.56,2.56,0,0,0,.43-.67l.07-.18a5.36,5.36,0,0,0,.17-1.71l.67-19.89c.12-5.09.18-10.46.18-15.89,0-2.8,0-5.76-.09-9-2.72.3-5.42.71-7.88,1.19A61,61,0,0,0,340,223.7c-1.4.43-2.14.73-2.14.73A20.35,20.35,0,0,1,330,226c-7,0-13.47-3.54-16.5-9-4.38-7.91-.55-17.45,8.54-21.26a20.88,20.88,0,0,1,15.86,0h0s.74.3,2,.69a61.73,61.73,0,0,0,6.68,1.68c2.26.45,4.73.83,7.24,1.12l-.18-4.89a6.75,6.75,0,0,0-.46-2,5.3,5.3,0,0,0-.68-1.25l.13.13-.42-.46a15.45,15.45,0,0,1-4-12.62,16.61,16.61,0,0,1,7.43-11.38,21.68,21.68,0,0,1,12.07-3.61,20.72,20.72,0,0,1,15.51,6.58,15.36,15.36,0,0,1,0,21l-.28.31a5.19,5.19,0,0,0-.66,1.17,7.16,7.16,0,0,0-.51,2.31l-.17,4.65c2.65-.3,5.21-.7,7.55-1.15a65,65,0,0,0,6.66-1.62l.31-.09c.35-.09.65-.2.89-.29l.59-.2.57-.21a20.33,20.33,0,0,1,7.09-1.26c7.28,0,13.82,3.76,16.67,9.59,3.91,8-.38,17.26-9.57,20.66a20.34,20.34,0,0,1-7.08,1.25h0a20.54,20.54,0,0,1-7.07-1.24l-.61-.22-.59-.2c-.25-.08-.54-.2-.89-.29l-.3-.09a66.54,66.54,0,0,0-6.64-1.62c-2.56-.5-5.37-.92-8.22-1.23-.05,3.18-.08,6.14-.09,8.93,0,5.42.06,10.79.18,15.94l.67,19.84a5.4,5.4,0,0,0,.17,1.71,3.36,3.36,0,0,0,.48.83,17.64,17.64,0,0,1,6.8,12.81,17.2,17.2,0,0,1-5.6,13.44A23.13,23.13,0,0,1,367.7,300.5Z" style="fill:#cacaca"/><path d="M414.54,210.22c-.14-6.27-7.08-9.72-12.91-7.55l-.76.28c-.5.16-1.22.44-2.14.69a75.75,75.75,0,0,1-7.66,1.87c-3.17.62-6.86,1.16-10.82,1.53-2,.2-4,.33-6.1.43-.57,0-1.15,0-1.73,0,.1-2.8.19-5.46.27-7.86.08-2.06.14-3.94.21-5.62a14,14,0,0,1,1-4.33,12.33,12.33,0,0,1,1.53-2.78,6.65,6.65,0,0,1,.6-.74l.22-.25a8.44,8.44,0,0,0,0-11.53,11.88,11.88,0,0,0-15.12-1.63c-4.7,3.18-5.54,9.07-1.88,13.16l.23.25a7.12,7.12,0,0,1,.59.74,12.33,12.33,0,0,1,1.53,2.78,13.8,13.8,0,0,1,1,4.33c.06,1.67.13,3.56.21,5.62.08,2.41.17,5.09.27,7.9-.48,0-1,0-1.44,0-2.08-.07-4.12-.23-6.1-.4a104.66,104.66,0,0,1-10.82-1.53,70.94,70.94,0,0,1-7.66-1.92c-1.85-.56-2.9-1-2.9-1a10.77,10.77,0,0,0-8.2,0c-4.7,2-6.67,6.87-4.4,11s7.9,5.8,12.6,3.83c0,0,1.05-.44,2.9-1a72.39,72.39,0,0,1,7.66-1.92A106.36,106.36,0,0,1,355.44,213c2-.17,4-.33,6.1-.4.54,0,1.09,0,1.63-.05.13,5.47.24,11.38.25,17.28,0,5.49-.07,11-.19,16.12s-.33,9.94-.47,14.06c-.07,2.06-.14,3.95-.2,5.62a11.31,11.31,0,0,1-.7,4.33,10.16,10.16,0,0,1-1.67,2.79,8.6,8.6,0,0,1-1,1c-.27.22-.55.46-.8.7a10,10,0,0,0,.8,15.49,14,14,0,0,0,17.81-.7c4.69-4.47,4.33-11.4-.81-15.49a8.78,8.78,0,0,1-1-1,10.08,10.08,0,0,1-1.68-2.79,11.37,11.37,0,0,1-.7-4.33c-.06-1.67-.12-3.56-.2-5.62-.14-4.11-.3-8.91-.47-14.06s-.19-10.63-.19-16.12c0-5.89.12-11.78.25-17.24.64,0,1.28,0,1.92.05,2.08.1,4.12.23,6.1.43,4,.37,7.65.92,10.82,1.53a77.53,77.53,0,0,1,7.66,1.87c.92.25,1.65.54,2.14.7l.76.28a10.33,10.33,0,0,0,10.77-2.24A6.82,6.82,0,0,0,414.54,210.22Z" style="fill:#3c3c3c"/></svg>