<svg xmlns="http://www.w3.org/2000/svg" viewBox="0 0 760 916"><title>sk1-hierophant</title><path d="M636,384.3c-4.93-20,5-40.25,0-60.28-.06-.24-.4-.17-.41.06-1.84,22.16-9,42.71-7.72,65.18,1.12,19.84,8.75,41.86,17,59.77a4.12,4.12,0,0,0,1.75,2c1.23,10.78.87,26.29-7.32,40.68a57.3,57.3,0,0,1-7.79,10.57s-12,12.22-27.89,18.18-53.57,15.76-53.57,15.76c-18.9,7.63-31.64,18.05-38.63,31.53-8.79,17-6.56,35-4.78,49.54.26,2.1.51,4.12.71,6.06H254.91c.2-1.93.45-4,.71-6.06,1.79-14.52,4-32.58-4.77-49.54-7-13.48-19.73-22.77-38.62-30.4h-.28s-24.68-7.95-48.52-15.9-32.66-19.17-32.66-19.17A57.33,57.33,0,0,1,123,491.74c-7.24-12.69-8.37-26.3-7.69-36.76,14-15.87,18-42,18.61-62.39.7-21.79-4.68-46.94-16.31-65.5a.47.47,0,0,0-.85.36c5,20.89,9.35,39.63,7.8,61.32a135.94,135.94,0,0,1-3.76,22.75c-.83-13.37-3.85-33-11.55-61.36a272,272,0,0,1-3.12-128.41c9.78-45.09,30.33-86.76,61.07-123.84,59.68-72,145.68-81.22,213.94-81.22S535.4,25.92,595.07,97.91c30.74,37.08,51.29,78.75,61.07,123.84A272,272,0,0,1,653,350.16c-6.51,24-9.68,41.72-11,54.71C639.81,398,637.68,391.19,636,384.3Z" style="fill:#ebddcf"/><path d="M556.51,537.66s-8.6,74.51-41.44,92.24H247.19c-32.85-17.72-41.44-92.24-41.44-92.24s-74-46-71.86-26.74,15.65,47.19,32.51,50.74,17.76,57.6,24,102.18S209,727.39,225,736.25s10.65,15.95,61.26,37.22,94.86,16,94.87,16,44.28,5.31,94.87-16,45.28-28.36,61.26-37.22,28.41-27.84,34.62-72.41,7.1-98.64,24-102.18,30.41-31.45,32.51-50.74S556.51,537.66,556.51,537.66Z" style="fill:#ebddcf"/><path d="M324.84,34A82.7,82.7,0,0,1,308.9,23.55a.28.28,0,0,1,.27-.46c5.81,2.14,11.45,4.77,17.34,6.69a45.3,45.3,0,0,0,7.89,1.61,62.68,62.68,0,0,1,7.45-1,42.61,42.61,0,0,1,4.67-8,60,60,0,0,0-6.84-7.63,338.61,338.61,0,0,0-55.79,8.61,60.54,60.54,0,0,0,17.45,24.26A73.51,73.51,0,0,1,324.84,34Z" style="fill:#fcd310"/><path d="M350.17,18.07a43,43,0,0,1,4.72-4.21q-4.05.17-8.24.42A37.85,37.85,0,0,1,350.17,18.07Z" style="fill:#fcd310"/><path d="M341,89.22a82.83,82.83,0,0,1-17,8.56.28.28,0,0,1-.27-.47c4.77-4,9.86-7.51,14.48-11.64a45.17,45.17,0,0,0,5.34-6,62.43,62.43,0,0,1,2.86-6.95,42.61,42.61,0,0,1-4.64-8A55.37,55.37,0,0,0,323.45,70c-5,2.5-9.83,5.5-15.19,7.14a.34.34,0,0,1-.33-.56c7.72-7.28,20.45-15.5,31.91-17.27a42.32,42.32,0,0,1-.45-21.77c-4.67.26-9.73-1.28-14.55-3.59a73.51,73.51,0,0,0-23.5,13.62C293,54.84,286.9,63.49,283.71,72.34c-3.8,10.52,15.45,10.37,20.65,19.36,5.09,8.79-5,25.31,5.74,27.4,9.45,1.84,20.26,1,31-2.75A73.24,73.24,0,0,1,341,89.22Z" style="fill:#fcd310"/><path d="M341.84,30.39a62.68,62.68,0,0,0-7.45,1c2.22.31,4.43.61,6.58,1.09Q341.38,31.42,341.84,30.39Z" style="fill:#fcd310"/><path d="M407.48,144.51c6.32-7.25,11-17,13.1-28.16A73.46,73.46,0,0,1,397,102.84a82.48,82.48,0,0,1-1.09,19,.28.28,0,0,1-.53,0c-1-6.1-1.59-12.28-2.87-18.34A45,45,0,0,0,390,95.88a62.49,62.49,0,0,1-4.57-5.9,42.05,42.05,0,0,1-9.34,0,55,55,0,0,0-4.47,18.49c-.33,5.57-.15,11.25-1.4,16.7a.34.34,0,0,1-.65,0c-2.45-10.31-3.22-25.41,1-36.19a42.65,42.65,0,0,1-19.1-10.53c-2.11,4.17-6,7.78-10.4,10.8a73.24,73.24,0,0,0,.06,27.13c2.08,10.85,6.55,20.42,12.63,27.6,7.23,8.54,16.72-8.18,27.12-8.18C391,135.77,400.31,152.72,407.48,144.51Z" style="fill:#fcd310"/><path d="M346.39,72.71a62.43,62.43,0,0,0-2.86,6.95c1.38-1.77,2.74-3.53,4.25-5.15Q347.06,73.63,346.39,72.71Z" style="fill:#fcd310"/><path d="M436.83,61.24a82.91,82.91,0,0,1,15.94,10.44.28.28,0,0,1-.27.47c-5.81-2.15-11.44-4.77-17.34-6.69a45.36,45.36,0,0,0-7.89-1.61,62.71,62.71,0,0,1-7.42,1,42.61,42.61,0,0,1-4.69,8.05A55.25,55.25,0,0,0,429,86c4.67,3.08,9.69,5.75,13.8,9.57a.34.34,0,0,1-.33.56c-10.18-3-23.67-9.93-30.93-18.95a42.73,42.73,0,0,1-18.65,11.3c2.55,3.9,3.74,9,4.15,14.34a73.46,73.46,0,0,0,23.57,13.51c10.45,3.63,21,4.55,30.26,2.89,11-2,1.27-18.55,6.47-27.54,5.09-8.79,24.45-8.36,20.9-18.67-3.12-9.09-9.28-18-17.88-25.4a73.31,73.31,0,0,1-11.24,8A73.33,73.33,0,0,1,436.83,61.24Z" style="fill:#fcd310"/><path d="M385.41,90a62.49,62.49,0,0,0,4.57,5.9c-.84-2.06-1.68-4.11-2.33-6.2C386.91,89.8,386.16,89.9,385.41,90Z" style="fill:#fcd310"/><path d="M453.74,18.61C446,25.89,433.3,34.1,421.85,35.87a42.32,42.32,0,0,1,.46,21.78c4.66-.25,9.7,1.29,14.51,3.6a73.33,73.33,0,0,0,12.26-5.64,73.31,73.31,0,0,0,11.24-8,60.46,60.46,0,0,0,17.5-24.4c-8.09-2-16.12-3.57-24-4.85A.28.28,0,0,1,453.74,18.61Z" style="fill:#fcd310"/><path d="M413.89,20.72a42.66,42.66,0,0,1,6,9.86,55.17,55.17,0,0,0,18.28-5.38c4.84-2.42,9.52-5.28,14.67-7-11.7-1.85-23.08-3-33.9-3.74C417.3,16.6,415.7,18.77,413.89,20.72Z" style="fill:#fcd310"/><path d="M411.94,14.07l-5.16-.24a42.94,42.94,0,0,1,3.48,3A20.18,20.18,0,0,1,411.94,14.07Z" style="fill:#fcd310"/><path d="M420.72,62.76q-.4,1.06-.86,2.09a62.71,62.71,0,0,0,7.42-1C425.07,63.54,422.87,63.24,420.72,62.76Z" style="fill:#fcd310"/><path d="M347,47.63a33.85,33.85,0,1,0,33.85-33.8A33.83,33.83,0,0,0,347,47.63Zm49.66,0a15.8,15.8,0,1,1-15.81-15.77A15.79,15.79,0,0,1,396.65,47.63Z" style="fill:#fcd310"/><ellipse cx="380.85" cy="47.62" rx="15.8" ry="15.77" style="fill:#333"/><path d="M453.82,18.37l-.94-.15c-5.16,1.68-9.84,4.55-14.67,7a55.17,55.17,0,0,1-18.28,5.38,42.66,42.66,0,0,0-6-9.86c1.81-2,3.41-4.12,5.09-6.23q-3.57-.24-7.05-.41a20.18,20.18,0,0,0-1.68,2.74,42.94,42.94,0,0,0-3.48-3c-9.12-.37-17.73-.47-25.65-.47-8.09,0-16.9.1-26.25.49a43,43,0,0,0-4.72,4.21,37.85,37.85,0,0,0-3.53-3.79q-3.44.2-7,.47a60,60,0,0,1,6.84,7.63,42.61,42.61,0,0,0-4.67,8q-.46,1-.87,2.09c-2.15-.49-4.36-.79-6.58-1.09a45.3,45.3,0,0,1-7.89-1.61c-5.89-1.92-11.53-4.55-17.34-6.69a.28.28,0,0,0-.27.46A82.7,82.7,0,0,0,324.84,34c4.82,2.31,9.89,3.85,14.55,3.59a42.32,42.32,0,0,0,.45,21.77c-11.46,1.77-24.18,10-31.91,17.27a.34.34,0,0,0,.33.56c5.36-1.65,10.19-4.64,15.19-7.14a55.37,55.37,0,0,1,18.3-5.39,42.61,42.61,0,0,0,4.64,8q.67.92,1.39,1.8c-1.5,1.62-2.87,3.38-4.25,5.15a45.17,45.17,0,0,1-5.34,6c-4.62,4.13-9.71,7.69-14.48,11.64a.28.28,0,0,0,.27.47,82.83,82.83,0,0,0,17-8.56c4.42-3,8.29-6.63,10.4-10.8A42.65,42.65,0,0,0,370.51,89c-4.18,10.78-3.42,25.88-1,36.19a.34.34,0,0,0,.65,0c1.26-5.46,1.07-11.13,1.4-16.7A55,55,0,0,1,376.07,90a42.05,42.05,0,0,0,9.34,0c.75-.08,1.5-.18,2.24-.3.65,2.09,1.49,4.14,2.33,6.2a45,45,0,0,1,2.55,7.63c1.28,6.06,1.82,12.24,2.87,18.34a.28.28,0,0,0,.53,0,82.48,82.48,0,0,0,1.09-19c-.41-5.31-1.6-10.44-4.15-14.34a42.73,42.73,0,0,0,18.65-11.3c7.26,9,20.75,15.91,30.93,18.95a.34.34,0,0,0,.33-.56c-4.11-3.82-9.12-6.49-13.8-9.57A55.25,55.25,0,0,1,415.17,72.9a42.61,42.61,0,0,0,4.69-8.05q.46-1,.86-2.09c2.15.48,4.34.78,6.55,1.09a45.36,45.36,0,0,1,7.89,1.61c5.89,1.92,11.53,4.55,17.34,6.69a.28.28,0,0,0,.27-.47,82.91,82.91,0,0,0-15.94-10.44c-4.81-2.3-9.86-3.84-14.51-3.6a42.32,42.32,0,0,0-.46-21.78c11.45-1.77,24.17-10,31.89-17.26A.28.28,0,0,0,453.82,18.37Zm-73,63.05a33.8,33.8,0,1,1,33.86-33.8A33.83,33.83,0,0,1,380.84,81.43Z" style="fill:#333"/><path d="M561.34,115.73a82.69,82.69,0,0,1-15.94-10.44.28.28,0,0,1,.27-.46c5.81,2.13,11.45,4.77,17.34,6.69a45.23,45.23,0,0,0,7.89,1.61,62.68,62.68,0,0,1,7.45-1,42.6,42.6,0,0,1,4.67-8A55.27,55.27,0,0,0,569.19,91c-4.67-3.07-9.69-5.75-13.79-9.56a.34.34,0,0,1,.32-.56c10.19,3,23.7,9.94,31,19a42.93,42.93,0,0,1,8.56-6.85,206.86,206.86,0,0,0-40-36,51.9,51.9,0,0,0-7.86.78c-11,2-1.27,18.55-6.47,27.54-5.09,8.79-24.44,8.36-20.9,18.67,3.12,9.09,9.28,18,17.87,25.4a73.54,73.54,0,0,1,23.5-13.62Z" style="fill:#fcd310"/><path d="M577.52,171a82.85,82.85,0,0,1-17,8.56.28.28,0,0,1-.27-.46c4.77-4,9.86-7.51,14.48-11.64a45.14,45.14,0,0,0,5.34-6,62.39,62.39,0,0,1,2.86-7,42.58,42.58,0,0,1-4.64-8,55.33,55.33,0,0,0-18.3,5.38c-5,2.5-9.83,5.5-15.19,7.14a.34.34,0,0,1-.33-.56c7.72-7.28,20.45-15.5,31.9-17.27a42.32,42.32,0,0,1-.45-21.77c-4.67.26-9.73-1.28-14.55-3.59a73.54,73.54,0,0,0-23.5,13.62c-8.38,7.22-14.44,15.87-17.63,24.72-3.79,10.52,15.45,10.37,20.65,19.36,5.09,8.79-5,25.31,5.74,27.4,9.45,1.84,20.25,1,31-2.75a73.24,73.24,0,0,1-.06-27.13Z" style="fill:#fcd310"/><path d="M578.35,112.13a62.68,62.68,0,0,0-7.45,1c2.22.31,4.43.61,6.58,1.09Q577.89,113.16,578.35,112.13Z" style="fill:#fcd310"/><path d="M652.89,196.49a74.27,74.27,0,0,1-8.35-4.13,73.26,73.26,0,0,1-11-7.78,82.47,82.47,0,0,1-1.09,19,.28.28,0,0,1-.53,0c-1-6.1-1.59-12.28-2.86-18.33a45,45,0,0,0-2.55-7.63,62.54,62.54,0,0,1-4.57-5.9,42.07,42.07,0,0,1-9.34,0,55,55,0,0,0-4.47,18.49c-.33,5.57-.15,11.25-1.4,16.7a.34.34,0,0,1-.65,0c-2.45-10.31-3.22-25.41,1-36.19a42.64,42.64,0,0,1-19.1-10.53c-2.11,4.17-6,7.78-10.4,10.8a73.24,73.24,0,0,0,.06,27.13c2.08,10.85,6.55,20.41,12.63,27.6,7.22,8.54,16.72-8.18,27.12-8.17,10.17,0,19.47,17,26.64,8.74A57.59,57.59,0,0,0,655.41,205Q654.22,200.72,652.89,196.49Z" style="fill:#fcd310"/><path d="M582.9,154.45a62.39,62.39,0,0,0-2.86,7c1.38-1.77,2.75-3.53,4.25-5.15C583.81,155.66,583.34,155.06,582.9,154.45Z" style="fill:#fcd310"/><path d="M633.51,184.57a73.26,73.26,0,0,0,11,7.78,74.27,74.27,0,0,0,8.35,4.13,286.39,286.39,0,0,0-12-31.61,42.52,42.52,0,0,1-11.51,5.35C631.92,174.13,633.11,179.26,633.51,184.57Z" style="fill:#fcd310"/><path d="M621.91,171.71a62.54,62.54,0,0,0,4.57,5.9c-.84-2.06-1.68-4.11-2.33-6.21C623.41,171.53,622.66,171.63,621.91,171.71Z" style="fill:#fcd310"/><path d="M583.49,129.36A33.86,33.86,0,0,0,637.1,156.8q-4-8.22-8.57-16.3a15.78,15.78,0,1,1-16.51-26q-5.28-7.45-11.1-14.71A33.77,33.77,0,0,0,583.49,129.36Z" style="fill:#fcd310"/><path d="M617.35,145.13a15.77,15.77,0,0,0,11.19-4.63,302.56,302.56,0,0,0-16.51-26,15.76,15.76,0,0,0,5.33,30.6Z" style="fill:#333"/><path d="M629.37,170.23a42.52,42.52,0,0,0,11.51-5.35q-1.82-4-3.77-8.07a33.81,33.81,0,1,1-36.19-57q-1.62-2-3.28-4c-.8-1-1.6-1.9-2.4-2.84a42.93,42.93,0,0,0-8.56,6.85c-7.25-9-20.77-15.93-31-19a.34.34,0,0,0-.32.56c4.11,3.81,9.12,6.49,13.79,9.56A55.27,55.27,0,0,1,583,104.1a42.6,42.6,0,0,0-4.67,8q-.46,1-.87,2.09c-2.15-.49-4.36-.79-6.58-1.09a45.23,45.23,0,0,1-7.89-1.61c-5.89-1.92-11.53-4.56-17.34-6.69a.28.28,0,0,0-.27.46,82.69,82.69,0,0,0,15.94,10.44c4.82,2.31,9.89,3.85,14.55,3.59a42.32,42.32,0,0,0,.45,21.77c-11.45,1.77-24.18,10-31.9,17.27a.34.34,0,0,0,.33.56c5.36-1.65,10.19-4.64,15.19-7.14a55.33,55.33,0,0,1,18.3-5.38,42.58,42.58,0,0,0,4.64,8c.45.61.91,1.21,1.39,1.8-1.5,1.62-2.87,3.38-4.25,5.15a45.14,45.14,0,0,1-5.34,6c-4.62,4.13-9.71,7.69-14.48,11.64a.28.28,0,0,0,.27.46,82.85,82.85,0,0,0,17-8.56c4.42-3,8.29-6.63,10.4-10.8A42.64,42.64,0,0,0,607,170.69c-4.18,10.78-3.42,25.88-1,36.19a.34.34,0,0,0,.65,0c1.26-5.46,1.07-11.13,1.4-16.7a55,55,0,0,1,4.47-18.49,42.07,42.07,0,0,0,9.34,0c.75-.08,1.5-.18,2.24-.3.65,2.1,1.49,4.14,2.33,6.21a45,45,0,0,1,2.55,7.63c1.28,6.06,1.82,12.23,2.86,18.33a.28.28,0,0,0,.53,0,82.47,82.47,0,0,0,1.09-19C633.11,179.26,631.92,174.13,629.37,170.23Z" style="fill:#333"/><path d="M162.93,184.57a82.45,82.45,0,0,1-1.09,19,.28.28,0,0,1-.53,0c-1-6.1-1.59-12.28-2.86-18.33a45.1,45.1,0,0,0-2.55-7.63,62.49,62.49,0,0,1-4.57-5.91,42.07,42.07,0,0,1-9.34,0,55.06,55.06,0,0,0-4.47,18.49c-.33,5.57-.15,11.25-1.4,16.7a.34.34,0,0,1-.65,0c-2.45-10.31-3.22-25.41,1-36.19a42.52,42.52,0,0,1-14.6-6.79,286,286,0,0,0-14,37.83,59,59,0,0,0,11.84,24c7.22,8.54,16.72-8.18,27.12-8.17,10.17,0,19.47,17,26.65,8.74,6.32-7.25,11-17,13.1-28.16a73.47,73.47,0,0,1-23.57-13.51Z" style="fill:#fcd310"/><path d="M244.13,154.76c-3.12-9.09-9.28-18-17.88-25.4A73.46,73.46,0,0,1,202.74,143a82.9,82.9,0,0,1,15.94,10.44.28.28,0,0,1-.27.47c-5.81-2.14-11.44-4.77-17.34-6.69a45.23,45.23,0,0,0-7.89-1.61,62.7,62.7,0,0,1-7.41,1,42.61,42.61,0,0,1-4.69,8.05,55.3,55.3,0,0,0,13.81,13.12c4.67,3.07,9.68,5.75,13.79,9.57a.34.34,0,0,1-.33.56c-10.17-3-23.67-9.93-30.93-18.95a42.72,42.72,0,0,1-18.65,11.3c2.55,3.9,3.74,9,4.15,14.35a73.47,73.47,0,0,0,23.57,13.51c10.45,3.63,21,4.55,30.26,2.89,11-2,1.27-18.55,6.47-27.54C228.31,164.63,247.67,165.07,244.13,154.76Z" style="fill:#fcd310"/><path d="M151.32,171.71a62.49,62.49,0,0,0,4.57,5.91c-.84-2.06-1.68-4.11-2.33-6.21C152.83,171.53,152.08,171.63,151.32,171.71Z" style="fill:#fcd310"/><path d="M203.59,79.2a.28.28,0,0,1,.28.46c-4.77,4-9.86,7.51-14.48,11.64-3.71,3.32-6.29,7.61-9.58,11.16a42.64,42.64,0,0,1,6,9.86,55.13,55.13,0,0,0,18.28-5.39c5-2.5,9.83-5.49,15.19-7.14a.34.34,0,0,1,.33.57c-7.72,7.27-20.44,15.48-31.89,17.26a42.31,42.31,0,0,1,.46,21.78c4.66-.25,9.7,1.29,14.52,3.59a73.46,73.46,0,0,0,23.5-13.62c8.38-7.22,14.44-15.87,17.63-24.72,3.8-10.52-15.46-10.37-20.66-19.36-5.09-8.8,5-25.31-5.75-27.41a52.34,52.34,0,0,0-10.38-.93,206.74,206.74,0,0,0-39.46,35.29,42.89,42.89,0,0,1,8.53,6.31C181,89.07,194.89,82.47,203.59,79.2Z" style="fill:#fcd310"/><path d="M185.78,146.58a62.7,62.7,0,0,0,7.41-1c-2.21-.31-4.41-.61-6.55-1.09Q186.24,145.55,185.78,146.58Z" style="fill:#fcd310"/><path d="M146.76,163.16a33.79,33.79,0,0,0,15.13-64q-5.94,7.37-11.33,14.94a15.77,15.77,0,1,1-16.11,25.17q-4.69,8.2-8.79,16.55A33.73,33.73,0,0,0,146.76,163.16Z" style="fill:#fcd310"/><path d="M146.76,145.13a15.76,15.76,0,0,0,3.8-31.06q-8.79,12.35-16.11,25.17A15.77,15.77,0,0,0,146.76,145.13Z" style="fill:#333"/><path d="M219.33,99.78c-5.37,1.65-10.19,4.65-15.19,7.14a55.13,55.13,0,0,1-18.28,5.39,42.64,42.64,0,0,0-6-9.86c3.29-3.55,5.87-7.84,9.58-11.16,4.62-4.13,9.71-7.68,14.48-11.64a.28.28,0,0,0-.28-.46c-8.7,3.27-22.62,9.87-27.42,19.34a42.89,42.89,0,0,0-8.53-6.31q-1.52,1.75-3,3.55t-2.73,3.34a33.81,33.81,0,1,1-36.23,56.65q-2,4-3.83,8.11a42.52,42.52,0,0,0,14.6,6.79c-4.18,10.78-3.42,25.88-1,36.19a.34.34,0,0,0,.65,0c1.26-5.46,1.07-11.13,1.4-16.7A55.06,55.06,0,0,1,142,171.69a42.07,42.07,0,0,0,9.34,0c.75-.08,1.5-.18,2.24-.3.65,2.1,1.49,4.15,2.33,6.21a45.1,45.1,0,0,1,2.55,7.63c1.28,6.06,1.82,12.23,2.86,18.33a.28.28,0,0,0,.53,0,82.45,82.45,0,0,0,1.09-19c-.41-5.31-1.6-10.45-4.15-14.35a42.72,42.72,0,0,0,18.65-11.3c7.26,9,20.76,15.91,30.93,18.95a.34.34,0,0,0,.33-.56c-4.11-3.82-9.12-6.49-13.79-9.57a55.3,55.3,0,0,1-13.81-13.12,42.61,42.61,0,0,0,4.69-8.05q.46-1,.86-2.09c2.14.48,4.34.78,6.55,1.09a45.23,45.23,0,0,1,7.89,1.61c5.9,1.92,11.53,4.55,17.34,6.69a.28.28,0,0,0,.27-.47A82.9,82.9,0,0,0,202.74,143c-4.81-2.3-9.86-3.84-14.52-3.59a42.31,42.31,0,0,0-.46-21.78c11.45-1.77,24.17-10,31.89-17.26A.34.34,0,0,0,219.33,99.78Z" style="fill:#333"/><path d="M425.76,470.07c-4.76-8.64-42.54-56.19-44.62-56.19s-39.87,47.55-44.62,56.19-19.16,35.54-7,58.8,48.36-2,51.59-13.3c3.22,11.3,39.39,36.56,51.59,13.3S430.51,478.71,425.76,470.07Z" style="fill:#3c3c3b"/><path d="M367.65,343.93c-3.2-11.35-17.69-11.86-29.82-10.38,6.35-8.07,11.73-19,5.26-25.64-8-8.21-19.38-4.31-27.59,3,1.73-9.54-.22-20.19-7.55-24.42-10.94-6.3-20.64,6.5-27.31,18.2-.59-13.92-6.36-28.85-21.29-26.67-9.94,1.46-14.52,8.61-16.2,17.38-2.77-5.85-6.77-10.16-12.9-10.33-17.7-.53-17.15,16.8-11,29.55-8.36-8.57-19.72-16.14-29.95-6.71-7.84,7.23-4.25,17.23,1.6,25.12-11.13-2.45-24.13-2.76-31,5.63-11.09,13.64,6.24,21.49,17,27.57-13.62,3.18-32.84,9.59-30.74,25.4,1.66,12.53,15.22,13.9,27.11,11.78-8.65,6.72-17.1,14.9-13.22,25.25,3.36,8.95,14.71,7.86,23.89,4.49-4.66,9.8-7.56,22.49,1.16,28.66,10.27,7.27,19.4.93,25.18-7.88,1.93,11,7.18,20.72,20.77,20.82,7.9.06,11.28-6.08,12.69-13.31,3.6,10,11.13,18.88,20.86,16.06,7.92-2.3,9.93-10.57,9.55-18.85,9,8.74,22.47,14.07,32.42,6.63s3.53-21.91-2.73-32.82c11.62,5.16,24.19,9.46,31.11-5.25,4.36-9.27-1.39-19.21-8.73-27.25a57.28,57.28,0,0,0,10.91-.55c7.15-.93,16.07-3.79,20.17-10.25,6.7-10.55.72-19.89-8.43-24.52C360.52,362.35,371,356,367.65,343.93ZM348.51,356.6c-6.73,1.61-13.47-.22-20.19-.09-4.64.08-5.38,6.51-1.07,7.91a40.39,40.39,0,0,0,13.86,1.26c10.88,4.68,20.24,16.24,6.66,24.15-5,2.89-11.63,2.93-17.17,2.61-4.38-.25-8.71-2.54-13-1.94a2.36,2.36,0,0,0-1,.44c-1.13-.94-2.22-1.81-3.22-2.58-3.45-2.69-7.69,1.39-4.83,4.82,6.62,8,15.69,13.83,19.71,23.75,2.4,5.92-1,13.07-8.26,13.66-3.6.3-8.29-2-11.4-3.43-4.23-1.92-8.23-4.19-12.58-5.83-3-1.13-5.59,2.72-4,5.24,4.76,7.75,10,15.26,12.41,24.14,2.66,9.8-6.13,13.19-14.22,10.65-7.47-2.35-16.07-9.5-18.71-17-1.28-3.62-7.07-2.06-5.78,1.59,1.73,4.9,6,26.78-4.63,25.06-13.19-2.14-10.27-20.5-16.43-28.68-.6-3.76-6.69-3.58-6.68.56,0,6.67,2,21.38-5.8,24.63-14.61,6.09-16.31-18.2-16.34-26.14,0-3.71-5.38-4.39-6.42-.87a42.77,42.77,0,0,1-4.84,10.68c-4.79,7.74-17.18,10-17.89-1.57-.47-7.75,3.92-16.32,8.17-22.53,1.74-2.55-1.76-6.16-4.33-4.32-6.63,4.78-32.08,10.83-22.59-5.14,4.64-7.8,13.57-12.8,20-19,2.13-2.08-.59-5.47-3.13-4-8.33,4.67-36.05,8.06-33-8,2-10.65,22.17-15.9,31.23-16.9,1.89-.21,3.31-2.48,1.66-4-5.81-5.43-32.78-15.55-16.94-25.42,8.61-5.36,23.86-1,32.6,2.19,3.18,1.15,5.14-3.15,3.11-5.33-4.94-5.32-10.48-12.19-11.15-19.69-.94-10.5,15.68-4.5,19.16-2.31,4.65,2.92,8.57,7.55,12.45,11.4a2,2,0,0,0,3.46-1.15,1.18,1.18,0,0,0,1.17-2c-5.23-5.39-7.35-13.6-8.11-20.87-1.17-11.27,10.21-15.72,16.14-6.23,5.58,8.93,6,20.3,8.87,30.2,1,3.45,6.3,2,5.38-1.48-.1-.39-.21-.8-.31-1.21-.76-3.13-1.46-7.38-2.38-11.93-1.19-9.17-.72-18.93,4.8-25.51,8.17-9.74,18.31.37,20.88,8.68a40.24,40.24,0,0,1-.51,23.87c-1.08,3.21,3.75,5.12,5.38,2.27,5.79-10.11,9.15-22.91,19.44-29.58,12.07-7.81,12.8,10.17,11.62,16.73-1,5.42-3.59,10.22-5.63,15.27a2,2,0,0,0,1.46,2.75,1.63,1.63,0,0,0,2.76,1.32c4-4.28,7.2-8.89,12-12.45,3.92-2.91,19.36-8.57,17.73,1.56-1.26,7.79-8,15.17-14,19.83-3.37,2.61.39,7.21,3.8,6.52,9-1.82,21-4,29.71-.05C366.56,347.18,352.47,355.66,348.51,356.6Z" style="fill:#e516c1"/><path d="M288.65,314.63s54.07,8.58,43.11,61.35S290.7,446.55,256,451.46s-58.71,5.52-71-26.39-16-50.31-5.53-71.79,44.87-31.29,51.63-33.75S265.09,311.55,288.65,314.63Z" style="fill:#3c3c3b"/><path d="M409.89,364.7c-9.15,4.63-15.13,14-8.43,24.52,4.1,6.46,13,9.32,20.17,10.25a57.25,57.25,0,0,0,10.91.55c-7.34,8-13.09,18-8.73,27.25,6.92,14.71,19.49,10.41,31.1,5.25-6.26,10.91-12.7,25.36-2.73,32.82s23.46,2.11,32.42-6.63c-.38,8.28,1.63,16.54,9.55,18.85,9.72,2.83,17.26-6,20.85-16.06,1.42,7.23,4.79,13.36,12.7,13.31,13.59-.1,18.85-9.78,20.77-20.82,5.78,8.81,14.9,15.15,25.18,7.88,8.72-6.17,5.81-18.86,1.16-28.66,9.18,3.37,20.53,4.46,23.89-4.49,3.88-10.35-4.57-18.53-13.22-25.25,11.89,2.12,25.44.75,27.11-11.78,2.09-15.82-17.12-22.22-30.74-25.4,10.71-6.08,28-13.93,17-27.57-6.82-8.39-19.82-8.08-31-5.63,5.86-7.89,9.45-17.89,1.6-25.12-10.23-9.43-21.59-1.86-29.95,6.71,6.11-12.75,6.66-30.08-11-29.55-6.13.18-10.13,4.49-12.9,10.33-1.68-8.77-6.26-15.92-16.2-17.38-14.94-2.18-20.7,12.75-21.29,26.67-6.66-11.7-16.37-24.5-27.31-18.2-7.34,4.23-9.28,14.88-7.55,24.42-8.21-7.34-19.58-11.24-27.58-3-6.47,6.63-1.09,17.57,5.26,25.64-12.13-1.48-26.62-1-29.81,10.38C387.68,356,398.21,362.35,409.89,364.7Zm-8.72-21.62c8.68-4,20.72-1.76,29.71.05,3.42.69,7.17-3.9,3.8-6.52-6-4.66-12.7-12-14-19.83-1.63-10.13,13.81-4.48,17.73-1.56,4.79,3.57,8,8.17,12,12.45a1.63,1.63,0,0,0,2.76-1.32,2,2,0,0,0,1.46-2.75c-2-5-4.65-9.85-5.62-15.27-1.19-6.55-.45-24.54,11.62-16.73,10.3,6.67,13.66,19.47,19.44,29.58,1.63,2.85,6.47.94,5.38-2.27a40.27,40.27,0,0,1-.51-23.87c2.57-8.31,12.72-18.42,20.88-8.68,5.52,6.59,6,16.34,4.8,25.51-.92,4.54-1.61,8.8-2.38,11.93-.1.4-.21.82-.31,1.21-.93,3.48,4.39,4.93,5.38,1.48,2.83-9.9,3.29-21.27,8.88-30.2,5.93-9.48,17.31-5,16.13,6.23-.75,7.27-2.87,15.48-8.1,20.87a1.18,1.18,0,0,0,1.17,2,2,2,0,0,0,3.46,1.15c3.88-3.85,7.8-8.48,12.45-11.4,3.49-2.19,20.1-8.18,19.16,2.31-.67,7.51-6.21,14.38-11.15,19.69-2,2.18-.07,6.48,3.11,5.33,8.74-3.18,24-7.55,32.6-2.19,15.84,9.86-11.12,20-16.94,25.42-1.64,1.53-.23,3.8,1.66,4,9.06,1,29.19,6.25,31.23,16.9,3.09,16.06-24.63,12.67-33,8-2.54-1.42-5.25,2-3.13,4,6.38,6.23,15.32,11.23,20,19,9.49,16-16,9.92-22.59,5.14-2.56-1.85-6.07,1.77-4.32,4.32,4.25,6.21,8.64,14.78,8.17,22.53-.71,11.61-13.1,9.31-17.89,1.57a42.82,42.82,0,0,1-4.84-10.68c-1-3.53-6.4-2.85-6.42.87,0,7.94-1.73,32.23-16.33,26.14-7.77-3.24-5.81-18-5.8-24.63,0-4.14-6.08-4.32-6.68-.56-6.16,8.19-3.24,26.54-16.43,28.68-10.63,1.73-6.36-20.16-4.63-25.06,1.29-3.65-4.5-5.21-5.78-1.59-2.64,7.48-11.25,14.63-18.72,17-8.09,2.54-16.87-.84-14.22-10.65,2.41-8.88,7.64-16.39,12.41-24.14,1.55-2.52-1-6.37-4-5.24-4.35,1.63-8.36,3.91-12.58,5.83-3.11,1.41-7.79,3.72-11.4,3.43-7.26-.6-10.66-7.75-8.27-13.66,4-9.92,13.09-15.79,19.71-23.75,2.86-3.44-1.38-7.51-4.83-4.82-1,.77-2.08,1.64-3.22,2.58a2.34,2.34,0,0,0-1-.44c-4.31-.6-8.64,1.69-13,1.94-5.54.32-12.21.28-17.17-2.61-13.59-7.91-4.23-19.47,6.66-24.15a40.39,40.39,0,0,0,13.86-1.26c4.31-1.4,3.57-7.83-1.07-7.91-6.72-.13-13.46,1.7-20.19.09C406.25,355.66,392.17,347.18,401.17,343.08Z" style="fill:#e516c1"/><path d="M471.24,314.63s-54.06,8.58-43.11,61.35,41.06,70.56,75.79,75.48,58.71,5.52,71-26.39,16-50.31,5.53-71.79S535.59,322,528.83,319.54,494.8,311.55,471.24,314.63Z" style="fill:#3c3c3b"/><path d="M258.5,644.74s-12.42-7.74-15.94-2.42-3.28,28.47,4.48,27.57S258.5,644.74,258.5,644.74Z" style="fill:#f9efe1"/><path d="M246.62,671.91h0c-1.6,0-3.87-.68-5.63-3.94-3.7-6.86-3.2-22-.08-26.75a6.43,6.43,0,0,1,5.75-2.76c5.47,0,12.6,4.4,12.9,4.59l1.12.69-.2,1.3c-.66,4.31-4.37,25.83-13.2,26.84C247,671.9,246.83,671.91,246.62,671.91Zm0-29.47c-1.59,0-2.14.56-2.42,1-2.17,3.29-2.81,17,.27,22.67.66,1.22,1.37,1.84,2.11,1.84h.2c4.05-.47,7.92-13,9.49-22.14C253.95,644.46,249.66,642.44,246.65,642.44Z" style="fill:#3c3c3b"/><path d="M291.14,649.85S287,646.09,279,647.08s-8,9.86-8,9.86-4,27.91,4,30.13,10-11.12,10-11.12Z" style="fill:#f9efe1"/><path d="M276.76,689.31h0a8.43,8.43,0,0,1-2.27-.32c-9.12-2.54-6.21-27-5.47-32.2.05-3.72,2.14-10.74,9.74-11.69a22.53,22.53,0,0,1,2.89-.19c7,0,10.68,3.32,10.83,3.46l.87.79L287,676.34C286.84,677.52,284.68,689.31,276.76,689.31Zm4.89-40.41a20.86,20.86,0,0,0-2.4.15c-6.11.77-6.24,7.6-6.24,7.89l0,.27c-2.29,16.17-.45,27.09,2.57,27.93a4.56,4.56,0,0,0,1.2.18c3.95,0,5.95-7.17,6.34-9.68l0-.15,5.76-24.8A14.1,14.1,0,0,0,281.65,648.91Z" style="fill:#3c3c3b"/><path d="M366.45,697.7s-15.09-8.86-14.2-38.55c0,0-2.22-9.31,14.2-9.31s14.65,7.09,14.65,7.09S380.66,699,366.45,697.7Z" style="fill:#f9efe1"/><path d="M367.11,699.73a7.54,7.54,0,0,1-.84,0l-.45,0-.38-.23c-.66-.38-16-9.76-15.19-40.1a8.63,8.63,0,0,1,1.77-6.6c2.56-3.23,7.41-4.87,14.44-4.87,7.77,0,12.92,1.55,15.32,4.61a6.11,6.11,0,0,1,1.33,4.65C383,662.21,382,699.73,367.11,699.73Zm-.65-47.89c-7.08,0-10,1.8-11.26,3.3a4.52,4.52,0,0,0-1,3.57l0,.23v.26c-.44,14.67,3.19,23.9,6.32,29.06a25.47,25.47,0,0,0,6.54,7.47c4.39,0,8-6.66,10.12-18.75a141.18,141.18,0,0,0,1.88-20.08l.06-.46a2.27,2.27,0,0,0-.62-1.63C377.6,653.72,374.77,651.84,366.45,651.84Z" style="fill:#3c3c3b"/><path d="M352.49,656s2-5.69-11.12-6.14-15.75-1-17.08,6.14-4,39.95,8.43,45.71S353.17,669.65,352.49,656Z" style="fill:#f9efe1"/><path d="M335.26,704.28h0a8,8,0,0,1-3.38-.78c-14-6.51-10.78-41.3-9.56-47.88,1.28-6.84,4.4-8,10.92-8,1.65,0,3.6.07,5.87.15l2.33.08c6.27.21,10.37,1.65,12.18,4.28a5.3,5.3,0,0,1,.88,4c.42,10.6-4,35.9-12.52,44.79C339.88,703.17,337.62,704.28,335.26,704.28Zm-2-52.67c-5.65,0-6.24.72-7,4.74-1.46,7.83-3.33,38.61,7.31,43.54a4,4,0,0,0,1.7.41h0a5.55,5.55,0,0,0,3.83-2.07c7.41-7.78,11.89-32.32,11.4-42.14l0-.38.13-.36a1.47,1.47,0,0,0-.33-1c-.51-.67-2.4-2.25-9-2.48l-2.33-.08C336.73,651.68,334.81,651.61,333.23,651.61Z" style="fill:#3c3c3b"/><path d="M323.56,661.75s-2.83-9.71-5.93-12.14-12.31-6.86-13.26,8.21,1,43.73,8,44.47S324.61,685.61,323.56,661.75Z" style="fill:#f9efe1"/><path d="M312.82,704.3h0c-.21,0-.42,0-.63,0-4.25-.45-7.12-6.53-8.76-18.57a154.34,154.34,0,0,1-1-28c.69-11,5.81-12.62,8.8-12.62,3.61,0,6.79,2.27,7.68,3,3.44,2.69,6.12,11.42,6.62,13.15l.08.47c.82,18.75-2.16,34.53-7.61,40.21A7,7,0,0,1,312.82,704.3Zm-1.65-55.23c-3.52,0-4.56,4.83-4.81,8.88-1.3,20.55,2.54,42,6.24,42.36h.22a3.23,3.23,0,0,0,2.23-1.2c3.74-3.89,7.36-17.13,6.51-37-1.13-3.78-3.43-9.52-5.18-10.89A9.56,9.56,0,0,0,311.18,649.07Z" style="fill:#3c3c3b"/><path d="M304.37,657.83s-2.44-12.33-10.79-9.71-11.91,35.41-4.36,42.06,15.86-6.28,15.54-10.63S304.37,657.83,304.37,657.83Z" style="fill:#f9efe1"/><path d="M293.72,694h0a8.67,8.67,0,0,1-5.82-2.36c-5.45-4.8-5.83-19.42-3.43-30.74,1-4.82,3.5-13.14,8.52-14.72a9.45,9.45,0,0,1,2.84-.46c8.1,0,10.41,11.21,10.5,11.69l0,.38c0,.18.06,17.34.38,21.57.2,2.76-1.89,7.26-4.87,10.46C299.33,692.58,296.51,694,293.72,694Zm2.11-44.29a5.5,5.5,0,0,0-1.65.27c-1.64.52-4.13,3.9-5.81,11.74C286,673,287,685.56,290.54,688.67a4.74,4.74,0,0,0,3.18,1.37h0c1.63,0,3.49-1,5.24-2.91,2.5-2.69,3.9-6.15,3.81-7.44-.31-4.16-.38-19.53-.39-21.64C302.1,656.88,300.21,649.74,295.83,649.74Z" style="fill:#3c3c3b"/><path d="M273.58,649.85s-.79-4.83-9.67-6.34-9.77,11.22-9.77,11.22-2.82,18.63,6.76,21.23S269.93,658.71,273.58,649.85Z" style="fill:#f9efe1"/><path d="M262.54,678.18h0a8.38,8.38,0,0,1-2.15-.3c-10.94-3-8.45-21.82-8.23-23.38.1-1.22,1.31-13.11,10.33-13.11a10.94,10.94,0,0,1,1.76.15c10.17,1.74,11.26,7.74,11.3,8l.09.56-.21.52a56.85,56.85,0,0,0-2.46,9.82C271.28,669.15,269.52,678.18,262.54,678.18Zm0-32.8c-5.62,0-6.34,9.39-6.35,9.49l0,.16c-.7,4.7-1.13,17.26,5.31,19a4.36,4.36,0,0,0,1.11.16c3.69,0,5.19-7.71,6.51-14.52a66.71,66.71,0,0,1,2.41-9.89c-.44-.93-2.12-3.33-7.89-4.31A7,7,0,0,0,262.49,645.37Z" style="fill:#3c3c3b"/><path d="M503.76,644.74s12.42-7.74,15.93-2.42,3.28,28.47-4.48,27.57S503.76,644.74,503.76,644.74Z" style="fill:#f9efe1"/><path d="M515.65,671.91c-.22,0-.43,0-.66,0-8.83-1-12.55-22.54-13.2-26.84l-.2-1.3,1.12-.69c.3-.19,7.43-4.59,12.9-4.59a6.43,6.43,0,0,1,5.75,2.76c3.12,4.72,3.62,19.89-.09,26.75C519.52,671.23,517.25,671.91,515.65,671.91ZM506,645.77c1.57,9.12,5.44,21.68,9.49,22.14.85.09,1.59-.5,2.31-1.83,3.08-5.72,2.44-19.38.27-22.67-.27-.41-.82-1-2.42-1C512.6,642.44,508.32,644.46,506,645.77Z" style="fill:#3c3c3b"/><path d="M471.13,649.85s4.14-3.76,12.13-2.77,8,9.86,8,9.86,4,27.91-4,30.13S477.19,676,477.19,676Z" style="fill:#f9efe1"/><path d="M485.5,689.31c-7.92,0-10.08-11.79-10.27-13l-6.31-27.17.86-.79c.15-.14,3.88-3.46,10.83-3.46a22.54,22.54,0,0,1,2.89.19c7.61.95,9.69,8,9.74,11.69.74,5.24,3.65,29.66-5.47,32.2A8.43,8.43,0,0,1,485.5,689.31Zm-12.13-38.61,5.79,24.94c.4,2.51,2.41,9.69,6.34,9.69a4.52,4.52,0,0,0,1.2-.18c3-.84,4.86-11.76,2.57-27.93l0-.28c0-.28-.13-7.12-6.24-7.88a20.77,20.77,0,0,0-2.4-.15A14.23,14.23,0,0,0,473.38,650.71Z" style="fill:#3c3c3b"/><path d="M395.81,697.7s15.09-8.86,14.21-38.55c0,0,2.22-9.31-14.21-9.31s-14.65,7.09-14.65,7.09S381.6,699,395.81,697.7Z" style="fill:#f9efe1"/><path d="M395.16,699.73h0c-14.93,0-15.92-37.52-16-42.61a6.12,6.12,0,0,1,1.33-4.65c2.4-3.06,7.55-4.61,15.32-4.61,7,0,11.89,1.64,14.45,4.87a8.65,8.65,0,0,1,1.76,6.6c.83,30.34-14.54,39.72-15.2,40.1l-.38.23-.45,0A7.54,7.54,0,0,1,395.16,699.73Zm.65-47.89c-8.32,0-11.14,1.87-12.09,3a2.18,2.18,0,0,0-.61,1.69l.06.23v.17c.16,15,3.56,38.82,12,38.83,2.18-1.58,13.62-11.1,12.86-36.53V659l.06-.26a4.54,4.54,0,0,0-1-3.55C405.85,653.64,402.9,651.84,395.81,651.84Z" style="fill:#3c3c3b"/><path d="M409.78,656s-2-5.69,11.13-6.14,15.75-1,17.08,6.14,4,39.95-8.43,45.71S409.1,669.65,409.78,656Z" style="fill:#f9efe1"/><path d="M427,704.28c-2.36,0-4.63-1.12-6.72-3.32-8.48-8.9-12.94-34.19-12.52-44.79a5.29,5.29,0,0,1,.89-4c1.81-2.63,5.91-4.06,12.18-4.28l2.32-.08c2.27-.08,4.23-.15,5.87-.15,6.52,0,9.64,1.16,10.92,8,1.22,6.58,4.49,41.37-9.56,47.88A8,8,0,0,1,427,704.28Zm2-52.67c-1.57,0-3.5.07-5.73.15l-2.34.08c-6.57.22-8.46,1.81-9,2.48a1.32,1.32,0,0,0-.31,1.09l.12.36,0,.31c-.49,9.82,4,34.36,11.4,42.14,1.91,2,3.63,2.55,5.53,1.67,10.64-4.93,8.77-35.71,7.31-43.54C435.27,652.32,434.68,651.61,429,651.61Z" style="fill:#3c3c3b"/><path d="M438.71,661.75s2.82-9.71,5.93-12.14,12.3-6.86,13.26,8.21-1,43.73-8,44.47S437.66,685.61,438.71,661.75Z" style="fill:#f9efe1"/><path d="M449.44,704.3a7,7,0,0,1-5.12-2.44c-5.45-5.68-8.43-21.46-7.61-40.2l.08-.47c.5-1.73,3.18-10.47,6.62-13.15.89-.69,4.07-3,7.68-3,3,0,8.11,1.64,8.8,12.62.56,9,.6,45.47-9.81,46.57C449.86,704.29,449.65,704.3,449.44,704.3Zm-8.75-42.23c-.84,19.89,2.78,33.14,6.51,37a3.08,3.08,0,0,0,2.45,1.2c3.7-.39,7.54-21.81,6.24-42.36-.26-4-1.3-8.88-4.81-8.88a9.55,9.55,0,0,0-5.22,2.11C444.12,652.55,441.82,658.3,440.69,662.08Z" style="fill:#3c3c3b"/><path d="M457.89,657.83s2.43-12.33,10.79-9.71,11.91,35.41,4.36,42.06-15.86-6.28-15.54-10.63S457.89,657.83,457.89,657.83Z" style="fill:#f9efe1"/><path d="M468.55,694c-2.79,0-5.61-1.45-8.16-4.18-3-3.2-5.07-7.7-4.87-10.46.31-4.23.38-21.39.38-21.57l0-.38c.09-.48,2.4-11.69,10.5-11.69a9.48,9.48,0,0,1,2.85.46c5,1.58,7.48,9.9,8.51,14.72,2.41,11.32,2,25.94-3.43,30.74A8.67,8.67,0,0,1,468.55,694Zm-8.66-36c0,2.1-.08,17.48-.39,21.64-.1,1.29,1.31,4.76,3.81,7.44,1.75,1.88,3.6,2.91,5.24,2.91a4.75,4.75,0,0,0,3.18-1.37c3.54-3.11,4.55-15.69,2.16-26.92-1.67-7.85-4.17-11.23-5.8-11.74a5.51,5.51,0,0,0-1.65-.27C462,649.74,460.17,656.87,459.89,658Z" style="fill:#3c3c3b"/><path d="M488.68,649.85s.79-4.83,9.66-6.34,9.77,11.22,9.77,11.22,2.82,18.63-6.76,21.23S492.33,658.71,488.68,649.85Z" style="fill:#f9efe1"/><path d="M499.73,678.18c-7,0-8.82-9.43-10.44-17.75a57.09,57.09,0,0,0-2.45-9.82l-.21-.52.09-.56c0-.25,1.13-6.25,11.3-8a10.92,10.92,0,0,1,1.76-.15c9,0,10.23,11.89,10.33,13.11.22,1.57,2.71,20.42-8.22,23.38A8.37,8.37,0,0,1,499.73,678.18Zm-8.92-28.38a66.25,66.25,0,0,1,2.41,9.86c1.32,6.81,2.82,14.53,6.52,14.53a4.41,4.41,0,0,0,1.11-.16c7.64-2.07,5.33-18.84,5.3-19l0-.16c0-.09-.76-9.49-6.35-9.49a7,7,0,0,0-1.08.09C493,646.45,491.27,648.81,490.81,649.8Z" style="fill:#3c3c3b"/><path d="M570,535.73c-4.5,13.78-7.88,27.93-12.09,41.81-5,16.32-11.71,31.68-19,47.1a.13.13,0,0,0,.2.15c21.74-22.62,30.79-57.4,38.55-86.94C579,532.85,571.55,530.87,570,535.73Z" style="fill:#3c3c3b"/><path d="M587.73,531.49c-3.1,8.56-5.54,17.3-8.64,25.87-.06.17.16.27.28.17,7.24-6.19,11.92-15.41,15.32-24.12C596.37,529.1,589.31,527.13,587.73,531.49Z" style="fill:#3c3c3b"/><path d="M603.27,527.24c-1.78,6.25-2.88,13.92-6.7,19.27-.06.09.06.16.13.1A40.61,40.61,0,0,0,609.58,529C611.11,525.12,604.45,523.13,603.27,527.24Z" style="fill:#3c3c3b"/><path d="M221,626.57c-7.89-15.29-15.2-29.93-20.28-46.48-4.64-15.07-6.13-31.32-9.31-46.75-1.25-6.1-10.3-3.46-9.25,2.55,3,17.06,9.47,32.64,15.55,48.72,5.51,14.61,12.07,30.76,22.36,42.67C220.52,627.83,221.29,627.14,221,626.57Z" style="fill:#3c3c3b"/><path d="M179.5,555a84.45,84.45,0,0,1-4.67-14.84c-1-4.34-2.28-9.92-6.14-12.45a3,3,0,0,0-4.3,1.75c-1.55,4.64,2,9.5,4.54,13.2,1.34,1.91,3.24,3.14,4.72,4.9a58.37,58.37,0,0,1,5.2,7.84C179.1,555.87,179.69,555.49,179.5,555Z" style="fill:#3c3c3b"/><path d="M160.15,538.1c-2.61-4.87-2.6-10.09-3.14-15.41-.37-3.59-5.51-3.72-5.69,0-.55,11.22,7.8,18.69,14.74,26.1.06.07.19,0,.13-.1C163.73,545.49,162.05,541.65,160.15,538.1Z" style="fill:#3c3c3b"/><path d="M380.56,315.29a21.95,21.95,0,0,1-16.23-36.76c.38-.41.79-.83,1.2-1.22a3.08,3.08,0,0,0,.44-.79l.07-.21a7.17,7.17,0,0,0,.18-2l.69-23.38c.12-6,.19-12.29.19-18.68,0-3.29,0-6.77-.09-10.54-2.79.35-5.55.83-8.07,1.4a56,56,0,0,0-6.74,1.93c-1.43.5-2.19.85-2.19.85a18.54,18.54,0,0,1-8.09,1.84,18.72,18.72,0,1,1,8.09-35.6h0s.76.35,2.07.81a56.71,56.71,0,0,0,6.85,2c2.32.53,4.84,1,7.42,1.32l-.18-5.75a8.92,8.92,0,0,0-.47-2.36,6.57,6.57,0,0,0-.69-1.47l.13.15-.43-.54A20.06,20.06,0,0,1,368.2,158a20.1,20.1,0,0,1,28.24,28.19l-.28.37a6.41,6.41,0,0,0-.68,1.37,9.47,9.47,0,0,0-.52,2.71l-.17,5.47c2.71-.36,5.33-.82,7.73-1.36a59.65,59.65,0,0,0,6.82-1.91l.32-.1c.36-.11.66-.24.92-.34l.6-.23.59-.25A18.52,18.52,0,1,1,419,227.5h0a18.63,18.63,0,0,1-7.24-1.46l-.62-.26-.6-.24c-.25-.1-.56-.23-.92-.34l-.31-.1a61,61,0,0,0-6.8-1.9c-2.63-.59-5.5-1.08-8.42-1.45-.05,3.74-.08,7.22-.09,10.5,0,6.37.06,12.68.19,18.73l.68,23.31a7.23,7.23,0,0,0,.18,2,4.11,4.11,0,0,0,.49,1,21.93,21.93,0,0,1,1.23,30.86A22.09,22.09,0,0,1,380.56,315.29Z" style="fill:#fcd310"/><path d="M427.72,205.29a9.46,9.46,0,0,0-12.41-5l-.78.33c-.51.18-1.25.52-2.2.81a69.46,69.46,0,0,1-7.84,2.2,100.5,100.5,0,0,1-11.08,1.8c-2,.24-4.12.39-6.25.51-.59,0-1.18,0-1.77.05.1-3.29.19-6.41.28-9.24.08-2.42.15-4.63.21-6.6a18.52,18.52,0,0,1,1-5.09,15.22,15.22,0,0,1,1.57-3.27,7.72,7.72,0,0,1,.61-.87l.23-.29a11,11,0,1,0-17.41,0l.23.29a8.27,8.27,0,0,1,.61.87,15.22,15.22,0,0,1,1.57,3.27,18.26,18.26,0,0,1,1,5.09c.06,2,.13,4.18.21,6.6.08,2.84.18,6,.28,9.29-.49,0-1,0-1.48-.05-2.13-.08-4.22-.27-6.25-.47a94.3,94.3,0,0,1-11.08-1.8,65.14,65.14,0,0,1-7.84-2.25c-1.89-.66-3-1.17-3-1.17a9.65,9.65,0,1,0,0,17.38,30.84,30.84,0,0,1,3-1.18,66.47,66.47,0,0,1,7.84-2.25,95.82,95.82,0,0,1,11.08-1.8c2-.2,4.12-.39,6.25-.47.55,0,1.1,0,1.66-.06l0,1.37c.12,6,.22,12.49.23,18.94s-.07,12.9-.19,18.94-.34,11.68-.48,16.52c-.07,2.42-.14,4.64-.2,6.6a15.07,15.07,0,0,1-.72,5.09,12.38,12.38,0,0,1-1.71,3.28,9.51,9.51,0,0,1-1,1.16c-.28.26-.56.54-.82.82a12.9,12.9,0,1,0,18.23-.82,9.71,9.71,0,0,1-1-1.16,12.28,12.28,0,0,1-1.72-3.28,15.16,15.16,0,0,1-.72-5.09c-.06-2-.13-4.18-.2-6.6-.14-4.84-.31-10.47-.48-16.52s-.19-12.49-.19-18.94.11-12.9.23-18.94c0-.45,0-.88,0-1.32.65,0,1.31,0,2,.06,2.13.12,4.22.27,6.25.51a101.34,101.34,0,0,1,11.08,1.8,71.09,71.09,0,0,1,7.84,2.2c.94.29,1.69.63,2.2.82l.78.33a9.46,9.46,0,0,0,12.41-12.39Z" style="fill:#3c3c3b"/><path d="M334.73,155.72c-2.32-6-4.21-11.86-7.52-17.45-4.18-7.06-15.2-.15-10.78,6.77,3.26,5.08,7.17,9.36,10.84,14.13,3.38,4.39,6.67,9.67,11,13.12a.82.82,0,0,0,1.37-.63C339.21,166.21,336.68,160.78,334.73,155.72Z" style="fill:#e516c1"/><path d="M337,240.09c-9.17,7.76-21.91,12-29.91,21.16-4.62,5.26,2.56,12.59,7.73,7.71,4.55-4.29,8.86-8.95,13.18-13.48a83,83,0,0,0,5.57-6.65c2.27-2.95,2.64-5.23,3.62-8.64A.11.11,0,0,0,337,240.09Z" style="fill:#e516c1"/><path d="M310.82,226.83c-6.18,1.57-12.14,3.73-18.47,4.87-6.94,1.24-2.44,12.95,3.77,8.94,5.45-3.53,13-6.85,15.09-13.42A.32.32,0,0,0,310.82,226.83Z" style="fill:#e516c1"/><path d="M307.18,204c-2.85-1.64-6.24-2.43-9.18-4-3.25-1.69-7.41-2.45-10.95-3.39-5.83-1.57-10,7.46-4.22,10a26.18,26.18,0,0,0,14.05,1.92c3.15-.47,7.86-1.74,10.39-3.79A.49.49,0,0,0,307.18,204Z" style="fill:#e516c1"/><path d="M321.91,183.85c-6.5-9.06-14.75-16.09-22.78-23.7-5.54-5.25-13.21,4.23-7.41,9.32,8.62,7.58,18.19,13.71,29.89,14.89A.32.32,0,0,0,321.91,183.85Z" style="fill:#e516c1"/><path d="M428.9,155.72c2.31-6,4.21-11.86,7.53-17.45,4.18-7.06,15.2-.15,10.78,6.77-3.26,5.08-7.17,9.36-10.84,14.13-3.38,4.39-6.66,9.67-11,13.12a.82.82,0,0,1-1.37-.63C424.42,166.21,427,160.78,428.9,155.72Z" style="fill:#e516c1"/><path d="M426.68,240.09c9.17,7.76,21.91,12,29.91,21.16,4.62,5.26-2.56,12.59-7.73,7.71-4.56-4.29-8.86-8.95-13.18-13.48a83.29,83.29,0,0,1-5.57-6.65c-2.27-2.95-2.64-5.23-3.62-8.64A.11.11,0,0,1,426.68,240.09Z" style="fill:#e516c1"/><path d="M452.81,226.83c6.18,1.57,12.14,3.73,18.47,4.87,6.94,1.24,2.43,12.95-3.77,8.94-5.46-3.53-13-6.85-15.09-13.42A.32.32,0,0,1,452.81,226.83Z" style="fill:#e516c1"/><path d="M456.45,204c2.85-1.64,6.23-2.43,9.18-4,3.25-1.69,7.41-2.45,10.95-3.39,5.82-1.57,10,7.46,4.22,10a26.17,26.17,0,0,1-14.05,1.92c-3.16-.47-7.87-1.74-10.39-3.79A.49.49,0,0,1,456.45,204Z" style="fill:#e516c1"/><path d="M441.72,183.85c6.49-9.06,14.75-16.09,22.78-23.7,5.54-5.25,13.21,4.23,7.41,9.32-8.62,7.58-18.19,13.71-29.89,14.89A.32.32,0,0,1,441.72,183.85Z" style="fill:#e516c1"/><path d="M295.84,543.27c-8,14.7-33.89,31.11-25.52,50.51,1.64,3.79,6.62,1.93,7.79-1,1.62-4.09,1.48-8.43,2.51-12.71a56,56,0,0,1,5.92-14c4.08-7.38,8.05-14.18,9.95-22.48A.36.36,0,0,0,295.84,543.27Z" style="fill:#e516c1"/><path d="M312.68,549.68a.64.64,0,0,0-1.26-.17c-1.31,5.16-6.54,10.12-9.39,14.55s-4.79,10.06-3.12,15.42c.52,1.67,1.94,3.47,3.78,3.78l.79.13a4.54,4.54,0,0,0,5-2c1.52-2.58.63-4.25.44-6.95s.85-5.87,1.52-8.49C311.87,560.25,312.83,555.53,312.68,549.68Z" style="fill:#e516c1"/><path d="M331,553.08c0-.72-1.1-1.14-1.46-.4-3.9,8.14-7.32,15.5-7.59,24.77-.19,6.25,9.76,6.27,9.72,0C331.62,569.3,331.39,561.22,331,553.08Z" style="fill:#e516c1"/><path d="M352.77,568c-1.05-3.66-2.49-7.76-2.83-11.56a.43.43,0,0,0-.85,0c-.34,3.32-1.87,7-3,10.12a29.17,29.17,0,0,0-1.42,10.29c0,5.58,8.6,5.57,8.66,0C353.31,574.08,353.56,570.77,352.77,568Z" style="fill:#e516c1"/><path d="M372.94,574.06c-.73-5.83-1.47-12.56-4.23-17.84a.53.53,0,0,0-.92,0c-3,5.62-4.4,12.67-2.94,18.93C365.9,579.59,373.52,578.7,372.94,574.06Z" style="fill:#e516c1"/><path d="M464.16,543.27c8,14.7,33.89,31.11,25.52,50.51-1.64,3.79-6.62,1.93-7.78-1-1.62-4.09-1.48-8.43-2.51-12.71a55.9,55.9,0,0,0-5.93-14c-4.08-7.38-8.05-14.18-9.95-22.48A.36.36,0,0,1,464.16,543.27Z" style="fill:#e516c1"/><path d="M447.32,549.68a.64.64,0,0,1,1.26-.17c1.31,5.16,6.54,10.12,9.39,14.55s4.79,10.06,3.12,15.42c-.52,1.67-1.94,3.47-3.78,3.78l-.79.13a4.54,4.54,0,0,1-5-2c-1.52-2.58-.63-4.25-.44-6.95s-.85-5.87-1.52-8.49C448.13,560.25,447.17,555.53,447.32,549.68Z" style="fill:#e516c1"/><path d="M429,553.08c0-.72,1.1-1.14,1.46-.4,3.9,8.14,7.32,15.5,7.6,24.77.19,6.25-9.76,6.27-9.72,0C428.38,569.3,428.61,561.22,429,553.08Z" style="fill:#e516c1"/><path d="M407.23,568c1.05-3.66,2.49-7.76,2.83-11.56a.43.43,0,0,1,.85,0c.33,3.32,1.87,7,3,10.12a29.25,29.25,0,0,1,1.42,10.29c0,5.58-8.6,5.57-8.66,0C406.69,574.08,406.44,570.77,407.23,568Z" style="fill:#e516c1"/><path d="M387.05,574.06c.73-5.83,1.47-12.56,4.23-17.84a.53.53,0,0,1,.92,0c3,5.62,4.41,12.67,2.95,18.93C394.1,579.59,386.48,578.7,387.05,574.06Z" style="fill:#e516c1"/><path d="M300.36,749c-7.76-8.43-17.9-14.61-25.9-23a98.75,98.75,0,0,1-13-17.46c-3.41-5.65-2.3-11.08-4-17-.92-3.16-4.61-3.12-6.38-.83-7.4,9.6,3.74,24.69,10.67,31.26,10.87,10.3,25.13,20.14,38.16,27.48A.35.35,0,0,0,300.36,749Z" style="fill:#e516c1"/><path d="M304.26,735.45c-8.91-7.2-16-18.14-15.76-29.88.09-5.57-8.18-5.44-8.57,0-1.1,15.18,13.41,22.68,24,30.25C304.19,736,304.47,735.62,304.26,735.45Z" style="fill:#e516c1"/><path d="M316.29,730.92c-1.41-3.24-3.42-6-4.46-9.45-1-3.27-.76-6.73-1.64-10-1-3.85-6.34-2.78-6.64.89-.59,7.31,6.32,15.51,12.3,19C316.16,731.53,316.41,731.2,316.29,730.92Z" style="fill:#e516c1"/><path d="M330.26,720.22a49.24,49.24,0,0,1,1.07-7.89c1-6.08-8.21-6.86-8.05-1.09a16.93,16.93,0,0,0,3.12,8.94,65.24,65.24,0,0,0,5.37,7.66c.14.16.41,0,.35-.21C331.41,725.1,330.25,722.93,330.26,720.22Z" style="fill:#e516c1"/><path d="M352.09,702.2c-7.74,4.83-7.3,16.93-7.35,24.91a.24.24,0,0,0,.47.07,35.85,35.85,0,0,1,4.68-10.47c2.23-3.29,5.87-5.49,7.55-9.16C359,704.23,355.7,699.94,352.09,702.2Z" style="fill:#e516c1"/><path d="M381.32,701.86c-3.77,0-6.52,4.38-4.42,7.69a6.39,6.39,0,0,0,1.27,1.5,9.64,9.64,0,0,1,1,2.36c.38,1.44.28,2.91.7,4.33a1,1,0,0,0,1.75.23c.87-1.15,1.05-2.66,1.51-4a13.9,13.9,0,0,1,1.31-2.84,6.5,6.5,0,0,0,1.33-1.56C387.85,706.24,385.09,701.86,381.32,701.86Z" style="fill:#e516c1"/><path d="M460.38,749c7.76-8.43,17.89-14.61,25.9-23a98.84,98.84,0,0,0,13-17.46c3.41-5.65,2.3-11.08,4-17,.92-3.16,4.61-3.12,6.38-.83,7.4,9.6-3.75,24.69-10.67,31.26-10.87,10.3-25.13,20.14-38.16,27.48A.35.35,0,0,1,460.38,749Z" style="fill:#e516c1"/><path d="M456.49,735.45c8.91-7.2,16-18.14,15.76-29.88-.09-5.57,8.18-5.44,8.57,0,1.1,15.18-13.41,22.68-24,30.25C456.55,736,456.27,735.62,456.49,735.45Z" style="fill:#e516c1"/><path d="M444.45,730.92c1.41-3.24,3.42-6,4.46-9.45,1-3.27.76-6.73,1.64-10,1-3.85,6.35-2.78,6.64.89.59,7.31-6.32,15.51-12.31,19C444.59,731.53,444.33,731.2,444.45,730.92Z" style="fill:#e516c1"/><path d="M430.49,720.22a49,49,0,0,0-1.07-7.89c-1-6.08,8.22-6.86,8.05-1.09a16.94,16.94,0,0,1-3.12,8.94,65.2,65.2,0,0,1-5.38,7.66c-.14.16-.41,0-.35-.21C429.33,725.1,430.49,722.93,430.49,720.22Z" style="fill:#e516c1"/><path d="M408.66,702.2c7.74,4.83,7.3,16.93,7.35,24.91a.24.24,0,0,1-.47.07,36,36,0,0,0-4.68-10.47c-2.23-3.29-5.87-5.49-7.55-9.16C401.79,704.23,405,699.94,408.66,702.2Z" style="fill:#e516c1"/><path d="M270,126a.19.19,0,0,0,0,.37A.19.19,0,0,0,270,126Z" style="fill:#3c3c3b"/><path d="M230.08,223c-13.35,10.59-31.82,14.57-48.17,17.6-14.19,2.63-30.13,5.2-42.43,13.26-13.3,8.72-17.65,21.18-20,35.89a36.94,36.94,0,0,1,4.2-4.54,89.91,89.91,0,0,1,37.91-32.41c22.13-9.82,46.6-9.42,67.44-22.43.2-.13.44.18.26.33-17.24,15.1-42,15.51-62.13,25a99.2,99.2,0,0,0-27.68,19.52c11.86-5.24,25.56-8,36.53-10.19,19.2-3.82,37.46-9.57,51.84-23.63,15.49-15.15,23.07-31.14,26.11-51.6C248.7,202.68,241.28,214.09,230.08,223Z" style="fill:#3aaa61"/><path d="M260.93,218.86a.67.67,0,0,0,1,.8c4.47-4.3,6.34,1.77,3.56,5.29-3.11,3.93-8.19,2.55-12.2,1.35a18.16,18.16,0,0,0-6.31-.89c7.14-12.46,10.8-26.57,8.87-40.74l.07-.2c0-.21-.09-.42-.15-.63a3.44,3.44,0,0,0-.34-.27l-.48.06a.56.56,0,0,0-.29.41c0,.2-.05.4-.07.6-10.22,18.31-19,34-38.94,43.66-16.92,8.15-36.06,8.32-54.11,12.17-26.23,5.59-47.77,22.88-45,51.85a1.31,1.31,0,0,0,.56.92,33.08,33.08,0,0,0-4.39,16.09c0,1.57,2.44,2.42,3.13.85,3-6.91,5.37-13.35,9.94-19.08,8.34,1.36,11.63,9.83,17.65,15.14,4.59,4,12.15,4.61,17,.77,6.86-5.4-2-21-7.6-13.41-.59.81.66,1.66,1.34,1,4.47-4.13,7,3.5,6.3,7.07-1.22,6.66-10.32,6-14.63,3.18-7.4-4.88-10.2-14.25-19.35-14.67.61-.72,1.24-1.43,1.93-2.13,4.84-4.84,11.22-8,17.67-10.36a.73.73,0,0,0,.67.27c4.55-.44,7-1.7,11,1.55,3.16,2.56,5.61,5.94,8.5,8.79,4.76,4.69,11.11,5.72,17,2.3,4.19-2.43,4.75-8.32,1.91-12s-7.76-3.26-8.54,1.69a.21.21,0,0,0,.35.21c2.14-2,4.16-3.18,6.22-.38a6.77,6.77,0,0,1,.39,6.9c-1.75,3.44-7,4.34-10.33,3.35-2.62-.79-4.94-3.55-6.74-5.5-2.32-2.52-6.64-7.83-11.14-10.21,7.09-2,14.33-3.37,21.57-4.79a.94.94,0,0,0,0,.14c1.37-.27,2.78-.37,4.14-.73l.59-.36c2.22-.46,4.43-.93,6.63-1.45a16.08,16.08,0,0,1,5.36,2.07c4,2.29,7.59,5.31,11.63,7.59,5.1,2.89,13.44,3.57,17.36-1.83,6.1-8.4-9.12-18-10.71-6.89,0,.14.16.24.24.1,4.73-8.23,15.66,3.64,4.29,8-6.63,2.52-12.71-2.93-17.69-6.57a38.93,38.93,0,0,0-5.84-3.59c2.74-.72,5.46-1.49,8.15-2.42a76.4,76.4,0,0,0,10-4.31l-.06.15a8.23,8.23,0,0,1,.85-.66,25.75,25.75,0,0,1,7.73-4.32,14.11,14.11,0,0,1,9.1-1.24c4.09.62,8.07,2,12.12,2.91,5.15,1.11,13.75,1.55,17-3.81,4.57-7.59-5.42-17.93-10.73-9.24a.24.24,0,0,0,.33.33c8.21-4.18,12.6,6.53,4.12,9.83-6.25,2.44-14.21-1.1-20.33-2.57a23.87,23.87,0,0,0-5.76-.68,89.43,89.43,0,0,0,19.47-21.5,6.25,6.25,0,0,1,4.9-1c2.64.45,5.13,1.47,7.79,1.89a10.2,10.2,0,0,0,10.65-5C271.36,219.13,264,211.76,260.93,218.86Zm-33.08,22.51C213.47,255.43,195.21,261.18,176,265c-11,2.18-24.67,4.95-36.53,10.19a99.2,99.2,0,0,1,27.68-19.52c20.12-9.47,44.89-9.88,62.13-25,.18-.16-.06-.46-.26-.33-20.85,13-45.32,12.61-67.44,22.43a89.91,89.91,0,0,0-37.91,32.41,36.94,36.94,0,0,0-4.2,4.54c2.34-14.71,6.69-27.18,20-35.89,12.3-8.06,28.24-10.63,42.43-13.26,16.36-3,34.82-7,48.17-17.6,11.2-8.88,18.62-20.29,23.89-33.21C250.92,210.23,243.34,226.22,227.85,241.37Z" style="fill:#3c3c3b"/><path d="M529.2,223c13.35,10.59,31.82,14.57,48.18,17.6,14.19,2.63,30.13,5.2,42.43,13.26,13.3,8.72,17.65,21.18,20,35.89a36.87,36.87,0,0,0-4.2-4.54,89.91,89.91,0,0,0-37.91-32.41c-22.13-9.82-46.6-9.42-67.44-22.43-.2-.13-.44.18-.26.33,17.24,15.1,42,15.51,62.13,25a99.17,99.17,0,0,1,27.68,19.52c-11.86-5.24-25.56-8-36.53-10.19-19.2-3.82-37.46-9.57-51.84-23.63-15.49-15.15-23.07-31.14-26.11-51.6C510.58,202.68,518,214.09,529.2,223Z" style="fill:#3aaa61"/><path d="M491,224.75a10.2,10.2,0,0,0,10.65,5c2.65-.42,5.15-1.44,7.78-1.89a6.25,6.25,0,0,1,4.9,1,89.53,89.53,0,0,0,19.47,21.5,23.88,23.88,0,0,0-5.76.68c-6.12,1.46-14.09,5-20.33,2.57-8.48-3.31-4.09-14,4.12-9.83a.24.24,0,0,0,.33-.33c-5.32-8.69-15.3,1.66-10.73,9.24,3.23,5.36,11.82,4.92,17,3.81,4-.87,8-2.29,12.12-2.91a14.11,14.11,0,0,1,9.1,1.24,25.7,25.7,0,0,1,7.73,4.32,8,8,0,0,1,.85.66l-.06-.15a76.33,76.33,0,0,0,10,4.31c2.69.93,5.41,1.7,8.15,2.42a39,39,0,0,0-5.84,3.59c-5,3.64-11.06,9.09-17.69,6.57-11.36-4.32-.43-16.19,4.29-8a.13.13,0,0,0,.25-.1c-1.6-11.1-16.81-1.51-10.71,6.89,3.92,5.4,12.26,4.72,17.36,1.83,4-2.28,7.6-5.3,11.62-7.59a16.09,16.09,0,0,1,5.36-2.07c2.2.52,4.41,1,6.63,1.45l.59.36c1.36.36,2.76.46,4.14.73,0,0,0-.09,0-.14,7.23,1.42,14.48,2.79,21.57,4.79-4.5,2.38-8.82,7.68-11.14,10.21-1.8,2-4.12,4.72-6.74,5.5-3.31,1-8.58.09-10.33-3.35a6.77,6.77,0,0,1,.39-6.9c2.06-2.81,4.07-1.57,6.22.38a.21.21,0,0,0,.35-.21c-.79-4.94-5.79-5.22-8.54-1.69s-2.28,9.53,1.91,12c5.9,3.42,12.25,2.4,17-2.3,2.88-2.84,5.34-6.23,8.5-8.79,4-3.25,6.47-2,11-1.55a.73.73,0,0,0,.67-.27c6.45,2.39,12.83,5.52,17.67,10.36.69.69,1.32,1.41,1.93,2.13-9.15.41-11.95,9.79-19.35,14.67-4.32,2.84-13.41,3.48-14.63-3.18-.66-3.57,1.83-11.2,6.3-7.07.68.63,1.93-.22,1.34-1-5.57-7.63-14.47,8-7.6,13.41,4.87,3.83,12.42,3.27,17-.77,6-5.31,9.31-13.78,17.65-15.14,4.57,5.73,6.95,12.17,9.93,19.08.68,1.57,3.17.73,3.13-.85a33.11,33.11,0,0,0-4.39-16.09,1.31,1.31,0,0,0,.56-.92c2.78-29-18.76-46.25-45-51.85-18.05-3.85-37.19-4-54.11-12.17-20-9.63-28.72-25.35-38.94-43.66,0-.2-.05-.4-.07-.6a.56.56,0,0,0-.29-.41l-.48-.06a3.54,3.54,0,0,0-.33.27c-.06.21-.11.42-.15.63l.07.2c-1.93,14.17,1.73,28.28,8.86,40.74a18.16,18.16,0,0,0-6.31.89c-4,1.2-9.09,2.58-12.2-1.35-2.79-3.52-.91-9.59,3.56-5.29a.67.67,0,0,0,1-.8C495.23,211.76,487.92,219.13,491,224.75Zm14.29-35C510.58,202.68,518,214.09,529.2,223c13.35,10.59,31.82,14.57,48.18,17.6,14.19,2.63,30.13,5.2,42.43,13.26,13.3,8.72,17.65,21.18,20,35.89a36.87,36.87,0,0,0-4.2-4.54,89.91,89.91,0,0,0-37.91-32.41c-22.13-9.82-46.6-9.42-67.44-22.43-.2-.13-.44.18-.26.33,17.24,15.1,42,15.51,62.13,25a99.17,99.17,0,0,1,27.68,19.52c-11.86-5.24-25.56-8-36.53-10.19-19.2-3.82-37.46-9.57-51.84-23.63C515.93,226.22,508.36,210.23,505.32,189.76Z" style="fill:#3c3c3b"/><path d="M156.71,480.83c20.35,16.92,46.28,18.66,70,27.68,15.6,5.94,27.54,16.9,35.83,31,0-1.63,0-3.27.11-4.88-3-6.86-5.18-14-10.71-19.5a68.83,68.83,0,0,0-20.57-13.74c-15-6.65-31-9.8-46.12-15.87C168.12,478.61,141.05,465.27,136,445c-1.09,10.19-2.93,20.4,1.07,30.32a43.53,43.53,0,0,0,19.86,22.31c15.71,8.5,33.17,10.86,50.19,15.41,13,3.47,27.39,8,38.68,15.39,5.49,3.6,13.11,8.11,16.83,14.28,0-.14,0-.28,0-.41-7.29-9.44-15.78-19.06-26.19-25.06-9.46-5.46-19.31-8.05-29.71-11-18.64-5.24-36-11.81-50.52-24.92C155.83,481,156.35,480.53,156.71,480.83Z" style="fill:#3aaa61"/><path d="M284.74,496.6c-11.07,11.12-14.77,23.71-17.08,37.54,6.42-13.6,19.36-25.84,27.88-36.08,0,0,.11,0,.08.06-4.7,8.92-11.44,16.12-16.88,24.54A67.58,67.58,0,0,0,272.88,534a144.23,144.23,0,0,1,11.45-10.82c6.55-5.79,13.5-11.47,17.8-19.24,4.64-8.39,6.41-17.21,9.38-26C305.69,487.34,292.74,488.57,284.74,496.6Z" style="fill:#3aaa61"/><path d="M313.41,473.79c.08-.26-.32-.43-.44-.19-4.78,9.78-14.61,10.74-23.51,14.81a39.55,39.55,0,0,0-15.37,13.22A63,63,0,0,0,263.38,528c-7.83-23.9-31-33.72-55.13-41.25S144.44,468,136.42,440.19c.06-.92.12-1.83.14-2.75,0-1.35-1.76-1.39-2.2-.29-6.9,17.25-6.44,37,4.9,52.19,9.13,12.19,24.59,18.11,38.75,22s28.52,6.23,42.52,10.71c11.64,3.73,36.34,10.12,42.26,23.34.09,1,.2,2.08.33,3.12a1.35,1.35,0,0,0,.67,1,29.06,29.06,0,0,0,.1,3,1.37,1.37,0,0,0,.08.31,16.71,16.71,0,0,0,.15,2.34c.23,1.5,2.3,1.17,2.72,0,6.15-17.37,18.43-26.09,30.83-38.86,10.15-10.46,17.06-27.72,15.66-42.31C313.35,473.92,313.39,473.86,313.41,473.79Zm-157.22,7.57c14.51,13.12,31.88,19.68,50.52,24.92,10.4,2.92,20.25,5.52,29.71,11,10.4,6,18.89,15.62,26.19,25.06,0,.14,0,.28,0,.41-3.71-6.17-11.34-10.68-16.83-14.28-11.29-7.41-25.71-11.92-38.68-15.39-17-4.55-34.48-6.9-50.19-15.41a43.53,43.53,0,0,1-19.86-22.31c-4-9.92-2.16-20.13-1.07-30.32,5.07,20.24,32.13,33.59,49.25,40.45,15.12,6.07,31.16,9.23,46.12,15.87a68.83,68.83,0,0,1,20.57,13.74c5.53,5.48,7.72,12.64,10.71,19.5-.1,1.61-.12,3.25-.11,4.88-8.29-14.07-20.23-25-35.83-31-23.71-9-49.64-10.76-70-27.68C156.35,480.53,155.83,481,156.19,481.36Zm145.94,22.56c-4.3,7.77-11.24,13.46-17.8,19.24A144.23,144.23,0,0,0,272.88,534a67.58,67.58,0,0,1,5.86-11.32c5.44-8.42,12.18-15.62,16.88-24.54,0,0,0-.11-.08-.06-8.51,10.24-21.46,22.48-27.88,36.08,2.31-13.83,6-26.42,17.08-37.54,8-8,21-9.26,26.77-18.67C308.53,486.71,306.77,495.52,302.12,503.92Z" style="fill:#3c3c3b"/><path d="M603.85,480.83c-20.35,16.92-46.28,18.66-70,27.68-15.6,5.94-27.54,16.9-35.83,31,0-1.63,0-3.27-.11-4.88,3-6.86,5.18-14,10.71-19.5a68.84,68.84,0,0,1,20.57-13.74c15-6.65,31-9.8,46.12-15.87,17.12-6.87,44.19-20.21,49.25-40.45,1.09,10.19,2.93,20.4-1.07,30.32a43.54,43.54,0,0,1-19.87,22.31c-15.71,8.5-33.17,10.86-50.19,15.41-13,3.47-27.38,8-38.68,15.39-5.48,3.6-13.12,8.11-16.83,14.28,0-.14,0-.28,0-.41,7.29-9.44,15.78-19.06,26.18-25.06,9.46-5.46,19.31-8.05,29.71-11,18.64-5.24,36-11.81,50.52-24.92C604.74,481,604.21,480.53,603.85,480.83Z" style="fill:#3aaa61"/><path d="M475.83,496.6c11.07,11.12,14.77,23.71,17.08,37.54-6.42-13.6-19.37-25.84-27.88-36.08,0,0-.11,0-.08.06,4.71,8.92,11.44,16.12,16.88,24.54A67.85,67.85,0,0,1,487.68,534a144.72,144.72,0,0,0-11.45-10.82c-6.55-5.79-13.5-11.47-17.8-19.24-4.64-8.39-6.41-17.21-9.38-26C454.87,487.34,467.83,488.57,475.83,496.6Z" style="fill:#3aaa61"/><path d="M447.24,474c-1.4,14.58,5.51,31.85,15.66,42.31,12.4,12.77,24.68,21.5,30.83,38.86.42,1.17,2.49,1.5,2.72,0a16.49,16.49,0,0,0,.15-2.34,1.25,1.25,0,0,0,.08-.31,28.78,28.78,0,0,0,.1-3,1.35,1.35,0,0,0,.67-1c.13-1,.24-2.08.33-3.12,5.92-13.21,30.62-19.61,42.26-23.34,14-4.49,28.38-6.79,42.52-10.71s29.62-9.85,38.75-22c11.34-15.15,11.79-34.94,4.9-52.19-.44-1.1-2.24-1.06-2.2.29,0,.92.08,1.83.14,2.75-8,27.8-47.8,39-71.83,46.52S505,504.07,497.19,528a62.94,62.94,0,0,0-10.72-26.34,39.54,39.54,0,0,0-15.37-13.22c-8.9-4.06-18.73-5-23.51-14.81a.24.24,0,0,0-.44.19C447.18,473.86,447.21,473.92,447.24,474Zm156.61,6.84c-20.35,16.92-46.28,18.66-70,27.68-15.6,5.94-27.54,16.9-35.83,31,0-1.63,0-3.27-.11-4.88,3-6.86,5.18-14,10.71-19.5a68.84,68.84,0,0,1,20.57-13.74c15-6.65,31-9.8,46.12-15.87,17.12-6.87,44.19-20.21,49.25-40.45,1.09,10.19,2.93,20.4-1.07,30.32a43.54,43.54,0,0,1-19.87,22.31c-15.71,8.5-33.17,10.86-50.19,15.41-13,3.47-27.38,8-38.68,15.39-5.48,3.6-13.12,8.11-16.83,14.28,0-.14,0-.28,0-.41,7.29-9.44,15.78-19.06,26.18-25.06,9.46-5.46,19.31-8.05,29.71-11,18.64-5.24,36-11.81,50.52-24.92C604.74,481,604.21,480.53,603.85,480.83Zm-154.79-2.9c5.81,9.41,18.77,10.64,26.77,18.67,11.07,11.12,14.77,23.71,17.08,37.54-6.42-13.6-19.37-25.84-27.88-36.08,0,0-.11,0-.08.06,4.71,8.92,11.44,16.12,16.88,24.54A67.85,67.85,0,0,1,487.68,534a144.72,144.72,0,0,0-11.45-10.82c-6.55-5.79-13.5-11.47-17.8-19.24C453.8,495.52,452,486.71,449.06,477.93Z" style="fill:#3c3c3b"/><path d="M215.2,666.39c3.32,13.71,8.3,27.59,16.34,39.3A172.73,172.73,0,0,0,244.64,722c-6.66-11.85-12.51-23.15-16-36.42-4-15.48-10.3-28.19-17.9-42.15a147.86,147.86,0,0,1-7.62-15.63c3.55,21.51,3.1,44.11,13.59,63.52a121.05,121.05,0,0,0,20.54,27.57,132.47,132.47,0,0,1-22.59-52.39C214.62,666.2,215.11,666,215.2,666.39Z" style="fill:#3aaa61"/><path d="M272.61,745.27a171.68,171.68,0,0,1-16.75-10.51c-13.16-16.25-20.73-39.16-25.39-58.05-5.92-24-24.27-42.18-31.12-65.89a.32.32,0,0,0-.32-.21c-.16-.47-.29-1-.46-1.43a.11.11,0,0,0-.2.06c.13.55.23,1.1.36,1.65v0a56.72,56.72,0,0,0,1.81,9.23c4.18,25.59,3.28,52.14,15.4,75.77,8,15.62,21.47,29.64,36.7,39.9l.63.52a19.47,19.47,0,0,1,4.54,2.81c1.55.9,3.11,1.8,4.65,2.7l-.2-.18a109.29,109.29,0,0,0,9.89,4.79C272.8,746.72,273.24,745.61,272.61,745.27Zm-35.35-26.35a121.05,121.05,0,0,1-20.54-27.57c-10.49-19.41-10-42-13.59-63.52a147.86,147.86,0,0,0,7.62,15.63c7.6,14,13.85,26.67,17.9,42.15,3.47,13.27,9.32,24.58,16,36.42a172.73,172.73,0,0,1-13.1-16.34c-8-11.71-13-25.59-16.34-39.3-.08-.34-.58-.19-.51.14A132.47,132.47,0,0,0,237.27,718.92Z" style="fill:#3c3c3b"/><path d="M544.32,666.39C541,680.1,536,694,528,705.69A172.79,172.79,0,0,1,514.88,722c6.66-11.85,12.51-23.15,16-36.42,4.05-15.48,10.3-28.19,17.9-42.15a147.65,147.65,0,0,0,7.62-15.63c-3.55,21.51-3.1,44.11-13.59,63.52a121.07,121.07,0,0,1-20.54,27.57,132.42,132.42,0,0,0,22.58-52.39C544.9,666.2,544.41,666,544.32,666.39Z" style="fill:#3aaa61"/><path d="M487.4,746.43a109.25,109.25,0,0,0,9.89-4.79l-.2.18c1.54-.91,3.1-1.8,4.65-2.7a19.54,19.54,0,0,1,4.54-2.81l.62-.52c15.23-10.25,28.69-24.28,36.7-39.9,12.12-23.63,11.22-50.17,15.4-75.77a56.57,56.57,0,0,0,1.81-9.23v0c.12-.55.23-1.1.36-1.65a.11.11,0,0,0-.2-.06c-.17.47-.3,1-.46,1.43a.32.32,0,0,0-.32.21c-6.85,23.71-25.2,41.9-31.12,65.89-4.66,18.89-12.23,41.8-25.39,58.05a171.66,171.66,0,0,1-16.76,10.51C486.29,745.61,486.72,746.72,487.4,746.43Zm57.44-79.9c.06-.33-.43-.48-.51-.14C541,680.1,536,694,528,705.69A172.79,172.79,0,0,1,514.88,722c6.66-11.85,12.51-23.15,16-36.42,4.05-15.48,10.3-28.19,17.9-42.15a147.65,147.65,0,0,0,7.62-15.63c-3.55,21.51-3.1,44.11-13.59,63.52a121.07,121.07,0,0,1-20.54,27.57A132.42,132.42,0,0,0,544.84,666.53Z" style="fill:#3c3c3b"/><path d="M270.79,53.54c-5.21,2.77-13.93,3-19.12-.82a25.38,25.38,0,0,0-.54-3.13.43.43,0,0,0-.84.11,13.27,13.27,0,0,1-.18,1.6c-.16-.18-.33-.34-.47-.52s-.16,0-.13.09c.15.34.31.7.47,1.06-1.41,6.65-7.54,13.4-14.07,14.49-5.57.93-3.25,9.59,2.35,8.51,9.41-1.83,13.64-10.71,13.59-19.38,1.85,3.11,4.3,5.92,7.68,7,5.51,1.81,11.76,1.3,16.23-2.62C279.38,56.78,274.76,51.43,270.79,53.54Z" style="fill:#3c3c3b"/><path d="M272.93,78.71c-3.33.82-5.71,1.55-9.17.72a30.77,30.77,0,0,1-6.18-2.34A15.64,15.64,0,0,1,256.08,74c-.08-.28-.56-.23-.52.07a7.62,7.62,0,0,1,0,1.75l-.18-.13c-.09-.07-.23,0-.17.13s.18.37.28.56c-.41,2.44-1.52,5.27-2,7.24-.88,3.31-1.94,5.93-5,7.64-4.53,2.51-.5,9.38,4.05,6.92,4-2.17,5.83-6.56,6.52-10.86a20.72,20.72,0,0,0,.18-5,22.81,22.81,0,0,0,3.55,2.42,17,17,0,0,0,12.39,1.72C280,85,278,77.47,272.93,78.71Z" style="fill:#3c3c3b"/><path d="M282.63,103.67c-3.47,3.11-7,4.36-11.26,2s-6-6.5-8.7-10.09c0,0,0,0,0,0a18.58,18.58,0,0,0,1.23,6.33c.45,4.39-2.26,9-4.34,12.64-2.52,4.43-6.31,5.73-11.1,5.38-5.43-.39-6.55,8.28-1.28,9.44,7.67,1.69,14.37-2.63,18.1-9.11a16.59,16.59,0,0,0,1.9-12.21,21.6,21.6,0,0,0,2.83,3.21c5.55,5.09,12.72,3.93,18.32-.32C293.66,106.89,287.62,99.18,282.63,103.67Z" style="fill:#3c3c3b"/><path d="M294,132.88c-7.29,3.46-16-.74-22.59-4.08-.06-.54-.11-1.07-.18-1.6s-1.08-.58-1.18,0c-1.22,7.43-2.67,14.36-7.09,20.61-4.13,5.84-11.9,8.55-14.57,15.28-1.29,3.25,2.39,5.74,5.21,5.2,7.41-1.45,12.3-10.79,15.13-17.11a40.48,40.48,0,0,0,3-18.4c5.26,8.53,18.17,12.09,27.07,8.29C304.3,138.71,299.52,130.23,294,132.88Z" style="fill:#3c3c3b"/><path d="M277.14,150a.32.32,0,0,0-.62,0c-1.52,4.81-1.82,9.89-3.26,14.73-1.57,5.29-6.55,9.11-11.07,11.9-5.88,3.64-.48,12.93,5.43,9.27C279.4,178.54,281.08,162.42,277.14,150Z" style="fill:#3c3c3b"/><path d="M488.41,53.54c5.21,2.77,13.94,3,19.12-.82a26.12,26.12,0,0,1,.54-3.13.43.43,0,0,1,.84.11,13.26,13.26,0,0,0,.18,1.6c.16-.18.33-.34.48-.52s.16,0,.13.09l-.47,1.06c1.41,6.65,7.54,13.4,14.07,14.49,5.57.93,3.25,9.59-2.35,8.51-9.41-1.83-13.64-10.71-13.59-19.38-1.84,3.11-4.3,5.92-7.68,7-5.51,1.81-11.76,1.3-16.23-2.62C479.82,56.78,484.44,51.43,488.41,53.54Z" style="fill:#3c3c3b"/><path d="M486.27,78.71c3.33.82,5.71,1.55,9.17.72a30.74,30.74,0,0,0,6.19-2.34A15.44,15.44,0,0,0,503.12,74c.09-.28.56-.23.53.07a7.47,7.47,0,0,0,0,1.75l.18-.13c.09-.07.23,0,.17.13s-.18.37-.28.56c.41,2.44,1.52,5.27,2,7.24.88,3.31,1.94,5.93,5,7.64,4.53,2.51.5,9.38-4.05,6.92-4-2.17-5.83-6.56-6.52-10.86a20.66,20.66,0,0,1-.18-5,22.91,22.91,0,0,1-3.55,2.42,17,17,0,0,1-12.39,1.72C479.16,85,481.24,77.47,486.27,78.71Z" style="fill:#3c3c3b"/><path d="M476.58,103.67c3.46,3.11,7,4.36,11.26,2s6-6.5,8.7-10.09c0,0,0,0,0,0a18.5,18.5,0,0,1-1.23,6.33c-.45,4.39,2.26,9,4.34,12.64,2.52,4.43,6.32,5.73,11.1,5.38,5.43-.39,6.55,8.28,1.28,9.44-7.67,1.69-14.37-2.63-18.11-9.11a16.59,16.59,0,0,1-1.9-12.21,21.82,21.82,0,0,1-2.83,3.21c-5.54,5.09-12.72,3.93-18.32-.32C465.54,106.89,471.58,99.18,476.58,103.67Z" style="fill:#3c3c3b"/><path d="M465.25,132.88c7.29,3.46,16-.74,22.59-4.08.06-.54.11-1.07.18-1.6s1.09-.58,1.18,0c1.22,7.43,2.67,14.36,7.09,20.61,4.13,5.84,11.91,8.55,14.57,15.28,1.29,3.25-2.39,5.74-5.2,5.2-7.41-1.45-12.3-10.79-15.13-17.11a40.47,40.47,0,0,1-3-18.4c-5.26,8.53-18.17,12.09-27.07,8.29C454.9,138.71,459.68,130.23,465.25,132.88Z" style="fill:#3c3c3b"/><path d="M482.06,150a.32.32,0,0,1,.62,0c1.53,4.81,1.82,9.89,3.26,14.73,1.57,5.29,6.55,9.11,11.07,11.9,5.88,3.64.48,12.93-5.43,9.27C479.8,178.54,478.13,162.42,482.06,150Z" style="fill:#3c3c3b"/><path d="M659.45,351.9a278.78,278.78,0,0,0,3.2-131.56c-10-46.14-31-88.77-62.44-126.67C538.76,19.55,450.85,10,381.13,10S223.51,19.55,162.06,93.67c-31.43,37.9-52.44,80.53-62.45,126.67a278.76,278.76,0,0,0,3.2,131.56c14.2,52.3,12.49,76.93,9.64,82.57l-.25.54a69.17,69.17,0,0,0-2.45,9.91,58.38,58.38,0,0,0-1.68,7.29,4.29,4.29,0,0,0,.48,2.69c-.7,11.34.63,26,8.61,40.07a64.35,64.35,0,0,0,10.22,13.45,12.49,12.49,0,0,0-.05,3.22c2.28,20.83,16.65,52,37.71,56.46,8.32,1.75,12.56,41.39,15.09,65.07,1.12,10.46,2.27,21.27,3.71,31.58,5.87,42.13,17.58,66,38,77.25a48.91,48.91,0,0,1,10.2,7.7c7.32,6.69,16.44,15,51.7,29.84a222.13,222.13,0,0,0,84.08,17.06c7.15,0,11.88-.41,13.36-.56,1.93.19,6.5.55,13.34.56h0a222.15,222.15,0,0,0,84.07-17.06c35.26-14.82,44.37-23.14,51.7-29.84a48.73,48.73,0,0,1,10.2-7.7c20.37-11.29,32.07-35.12,37.95-77.25,1.44-10.37,2.59-21.15,3.71-31.59,2.53-23.68,6.77-63.32,15.1-65.06,21.06-4.43,35.43-35.63,37.7-56.46a12.5,12.5,0,0,0-.06-3.22A64.32,64.32,0,0,0,645.09,495c9.73-17.11,9.58-35.23,7.89-47a4.66,4.66,0,0,0,.26-2.44,175.13,175.13,0,0,0-5.31-22C647.43,410.85,649.66,387.95,659.45,351.9ZM595.86,561.66c-16.87,3.54-17.75,57.6-24,102.18s-18.64,63.55-34.62,72.41S526.61,752.2,476,773.48s-94.87,16-94.87,16-44.28,5.31-94.87-16S241,745.12,225,736.25s-28.41-27.84-34.62-72.41-7.1-98.64-24-102.18c-15.82-3.33-28.71-28.08-32-47,11.52,8.92,26.74,15.33,45.53,19.14A178.6,178.6,0,0,1,206.2,541c2.12,14.66,12.31,73.43,41,88.91h.56l-.07,1.38,133.43.9h0l133.44-.9-.07-1.38h.56c28.68-15.48,38.87-74.25,41-88.91a178.62,178.62,0,0,1,26.25-7.24c18.79-3.8,34-10.22,45.53-19.14C624.57,533.58,611.68,558.33,595.86,561.66ZM636,384.3c-4.93-20,5-40.25,0-60.28-.06-.24-.4-.17-.41.06-1.84,22.16-9,42.71-7.72,65.18,1.12,19.84,8.75,41.86,17,59.77a4.12,4.12,0,0,0,1.75,2c1.23,10.78.87,26.29-7.32,40.68a57.3,57.3,0,0,1-7.79,10.57s-12,12.22-27.89,18.18-53.57,15.76-53.57,15.76c-18.9,7.63-31.64,18.05-38.63,31.53-8.79,17-6.56,35-4.78,49.54.26,2.1.51,4.12.71,6.06H254.91c.2-1.93.45-4,.71-6.06,1.79-14.52,4-32.58-4.77-49.54-7-13.48-19.73-22.77-38.62-30.4h-.28s-24.68-7.95-48.52-15.9-32.66-19.17-32.66-19.17A57.33,57.33,0,0,1,123,491.74c-7.24-12.69-8.37-26.3-7.69-36.76,14-15.87,18-42,18.61-62.39.7-21.79-4.68-46.94-16.31-65.5a.47.47,0,0,0-.85.36c5,20.89,9.35,39.63,7.8,61.32a135.94,135.94,0,0,1-3.76,22.75c-.83-13.37-3.85-33-11.55-61.36a272,272,0,0,1-3.12-128.41c9.78-45.09,30.33-86.76,61.07-123.84,59.68-72,145.68-81.22,213.94-81.22S535.4,25.92,595.07,97.91c30.74,37.08,51.29,78.75,61.07,123.84A272,272,0,0,1,653,350.16c-6.51,24-9.68,41.72-11,54.71C639.81,398,637.68,391.19,636,384.3Z" style="fill:#333"/><path d="M262.58,619.53s-1-11.41-7.1-13.55-9.32,3-8.88,14.81,1.78,20,12.43,21.2S262.58,619.53,262.58,619.53Z" style="fill:#f9efe1"/><path d="M259.8,644h0a8.18,8.18,0,0,1-1-.06c-12.38-1.41-13.75-11.29-14.2-23.1-.28-7.46.88-12.6,3.45-15.26,2-2.09,4.88-2.64,8.09-1.51,6.79,2.4,8.2,13.05,8.41,15.05.71,2.4,4.64,16.67.39,22.37A6.16,6.16,0,0,1,259.8,644ZM253,607.5a2.68,2.68,0,0,0-2.05.87c-1,1-2.65,4-2.34,12.34.47,12.55,2.12,18.32,10.66,19.29a4.91,4.91,0,0,0,.54,0h0a2.2,2.2,0,0,0,1.94-.9c2.41-3.23.62-13.39-1.07-19l-.08-.39c-.26-2.82-1.81-10.45-5.78-11.85A5.57,5.57,0,0,0,253,607.5Z" style="fill:#3c3c3b"/><path d="M381.1,634.78s.38,7.53-6.21,7.53H348.25s-7.55,0-5.33-12.42S350.87,598,362,598C381.48,598,381.1,634.78,381.1,634.78Z" style="fill:#f9efe1"/><path d="M374.89,644.31H348.25a7.48,7.48,0,0,1-5.45-2.72c-2.18-2.61-2.8-6.66-1.84-12,1.81-10.08,7.47-33.54,21-33.54a15.33,15.33,0,0,1,11.22,4.74c10,10.1,9.89,33.08,9.88,34.05,0,.34.14,4.47-2.49,7.23A7.67,7.67,0,0,1,374.89,644.31ZM362,600c-8.62,0-14.49,15.63-17.11,30.26-.74,4.1-.4,7.14,1,8.77a3.61,3.61,0,0,0,2.38,1.3h26.64a3.68,3.68,0,0,0,2.83-1,6.8,6.8,0,0,0,1.39-4.4c0-.34.11-22.42-8.73-31.33A11.3,11.3,0,0,0,362,600Z" style="fill:#3c3c3b"/><path d="M319.26,620.16s1-13.74-8.74-22.16-12.87,7.09-12.87,13.3-1.33,27.47,2.66,31S318.68,642.32,319.26,620.16Z" style="fill:#f9efe1"/><path d="M304,645.5h0a7.59,7.59,0,0,1-5.06-1.69c-3.37-3-3.81-12.7-3.41-28.46,0-1.65.08-3.05.08-4.05,0-4.6,1.77-17.74,9.67-17.74,2.06,0,4.25,1,6.51,2.94,10.41,9,9.47,23.21,9.43,23.81C320.73,640.21,309.77,645.5,304,645.5Zm1.27-48c-3.46,0-5.67,8.15-5.67,13.75,0,1,0,2.46-.08,4.15-.16,6.3-.58,23,2.07,25.37a3.79,3.79,0,0,0,2.41.68h0c5.09,0,12.8-5.7,13.22-21.4,0-.22.81-13-8-20.59A6.67,6.67,0,0,0,305.32,597.55Z" style="fill:#3c3c3b"/><path d="M344.46,622.76s3.79-22.54-4.19-27.86-26.64,27.92-23.53,43.42C316.74,638.33,342,653.28,344.46,622.76Z" style="fill:#f9efe1"/><path d="M329.47,644h0c-7,0-13.48-3.78-13.75-3.94l-.77-.46-.18-.87c-2.19-10.92,5.47-29.73,13.72-39.77,3.6-4.38,6.92-6.61,9.87-6.61a5.34,5.34,0,0,1,3,.91c8.71,5.8,5.54,26.95,5.07,29.76C345,640.34,336.43,644,329.47,644ZM318.54,637a26,26,0,0,0,10.93,3c7.69,0,12.07-5.85,13-17.39l0-.17c1.38-8.23,1.7-22.53-3.33-25.87a1.36,1.36,0,0,0-.79-.23c-.6,0-2.85.37-6.78,5.14C324.16,610.52,317.22,627.31,318.54,637Z" style="fill:#3c3c3b"/><path d="M297.44,619.53,291,606s-6.66-7.53-7.55,1.77a195.64,195.64,0,0,1-4,22.15s-2.66,8.43,5.33,8.43S298.56,641.5,297.44,619.53Z" style="fill:#f9efe1"/><path d="M289.76,640.48h0c-.76,0-1.55,0-2.38-.08s-1.71-.08-2.6-.08c-3.6,0-5.45-1.5-6.37-2.76-2.27-3.09-1.11-7.42-.88-8.19a194,194,0,0,0,3.93-21.81c.54-5.62,3.26-6.46,4.84-6.46,2.91,0,5.67,3,6.2,3.55l.19.21L299.41,619l0,.39c.53,10.32-.39,15.93-3.07,18.75C294.43,640.21,291.94,640.48,289.76,640.48Zm-3.47-35.39s-.63.45-.86,2.85a195.9,195.9,0,0,1-4,22.43l0,.13c-.24.79-.72,3.37.27,4.72.55.74,1.61,1.12,3.15,1.12,1,0,1.9,0,2.8.09s1.49.07,2.19.07h0c1.93,0,3-.29,3.7-1.06,1.75-1.84,2.41-6.88,2-15.4l-6.14-12.92C288.38,606.12,287,605.09,286.29,605.09Z" style="fill:#3c3c3b"/><path d="M281.42,620.79s-3.3-8.16-8.63-12.6-9.76-1.7-10.21,11.34.56,20.2,9.42,19S280.32,626.9,281.42,620.79Z" style="fill:#f9efe1"/><path d="M270.14,640.62h0a8.34,8.34,0,0,1-6.24-2.4c-3.19-3.3-3.63-9.38-3.31-18.75.43-12.6,4.51-15.24,7.86-15.24a9,9,0,0,1,5.62,2.44c5.65,4.7,9.06,13,9.2,13.38l.22.53-.1.56c-.18,1-.31,2.11-.46,3.31-.71,5.87-1.78,14.76-10.65,16A15.42,15.42,0,0,1,270.14,640.62Zm-1.69-32.4c-1.6,0-3.58,3-3.87,11.38-.27,7.88,0,13.59,2.19,15.86a4.28,4.28,0,0,0,3.37,1.18h0a12.39,12.39,0,0,0,1.58-.12c5.41-.76,6.41-5.68,7.24-12.54.12-1,.24-2,.39-2.94-.79-1.77-3.7-7.87-7.84-11.32A5.46,5.46,0,0,0,268.45,608.22Z" style="fill:#3c3c3b"/><path d="M499.68,619.53s1-11.41,7.1-13.55,9.32,3,8.88,14.81-1.77,20-12.43,21.2S499.68,619.53,499.68,619.53Z" style="fill:#f9efe1"/><path d="M502.47,644a6.17,6.17,0,0,1-5.15-2.5c-4.25-5.7-.32-20,.39-22.37.21-2,1.62-12.66,8.41-15.05,3.21-1.13,6.08-.57,8.09,1.51,2.57,2.67,3.73,7.8,3.45,15.26-.44,11.8-1.82,21.69-14.2,23.1A8.22,8.22,0,0,1,502.47,644Zm6.81-36.53a5.58,5.58,0,0,0-1.83.36c-4,1.4-5.54,9.22-5.78,11.85l-.07.39c-1.69,5.65-3.48,15.81-1.07,19A2.44,2.44,0,0,0,503,640c8.53-1,10.18-6.74,10.66-19.29.31-8.31-1.33-11.3-2.34-12.34A2.69,2.69,0,0,0,509.28,607.5Z" style="fill:#3c3c3b"/><path d="M381.16,634.78s-.37,7.53,6.22,7.53H414s7.55,0,5.33-12.42S411.39,598,400.27,598C380.79,598,381.16,634.78,381.16,634.78Z" style="fill:#f9efe1"/><path d="M414,644.31H387.38a7.68,7.68,0,0,1-5.73-2.28c-2.63-2.76-2.5-6.89-2.48-7.34,0-.86-.13-23.84,9.88-33.94A15.32,15.32,0,0,1,400.26,596c13.57,0,19.23,23.46,21,33.54,1,5.38.34,9.43-1.84,12A7.47,7.47,0,0,1,414,644.31ZM400.27,600a11.31,11.31,0,0,0-8.38,3.56c-8.84,8.91-8.73,31-8.73,31.21a6.91,6.91,0,0,0,1.39,4.53,3.72,3.72,0,0,0,2.83,1H414a3.61,3.61,0,0,0,2.46-1.36c1.33-1.65,1.65-4.67.93-8.71C414.75,615.63,408.88,600,400.27,600Z" style="fill:#3c3c3b"/><path d="M443,620.16s-1-13.74,8.74-22.16,12.87,7.09,12.87,13.3,1.33,27.47-2.66,31S443.58,642.32,443,620.16Z" style="fill:#f9efe1"/><path d="M458.22,645.5c-5.73,0-16.69-5.29-17.21-25.29,0-.5-1-14.75,9.43-23.72,2.25-1.95,4.45-2.93,6.5-2.93,7.89,0,9.67,13.14,9.67,17.74,0,1,0,2.4.08,4.05.4,15.75,0,25.46-3.41,28.46A7.57,7.57,0,0,1,458.22,645.5Zm-1.28-48a6.68,6.68,0,0,0-3.9,2c-8.86,7.63-8.06,20.37-8.05,20.5.42,15.8,8.14,21.5,13.22,21.5a3.79,3.79,0,0,0,2.41-.68c2.65-2.35,2.23-19.08,2.07-25.37,0-1.69-.08-3.12-.08-4.15C462.62,605.69,460.41,597.55,456.94,597.55Z" style="fill:#3c3c3b"/><path d="M417.8,622.76S414,600.22,422,594.9s26.63,27.92,23.53,43.42C445.53,638.33,420.27,653.28,417.8,622.76Z" style="fill:#f9efe1"/><path d="M432.79,644c-7,0-15.55-3.64-17-21-.46-2.81-3.64-24,5.07-29.76a5.33,5.33,0,0,1,3-.91c2.95,0,6.27,2.23,9.86,6.61,8.25,10,15.91,28.85,13.72,39.77l-.18.87-.77.46C446.27,640.21,439.81,644,432.79,644Zm-8.89-47.66a1.36,1.36,0,0,0-.79.23c-5,3.35-4.72,17.64-3.33,25.87l0,.17c.93,11.54,5.31,17.39,13,17.39a25.89,25.89,0,0,0,10.93-3c1.33-9.73-5.61-26.52-13-35.57C426.76,596.7,424.5,596.33,423.9,596.33Z" style="fill:#3c3c3b"/><path d="M464.83,619.53,471.27,606s6.66-7.53,7.54,1.77a196.47,196.47,0,0,0,4,22.15s2.66,8.43-5.33,8.43S463.71,641.5,464.83,619.53Z" style="fill:#f9efe1"/><path d="M472.5,640.48c-2.17,0-4.66-.27-6.6-2.31-2.68-2.82-3.59-8.42-3.07-18.75l0-.39,6.74-14.16.19-.21c.53-.6,3.29-3.55,6.2-3.55,1.57,0,4.3.83,4.84,6.46a194.54,194.54,0,0,0,3.93,21.81c.23.77,1.39,5.11-.88,8.19-.92,1.26-2.78,2.76-6.38,2.76-.9,0-1.77,0-2.6.08S473.26,640.48,472.5,640.48ZM466.8,620c-.41,8.52.25,13.56,2,15.4.73.77,1.77,1.06,3.7,1.06.7,0,1.43,0,2.19-.07s1.83-.09,2.79-.09c1.55,0,2.61-.38,3.15-1.13,1-1.39.47-4.06.27-4.71l0-.13a196.47,196.47,0,0,1-4-22.43c-.23-2.4-.82-2.84-.82-2.84-.76,0-2.21,1.11-3.06,2Z" style="fill:#3c3c3b"/><path d="M480.84,620.79s3.3-8.16,8.63-12.6,9.77-1.7,10.21,11.34-.56,20.2-9.42,19S481.94,626.9,480.84,620.79Z" style="fill:#f9efe1"/><path d="M492.12,640.62a15.41,15.41,0,0,1-2.14-.16c-8.88-1.24-9.94-10.13-10.65-16-.14-1.2-.28-2.32-.46-3.31l-.1-.56L479,620c.14-.35,3.55-8.68,9.2-13.38a9,9,0,0,1,5.62-2.44c3.35,0,7.43,2.64,7.86,15.24.32,9.38-.12,15.46-3.31,18.75A8.3,8.3,0,0,1,492.12,640.62ZM482.91,621c.15.92.27,1.9.39,2.94.83,6.86,1.83,11.78,7.24,12.54a12.35,12.35,0,0,0,1.58.12,4.27,4.27,0,0,0,3.37-1.18c2.19-2.27,2.46-8,2.19-15.86-.29-8.4-2.27-11.38-3.87-11.38a5.46,5.46,0,0,0-3.07,1.51C486.61,613.18,483.7,619.27,482.91,621Z" style="fill:#3c3c3b"/><path d="M442.93,761c-4-6.92,3.91-19.9-4.52-21.55a47.39,47.39,0,0,0-24.34,2.16,47.36,47.36,0,0,0-9.93-21.69c-5.69-6.72-13.14,6.43-21.32,6.43-8,0-15.31-13.33-20.94-6.87a47.16,47.16,0,0,0-10.3,22.13,47.61,47.61,0,0,0-23.78-2.27c-8.67,1.56-1,14.58-5.08,21.65-4,6.91-19.21,6.57-16.43,14.67a40.1,40.1,0,0,0,2.55,5.79A217,217,0,0,0,348.05,789c.08-.43.16-.86.26-1.29-7.91-.55-16.82-6.74-22-11a.22.22,0,0,1,.21-.36c4.57,1.68,9,3.75,13.63,5.26,3.1,1,6.35,1.23,9.49,1.76a35.33,35.33,0,0,1,5-9.11,42.48,42.48,0,0,0-9.67-8.8c-3.67-2.42-7.61-4.52-10.84-7.52a.26.26,0,0,1,.25-.44c7.46,2.23,17.18,7.09,23.09,13.48a35.47,35.47,0,0,1,15-9.14c-3.48-7.11-2.57-17.89-1.47-24.54a.22.22,0,0,1,.42,0c.82,4.79,1.25,9.65,2.25,14.41.67,3.19,2.11,6.1,3.22,9.09a34.77,34.77,0,0,1,10.42-.22,42.31,42.31,0,0,0,2.8-12.74c.26-4.38.12-8.84,1.1-13.13a.27.27,0,0,1,.51,0c1.8,7.55,2.44,18.37-.14,26.67a35.41,35.41,0,0,1,15.38,8.39c4.43-6.56,14.25-11.17,20.57-13.54a.22.22,0,0,1,.22.36c-3.75,3.11-7.75,5.9-11.38,9.15-2.43,2.17-4.24,4.87-6.28,7.33a35.39,35.39,0,0,1,5.43,8.9,42.43,42.43,0,0,0,12.43-4c3.93-2,7.73-4.32,11.94-5.61a.27.27,0,0,1,.26.45c-5.65,5.32-14.72,11.29-23.21,13.21.24.86.45,1.74.63,2.62a216.53,216.53,0,0,0,39.87-8.4,39.82,39.82,0,0,0,1.75-4.06C462.15,767.94,447,768.06,442.93,761Z" style="fill:#fcd310"/><path d="M382.83,769.08a26.61,26.61,0,0,0-25.93,20.63c5.93.33,11,.36,14.9.27a12.42,12.42,0,0,1,22.1,0c4.12,0,9.12-.11,14.83-.53A26.61,26.61,0,0,0,382.83,769.08Z" style="fill:#fcd310"/><path d="M382.83,783.25a12.41,12.41,0,0,0-11,6.73c6-.14,9.33-.54,9.34-.54a122.33,122.33,0,0,0,12.76.59A12.41,12.41,0,0,0,382.83,783.25Z" style="fill:#333"/><path d="M440.13,772.84a.27.27,0,0,0-.26-.45c-4.22,1.3-8,3.65-11.94,5.61a42.43,42.43,0,0,1-12.43,4,35.39,35.39,0,0,0-5.43-8.9c2-2.46,3.85-5.16,6.28-7.33,3.63-3.25,7.63-6,11.38-9.15a.22.22,0,0,0-.22-.36c-6.32,2.37-16.14,7-20.57,13.54a35.41,35.41,0,0,0-15.38-8.39c2.58-8.3,1.94-19.12.14-26.67a.27.27,0,0,0-.51,0c-1,4.29-.84,8.76-1.1,13.13a42.31,42.31,0,0,1-2.8,12.74,34.77,34.77,0,0,0-10.42.22c-1.12-3-2.55-5.9-3.22-9.09-1-4.76-1.43-9.62-2.25-14.41a.22.22,0,0,0-.42,0c-1.1,6.65-2,17.43,1.47,24.54a35.47,35.47,0,0,0-15,9.14c-5.91-6.39-15.63-11.25-23.09-13.48a.26.26,0,0,0-.25.44c3.23,3,7.17,5.1,10.84,7.52a42.48,42.48,0,0,1,9.67,8.8,35.33,35.33,0,0,0-5,9.11c-3.15-.53-6.4-.75-9.49-1.76-4.63-1.51-9.06-3.58-13.63-5.26a.22.22,0,0,0-.21.36c5.22,4.28,14.13,10.46,22,11-.1.43-.18.86-.26,1.29,3.13.31,6.08.53,8.84.68a26.62,26.62,0,0,1,51.82-.22c2.78-.2,5.73-.47,8.83-.82-.18-.88-.38-1.76-.63-2.62C425.41,784.13,434.48,778.16,440.13,772.84Z" style="fill:#333"/></svg>