<svg xmlns="http://www.w3.org/2000/svg" viewBox="0 0 760 916"><title>sk1-fool</title><path d="M586.16,101.29c-65-80-161.21-85.47-220.1-85.47S210.94,21.34,146,101.29,63.38,279.48,86.39,366c19,71.21,9.48,88.22,9.48,88.22s-15.93,46.24,18.82,76.49a7,7,0,0,0,0,1.1c2.14,20,15.91,48.93,33.05,52.61s18.05,59.74,24.37,106,19,65.9,35.2,75.09S218.17,782,269.61,804s96.44,16.55,96.45,16.54,45,5.51,96.45-16.54,46-29.41,62.27-38.6,28.88-28.87,35.2-75.09,7.22-102.28,24.37-106,30.91-32.61,33.05-52.61a7,7,0,0,0,0-1.1c34.74-30.25,18.81-76.48,18.81-76.48s-9.48-17,9.48-88.22C668.75,279.48,651.14,181.24,586.16,101.29Z" style="fill:#eee3cf"/><path d="M517.28,516.45a7.68,7.68,0,0,1-4.58-1.53c-3.18-2.35-5.19-5.94-6.32-11.31a2,2,0,0,0-1.84-1.59h-.1a2,2,0,0,0-1.88,1.4c-.38,1.19-.81,2.34-1.27,3.41-1.39,3.24-4.37,6.5-7.89,6.5l-.47,0c-5.24-.43-8-5.81-10.13-11.56,0-.13-.09-.26-.13-.4l-.09-.28a2,2,0,0,0-1.76-1.38h-.12a2,2,0,0,0-1.79,1.15c-.42.89-.79,1.61-1.16,2.25-2.5,4.27-6.58,7-10.39,7a8.35,8.35,0,0,1-6.14-2.86c-3.8-4-4-10.11-3.73-13.41a2,2,0,0,0-1-1.93,1.95,1.95,0,0,0-2.15.18,18.74,18.74,0,0,1-6.91,3.51,4.36,4.36,0,0,1-1.06.14,4,4,0,0,1-3.43-2c-4.18-6.6-4.74-16.34-1.31-22.66a2,2,0,0,0-.39-2.46,2,2,0,0,0-2.44-.2,19.32,19.32,0,0,1-4.09,2.1,11.71,11.71,0,0,1-4.11.73,14.24,14.24,0,0,1-9.36-3.75c-3.24-2.92-4.54-8.08-3.32-13.16.06-.27.15-.54.23-.8a2,2,0,0,0-.5-2.06,2,2,0,0,0-2-.47,21.46,21.46,0,0,1-2.77.79,7.34,7.34,0,0,1-1.44.15,6.23,6.23,0,0,1-5.87-4.2,5.85,5.85,0,0,1,1.76-6.61,2,2,0,0,0,.56-2.29,2,2,0,0,0-1.84-1.28h-.1c-.85,0-1.72.07-2.58.07a50.92,50.92,0,0,1-5.55-.31c-2.12-.23-4.73-1.33-5.13-3.66-.77-4.53-.34-8.47,1.28-11.72a2.06,2.06,0,0,0,0-1.85,2,2,0,0,0-1.49-1.06,12.12,12.12,0,0,1-5.6-2.22,2,2,0,0,0-.64-.31c-3.6-1-11.73-4.36-9.48-13.94,1.06-4.52,5.15-8,8.61-9.81l.38-.18.11-.05a2,2,0,0,0,1.16-2.09s-.05-.42-.06-.53a2,2,0,0,0-1.06-1.61l-.15-.08c-.7-.37-1.4-.74-2.08-1.13l-.88-.51c-2.8-1.61-5.7-3.27-7.7-5.59-3-3.45-4.24-8.77-.42-12.87,2.36-2.53,6.25-4.2,10.67-4.6a2,2,0,0,0,1.78-1.65,2,2,0,0,0-1.1-2.18,24.53,24.53,0,0,1-4.56-2.94c-3.7-3-5-8.65-4.55-12.67s2.77-6.47,6.33-6.58a27.36,27.36,0,0,0,3.26-.39,29.22,29.22,0,0,1,3.93-.44h0a5.82,5.82,0,0,1,3.54,1.2,1.95,1.95,0,0,0,1.91.24l.38-.16.36-.15a2,2,0,0,0,1.2-1.19,2.06,2.06,0,0,0-.13-1.7c-3.24-5.86-4.42-14.62-2.83-20.81a4.78,4.78,0,0,1,4.29-3.52h.17a25.83,25.83,0,0,1,12.47,3.83l.17.1.17.08a13.48,13.48,0,0,1,3.94,3.33l.08.09a21.59,21.59,0,0,1,1.93,2.42,2,2,0,0,0,1.62.85,1.94,1.94,0,0,0,1.06-.32l.09-.05a2,2,0,0,0,1-1.38,2.05,2.05,0,0,0-.41-1.64c-4-5-9.69-14.81-3-24.19.94-1.31,2.66-2.83,4.43-2.83A2.85,2.85,0,0,1,424,291c5.27,2.21,10.79,4.67,15.38,8.11a1.95,1.95,0,0,0,2.2.1,2,2,0,0,0,.93-2,29.52,29.52,0,0,1,.86-12.59,5,5,0,0,1,5-3.62,7.66,7.66,0,0,1,1.28.11,24.4,24.4,0,0,1,16.1,9.87,2,2,0,0,0,1.61.84,2,2,0,0,0,.47-.06,2,2,0,0,0,1.49-1.67,27.65,27.65,0,0,1,3.17-9.64,4.91,4.91,0,0,1,4.69-2.5,9.36,9.36,0,0,1,1.46.12c5.39.85,9.27,4.13,11.56,9.75a2,2,0,0,0,1.56,1.23l.27,0a2,2,0,0,0,1.55-.77,9.62,9.62,0,0,1,5.09-3.42,13.46,13.46,0,0,1,3.74-.56c5.74,0,10.47,4.23,12.36,11a28,28,0,0,1,.9,6.28,2,2,0,0,0,1.53,1.87,1.92,1.92,0,0,0,.45.05,2,2,0,0,0,1.74-1c4.33-8.05,8.43-12,12.53-12a8.58,8.58,0,0,1,4.61,1.54c6.61,4.26,8.09,9.33,4.67,15.95a2,2,0,0,0,.58,2.57,2,2,0,0,0,2.58-.21c6-6.25,12.52-9.68,18.25-9.68a13.69,13.69,0,0,1,6.3,1.53,12.53,12.53,0,0,1,5,5.66,2,2,0,0,0,.32.46,5.09,5.09,0,0,1,1.32,3.88,2,2,0,0,0,0,.48,10,10,0,0,1-.64,5.14,2.06,2.06,0,0,0,.28,2,2,2,0,0,0,1.57.78H577a21.32,21.32,0,0,1,2.56-.16c2.8,0,9.59.68,12.07,6.94,1.51,3.8.17,7.71-4.09,11.95a2,2,0,0,0-.42,2.27,2,2,0,0,0,1.81,1.2h.13c1.55-.1,2.92-.16,4.19-.16,6.91,0,13.64,3.94,16,9.37,1.76,4,.82,8.29-2.71,12.29a26.45,26.45,0,0,1-3.76,3.47,2,2,0,0,0-.75,2,2,2,0,0,0,1.45,1.56c3.19.84,10.67,3.61,11.11,11.31.34,5.93-6.23,9.86-12,11.42a2,2,0,0,0-.43.16,2,2,0,0,0,.09,3.66c13.76,6.13,13,16.06,12.42,19-.73,3.73-3.06,5.85-7.12,6.48a2,2,0,0,0-1.56,1.31,2.05,2.05,0,0,0,.38,2c3.15,3.65,4.15,8.09,3,13.2-1.26,5.42-5.92,6.56-9.61,6.56a21.31,21.31,0,0,1-6.06-.93,1.94,1.94,0,0,0-.56-.08,2,2,0,0,0-1.63.88,2.05,2.05,0,0,0,.06,2.37c2.76,3.66,8.44,13.09,1.68,21.54a9.08,9.08,0,0,1-7.39,3.59,16,16,0,0,1-7.29-2,1.95,1.95,0,0,0-2.22.28,2,2,0,0,0-.55,2.21c2.4,6.66,1.54,16-4,19.57a6.35,6.35,0,0,1-3.46,1.08c-2.71,0-5.7-1.91-8.91-5.67a2,2,0,0,0-1.5-.7,1.94,1.94,0,0,0-.82.18,2,2,0,0,0-1.15,2.11c0,.09,0,.18,0,.27.8,4.63-.05,11.36-3.23,15.24a7.39,7.39,0,0,1-5.9,2.91,11,11,0,0,1-3.52-.64,21,21,0,0,1-10.91-9.37,2,2,0,0,0-1.7-1,2,2,0,0,0-.53.07,2,2,0,0,0-1.45,2,18.73,18.73,0,0,1-4.73,13A9.16,9.16,0,0,1,517.28,516.45Z" style="fill:#f39200"/><path d="M214.84,516.45a9.16,9.16,0,0,1-6.74-3.19,18.71,18.71,0,0,1-4.73-13,2,2,0,0,0-1.45-2,2,2,0,0,0-.53-.07,2,2,0,0,0-1.7,1,21,21,0,0,1-10.91,9.37,11,11,0,0,1-3.52.64,7.39,7.39,0,0,1-5.9-2.91c-3.18-3.87-4-10.6-3.23-15.25l0-.12a2,2,0,0,0-1.07-2.21,1.94,1.94,0,0,0-.87-.21,2,2,0,0,0-1.5.7c-3.2,3.76-6.2,5.67-8.91,5.67a6.35,6.35,0,0,1-3.46-1.08c-5.57-3.53-6.43-12.91-4-19.57a2,2,0,0,0-.55-2.21,1.95,1.95,0,0,0-2.22-.28,16,16,0,0,1-7.29,2,9.08,9.08,0,0,1-7.39-3.59c-6.76-8.45-1.08-17.88,1.68-21.54a2.05,2.05,0,0,0,.06-2.37,2,2,0,0,0-1.63-.88,1.93,1.93,0,0,0-.56.08,21.31,21.31,0,0,1-6.06.93c-3.68,0-8.34-1.14-9.6-6.56-1.19-5.11-.19-9.55,3-13.2a2.05,2.05,0,0,0,.38-2,2,2,0,0,0-1.56-1.31c-4.06-.63-6.39-2.75-7.12-6.48-.56-2.9-1.34-12.83,12.43-18.95a2,2,0,0,0-.31-3.81c-5.76-1.56-12.37-5.49-12-11.44.45-7.7,7.92-10.48,11.11-11.31a2,2,0,0,0,1.45-1.56,2,2,0,0,0-.75-2,26.75,26.75,0,0,1-3.76-3.47c-3.54-4-4.48-8.26-2.72-12.29,2.37-5.43,9.1-9.37,16-9.37,1.28,0,2.65.05,4.2.16h.13a2,2,0,0,0,1.81-1.2,2,2,0,0,0-.42-2.27c-4.26-4.24-5.59-8.15-4.09-11.95,2.49-6.27,9.28-6.94,12.08-6.94a21.32,21.32,0,0,1,2.56.16h.23a2,2,0,0,0,1.57-.78,2.06,2.06,0,0,0,.28-2,10,10,0,0,1-.64-5.14,2,2,0,0,0,0-.49,5,5,0,0,1,1.31-3.87,2,2,0,0,0,.32-.46,12.53,12.53,0,0,1,5-5.65,13.7,13.7,0,0,1,6.31-1.53c5.72,0,12.2,3.44,18.25,9.68a2,2,0,0,0,2.58.21,2,2,0,0,0,.58-2.57c-3.43-6.62-1.95-11.69,4.67-15.95a8.57,8.57,0,0,1,4.61-1.54c4.1,0,8.2,3.91,12.53,12a2,2,0,0,0,1.74,1,1.93,1.93,0,0,0,.45-.05,2,2,0,0,0,1.53-1.88,27.76,27.76,0,0,1,.9-6.28c1.89-6.8,6.62-11,12.36-11a13.47,13.47,0,0,1,3.75.56,9.6,9.6,0,0,1,5.09,3.41,2,2,0,0,0,1.55.77l.27,0a2,2,0,0,0,1.56-1.23c2.29-5.62,6.18-8.9,11.56-9.75A9.35,9.35,0,0,1,255,278a4.91,4.91,0,0,1,4.68,2.5,27.77,27.77,0,0,1,3.17,9.65,2,2,0,0,0,1.49,1.67,2,2,0,0,0,.47.06,2,2,0,0,0,1.61-.84,24.38,24.38,0,0,1,16.1-9.87,7.64,7.64,0,0,1,1.27-.11,5,5,0,0,1,5,3.62,29.54,29.54,0,0,1,.86,12.59,2,2,0,0,0,.93,2,1.95,1.95,0,0,0,2.2-.1c4.59-3.45,10.12-5.9,15.38-8.11a2.84,2.84,0,0,1,1.12-.23c1.77,0,3.49,1.52,4.43,2.83,6.74,9.38,1,19.18-2.95,24.19a2.05,2.05,0,0,0-.41,1.64,2,2,0,0,0,1,1.38l.09.05a2,2,0,0,0,2.68-.54A21.24,21.24,0,0,1,316,318l.08-.1a13.47,13.47,0,0,1,3.93-3.33l.21-.1.13-.08a25.83,25.83,0,0,1,12.48-3.83H333a4.79,4.79,0,0,1,4.3,3.52c1.6,6.19.41,14.95-2.83,20.81a2.06,2.06,0,0,0-.13,1.71,2,2,0,0,0,1.2,1.19l.35.15.38.17a1.95,1.95,0,0,0,1.91-.24,5.78,5.78,0,0,1,3.47-1.2,29.13,29.13,0,0,1,4,.45,27.36,27.36,0,0,0,3.26.39c3.56.11,5.93,2.57,6.33,6.58s-.84,9.7-4.55,12.67a24.4,24.4,0,0,1-4.56,2.94,2,2,0,0,0-1.1,2.18,2,2,0,0,0,1.78,1.65c4.42.4,8.31,2.08,10.67,4.6,3.82,4.1,2.54,9.42-.43,12.87-2,2.32-4.89,4-7.69,5.59l-.88.51c-.67.39-1.37.75-2.06,1.12l-.18.09a2,2,0,0,0-1.06,1.6l-.07.57a2,2,0,0,0,1.16,2.06l.12.05.38.18c3.46,1.78,7.54,5.29,8.6,9.81,2.25,9.58-5.88,12.94-9.48,13.94a2,2,0,0,0-.64.31,12.12,12.12,0,0,1-5.6,2.22,2,2,0,0,0-1.49,1.06,2.06,2.06,0,0,0,0,1.85c1.62,3.24,2.05,7.19,1.28,11.72-.4,2.33-3,3.43-5.13,3.66a51,51,0,0,1-5.55.31c-.86,0-1.73,0-2.58-.07h-.1a2,2,0,0,0-1.84,1.28,2,2,0,0,0,.56,2.29,5.85,5.85,0,0,1,1.76,6.61,6.23,6.23,0,0,1-5.87,4.2,7.32,7.32,0,0,1-1.45-.15,21.63,21.63,0,0,1-2.76-.79,2,2,0,0,0-2,.47,2,2,0,0,0-.5,2.06c.08.27.17.54.23.81,1.23,5.08-.08,10.24-3.32,13.16a14.24,14.24,0,0,1-9.35,3.75,11.72,11.72,0,0,1-4.11-.73,19.39,19.39,0,0,1-4.09-2.1,1.95,1.95,0,0,0-2.44.2,2,2,0,0,0-.39,2.46c3.44,6.32,2.88,16.07-1.3,22.66a4,4,0,0,1-3.43,2,4.36,4.36,0,0,1-1.05-.13,18.72,18.72,0,0,1-6.92-3.51,1.95,1.95,0,0,0-2.15-.18,2,2,0,0,0-1,1.93c.24,3.29.07,9.42-3.73,13.41a8.35,8.35,0,0,1-6.14,2.86c-3.81,0-7.88-2.76-10.38-7a25.25,25.25,0,0,1-1.16-2.25,2,2,0,0,0-1.79-1.15h-.12a2,2,0,0,0-1.76,1.38l-.09.3c0,.13-.08.27-.13.4-2.5,6.64-5.18,11.15-10.12,11.56l-.47,0c-3.51,0-6.55-3.37-7.89-6.5-.44-1-.87-2.17-1.27-3.42a2,2,0,0,0-1.88-1.39h-.1a2,2,0,0,0-1.83,1.59c-1.13,5.36-3.14,9-6.33,11.3A7.67,7.67,0,0,1,214.84,516.45Z" style="fill:#f39200"/><path d="M411.42,503.51c-4.83-9-5.32-22.05-7.64-37.91s-23.39-39.29-30.12-36.53-.72,20,0,44.11S366.06,509,366.06,509s-8.24-11.72-7.56-35.84,6.69-41.36,0-44.11-27.8,20.68-30.13,36.53-2.81,28.95-7.64,37.91-19.48,22.75-7.08,46.87,49.17-2.07,52.45-13.79c3.27,11.72,40,37.91,52.44,13.79S416.26,512.47,411.42,503.51Z" style="fill:#3c3c3b"/><path d="M457.67,328.22s-55,8.9-43.83,63.62,41.74,73.17,77,78.26,59.68,5.73,72.18-27.36,16.25-52.17,5.63-74.44-45.61-32.45-52.49-35S481.62,325,457.67,328.22Z" style="fill:#3c3c3b"/><path d="M272,328.22s55,8.9,43.83,63.62S274.12,465,238.82,470.1s-59.68,5.73-72.18-27.36S150.39,390.57,161,368.3s45.62-32.45,52.49-35S248.09,325,272,328.22Z" style="fill:#333"/><path d="M231.65,316.12c-4.85,0-4.85,7.66,0,7.66S236.51,316.12,231.65,316.12Z" style="fill:#f9efe1"/><path d="M256,313.07c-5.22,0-5.22,8.24,0,8.24S261.24,313.07,256,313.07Z" style="fill:#f9efe1"/><path d="M282.2,317.76c-3.93,0-3.93,6.2,0,6.2S286.13,317.76,282.2,317.76Z" style="fill:#f9efe1"/><path d="M304.76,326.95a4.94,4.94,0,1,0,4.86,4.94A4.95,4.95,0,0,0,304.76,326.95Z" style="fill:#f9efe1"/><path d="M322.24,349a2.5,2.5,0,0,0-4.28,0,4.34,4.34,0,0,0-.75,1.38,6,6,0,0,0,.14,2.51c.43,2.79,5.07,2.79,5.51,0a12,12,0,0,0,.25-1.69A3.7,3.7,0,0,0,322.24,349Z" style="fill:#f9efe1"/><path d="M326.42,373.19c-5.89,0-5.89,9.31,0,9.31S332.32,373.19,326.42,373.19Z" style="fill:#f9efe1"/><path d="M327.54,397.62a4.33,4.33,0,0,0-3.82-2.23,4.39,4.39,0,0,0-3.73,2.07,4.84,4.84,0,0,0-1.36,3.35,4.79,4.79,0,0,0,3.4,4.55,4.93,4.93,0,0,0,2.74,0,5.11,5.11,0,0,0,2.92-2.27C328.93,401.36,328.29,399.34,327.54,397.62Z" style="fill:#f9efe1"/><path d="M314.69,421.46c-4.11,0-4.11,6.49,0,6.49S318.8,421.46,314.69,421.46Z" style="fill:#f9efe1"/><path d="M303,442.07c-4.79,0-4.79,7.56,0,7.56S307.75,442.07,303,442.07Z" style="fill:#f9efe1"/><path d="M285.83,456.89a3.67,3.67,0,1,0,3.6,3.67A3.67,3.67,0,0,0,285.83,456.89Z" style="fill:#f9efe1"/><path d="M260.54,471.86c-3.13,0-3.13,4.94,0,4.94S263.67,471.86,260.54,471.86Z" style="fill:#f9efe1"/><path d="M238.68,477l-.66-.42a3.7,3.7,0,1,0,0,6.45l.66-.42A3.31,3.31,0,0,0,238.68,477Z" style="fill:#f9efe1"/><path d="M211.8,477.82c-3.74,0-3.74,5.91,0,5.91S215.54,477.82,211.8,477.82Z" style="fill:#f9efe1"/><path d="M191.95,475.3a4.56,4.56,0,1,0,4.47,4.56A4.56,4.56,0,0,0,191.95,475.3Z" style="fill:#f9efe1"/><path d="M173,463c-3.87,0-3.87,6.11,0,6.11S176.86,463,173,463Z" style="fill:#f9efe1"/><path d="M159.45,445.69c-6,0-6,9.5,0,9.5S165.47,445.69,159.45,445.69Z" style="fill:#f9efe1"/><path d="M153.14,428c-5.15,0-5.15,8.14,0,8.14S158.29,428,153.14,428Z" style="fill:#f9efe1"/><path d="M145.92,400.62c-3.75,0-3.75,5.91,0,5.91S149.66,400.62,145.92,400.62Z" style="fill:#f9efe1"/><path d="M147.72,377.45c-4,0-4,6.3,0,6.3S151.71,377.45,147.72,377.45Z" style="fill:#f9efe1"/><path d="M155.84,354.18c-5.52,0-5.52,8.72,0,8.72S161.37,354.18,155.84,354.18Z" style="fill:#f9efe1"/><path d="M172.09,339.57c-4.24,0-4.24,6.69,0,6.69S176.33,339.57,172.09,339.57Z" style="fill:#f9efe1"/><path d="M188.35,328.94a11.14,11.14,0,0,0-1.49.65c-2.77,1.36-3,5.48-1,7.53s6.06,1.85,7.4-1a11.87,11.87,0,0,0,.64-1.51C195,331.32,191.6,327.89,188.35,328.94Z" style="fill:#f9efe1"/><path d="M213.79,323.43l-.44-.48a3.45,3.45,0,0,0-4.91,0l-.44.48a4.28,4.28,0,0,0-1.05,4.05,4.06,4.06,0,0,0,7.48,1A4.27,4.27,0,0,0,213.79,323.43Z" style="fill:#f9efe1"/><path d="M427.51,327.63c-3.07,0-3.07,4.85,0,4.85S430.57,327.63,427.51,327.63Z" style="fill:#f9efe1"/><path d="M449.17,315c-5.09,0-5.09,8,0,8S454.26,315,449.17,315Z" style="fill:#f9efe1"/><path d="M474.83,316.57a2.28,2.28,0,0,0-2.2-1.71,2.2,2.2,0,0,0-1.61.73,2.58,2.58,0,0,0-1.91,2.51,2.66,2.66,0,0,0,3.32,2.57,3.9,3.9,0,0,0,1.57-.91A3.39,3.39,0,0,0,474.83,316.57Z" style="fill:#f9efe1"/><path d="M495.19,314.08c-6.26,0-6.26,9.88,0,9.88S501.46,314.08,495.19,314.08Z" style="fill:#f9efe1"/><path d="M519.56,320.81c-4.73,0-4.73,7.46,0,7.46S524.29,320.81,519.56,320.81Z" style="fill:#f9efe1"/><path d="M545.47,332a5,5,0,0,0-2.27-1.36,4.1,4.1,0,0,0-5.12,4,4,4,0,0,0,2.52,3.74,3.57,3.57,0,0,0,2.42,1,3.71,3.71,0,0,0,3.58-2.77A5,5,0,0,0,545.47,332Z" style="fill:#f9efe1"/><path d="M562.89,344.22c-4.17,0-4.17,6.59,0,6.59S567.06,344.22,562.89,344.22Z" style="fill:#f9efe1"/><path d="M579.13,365.64c-5,0-5,7.85,0,7.85S584.1,365.64,579.13,365.64Z" style="fill:#f9efe1"/><path d="M584.55,391.76c-5.65,0-5.65,8.92,0,8.92S590.19,391.76,584.55,391.76Z" style="fill:#f9efe1"/><path d="M580.94,418.71c-3,0-3,4.65,0,4.65S583.88,418.71,580.94,418.71Z" style="fill:#f9efe1"/><path d="M573.72,438.92c-6.45,0-6.45,10.18,0,10.18S580.16,438.92,573.72,438.92Z" style="fill:#f9efe1"/><path d="M562.44,462.81l-1.09.58a3.16,3.16,0,0,0-.62,4.87,3,3,0,0,0,4.78-.63l.57-1.11A2.71,2.71,0,0,0,562.44,462.81Z" style="fill:#f9efe1"/><path d="M543,471.43c-4.85,0-4.85,7.66,0,7.66S547.88,471.43,543,471.43Z" style="fill:#f9efe1"/><path d="M519.56,475.88c-3.86,0-3.86,6.11,0,6.11S523.43,475.88,519.56,475.88Z" style="fill:#f9efe1"/><path d="M496.1,476.46c-3.13,0-3.13,4.94,0,4.94S499.23,476.46,496.1,476.46Z" style="fill:#f9efe1"/><path d="M475.34,469.1c-5.47,0-5.47,8.63,0,8.63S480.8,469.1,475.34,469.1Z" style="fill:#f9efe1"/><path d="M455.2,462.79l-.25-.39a3.61,3.61,0,0,0-4-1.67,3.65,3.65,0,0,0,0,7,3.6,3.6,0,0,0,4-1.67l.25-.39A2.86,2.86,0,0,0,455.2,462.79Z" style="fill:#f9efe1"/><path d="M434.72,448.26c-5.09,0-5.09,8,0,8S439.82,448.26,434.72,448.26Z" style="fill:#f9efe1"/><path d="M420.29,432.59c-4,0-4,6.3,0,6.3S424.28,432.59,420.29,432.59Z" style="fill:#f9efe1"/><path d="M411.26,412c-4.48,0-4.48,7.07,0,7.07S415.74,412,411.26,412Z" style="fill:#f9efe1"/><path d="M404,389.34c-5.22,0-5.22,8.24,0,8.24S409.26,389.34,404,389.34Z" style="fill:#f9efe1"/><path d="M403.14,366.56c-5,0-5,7.85,0,7.85S408.11,366.56,403.14,366.56Z" style="fill:#f9efe1"/><path d="M410.36,343.93c-3.38,0-3.38,5.33,0,5.33S413.73,343.93,410.36,343.93Z" style="fill:#f9efe1"/><path d="M241.39,670.52s-12.63-8-16.2-2.51-3.34,29.52,4.55,28.59S241.39,670.52,241.39,670.52Z" style="fill:#f9efe1"/><path d="M229.31,698.7h0c-1.63,0-3.94-.71-5.72-4.08-3.76-7.12-3.25-22.85-.09-27.74a6.5,6.5,0,0,1,5.85-2.87c5.57,0,12.81,4.56,13.12,4.76l1.13.72-.2,1.35c-.67,4.47-4.44,26.79-13.42,27.83A6.08,6.08,0,0,1,229.31,698.7Zm0-30.56c-1.62,0-2.18.57-2.46,1-2.21,3.41-2.86,17.58.27,23.51.67,1.27,1.39,1.91,2.15,1.91h.2c4.12-.48,8.05-13.5,9.65-23C236.76,670.24,232.41,668.15,229.35,668.15Z" style="fill:#3c3c3b"/><path d="M274.57,675.83s-4.21-3.91-12.33-2.87-8.12,10.23-8.12,10.23-4,28.95,4.08,31.25,10.22-11.53,10.22-11.53Z" style="fill:#f9efe1"/><path d="M260,716.75h0a8.41,8.41,0,0,1-2.3-.33c-9.27-2.63-6.31-28-5.56-33.39.05-3.85,2.17-11.14,9.9-12.12a22.44,22.44,0,0,1,2.94-.19c7.07,0,10.86,3.44,11,3.59l.88.81-6.42,28.18C270.2,704.53,268,716.75,260,716.75Zm5-41.9a20,20,0,0,0-2.44.16c-6.21.79-6.34,7.88-6.34,8.18l0,.28c-2.33,16.77-.46,28.09,2.61,29a4.54,4.54,0,0,0,1.22.18c4,0,6-7.44,6.45-10l0-.15,5.85-25.72A14.12,14.12,0,0,0,264.93,674.85Z" style="fill:#3c3c3b"/><path d="M351.14,725.46s-15.34-9.19-14.44-40c0,0-2.26-9.65,14.44-9.65S366,683.18,366,683.18,365.58,726.83,351.14,725.46Z" style="fill:#f9efe1"/><path d="M351.8,727.55a7.51,7.51,0,0,1-.85,0l-.45,0-.39-.23c-.66-.4-16.29-10.13-15.45-41.58a9.09,9.09,0,0,1,1.79-6.84c2.6-3.35,7.54-5.05,14.68-5.05,7.9,0,13.14,1.61,15.57,4.79a6.43,6.43,0,0,1,1.35,4.83C368,688.65,367,727.55,351.8,727.55Zm-.66-49.66c-7.2,0-10.2,1.87-11.45,3.42a4.77,4.77,0,0,0-1,3.71l0,.24v.27c-.45,15.21,3.25,24.78,6.43,30.13a26.24,26.24,0,0,0,6.65,7.75c4.46,0,8.11-6.91,10.28-19.45A149.49,149.49,0,0,0,364,683.16l.06-.48a2.36,2.36,0,0,0-.63-1.68C362.47,679.83,359.6,677.9,351.14,677.9Z" style="fill:#3c3c3b"/><path d="M336.94,682.19s2-5.91-11.31-6.36-16-1.06-17.36,6.36-4.06,41.42,8.57,47.4S337.63,696.37,336.94,682.19Z" style="fill:#f9efe1"/><path d="M319.43,732.27h0a8,8,0,0,1-3.44-.8c-14.27-6.75-11-42.83-9.71-49.65,1.3-7.1,4.47-8.29,11.1-8.29,1.68,0,3.66.07,6,.16l2.37.09c6.37.22,10.54,1.71,12.38,4.43a5.59,5.59,0,0,1,.9,4.19c.43,11-4.1,37.22-12.73,46.45C324.12,731.11,321.83,732.27,319.43,732.27Zm-2.06-54.62c-5.75,0-6.34.74-7.1,4.92-1.48,8.11-3.38,40,7.43,45.14a4,4,0,0,0,1.73.42h0c1.24,0,2.55-.72,3.89-2.15,7.54-8.07,12.09-33.51,11.6-43.69l0-.4.13-.37a1.51,1.51,0,0,0-.34-1.05c-.52-.69-2.44-2.34-9.12-2.57l-2.37-.09C320.92,677.72,319,677.65,317.37,677.65Z" style="fill:#3c3c3b"/><path d="M307.53,688.17s-2.88-10.07-6-12.58S289,668.48,288,684.1s1,45.34,8.16,46.11S308.6,712.91,307.53,688.17Z" style="fill:#f9efe1"/><path d="M296.62,732.3h0c-.21,0-.43,0-.65,0-4.32-.47-7.24-6.77-8.91-19.26A163.18,163.18,0,0,1,286,684c.7-11.38,5.91-13.08,8.95-13.08,3.67,0,6.9,2.35,7.8,3.06,3.5,2.79,6.22,11.85,6.73,13.64l.08.49c.84,19.44-2.2,35.8-7.74,41.69A7.09,7.09,0,0,1,296.62,732.3ZM294.94,675c-3.57,0-4.63,5-4.89,9.2-1.32,21.31,2.58,43.52,6.35,43.92h.22a3.27,3.27,0,0,0,2.27-1.25c3.8-4,7.48-17.77,6.62-38.4-1.15-3.92-3.48-9.88-5.26-11.29A9.59,9.59,0,0,0,294.94,675Z" style="fill:#3c3c3b"/><path d="M288,684.1s-2.48-12.79-11-10.07-12.11,36.72-4.44,43.61,16.12-6.51,15.8-11S288,684.1,288,684.1Z" style="fill:#f9efe1"/><path d="M277.19,721.64h0a8.72,8.72,0,0,1-5.91-2.45c-5.54-5-5.93-20.14-3.48-31.88,1-5,3.56-13.63,8.66-15.27a9.43,9.43,0,0,1,2.89-.47c8.24,0,10.58,11.63,10.68,12.12l0,.39c0,.18.07,18,.39,22.37.21,2.86-1.92,7.52-4.95,10.84C282.9,720.14,280,721.64,277.19,721.64Zm2.15-45.93a5.5,5.5,0,0,0-1.67.28c-1.66.53-4.2,4-5.9,12.18-2.43,11.64-1.4,24.68,2.2,27.91a4.78,4.78,0,0,0,3.23,1.42h0c1.65,0,3.55-1.08,5.32-3,2.54-2.79,4-6.37,3.87-7.72-.31-4.32-.38-20.25-.39-22.44C285.71,683.12,283.79,675.72,279.34,675.72Z" style="fill:#3c3c3b"/><path d="M256.72,675.83s-.8-5-9.83-6.58S237,680.88,237,680.88s-2.87,19.33,6.87,22S253,685,256.72,675.83Z" style="fill:#f9efe1"/><path d="M245.5,705.2h0a8.36,8.36,0,0,1-2.19-.31c-11.12-3.07-8.59-22.62-8.36-24.24.1-1.27,1.33-13.6,10.5-13.6a10.92,10.92,0,0,1,1.79.16c10.33,1.8,11.45,8,11.49,8.28l.09.58-.22.54a59.86,59.86,0,0,0-2.5,10.18C254.38,695.85,252.6,705.2,245.5,705.2Zm0-34c-5.72,0-6.45,9.74-6.46,9.84l0,.17c-.71,4.87-1.15,17.9,5.4,19.71a4.35,4.35,0,0,0,1.13.17c3.75,0,5.28-8,6.62-15.06a70.15,70.15,0,0,1,2.45-10.25c-.45-1-2.15-3.45-8-4.48A6.56,6.56,0,0,0,245.45,671.19Z" style="fill:#3c3c3b"/><path d="M490.73,670.52s12.63-8,16.2-2.51,3.33,29.52-4.56,28.59S490.73,670.52,490.73,670.52Z" style="fill:#f9efe1"/><path d="M502.81,698.7a6.07,6.07,0,0,1-.67,0c-9-1-12.75-23.37-13.42-27.83l-.2-1.35,1.13-.72c.31-.19,7.55-4.76,13.12-4.76a6.5,6.5,0,0,1,5.85,2.87c3.17,4.89,3.67,20.63-.09,27.74C506.75,698,504.44,698.7,502.81,698.7ZM493,671.6c1.6,9.46,5.53,22.48,9.65,23,.86.1,1.62-.52,2.35-1.89,3.14-5.93,2.48-20.09.27-23.51-.28-.43-.84-1-2.46-1C499.72,668.15,495.36,670.24,493,671.6Z" style="fill:#3c3c3b"/><path d="M457.55,675.83s4.21-3.91,12.33-2.87S478,683.18,478,683.18s4,28.95-4.08,31.25-10.21-11.53-10.21-11.53Z" style="fill:#f9efe1"/><path d="M472.17,716.75c-8.06,0-10.25-12.23-10.45-13.46l-6.41-28.18.88-.81c.16-.15,3.95-3.59,11-3.59a22.4,22.4,0,0,1,2.93.19c7.73,1,9.85,8.27,9.9,12.12.75,5.44,3.7,30.76-5.56,33.39A8.45,8.45,0,0,1,472.17,716.75Zm-12.33-40,5.88,25.86c.41,2.6,2.46,10,6.45,10a4.54,4.54,0,0,0,1.22-.18c3.07-.87,4.94-12.19,2.61-29l0-.29c0-.29-.13-7.38-6.34-8.17a20,20,0,0,0-2.43-.16A14.19,14.19,0,0,0,459.84,676.72Z" style="fill:#3c3c3b"/><path d="M381,725.46s15.34-9.19,14.44-40c0,0,2.26-9.65-14.44-9.65s-14.89,7.35-14.89,7.35S366.54,726.83,381,725.46Z" style="fill:#f9efe1"/><path d="M380.32,727.55h0c-15.18,0-16.19-38.9-16.26-44.18a6.41,6.41,0,0,1,1.35-4.83c2.44-3.18,7.68-4.79,15.57-4.79,7.14,0,12.08,1.7,14.68,5.05a9.09,9.09,0,0,1,1.79,6.84c.84,31.46-14.78,41.18-15.45,41.58l-.39.23-.45,0A7.51,7.51,0,0,1,380.32,727.55ZM381,677.9c-8.46,0-11.33,1.94-12.29,3.1a2.26,2.26,0,0,0-.62,1.75l.05.24v.18c.16,15.56,3.62,40.25,12.2,40.26,2.22-1.64,13.85-11.51,13.08-37.88v-.27l.06-.27a4.78,4.78,0,0,0-1-3.68C391.19,679.76,388.19,677.9,381,677.9Z" style="fill:#3c3c3b"/><path d="M395.18,682.19s-2-5.91,11.31-6.36,16-1.06,17.36,6.36,4.06,41.42-8.58,47.4S394.49,696.37,395.18,682.19Z" style="fill:#f9efe1"/><path d="M412.7,732.27c-2.4,0-4.7-1.16-6.83-3.44-8.62-9.23-13.15-35.45-12.72-46.45a5.6,5.6,0,0,1,.9-4.19c1.84-2.72,6-4.21,12.38-4.43l2.36-.09c2.3-.08,4.29-.16,6-.16,6.63,0,9.8,1.2,11.1,8.29,1.24,6.82,4.56,42.9-9.72,49.65A8,8,0,0,1,412.7,732.27Zm2.06-54.62c-1.6,0-3.55.07-5.82.16l-2.37.09c-6.68.23-8.61,1.87-9.12,2.57a1.39,1.39,0,0,0-.32,1.13l.12.38,0,.32c-.5,10.18,4.06,35.62,11.59,43.69,1.94,2.08,3.69,2.64,5.62,1.73,10.82-5.11,8.92-37,7.44-45.15C421.1,678.39,420.5,677.65,414.75,677.65Z" style="fill:#3c3c3b"/><path d="M424.59,688.17s2.87-10.07,6-12.58,12.51-7.11,13.48,8.51-1,45.34-8.16,46.11S423.52,712.91,424.59,688.17Z" style="fill:#f9efe1"/><path d="M435.5,732.3a7.09,7.09,0,0,1-5.2-2.53c-5.54-5.89-8.57-22.25-7.73-41.69l.07-.49c.51-1.79,3.23-10.85,6.73-13.64.91-.72,4.14-3.07,7.81-3.07,3,0,8.24,1.7,8.95,13.08.57,9.31.61,47.16-10,48.29C435.93,732.28,435.72,732.3,435.5,732.3Zm-8.89-43.79c-.86,20.63,2.82,34.36,6.62,38.4a3.09,3.09,0,0,0,2.49,1.24c3.77-.4,7.66-22.61,6.35-43.92-.26-4.2-1.32-9.2-4.89-9.2a9.57,9.57,0,0,0-5.3,2.19C430.09,678.63,427.75,684.58,426.61,688.51Z" style="fill:#3c3c3b"/><path d="M444.1,684.1s2.47-12.79,11-10.07,12.11,36.72,4.44,43.61-16.12-6.51-15.8-11S444.1,684.1,444.1,684.1Z" style="fill:#f9efe1"/><path d="M454.93,721.64c-2.84,0-5.71-1.5-8.3-4.34-3-3.32-5.15-8-4.95-10.84.32-4.39.39-22.19.39-22.37l0-.39c.1-.49,2.44-12.12,10.68-12.12a9.46,9.46,0,0,1,2.89.47c5.1,1.63,7.61,10.27,8.65,15.27,2.45,11.73,2.06,26.9-3.48,31.88A8.73,8.73,0,0,1,454.93,721.64Zm-8.8-37.31c0,2.18-.09,18.12-.4,22.44-.1,1.34,1.33,4.93,3.87,7.72,1.78,1.95,3.67,3,5.33,3a4.78,4.78,0,0,0,3.23-1.42c3.59-3.23,4.62-16.27,2.2-27.91-1.7-8.14-4.24-11.64-5.9-12.18a5.5,5.5,0,0,0-1.67-.28C448.3,675.72,446.41,683.11,446.13,684.33Z" style="fill:#3c3c3b"/><path d="M475.4,675.83s.8-5,9.83-6.58,9.93,11.63,9.93,11.63,2.87,19.33-6.87,22S479.11,685,475.4,675.83Z" style="fill:#f9efe1"/><path d="M486.63,705.2c-7.1,0-9-9.78-10.61-18.41a59.83,59.83,0,0,0-2.5-10.18l-.22-.54.1-.58c0-.26,1.15-6.48,11.48-8.28a10.93,10.93,0,0,1,1.79-.16c9.18,0,10.4,12.33,10.5,13.6.23,1.62,2.76,21.17-8.36,24.24A8.35,8.35,0,0,1,486.63,705.2Zm-9.07-29.43A69.64,69.64,0,0,1,480,686c1.34,7.06,2.87,15.07,6.63,15.07a4.37,4.37,0,0,0,1.13-.17c7.77-2.15,5.42-19.53,5.39-19.71l0-.17c0-.09-.77-9.84-6.46-9.84a6.55,6.55,0,0,0-1.1.1C479.74,672.3,478,674.76,477.56,675.77Z" style="fill:#3c3c3b"/><path d="M558,557.49c-4.57,14.29-8,29-12.3,43.36-5,16.93-11.9,32.85-19.27,48.84-.06.13.1.27.2.16,22.1-23.46,31.3-59.52,39.19-90.15C567.19,554.51,559.64,552.46,558,557.49Z" style="fill:#3c3c3b"/><path d="M591.89,548.69c-1.81,6.48-2.93,14.43-6.82,20-.06.09.06.16.14.11a42.1,42.1,0,0,0,13.09-18.29C599.86,546.5,593.08,544.42,591.89,548.69Z" style="fill:#3c3c3b"/><path d="M518.43,366.29c0,18-10.67,32.58-23.83,32.58s-23.83-14.59-23.83-32.58c0-9.92,3.24-18.81,8.36-24.79,4.16-4.86,9.56,5.17,15.46,5.17s11.54-9.9,15.74-4.84C515.3,347.81,518.43,356.55,518.43,366.29Z" style="fill:#e6334b"/><path d="M478.81,361.57c15.3,9,22.37,25.7,15.79,37.3s-24.32,13.72-39.62,4.72c-8.44-5-14.37-12.27-16.9-19.77-2.05-6.1,9.18-5.85,12.13-11.05s-2.65-15.13,3.75-16.31C461.53,355.08,470.52,356.7,478.81,361.57Z" style="fill:#e6334b"/><path d="M455,394.14c15.3-9,33-6.88,39.62,4.72s-.5,28.31-15.8,37.3c-8.44,5-17.62,6.54-25.26,5-6.21-1.24-.38-11-3.33-16.23s-14.19-5.23-12-11.46C440.82,406.14,446.7,399,455,394.14Z" style="fill:#e6334b"/><path d="M470.78,431.45c0-18,10.67-32.58,23.83-32.58s23.82,14.59,23.82,32.58c0,9.92-3.24,18.81-8.36,24.79-4.16,4.87-9.56-5.17-15.46-5.17s-11.55,9.9-15.74,4.84C473.9,449.93,470.78,441.19,470.78,431.45Z" style="fill:#e6334b"/><path d="M510.39,436.17c-15.3-9-22.37-25.69-15.79-37.3s24.32-13.72,39.62-4.72c8.44,5,14.37,12.26,16.9,19.76,2.06,6.11-9.18,5.85-12.13,11.05s2.65,15.13-3.75,16.31C527.68,442.65,518.68,441,510.39,436.17Z" style="fill:#e6334b"/><path d="M534.23,403.59c-15.3,9-33,6.88-39.62-4.72s.49-28.31,15.8-37.3c8.44-5,17.61-6.55,25.25-5,6.22,1.24.39,11,3.34,16.23s14.19,5.23,12,11.46C548.38,391.59,542.51,398.72,534.23,403.59Z" style="fill:#e6334b"/><path d="M494.61,421.17a22.3,22.3,0,1,1,21.89-22.29A22.12,22.12,0,0,1,494.61,421.17Z" style="fill:#e6334b"/><path d="M494.61,378.86a20,20,0,1,1-19.65,20,19.83,19.83,0,0,1,19.65-20m0-4.56a24.58,24.58,0,1,0,24.13,24.57,24.38,24.38,0,0,0-24.13-24.57Z" style="fill:#3c3c3b"/><ellipse cx="494.61" cy="398.87" rx="9.17" ry="9.34" style="fill:#3c3c3b"/><path d="M487.82,365.78c-.74-3.59-1.06-7.25-1.66-10.86a.16.16,0,0,0-.31,0c-1,6.24-1.81,17.3,3.58,21.84a1,1,0,0,0,1.68-1C490.47,372.34,488.54,369.27,487.82,365.78Z" style="fill:#3c3c3b"/><path d="M501.15,353a.2.2,0,0,0-.38,0c-.72,3.23-.62,6.59-.81,9.89a34.09,34.09,0,0,1-3.21,12.38c-.83,1.83,1.65,3.4,2.7,1.6C503.13,370.49,502.77,359.9,501.15,353Z" style="fill:#3c3c3b"/><path d="M463.07,388.31c-3.42-1.14-6.69-2.7-10.06-4a.17.17,0,0,0-.16.28c4.79,4,13.81,10.24,20.37,7.76a1,1,0,0,0,0-2C470,389.25,466.4,389.42,463.07,388.31Z" style="fill:#3c3c3b"/><path d="M458.84,370.14a.2.2,0,0,0-.19.33c2.39,2.25,5.3,3.84,8,5.66a33.34,33.34,0,0,1,8.92,9,1.57,1.57,0,0,0,2.71-1.57C474.73,377.16,465.54,372.19,458.84,370.14Z" style="fill:#3c3c3b"/><path d="M469.85,421.4c-2.68,2.45-5.64,4.55-8.4,6.89-.12.1,0,.33.16.27,5.81-2.23,15.61-7.05,16.78-14.08a1,1,0,0,0-1.69-1C474.11,415.77,472.46,419,469.85,421.4Z" style="fill:#3c3c3b"/><path d="M452.29,416a.2.2,0,0,0,.19.33c3.11-1,5.92-2.75,8.82-4.23a32.59,32.59,0,0,1,12.13-3.35c2-.18,2.07-3.16,0-3.18C466.21,405.54,457.38,411.15,452.29,416Z" style="fill:#3c3c3b"/><path d="M501.39,432c.74,3.59,1.06,7.25,1.66,10.86a.16.16,0,0,0,.31,0c1-6.24,1.81-17.3-3.59-21.84a1,1,0,0,0-1.68,1C498.73,425.4,500.67,428.46,501.39,432Z" style="fill:#3c3c3b"/><path d="M488.05,444.77a.2.2,0,0,0,.38,0c.73-3.23.62-6.59.81-9.89a34.09,34.09,0,0,1,3.21-12.38c.83-1.83-1.65-3.4-2.69-1.61C486.08,427.24,486.43,437.84,488.05,444.77Z" style="fill:#3c3c3b"/><path d="M526.14,409.43c3.42,1.14,6.69,2.69,10.06,4a.17.17,0,0,0,.16-.27c-4.8-4-13.81-10.24-20.37-7.76a1,1,0,0,0,0,2C519.23,408.49,522.81,408.32,526.14,409.43Z" style="fill:#3c3c3b"/><path d="M530.37,427.6a.2.2,0,0,0,.19-.33c-2.38-2.26-5.29-3.84-8-5.67a33.34,33.34,0,0,1-8.92-9,1.57,1.57,0,0,0-2.71,1.57C514.47,420.57,523.66,425.56,530.37,427.6Z" style="fill:#3c3c3b"/><path d="M519.36,376.34c2.68-2.45,5.63-4.55,8.4-6.89a.16.16,0,0,0-.16-.27c-5.81,2.23-15.61,7.05-16.79,14.08a1,1,0,0,0,1.69,1C515.1,382,516.74,378.72,519.36,376.34Z" style="fill:#3c3c3b"/><path d="M536.92,381.69a.2.2,0,0,0-.19-.33c-3.12,1-5.92,2.75-8.82,4.23a32.41,32.41,0,0,1-12.14,3.36c-2,.19-2.07,3.16,0,3.18C523,392.2,531.83,386.58,536.92,381.69Z" style="fill:#3c3c3b"/><path d="M259.12,366.29c0,18-10.67,32.58-23.83,32.58s-23.83-14.59-23.83-32.58c0-9.92,3.25-18.81,8.36-24.79,4.16-4.86,9.56,5.17,15.46,5.17s11.54-9.9,15.74-4.84C256,347.81,259.12,356.55,259.12,366.29Z" style="fill:#e6334b"/><path d="M219.5,361.57c15.3,9,22.37,25.7,15.79,37.3s-24.32,13.72-39.62,4.72c-8.44-5-14.37-12.27-16.9-19.77-2.05-6.1,9.18-5.85,12.13-11.05s-2.65-15.13,3.75-16.31C202.22,355.08,211.22,356.7,219.5,361.57Z" style="fill:#e6334b"/><path d="M195.67,394.14c15.3-9,33-6.88,39.62,4.72s-.49,28.31-15.8,37.3c-8.44,5-17.62,6.54-25.26,5-6.21-1.24-.38-11-3.33-16.23s-14.19-5.23-12-11.46C181.51,406.14,187.39,399,195.67,394.14Z" style="fill:#e6334b"/><path d="M211.47,431.45c0-18,10.67-32.58,23.83-32.58s23.82,14.59,23.82,32.58c0,9.92-3.24,18.81-8.36,24.79-4.16,4.87-9.56-5.17-15.47-5.17s-11.55,9.9-15.74,4.84C214.59,449.93,211.47,441.19,211.47,431.45Z" style="fill:#e6334b"/><path d="M251.09,436.17c-15.3-9-22.37-25.69-15.79-37.3s24.32-13.72,39.62-4.72c8.44,5,14.37,12.26,16.9,19.76,2.06,6.11-9.18,5.85-12.13,11.05s2.64,15.13-3.75,16.31C268.37,442.65,259.37,441,251.09,436.17Z" style="fill:#e6334b"/><path d="M274.91,403.59c-15.3,9-33,6.88-39.62-4.72s.49-28.31,15.8-37.3c8.44-5,17.62-6.55,25.26-5,6.22,1.24.38,11,3.34,16.23s14.19,5.23,12,11.46C289.07,391.59,283.2,398.72,274.91,403.59Z" style="fill:#e6334b"/><path d="M235.3,421.17a22.3,22.3,0,1,1,21.89-22.29A22.12,22.12,0,0,1,235.3,421.17Z" style="fill:#e6334b"/><path d="M235.3,378.86a20,20,0,1,1-19.65,20,19.83,19.83,0,0,1,19.65-20m0-4.56a24.58,24.58,0,1,0,24.13,24.57A24.38,24.38,0,0,0,235.3,374.3Z" style="fill:#3c3c3b"/><ellipse cx="235.3" cy="398.87" rx="9.17" ry="9.34" style="fill:#3c3c3b"/><path d="M228.51,365.78c-.74-3.59-1.06-7.25-1.66-10.86a.16.16,0,0,0-.31,0c-1,6.24-1.81,17.3,3.58,21.84a1,1,0,0,0,1.68-1C231.16,372.34,229.23,369.27,228.51,365.78Z" style="fill:#3c3c3b"/><path d="M241.85,353a.2.2,0,0,0-.38,0c-.72,3.23-.62,6.59-.81,9.89a34.06,34.06,0,0,1-3.21,12.38c-.83,1.83,1.65,3.4,2.7,1.6C243.82,370.49,243.46,359.9,241.85,353Z" style="fill:#3c3c3b"/><path d="M203.76,388.31c-3.42-1.14-6.69-2.7-10.06-4a.17.17,0,0,0-.16.28c4.8,4,13.81,10.24,20.37,7.76a1,1,0,0,0,0-2C210.66,389.25,207.09,389.42,203.76,388.31Z" style="fill:#3c3c3b"/><path d="M199.53,370.14a.2.2,0,0,0-.19.33c2.39,2.25,5.3,3.84,8,5.66a33.34,33.34,0,0,1,8.92,9,1.57,1.57,0,0,0,2.71-1.57C215.43,377.16,206.23,372.19,199.53,370.14Z" style="fill:#3c3c3b"/><path d="M210.54,421.4c-2.68,2.45-5.64,4.55-8.4,6.89-.12.1,0,.33.16.27,5.81-2.23,15.61-7.05,16.78-14.08a1,1,0,0,0-1.69-1C214.8,415.77,213.15,419,210.54,421.4Z" style="fill:#3c3c3b"/><path d="M193,416a.2.2,0,0,0,.19.33c3.11-1,5.92-2.75,8.82-4.23a32.59,32.59,0,0,1,12.13-3.35c2-.18,2.07-3.16,0-3.18C206.9,405.54,198.07,411.15,193,416Z" style="fill:#3c3c3b"/><path d="M242.08,432c.74,3.59,1.06,7.25,1.66,10.86a.16.16,0,0,0,.31,0c1-6.24,1.81-17.3-3.58-21.84a1,1,0,0,0-1.68,1C239.42,425.4,241.36,428.46,242.08,432Z" style="fill:#3c3c3b"/><path d="M228.74,444.77a.19.19,0,0,0,.38,0c.73-3.23.62-6.59.81-9.89a34.06,34.06,0,0,1,3.21-12.38c.83-1.83-1.65-3.4-2.69-1.61C226.77,427.24,227.12,437.84,228.74,444.77Z" style="fill:#3c3c3b"/><path d="M266.83,409.43c3.42,1.14,6.69,2.69,10.06,4a.17.17,0,0,0,.16-.27c-4.8-4-13.81-10.24-20.37-7.76a1,1,0,0,0,0,2C259.92,408.49,263.5,408.32,266.83,409.43Z" style="fill:#3c3c3b"/><path d="M271.06,427.6a.2.2,0,0,0,.19-.33c-2.39-2.26-5.29-3.84-8-5.67a33.28,33.28,0,0,1-8.92-9,1.57,1.57,0,0,0-2.71,1.57C255.16,420.57,264.35,425.56,271.06,427.6Z" style="fill:#3c3c3b"/><path d="M260,376.34c2.68-2.45,5.64-4.55,8.4-6.89a.16.16,0,0,0-.16-.27c-5.81,2.23-15.61,7.05-16.78,14.08a1,1,0,0,0,1.69,1C255.79,382,257.43,378.72,260,376.34Z" style="fill:#3c3c3b"/><path d="M277.61,381.69a.2.2,0,0,0-.19-.33c-3.11,1-5.92,2.75-8.82,4.23a32.41,32.41,0,0,1-12.14,3.36c-2,.19-2.07,3.16,0,3.18C263.69,392.2,272.52,386.58,277.61,381.69Z" style="fill:#3c3c3b"/><path d="M359.63,560.5c-13.95,13.41-29.38,21.57-48.82,22.49a49.86,49.86,0,0,1-28.69-7.7c-13.65-8.61-10.85-27.28.3-36.58.81-.68-.23-1.95-1.09-1.44a20.82,20.82,0,0,0-2.47,1.73c-23.61,11.08-41.41,50.93-12.25,65.69,14.06,7.12,32.67,1.94,46.43-3.24,16.7-6.28,28.25-16.8,39.69-29.42a47.5,47.5,0,0,0,6-6.8l1-1.11a.82.82,0,0,0,.21-.67c.39-.6.82-1.16,1.19-1.79A1,1,0,0,0,359.63,560.5Z" style="fill:#333"/><path d="M369.69,561.67c.37.62.79,1.19,1.19,1.79a.82.82,0,0,0,.21.67l1,1.11a47.5,47.5,0,0,0,6,6.8c11.43,12.61,23,23.14,39.69,29.42,13.77,5.17,32.37,10.35,46.43,3.24,29.17-14.75,11.37-54.61-12.25-65.69a20.85,20.85,0,0,0-2.47-1.73c-.87-.51-1.91.77-1.09,1.44,11.15,9.29,14,28,.3,36.58A49.87,49.87,0,0,1,420,583c-19.44-.92-34.87-9.08-48.82-22.49A1,1,0,0,0,369.69,561.67Z" style="fill:#333"/><path d="M395.57,263c-5.73-7.31-15.12-6.42-22.3-1.76a16.74,16.74,0,0,0-3,1.45,19.26,19.26,0,0,0-7,8c-6.17-10.9-17.48-17.18-30.18-7.8-9.13,6.75-6.58,18.27-1.49,26.63,6.79,11.12,21.53,15.91,29.13,25.74A2.77,2.77,0,0,0,362,317a22,22,0,0,1,2.33,4.72,21.45,21.45,0,0,0-.45,4,.24.24,0,0,0,.48.07c.17-.65.41-1.25.63-1.86a23.35,23.35,0,0,1,.51,3.36c0,.21.33.21.32,0-.07-1.6-.21-3.11-.4-4.57,3.24-7.54,10.16-12.23,16.69-17.33C398,297.85,407.93,278.73,395.57,263Z" style="fill:#e6334b"/><path d="M184.42,642.22c-4.07,0-4.07,6.43,0,6.43S188.49,642.22,184.42,642.22Z" style="fill:#f39200"/><path d="M189.62,658.37c-5.21,0-5.21,8.23,0,8.23S194.83,658.37,189.62,658.37Z" style="fill:#f39200"/><path d="M196.54,681.18c-6.84,0-6.84,10.8,0,10.8S203.39,681.18,196.54,681.18Z" style="fill:#f39200"/><path d="M209.82,699.37c-9.12,0-9.12,14.4,0,14.4S218.94,699.37,209.82,699.37Z" style="fill:#f39200"/><path d="M234.75,711.46l-.47-.4c-2.15-1.83-4.62-2.79-7.43-2A7.83,7.83,0,0,0,225,723.28c3.17,1.89,6.59,1,9.26-1.22l.47-.4C237.53,719.3,237.53,713.83,234.75,711.46Z" style="fill:#f39200"/><path d="M250.81,722.06c-6.43,0-6.43,10.16,0,10.16S257.24,722.06,250.81,722.06Z" style="fill:#f39200"/><path d="M278.14,732.69a7.41,7.41,0,0,0-1.64-2.89,6.09,6.09,0,0,0-6-1.61,6.34,6.34,0,0,0-2.7,10.42,6.1,6.1,0,0,0,6,1.61c2.26-.63,3.42-2.28,4.28-4.36A4.47,4.47,0,0,0,278.14,732.69Z" style="fill:#f39200"/><path d="M294,740.13a5.53,5.53,0,0,0-4.38-.77c-3.57.88-3.57,6.44,0,7.32a5.53,5.53,0,0,0,4.38-.77A3.4,3.4,0,0,0,294,740.13Z" style="fill:#f39200"/><path d="M317.77,737.71c-9,0-9,14.15,0,14.15S326.73,737.71,317.77,737.71Z" style="fill:#f39200"/><path d="M344.91,734.67a8.94,8.94,0,1,0,8.78,8.94A8.94,8.94,0,0,0,344.91,734.67Z" style="fill:#f39200"/><path d="M546.82,642.22c4.07,0,4.07,6.43,0,6.43S542.74,642.22,546.82,642.22Z" style="fill:#f39200"/><path d="M541.62,658.37c5.21,0,5.21,8.23,0,8.23S536.41,658.37,541.62,658.37Z" style="fill:#f39200"/><path d="M534.69,681.18c6.84,0,6.84,10.8,0,10.8S527.85,681.18,534.69,681.18Z" style="fill:#f39200"/><path d="M521.42,699.37c9.12,0,9.12,14.4,0,14.4S512.29,699.37,521.42,699.37Z" style="fill:#f39200"/><path d="M496.49,711.46l.47-.4c2.15-1.83,4.62-2.79,7.44-2a7.84,7.84,0,0,1,1.83,14.22c-3.17,1.89-6.59,1-9.26-1.22l-.47-.4C493.71,719.3,493.71,713.83,496.49,711.46Z" style="fill:#f39200"/><path d="M480.43,722.06c6.43,0,6.43,10.16,0,10.16S474,722.06,480.43,722.06Z" style="fill:#f39200"/><path d="M453.1,732.69a7.41,7.41,0,0,1,1.64-2.89,6.09,6.09,0,0,1,6-1.61,6.34,6.34,0,0,1,2.7,10.42,6.1,6.1,0,0,1-6,1.61c-2.26-.63-3.42-2.28-4.28-4.36A4.5,4.5,0,0,1,453.1,732.69Z" style="fill:#f39200"/><path d="M437.21,740.13a5.54,5.54,0,0,1,4.38-.77c3.56.88,3.56,6.44,0,7.32a5.54,5.54,0,0,1-4.38-.77A3.4,3.4,0,0,1,437.21,740.13Z" style="fill:#f39200"/><path d="M413.46,737.71c9,0,9,14.15,0,14.15S404.51,737.71,413.46,737.71Z" style="fill:#f39200"/><path d="M386.33,734.67a8.94,8.94,0,1,1-8.78,8.94A8.94,8.94,0,0,1,386.33,734.67Z" style="fill:#f39200"/><path d="M166.37,148.18a31,31,0,0,1,3.51-6.39,36.93,36.93,0,0,1,10.48-9.13,1.48,1.48,0,0,1,.37-.86,52.76,52.76,0,0,1,10.88-9.06c-3.13.1-6.16.52-9.53.83a16.9,16.9,0,0,1-7.5-.55c.18,2.71-.84,5.57-1.92,8-1.21,2.73-2.6,5.38-3.81,8.11-1.31,2.94-1.73,6-2.89,9l0,.06Z" style="fill:#e6334b"/><path d="M177.16,173.6c-.8,0-1.6-.08-2.41-.18-11.82-1.38-12.48-12.83-9.41-22.41-4.89-.29-9.57,3.14-13.49,6.63a28.06,28.06,0,0,0-2,2.9c3.33,1.19,5.52,4.38,7,7.92,1,2.45,1.85,5.42,3.67,7.42,2.14,2.34,4.92,1.89,7.23,3.21A37.91,37.91,0,0,1,177.16,173.6Z" style="fill:#e6334b"/><path d="M196.95,110.53c.56-2.49-1-4.57-2.61-6.26-1.29-1.32-2.67-2.54-4-3.76.13,2.56-.54,5-2.36,6.46,2.14,2.49,4.17,5,6.12,7.62C195.35,113.36,196.6,112.07,196.95,110.53Z" style="fill:#3aaa61"/><path d="M163.53,109.64A11.56,11.56,0,0,1,155,117c5.36,1.43,10.92,1.17,11.83-4.52q-1.66-1.72-3.27-3.51A.9.9,0,0,1,163.53,109.64Z" style="fill:#3aaa61"/><path d="M179.49,118.37c.54.38,1,.8,1.55,1.23,2.06-.31,4.13-.68,6.33-1a39.23,39.23,0,0,1,4.39-1.78c-10.33-10.43-21-21.1-30-32.7a27.33,27.33,0,0,1-2.57,2.55c-.28.27-.57.53-.86.81-.48.51-1,1-1.52,1.44-1.06,1-2.16,1.92-3.28,2.83,4,3.36,7.39,7.64,10.86,11.56A115.34,115.34,0,0,0,179,117.78,1.72,1.72,0,0,1,179.49,118.37Z" style="fill:#3aaa61"/><path d="M251.62,235.47c-3.87-7.63-.7-14.24,4.77-19.3a130.86,130.86,0,0,1-14.64,5.31c-1.68,1.57-3.55,3.19-3.52,5.61,0,2.71,1,5,1.82,7.56a49.82,49.82,0,0,1,2.16,8.79c3.73-1.93,8.08-.93,11.91.44,5.88,2.09,11.72,4.71,18,4a10.64,10.64,0,0,1-1-1.29C262.92,245.85,255.27,242.68,251.62,235.47Z" style="fill:#e6334b"/><path d="M217.05,180.29a2.34,2.34,0,0,0,.06-.42l0-.11,0,0a5.45,5.45,0,0,0,0-1.21,1.8,1.8,0,0,0-.83-1.87c0-.05,0-.11,0-.16-16.85-4.17-38.23-3.85-49.77,10.66,14.83,6.63,45,11.83,50.38-6.69C217,180.41,217,180.37,217.05,180.29Z" style="fill:#e6334b"/><path d="M306.34,240.41a36.14,36.14,0,0,1-13.47,3,1.45,1.45,0,0,1-.73.58,51.68,51.68,0,0,1-13.8,2.73c2.8,1.42,5.66,2.51,8.78,3.86a17.17,17.17,0,0,1,6.35,4.1c1.1-2.48,3.33-4.5,5.41-6.12,2.34-1.83,4.79-3.49,7.13-5.31,2.52-2,4.33-4.49,6.72-6.52a.56.56,0,0,0,0-.07l-.33-.19A30.08,30.08,0,0,1,306.34,240.41Z" style="fill:#e6334b"/><path d="M197.42,119.1c.2.09.4.15.59.25,7.59-3.29,15.8-4.18,22.37.41,7,4.86,7.24,12.21,4.77,19.3a134.07,134.07,0,0,1,10.43-11.73c.75-2.2,1.65-4.52.49-6.65-1.29-2.37-3.24-3.92-5.11-5.79a48.65,48.65,0,0,1-6-6.7c-2.38,3.5-6.69,4.71-10.7,5.35-6,1-12.16,1.49-17.32,4.9Z" style="fill:#e6334b"/><path d="M216.63,209.38a14.92,14.92,0,0,1-1.23-1.64c-2,2.2-3.95,4.37-4.15,7.62a17.16,17.16,0,0,0,0,2.46,9.44,9.44,0,0,1,3.31-2.89,24.91,24.91,0,0,1,5.55-2.06A39.57,39.57,0,0,1,216.63,209.38Z" style="fill:#3aaa61"/><path d="M226,193.07c-3.48-4.56-2.8-8.92-2.65-14.11-.91.32-1.8.65-2.78.91A18.57,18.57,0,0,1,215,191.12c2.07,6.06,2.21,12.72,7.35,17.22,4.19,3.67,9.26,6.12,13.33,9.92a2.07,2.07,0,0,1,.41.57,66.36,66.36,0,0,1,4.39-14.46C236.44,199.58,229.81,198,226,193.07Z" style="fill:#3aaa61"/><path d="M214.36,155.77c-5.84,5.86-12.91,11.3-20.69,14.6A53.24,53.24,0,0,1,217,175.5a2.49,2.49,0,0,1,.57-.39c-5.83-5.28-5.33-12.82-2-20.56C215.14,155,214.75,155.39,214.36,155.77Z" style="fill:#e6334b"/><path d="M379.91,200.53c-.54,2.6-1.52,5.53-1.14,8.22.45,3.17,3,4.41,4.15,6.83a37.35,37.35,0,0,1,10.78.94c-.64-.49-1.27-1-1.88-1.54-8.94-8-3.08-17.79,4.81-23.87-3.86-3.08-9.63-3-14.8-2.38a27.3,27.3,0,0,0-3.22,1.25C380.68,192.88,380.69,196.77,379.91,200.53Z" style="fill:#e6334b"/><path d="M355.56,189.56c-1.23-3-3.9-6.69-6.79-6.67C350.31,185.55,352.48,189,355.56,189.56Z" style="fill:#3aaa61"/><path d="M281.58,187.44c12.91,11.8,31.89,21.82,48.79,14.59-10.11-13.15-34.8-32.64-48-17.86h0a4,4,0,0,0-1.12,1.75,1.51,1.51,0,0,0,.39,1.43Z" style="fill:#e6334b"/><path d="M401.08,216.12c13.58,5.66,31.23,6.22,44.53-.88,6-3.19,13.85-10.34,9-18.27-3.19-5.23-9.16-7.59-14.87-8.49a81.41,81.41,0,0,0-8.55-.81c4.75,2.25,8.45,5.84,9.59,11,2.21,10.17-16.17,12-21.95,11.05-6.71-1.1-15.42-10.12-6.37-14.54,3.5-1.7,20.68-2.24,17.84,5.31a.38.38,0,0,1-.73-.06c-1-3.31-7.2-3.85-9.94-3.83a18.93,18.93,0,0,0-3.89.27,3.89,3.89,0,0,0-4.29,3.67,6.61,6.61,0,0,0,3.28,6,1.09,1.09,0,0,0,.53.15,7.68,7.68,0,0,0,2.07.84c5.58,1.59,19.5,1.62,21.39-6.28,3.68-15.38-27.32-14.34-34.46-10.82C392.53,196.3,386.36,210,401.08,216.12Z" style="fill:#e6334b"/><path d="M405.53,186.15a36.08,36.08,0,0,1,13.72-1.42,1.46,1.46,0,0,1,.78-.49,51.74,51.74,0,0,1,14-1.13c-2.62-1.73-5.35-3.15-8.29-4.84a17.25,17.25,0,0,1-5.85-4.8c-1.37,2.33-3.81,4.09-6.05,5.46-2.52,1.54-5.15,2.92-7.68,4.45-2.72,1.66-4.81,4-7.4,5.7a.26.26,0,0,0,0,0,3.06,3.06,0,0,0,.3.25A30.12,30.12,0,0,1,405.53,186.15Z" style="fill:#e6334b"/><path d="M307.43,210.12c-14.12-4.06-31.72-2.59-44.15,6C257.7,220,250.66,228,256.36,235.3c3.75,4.83,9.94,6.49,15.72,6.73a81,81,0,0,0,8.58-.18c-5-1.69-9-4.83-10.75-9.88-3.33-9.85,14.73-13.79,20.58-13.51,6.79.33,16.44,8.29,7.94,13.71-3.29,2.1-20.3,4.61-18.32-3.22a.38.38,0,0,1,.73,0c1.33,3.18,7.58,3,10.31,2.66a18.74,18.74,0,0,0,3.48-.62,1.2,1.2,0,0,0,.5,0,5.16,5.16,0,0,0,3.55-2.66,1.2,1.2,0,0,0,.27-.73,3.58,3.58,0,0,0-.18-2.5,4,4,0,0,0-1-1.31,5.47,5.47,0,0,0-3-2.57,1.14,1.14,0,0,0-.15,0,7.17,7.17,0,0,0-2.49-.75c-5.72-.94-19.56.63-20.56,8.7-1.95,15.7,28.74,11.1,35.44,6.79C318.13,228.83,322.74,214.53,307.43,210.12Z" style="fill:#e6334b"/><path d="M221.38,174.45c20.37-3.4,22-26.65,17.19-44a9.89,9.89,0,0,1-1.08,1,1.25,1.25,0,0,1-.17.08c-5.11,5.18-10.12,10.65-13.8,16.9C217.79,158.14,217.31,164.82,221.38,174.45Z" style="fill:#e6334b"/><path d="M216.28,122.19c-5.55-2.45-11.78-.93-17,1.65a82.34,82.34,0,0,0-7.48,4.29c5.17-.9,10.21-.11,14.06,3.52,7.51,7.08-6.57,19.25-11.85,21.82-6.13,3-18.34.63-13.37-8.25,1.92-3.43,15.74-13.84,17.63-6a.38.38,0,0,1-.63.38c-2.65-2.16-8.07,1-10.32,2.62a19.16,19.16,0,0,0-3.81,3.23v0c-2.6,1.69-1.73,5.3.62,6.92,2.16,1.48,5.58,1.27,7.82,0,5.6-2.14,16.5-10,13.69-17.43-5.59-14.77-30.48,4.07-34.37,11.1-6.42,11.58-3.83,26.41,11.7,22.91,14.32-3.23,29.15-13,36.1-26.56C222.22,136.33,224.7,125.9,216.28,122.19Z" style="fill:#e6334b"/><path d="M272.06,207.16c.54-.18,1.08-.36,1.59-.51,7.87-2.34,16.62-3.73,25-2.9A54.31,54.31,0,0,1,280.53,188a2.36,2.36,0,0,1-.68.07C282.53,195.54,278.58,201.94,272.06,207.16Z" style="fill:#e6334b"/><path d="M234.35,194.09c-.48-4.52,2.07-8.59,5.8-11.57a16.3,16.3,0,0,0-4.28.68c-1.91.61-4,1.69-4.65,3.83a31.75,31.75,0,0,1-1.16,3.8,27,27,0,0,0,4,3.07Z" style="fill:#3aaa61"/><path d="M242.16,216.93c6.91-2.1,13.86-4.51,20-8.23,9.56-5.79,13.09-11.44,14-21.89-19.53-6.82-31.74,12.89-35.6,30.47a9.77,9.77,0,0,1,1.42-.35A1,1,0,0,1,242.16,216.93Z" style="fill:#e6334b"/><path d="M466.69,216.87c-7.09,1.29-14.27,2.88-20.8,5.88-10.14,4.65-14.27,9.86-16.32,20.14,18.64,9,33-9.15,38.75-26.17a10,10,0,0,1-1.45.18A1.21,1.21,0,0,1,466.69,216.87Z" style="fill:#e6334b"/><path d="M560,183.38a21.05,21.05,0,0,1-6.68,3.66,12.53,12.53,0,0,1-1,4.31c1.35.75,2.63,1.79,4,2.45,2.14,1,4.35,1.94,6.58,2.77.74-3.7,3.58-7.86,6.21-10.64-2.87-1-5.75-1.9-8.61-2.92Z" style="fill:#3aaa61"/><path d="M569.48,199.25c2.82-1.7,4-8.14,4.47-12.36l0,0c-1.29.87-6.61,7.76-7.23,11A21.07,21.07,0,0,1,569.48,199.25Z" style="fill:#3aaa61"/><path d="M530.34,197.42c-8.36-1.11-11.9-7.52-12.86-15a136.75,136.75,0,0,1-4,15.28c.31,2.31.55,4.79,2.52,6.15,2.21,1.51,4.64,2,7.14,2.79l.7.22.3-.18c.76.36,1.57.57,2.32,1,0,0,.08,0,.12,0a.44.44,0,0,1,0,.09,32.14,32.14,0,0,1,4.84,2c.56-4.22,3.85-7.29,7.14-9.72,5-3.73,10.47-7.13,13.51-12.82a10.27,10.27,0,0,1-1.63.12C545.16,193.87,538.24,198.47,530.34,197.42Z" style="fill:#e6334b"/><path d="M510.93,205.61c-4,4-8.79,8.69-14.2,9.93-5.16,1.19-10.93-3.35-14.93-6.53-.6.14-1.2.26-1.82.34a.67.67,0,0,1-.46-1.13l.08-.06h0l.16-.11.82-.59h0a15,15,0,0,0,1.37-1H482c3.67-2.48,7.74-4.39,11.47-6.77,2.5-1.6,5-3.18,7.4-5,.37-.28.74-.6,1.1-.92a60.46,60.46,0,0,1-4.27-6.69c-3.12,2.14-6.89,3.84-9.7,5.54a62,62,0,0,1-12.85,6.3,23.87,23.87,0,0,1,1.53,6.31,11.39,11.39,0,0,1-2.5,7.94c.94.46,1.81,1,2.41,1.32a20.85,20.85,0,0,1,2.91,1.92c6.71,3,13,9,19.68,6.79,7.78-2.56,13.14-8.24,19.3-12.85a16.8,16.8,0,0,1-3.15-1A11.23,11.23,0,0,1,510.93,205.61Z" style="fill:#3aaa61"/><path d="M610.85,142.68c-.34-.44-.68-.88-1-1.3a1.68,1.68,0,0,1-.32.34,1.14,1.14,0,0,0-.67,0,1.24,1.24,0,0,0-.49.23c-2,1.46-4.65,2.27-6.92,3.3-2,.9-3.88,1.91-5.78,2.94-8,3.27-16.47,5.73-24.54,8.33,0,.5,0,1,0,1.46a77.37,77.37,0,0,0,.31,8.47c6.12-2,12.24-4,18.34-6.09,5.56-1.89,11.24-5.15,17-6.4a69.69,69.69,0,0,1,6.72-3l.56-.29a1.36,1.36,0,0,1,.29-.09,15.28,15.28,0,0,0-2.93-7.26A1.58,1.58,0,0,0,610.85,142.68Z" style="fill:#3aaa61"/><path d="M499,181.11a36.81,36.81,0,0,0,4.38,7.4c.63,1,1.28,1.92,2,2.85l.15,0,1.44,1.85a1.39,1.39,0,0,0,.4.34c0,.09-.07.19-.12.28.71.87,1.43,1.72,2.16,2.53a10.1,10.1,0,0,1,.52-1.39.84.84,0,0,1,.11-.15c2.24-7,4.25-14.17,4.75-21.44.77-11.3-1.79-17.47-9.71-24.17-10.23,7.67-10.76,18.73-6.87,29.2A16.54,16.54,0,0,0,499,181.11Z" style="fill:#e6334b"/><path d="M567.58,156.32c-.15-3.22-1.16-6.19-1.43-9.34l0,0c-.13,0-.24.11-.36.16a31.08,31.08,0,0,1-.27,7.32,37.79,37.79,0,0,1-5.26,13,1.49,1.49,0,0,1,.06.94,54,54,0,0,1-5.65,13.11c2.74-1.53,5.25-3.31,8.11-5.15a17.08,17.08,0,0,1,6.92-3c-1.37-2.33-1.74-5.35-1.86-8C567.67,162.31,567.72,159.31,567.58,156.32Z" style="fill:#e6334b"/><path d="M591.2,164.77l-.24.07c-2.46.73-4.93,1.38-7.43,1.9-1.84,7.51,4.46,12.62,11.49,9.06a49.91,49.91,0,0,0,7.25-4.55C596.94,171.56,591.75,170.53,591.2,164.77Z" style="fill:#3aaa61"/><path d="M353.56,237.25a7,7,0,0,1,.79-7.27c-2.27,0-4.53-.09-6.79-.22.51,3.76.6,8.19,4.2,10a13.3,13.3,0,0,0,4.74,1.18A11.57,11.57,0,0,1,353.56,237.25Z" style="fill:#3aaa61"/><path d="M435.9,223.13c-.56.12-1.11.23-1.64.33-8.08,1.42-16.93,1.8-25.18,0a54.67,54.67,0,0,1,16.28,17.73,2.48,2.48,0,0,1,.68,0C424.21,233.47,428.84,227.57,435.9,223.13Z" style="fill:#e6334b"/><path d="M470.79,199.68a10.77,10.77,0,0,0-.42-1.61c0-.05,0-.12.09-.17a41.13,41.13,0,0,1-.87-7.39c-3.91,1.49-8.13,0-11.79-1.81-5.61-2.76-11.12-6-17.49-6.07a10.94,10.94,0,0,1,.88,1.41c8.07,1.7,15.32,5.73,18.15,13.31,3,8-.88,14.23-6.88,18.62a130.66,130.66,0,0,1,15.14-3.59c1.85-1.37,3.89-2.76,4.12-5.17.26-2.63-.43-5-.92-7.52Z" style="fill:#e6334b"/><path d="M423.78,241.11c-11.53-13-29-24.76-46.39-19.59,8.58,14.23,31,36.44,45.72,23.28,0-.07,0-.15,0-.23a5,5,0,0,0,1.2-1.45A1.47,1.47,0,0,0,423.78,241.11Z" style="fill:#e6334b"/><path d="M507.12,142.77c7.16.26,13.55-2.31,20.08-4.88,10.14-5.58,18.59-13.88,21-25.42-16.37,1-46.17,10.55-41.76,30A2.19,2.19,0,0,1,507.12,142.77Z" style="fill:#e6334b"/><path d="M330.2,223.18c.25-2.65.89-5.67.22-8.3-.79-3.1-3.45-4-4.87-6.31a37.41,37.41,0,0,1-10.82.31c.69.42,1.37.85,2,1.32,9.77,6.92,5,17.32-2.13,24.27,4.17,2.61,9.89,1.84,15,.66a27.59,27.59,0,0,0,3.07-1.61C330.28,230.87,329.84,227,330.2,223.18Z" style="fill:#e6334b"/><path d="M376,212.4l-.56.19a7.44,7.44,0,0,1-3.57,1,18,18,0,0,1-2.19.42.58.58,0,0,1-.47-.15,90.1,90.1,0,0,1-11.55.88c-3.59,0-10.09.2-12.39-3.39a1.85,1.85,0,0,1-1-1.49c-.26-4,3.08-9,5.11-12.23a60.17,60.17,0,0,1,3.92-5.62c-3.28-1.27-5.85-4.34-7.78-7.4a30.41,30.41,0,0,0-4.78,7.62c-1.43,3-2.65,6.54-4.54,9.46l0,0a2.56,2.56,0,0,1-.82,3.49,34.78,34.78,0,0,1-5.35,2.22c2.8,2.31,4.29,7.18,4.22,10.32-.06,2.65-.36,5.1-.37,7.47,12.73-1.75,26.39-1.07,39.28-1-.67-1.07-1.27-2.11-1.8-3.1a2.55,2.55,0,0,1,1.2-3.37,35.29,35.29,0,0,1,5.56-1.6A10.45,10.45,0,0,1,376,212.4Z" style="fill:#3aaa61"/><path d="M509.65,146.13c-.39,0-.77.06-1.16.08a2.51,2.51,0,0,1-.33.61c7.54,2,10.47,8.95,11,17.38.16-.56.32-1.11.5-1.63,2.59-7.92,6.45-16,11.9-22.58A53,53,0,0,1,519,144.72,17.4,17.4,0,0,1,509.65,146.13Z" style="fill:#e6334b"/><path d="M550.41,152.83a6.15,6.15,0,0,0-6.13,0,6.41,6.41,0,0,0-3,2c-4,4.25-10.62,16.73-4.68,22.16,11.58,10.57,25.33-17.74,25.66-25.8.55-13.29-8.38-25.29-20.64-15-11.32,9.5-20.16,25.08-20.3,40.37-.06,6.88,2.4,17.32,11.55,16.72,6-.39,10.9-4.62,14.38-9.32a85.24,85.24,0,0,0,4.74-7.29c-4.2,3.2-9.05,4.82-14.09,3.38-9.85-2.83-2.75-20.19.81-24.92,4.13-5.5,16-9,15.59,1.16-.18,3.95-7.84,19.62-13,13.5a.39.39,0,0,1,.4-.63c3.33.69,6.73-4.64,8-7.11a19.45,19.45,0,0,0,2-4.64l-.1-.14C552.2,155.59,552.15,153.72,550.41,152.83Z" style="fill:#e6334b"/><path d="M572,121.11c.35-3,.78-5.91,1.23-8.87a49.32,49.32,0,0,1,.29-5.49,72.5,72.5,0,0,1-.12-13.87,3.17,3.17,0,0,1,.51-1.5,27.82,27.82,0,0,0-5.77-4.51A29,29,0,0,1,567,91.74a14.54,14.54,0,0,1-.42,5.62c-.27,1.09-.48,2.64-.9,4a30,30,0,0,1-.77,3.88c-.15,1.49-.38,3-.52,4.48-.27,2.87-.55,5.72-1,8.56,2.87,2.17,5.23,4.51,8.09,5.88C571.69,123.17,571.86,122.14,572,121.11Z" style="fill:#3aaa61"/><path d="M547,128.5c11.15-4.24,16.85,5.65,18.38,15.61,4.49-2,7.12-7.23,9.06-12.15.15-.75.25-1.51.33-2.28a2.07,2.07,0,0,1-.26.37,1.53,1.53,0,0,0-.08-.61v-.05a1.12,1.12,0,0,0-.1-.17,1.18,1.18,0,0,0-.89-.64,16.43,16.43,0,0,0-2.54-.46v0a17.19,17.19,0,0,1-5.75-3.44c-2-1.72-4.07-4-6.58-4.91-3-1.1-5.22.59-7.86.49a39,39,0,0,1-5.91,9.23C545.53,129.12,546.26,128.79,547,128.5Z" style="fill:#e6334b"/><path d="M609.55,137.66a1.38,1.38,0,0,0-1.23.83,1.73,1.73,0,0,0-.47,0,38.63,38.63,0,0,0-7.08,2.62,39.55,39.55,0,0,0-4.86,2c-8.5,2.71-16.94,6.73-25.09,10.26a13.12,13.12,0,0,0-2.34-6.45c7-3,10.05-12.35,9.71-19.63a.62.62,0,0,0,.09-.11,15.89,15.89,0,0,0-.21-1.75.76.76,0,0,0-.39-.09,12.53,12.53,0,0,1-1.82,0,89.61,89.61,0,0,0,2-17.27c1.36-4.64,1.08-9.95,1.43-14.67a2.49,2.49,0,0,0,.78-3.81,23,23,0,0,0-15.27-9.35,1.61,1.61,0,0,0-1.18.25.57.57,0,0,0-.93.28c-.77,2.51-.82,5.25-1.16,7.84a38.66,38.66,0,0,0-.47,8.89c-.62,2.78-.72,5.73-1.13,8.53a96.63,96.63,0,0,0-.72,10.14,12,12,0,0,0-6.86-.43,36.45,36.45,0,0,0,1.25-5.75,2.51,2.51,0,0,0-2.34-2.67c-18.27.08-56,12.43-48,36.66-12.38,11.18-13.27,25.29-7.89,38.31-2.86,1.54-5.59,3.86-8,5.41-4.39,2.87-8.89,5.52-13.45,8.1-1.16-3.19-2.12-6.38-1.47-9.67a1,1,0,0,0,0-.4c-.81.22-1.64.38-2.47.56,0,.12-.06.24-.09.36a1.81,1.81,0,0,0-1.05.1c-5.07,2.09-11.3-2.42-15.87-4.35s-9.1-3-13.6-.78a21.08,21.08,0,0,0-6.32-4.27c-4.4-2.17-8.4-3.8-12.27-6.57,0,0,0-.08,0-.12A12.29,12.29,0,0,1,419,169a1.1,1.1,0,0,0-.26.17.39.39,0,0,0-.43.45l0,.09c-3,4.88-7.44,6.94-12.32,9.68-3.15,1.77-6.9,4.12-8.36,7.6-5.95-4.87-15.44-3.18-21.58.57h0c-.43.53-.87,1-1.32,1.55,3.3,5.54,1.29,10.39.5,16.35a10.86,10.86,0,0,0-.09,1.56h0l-.24,0h0a17.72,17.72,0,0,0-4.78,1.19c-3,.39-6.13,1.32-8.06,1.52-4.33.46-9.53,1-14,0,.46-1.21.69-2.48,1.13-3.74a44.17,44.17,0,0,1,3.2-6.69c1.25-2.28,2.74-4.47,4.06-6.73a8.85,8.85,0,0,0,1.25,0,1.54,1.54,0,0,0,1.49-1.52c.31-7.61-8.17-15.43-15.16-9.93-5.31,4.18-7.06,11.38-9.82,17.66-12.13-15.19-40.67-35.59-54.72-16.34-17.27-4.3-29.72,4.43-37,17.95a26.33,26.33,0,0,0-2.48-2.28,1.71,1.71,0,0,0-.16-.37c-4.89-7,1.6-13.1,7.8-15.89,1.24-.56.85-2.58-.37-2.87-4.47-1.05-10.41-.12-14.53,1.85a8.77,8.77,0,0,0-4.8,6.91,10.4,10.4,0,0,1-.76-2.26,26.54,26.54,0,0,0-2.18-7c20.71-8.2,23.41-31.74,16.59-52.6a2.49,2.49,0,0,0-.19-.41,11.39,11.39,0,0,0-2.28-9.28c-4-5.07-11.51-7.21-14.08-13.28a1.12,1.12,0,0,0-.09-.13l-.22.2a11.11,11.11,0,0,1-3.36,3.75c-3.46,3.4-10.06,3.46-14.43,4.42a25.16,25.16,0,0,0-6.05,2,9.13,9.13,0,0,0,.12-7c-2.44-6.15-9.59-9.55-14-14-1.7-1.76-4.28.9-2.65,2.7,2.64,2.53,3.68,6.9,1.39,9.55a324.83,324.83,0,0,0-23.05-22.92,1.54,1.54,0,0,0-.14-.37,1,1,0,0,0-.71-.42l-.28-.26c-.8-.73-2.29.27-1.57,1.24l.07.08a1.24,1.24,0,0,0-.77.35c-2.67,2.64-5.54,5.05-8.1,7.81-.58-.39-1.16-.78-1.77-1.13-1.43-.81-2.54,1-1.64,2.16,4.18,5.45,9.14,10.33,13.62,15.52l1.06,1.2c-.1.23-.2.46-.31.69a.91.91,0,0,0-.33.23c-4.47,5-9.74,6.47-16.08,4.34-2-.67-2.95,2.2-1.36,3.28,6.55,4.48,21.6,9.23,25.71,0l.71.6a43.45,43.45,0,0,1,3.77,3.39h-.26c-1,.19-2.08.35-3.13.48,0,0,0,.06,0,.09l.07.06c.26,5.75-2.23,10-4.71,15.1-1.6,3.28-3.36,7.39-2.61,11.09-7.62-.55-14.47,6.35-17.42,13a1,1,0,0,0-.19.07c-.1.64-.16,1.28-.21,1.92,5.94,2.62,7,7.81,9.69,13.22,1.4,2.8,5,6.37,8.51,7.06a36,36,0,0,0-3.68,4.54,2.56,2.56,0,0,0,.89,3.47c12.54,6.45,38.56,11.75,51.58,2.36-.36,4.56-.6,9,1.22,13.06a16.5,16.5,0,0,0-6.46,7.59c-1.63,4,.12,9.64,1.19,13.56a2,2,0,0,0,4-.55c-.11-3.81,1-6.49,4.38-8.28,2.28-1.2,5.1-.81,7.46-1.47,2.64,1.88,5.39,3.59,8.08,5.24a2,2,0,0,0,1.83.13,11.51,11.51,0,0,0-1.27,7.73c1.16,6.39,6.79,11.9,6.23,18.49a.2.2,0,0,1,0,0,12.77,12.77,0,0,1,2.46-.72l0-.12a1.81,1.81,0,0,0,1-.22c4.81-2.66,11.5,1.1,16.26,2.49s9.37,1.91,13.6-.79a21,21,0,0,0,6.76,3.51c4.62,1.65,8.77,2.81,12.93,5.12v.06a7.18,7.18,0,0,1,2.44,1.06l0-.05a1.32,1.32,0,0,1,.23-.24l0-.07c2.44-5.19,6.63-7.75,11.16-11,2.94-2.12,6.39-4.89,7.46-8.51,6.39,4.12,15.5,1.44,21.2-2.91a3.07,3.07,0,0,0,1-1.94,1.5,1.5,0,0,1,0-.31,12.54,12.54,0,0,1-2.21-5.61,68.13,68.13,0,0,0,10.48,1.68c-.5,4.59.72,10.28,4.26,13,4.64,3.53,12,2.6,17.38,2.43,2.36-.07,3.06-3.85.58-4.34a19.13,19.13,0,0,1-7-2.77c-3.8-2.48-2-5,.34-7.72a1.9,1.9,0,0,0,.13-.22c5.57-.11,11.08-.37,16.31-.38a2.34,2.34,0,0,0,.26-.05c11.94,15.66,34.48,33.09,49,17.36,23.3,8.74,40.09-8.84,46.92-30.56,8.42,4.93,17.67,12.93,27.65,11.47,7.45-1.09,19.65-9.13,24.6-16.39,3.08.45,6,1.11,8.46,3a5.57,5.57,0,0,0,.67-1.52,10.44,10.44,0,0,1,.88-2.12c.83-5.35,7.45-8.73,11.21-11.86a26.19,26.19,0,0,0,4.45-4.58c2.15,2.45,6.36,4.08,8.69,5.21,1.11.54,2.78,1.52,4.54,2.34a5.43,5.43,0,0,0,1,.93,4.55,4.55,0,0,0,5.63,0,2.48,2.48,0,0,0,.34-.22.65.65,0,0,0,.07-.08,12.5,12.5,0,0,0,3.25-4.08,33,33,0,0,0,3.12-12.17,21.18,21.18,0,0,0-4.41-3.08,43.19,43.19,0,0,0-10.4-1.61,59.57,59.57,0,0,1,9-6h0c.7-.6,1.45-1.17,2.11-1.81a17.87,17.87,0,0,1-1.35-3.1c.62-.29,1.23-.65,1.8-.95l.9-.45a13.36,13.36,0,0,0,3.59-1.32c-2.12,5.21,2.89,11.66,8.15,13.73,7.89,3.11,17.49-7.06,22.63-11.62,1.44-1.29-.15-3.19-1.69-2.95-4.78.77-11.79,2.35-13.45-3.13a66.74,66.74,0,0,0,10.62-3.73,24.08,24.08,0,0,0,6.74-3.23c1.39-.56,2.78-1.11,4.19-1.6A1.87,1.87,0,0,0,617,154a2.11,2.11,0,0,0,1.82-2.13C618.95,147.23,615.17,137.5,609.55,137.66ZM398.77,189.08c2.6-1.74,4.68-4,7.4-5.7,2.53-1.54,5.15-2.91,7.68-4.45,2.25-1.37,4.68-3.13,6.05-5.46a17.25,17.25,0,0,0,5.85,4.8c2.94,1.7,5.67,3.11,8.29,4.84a51.74,51.74,0,0,0-14,1.13,1.46,1.46,0,0,0-.78.49,36.08,36.08,0,0,0-13.72,1.42,30.12,30.12,0,0,0-6.46,3.22c-.1-.08-.21-.15-.31-.22Zm5.52,1.43c7.14-3.52,38.14-4.56,34.46,10.82-1.89,7.9-15.82,7.88-21.39,6.28a7.68,7.68,0,0,1-2.07-.84,1.09,1.09,0,0,1-.53-.15,6.61,6.61,0,0,1-3.28-6,3.89,3.89,0,0,1,4.29-3.67,18.93,18.93,0,0,1,3.89-.27c2.74,0,9,.52,9.94,3.83a.38.38,0,0,0,.73.06c2.84-7.55-14.34-7-17.84-5.31-9.05,4.41-.34,13.43,6.37,14.54,5.78,1,24.16-.88,21.95-11.05-1.13-5.21-4.83-8.79-9.59-11a81.41,81.41,0,0,1,8.55.81c5.71.9,11.68,3.26,14.87,8.49,4.84,7.93-3,15.07-9,18.27-13.3,7.1-31,6.54-44.53.88C386.36,210,392.53,196.3,404.29,190.51Zm-22.45-1.79c5.18-.59,10.94-.7,14.8,2.38-7.89,6.09-13.75,15.88-4.81,23.87.61.55,1.24,1,1.88,1.54a37.35,37.35,0,0,0-10.78-.94c-1.17-2.42-3.7-3.66-4.15-6.83-.38-2.69.6-5.62,1.14-8.22.78-3.76.77-7.65-1.3-10.56A27.3,27.3,0,0,1,381.83,188.72Zm-26.27.84c-3.08-.58-5.25-4-6.79-6.67C351.66,182.87,354.33,186.56,355.56,189.56Zm-73.2-5.36v0c13.21-14.78,37.9,4.71,48,17.86-16.91,7.23-35.89-2.8-48.79-14.59l.06-.07a1.51,1.51,0,0,1-.39-1.43A3.89,3.89,0,0,1,282.36,184.19Zm-2.51,3.89a2.36,2.36,0,0,0,.68-.07,54.31,54.31,0,0,0,18.14,15.74c-8.39-.84-17.14.55-25,2.9-.51.15-1.05.33-1.59.51C278.58,201.94,282.53,195.54,279.85,188.08Zm-3.69-1.27c-.9,10.45-4.42,16.1-14,21.89-6.15,3.72-13.11,6.14-20,8.23a1,1,0,0,0-.18,0,9.77,9.77,0,0,0-1.42.35C244.42,199.7,256.63,180,276.16,186.81Zm-44.93.22c.6-2.14,2.74-3.22,4.65-3.83a16.3,16.3,0,0,1,4.28-.68c-3.74,3-6.29,7-5.8,11.57l-.29-.19a27,27,0,0,1-4-3.07A31.75,31.75,0,0,0,231.23,187Zm6.26-55.57a9.89,9.89,0,0,0,1.08-1c4.77,17.34,3.18,40.59-17.19,44-4.07-9.63-3.59-16.32,2.14-26,3.69-6.25,8.69-11.72,13.8-16.9A1.25,1.25,0,0,0,237.49,131.45Zm-20,43.66a2.49,2.49,0,0,0-.57.39,53.24,53.24,0,0,0-23.29-5.12c7.78-3.3,14.84-8.75,20.69-14.6.38-.38.77-.8,1.17-1.22C212.21,162.29,211.71,169.83,217.54,175.11ZM183,169c-15.53,3.5-18.12-11.33-11.7-22.91,3.9-7,28.79-25.88,34.37-11.1,2.81,7.43-8.09,15.29-13.69,17.43-2.24,1.25-5.66,1.47-7.82,0-2.35-1.61-3.21-5.22-.62-6.92v0a19.16,19.16,0,0,1,3.81-3.23c2.25-1.6,7.66-4.78,10.32-2.62a.38.38,0,0,0,.63-.38c-1.89-7.85-15.71,2.56-17.63,6-5,8.88,7.24,11.24,13.37,8.25,5.28-2.57,19.36-14.74,11.85-21.82-3.85-3.63-8.89-4.42-14.06-3.52a82.34,82.34,0,0,1,7.48-4.29c5.2-2.58,11.43-4.1,17-1.65,8.42,3.71,5.94,14.14,2.82,20.24C212.14,156,197.32,165.76,183,169Zm31.26-55.44c4-.65,8.31-1.86,10.7-5.35a48.65,48.65,0,0,0,6,6.7c1.87,1.86,3.82,3.41,5.11,5.79,1.15,2.12.26,4.45-.49,6.65a134.07,134.07,0,0,0-10.43,11.73c2.47-7.09,2.19-14.44-4.77-19.3-6.57-4.59-14.78-3.69-22.37-.41-.19-.1-.39-.17-.59-.25l-.48-.66C202.1,115,208.28,114.51,214.26,113.55Zm-24-13c1.38,1.22,2.76,2.44,4,3.76,1.65,1.69,3.17,3.77,2.61,6.26-.34,1.55-1.6,2.83-2.9,4.05-2-2.58-4-5.13-6.12-7.62C189.75,105.49,190.42,103.06,190.29,100.5ZM155,117a11.56,11.56,0,0,0,8.57-7.35.9.9,0,0,0,0-.68q1.61,1.79,3.27,3.51C165.87,118.16,160.32,118.41,155,117Zm9.44-13.71c-3.46-3.92-6.81-8.21-10.86-11.56,1.12-.91,2.22-1.85,3.28-2.83.53-.46,1-.93,1.52-1.44.28-.27.58-.53.86-.81a27.33,27.33,0,0,0,2.57-2.55c8.95,11.6,19.65,22.27,30,32.7a39.23,39.23,0,0,0-4.39,1.78c-2.2.35-4.27.72-6.33,1-.5-.43-1-.85-1.55-1.23a1.72,1.72,0,0,0-.47-.59A115.34,115.34,0,0,1,164.4,103.28Zm4.46,35.85c1.22-2.73,2.6-5.38,3.81-8.11,1.08-2.43,2.1-5.29,1.92-8a16.9,16.9,0,0,0,7.5.55c3.37-.31,6.4-.73,9.53-.83a52.76,52.76,0,0,0-10.88,9.06,1.48,1.48,0,0,0-.37.86,36.93,36.93,0,0,0-10.48,9.13,31,31,0,0,0-3.51,6.39H166l0-.06C167.13,145.18,167.55,142.07,168.85,139.13Zm-8.31,36.75c-1.82-2-2.65-5-3.67-7.42-1.46-3.55-3.65-6.73-7-7.92a28.06,28.06,0,0,1,2-2.9c3.92-3.49,8.6-6.92,13.49-6.63-3.08,9.58-2.41,21,9.41,22.41.81.09,1.61.14,2.41.18a37.91,37.91,0,0,0-9.39,5.49C165.46,177.77,162.68,178.22,160.54,175.88Zm6,11.29c11.53-14.51,32.91-14.83,49.77-10.66,0,.05,0,.11,0,.16a1.8,1.8,0,0,1,.83,1.87,5.45,5.45,0,0,1,0,1.21l0,0,0,.11a2.34,2.34,0,0,1-.06.42c0,.08-.09.12-.12.19C211.58,199,181.38,193.8,166.55,187.17Zm48,27.76a9.44,9.44,0,0,0-3.31,2.89,17.16,17.16,0,0,1,0-2.46c.21-3.25,2.15-5.42,4.15-7.62a14.92,14.92,0,0,0,1.23,1.64,39.57,39.57,0,0,0,3.52,3.49A24.91,24.91,0,0,0,214.59,214.93Zm21,3.33c-4.07-3.8-9.14-6.25-13.33-9.92-5.14-4.5-5.29-11.16-7.35-17.22a18.57,18.57,0,0,0,5.62-11.25c1-.26,1.87-.59,2.78-.91-.15,5.2-.83,9.55,2.65,14.11,3.8,5,10.44,6.51,14.43,11.3A66.36,66.36,0,0,0,236,218.83,2.07,2.07,0,0,0,235.64,218.26Zm18.48,25.63c-3.83-1.36-8.19-2.37-11.91-.44a49.82,49.82,0,0,0-2.16-8.79c-.78-2.55-1.78-4.85-1.82-7.56,0-2.43,1.84-4,3.52-5.61a130.86,130.86,0,0,0,14.64-5.31c-5.47,5.05-8.64,11.67-4.77,19.3,3.66,7.21,11.3,10.38,19.52,11.14a10.64,10.64,0,0,0,1,1.29C265.84,248.6,260,246,254.12,243.89Zm58.61-7.16c-2.39,2-4.2,4.56-6.72,6.52-2.34,1.82-4.79,3.49-7.13,5.31-2.08,1.62-4.31,3.65-5.41,6.12a17.17,17.17,0,0,0-6.35-4.1c-3.11-1.35-6-2.44-8.78-3.86a51.68,51.68,0,0,0,13.8-2.73,1.45,1.45,0,0,0,.73-.58,36.14,36.14,0,0,0,13.47-3,30.08,30.08,0,0,0,6.06-3.94l.33.19A.56.56,0,0,1,312.73,236.73Zm-5.64-.79c-6.7,4.32-37.39,8.92-35.44-6.79,1-8.07,14.84-9.64,20.56-8.7a7.17,7.17,0,0,1,2.49.75,1.14,1.14,0,0,1,.15,0,5.47,5.47,0,0,1,3,2.57,4,4,0,0,1,1,1.31,3.58,3.58,0,0,1,.18,2.5,1.2,1.2,0,0,1-.27.73,5.16,5.16,0,0,1-3.55,2.66,1.2,1.2,0,0,1-.5,0,18.74,18.74,0,0,1-3.48.62c-2.72.33-9,.52-10.31-2.66a.38.38,0,0,0-.73,0c-2,7.83,15,5.32,18.32,3.22,8.5-5.42-1.15-13.38-7.94-13.71-5.85-.28-23.91,3.65-20.58,13.51,1.7,5,5.77,8.18,10.75,9.88a81,81,0,0,1-8.58.18c-5.78-.24-12-1.9-15.72-6.73-5.69-7.32,1.34-15.32,6.93-19.18,12.43-8.59,30-10.05,44.15-6C322.74,214.53,318.13,228.83,307.09,235.94Zm22.5-.81c-5.07,1.18-10.79,1.95-15-.66,7.17-7,11.9-17.36,2.13-24.27-.67-.47-1.35-.9-2-1.32a37.41,37.41,0,0,0,10.82-.31c1.42,2.27,4.08,3.21,4.87,6.31.68,2.63,0,5.65-.22,8.3-.36,3.83.08,7.69,2.47,10.34A27.59,27.59,0,0,1,329.59,235.13Zm22.17,4.58c-3.6-1.77-3.69-6.19-4.2-10,2.25.13,4.51.21,6.79.22a7,7,0,0,0-.79,7.27,11.57,11.57,0,0,0,2.94,3.64A13.3,13.3,0,0,1,351.76,239.71Zm20.9-21.93a2.55,2.55,0,0,0-1.2,3.37c.53,1,1.13,2,1.8,3.1-12.89-.1-26.56-.77-39.28,1,0-2.36.3-4.82.37-7.47.07-3.14-1.42-8-4.22-10.32a34.78,34.78,0,0,0,5.35-2.22,2.56,2.56,0,0,0,.83-3.48l0,0c1.89-2.92,3.11-6.46,4.54-9.46a30.41,30.41,0,0,1,4.78-7.62c1.93,3.06,4.5,6.13,7.78,7.4a60.17,60.17,0,0,0-3.92,5.62c-2,3.21-5.36,8.25-5.11,12.23a1.85,1.85,0,0,0,1,1.49c2.3,3.6,8.8,3.39,12.39,3.39a90.1,90.1,0,0,0,11.55-.88.58.58,0,0,0,.47.15,18,18,0,0,0,2.19-.42,7.44,7.44,0,0,0,3.57-1l.56-.19a10.45,10.45,0,0,0,2.19,3.78A35.29,35.29,0,0,0,372.67,217.78Zm51.62,25.34a5,5,0,0,1-1.2,1.45c0,.07,0,.15,0,.23-14.77,13.16-37.14-9-45.72-23.28,17.36-5.16,34.86,6.6,46.39,19.59A1.47,1.47,0,0,1,424.29,243.12Zm1.07-1.94a54.67,54.67,0,0,0-16.28-17.73c8.24,1.8,17.1,1.43,25.18,0,.53-.09,1.08-.21,1.64-.33-7.06,4.44-11.69,10.34-9.85,18.06A2.48,2.48,0,0,0,425.36,241.18Zm4.21,1.7c2-10.28,6.18-15.49,16.32-20.14,6.52-3,13.7-4.59,20.8-5.88a1.21,1.21,0,0,0,.19,0,10,10,0,0,0,1.45-.18C462.53,233.73,448.21,251.91,429.57,242.88Zm42.16-35.67c-.24,2.41-2.27,3.81-4.12,5.17A130.66,130.66,0,0,0,452.47,216c6-4.39,9.88-10.6,6.88-18.62-2.83-7.59-10.08-11.61-18.15-13.31a10.94,10.94,0,0,0-.88-1.41c6.36,0,11.88,3.31,17.49,6.07,3.65,1.8,7.87,3.3,11.79,1.81a41.13,41.13,0,0,0,.87,7.39c0,.05-.06.11-.09.17a10.77,10.77,0,0,1,.42,1.61v0C471.3,202.23,472,204.59,471.73,207.21Zm92.71-97.45c.14-1.49.37-3,.52-4.48a30,30,0,0,0,.77-3.88c.42-1.4.63-3,.9-4a14.54,14.54,0,0,0,.42-5.62,29,29,0,0,0,1.11-4.86,27.82,27.82,0,0,1,5.77,4.51,3.17,3.17,0,0,0-.51,1.5,72.5,72.5,0,0,0,.12,13.87,49.32,49.32,0,0,0-.29,5.49c-.45,3-.87,5.91-1.23,8.87-.16,1-.33,2.06-.49,3.09-2.86-1.37-5.21-3.71-8.09-5.88C563.89,115.48,564.17,112.64,564.44,109.76Zm-5.86,10c2.51.93,4.58,3.19,6.58,4.91a17,17,0,0,0,5.75,3.43v0a16.43,16.43,0,0,1,2.54.46,1.18,1.18,0,0,1,.89.64,1.12,1.12,0,0,1,.1.17v.05a1.53,1.53,0,0,1,.08.61,2.07,2.07,0,0,0,.26-.37c-.08.77-.18,1.53-.33,2.28-1.94,4.92-4.57,10.15-9.06,12.15-1.54-10-7.24-19.85-18.38-15.61-.76.29-1.49.62-2.22,1a39,39,0,0,0,5.91-9.23C553.35,120.33,555.62,118.64,558.58,119.74Zm-6.9,37.74a19.45,19.45,0,0,1-2,4.64c-1.28,2.47-4.69,7.8-8,7.11a.39.39,0,0,0-.4.63c5.19,6.12,12.85-9.55,13-13.5.46-10.2-11.46-6.66-15.59-1.16-3.56,4.73-10.67,22.09-.81,24.92,5,1.45,9.89-.18,14.09-3.38a85.24,85.24,0,0,1-4.74,7.29c-3.48,4.7-8.35,8.94-14.38,9.32-9.15.6-11.61-9.85-11.55-16.72.14-15.29,9-30.86,20.3-40.37,12.27-10.31,21.19,1.7,20.64,15-.33,8.07-14.08,36.37-25.66,25.8-5.95-5.43.66-17.91,4.68-22.16a6.41,6.41,0,0,1,3-2,6.15,6.15,0,0,1,6.13,0c1.73.89,1.79,2.76,1.16,4.52Zm-32.06,5.08c-.17.52-.34,1.07-.5,1.63-.5-8.43-3.43-15.38-11-17.38a2.51,2.51,0,0,0,.33-.61c.39,0,.77-.05,1.16-.08a17.4,17.4,0,0,0,9.35-1.4A53,53,0,0,0,531.52,140C526.07,146.52,522.21,154.64,519.62,162.56Zm28.56-50.1c-2.4,11.55-10.84,19.84-21,25.42-6.52,2.57-12.92,5.15-20.08,4.88a2.19,2.19,0,0,0-.7-.29C502,123,531.81,113.44,548.18,112.46ZM505,149.17c7.92,6.7,10.48,12.87,9.71,24.17-.5,7.27-2.51,14.47-4.75,21.44a.84.84,0,0,0-.11.15,10.1,10.1,0,0,0-.52,1.39c-.73-.81-1.45-1.66-2.16-2.53,0-.09.08-.19.12-.28a1.39,1.39,0,0,1-.4-.34l-1.44-1.85-.15,0c-.68-.92-1.32-1.88-2-2.85a36.81,36.81,0,0,1-4.38-7.4,16.54,16.54,0,0,1-.84-2.74C494.27,167.9,494.8,156.84,505,149.17Zm3.6,52.41a59.25,59.25,0,0,1-10.76,8.75c-3.56,2.13-8.15-.68-12.24-2.58a84.35,84.35,0,0,0,9.6-5.08c2.17-1.24,6.33-3.28,9.25-5.72C505.79,198.54,507.16,200.1,508.63,201.58Zm-9.44,21.59c-6.65,2.18-13-3.79-19.68-6.79a20.85,20.85,0,0,0-2.91-1.92c-.6-.34-1.46-.85-2.41-1.32a11.39,11.39,0,0,0,2.5-7.94,23.87,23.87,0,0,0-1.53-6.31A62,62,0,0,0,488,192.6c2.81-1.7,6.58-3.41,9.7-5.54a60.46,60.46,0,0,0,4.27,6.69c-.36.32-.72.64-1.1.92-2.37,1.79-4.9,3.38-7.4,5-3.73,2.38-7.8,4.3-11.46,6.77H482a15,15,0,0,1-1.37,1h0c-.27.21-.55.39-.82.59l-.16.11h0l-.08.06a.67.67,0,0,0,.46,1.13c.61-.08,1.22-.2,1.82-.34,4,3.18,9.77,7.72,14.93,6.53,5.4-1.24,10.2-6,14.2-9.93a11.23,11.23,0,0,0,4.41,3.67,16.8,16.8,0,0,0,3.15,1C512.33,214.93,507,220.61,499.19,223.17Zm39.37-23c-3.28,2.43-6.58,5.5-7.14,9.72a32.14,32.14,0,0,0-4.84-2,.14.14,0,0,0,0-.06c-.05-.05-.09,0-.14-.07-.75-.39-1.56-.61-2.32-1l-.3.18-.7-.22c-2.5-.8-4.93-1.27-7.14-2.79-2-1.35-2.21-3.84-2.52-6.15a136.75,136.75,0,0,0,4-15.28c1,7.46,4.5,13.88,12.86,15,7.9,1,14.82-3.55,20.1-10a10.27,10.27,0,0,0,1.63-.12C549,193,543.6,196.39,538.56,200.12Zm35.37-13.21,0,0c-.42,4.22-1.65,10.66-4.47,12.36a21.07,21.07,0,0,0-2.78-1.31C567.32,194.67,572.64,187.78,573.93,186.91Zm-4.78-1c-2.63,2.79-5.47,6.95-6.21,10.64-2.23-.83-4.43-1.72-6.58-2.77-1.36-.66-2.63-1.7-4-2.45a12.53,12.53,0,0,0,1-4.31,21.05,21.05,0,0,0,6.68-3.66l.5-.37C563.39,184,566.28,184.93,569.15,185.92Zm-6.4-9.62c-2.86,1.84-5.37,3.62-8.11,5.15a54,54,0,0,0,5.65-13.11,1.49,1.49,0,0,0-.06-.94,37.79,37.79,0,0,0,5.26-13,31.08,31.08,0,0,0,.27-7.32l.34-.17.05,0c.27,3.15,1.29,6.11,1.43,9.34.14,3,.09,6,.23,9,.12,2.66.5,5.68,1.86,8A17.08,17.08,0,0,0,562.75,176.3Zm39.52-5.06A49.91,49.91,0,0,1,595,175.8c-7,3.56-13.34-1.55-11.49-9.06,2.5-.52,5-1.17,7.43-1.9l.24-.07C591.75,170.53,596.94,171.56,602.27,171.24ZM614,150.72l-.56.29a69.69,69.69,0,0,0-6.72,3c-5.71,1.25-11.4,4.52-17,6.4-6.1,2.07-12.22,4.08-18.34,6.09a77.37,77.37,0,0,1-.31-8.47c0-.48,0-1,0-1.46,8.07-2.6,16.59-5.06,24.54-8.33,1.9-1,3.81-2,5.78-2.94,2.27-1,4.88-1.84,6.92-3.3a1.24,1.24,0,0,1,.49-.23,1.14,1.14,0,0,1,.67,0,1.68,1.68,0,0,0,.32-.34c.36.42.71.85,1,1.3a1.58,1.58,0,0,1,.51.69,15.28,15.28,0,0,1,2.93,7.26A1.36,1.36,0,0,0,614,150.72Z" style="fill:#3c3c3b"/><path d="M202.09,257.13C201.46,239.2,188.4,222,179,207.77c-.95-1.43-3.64-1.52-4,.53-1.29,7.8-1.15,15.69-2.34,23.51-1,6.86-6.18,12.38-7,19.41a68.78,68.78,0,0,0,0,17.19c-6.86-6.36-16.36-10-25.51-11.39-14.6-2.28-29.79-7.15-44.64-4.74-1.61.26-2.37,2.22-2,3.66,2.78,11.92,8.26,25.29,20.42,30a37.17,37.17,0,0,0,20.5,1.89c8.82-1.67,17.1-6,25.57-6.57a19.86,19.86,0,0,1,8.21,7.2,2.5,2.5,0,0,0,.26.31c.65,1.92,3.64,2.93,4.79.62l.7-1.43C189.23,283.58,202.72,274.87,202.09,257.13ZM165.48,279c-13.67-9.63-36.19-5.87-50.59-13.08a.25.25,0,0,0-.24.43c6.83,5,14.86,6.86,22.93,8.72,4.8,1.11,10.67,2,16.15,3.73-5.66.88-11.46,2.73-17.26,3.86-19.55,3.81-31.44-7.54-36.48-24.93,11.21-1,22.9,2.16,33.81,4.16,14.74,2.71,24.51,6.89,34.13,17.87A21,21,0,0,0,165.48,279Zm11.21,3.19c6.26-13.6,10.62-27.24,7.58-42.77a.24.24,0,0,0-.48.07c1.05,14-4.15,27.2-10.66,39.36-2-10.06-4.72-19.45-2.43-30.13,1.14-5.34,4.57-10.41,6.23-15.68,1.74-5.49,1.46-11.81,1.74-17.81,6.61,10,13,20.28,17,31.67C202.16,265.34,192.75,276.69,176.69,282.16Z" style="fill:#3c3c3b"/><path d="M156.56,250.28c-8.52-16.4-22.4-33.39-43-29.26-2.16.43-4.67,2.79-5,5.08s-.35,3.62.72,5.6a7.11,7.11,0,0,0,6.16,3.6c13.72,0,30.77,4.91,40.69,15.32C156.36,250.85,156.7,250.56,156.56,250.28Z" style="fill:#3c3c3b"/><path d="M156.18,225.8c-1.68-7-2.12-14-4.38-20.83-3-9.1-14.19-28.43-26.43-21.13-5.86,3.5-5.6,12.82,1.25,14.84a10,10,0,0,0,5,.2c.08,0-1,.19-.85.28,2.45,1.36,4.46,4.38,6.08,6.62,7.24,10,16.16,19.81,19.23,32.18a.27.27,0,0,0,.52,0C157.92,233.71,157.24,230.18,156.18,225.8Z" style="fill:#3c3c3b"/><path d="M140.76,297.59c-7.88,3.3-16.43,4.31-23.93,8.72-8.59,5-13.35,13.1-14.1,23.09a6.65,6.65,0,0,0,4.82,6.45,5.53,5.53,0,0,0,3.49,0c2.71-1,4.91-3.29,4.82-6.45-.22-7.45,3.87-12.43,9.26-17s10.89-9.07,16.27-13.71C141.87,298.29,141.36,297.34,140.76,297.59Z" style="fill:#3c3c3b"/><path d="M558,288c.23.48.46,1,.7,1.43,1.14,2.31,4.14,1.3,4.78-.62a2.71,2.71,0,0,0,.26-.31,19.83,19.83,0,0,1,8.21-7.2c8.47.52,16.74,4.9,25.57,6.57a37.18,37.18,0,0,0,20.5-1.89c12.15-4.72,17.64-18.1,20.42-30,.34-1.44-.43-3.39-2-3.66-14.86-2.41-30,2.47-44.64,4.74-9.15,1.43-18.65,5-25.51,11.39a68.79,68.79,0,0,0,0-17.19c-.86-7-6-12.55-7-19.41-1.19-7.82-1-15.71-2.34-23.51-.34-2.05-3-2-4-.53-9.41,14.21-22.47,31.43-23.1,49.37C529.2,274.87,542.68,283.58,558,288Zm6-8.24c9.63-11,19.39-15.17,34.13-17.87,10.91-2,22.6-5.17,33.81-4.16-5,17.39-16.94,28.74-36.48,24.93-5.79-1.13-11.59-3-17.26-3.86,5.47-1.71,11.35-2.62,16.15-3.73,8.07-1.86,16.1-3.74,22.93-8.72a.25.25,0,0,0-.25-.43c-14.4,7.21-36.93,3.45-50.59,13.08A20.88,20.88,0,0,0,564,279.72Zm-27.74-32.87c4-11.4,10.39-21.66,17-31.67.28,6,0,12.31,1.74,17.81,1.66,5.27,5.09,10.34,6.24,15.68,2.28,10.69-.43,20.07-2.43,30.13-6.51-12.16-11.71-25.35-10.66-39.36a.24.24,0,0,0-.48-.07c-3,15.53,1.32,29.17,7.58,42.77C539.16,276.69,529.76,265.34,536.25,246.86Z" style="fill:#3c3c3b"/><path d="M575.36,250.28c8.52-16.4,22.4-33.39,43-29.26,2.16.43,4.67,2.79,5,5.08s.35,3.62-.72,5.6a7.12,7.12,0,0,1-6.16,3.6c-13.72,0-30.77,4.91-40.69,15.32C575.56,250.85,575.22,250.56,575.36,250.28Z" style="fill:#3c3c3b"/><path d="M575.74,225.8c1.69-7,2.12-14,4.38-20.83,3-9.1,14.19-28.43,26.43-21.13,5.86,3.5,5.6,12.82-1.25,14.84a10,10,0,0,1-5,.2c-.08,0,1,.19.84.28-2.45,1.36-4.46,4.38-6.08,6.62-7.24,10-16.16,19.81-19.23,32.18a.27.27,0,0,1-.52,0C574,233.71,574.68,230.18,575.74,225.8Z" style="fill:#3c3c3b"/><path d="M591.16,297.59c7.88,3.3,16.43,4.31,23.93,8.72,8.59,5,13.35,13.1,14.1,23.09a6.65,6.65,0,0,1-4.82,6.45,5.54,5.54,0,0,1-3.49,0c-2.71-1-4.91-3.29-4.82-6.45.21-7.45-3.87-12.43-9.27-17s-10.89-9.07-16.27-13.71C590,298.29,590.56,297.34,591.16,297.59Z" style="fill:#3c3c3b"/><path d="M435.43,136.37c-21,12.47-42.32,18-66.29,11.45a95.35,95.35,0,0,1-53.35-38.06C305.59,95.09,297,79.25,283.83,67c-12.72-11.8-26-13.56-41.75-8.48-.28.09-.24.56.07.54,43.42-2.42,54.7,50.26,80.7,74.81,27.55,26,85.38,31.81,114.22,4.65A1.38,1.38,0,0,0,435.43,136.37Z" style="fill:#333"/><path d="M338.46,160.48c-10.39-1.83-19.18-4.21-27.14-11.66-7.48-7-12.22-16.52-18-24.9-10.46-15.15-21.38-27.25-40.78-27.64-.18,0-.17.26,0,.28,40.09,3.66,39.82,80.27,85.92,67.47C340.08,163.57,340.28,160.8,338.46,160.48Z" style="fill:#333"/><path d="M655.49,229.73c-10.29-48.39-31.88-93.06-64.17-132.79C528,19,437.66,9,366.06,9a506.18,506.18,0,0,0-59.63,3.16c-11.73-2-24,.14-35.31,6-46.57,10.64-93.1,33-130.32,78.76-32.29,39.73-53.88,84.4-64.17,132.79a298.12,298.12,0,0,0,3.29,138c14.7,55.22,12.23,78.8,10,83.34l-.37.85c-.48,1.41-11.58,34.72,5.29,65A70.29,70.29,0,0,0,108.23,534c2.8,21.57,17.22,52.59,38.16,57.08,8.45,1.81,12.76,42.92,15.34,67.47,1.13,10.84,2.31,22.06,3.77,32.75,6,43.69,17.87,68.4,38.58,80.11a49.72,49.72,0,0,1,10.37,8c5.21,4.85,11.33,10.55,26.81,18.79a30.53,30.53,0,0,0,9.33,4.72c4.76,2.29,10.18,4.76,16.42,7.44A221.94,221.94,0,0,0,352.48,828c7.27,0,12.07-.42,13.59-.58,2,.2,6.61.57,13.56.58h0a222,222,0,0,0,85.47-17.69c35.85-15.37,45.11-24,52.56-30.94a49.67,49.67,0,0,1,10.37-8c20.71-11.71,32.61-36.42,38.58-80.11,1.47-10.76,2.64-21.93,3.77-32.75,2.57-24.56,6.88-65.66,15.35-67.47,20.94-4.49,35.36-35.54,38.15-57.11a70.39,70.39,0,0,0,13.4-17.06c16.89-30.29,5.77-63.56,5.29-65l-.38-.89c-2.2-4.44-4.7-28.08,10-83.29A298.16,298.16,0,0,0,655.49,229.73ZM583,577.71c-18,3.86-21.49,37.19-25.91,79.39-1.12,10.73-2.29,21.82-3.72,32.3-5.33,39-15.15,60.64-31.81,70.07a56.4,56.4,0,0,0-10.25,7.41c.32-.77.65-1.53,1-2.31,2.29-5.88,3.54-12.32,5-18.45,1.95-8,6.85-13.73,11-20.52a.41.41,0,0,0-.64-.5c-7.71,8.1-14.14,15-18,25.71-4.53,12.72-9.29,22.3-18.72,31.75-7,4.12-16.71,9-31,15.19A209.21,209.21,0,0,1,390.24,814a3.88,3.88,0,0,0-.53-1c-4.67-6.2-10.4-11.45-14.91-17.78-5.6-7.86-6-17.69-8.88-26.74,0-1.83-.07-3.66-.19-5.52a0,0,0,0,0-.09,0c-.11,1.19-.24,2.35-.4,3.51h0a.13.13,0,0,0-.26,0v1.73c-1.83,11.83-6.05,22.21-11.4,32.38-1.7,2.12-3.3,4.35-4.92,6.58-.49.49-1,1-1.47,1.46a35.11,35.11,0,0,1-7.59,5.21,208.89,208.89,0,0,1-67.39-16.15c-16.89-7.24-27.41-12.8-34.54-17.33-4.28-6.59-7.46-14.21-11-21.19-4.37-8.72-13-24.6-24.4-23.53a.28.28,0,0,0,0,.55c13.22,1.72,18.06,19.84,22.22,34l-1-1a62.63,62.63,0,0,0-12.91-9.85c-16.67-9.43-26.48-31-31.82-70.07-1.43-10.48-2.59-21.57-3.72-32.31-4.42-42.19-7.91-75.52-25.9-79.38-8.22-1.76-19-15.07-24.5-31.86,2.65,1.48,5.42,2.88,8.33,4.17,2,8.43,8.68,14.75,14.44,21,.07.07.19,0,.13-.11-2.51-3.32-4.21-7.29-6.15-11a23.58,23.58,0,0,1-2.31-7.42c2,.77,4.16,1.49,6.32,2.18.48,3.61,3,7.15,4.92,10,1.36,2,3.29,3.25,4.79,5.07a60.89,60.89,0,0,1,5.28,8.13c.26.45.86.06.67-.4a88.93,88.93,0,0,1-4.74-15.39c-.33-1.48-.7-3.09-1.18-4.68q2.8.69,5.72,1.29c1.12.23,2.17.49,3.26.73,3.16,17,9.49,32.61,15.45,48.71,5.61,15.15,12.27,31.89,22.73,44.25.47.55,1.25-.15,1-.75-8-15.86-15.45-31-20.62-48.19-4-13.37-5.73-27.63-8.16-41.48,2.49.69,4.85,1.41,7.13,2.16,2.42,17.27,13.24,79.43,45.09,97l1.49.82H503.92l1.49-.82c31.86-17.53,42.68-79.73,45.1-97a191.14,191.14,0,0,1,20.74-5.43c1.08-.22,2.12-.47,3.17-.72-2.41,7.29-4.55,14.64-7.12,21.9-.06.18.17.28.29.17,7.14-6.23,11.81-15.4,15.25-24.19a115.84,115.84,0,0,0,24.67-10.07C602,562.58,591.21,575.94,583,577.71Zm56.28-213.53c-5.5,20.67-8.69,37-10.41,49.77-1.35-4.48-2.62-9-3.71-13.49-5-20.77,5.06-41.74,0-62.51-.06-.25-.4-.17-.42.06-1.87,23-9.14,44.29-7.85,67.59,1,17.92,7,37.53,14.08,54.57,2.1,8.65,5.62,30.34-5.33,50A56,56,0,0,1,617.7,521c-9.23,7.13-33,15.21-57.94,21.27a118.75,118.75,0,0,0-27.75,1c-17.58,2.82-31.38,16.79-44.51,27.88-.74.62.2,1.73,1,1.3,15.7-8.68,30.68-19,48.83-21.41a76.09,76.09,0,0,1,8.67-.6l-3.21,2c-23.42,8.36-39,20.46-47.2,36.65-9.4,18.51-7.07,37.82-5.2,53.34l0,.32c.15,1.23.29,2.43.42,3.6l-124.76.87-124.8-.87c.14-1.26.3-2.57.46-3.92,1.87-15.51,4.21-34.82-5.2-53.34-7.77-15.31-22.12-26.94-43.45-35.23a89,89,0,0,1,20.14,3.79c9.48,3,16.53,9.49,24.59,15,.12.09.27-.05.24-.19-4.17-18.37-25.52-25.08-41.58-27.7A165.37,165.37,0,0,0,173.62,543c-27.48-2.74-54.21-17.89-59.2-22a55.89,55.89,0,0,1-7.91-10.8c-8.23-14.71-8.29-30.66-6.93-41.36,11.23-16.59,14.55-40.63,15.15-59.78.71-22.6-4.76-48.68-16.59-67.92a.48.48,0,0,0-.87.37c5.13,21.66,9.5,41.1,7.93,63.59-.29,4.15-.81,8.28-1.5,12.38-1.58-13.29-4.84-30.68-10.86-53.31a284.13,284.13,0,0,1-3.14-131.56c9.83-46.22,30.49-88.95,61.4-127C183.33,66,223.3,45,264.05,34.05,287,33.82,305,48.21,319.37,69c13.37,19.29,25,39.5,45.4,52,15.5,9.55,35.31,12.19,53.08,12.79,18.3.62,38.54-2.7,52.32-15.89,27.15-26,1.5-82.26-31.92-87.51C422,27.88,405,37.73,397.37,52.11c-8.44,16,2.23,29.41,16.71,35.3.44.18.7-.52.31-.76C393.61,74,396,52,416,40.21c19.29-11.41,39,.07,49.56,17.32,9.37,15.22,13.47,38.81,1,53.37-10.84,12.61-30.66,14.39-45.93,14.3a109.47,109.47,0,0,1-45.05-9.74c-18.57-8.62-30.29-27.37-41.16-44-10.42-16-20.85-31.1-37.3-41.15-1.39-.85-2.83-1.62-4.28-2.36,2.51-.41,5-.81,7.52-1.16,8,.52,15.94,3.13,24.27,9.29,18.54,13.7,28.8,34.8,43.65,51.93,10.88,12.56,24.3,20,40.72,20.05,14.09,0,29.58-3.8,41.36-11.8,7.72-5.24,13.15-14.68,8.92-24-4-8.91-15.54-22.29-26.63-19.66C414.21,56.87,417,87.75,438.75,80a1.24,1.24,0,0,0-.65-2.39c-12.13,2.82-16.23-8.79-8.87-17.22,9.08-10.4,25.39,9.24,26.1,18.24.87,11-14.77,16.56-22.66,19-10.92,3.32-23.45,4.11-34.53,1.19-15.31-4-26-20-34.14-32.56-8.94-13.76-17.22-27.29-28.92-38.89q-2-1.94-4-3.63c12-.75,23.74-1,35-1,33,0,70.11,2.2,106.4,12.63,4.07,4.84,9.28,8.95,13,14.09,5.43,7.53,9.16,16.55,11.54,25.52,6.12,23.08-1.61,44.8-20.54,58.63a.14.14,0,0,0,.14.24c20-10.25,29-32.65,28.67-54.65-.14-9.56-3.15-24-9.13-35.74A206.48,206.48,0,0,1,581,105.64c30.91,38,51.57,80.75,61.4,127A284.13,284.13,0,0,1,639.26,364.18Z" style="fill:#333"/><path d="M245.54,644.39s-1.05-11.83-7.22-14.05-9.47,3.15-9,15.36,1.81,20.72,12.64,22S245.54,644.39,245.54,644.39Z" style="fill:#f9efe1"/><path d="M242.71,669.79h0a8.16,8.16,0,0,1-1-.06c-12.58-1.46-14-11.71-14.44-24-.28-7.74.9-13.07,3.51-15.83,2-2.16,5-2.73,8.22-1.57,6.9,2.49,8.34,13.53,8.55,15.61.72,2.49,4.72,17.29.4,23.2A6.23,6.23,0,0,1,242.71,669.79Zm-6.93-37.88a2.7,2.7,0,0,0-2.09.91c-1,1.08-2.69,4.18-2.38,12.8.48,13,2.16,19,10.84,20a4.9,4.9,0,0,0,.55,0h0a2.22,2.22,0,0,0,2-.93c2.45-3.36.63-13.89-1.09-19.75l-.08-.4c-.27-2.93-1.84-10.84-5.88-12.29A5.64,5.64,0,0,0,235.79,631.92Z" style="fill:#3c3c3b"/><path d="M366,660.2s.39,7.81-6.32,7.81H332.64s-7.67,0-5.41-12.88,8.08-33.07,19.39-33.08C366.41,622.06,366,660.2,366,660.2Z" style="fill:#f9efe1"/><path d="M359.71,670.09H332.64a7.55,7.55,0,0,1-5.54-2.83c-2.22-2.71-2.85-6.91-1.87-12.48,1.84-10.45,7.59-34.78,21.39-34.78a15.42,15.42,0,0,1,11.4,4.92c10.17,10.47,10.06,34.3,10,35.31,0,.35.15,4.63-2.52,7.49A7.73,7.73,0,0,1,359.71,670.09Zm-13.1-46c-8.77,0-14.73,16.21-17.39,31.37-.75,4.26-.41,7.4,1,9.1a3.62,3.62,0,0,0,2.42,1.35h27.08a3.73,3.73,0,0,0,2.88-1.08,7.17,7.17,0,0,0,1.41-4.56c0-.35.11-23.25-8.88-32.49A11.37,11.37,0,0,0,346.61,624.13Z" style="fill:#3c3c3b"/><path d="M303.16,645s1-14.25-8.88-23-13.09,7.35-13.09,13.79-1.35,28.49,2.71,32.17S302.57,668,303.16,645Z" style="fill:#f9efe1"/><path d="M287.7,671.32h0a7.6,7.6,0,0,1-5.15-1.76c-3.43-3.11-3.87-13.17-3.47-29.51,0-1.71.08-3.16.08-4.2,0-4.77,1.8-18.39,9.83-18.39,2.1,0,4.32,1,6.61,3,10.58,9.3,9.63,24.07,9.58,24.69C304.66,665.84,293.52,671.32,287.7,671.32ZM289,621.59c-3.52,0-5.77,8.44-5.77,14.26,0,1.07,0,2.55-.08,4.31-.16,6.53-.59,23.87,2.11,26.31a3.8,3.8,0,0,0,2.45.71h0c5.17,0,13-5.91,13.44-22.19,0-.23.83-13.44-8.18-21.36C291.44,622.3,290.07,621.59,289,621.59Z" style="fill:#3c3c3b"/><path d="M328.78,647.74s3.86-23.37-4.27-28.89-27.08,28.95-23.92,45C300.6,663.88,326.27,679.38,328.78,647.74Z" style="fill:#f9efe1"/><path d="M313.54,669.74h0c-7.13,0-13.7-3.92-14-4.08l-.78-.47-.18-.91c-2.23-11.33,5.56-30.83,13.95-41.24,3.66-4.54,7-6.85,10-6.85a5.37,5.37,0,0,1,3.06.94c8.86,6,5.63,27.95,5.16,30.86C329.35,666,320.61,669.74,313.54,669.74Zm-11.11-7.2c1.81.94,6.42,3.07,11.11,3.07,7.82,0,12.27-6.07,13.21-18l0-.18c1.4-8.53,1.73-23.36-3.39-26.83a1.36,1.36,0,0,0-.81-.24c-.61,0-2.9.39-6.89,5.33C308.14,635,301.09,652.46,302.43,662.54Z" style="fill:#3c3c3b"/><path d="M281,644.39l-6.55-14.05s-6.77-7.81-7.67,1.84a206.79,206.79,0,0,1-4.06,23s-2.71,8.74,5.42,8.74S282.11,667.17,281,644.39Z" style="fill:#f9efe1"/><path d="M273.17,666.12h0c-.77,0-1.58,0-2.42-.08s-1.73-.09-2.65-.09c-3.66,0-5.54-1.55-6.48-2.85-2.31-3.2-1.13-7.69-.9-8.5a204.4,204.4,0,0,0,4-22.61c.55-5.83,3.32-6.7,4.92-6.7,3,0,5.77,3.07,6.3,3.69l.19.22L283,643.87l0,.41c.53,10.7-.4,16.52-3.12,19.44C277.91,665.83,275.39,666.12,273.17,666.12Zm-3.53-36.7s-.64.47-.87,3a206.8,206.8,0,0,1-4.11,23.26l0,.13c-.25.82-.74,3.5.28,4.89.56.77,1.63,1.16,3.2,1.16,1,0,1.93,0,2.84.09s1.52.07,2.23.07h0c2,0,3-.31,3.76-1.1,1.78-1.91,2.45-7.13,2-16l-6.25-13.4C271.77,630.48,270.34,629.42,269.65,629.42Z" style="fill:#3c3c3b"/><path d="M264.69,645.7s-3.36-8.47-8.77-13.07-9.92-1.76-10.38,11.76.57,20.95,9.57,19.66S263.57,652,264.69,645.7Z" style="fill:#f9efe1"/><path d="M253.23,666.26h0a8.39,8.39,0,0,1-6.35-2.49c-3.25-3.42-3.69-9.72-3.36-19.45.44-13.06,4.58-15.8,8-15.8a9,9,0,0,1,5.72,2.52c5.74,4.87,9.21,13.51,9.35,13.88l.22.55-.1.59c-.18,1-.32,2.18-.46,3.42-.72,6.1-1.81,15.31-10.83,16.6A15.4,15.4,0,0,1,253.23,666.26Zm-1.72-33.6c-1.63,0-3.64,3.09-3.93,11.8-.27,8.17,0,14.09,2.23,16.44a4.29,4.29,0,0,0,3.43,1.23h0a11.79,11.79,0,0,0,1.61-.12c5.5-.79,6.52-5.88,7.36-13,.12-1.07.25-2.09.39-3-.8-1.84-3.76-8.16-8-11.73A5.51,5.51,0,0,0,251.5,632.66Z" style="fill:#3c3c3b"/><path d="M486.58,644.39s1.06-11.83,7.22-14.05,9.48,3.15,9,15.36-1.8,20.72-12.63,22S486.58,644.39,486.58,644.39Z" style="fill:#f9efe1"/><path d="M489.41,669.79a6.23,6.23,0,0,1-5.23-2.6c-4.32-5.91-.32-20.72.4-23.2.21-2.07,1.65-13.12,8.55-15.61,3.26-1.17,6.18-.59,8.22,1.57,2.61,2.76,3.79,8.09,3.51,15.83-.45,12.24-1.85,22.49-14.43,24A8.15,8.15,0,0,1,489.41,669.79Zm6.92-37.88a5.64,5.64,0,0,0-1.86.37c-4,1.45-5.63,9.56-5.88,12.29l-.08.4c-1.72,5.86-3.53,16.4-1.08,19.75a2.45,2.45,0,0,0,2.52.89c8.68-1,10.36-7,10.83-20,.32-8.62-1.35-11.72-2.37-12.8A2.71,2.71,0,0,0,496.33,631.92Z" style="fill:#3c3c3b"/><path d="M366.09,660.2s-.38,7.81,6.32,7.81h27.08s7.67,0,5.42-12.88-8.08-33.07-19.39-33.08C365.71,622.06,366.09,660.2,366.09,660.2Z" style="fill:#f9efe1"/><path d="M399.49,670.09H372.41a7.74,7.74,0,0,1-5.83-2.37c-2.67-2.86-2.55-7.14-2.52-7.61,0-.89-.13-24.72,10-35.19a15.43,15.43,0,0,1,11.4-4.92c13.79,0,19.55,24.32,21.39,34.78,1,5.57.35,9.77-1.88,12.48A7.53,7.53,0,0,1,399.49,670.09Zm-14-46a11.39,11.39,0,0,0-8.52,3.69c-9,9.24-8.88,32.13-8.88,32.36,0,.93.16,3.36,1.42,4.69a3.73,3.73,0,0,0,2.87,1.07h27a3.61,3.61,0,0,0,2.5-1.4c1.35-1.71,1.68-4.84.94-9C400.24,640.34,394.27,624.13,385.51,624.13Z" style="fill:#3c3c3b"/><path d="M429,645s-1-14.25,8.89-23,13.09,7.35,13.09,13.79,1.35,28.49-2.71,32.17S429.55,668,429,645Z" style="fill:#f9efe1"/><path d="M444.42,671.32c-5.82,0-17-5.48-17.5-26.23,0-.52-1-15.29,9.59-24.59,2.3-2,4.52-3,6.62-3,8,0,9.83,13.62,9.83,18.39,0,1,0,2.49.08,4.2.4,16.34,0,26.4-3.47,29.51A7.6,7.6,0,0,1,444.42,671.32Zm-1.29-49.73c-1.08,0-2.45.71-4,2-9,7.92-8.2,21.13-8.19,21.26.43,16.38,8.27,22.29,13.44,22.29a3.8,3.8,0,0,0,2.45-.71c2.69-2.44,2.27-19.78,2.1-26.31,0-1.76-.08-3.24-.08-4.31C448.9,630,446.65,621.59,443.13,621.59Z" style="fill:#3c3c3b"/><path d="M403.34,647.74s-3.86-23.37,4.27-28.89,27.08,28.95,23.92,45C431.53,663.88,405.85,679.38,403.34,647.74Z" style="fill:#f9efe1"/><path d="M418.58,669.74c-7.08,0-15.8-3.78-17.26-21.75-.47-2.92-3.7-24.85,5.15-30.86a5.38,5.38,0,0,1,3.06-.94c3,0,6.37,2.31,10,6.85,8.38,10.41,16.17,29.91,13.95,41.24l-.17.91-.78.47C432.28,665.83,425.71,669.74,418.58,669.74Zm-9-49.42a1.36,1.36,0,0,0-.81.24c-5.12,3.47-4.79,18.29-3.39,26.83l0,.18c.95,12,5.39,18,13.22,18a25.91,25.91,0,0,0,11.1-3.07c1.35-10.09-5.7-27.5-13.26-36.88C412.45,620.71,410.15,620.33,409.54,620.33Z" style="fill:#3c3c3b"/><path d="M451.14,644.39l6.55-14.05s6.77-7.81,7.67,1.84a206.66,206.66,0,0,0,4.06,23s2.71,8.74-5.42,8.74S450,667.17,451.14,644.39Z" style="fill:#f9efe1"/><path d="M458.95,666.12c-2.21,0-4.74-.28-6.71-2.39-2.72-2.92-3.66-8.73-3.12-19.44l0-.41L456,629.19l.19-.22c.53-.62,3.34-3.69,6.3-3.69,1.6,0,4.37.87,4.92,6.7a204.47,204.47,0,0,0,4,22.61c.24.81,1.41,5.3-.89,8.5-.94,1.3-2.82,2.85-6.48,2.85-.91,0-1.8,0-2.65.09S459.71,666.12,458.95,666.12Zm-5.79-21.21c-.41,8.84.25,14.07,2,16,.74.79,1.8,1.1,3.76,1.1.71,0,1.45,0,2.22-.07s1.86-.09,2.84-.09c1.57,0,2.65-.39,3.21-1.17,1-1.44.48-4.22.27-4.88l0-.13a206.2,206.2,0,0,1-4.11-23.26c-.23-2.49-.84-2.95-.84-2.95-.77,0-2.24,1.15-3.11,2.08Z" style="fill:#3c3c3b"/><path d="M467.43,645.7s3.35-8.47,8.77-13.07,9.93-1.76,10.38,11.76S486,665.34,477,664,468.55,652,467.43,645.7Z" style="fill:#f9efe1"/><path d="M478.89,666.26a15.39,15.39,0,0,1-2.17-.17c-9-1.29-10.11-10.51-10.83-16.6-.15-1.24-.28-2.41-.46-3.42l-.1-.59.22-.55c.14-.37,3.61-9,9.35-13.88a9,9,0,0,1,5.72-2.52c3.4,0,7.55,2.74,8,15.8.32,9.73-.12,16-3.37,19.45A8.35,8.35,0,0,1,478.89,666.26ZM469.53,646c.15,1,.27,2,.4,3,.84,7.12,1.86,12.21,7.36,13a11.79,11.79,0,0,0,1.61.12,4.28,4.28,0,0,0,3.43-1.23c2.23-2.35,2.5-8.27,2.23-16.44-.29-8.71-2.3-11.8-3.93-11.8a5.52,5.52,0,0,0-3.12,1.56C473.29,637.8,470.33,644.11,469.53,646Z" style="fill:#3c3c3b"/><path d="M334,805.48a241.49,241.49,0,0,0-41.63-28.86c-13.45-7.23-28.93-16.43-44.54-11.13-8.55,2.9-3.4,15.65,4.81,11.61,25.91-12.73,60.84,14.48,80.31,29.76C333.7,807.48,334.73,806.12,334,805.48Z" style="fill:#3c3c3b"/><path d="M320.13,771.86c-6-7.28-15.78-15.92-25.25-17.06-4.58-.55-6.23,5.76-3.52,8.65,5.54,5.91,14.41,9.35,21,14.13,8.34,6.05,17.05,12.27,23.27,20.7a0,0,0,0,0,.06,0C331.1,789,326.75,779.88,320.13,771.86Z" style="fill:#3c3c3b"/><path d="M336.72,759.18a5.37,5.37,0,0,0-6.46-.85,4.62,4.62,0,0,0-2.45,3.24c-.32,1.79-.15,4,1.37,5.28,8,6.6,9.77,17,13.29,26.18a.94.94,0,0,0,1.71.23C349.62,782.69,345.16,766.69,336.72,759.18Z" style="fill:#3c3c3b"/><path d="M394.91,805.48a241.51,241.51,0,0,1,41.64-28.86c13.45-7.23,28.93-16.43,44.54-11.13,8.55,2.9,3.4,15.65-4.81,11.61-25.91-12.73-60.84,14.48-80.32,29.76C395.18,807.48,394.16,806.12,394.91,805.48Z" style="fill:#3c3c3b"/><path d="M408.75,771.86c6-7.28,15.79-15.92,25.25-17.06,4.58-.55,6.24,5.76,3.52,8.65-5.54,5.91-14.41,9.35-21,14.13-8.34,6.05-17.05,12.27-23.27,20.7a0,0,0,0,1-.06,0C397.78,789,402.13,779.88,408.75,771.86Z" style="fill:#3c3c3b"/><path d="M392.16,759.18a5.37,5.37,0,0,1,6.46-.85,4.62,4.62,0,0,1,2.45,3.24c.32,1.79.15,4-1.37,5.28-8,6.6-9.78,17-13.29,26.18a.94.94,0,0,1-1.71.23C379.26,782.69,383.72,766.69,392.16,759.18Z" style="fill:#3c3c3b"/><path d="M139.44,487.73c-6.64-2.44-16.91-.55-18.71-9.87-1.9-9.79-18.43-2.77-11,6.51,3.76,4.68,9.21,6.41,14.92,7.06,4.84.55,11.41.47,14.85-3.39A.19.19,0,0,0,139.44,487.73Z" style="fill:#3c3c3b"/><path d="M143.13,497.66a51.25,51.25,0,0,1-20,1.58c-8.48-1-8.63,14.33,0,13.52,8.46-.8,15.63-7.84,20.49-14.45C143.86,498,143.47,497.56,143.13,497.66Z" style="fill:#3c3c3b"/><path d="M152.12,504.12a.47.47,0,0,0-.86.37c.35,1.76-.46,3.05-1.25,4.49.57-1-.93.6-1,.66-.49.48-1,.94-1.47,1.43a12.27,12.27,0,0,1-1.94,1.76l-.32.22s-.19,0-.57.11l-.26.09a1.33,1.33,0,0,0-.56-.12c-3.34-.3-6.13,3.07-6.13,6.24a6.29,6.29,0,0,0,6.13,6.24c5.79.38,9.94-3.7,11.91-8.86C157.6,512,154.41,507.87,152.12,504.12Z" style="fill:#3c3c3b"/><path d="M164.25,511a.43.43,0,0,0-.65.38,37.24,37.24,0,0,0,1.42,7c1,3.07,0,5.61-.58,8.67-1.65,9,12,10.17,11.69,1.61C175.89,521.12,169.77,515.25,164.25,511Z" style="fill:#3c3c3b"/><path d="M591.33,487.73c6.64-2.44,16.91-.55,18.71-9.87,1.9-9.79,18.43-2.77,11,6.51-3.76,4.68-9.21,6.41-14.92,7.06-4.84.55-11.41.47-14.85-3.39A.19.19,0,0,1,591.33,487.73Z" style="fill:#3c3c3b"/><path d="M587.64,497.66a51.24,51.24,0,0,0,20,1.58c8.48-1,8.63,14.33,0,13.52-8.46-.8-15.63-7.84-20.49-14.45C586.91,498,587.3,497.56,587.64,497.66Z" style="fill:#3c3c3b"/><path d="M578.65,504.12a.47.47,0,0,1,.86.37c-.35,1.76.46,3.05,1.25,4.49-.57-1,.93.6,1,.66.48.48,1,.94,1.47,1.43a12.29,12.29,0,0,0,1.94,1.76l.32.22s.19,0,.57.11l.26.09a1.35,1.35,0,0,1,.56-.12c3.33-.3,6.13,3.07,6.13,6.24a6.29,6.29,0,0,1-6.13,6.24c-5.79.38-9.94-3.7-11.91-8.86C573.17,512,576.35,507.87,578.65,504.12Z" style="fill:#3c3c3b"/><path d="M566.52,511a.43.43,0,0,1,.65.38,37.24,37.24,0,0,1-1.42,7c-1,3.07,0,5.61.57,8.67,1.65,9-12,10.17-11.69,1.61C554.87,521.12,561,515.25,566.52,511Z" style="fill:#3c3c3b"/></svg>